<?xml version="1.0" encoding="UTF-8" standalone="no"?>
<!DOCTYPE svg PUBLIC "-//W3C//DTD SVG 1.1//EN"
 "http://www.w3.org/Graphics/SVG/1.1/DTD/svg11.dtd">
<!-- Generated by graphviz version 2.43.0 (0)
 -->
<!-- Title: include/engine/public/components/audio_source.h Pages: 1 -->
<svg width="498pt" height="291pt"
 viewBox="0.00 0.00 498.28 291.00" xmlns="http://www.w3.org/2000/svg" xmlns:xlink="http://www.w3.org/1999/xlink">
<g id="graph0" class="graph" transform="scale(1 1) rotate(0) translate(4 287)">
<title>include/engine/public/components/audio_source.h</title>
<!-- Node1 -->
<g id="Node000001" class="node">
<title>Node1</title>
<g id="a_Node000001"><a xlink:title=" ">
<polygon fill="#999999" stroke="#666666" points="322.28,-283 166.28,-283 166.28,-253 322.28,-253 322.28,-283"/>
<text text-anchor="start" x="174.28" y="-271" font-family="Helvetica,sans-Serif" font-size="10.00">include/engine/public</text>
<text text-anchor="middle" x="244.28" y="-260" font-family="Helvetica,sans-Serif" font-size="10.00">/components/audio_source.h</text>
</a>
</g>
</g>
<!-- Node2 -->
<g id="Node000002" class="node">
<title>Node2</title>
<g id="a_Node000002"><a xlink:title=" ">
<polygon fill="#e0e0e0" stroke="#999999" points="161.28,-79.5 103.28,-79.5 103.28,-60.5 161.28,-60.5 161.28,-79.5"/>
<text text-anchor="middle" x="132.28" y="-67.5" font-family="Helvetica,sans-Serif" font-size="10.00">memory</text>
</a>
</g>
</g>
<!-- Node1&#45;&gt;Node2 -->
<g id="edge1_Node000001_Node000002" class="edge">
<title>Node1&#45;&gt;Node2</title>
<g id="a_edge1_Node000001_Node000002"><a xlink:title=" ">
<path fill="none" stroke="#63b8ff" d="M166.11,-264.15C124.64,-258.92 75.18,-246.31 40.28,-217 6.15,-188.34 -13.5,-158.05 11.28,-121 29.39,-93.91 65.18,-81.48 93.15,-75.79"/>
<polygon fill="#63b8ff" stroke="#63b8ff" points="93.85,-79.22 103.06,-73.98 92.59,-72.33 93.85,-79.22"/>
</a>
</g>
</g>
<!-- Node3 -->
<g id="Node000003" class="node">
<title>Node3</title>
<g id="a_Node000003"><a xlink:title=" ">
<polygon fill="#e0e0e0" stroke="#999999" points="234.28,-145.5 178.28,-145.5 178.28,-126.5 234.28,-126.5 234.28,-145.5"/>
<text text-anchor="middle" x="206.28" y="-133.5" font-family="Helvetica,sans-Serif" font-size="10.00">optional</text>
</a>
</g>
</g>
<!-- Node1&#45;&gt;Node3 -->
<g id="edge2_Node000001_Node000003" class="edge">
<title>Node1&#45;&gt;Node3</title>
<g id="a_edge2_Node000001_Node000003"><a xlink:title=" ">
<path fill="none" stroke="#63b8ff" d="M240.14,-252.84C233.24,-229.23 219.38,-181.83 211.71,-155.58"/>
<polygon fill="#63b8ff" stroke="#63b8ff" points="215,-154.36 208.83,-145.75 208.28,-156.33 215,-154.36"/>
</a>
</g>
</g>
<!-- Node4 -->
<g id="Node000004" class="node">
<title>Node4</title>
<g id="a_Node000004"><a xlink:title=" ">
<polygon fill="#e0e0e0" stroke="#999999" points="490.28,-79.5 446.28,-79.5 446.28,-60.5 490.28,-60.5 490.28,-79.5"/>
<text text-anchor="middle" x="468.28" y="-67.5" font-family="Helvetica,sans-Serif" font-size="10.00">string</text>
</a>
</g>
</g>
<!-- Node1&#45;&gt;Node4 -->
<g id="edge3_Node000001_Node000004" class="edge">
<title>Node1&#45;&gt;Node4</title>
<g id="a_edge3_Node000001_Node000004"><a xlink:title=" ">
<path fill="none" stroke="#63b8ff" d="M322.28,-256.14C372.15,-247.69 430.82,-234.47 449.28,-217 484.16,-183.98 478.07,-120.77 472.36,-89.48"/>
<polygon fill="#63b8ff" stroke="#63b8ff" points="475.76,-88.62 470.35,-79.51 468.9,-90.01 475.76,-88.62"/>
</a>
</g>
</g>
<!-- Node5 -->
<g id="Node000005" class="node">
<title>Node5</title>
<g id="a_Node000005"><a xlink:href="component_8h.html" target="_top" xlink:title=" ">
<polygon fill="white" stroke="#666666" points="197.78,-211.5 48.78,-211.5 48.78,-192.5 197.78,-192.5 197.78,-211.5"/>
<text text-anchor="middle" x="123.28" y="-199.5" font-family="Helvetica,sans-Serif" font-size="10.00">engine/public/component.h</text>
</a>
</g>
</g>
<!-- Node1&#45;&gt;Node5 -->
<g id="edge4_Node000001_Node000005" class="edge">
<title>Node1&#45;&gt;Node5</title>
<g id="a_edge4_Node000001_Node000005"><a xlink:title=" ">
<path fill="none" stroke="#63b8ff" d="M217.72,-252.95C197.06,-242.03 168.6,-226.97 148.33,-216.25"/>
<polygon fill="#63b8ff" stroke="#63b8ff" points="149.86,-213.1 139.38,-211.52 146.58,-219.29 149.86,-213.1"/>
</a>
</g>
</g>
<!-- Node8 -->
<g id="Node000008" class="node">
<title>Node8</title>
<g id="a_Node000008"><a xlink:href="sound__resource_8h.html" target="_top" xlink:title=" ">
<polygon fill="white" stroke="#666666" points="440.28,-151 290.28,-151 290.28,-121 440.28,-121 440.28,-151"/>
<text text-anchor="start" x="298.28" y="-139" font-family="Helvetica,sans-Serif" font-size="10.00">engine/audio/sound</text>
<text text-anchor="middle" x="365.28" y="-128" font-family="Helvetica,sans-Serif" font-size="10.00">/resource/sound_resource.h</text>
</a>
</g>
</g>
<!-- Node1&#45;&gt;Node8 -->
<g id="edge9_Node000001_Node000008" class="edge">
<title>Node1&#45;&gt;Node8</title>
<g id="a_edge9_Node000001_Node000008"><a xlink:title=" ">
<path fill="none" stroke="#63b8ff" d="M248.22,-252.84C253.6,-235.64 264.62,-206.49 282.28,-187 293.78,-174.3 309.27,-163.79 323.75,-155.74"/>
<polygon fill="#63b8ff" stroke="#63b8ff" points="325.4,-158.83 332.59,-151.05 322.12,-152.64 325.4,-158.83"/>
</a>
</g>
</g>
<!-- Node11 -->
<g id="Node000011" class="node">
<title>Node11</title>
<g id="a_Node000011"><a xlink:href="sound__instance_8h.html" target="_top" xlink:title=" ">
<polygon fill="white" stroke="#666666" points="439.78,-217 290.78,-217 290.78,-187 439.78,-187 439.78,-217"/>
<text text-anchor="start" x="298.78" y="-205" font-family="Helvetica,sans-Serif" font-size="10.00">engine/audio/sound</text>
<text text-anchor="middle" x="365.28" y="-194" font-family="Helvetica,sans-Serif" font-size="10.00">/instance/sound_instance.h</text>
</a>
</g>
</g>
<!-- Node1&#45;&gt;Node11 -->
<g id="edge14_Node000001_Node000011" class="edge">
<title>Node1&#45;&gt;Node11</title>
<g id="a_edge14_Node000001_Node000011"><a xlink:title=" ">
<path fill="none" stroke="#63b8ff" d="M270.83,-252.95C288.17,-243.78 311,-231.71 329.88,-221.72"/>
<polygon fill="#63b8ff" stroke="#63b8ff" points="331.58,-224.78 338.78,-217.01 328.31,-218.59 331.58,-224.78"/>
</a>
</g>
</g>
<!-- Node5&#45;&gt;Node2 -->
<g id="edge6_Node000005_Node000002" class="edge">
<title>Node5&#45;&gt;Node2</title>
<g id="a_edge6_Node000005_Node000002"><a xlink:title=" ">
<path fill="none" stroke="#63b8ff" d="M82.69,-192.42C60.13,-185.36 33.94,-172.82 20.28,-151 13.2,-139.7 13.02,-132.19 20.28,-121 36.34,-96.24 67.84,-83.63 93.35,-77.28"/>
<polygon fill="#63b8ff" stroke="#63b8ff" points="94.16,-80.68 103.14,-75.07 92.62,-73.86 94.16,-80.68"/>
</a>
</g>
</g>
<!-- Node5&#45;&gt;Node3 -->
<g id="edge7_Node000005_Node000003" class="edge">
<title>Node5&#45;&gt;Node3</title>
<g id="a_edge7_Node000005_Node000003"><a xlink:title=" ">
<path fill="none" stroke="#63b8ff" d="M134.47,-192.37C147.84,-182.06 170.42,-164.65 186.7,-152.09"/>
<polygon fill="#63b8ff" stroke="#63b8ff" points="189.21,-154.58 194.99,-145.7 184.94,-149.03 189.21,-154.58"/>
</a>
</g>
</g>
<!-- Node6 -->
<g id="Node000006" class="node">
<title>Node6</title>
<g id="a_Node000006"><a xlink:title=" ">
<polygon fill="#e0e0e0" stroke="#999999" points="94.78,-145.5 29.78,-145.5 29.78,-126.5 94.78,-126.5 94.78,-145.5"/>
<text text-anchor="middle" x="62.28" y="-133.5" font-family="Helvetica,sans-Serif" font-size="10.00">functional</text>
</a>
</g>
</g>
<!-- Node5&#45;&gt;Node6 -->
<g id="edge5_Node000005_Node000006" class="edge">
<title>Node5&#45;&gt;Node6</title>
<g id="a_edge5_Node000005_Node000006"><a xlink:title=" ">
<path fill="none" stroke="#63b8ff" d="M115.05,-192.37C105.55,-182.4 89.72,-165.79 77.87,-153.36"/>
<polygon fill="#63b8ff" stroke="#63b8ff" points="80.2,-150.73 70.76,-145.91 75.13,-155.56 80.2,-150.73"/>
</a>
</g>
</g>
<!-- Node7 -->
<g id="Node000007" class="node">
<title>Node7</title>
<g id="a_Node000007"><a xlink:title=" ">
<polygon fill="#e0e0e0" stroke="#999999" points="159.78,-145.5 112.78,-145.5 112.78,-126.5 159.78,-126.5 159.78,-145.5"/>
<text text-anchor="middle" x="136.28" y="-133.5" font-family="Helvetica,sans-Serif" font-size="10.00">vector</text>
</a>
</g>
</g>
<!-- Node5&#45;&gt;Node7 -->
<g id="edge8_Node000005_Node000007" class="edge">
<title>Node5&#45;&gt;Node7</title>
<g id="a_edge8_Node000005_Node000007"><a xlink:title=" ">
<path fill="none" stroke="#63b8ff" d="M125.03,-192.37C126.92,-183.07 129.98,-167.98 132.44,-155.9"/>
<polygon fill="#63b8ff" stroke="#63b8ff" points="135.91,-156.4 134.47,-145.91 129.05,-155.01 135.91,-156.4"/>
</a>
</g>
</g>
<!-- Node8&#45;&gt;Node2 -->
<g id="edge10_Node000008_Node000002" class="edge">
<title>Node8&#45;&gt;Node2</title>
<g id="a_edge10_Node000008_Node000002"><a xlink:title=" ">
<path fill="none" stroke="#63b8ff" d="M314.14,-120.95C271.01,-109.11 210.21,-92.41 171.01,-81.64"/>
<polygon fill="#63b8ff" stroke="#63b8ff" points="171.86,-78.24 161.29,-78.97 170.01,-84.99 171.86,-78.24"/>
</a>
</g>
</g>
<!-- Node8&#45;&gt;Node4 -->
<g id="edge11_Node000008_Node000004" class="edge">
<title>Node8&#45;&gt;Node4</title>
<g id="a_edge11_Node000008_Node000004"><a xlink:title=" ">
<path fill="none" stroke="#63b8ff" d="M387.88,-120.95C405.07,-110.27 428.61,-95.65 445.77,-84.98"/>
<polygon fill="#63b8ff" stroke="#63b8ff" points="447.92,-87.77 454.57,-79.52 444.23,-81.82 447.92,-87.77"/>
</a>
</g>
</g>
<!-- Node9 -->
<g id="Node000009" class="node">
<title>Node9</title>
<g id="a_Node000009"><a xlink:href="sound__type_8h.html" target="_top" xlink:title=" ">
<polygon fill="white" stroke="#666666" points="421.28,-85 309.28,-85 309.28,-55 421.28,-55 421.28,-85"/>
<text text-anchor="start" x="317.28" y="-73" font-family="Helvetica,sans-Serif" font-size="10.00">engine/audio/sound</text>
<text text-anchor="middle" x="365.28" y="-62" font-family="Helvetica,sans-Serif" font-size="10.00">/sound_type.h</text>
</a>
</g>
</g>
<!-- Node8&#45;&gt;Node9 -->
<g id="edge12_Node000008_Node000009" class="edge">
<title>Node8&#45;&gt;Node9</title>
<g id="a_edge12_Node000008_Node000009"><a xlink:title=" ">
<path fill="none" stroke="#63b8ff" d="M365.28,-120.8C365.28,-113.34 365.28,-103.99 365.28,-95.41"/>
<polygon fill="#63b8ff" stroke="#63b8ff" points="368.78,-95.16 365.28,-85.16 361.78,-95.16 368.78,-95.16"/>
</a>
</g>
</g>
<!-- Node10 -->
<g id="Node000010" class="node">
<title>Node10</title>
<g id="a_Node000010"><a xlink:title=" ">
<polygon fill="#e0e0e0" stroke="#999999" points="390.28,-19 340.28,-19 340.28,0 390.28,0 390.28,-19"/>
<text text-anchor="middle" x="365.28" y="-7" font-family="Helvetica,sans-Serif" font-size="10.00">cstdint</text>
</a>
</g>
</g>
<!-- Node9&#45;&gt;Node10 -->
<g id="edge13_Node000009_Node000010" class="edge">
<title>Node9&#45;&gt;Node10</title>
<g id="a_edge13_Node000009_Node000010"><a xlink:title=" ">
<path fill="none" stroke="#63b8ff" d="M365.28,-54.84C365.28,-47.21 365.28,-37.7 365.28,-29.45"/>
<polygon fill="#63b8ff" stroke="#63b8ff" points="368.78,-29.27 365.28,-19.27 361.78,-29.27 368.78,-29.27"/>
</a>
</g>
</g>
<!-- Node11&#45;&gt;Node2 -->
<g id="edge15_Node000011_Node000002" class="edge">
<title>Node11&#45;&gt;Node2</title>
<g id="a_edge15_Node000011_Node000002"><a xlink:title=" ">
<path fill="none" stroke="#63b8ff" d="M339.74,-186.96C322.81,-177.38 300.29,-164.08 281.28,-151 263.55,-138.8 261.67,-132.17 243.28,-121 218.25,-105.8 187.82,-92.42 165.15,-83.33"/>
<polygon fill="#63b8ff" stroke="#63b8ff" points="166.22,-79.99 155.64,-79.58 163.66,-86.5 166.22,-79.99"/>
</a>
</g>
</g>
<!-- Node11&#45;&gt;Node4 -->
<g id="edge16_Node000011_Node000004" class="edge">
<title>Node11&#45;&gt;Node4</title>
<g id="a_edge16_Node000011_Node000004"><a xlink:title=" ">
<path fill="none" stroke="#63b8ff" d="M402.28,-186.94C418.97,-178.82 437.52,-167 449.28,-151 462.52,-132.97 466.67,-107.05 467.89,-89.64"/>
<polygon fill="#63b8ff" stroke="#63b8ff" points="471.39,-89.75 468.35,-79.6 464.4,-89.44 471.39,-89.75"/>
</a>
</g>
</g>
<!-- Node11&#45;&gt;Node8 -->
<g id="edge17_Node000011_Node000008" class="edge">
<title>Node11&#45;&gt;Node8</title>
<g id="a_edge17_Node000011_Node000008"><a xlink:title=" ">
<path fill="none" stroke="#63b8ff" d="M365.28,-186.8C365.28,-179.34 365.28,-169.99 365.28,-161.41"/>
<polygon fill="#63b8ff" stroke="#63b8ff" points="368.78,-161.16 365.28,-151.16 361.78,-161.16 368.78,-161.16"/>
</a>
</g>
</g>
</g>
</svg>
