<?xml version="1.0" encoding="UTF-8" standalone="no"?>
<!DOCTYPE svg PUBLIC "-//W3C//DTD SVG 1.1//EN"
 "http://www.w3.org/Graphics/SVG/1.1/DTD/svg11.dtd">
<!-- Generated by graphviz version 2.43.0 (0)
 -->
<!-- Title: include/engine/audio/audio_service.h Pages: 1 -->
<svg width="756pt" height="291pt"
 viewBox="0.00 0.00 756.00 291.00" xmlns="http://www.w3.org/2000/svg" xmlns:xlink="http://www.w3.org/1999/xlink">
<g id="graph0" class="graph" transform="scale(1 1) rotate(0) translate(4 287)">
<title>include/engine/audio/audio_service.h</title>
<!-- Node1 -->
<g id="Node000001" class="node">
<title>Node1</title>
<g id="a_Node000001"><a xlink:title=" ">
<polygon fill="#999999" stroke="#666666" points="370,-283 252,-283 252,-253 370,-253 370,-283"/>
<text text-anchor="start" x="260" y="-271" font-family="Helvetica,sans-Serif" font-size="10.00">include/engine/audio</text>
<text text-anchor="middle" x="311" y="-260" font-family="Helvetica,sans-Serif" font-size="10.00">/audio_service.h</text>
</a>
</g>
</g>
<!-- Node2 -->
<g id="Node000002" class="node">
<title>Node2</title>
<g id="a_Node000002"><a xlink:title=" ">
<polygon fill="#e0e0e0" stroke="#999999" points="58,-79.5 0,-79.5 0,-60.5 58,-60.5 58,-79.5"/>
<text text-anchor="middle" x="29" y="-67.5" font-family="Helvetica,sans-Serif" font-size="10.00">memory</text>
</a>
</g>
</g>
<!-- Node1&#45;&gt;Node2 -->
<g id="edge1_Node000001_Node000002" class="edge">
<title>Node1&#45;&gt;Node2</title>
<g id="a_edge1_Node000001_Node000002"><a xlink:title=" ">
<path fill="none" stroke="#63b8ff" d="M251.82,-265.54C175.25,-262.26 48.18,-251.6 19,-217 -11.62,-180.69 7.82,-119.55 20.53,-89.21"/>
<polygon fill="#63b8ff" stroke="#63b8ff" points="23.82,-90.41 24.65,-79.85 17.42,-87.59 23.82,-90.41"/>
</a>
</g>
</g>
<!-- Node3 -->
<g id="Node000003" class="node">
<title>Node3</title>
<g id="a_Node000003"><a xlink:title=" ">
<polygon fill="#e0e0e0" stroke="#999999" points="432.5,-211.5 339.5,-211.5 339.5,-192.5 432.5,-192.5 432.5,-211.5"/>
<text text-anchor="middle" x="386" y="-199.5" font-family="Helvetica,sans-Serif" font-size="10.00">unordered_map</text>
</a>
</g>
</g>
<!-- Node1&#45;&gt;Node3 -->
<g id="edge2_Node000001_Node000003" class="edge">
<title>Node1&#45;&gt;Node3</title>
<g id="a_edge2_Node000001_Node000003"><a xlink:title=" ">
<path fill="none" stroke="#63b8ff" d="M327.64,-252.8C339.57,-242.62 355.61,-228.93 367.86,-218.48"/>
<polygon fill="#63b8ff" stroke="#63b8ff" points="370.3,-221 375.64,-211.84 365.76,-215.67 370.3,-221"/>
</a>
</g>
</g>
<!-- Node4 -->
<g id="Node000004" class="node">
<title>Node4</title>
<g id="a_Node000004"><a xlink:title=" ">
<polygon fill="#e0e0e0" stroke="#999999" points="507,-211.5 451,-211.5 451,-192.5 507,-192.5 507,-211.5"/>
<text text-anchor="middle" x="479" y="-199.5" font-family="Helvetica,sans-Serif" font-size="10.00">optional</text>
</a>
</g>
</g>
<!-- Node1&#45;&gt;Node4 -->
<g id="edge3_Node000001_Node000004" class="edge">
<title>Node1&#45;&gt;Node4</title>
<g id="a_edge3_Node000001_Node000004"><a xlink:title=" ">
<path fill="none" stroke="#63b8ff" d="M347.87,-252.95C377.59,-241.63 418.95,-225.88 447.23,-215.1"/>
<polygon fill="#63b8ff" stroke="#63b8ff" points="448.54,-218.35 456.64,-211.52 446.05,-211.81 448.54,-218.35"/>
</a>
</g>
</g>
<!-- Node5 -->
<g id="Node000005" class="node">
<title>Node5</title>
<g id="a_Node000005"><a xlink:title=" ">
<polygon fill="#e0e0e0" stroke="#999999" points="572.5,-211.5 525.5,-211.5 525.5,-192.5 572.5,-192.5 572.5,-211.5"/>
<text text-anchor="middle" x="549" y="-199.5" font-family="Helvetica,sans-Serif" font-size="10.00">vector</text>
</a>
</g>
</g>
<!-- Node1&#45;&gt;Node5 -->
<g id="edge4_Node000001_Node000005" class="edge">
<title>Node1&#45;&gt;Node5</title>
<g id="a_edge4_Node000001_Node000005"><a xlink:title=" ">
<path fill="none" stroke="#63b8ff" d="M370.03,-255.26C411.38,-246.39 467.67,-233.03 516,-217 517.62,-216.46 519.28,-215.88 520.94,-215.26"/>
<polygon fill="#63b8ff" stroke="#63b8ff" points="522.35,-218.47 530.35,-211.53 519.77,-211.96 522.35,-218.47"/>
</a>
</g>
</g>
<!-- Node6 -->
<g id="Node000006" class="node">
<title>Node6</title>
<g id="a_Node000006"><a xlink:title=" ">
<polygon fill="#e0e0e0" stroke="#999999" points="192,-79.5 148,-79.5 148,-60.5 192,-60.5 192,-79.5"/>
<text text-anchor="middle" x="170" y="-67.5" font-family="Helvetica,sans-Serif" font-size="10.00">string</text>
</a>
</g>
</g>
<!-- Node1&#45;&gt;Node6 -->
<g id="edge5_Node000001_Node000006" class="edge">
<title>Node1&#45;&gt;Node6</title>
<g id="a_edge5_Node000001_Node000006"><a xlink:title=" ">
<path fill="none" stroke="#63b8ff" d="M306.69,-252.57C296.74,-219.97 271.68,-141.86 254,-121 239.93,-104.4 218.87,-91.88 201.36,-83.52"/>
<polygon fill="#63b8ff" stroke="#63b8ff" points="202.62,-80.25 192.07,-79.31 199.73,-86.62 202.62,-80.25"/>
</a>
</g>
</g>
<!-- Node7 -->
<g id="Node000007" class="node">
<title>Node7</title>
<g id="a_Node000007"><a xlink:href="i_engine_service_8h.html" target="_top" xlink:title=" ">
<polygon fill="white" stroke="#666666" points="748,-211.5 590,-211.5 590,-192.5 748,-192.5 748,-211.5"/>
<text text-anchor="middle" x="669" y="-199.5" font-family="Helvetica,sans-Serif" font-size="10.00">engine/core/iEngineService.h</text>
</a>
</g>
</g>
<!-- Node1&#45;&gt;Node7 -->
<g id="edge6_Node000001_Node000007" class="edge">
<title>Node1&#45;&gt;Node7</title>
<g id="a_edge6_Node000001_Node000007"><a xlink:title=" ">
<path fill="none" stroke="#63b8ff" d="M370.12,-256.43C436.99,-244.48 545.17,-225.14 611.41,-213.3"/>
<polygon fill="#63b8ff" stroke="#63b8ff" points="612.04,-216.74 621.26,-211.53 610.8,-209.85 612.04,-216.74"/>
</a>
</g>
</g>
<!-- Node9 -->
<g id="Node000009" class="node">
<title>Node9</title>
<g id="a_Node000009"><a xlink:href="sound__instance_8h.html" target="_top" xlink:title=" ">
<polygon fill="white" stroke="#666666" points="177.5,-217 28.5,-217 28.5,-187 177.5,-187 177.5,-217"/>
<text text-anchor="start" x="36.5" y="-205" font-family="Helvetica,sans-Serif" font-size="10.00">engine/audio/sound</text>
<text text-anchor="middle" x="103" y="-194" font-family="Helvetica,sans-Serif" font-size="10.00">/instance/sound_instance.h</text>
</a>
</g>
</g>
<!-- Node1&#45;&gt;Node9 -->
<g id="edge8_Node000001_Node000009" class="edge">
<title>Node1&#45;&gt;Node9</title>
<g id="a_edge8_Node000001_Node000009"><a xlink:title=" ">
<path fill="none" stroke="#63b8ff" d="M265.35,-252.95C233.79,-243.24 191.62,-230.27 158.17,-219.98"/>
<polygon fill="#63b8ff" stroke="#63b8ff" points="159.13,-216.61 148.54,-217.01 157.07,-223.3 159.13,-216.61"/>
</a>
</g>
</g>
<!-- Node10 -->
<g id="Node000010" class="node">
<title>Node10</title>
<g id="a_Node000010"><a xlink:href="sound__resource_8h.html" target="_top" xlink:title=" ">
<polygon fill="white" stroke="#666666" points="245,-151 95,-151 95,-121 245,-121 245,-151"/>
<text text-anchor="start" x="103" y="-139" font-family="Helvetica,sans-Serif" font-size="10.00">engine/audio/sound</text>
<text text-anchor="middle" x="170" y="-128" font-family="Helvetica,sans-Serif" font-size="10.00">/resource/sound_resource.h</text>
</a>
</g>
</g>
<!-- Node1&#45;&gt;Node10 -->
<g id="edge16_Node000001_Node000010" class="edge">
<title>Node1&#45;&gt;Node10</title>
<g id="a_edge16_Node000001_Node000010"><a xlink:title=" ">
<path fill="none" stroke="#63b8ff" d="M295.64,-252.84C270.85,-229.98 221.87,-184.82 192.93,-158.14"/>
<polygon fill="#63b8ff" stroke="#63b8ff" points="195.06,-155.35 185.34,-151.14 190.32,-160.49 195.06,-155.35"/>
</a>
</g>
</g>
<!-- Node11 -->
<g id="Node000011" class="node">
<title>Node11</title>
<g id="a_Node000011"><a xlink:href="sound__type_8h.html" target="_top" xlink:title=" ">
<polygon fill="white" stroke="#666666" points="344,-85 232,-85 232,-55 344,-55 344,-85"/>
<text text-anchor="start" x="240" y="-73" font-family="Helvetica,sans-Serif" font-size="10.00">engine/audio/sound</text>
<text text-anchor="middle" x="288" y="-62" font-family="Helvetica,sans-Serif" font-size="10.00">/sound_type.h</text>
</a>
</g>
</g>
<!-- Node1&#45;&gt;Node11 -->
<g id="edge17_Node000001_Node000011" class="edge">
<title>Node1&#45;&gt;Node11</title>
<g id="a_edge17_Node000001_Node000011"><a xlink:title=" ">
<path fill="none" stroke="#63b8ff" d="M309.35,-252.9C305.46,-219.79 295.71,-136.7 290.85,-95.27"/>
<polygon fill="#63b8ff" stroke="#63b8ff" points="294.31,-94.76 289.67,-85.23 287.36,-95.57 294.31,-94.76"/>
</a>
</g>
</g>
<!-- Node8 -->
<g id="Node000008" class="node">
<title>Node8</title>
<g id="a_Node000008"><a xlink:title=" ">
<polygon fill="#e0e0e0" stroke="#999999" points="699,-145.5 639,-145.5 639,-126.5 699,-126.5 699,-145.5"/>
<text text-anchor="middle" x="669" y="-133.5" font-family="Helvetica,sans-Serif" font-size="10.00">concepts</text>
</a>
</g>
</g>
<!-- Node7&#45;&gt;Node8 -->
<g id="edge7_Node000007_Node000008" class="edge">
<title>Node7&#45;&gt;Node8</title>
<g id="a_edge7_Node000007_Node000008"><a xlink:title=" ">
<path fill="none" stroke="#63b8ff" d="M669,-192.37C669,-183.16 669,-168.29 669,-156.27"/>
<polygon fill="#63b8ff" stroke="#63b8ff" points="672.5,-155.91 669,-145.91 665.5,-155.91 672.5,-155.91"/>
</a>
</g>
</g>
<!-- Node9&#45;&gt;Node2 -->
<g id="edge9_Node000009_Node000002" class="edge">
<title>Node9&#45;&gt;Node2</title>
<g id="a_edge9_Node000009_Node000002"><a xlink:title=" ">
<path fill="none" stroke="#63b8ff" d="M94.94,-186.84C81.32,-162.92 53.8,-114.56 38.98,-88.53"/>
<polygon fill="#63b8ff" stroke="#63b8ff" points="41.97,-86.71 33.98,-79.75 35.89,-90.17 41.97,-86.71"/>
</a>
</g>
</g>
<!-- Node9&#45;&gt;Node6 -->
<g id="edge10_Node000009_Node000006" class="edge">
<title>Node9&#45;&gt;Node6</title>
<g id="a_edge10_Node000009_Node000006"><a xlink:title=" ">
<path fill="none" stroke="#63b8ff" d="M94.34,-186.79C85.35,-170.04 74.14,-141.86 86,-121 97.21,-101.27 119.63,-88.52 138.48,-80.83"/>
<polygon fill="#63b8ff" stroke="#63b8ff" points="139.82,-84.06 147.94,-77.26 137.35,-77.51 139.82,-84.06"/>
</a>
</g>
</g>
<!-- Node9&#45;&gt;Node10 -->
<g id="edge11_Node000009_Node000010" class="edge">
<title>Node9&#45;&gt;Node10</title>
<g id="a_edge11_Node000009_Node000010"><a xlink:title=" ">
<path fill="none" stroke="#63b8ff" d="M117.87,-186.8C126.63,-178.43 137.88,-167.68 147.69,-158.31"/>
<polygon fill="#63b8ff" stroke="#63b8ff" points="150.36,-160.6 155.17,-151.16 145.52,-155.54 150.36,-160.6"/>
</a>
</g>
</g>
<!-- Node10&#45;&gt;Node2 -->
<g id="edge12_Node000010_Node000002" class="edge">
<title>Node10&#45;&gt;Node2</title>
<g id="a_edge12_Node000010_Node000002"><a xlink:title=" ">
<path fill="none" stroke="#63b8ff" d="M139.06,-120.95C114.55,-109.83 80.61,-94.42 56.92,-83.67"/>
<polygon fill="#63b8ff" stroke="#63b8ff" points="58.32,-80.46 47.76,-79.52 55.42,-86.84 58.32,-80.46"/>
</a>
</g>
</g>
<!-- Node10&#45;&gt;Node6 -->
<g id="edge13_Node000010_Node000006" class="edge">
<title>Node10&#45;&gt;Node6</title>
<g id="a_edge13_Node000010_Node000006"><a xlink:title=" ">
<path fill="none" stroke="#63b8ff" d="M170,-120.8C170,-111.7 170,-99.79 170,-89.9"/>
<polygon fill="#63b8ff" stroke="#63b8ff" points="173.5,-89.84 170,-79.84 166.5,-89.84 173.5,-89.84"/>
</a>
</g>
</g>
<!-- Node10&#45;&gt;Node11 -->
<g id="edge14_Node000010_Node000011" class="edge">
<title>Node10&#45;&gt;Node11</title>
<g id="a_edge14_Node000010_Node000011"><a xlink:title=" ">
<path fill="none" stroke="#63b8ff" d="M195.9,-120.95C212.73,-111.83 234.87,-99.82 253.23,-89.86"/>
<polygon fill="#63b8ff" stroke="#63b8ff" points="255.04,-92.86 262.16,-85.01 251.71,-86.7 255.04,-92.86"/>
</a>
</g>
</g>
<!-- Node12 -->
<g id="Node000012" class="node">
<title>Node12</title>
<g id="a_Node000012"><a xlink:title=" ">
<polygon fill="#e0e0e0" stroke="#999999" points="313,-19 263,-19 263,0 313,0 313,-19"/>
<text text-anchor="middle" x="288" y="-7" font-family="Helvetica,sans-Serif" font-size="10.00">cstdint</text>
</a>
</g>
</g>
<!-- Node11&#45;&gt;Node12 -->
<g id="edge15_Node000011_Node000012" class="edge">
<title>Node11&#45;&gt;Node12</title>
<g id="a_edge15_Node000011_Node000012"><a xlink:title=" ">
<path fill="none" stroke="#63b8ff" d="M288,-54.84C288,-47.21 288,-37.7 288,-29.45"/>
<polygon fill="#63b8ff" stroke="#63b8ff" points="291.5,-29.27 288,-19.27 284.5,-29.27 291.5,-29.27"/>
</a>
</g>
</g>
</g>
</svg>
