<?xml version="1.0" encoding="UTF-8" standalone="no"?>
<!DOCTYPE svg PUBLIC "-//W3C//DTD SVG 1.1//EN"
 "http://www.w3.org/Graphics/SVG/1.1/DTD/svg11.dtd">
<!-- Generated by graphviz version 2.43.0 (0)
 -->
<!-- Title: include/engine/public/components/audio_source.h Pages: 1 -->
<svg width="488pt" height="291pt"
 viewBox="0.00 0.00 487.50 291.00" xmlns="http://www.w3.org/2000/svg" xmlns:xlink="http://www.w3.org/1999/xlink">
<g id="graph0" class="graph" transform="scale(1 1) rotate(0) translate(4 287)">
<title>include/engine/public/components/audio_source.h</title>
<!-- Node1 -->
<g id="Node000001" class="node">
<title>Node1</title>
<g id="a_Node000001"><a xlink:title=" ">
<polygon fill="#999999" stroke="#666666" points="311.5,-283 155.5,-283 155.5,-253 311.5,-253 311.5,-283"/>
<text text-anchor="start" x="163.5" y="-271" font-family="Helvetica,sans-Serif" font-size="10.00">include/engine/public</text>
<text text-anchor="middle" x="233.5" y="-260" font-family="Helvetica,sans-Serif" font-size="10.00">/components/audio_source.h</text>
</a>
</g>
</g>
<!-- Node2 -->
<g id="Node000002" class="node">
<title>Node2</title>
<g id="a_Node000002"><a xlink:title=" ">
<polygon fill="#e0e0e0" stroke="#999999" points="261.5,-79.5 203.5,-79.5 203.5,-60.5 261.5,-60.5 261.5,-79.5"/>
<text text-anchor="middle" x="232.5" y="-67.5" font-family="Helvetica,sans-Serif" font-size="10.00">memory</text>
</a>
</g>
</g>
<!-- Node1&#45;&gt;Node2 -->
<g id="edge1_Node000001_Node000002" class="edge">
<title>Node1&#45;&gt;Node2</title>
<g id="a_edge1_Node000001_Node000002"><a xlink:title=" ">
<path fill="none" stroke="#63b8ff" d="M233.43,-252.9C233.25,-218.31 232.8,-129.17 232.6,-89.97"/>
<polygon fill="#63b8ff" stroke="#63b8ff" points="236.1,-89.71 232.54,-79.73 229.1,-89.74 236.1,-89.71"/>
</a>
</g>
</g>
<!-- Node3 -->
<g id="Node000003" class="node">
<title>Node3</title>
<g id="a_Node000003"><a xlink:title=" ">
<polygon fill="#e0e0e0" stroke="#999999" points="178.5,-145.5 122.5,-145.5 122.5,-126.5 178.5,-126.5 178.5,-145.5"/>
<text text-anchor="middle" x="150.5" y="-133.5" font-family="Helvetica,sans-Serif" font-size="10.00">optional</text>
</a>
</g>
</g>
<!-- Node1&#45;&gt;Node3 -->
<g id="edge2_Node000001_Node000003" class="edge">
<title>Node1&#45;&gt;Node3</title>
<g id="a_edge2_Node000001_Node000003"><a xlink:title=" ">
<path fill="none" stroke="#63b8ff" d="M223.87,-252.62C217.24,-242.66 208.26,-229.08 200.5,-217 186.87,-195.77 171.54,-171.13 161.49,-154.86"/>
<polygon fill="#63b8ff" stroke="#63b8ff" points="164.21,-152.6 155.98,-145.92 158.25,-156.27 164.21,-152.6"/>
</a>
</g>
</g>
<!-- Node4 -->
<g id="Node000004" class="node">
<title>Node4</title>
<g id="a_Node000004"><a xlink:title=" ">
<polygon fill="#e0e0e0" stroke="#999999" points="479.5,-79.5 435.5,-79.5 435.5,-60.5 479.5,-60.5 479.5,-79.5"/>
<text text-anchor="middle" x="457.5" y="-67.5" font-family="Helvetica,sans-Serif" font-size="10.00">string</text>
</a>
</g>
</g>
<!-- Node1&#45;&gt;Node4 -->
<g id="edge3_Node000001_Node000004" class="edge">
<title>Node1&#45;&gt;Node4</title>
<g id="a_edge3_Node000001_Node000004"><a xlink:title=" ">
<path fill="none" stroke="#63b8ff" d="M311.5,-256.14C361.37,-247.69 420.04,-234.47 438.5,-217 473.39,-183.98 467.29,-120.77 461.59,-89.48"/>
<polygon fill="#63b8ff" stroke="#63b8ff" points="464.98,-88.62 459.58,-79.51 458.12,-90.01 464.98,-88.62"/>
</a>
</g>
</g>
<!-- Node5 -->
<g id="Node000005" class="node">
<title>Node5</title>
<g id="a_Node000005"><a xlink:href="component_8h.html" target="_top" xlink:title=" ">
<polygon fill="white" stroke="#666666" points="149,-211.5 0,-211.5 0,-192.5 149,-192.5 149,-211.5"/>
<text text-anchor="middle" x="74.5" y="-199.5" font-family="Helvetica,sans-Serif" font-size="10.00">engine/public/component.h</text>
</a>
</g>
</g>
<!-- Node1&#45;&gt;Node5 -->
<g id="edge4_Node000001_Node000005" class="edge">
<title>Node1&#45;&gt;Node5</title>
<g id="a_edge4_Node000001_Node000005"><a xlink:title=" ">
<path fill="none" stroke="#63b8ff" d="M198.61,-252.95C170.72,-241.73 132.01,-226.15 105.27,-215.39"/>
<polygon fill="#63b8ff" stroke="#63b8ff" points="106.24,-212 95.66,-211.52 103.63,-218.5 106.24,-212"/>
</a>
</g>
</g>
<!-- Node6 -->
<g id="Node000006" class="node">
<title>Node6</title>
<g id="a_Node000006"><a xlink:href="sound__resource_8h.html" target="_top" xlink:title=" ">
<polygon fill="white" stroke="#666666" points="429.5,-151 279.5,-151 279.5,-121 429.5,-121 429.5,-151"/>
<text text-anchor="start" x="287.5" y="-139" font-family="Helvetica,sans-Serif" font-size="10.00">engine/audio/sound</text>
<text text-anchor="middle" x="354.5" y="-128" font-family="Helvetica,sans-Serif" font-size="10.00">/resource/sound_resource.h</text>
</a>
</g>
</g>
<!-- Node1&#45;&gt;Node6 -->
<g id="edge7_Node000001_Node000006" class="edge">
<title>Node1&#45;&gt;Node6</title>
<g id="a_edge7_Node000001_Node000006"><a xlink:title=" ">
<path fill="none" stroke="#63b8ff" d="M237.45,-252.84C242.82,-235.64 253.85,-206.49 271.5,-187 283,-174.3 298.49,-163.79 312.98,-155.74"/>
<polygon fill="#63b8ff" stroke="#63b8ff" points="314.63,-158.83 321.82,-151.05 311.34,-152.64 314.63,-158.83"/>
</a>
</g>
</g>
<!-- Node9 -->
<g id="Node000009" class="node">
<title>Node9</title>
<g id="a_Node000009"><a xlink:href="sound__instance_8h.html" target="_top" xlink:title=" ">
<polygon fill="white" stroke="#666666" points="429,-217 280,-217 280,-187 429,-187 429,-217"/>
<text text-anchor="start" x="288" y="-205" font-family="Helvetica,sans-Serif" font-size="10.00">engine/audio/sound</text>
<text text-anchor="middle" x="354.5" y="-194" font-family="Helvetica,sans-Serif" font-size="10.00">/instance/sound_instance.h</text>
</a>
</g>
</g>
<!-- Node1&#45;&gt;Node9 -->
<g id="edge12_Node000001_Node000009" class="edge">
<title>Node1&#45;&gt;Node9</title>
<g id="a_edge12_Node000001_Node000009"><a xlink:title=" ">
<path fill="none" stroke="#63b8ff" d="M260.05,-252.95C277.39,-243.78 300.23,-231.71 319.1,-221.72"/>
<polygon fill="#63b8ff" stroke="#63b8ff" points="320.8,-224.78 328.01,-217.01 317.53,-218.59 320.8,-224.78"/>
</a>
</g>
</g>
<!-- Node5&#45;&gt;Node2 -->
<g id="edge5_Node000005_Node000002" class="edge">
<title>Node5&#45;&gt;Node2</title>
<g id="a_edge5_Node000005_Node000002"><a xlink:title=" ">
<path fill="none" stroke="#63b8ff" d="M76.55,-192.32C80.79,-176.19 91.95,-141.38 113.5,-121 135.78,-99.93 168.24,-87.1 193.63,-79.72"/>
<polygon fill="#63b8ff" stroke="#63b8ff" points="194.61,-83.08 203.33,-77.06 192.76,-76.33 194.61,-83.08"/>
</a>
</g>
</g>
<!-- Node5&#45;&gt;Node3 -->
<g id="edge6_Node000005_Node000003" class="edge">
<title>Node5&#45;&gt;Node3</title>
<g id="a_edge6_Node000005_Node000003"><a xlink:title=" ">
<path fill="none" stroke="#63b8ff" d="M84.75,-192.37C96.81,-182.21 117.06,-165.16 131.91,-152.65"/>
<polygon fill="#63b8ff" stroke="#63b8ff" points="134.53,-155.02 139.93,-145.91 130.02,-149.67 134.53,-155.02"/>
</a>
</g>
</g>
<!-- Node6&#45;&gt;Node2 -->
<g id="edge8_Node000006_Node000002" class="edge">
<title>Node6&#45;&gt;Node2</title>
<g id="a_edge8_Node000006_Node000002"><a xlink:title=" ">
<path fill="none" stroke="#63b8ff" d="M327.73,-120.95C306.9,-110.03 278.19,-94.97 257.76,-84.25"/>
<polygon fill="#63b8ff" stroke="#63b8ff" points="259.22,-81.06 248.74,-79.52 255.97,-87.26 259.22,-81.06"/>
</a>
</g>
</g>
<!-- Node6&#45;&gt;Node4 -->
<g id="edge9_Node000006_Node000004" class="edge">
<title>Node6&#45;&gt;Node4</title>
<g id="a_edge9_Node000006_Node000004"><a xlink:title=" ">
<path fill="none" stroke="#63b8ff" d="M377.1,-120.95C394.29,-110.27 417.83,-95.65 434.99,-84.98"/>
<polygon fill="#63b8ff" stroke="#63b8ff" points="437.15,-87.77 443.79,-79.52 433.45,-81.82 437.15,-87.77"/>
</a>
</g>
</g>
<!-- Node7 -->
<g id="Node000007" class="node">
<title>Node7</title>
<g id="a_Node000007"><a xlink:href="sound__type_8h.html" target="_top" xlink:title=" ">
<polygon fill="white" stroke="#666666" points="410.5,-85 298.5,-85 298.5,-55 410.5,-55 410.5,-85"/>
<text text-anchor="start" x="306.5" y="-73" font-family="Helvetica,sans-Serif" font-size="10.00">engine/audio/sound</text>
<text text-anchor="middle" x="354.5" y="-62" font-family="Helvetica,sans-Serif" font-size="10.00">/sound_type.h</text>
</a>
</g>
</g>
<!-- Node6&#45;&gt;Node7 -->
<g id="edge10_Node000006_Node000007" class="edge">
<title>Node6&#45;&gt;Node7</title>
<g id="a_edge10_Node000006_Node000007"><a xlink:title=" ">
<path fill="none" stroke="#63b8ff" d="M354.5,-120.8C354.5,-113.34 354.5,-103.99 354.5,-95.41"/>
<polygon fill="#63b8ff" stroke="#63b8ff" points="358,-95.16 354.5,-85.16 351,-95.16 358,-95.16"/>
</a>
</g>
</g>
<!-- Node8 -->
<g id="Node000008" class="node">
<title>Node8</title>
<g id="a_Node000008"><a xlink:title=" ">
<polygon fill="#e0e0e0" stroke="#999999" points="379.5,-19 329.5,-19 329.5,0 379.5,0 379.5,-19"/>
<text text-anchor="middle" x="354.5" y="-7" font-family="Helvetica,sans-Serif" font-size="10.00">cstdint</text>
</a>
</g>
</g>
<!-- Node7&#45;&gt;Node8 -->
<g id="edge11_Node000007_Node000008" class="edge">
<title>Node7&#45;&gt;Node8</title>
<g id="a_edge11_Node000007_Node000008"><a xlink:title=" ">
<path fill="none" stroke="#63b8ff" d="M354.5,-54.84C354.5,-47.21 354.5,-37.7 354.5,-29.45"/>
<polygon fill="#63b8ff" stroke="#63b8ff" points="358,-29.27 354.5,-19.27 351,-29.27 358,-29.27"/>
</a>
</g>
</g>
<!-- Node9&#45;&gt;Node2 -->
<g id="edge13_Node000009_Node000002" class="edge">
<title>Node9&#45;&gt;Node2</title>
<g id="a_edge13_Node000009_Node000002"><a xlink:title=" ">
<path fill="none" stroke="#63b8ff" d="M321.01,-186.83C304.17,-178.38 284.44,-166.31 270.5,-151 254.12,-133.02 243.48,-106.72 237.73,-89.24"/>
<polygon fill="#63b8ff" stroke="#63b8ff" points="241.07,-88.18 234.78,-79.65 234.38,-90.24 241.07,-88.18"/>
</a>
</g>
</g>
<!-- Node9&#45;&gt;Node4 -->
<g id="edge14_Node000009_Node000004" class="edge">
<title>Node9&#45;&gt;Node4</title>
<g id="a_edge14_Node000009_Node000004"><a xlink:title=" ">
<path fill="none" stroke="#63b8ff" d="M391.5,-186.94C408.19,-178.82 426.75,-167 438.5,-151 451.74,-132.97 455.89,-107.05 457.12,-89.64"/>
<polygon fill="#63b8ff" stroke="#63b8ff" points="460.62,-89.75 457.57,-79.6 453.62,-89.44 460.62,-89.75"/>
</a>
</g>
</g>
<!-- Node9&#45;&gt;Node6 -->
<g id="edge15_Node000009_Node000006" class="edge">
<title>Node9&#45;&gt;Node6</title>
<g id="a_edge15_Node000009_Node000006"><a xlink:title=" ">
<path fill="none" stroke="#63b8ff" d="M354.5,-186.8C354.5,-179.34 354.5,-169.99 354.5,-161.41"/>
<polygon fill="#63b8ff" stroke="#63b8ff" points="358,-161.16 354.5,-151.16 351,-161.16 358,-161.16"/>
</a>
</g>
</g>
</g>
</svg>
