<?xml version="1.0" encoding="UTF-8" standalone="no"?>
<!DOCTYPE svg PUBLIC "-//W3C//DTD SVG 1.1//EN"
 "http://www.w3.org/Graphics/SVG/1.1/DTD/svg11.dtd">
<!-- Generated by graphviz version 2.43.0 (0)
 -->
<!-- Title: include/engine/public/behavior.h Pages: 1 -->
<svg width="743pt" height="214pt"
 viewBox="0.00 0.00 742.50 214.00" xmlns="http://www.w3.org/2000/svg" xmlns:xlink="http://www.w3.org/1999/xlink">
<g id="graph0" class="graph" transform="scale(1 1) rotate(0) translate(4 210)">
<title>include/engine/public/behavior.h</title>
<!-- Node1 -->
<g id="Node000001" class="node">
<title>Node1</title>
<g id="a_Node000001"><a xlink:title=" ">
<polygon fill="#999999" stroke="#666666" points="599,-206 479,-206 479,-176 599,-176 599,-206"/>
<text text-anchor="start" x="487" y="-194" font-family="Helvetica,sans-Serif" font-size="10.00">include/engine/public</text>
<text text-anchor="middle" x="539" y="-183" font-family="Helvetica,sans-Serif" font-size="10.00">/behavior.h</text>
</a>
</g>
</g>
<!-- Node2 -->
<g id="Node000002" class="node">
<title>Node2</title>
<g id="a_Node000002"><a xlink:title=" ">
<polygon fill="#e0e0e0" stroke="#999999" points="56,-24.5 0,-24.5 0,-5.5 56,-5.5 56,-24.5"/>
<text text-anchor="middle" x="28" y="-12.5" font-family="Helvetica,sans-Serif" font-size="10.00">optional</text>
</a>
</g>
</g>
<!-- Node1&#45;&gt;Node2 -->
<g id="edge1_Node000001_Node000002" class="edge">
<title>Node1&#45;&gt;Node2</title>
<g id="a_edge1_Node000001_Node000002"><a xlink:title=" ">
<path fill="none" stroke="#63b8ff" d="M478.75,-186.85C356.37,-179.06 85.56,-154.22 30,-85 18.77,-71.01 19.99,-49.79 22.94,-34.58"/>
<polygon fill="#63b8ff" stroke="#63b8ff" points="26.37,-35.29 25.24,-24.76 19.55,-33.7 26.37,-35.29"/>
</a>
</g>
</g>
<!-- Node3 -->
<g id="Node000003" class="node">
<title>Node3</title>
<g id="a_Node000003"><a xlink:title=" ">
<polygon fill="#e0e0e0" stroke="#999999" points="622.5,-24.5 557.5,-24.5 557.5,-5.5 622.5,-5.5 622.5,-24.5"/>
<text text-anchor="middle" x="590" y="-12.5" font-family="Helvetica,sans-Serif" font-size="10.00">functional</text>
</a>
</g>
</g>
<!-- Node1&#45;&gt;Node3 -->
<g id="edge2_Node000001_Node000003" class="edge">
<title>Node1&#45;&gt;Node3</title>
<g id="a_edge2_Node000001_Node000003"><a xlink:title=" ">
<path fill="none" stroke="#63b8ff" d="M555.9,-175.74C576.36,-157.26 609.71,-122.89 623,-85 629.55,-66.32 617.29,-46 605.89,-32.28"/>
<polygon fill="#63b8ff" stroke="#63b8ff" points="608.36,-29.79 599.09,-24.67 603.14,-34.46 608.36,-29.79"/>
</a>
</g>
</g>
<!-- Node4 -->
<g id="Node000004" class="node">
<title>Node4</title>
<g id="a_Node000004"><a xlink:title=" ">
<polygon fill="#e0e0e0" stroke="#999999" points="734.5,-140 669.5,-140 669.5,-121 734.5,-121 734.5,-140"/>
<text text-anchor="middle" x="702" y="-128" font-family="Helvetica,sans-Serif" font-size="10.00">stdexcept</text>
</a>
</g>
</g>
<!-- Node1&#45;&gt;Node4 -->
<g id="edge3_Node000001_Node000004" class="edge">
<title>Node1&#45;&gt;Node4</title>
<g id="a_edge3_Node000001_Node000004"><a xlink:title=" ">
<path fill="none" stroke="#63b8ff" d="M578.04,-175.99C605.6,-166.1 642.15,-152.98 668.41,-143.56"/>
<polygon fill="#63b8ff" stroke="#63b8ff" points="669.7,-146.81 677.93,-140.14 667.33,-140.22 669.7,-146.81"/>
</a>
</g>
</g>
<!-- Node5 -->
<g id="Node000005" class="node">
<title>Node5</title>
<g id="a_Node000005"><a xlink:href="game_object_8h.html" target="_top" xlink:title=" ">
<polygon fill="white" stroke="#666666" points="410.5,-140 257.5,-140 257.5,-121 410.5,-121 410.5,-140"/>
<text text-anchor="middle" x="334" y="-128" font-family="Helvetica,sans-Serif" font-size="10.00">engine/public/gameObject.h</text>
</a>
</g>
</g>
<!-- Node1&#45;&gt;Node5 -->
<g id="edge4_Node000001_Node000005" class="edge">
<title>Node1&#45;&gt;Node5</title>
<g id="a_edge4_Node000001_Node000005"><a xlink:title=" ">
<path fill="none" stroke="#63b8ff" d="M489.9,-175.99C454.37,-165.85 406.96,-152.32 373.78,-142.85"/>
<polygon fill="#63b8ff" stroke="#63b8ff" points="374.55,-139.43 363.97,-140.05 372.63,-146.16 374.55,-139.43"/>
</a>
</g>
</g>
<!-- Node13 -->
<g id="Node000013" class="node">
<title>Node13</title>
<g id="a_Node000013"><a xlink:href="component_8h.html" target="_top" xlink:title=" ">
<polygon fill="white" stroke="#666666" points="613.5,-85 464.5,-85 464.5,-66 613.5,-66 613.5,-85"/>
<text text-anchor="middle" x="539" y="-73" font-family="Helvetica,sans-Serif" font-size="10.00">engine/public/component.h</text>
</a>
</g>
</g>
<!-- Node1&#45;&gt;Node13 -->
<g id="edge19_Node000001_Node000013" class="edge">
<title>Node1&#45;&gt;Node13</title>
<g id="a_edge19_Node000001_Node000013"><a xlink:title=" ">
<path fill="none" stroke="#63b8ff" d="M539,-175.63C539,-155.21 539,-117.81 539,-95.24"/>
<polygon fill="#63b8ff" stroke="#63b8ff" points="542.5,-95.23 539,-85.23 535.5,-95.23 542.5,-95.23"/>
</a>
</g>
</g>
<!-- Node5&#45;&gt;Node2 -->
<g id="edge6_Node000005_Node000002" class="edge">
<title>Node5&#45;&gt;Node2</title>
<g id="a_edge6_Node000005_Node000002"><a xlink:title=" ">
<path fill="none" stroke="#63b8ff" d="M257.29,-126.96C182.68,-122.89 76.27,-112.34 46,-85 32.1,-72.45 28.34,-50.64 27.59,-34.89"/>
<polygon fill="#63b8ff" stroke="#63b8ff" points="31.09,-34.68 27.48,-24.72 24.09,-34.76 31.09,-34.68"/>
</a>
</g>
</g>
<!-- Node6 -->
<g id="Node000006" class="node">
<title>Node6</title>
<g id="a_Node000006"><a xlink:title=" ">
<polygon fill="#e0e0e0" stroke="#999999" points="279,-85 215,-85 215,-66 279,-66 279,-85"/>
<text text-anchor="middle" x="247" y="-73" font-family="Helvetica,sans-Serif" font-size="10.00">algorithm</text>
</a>
</g>
</g>
<!-- Node5&#45;&gt;Node6 -->
<g id="edge5_Node000005_Node000006" class="edge">
<title>Node5&#45;&gt;Node6</title>
<g id="a_edge5_Node000005_Node000006"><a xlink:title=" ">
<path fill="none" stroke="#63b8ff" d="M320.02,-120.98C306.53,-112.77 285.87,-100.18 269.96,-90.49"/>
<polygon fill="#63b8ff" stroke="#63b8ff" points="271.59,-87.38 261.23,-85.17 267.95,-93.36 271.59,-87.38"/>
</a>
</g>
</g>
<!-- Node7 -->
<g id="Node000007" class="node">
<title>Node7</title>
<g id="a_Node000007"><a xlink:title=" ">
<polygon fill="#e0e0e0" stroke="#999999" points="385,-85 335,-85 335,-66 385,-66 385,-85"/>
<text text-anchor="middle" x="360" y="-73" font-family="Helvetica,sans-Serif" font-size="10.00">ranges</text>
</a>
</g>
</g>
<!-- Node5&#45;&gt;Node7 -->
<g id="edge7_Node000005_Node000007" class="edge">
<title>Node5&#45;&gt;Node7</title>
<g id="a_edge7_Node000005_Node000007"><a xlink:title=" ">
<path fill="none" stroke="#63b8ff" d="M338.29,-120.75C341.81,-113.57 346.91,-103.18 351.28,-94.27"/>
<polygon fill="#63b8ff" stroke="#63b8ff" points="354.52,-95.61 355.79,-85.09 348.24,-92.53 354.52,-95.61"/>
</a>
</g>
</g>
<!-- Node8 -->
<g id="Node000008" class="node">
<title>Node8</title>
<g id="a_Node000008"><a xlink:title=" ">
<polygon fill="#e0e0e0" stroke="#999999" points="447,-85 403,-85 403,-66 447,-66 447,-85"/>
<text text-anchor="middle" x="425" y="-73" font-family="Helvetica,sans-Serif" font-size="10.00">string</text>
</a>
</g>
</g>
<!-- Node5&#45;&gt;Node8 -->
<g id="edge8_Node000005_Node000008" class="edge">
<title>Node5&#45;&gt;Node8</title>
<g id="a_edge8_Node000005_Node000008"><a xlink:title=" ">
<path fill="none" stroke="#63b8ff" d="M348.62,-120.98C362.86,-112.69 384.75,-99.94 401.45,-90.22"/>
<polygon fill="#63b8ff" stroke="#63b8ff" points="403.23,-93.23 410.11,-85.17 399.71,-87.18 403.23,-93.23"/>
</a>
</g>
</g>
<!-- Node9 -->
<g id="Node000009" class="node">
<title>Node9</title>
<g id="a_Node000009"><a xlink:title=" ">
<polygon fill="#e0e0e0" stroke="#999999" points="409.5,-24.5 362.5,-24.5 362.5,-5.5 409.5,-5.5 409.5,-24.5"/>
<text text-anchor="middle" x="386" y="-12.5" font-family="Helvetica,sans-Serif" font-size="10.00">vector</text>
</a>
</g>
</g>
<!-- Node5&#45;&gt;Node9 -->
<g id="edge9_Node000005_Node000009" class="edge">
<title>Node5&#45;&gt;Node9</title>
<g id="a_edge9_Node000005_Node000009"><a xlink:title=" ">
<path fill="none" stroke="#63b8ff" d="M330.06,-120.82C324.92,-108.15 317.52,-84.11 326,-66 333.15,-50.74 347.5,-38.51 360.38,-29.96"/>
<polygon fill="#63b8ff" stroke="#63b8ff" points="362.3,-32.89 368.95,-24.65 358.61,-26.94 362.3,-32.89"/>
</a>
</g>
</g>
<!-- Node10 -->
<g id="Node000010" class="node">
<title>Node10</title>
<g id="a_Node000010"><a xlink:href="transform_8h.html" target="_top" xlink:title=" ">
<polygon fill="white" stroke="#666666" points="197,-85 55,-85 55,-66 197,-66 197,-85"/>
<text text-anchor="middle" x="126" y="-73" font-family="Helvetica,sans-Serif" font-size="10.00">engine/public/transform.h</text>
</a>
</g>
</g>
<!-- Node5&#45;&gt;Node10 -->
<g id="edge10_Node000005_Node000010" class="edge">
<title>Node5&#45;&gt;Node10</title>
<g id="a_edge10_Node000005_Node000010"><a xlink:title=" ">
<path fill="none" stroke="#63b8ff" d="M300.58,-120.98C265.06,-111.93 208.73,-97.58 169.7,-87.64"/>
<polygon fill="#63b8ff" stroke="#63b8ff" points="170.24,-84.16 159.68,-85.08 168.51,-90.94 170.24,-84.16"/>
</a>
</g>
</g>
<!-- Node5&#45;&gt;Node13 -->
<g id="edge14_Node000005_Node000013" class="edge">
<title>Node5&#45;&gt;Node13</title>
<g id="a_edge14_Node000005_Node000013"><a xlink:title=" ">
<path fill="none" stroke="#63b8ff" d="M366.94,-120.98C401.95,-111.93 457.47,-97.58 495.93,-87.64"/>
<polygon fill="#63b8ff" stroke="#63b8ff" points="497,-90.97 505.81,-85.08 495.25,-84.2 497,-90.97"/>
</a>
</g>
</g>
<!-- Node10&#45;&gt;Node2 -->
<g id="edge12_Node000010_Node000002" class="edge">
<title>Node10&#45;&gt;Node2</title>
<g id="a_edge12_Node000010_Node000002"><a xlink:title=" ">
<path fill="none" stroke="#63b8ff" d="M111.54,-65.87C95.69,-56.41 70.03,-41.09 51.32,-29.92"/>
<polygon fill="#63b8ff" stroke="#63b8ff" points="52.9,-26.79 42.52,-24.67 49.31,-32.8 52.9,-26.79"/>
</a>
</g>
</g>
<!-- Node11 -->
<g id="Node000011" class="node">
<title>Node11</title>
<g id="a_Node000011"><a xlink:title=" ">
<polygon fill="#e0e0e0" stroke="#999999" points="338,-24.5 280,-24.5 280,-5.5 338,-5.5 338,-24.5"/>
<text text-anchor="middle" x="309" y="-12.5" font-family="Helvetica,sans-Serif" font-size="10.00">memory</text>
</a>
</g>
</g>
<!-- Node10&#45;&gt;Node11 -->
<g id="edge11_Node000010_Node000011" class="edge">
<title>Node10&#45;&gt;Node11</title>
<g id="a_edge11_Node000010_Node000011"><a xlink:title=" ">
<path fill="none" stroke="#63b8ff" d="M152.61,-65.99C184.19,-55.9 237.01,-39.01 272.42,-27.69"/>
<polygon fill="#63b8ff" stroke="#63b8ff" points="273.9,-30.9 282.36,-24.52 271.77,-24.23 273.9,-30.9"/>
</a>
</g>
</g>
<!-- Node12 -->
<g id="Node000012" class="node">
<title>Node12</title>
<g id="a_Node000012"><a xlink:href="vector3_8h.html" target="_top" xlink:title=" ">
<polygon fill="white" stroke="#666666" points="176.5,-30 75.5,-30 75.5,0 176.5,0 176.5,-30"/>
<text text-anchor="start" x="83.5" y="-18" font-family="Helvetica,sans-Serif" font-size="10.00">engine/public/util</text>
<text text-anchor="middle" x="126" y="-7" font-family="Helvetica,sans-Serif" font-size="10.00">/vector3.h</text>
</a>
</g>
</g>
<!-- Node10&#45;&gt;Node12 -->
<g id="edge13_Node000010_Node000012" class="edge">
<title>Node10&#45;&gt;Node12</title>
<g id="a_edge13_Node000010_Node000012"><a xlink:title=" ">
<path fill="none" stroke="#63b8ff" d="M126,-65.87C126,-59.11 126,-49.35 126,-40.26"/>
<polygon fill="#63b8ff" stroke="#63b8ff" points="129.5,-40.11 126,-30.11 122.5,-40.11 129.5,-40.11"/>
</a>
</g>
</g>
<!-- Node13&#45;&gt;Node2 -->
<g id="edge17_Node000013_Node000002" class="edge">
<title>Node13&#45;&gt;Node2</title>
<g id="a_edge17_Node000013_Node000002"><a xlink:title=" ">
<path fill="none" stroke="#63b8ff" d="M464.35,-66.82C461.53,-66.54 458.74,-66.27 456,-66 282.75,-49.13 235.78,-68.42 66,-30 63.33,-29.4 60.59,-28.65 57.86,-27.82"/>
<polygon fill="#63b8ff" stroke="#63b8ff" points="58.81,-24.45 48.21,-24.56 56.56,-31.08 58.81,-24.45"/>
</a>
</g>
</g>
<!-- Node13&#45;&gt;Node3 -->
<g id="edge15_Node000013_Node000003" class="edge">
<title>Node13&#45;&gt;Node3</title>
<g id="a_edge15_Node000013_Node000003"><a xlink:title=" ">
<path fill="none" stroke="#63b8ff" d="M546.53,-65.87C554.21,-57.05 566.32,-43.16 575.81,-32.27"/>
<polygon fill="#63b8ff" stroke="#63b8ff" points="578.51,-34.51 582.44,-24.67 573.23,-29.91 578.51,-34.51"/>
</a>
</g>
</g>
<!-- Node13&#45;&gt;Node9 -->
<g id="edge18_Node000013_Node000009" class="edge">
<title>Node13&#45;&gt;Node9</title>
<g id="a_edge18_Node000013_Node000009"><a xlink:title=" ">
<path fill="none" stroke="#63b8ff" d="M516.75,-65.99C490.69,-56.03 447.32,-39.45 417.73,-28.13"/>
<polygon fill="#63b8ff" stroke="#63b8ff" points="418.86,-24.82 408.27,-24.52 416.36,-31.36 418.86,-24.82"/>
</a>
</g>
</g>
<!-- Node13&#45;&gt;Node11 -->
<g id="edge16_Node000013_Node000011" class="edge">
<title>Node13&#45;&gt;Node11</title>
<g id="a_edge16_Node000013_Node000011"><a xlink:title=" ">
<path fill="none" stroke="#63b8ff" d="M499.6,-65.95C461.8,-57.55 403.22,-43.98 353,-30 350.25,-29.23 347.41,-28.41 344.56,-27.56"/>
<polygon fill="#63b8ff" stroke="#63b8ff" points="345.55,-24.2 334.96,-24.61 343.49,-30.89 345.55,-24.2"/>
</a>
</g>
</g>
</g>
</svg>
