<?xml version="1.0" encoding="UTF-8" standalone="no"?>
<!DOCTYPE svg PUBLIC "-//W3C//DTD SVG 1.1//EN"
 "http://www.w3.org/Graphics/SVG/1.1/DTD/svg11.dtd">
<!-- Generated by graphviz version 2.43.0 (0)
 -->
<!-- Title: include/engine/public/components/behaviorscript.h Pages: 1 -->
<svg width="749pt" height="269pt"
 viewBox="0.00 0.00 748.50 269.00" xmlns="http://www.w3.org/2000/svg" xmlns:xlink="http://www.w3.org/1999/xlink">
<g id="graph0" class="graph" transform="scale(1 1) rotate(0) translate(4 265)">
<title>include/engine/public/components/behaviorscript.h</title>
<!-- Node1 -->
<g id="Node000001" class="node">
<title>Node1</title>
<g id="a_Node000001"><a xlink:title=" ">
<polygon fill="#999999" stroke="#666666" points="161,-261 0,-261 0,-231 161,-231 161,-261"/>
<text text-anchor="start" x="8" y="-249" font-family="Helvetica,sans-Serif" font-size="10.00">include/engine/public</text>
<text text-anchor="middle" x="80.5" y="-238" font-family="Helvetica,sans-Serif" font-size="10.00">/components/behaviorscript.h</text>
</a>
</g>
</g>
<!-- Node2 -->
<g id="Node000002" class="node">
<title>Node2</title>
<g id="a_Node000002"><a xlink:title=" ">
<polygon fill="#e0e0e0" stroke="#999999" points="230.5,-24.5 172.5,-24.5 172.5,-5.5 230.5,-5.5 230.5,-24.5"/>
<text text-anchor="middle" x="201.5" y="-12.5" font-family="Helvetica,sans-Serif" font-size="10.00">memory</text>
</a>
</g>
</g>
<!-- Node1&#45;&gt;Node2 -->
<g id="edge1_Node000001_Node000002" class="edge">
<title>Node1&#45;&gt;Node2</title>
<g id="a_edge1_Node000001_Node000002"><a xlink:title=" ">
<path fill="none" stroke="#63b8ff" d="M79.88,-230.97C79.16,-198.7 81.46,-118.01 118.5,-66 130.6,-49.01 150.46,-36.74 167.72,-28.61"/>
<polygon fill="#63b8ff" stroke="#63b8ff" points="169.25,-31.77 176.97,-24.52 166.41,-25.36 169.25,-31.77"/>
</a>
</g>
</g>
<!-- Node3 -->
<g id="Node000003" class="node">
<title>Node3</title>
<g id="a_Node000003"><a xlink:href="behavior_8h.html" target="_top" xlink:title=" ">
<polygon fill="white" stroke="#666666" points="299.5,-195 163.5,-195 163.5,-176 299.5,-176 299.5,-195"/>
<text text-anchor="middle" x="231.5" y="-183" font-family="Helvetica,sans-Serif" font-size="10.00">engine/public/behavior.h</text>
</a>
</g>
</g>
<!-- Node1&#45;&gt;Node3 -->
<g id="edge2_Node000001_Node000003" class="edge">
<title>Node1&#45;&gt;Node3</title>
<g id="a_edge2_Node000001_Node000003"><a xlink:title=" ">
<path fill="none" stroke="#63b8ff" d="M116.67,-230.99C141.97,-221.18 175.46,-208.21 199.74,-198.81"/>
<polygon fill="#63b8ff" stroke="#63b8ff" points="201.14,-202.02 209.2,-195.14 198.61,-195.49 201.14,-202.02"/>
</a>
</g>
</g>
<!-- Node14 -->
<g id="Node000014" class="node">
<title>Node14</title>
<g id="a_Node000014"><a xlink:href="component_8h.html" target="_top" xlink:title=" ">
<polygon fill="white" stroke="#666666" points="276,-85 127,-85 127,-66 276,-66 276,-85"/>
<text text-anchor="middle" x="201.5" y="-73" font-family="Helvetica,sans-Serif" font-size="10.00">engine/public/component.h</text>
</a>
</g>
</g>
<!-- Node1&#45;&gt;Node14 -->
<g id="edge22_Node000001_Node000014" class="edge">
<title>Node1&#45;&gt;Node14</title>
<g id="a_edge22_Node000001_Node000014"><a xlink:title=" ">
<path fill="none" stroke="#63b8ff" d="M90.61,-230.92C112.73,-200.12 165.34,-126.85 189.27,-93.53"/>
<polygon fill="#63b8ff" stroke="#63b8ff" points="192.22,-95.42 195.21,-85.25 186.54,-91.34 192.22,-95.42"/>
</a>
</g>
</g>
<!-- Node4 -->
<g id="Node000004" class="node">
<title>Node4</title>
<g id="a_Node000004"><a xlink:title=" ">
<polygon fill="#e0e0e0" stroke="#999999" points="740.5,-24.5 684.5,-24.5 684.5,-5.5 740.5,-5.5 740.5,-24.5"/>
<text text-anchor="middle" x="712.5" y="-12.5" font-family="Helvetica,sans-Serif" font-size="10.00">optional</text>
</a>
</g>
</g>
<!-- Node3&#45;&gt;Node4 -->
<g id="edge3_Node000003_Node000004" class="edge">
<title>Node3&#45;&gt;Node4</title>
<g id="a_edge3_Node000003_Node000004"><a xlink:title=" ">
<path fill="none" stroke="#63b8ff" d="M299.89,-180.98C420.83,-173.14 664.46,-149.53 714.5,-85 725.49,-70.83 722.95,-49.64 718.94,-34.49"/>
<polygon fill="#63b8ff" stroke="#63b8ff" points="722.21,-33.24 715.93,-24.7 715.52,-35.29 722.21,-33.24"/>
</a>
</g>
</g>
<!-- Node5 -->
<g id="Node000005" class="node">
<title>Node5</title>
<g id="a_Node000005"><a xlink:title=" ">
<polygon fill="#e0e0e0" stroke="#999999" points="143,-24.5 78,-24.5 78,-5.5 143,-5.5 143,-24.5"/>
<text text-anchor="middle" x="110.5" y="-12.5" font-family="Helvetica,sans-Serif" font-size="10.00">functional</text>
</a>
</g>
</g>
<!-- Node3&#45;&gt;Node5 -->
<g id="edge4_Node000003_Node000005" class="edge">
<title>Node3&#45;&gt;Node5</title>
<g id="a_edge4_Node000003_Node000005"><a xlink:title=" ">
<path fill="none" stroke="#63b8ff" d="M215.83,-175.91C190.48,-161.08 141.04,-128.08 118.5,-85 110.38,-69.49 108.9,-49.38 109.14,-34.87"/>
<polygon fill="#63b8ff" stroke="#63b8ff" points="112.64,-34.79 109.6,-24.64 105.65,-34.47 112.64,-34.79"/>
</a>
</g>
</g>
<!-- Node6 -->
<g id="Node000006" class="node">
<title>Node6</title>
<g id="a_Node000006"><a xlink:title=" ">
<polygon fill="#e0e0e0" stroke="#999999" points="295,-140 230,-140 230,-121 295,-121 295,-140"/>
<text text-anchor="middle" x="262.5" y="-128" font-family="Helvetica,sans-Serif" font-size="10.00">stdexcept</text>
</a>
</g>
</g>
<!-- Node3&#45;&gt;Node6 -->
<g id="edge5_Node000003_Node000006" class="edge">
<title>Node3&#45;&gt;Node6</title>
<g id="a_edge5_Node000003_Node000006"><a xlink:title=" ">
<path fill="none" stroke="#63b8ff" d="M236.62,-175.75C240.86,-168.49 247.03,-157.95 252.28,-148.98"/>
<polygon fill="#63b8ff" stroke="#63b8ff" points="255.45,-150.49 257.48,-140.09 249.41,-146.95 255.45,-150.49"/>
</a>
</g>
</g>
<!-- Node7 -->
<g id="Node000007" class="node">
<title>Node7</title>
<g id="a_Node000007"><a xlink:href="game_object_8h.html" target="_top" xlink:title=" ">
<polygon fill="white" stroke="#666666" points="491,-140 338,-140 338,-121 491,-121 491,-140"/>
<text text-anchor="middle" x="414.5" y="-128" font-family="Helvetica,sans-Serif" font-size="10.00">engine/public/gameObject.h</text>
</a>
</g>
</g>
<!-- Node3&#45;&gt;Node7 -->
<g id="edge6_Node000003_Node000007" class="edge">
<title>Node3&#45;&gt;Node7</title>
<g id="a_edge6_Node000003_Node000007"><a xlink:title=" ">
<path fill="none" stroke="#63b8ff" d="M260.9,-175.98C291.89,-167.01 340.88,-152.82 375.17,-142.89"/>
<polygon fill="#63b8ff" stroke="#63b8ff" points="376.24,-146.23 384.87,-140.08 374.29,-139.5 376.24,-146.23"/>
</a>
</g>
</g>
<!-- Node3&#45;&gt;Node14 -->
<g id="edge21_Node000003_Node000014" class="edge">
<title>Node3&#45;&gt;Node14</title>
<g id="a_edge21_Node000003_Node000014"><a xlink:title=" ">
<path fill="none" stroke="#63b8ff" d="M229.04,-175.66C224.16,-158.09 213.15,-118.45 206.63,-94.95"/>
<polygon fill="#63b8ff" stroke="#63b8ff" points="209.95,-93.86 203.91,-85.16 203.21,-95.73 209.95,-93.86"/>
</a>
</g>
</g>
<!-- Node7&#45;&gt;Node4 -->
<g id="edge8_Node000007_Node000004" class="edge">
<title>Node7&#45;&gt;Node4</title>
<g id="a_edge8_Node000007_Node000004"><a xlink:title=" ">
<path fill="none" stroke="#63b8ff" d="M491.13,-126.56C563.57,-122.19 665.38,-111.41 694.5,-85 708.37,-72.42 712.14,-50.61 712.89,-34.88"/>
<polygon fill="#63b8ff" stroke="#63b8ff" points="716.39,-34.75 713.01,-24.71 709.39,-34.67 716.39,-34.75"/>
</a>
</g>
</g>
<!-- Node8 -->
<g id="Node000008" class="node">
<title>Node8</title>
<g id="a_Node000008"><a xlink:title=" ">
<polygon fill="#e0e0e0" stroke="#999999" points="395.5,-85 331.5,-85 331.5,-66 395.5,-66 395.5,-85"/>
<text text-anchor="middle" x="363.5" y="-73" font-family="Helvetica,sans-Serif" font-size="10.00">algorithm</text>
</a>
</g>
</g>
<!-- Node7&#45;&gt;Node8 -->
<g id="edge7_Node000007_Node000008" class="edge">
<title>Node7&#45;&gt;Node8</title>
<g id="a_edge7_Node000007_Node000008"><a xlink:title=" ">
<path fill="none" stroke="#63b8ff" d="M406.08,-120.75C398.73,-113.11 387.87,-101.82 378.96,-92.56"/>
<polygon fill="#63b8ff" stroke="#63b8ff" points="381.22,-89.87 371.76,-85.09 376.18,-94.72 381.22,-89.87"/>
</a>
</g>
</g>
<!-- Node9 -->
<g id="Node000009" class="node">
<title>Node9</title>
<g id="a_Node000009"><a xlink:title=" ">
<polygon fill="#e0e0e0" stroke="#999999" points="463.5,-85 413.5,-85 413.5,-66 463.5,-66 463.5,-85"/>
<text text-anchor="middle" x="438.5" y="-73" font-family="Helvetica,sans-Serif" font-size="10.00">ranges</text>
</a>
</g>
</g>
<!-- Node7&#45;&gt;Node9 -->
<g id="edge9_Node000007_Node000009" class="edge">
<title>Node7&#45;&gt;Node9</title>
<g id="a_edge9_Node000007_Node000009"><a xlink:title=" ">
<path fill="none" stroke="#63b8ff" d="M418.46,-120.75C421.71,-113.57 426.42,-103.18 430.45,-94.27"/>
<polygon fill="#63b8ff" stroke="#63b8ff" points="433.67,-95.64 434.61,-85.09 427.3,-92.75 433.67,-95.64"/>
</a>
</g>
</g>
<!-- Node10 -->
<g id="Node000010" class="node">
<title>Node10</title>
<g id="a_Node000010"><a xlink:title=" ">
<polygon fill="#e0e0e0" stroke="#999999" points="525.5,-85 481.5,-85 481.5,-66 525.5,-66 525.5,-85"/>
<text text-anchor="middle" x="503.5" y="-73" font-family="Helvetica,sans-Serif" font-size="10.00">string</text>
</a>
</g>
</g>
<!-- Node7&#45;&gt;Node10 -->
<g id="edge10_Node000007_Node000010" class="edge">
<title>Node7&#45;&gt;Node10</title>
<g id="a_edge10_Node000007_Node000010"><a xlink:title=" ">
<path fill="none" stroke="#63b8ff" d="M428.8,-120.98C442.6,-112.77 463.74,-100.18 480.01,-90.49"/>
<polygon fill="#63b8ff" stroke="#63b8ff" points="482.14,-93.29 488.94,-85.17 478.56,-87.28 482.14,-93.29"/>
</a>
</g>
</g>
<!-- Node11 -->
<g id="Node000011" class="node">
<title>Node11</title>
<g id="a_Node000011"><a xlink:title=" ">
<polygon fill="#e0e0e0" stroke="#999999" points="312,-24.5 265,-24.5 265,-5.5 312,-5.5 312,-24.5"/>
<text text-anchor="middle" x="288.5" y="-12.5" font-family="Helvetica,sans-Serif" font-size="10.00">vector</text>
</a>
</g>
</g>
<!-- Node7&#45;&gt;Node11 -->
<g id="edge11_Node000007_Node000011" class="edge">
<title>Node7&#45;&gt;Node11</title>
<g id="a_edge11_Node000007_Node000011"><a xlink:title=" ">
<path fill="none" stroke="#63b8ff" d="M385.38,-121C365.62,-114 340,-102.37 322.5,-85 308.31,-70.92 299.09,-49.72 293.88,-34.53"/>
<polygon fill="#63b8ff" stroke="#63b8ff" points="297.13,-33.21 290.78,-24.73 290.46,-35.32 297.13,-33.21"/>
</a>
</g>
</g>
<!-- Node12 -->
<g id="Node000012" class="node">
<title>Node12</title>
<g id="a_Node000012"><a xlink:href="transform_8h.html" target="_top" xlink:title=" ">
<polygon fill="white" stroke="#666666" points="685.5,-85 543.5,-85 543.5,-66 685.5,-66 685.5,-85"/>
<text text-anchor="middle" x="614.5" y="-73" font-family="Helvetica,sans-Serif" font-size="10.00">engine/public/transform.h</text>
</a>
</g>
</g>
<!-- Node7&#45;&gt;Node12 -->
<g id="edge12_Node000007_Node000012" class="edge">
<title>Node7&#45;&gt;Node12</title>
<g id="a_edge12_Node000007_Node000012"><a xlink:title=" ">
<path fill="none" stroke="#63b8ff" d="M446.63,-120.98C480.65,-111.97 534.5,-97.7 572,-87.76"/>
<polygon fill="#63b8ff" stroke="#63b8ff" points="573.34,-91.03 582.11,-85.08 571.55,-84.26 573.34,-91.03"/>
</a>
</g>
</g>
<!-- Node7&#45;&gt;Node14 -->
<g id="edge16_Node000007_Node000014" class="edge">
<title>Node7&#45;&gt;Node14</title>
<g id="a_edge16_Node000007_Node000014"><a xlink:title=" ">
<path fill="none" stroke="#63b8ff" d="M380.28,-120.98C343.74,-111.89 285.72,-97.46 245.74,-87.51"/>
<polygon fill="#63b8ff" stroke="#63b8ff" points="246.54,-84.1 235.99,-85.08 244.85,-90.89 246.54,-84.1"/>
</a>
</g>
</g>
<!-- Node12&#45;&gt;Node2 -->
<g id="edge13_Node000012_Node000002" class="edge">
<title>Node12&#45;&gt;Node2</title>
<g id="a_edge13_Node000012_Node000002"><a xlink:title=" ">
<path fill="none" stroke="#63b8ff" d="M543.18,-66.71C454.93,-56.88 309.81,-40.06 256.5,-30 251.37,-29.03 246,-27.86 240.72,-26.62"/>
<polygon fill="#63b8ff" stroke="#63b8ff" points="241.29,-23.16 230.75,-24.17 239.62,-29.96 241.29,-23.16"/>
</a>
</g>
</g>
<!-- Node12&#45;&gt;Node4 -->
<g id="edge14_Node000012_Node000004" class="edge">
<title>Node12&#45;&gt;Node4</title>
<g id="a_edge14_Node000012_Node000004"><a xlink:title=" ">
<path fill="none" stroke="#63b8ff" d="M628.96,-65.87C644.81,-56.41 670.47,-41.09 689.18,-29.92"/>
<polygon fill="#63b8ff" stroke="#63b8ff" points="691.19,-32.8 697.98,-24.67 687.6,-26.79 691.19,-32.8"/>
</a>
</g>
</g>
<!-- Node13 -->
<g id="Node000013" class="node">
<title>Node13</title>
<g id="a_Node000013"><a xlink:href="vector3_8h.html" target="_top" xlink:title=" ">
<polygon fill="white" stroke="#666666" points="665,-30 564,-30 564,0 665,0 665,-30"/>
<text text-anchor="start" x="572" y="-18" font-family="Helvetica,sans-Serif" font-size="10.00">engine/public/util</text>
<text text-anchor="middle" x="614.5" y="-7" font-family="Helvetica,sans-Serif" font-size="10.00">/vector3.h</text>
</a>
</g>
</g>
<!-- Node12&#45;&gt;Node13 -->
<g id="edge15_Node000012_Node000013" class="edge">
<title>Node12&#45;&gt;Node13</title>
<g id="a_edge15_Node000012_Node000013"><a xlink:title=" ">
<path fill="none" stroke="#63b8ff" d="M614.5,-65.87C614.5,-59.11 614.5,-49.35 614.5,-40.26"/>
<polygon fill="#63b8ff" stroke="#63b8ff" points="618,-40.11 614.5,-30.11 611,-40.11 618,-40.11"/>
</a>
</g>
</g>
<!-- Node14&#45;&gt;Node2 -->
<g id="edge18_Node000014_Node000002" class="edge">
<title>Node14&#45;&gt;Node2</title>
<g id="a_edge18_Node000014_Node000002"><a xlink:title=" ">
<path fill="none" stroke="#63b8ff" d="M201.5,-65.87C201.5,-57.75 201.5,-45.31 201.5,-34.89"/>
<polygon fill="#63b8ff" stroke="#63b8ff" points="205,-34.67 201.5,-24.67 198,-34.67 205,-34.67"/>
</a>
</g>
</g>
<!-- Node14&#45;&gt;Node4 -->
<g id="edge19_Node000014_Node000004" class="edge">
<title>Node14&#45;&gt;Node4</title>
<g id="a_edge19_Node000014_Node000004"><a xlink:title=" ">
<path fill="none" stroke="#63b8ff" d="M276.38,-68.53C399.96,-58.51 636.75,-38.58 674.5,-30 677.17,-29.39 679.91,-28.65 682.63,-27.82"/>
<polygon fill="#63b8ff" stroke="#63b8ff" points="683.93,-31.07 692.28,-24.55 681.69,-24.44 683.93,-31.07"/>
</a>
</g>
</g>
<!-- Node14&#45;&gt;Node5 -->
<g id="edge17_Node000014_Node000005" class="edge">
<title>Node14&#45;&gt;Node5</title>
<g id="a_edge17_Node000014_Node000005"><a xlink:title=" ">
<path fill="none" stroke="#63b8ff" d="M188.07,-65.87C173.42,-56.45 149.74,-41.23 132.4,-30.08"/>
<polygon fill="#63b8ff" stroke="#63b8ff" points="134.29,-27.13 123.98,-24.67 130.5,-33.02 134.29,-27.13"/>
</a>
</g>
</g>
<!-- Node14&#45;&gt;Node11 -->
<g id="edge20_Node000014_Node000011" class="edge">
<title>Node14&#45;&gt;Node11</title>
<g id="a_edge20_Node000014_Node000011"><a xlink:title=" ">
<path fill="none" stroke="#63b8ff" d="M214.34,-65.87C228.22,-56.54 250.57,-41.51 267.11,-30.38"/>
<polygon fill="#63b8ff" stroke="#63b8ff" points="269.26,-33.15 275.61,-24.67 265.36,-27.34 269.26,-33.15"/>
</a>
</g>
</g>
</g>
</svg>
