<?xml version="1.0" encoding="UTF-8" standalone="no"?>
<!DOCTYPE svg PUBLIC "-//W3C//DTD SVG 1.1//EN"
 "http://www.w3.org/Graphics/SVG/1.1/DTD/svg11.dtd">
<!-- Generated by graphviz version 2.43.0 (0)
 -->
<!-- Title: include/engine/physics/world/body/body_type_2d.h Pages: 1 -->
<svg width="379pt" height="401pt"
 viewBox="0.00 0.00 379.00 401.00" xmlns="http://www.w3.org/2000/svg" xmlns:xlink="http://www.w3.org/1999/xlink">
<g id="graph0" class="graph" transform="scale(1 1) rotate(0) translate(4 397)">
<title>include/engine/physics/world/body/body_type_2d.h</title>
<!-- Node1 -->
<g id="Node000001" class="node">
<title>Node1</title>
<g id="a_Node000001"><a xlink:title=" ">
<polygon fill="#999999" stroke="#666666" points="262,-393 108,-393 108,-363 262,-363 262,-393"/>
<text text-anchor="start" x="116" y="-381" font-family="Helvetica,sans-Serif" font-size="10.00">include/engine/physics</text>
<text text-anchor="middle" x="185" y="-370" font-family="Helvetica,sans-Serif" font-size="10.00">/world/body/body_type_2d.h</text>
</a>
</g>
</g>
<!-- Node2 -->
<g id="Node000002" class="node">
<title>Node2</title>
<g id="a_Node000002"><a xlink:href="physics__creation__factory_8h.html" target="_top" xlink:title=" ">
<polygon fill="white" stroke="#666666" points="211,-261 67,-261 67,-220 211,-220 211,-261"/>
<text text-anchor="start" x="75" y="-249" font-family="Helvetica,sans-Serif" font-size="10.00">include/engine/physics</text>
<text text-anchor="start" x="75" y="-238" font-family="Helvetica,sans-Serif" font-size="10.00">/creation/physics_creation</text>
<text text-anchor="middle" x="139" y="-227" font-family="Helvetica,sans-Serif" font-size="10.00">_factory.h</text>
</a>
</g>
</g>
<!-- Node1&#45;&gt;Node2 -->
<g id="edge1_Node000001_Node000002" class="edge">
<title>Node1&#45;&gt;Node2</title>
<g id="a_edge1_Node000001_Node000002"><a xlink:title=" ">
<path fill="none" stroke="#63b8ff" d="M170.81,-353.93C166.2,-345.67 161.41,-336.13 158,-327 149.87,-305.2 144.67,-278.92 141.8,-261.3"/>
<polygon fill="#63b8ff" stroke="#63b8ff" points="167.81,-355.73 175.85,-362.63 173.87,-352.22 167.81,-355.73"/>
</a>
</g>
</g>
<!-- Node9 -->
<g id="Node000009" class="node">
<title>Node9</title>
<g id="a_Node000009"><a xlink:href="body__2d_8h.html" target="_top" xlink:title=" ">
<polygon fill="white" stroke="#666666" points="295,-327 167,-327 167,-297 295,-297 295,-327"/>
<text text-anchor="start" x="175" y="-315" font-family="Helvetica,sans-Serif" font-size="10.00">include/engine/physics</text>
<text text-anchor="middle" x="231" y="-304" font-family="Helvetica,sans-Serif" font-size="10.00">/world/body/body_2d.h</text>
</a>
</g>
</g>
<!-- Node1&#45;&gt;Node9 -->
<g id="edge10_Node000001_Node000009" class="edge">
<title>Node1&#45;&gt;Node9</title>
<g id="a_edge10_Node000001_Node000009"><a xlink:title=" ">
<path fill="none" stroke="#63b8ff" d="M201.15,-354.53C207.69,-345.43 215.05,-335.19 220.82,-327.16"/>
<polygon fill="#63b8ff" stroke="#63b8ff" points="198.2,-352.63 195.21,-362.8 203.89,-356.72 198.2,-352.63"/>
</a>
</g>
</g>
<!-- Node3 -->
<g id="Node000003" class="node">
<title>Node3</title>
<g id="a_Node000003"><a xlink:href="physics__service_8h.html" target="_top" xlink:title=" ">
<polygon fill="white" stroke="#666666" points="128,-112.5 0,-112.5 0,-82.5 128,-82.5 128,-112.5"/>
<text text-anchor="start" x="8" y="-100.5" font-family="Helvetica,sans-Serif" font-size="10.00">include/engine/physics</text>
<text text-anchor="middle" x="64" y="-89.5" font-family="Helvetica,sans-Serif" font-size="10.00">/physics_service.h</text>
</a>
</g>
</g>
<!-- Node2&#45;&gt;Node3 -->
<g id="edge2_Node000002_Node000003" class="edge">
<title>Node2&#45;&gt;Node3</title>
<g id="a_edge2_Node000002_Node000003"><a xlink:title=" ">
<path fill="none" stroke="#63b8ff" d="M57.75,-215.78C43.56,-207.95 30.61,-197.61 22,-184 6.88,-160.1 30.7,-129.98 48.18,-112.61"/>
<polygon fill="#63b8ff" stroke="#63b8ff" points="56.22,-218.93 66.72,-220.34 59.39,-212.69 56.22,-218.93"/>
</a>
</g>
</g>
<!-- Node4 -->
<g id="Node000004" class="node">
<title>Node4</title>
<g id="a_Node000004"><a xlink:href="physics__world_8h.html" target="_top" xlink:title=" ">
<polygon fill="white" stroke="#666666" points="333,-184 205,-184 205,-154 333,-154 333,-184"/>
<text text-anchor="start" x="213" y="-172" font-family="Helvetica,sans-Serif" font-size="10.00">include/engine/physics</text>
<text text-anchor="middle" x="269" y="-161" font-family="Helvetica,sans-Serif" font-size="10.00">/world/physics_world.h</text>
</a>
</g>
</g>
<!-- Node2&#45;&gt;Node4 -->
<g id="edge3_Node000002_Node000004" class="edge">
<title>Node2&#45;&gt;Node4</title>
<g id="a_edge3_Node000002_Node000004"><a xlink:title=" ">
<path fill="none" stroke="#63b8ff" d="M184.56,-215.14C203.98,-204.76 225.94,-193.02 242.6,-184.11"/>
<polygon fill="#63b8ff" stroke="#63b8ff" points="182.73,-212.15 175.56,-219.96 186.03,-218.33 182.73,-212.15"/>
</a>
</g>
</g>
<!-- Node8 -->
<g id="Node000008" class="node">
<title>Node8</title>
<g id="a_Node000008"><a xlink:href="rigidbody__2d_8h.html" target="_top" xlink:title=" ">
<polygon fill="white" stroke="#666666" points="186.5,-184 31.5,-184 31.5,-154 186.5,-154 186.5,-184"/>
<text text-anchor="start" x="39.5" y="-172" font-family="Helvetica,sans-Serif" font-size="10.00">include/engine/public</text>
<text text-anchor="middle" x="109" y="-161" font-family="Helvetica,sans-Serif" font-size="10.00">/components/rigidbody_2d.h</text>
</a>
</g>
</g>
<!-- Node2&#45;&gt;Node8 -->
<g id="edge8_Node000002_Node000008" class="edge">
<title>Node2&#45;&gt;Node8</title>
<g id="a_edge8_Node000002_Node000008"><a xlink:title=" ">
<path fill="none" stroke="#63b8ff" d="M126.5,-210.53C122.54,-201.37 118.35,-191.66 115.06,-184.04"/>
<polygon fill="#63b8ff" stroke="#63b8ff" points="123.31,-211.98 130.48,-219.77 129.73,-209.2 123.31,-211.98"/>
</a>
</g>
</g>
<!-- Node4&#45;&gt;Node3 -->
<g id="edge4_Node000004_Node000003" class="edge">
<title>Node4&#45;&gt;Node3</title>
<g id="a_edge4_Node000004_Node000003"><a xlink:title=" ">
<path fill="none" stroke="#63b8ff" d="M218.02,-150.72C183.3,-138.95 137.92,-123.56 105.42,-112.54"/>
<polygon fill="#63b8ff" stroke="#63b8ff" points="216.92,-154.04 227.52,-153.94 219.17,-147.41 216.92,-154.04"/>
</a>
</g>
</g>
<!-- Node5 -->
<g id="Node000005" class="node">
<title>Node5</title>
<g id="a_Node000005"><a xlink:href="collider__2d_8h.html" target="_top" xlink:title=" ">
<polygon fill="white" stroke="#666666" points="300,-118 176,-118 176,-77 300,-77 300,-118"/>
<text text-anchor="start" x="184" y="-106" font-family="Helvetica,sans-Serif" font-size="10.00">include/engine/public</text>
<text text-anchor="start" x="184" y="-95" font-family="Helvetica,sans-Serif" font-size="10.00">/components/colliders</text>
<text text-anchor="middle" x="238" y="-84" font-family="Helvetica,sans-Serif" font-size="10.00">/collider_2d.h</text>
</a>
</g>
</g>
<!-- Node4&#45;&gt;Node5 -->
<g id="edge5_Node000004_Node000005" class="edge">
<title>Node4&#45;&gt;Node5</title>
<g id="a_edge5_Node000004_Node000005"><a xlink:title=" ">
<path fill="none" stroke="#63b8ff" d="M258.63,-144.75C254.77,-136.1 250.43,-126.37 246.73,-118.07"/>
<polygon fill="#63b8ff" stroke="#63b8ff" points="255.46,-146.23 262.73,-153.94 261.85,-143.38 255.46,-146.23"/>
</a>
</g>
</g>
<!-- Node6 -->
<g id="Node000006" class="node">
<title>Node6</title>
<g id="a_Node000006"><a xlink:href="box__collider__2d_8h.html" target="_top" xlink:title=" ">
<polygon fill="white" stroke="#666666" points="229,-41 105,-41 105,0 229,0 229,-41"/>
<text text-anchor="start" x="113" y="-29" font-family="Helvetica,sans-Serif" font-size="10.00">include/engine/public</text>
<text text-anchor="start" x="113" y="-18" font-family="Helvetica,sans-Serif" font-size="10.00">/components/colliders</text>
<text text-anchor="middle" x="167" y="-7" font-family="Helvetica,sans-Serif" font-size="10.00">/box_collider_2d.h</text>
</a>
</g>
</g>
<!-- Node5&#45;&gt;Node6 -->
<g id="edge6_Node000005_Node000006" class="edge">
<title>Node5&#45;&gt;Node6</title>
<g id="a_edge6_Node000005_Node000006"><a xlink:title=" ">
<path fill="none" stroke="#63b8ff" d="M212.45,-69.51C203.55,-60.11 193.75,-49.76 185.53,-41.07"/>
<polygon fill="#63b8ff" stroke="#63b8ff" points="209.93,-71.94 219.35,-76.79 215.01,-67.13 209.93,-71.94"/>
</a>
</g>
</g>
<!-- Node7 -->
<g id="Node000007" class="node">
<title>Node7</title>
<g id="a_Node000007"><a xlink:href="circle__collider__2d_8h.html" target="_top" xlink:title=" ">
<polygon fill="white" stroke="#666666" points="371,-41 247,-41 247,0 371,0 371,-41"/>
<text text-anchor="start" x="255" y="-29" font-family="Helvetica,sans-Serif" font-size="10.00">include/engine/public</text>
<text text-anchor="start" x="255" y="-18" font-family="Helvetica,sans-Serif" font-size="10.00">/components/colliders</text>
<text text-anchor="middle" x="309" y="-7" font-family="Helvetica,sans-Serif" font-size="10.00">/circle_collider_2d.h</text>
</a>
</g>
</g>
<!-- Node5&#45;&gt;Node7 -->
<g id="edge7_Node000005_Node000007" class="edge">
<title>Node5&#45;&gt;Node7</title>
<g id="a_edge7_Node000005_Node000007"><a xlink:title=" ">
<path fill="none" stroke="#63b8ff" d="M263.55,-69.51C272.45,-60.11 282.25,-49.76 290.47,-41.07"/>
<polygon fill="#63b8ff" stroke="#63b8ff" points="260.99,-67.13 256.65,-76.79 266.07,-71.94 260.99,-67.13"/>
</a>
</g>
</g>
<!-- Node8&#45;&gt;Node5 -->
<g id="edge9_Node000008_Node000005" class="edge">
<title>Node8&#45;&gt;Node5</title>
<g id="a_edge9_Node000008_Node000005"><a xlink:title=" ">
<path fill="none" stroke="#63b8ff" d="M144.06,-149.11C161.92,-139.49 183.63,-127.79 201.67,-118.07"/>
<polygon fill="#63b8ff" stroke="#63b8ff" points="142.25,-146.11 135.11,-153.94 145.57,-152.27 142.25,-146.11"/>
</a>
</g>
</g>
<!-- Node9&#45;&gt;Node2 -->
<g id="edge11_Node000009_Node000002" class="edge">
<title>Node9&#45;&gt;Node2</title>
<g id="a_edge11_Node000009_Node000002"><a xlink:title=" ">
<path fill="none" stroke="#63b8ff" d="M204.23,-290.77C191.84,-281.42 177.19,-270.35 164.91,-261.07"/>
<polygon fill="#63b8ff" stroke="#63b8ff" points="202.29,-293.7 212.38,-296.94 206.51,-288.12 202.29,-293.7"/>
</a>
</g>
</g>
<!-- Node9&#45;&gt;Node4 -->
<g id="edge12_Node000009_Node000004" class="edge">
<title>Node9&#45;&gt;Node4</title>
<g id="a_edge12_Node000009_Node000004"><a xlink:title=" ">
<path fill="none" stroke="#63b8ff" d="M237.44,-287.09C245.38,-257.65 258.6,-208.6 265.12,-184.4"/>
<polygon fill="#63b8ff" stroke="#63b8ff" points="234.01,-286.4 234.78,-296.96 240.76,-288.22 234.01,-286.4"/>
</a>
</g>
</g>
</g>
</svg>
