<?xml version="1.0" encoding="UTF-8" standalone="no"?>
<!DOCTYPE svg PUBLIC "-//W3C//DTD SVG 1.1//EN"
 "http://www.w3.org/Graphics/SVG/1.1/DTD/svg11.dtd">
<!-- Generated by graphviz version 2.43.0 (0)
 -->
<!-- Title: include/engine/physics/world/body/body_2d.h Pages: 1 -->
<svg width="478pt" height="159pt"
 viewBox="0.00 0.00 478.15 159.00" xmlns="http://www.w3.org/2000/svg" xmlns:xlink="http://www.w3.org/1999/xlink">
<g id="graph0" class="graph" transform="scale(1 1) rotate(0) translate(4 155)">
<title>include/engine/physics/world/body/body_2d.h</title>
<!-- Node1 -->
<g id="Node000001" class="node">
<title>Node1</title>
<g id="a_Node000001"><a xlink:title=" ">
<polygon fill="#999999" stroke="#666666" points="285.65,-151 157.65,-151 157.65,-121 285.65,-121 285.65,-151"/>
<text text-anchor="start" x="165.65" y="-139" font-family="Helvetica,sans-Serif" font-size="10.00">include/engine/physics</text>
<text text-anchor="middle" x="221.65" y="-128" font-family="Helvetica,sans-Serif" font-size="10.00">/world/body/body_2d.h</text>
</a>
</g>
</g>
<!-- Node2 -->
<g id="Node000002" class="node">
<title>Node2</title>
<g id="a_Node000002"><a xlink:title=" ">
<polygon fill="#e0e0e0" stroke="#999999" points="121.15,-19 32.15,-19 32.15,0 121.15,0 121.15,-19"/>
<text text-anchor="middle" x="76.65" y="-7" font-family="Helvetica,sans-Serif" font-size="10.00">box2d/box2d.h</text>
</a>
</g>
</g>
<!-- Node1&#45;&gt;Node2 -->
<g id="edge1_Node000001_Node000002" class="edge">
<title>Node1&#45;&gt;Node2</title>
<g id="a_edge1_Node000001_Node000002"><a xlink:title=" ">
<path fill="none" stroke="#63b8ff" d="M157.62,-128.9C100.94,-122.01 24.39,-108.58 5.65,-85 -2.65,-74.56 -0.81,-66.67 5.65,-55 13.49,-40.83 27.93,-30.57 41.76,-23.5"/>
<polygon fill="#63b8ff" stroke="#63b8ff" points="43.57,-26.52 51.14,-19.1 40.6,-20.18 43.57,-26.52"/>
</a>
</g>
</g>
<!-- Node3 -->
<g id="Node000003" class="node">
<title>Node3</title>
<g id="a_Node000003"><a xlink:title=" ">
<polygon fill="#e0e0e0" stroke="#999999" points="351.15,-79.5 304.15,-79.5 304.15,-60.5 351.15,-60.5 351.15,-79.5"/>
<text text-anchor="middle" x="327.65" y="-67.5" font-family="Helvetica,sans-Serif" font-size="10.00">vector</text>
</a>
</g>
</g>
<!-- Node1&#45;&gt;Node3 -->
<g id="edge2_Node000001_Node000003" class="edge">
<title>Node1&#45;&gt;Node3</title>
<g id="a_edge2_Node000001_Node000003"><a xlink:title=" ">
<path fill="none" stroke="#63b8ff" d="M244.91,-120.95C262.76,-110.18 287.27,-95.38 304.97,-84.69"/>
<polygon fill="#63b8ff" stroke="#63b8ff" points="306.79,-87.68 313.54,-79.52 303.17,-81.69 306.79,-87.68"/>
</a>
</g>
</g>
<!-- Node4 -->
<g id="Node000004" class="node">
<title>Node4</title>
<g id="a_Node000004"><a xlink:href="shape__type__2d_8h.html" target="_top" xlink:title=" ">
<polygon fill="white" stroke="#666666" points="286.15,-85 157.15,-85 157.15,-55 286.15,-55 286.15,-85"/>
<text text-anchor="start" x="165.15" y="-73" font-family="Helvetica,sans-Serif" font-size="10.00">engine/physics/world</text>
<text text-anchor="middle" x="221.65" y="-62" font-family="Helvetica,sans-Serif" font-size="10.00">/body/shape_type_2d.h</text>
</a>
</g>
</g>
<!-- Node1&#45;&gt;Node4 -->
<g id="edge3_Node000001_Node000004" class="edge">
<title>Node1&#45;&gt;Node4</title>
<g id="a_edge3_Node000001_Node000004"><a xlink:title=" ">
<path fill="none" stroke="#63b8ff" d="M221.65,-120.8C221.65,-113.34 221.65,-103.99 221.65,-95.41"/>
<polygon fill="#63b8ff" stroke="#63b8ff" points="225.15,-95.16 221.65,-85.16 218.15,-95.16 225.15,-95.16"/>
</a>
</g>
</g>
<!-- Node6 -->
<g id="Node000006" class="node">
<title>Node6</title>
<g id="a_Node000006"><a xlink:href="body__type__2d_8h.html" target="_top" xlink:title=" ">
<polygon fill="white" stroke="#666666" points="138.65,-85 14.65,-85 14.65,-55 138.65,-55 138.65,-85"/>
<text text-anchor="start" x="22.65" y="-73" font-family="Helvetica,sans-Serif" font-size="10.00">engine/physics/world</text>
<text text-anchor="middle" x="76.65" y="-62" font-family="Helvetica,sans-Serif" font-size="10.00">/body/body_type_2d.h</text>
</a>
</g>
</g>
<!-- Node1&#45;&gt;Node6 -->
<g id="edge6_Node000001_Node000006" class="edge">
<title>Node1&#45;&gt;Node6</title>
<g id="a_edge6_Node000001_Node000006"><a xlink:title=" ">
<path fill="none" stroke="#63b8ff" d="M189.83,-120.95C168.67,-111.62 140.69,-99.27 117.84,-89.18"/>
<polygon fill="#63b8ff" stroke="#63b8ff" points="118.96,-85.85 108.39,-85.01 116.13,-92.25 118.96,-85.85"/>
</a>
</g>
</g>
<!-- Node7 -->
<g id="Node000007" class="node">
<title>Node7</title>
<g id="a_Node000007"><a xlink:href="vector3_8h.html" target="_top" xlink:title=" ">
<polygon fill="white" stroke="#666666" points="470.15,-85 369.15,-85 369.15,-55 470.15,-55 470.15,-85"/>
<text text-anchor="start" x="377.15" y="-73" font-family="Helvetica,sans-Serif" font-size="10.00">engine/public/util</text>
<text text-anchor="middle" x="419.65" y="-62" font-family="Helvetica,sans-Serif" font-size="10.00">/vector3.h</text>
</a>
</g>
</g>
<!-- Node1&#45;&gt;Node7 -->
<g id="edge9_Node000001_Node000007" class="edge">
<title>Node1&#45;&gt;Node7</title>
<g id="a_edge9_Node000001_Node000007"><a xlink:title=" ">
<path fill="none" stroke="#63b8ff" d="M265.1,-120.95C295.02,-111.28 334.94,-98.38 366.72,-88.11"/>
<polygon fill="#63b8ff" stroke="#63b8ff" points="367.86,-91.42 376.3,-85.01 365.71,-84.76 367.86,-91.42"/>
</a>
</g>
</g>
<!-- Node4&#45;&gt;Node2 -->
<g id="edge4_Node000004_Node000002" class="edge">
<title>Node4&#45;&gt;Node2</title>
<g id="a_edge4_Node000004_Node000002"><a xlink:title=" ">
<path fill="none" stroke="#63b8ff" d="M186.92,-54.99C162.72,-45.23 130.75,-32.33 107.46,-22.93"/>
<polygon fill="#63b8ff" stroke="#63b8ff" points="108.64,-19.63 98.06,-19.14 106.03,-26.13 108.64,-19.63"/>
</a>
</g>
</g>
<!-- Node5 -->
<g id="Node000005" class="node">
<title>Node5</title>
<g id="a_Node000005"><a xlink:title=" ">
<polygon fill="#e0e0e0" stroke="#999999" points="217.65,-19 167.65,-19 167.65,0 217.65,0 217.65,-19"/>
<text text-anchor="middle" x="192.65" y="-7" font-family="Helvetica,sans-Serif" font-size="10.00">cstdint</text>
</a>
</g>
</g>
<!-- Node4&#45;&gt;Node5 -->
<g id="edge5_Node000004_Node000005" class="edge">
<title>Node4&#45;&gt;Node5</title>
<g id="a_edge5_Node000004_Node000005"><a xlink:title=" ">
<path fill="none" stroke="#63b8ff" d="M214.63,-54.84C210.68,-46.87 205.7,-36.84 201.49,-28.33"/>
<polygon fill="#63b8ff" stroke="#63b8ff" points="204.57,-26.67 196.99,-19.27 198.3,-29.78 204.57,-26.67"/>
</a>
</g>
</g>
<!-- Node6&#45;&gt;Node2 -->
<g id="edge7_Node000006_Node000002" class="edge">
<title>Node6&#45;&gt;Node2</title>
<g id="a_edge7_Node000006_Node000002"><a xlink:title=" ">
<path fill="none" stroke="#63b8ff" d="M76.65,-54.84C76.65,-47.21 76.65,-37.7 76.65,-29.45"/>
<polygon fill="#63b8ff" stroke="#63b8ff" points="80.15,-29.27 76.65,-19.27 73.15,-29.27 80.15,-29.27"/>
</a>
</g>
</g>
<!-- Node6&#45;&gt;Node5 -->
<g id="edge8_Node000006_Node000005" class="edge">
<title>Node6&#45;&gt;Node5</title>
<g id="a_edge8_Node000006_Node000005"><a xlink:title=" ">
<path fill="none" stroke="#63b8ff" d="M104.43,-54.99C123.27,-45.49 148,-33.02 166.49,-23.69"/>
<polygon fill="#63b8ff" stroke="#63b8ff" points="168.16,-26.77 175.52,-19.14 165.01,-20.52 168.16,-26.77"/>
</a>
</g>
</g>
</g>
</svg>
