<?xml version="1.0" encoding="UTF-8" standalone="no"?>
<!DOCTYPE svg PUBLIC "-//W3C//DTD SVG 1.1//EN"
 "http://www.w3.org/Graphics/SVG/1.1/DTD/svg11.dtd">
<!-- Generated by graphviz version 2.43.0 (0)
 -->
<!-- Title: include/engine/public/components/colliders/box_collider_2d.h Pages: 1 -->
<svg width="1382pt" height="434pt"
 viewBox="0.00 0.00 1382.04 434.00" xmlns="http://www.w3.org/2000/svg" xmlns:xlink="http://www.w3.org/1999/xlink">
<g id="graph0" class="graph" transform="scale(1 1) rotate(0) translate(4 430)">
<title>include/engine/public/components/colliders/box_collider_2d.h</title>
<!-- Node1 -->
<g id="Node000001" class="node">
<title>Node1</title>
<g id="a_Node000001"><a xlink:title=" ">
<polygon fill="#999999" stroke="#666666" points="639.54,-426 515.54,-426 515.54,-385 639.54,-385 639.54,-426"/>
<text text-anchor="start" x="523.54" y="-414" font-family="Helvetica,sans-Serif" font-size="10.00">include/engine/public</text>
<text text-anchor="start" x="523.54" y="-403" font-family="Helvetica,sans-Serif" font-size="10.00">/components/colliders</text>
<text text-anchor="middle" x="577.54" y="-392" font-family="Helvetica,sans-Serif" font-size="10.00">/box_collider_2d.h</text>
</a>
</g>
</g>
<!-- Node2 -->
<g id="Node000002" class="node">
<title>Node2</title>
<g id="a_Node000002"><a xlink:href="collider__2d_8h.html" target="_top" xlink:title=" ">
<polygon fill="white" stroke="#666666" points="1004.04,-349 859.04,-349 859.04,-319 1004.04,-319 1004.04,-349"/>
<text text-anchor="start" x="867.04" y="-337" font-family="Helvetica,sans-Serif" font-size="10.00">engine/public/components</text>
<text text-anchor="middle" x="931.54" y="-326" font-family="Helvetica,sans-Serif" font-size="10.00">/colliders/collider_2d.h</text>
</a>
</g>
</g>
<!-- Node1&#45;&gt;Node2 -->
<g id="edge1_Node000001_Node000002" class="edge">
<title>Node1&#45;&gt;Node2</title>
<g id="a_edge1_Node000001_Node000002"><a xlink:title=" ">
<path fill="none" stroke="#63b8ff" d="M639.61,-392.31C698.05,-380.84 785.95,-363.58 850.02,-351"/>
<polygon fill="#63b8ff" stroke="#63b8ff" points="850.95,-354.39 860.09,-349.03 849.6,-347.52 850.95,-354.39"/>
</a>
</g>
</g>
<!-- Node8 -->
<g id="Node000008" class="node">
<title>Node8</title>
<g id="a_Node000008"><a xlink:href="point_8h.html" target="_top" xlink:title=" ">
<polygon fill="white" stroke="#666666" points="345.04,-151 244.04,-151 244.04,-121 345.04,-121 345.04,-151"/>
<text text-anchor="start" x="252.04" y="-139" font-family="Helvetica,sans-Serif" font-size="10.00">engine/public/util</text>
<text text-anchor="middle" x="294.54" y="-128" font-family="Helvetica,sans-Serif" font-size="10.00">/point.h</text>
</a>
</g>
</g>
<!-- Node1&#45;&gt;Node8 -->
<g id="edge51_Node000001_Node000008" class="edge">
<title>Node1&#45;&gt;Node8</title>
<g id="a_edge51_Node000001_Node000008"><a xlink:title=" ">
<path fill="none" stroke="#63b8ff" d="M517.78,-384.91C449.54,-358.86 341.64,-305.49 297.54,-217 288.95,-199.75 288.78,-177.73 290.44,-161.15"/>
<polygon fill="#63b8ff" stroke="#63b8ff" points="293.92,-161.52 291.72,-151.15 286.97,-160.63 293.92,-161.52"/>
</a>
</g>
</g>
<!-- Node3 -->
<g id="Node000003" class="node">
<title>Node3</title>
<g id="a_Node000003"><a xlink:href="physics__creation__flags_8h.html" target="_top" xlink:title=" ">
<polygon fill="white" stroke="#666666" points="1346.04,-151 1207.04,-151 1207.04,-121 1346.04,-121 1346.04,-151"/>
<text text-anchor="start" x="1215.04" y="-139" font-family="Helvetica,sans-Serif" font-size="10.00">engine/physics/creation</text>
<text text-anchor="middle" x="1276.54" y="-128" font-family="Helvetica,sans-Serif" font-size="10.00">/physics_creation_flags.h</text>
</a>
</g>
</g>
<!-- Node2&#45;&gt;Node3 -->
<g id="edge2_Node000002_Node000003" class="edge">
<title>Node2&#45;&gt;Node3</title>
<g id="a_edge2_Node000002_Node000003"><a xlink:title=" ">
<path fill="none" stroke="#63b8ff" d="M1004.27,-325.89C1070.69,-318.19 1162.9,-304.11 1192.54,-283 1234.88,-252.84 1258.92,-194.17 1269.66,-161.12"/>
<polygon fill="#63b8ff" stroke="#63b8ff" points="1273.07,-161.95 1272.69,-151.36 1266.38,-159.88 1273.07,-161.95"/>
</a>
</g>
</g>
<!-- Node5 -->
<g id="Node000005" class="node">
<title>Node5</title>
<g id="a_Node000005"><a xlink:href="physics__raycaster_8h.html" target="_top" xlink:title=" ">
<polygon fill="white" stroke="#666666" points="190.54,-283 62.54,-283 62.54,-253 190.54,-253 190.54,-283"/>
<text text-anchor="start" x="70.54" y="-271" font-family="Helvetica,sans-Serif" font-size="10.00">engine/physics/raycast</text>
<text text-anchor="middle" x="126.54" y="-260" font-family="Helvetica,sans-Serif" font-size="10.00">/physics_raycaster.h</text>
</a>
</g>
</g>
<!-- Node2&#45;&gt;Node5 -->
<g id="edge4_Node000002_Node000005" class="edge">
<title>Node2&#45;&gt;Node5</title>
<g id="a_edge4_Node000002_Node000005"><a xlink:title=" ">
<path fill="none" stroke="#63b8ff" d="M858.78,-327.75C738.43,-318.98 490.36,-300.59 280.54,-283 254.56,-280.82 226.13,-278.28 200.84,-275.97"/>
<polygon fill="#63b8ff" stroke="#63b8ff" points="200.86,-272.45 190.59,-275.02 200.22,-279.42 200.86,-272.45"/>
</a>
</g>
</g>
<!-- Node2&#45;&gt;Node8 -->
<g id="edge48_Node000002_Node000008" class="edge">
<title>Node2&#45;&gt;Node8</title>
<g id="a_edge48_Node000002_Node000008"><a xlink:title=" ">
<path fill="none" stroke="#63b8ff" d="M858.78,-329.33C712.94,-320.43 392.42,-292.56 317.54,-217 302.97,-202.29 297.5,-178.99 295.52,-161.32"/>
<polygon fill="#63b8ff" stroke="#63b8ff" points="298.99,-160.85 294.68,-151.18 292.01,-161.43 298.99,-160.85"/>
</a>
</g>
</g>
<!-- Node10 -->
<g id="Node000010" class="node">
<title>Node10</title>
<g id="a_Node000010"><a xlink:title=" ">
<polygon fill="#e0e0e0" stroke="#999999" points="1116.04,-79.5 1069.04,-79.5 1069.04,-60.5 1116.04,-60.5 1116.04,-79.5"/>
<text text-anchor="middle" x="1092.54" y="-67.5" font-family="Helvetica,sans-Serif" font-size="10.00">vector</text>
</a>
</g>
</g>
<!-- Node2&#45;&gt;Node10 -->
<g id="edge50_Node000002_Node000010" class="edge">
<title>Node2&#45;&gt;Node10</title>
<g id="a_edge50_Node000002_Node000010"><a xlink:title=" ">
<path fill="none" stroke="#63b8ff" d="M969.87,-318.81C990.64,-310.15 1016.16,-297.88 1036.54,-283 1101.56,-235.54 1130.9,-225.84 1160.54,-151 1165.45,-138.6 1166.56,-132.9 1160.54,-121 1152.4,-104.91 1136.38,-92.74 1121.93,-84.43"/>
<polygon fill="#63b8ff" stroke="#63b8ff" points="1123.23,-81.16 1112.76,-79.53 1119.93,-87.33 1123.23,-81.16"/>
</a>
</g>
</g>
<!-- Node11 -->
<g id="Node000011" class="node">
<title>Node11</title>
<g id="a_Node000011"><a xlink:href="physics__world_8h.html" target="_top" xlink:title=" ">
<polygon fill="white" stroke="#666666" points="668.04,-283 549.04,-283 549.04,-253 668.04,-253 668.04,-283"/>
<text text-anchor="start" x="557.04" y="-271" font-family="Helvetica,sans-Serif" font-size="10.00">engine/physics/world</text>
<text text-anchor="middle" x="608.54" y="-260" font-family="Helvetica,sans-Serif" font-size="10.00">/physics_world.h</text>
</a>
</g>
</g>
<!-- Node2&#45;&gt;Node11 -->
<g id="edge12_Node000002_Node000011" class="edge">
<title>Node2&#45;&gt;Node11</title>
<g id="a_edge12_Node000002_Node000011"><a xlink:title=" ">
<path fill="none" stroke="#63b8ff" d="M860.66,-318.95C806.38,-308.2 731.9,-293.44 677.98,-282.76"/>
<polygon fill="#63b8ff" stroke="#63b8ff" points="678.65,-279.32 668.16,-280.81 677.29,-286.19 678.65,-279.32"/>
</a>
</g>
</g>
<!-- Node17 -->
<g id="Node000017" class="node">
<title>Node17</title>
<g id="a_Node000017"><a xlink:href="component_8h.html" target="_top" xlink:title=" ">
<polygon fill="white" stroke="#666666" points="1151.04,-145.5 1002.04,-145.5 1002.04,-126.5 1151.04,-126.5 1151.04,-145.5"/>
<text text-anchor="middle" x="1076.54" y="-133.5" font-family="Helvetica,sans-Serif" font-size="10.00">engine/public/component.h</text>
</a>
</g>
</g>
<!-- Node2&#45;&gt;Node17 -->
<g id="edge44_Node000002_Node000017" class="edge">
<title>Node2&#45;&gt;Node17</title>
<g id="a_edge44_Node000002_Node000017"><a xlink:title=" ">
<path fill="none" stroke="#63b8ff" d="M964.46,-318.87C980.95,-310.43 1000.2,-298.36 1013.54,-283 1047.1,-244.38 1065.08,-185.16 1072.46,-155.41"/>
<polygon fill="#63b8ff" stroke="#63b8ff" points="1075.9,-156.09 1074.78,-145.55 1069.08,-154.49 1075.9,-156.09"/>
</a>
</g>
</g>
<!-- Node18 -->
<g id="Node000018" class="node">
<title>Node18</title>
<g id="a_Node000018"><a xlink:title=" ">
<polygon fill="#e0e0e0" stroke="#999999" points="1374.04,-79.5 1309.04,-79.5 1309.04,-60.5 1374.04,-60.5 1374.04,-79.5"/>
<text text-anchor="middle" x="1341.54" y="-67.5" font-family="Helvetica,sans-Serif" font-size="10.00">functional</text>
</a>
</g>
</g>
<!-- Node2&#45;&gt;Node18 -->
<g id="edge49_Node000002_Node000018" class="edge">
<title>Node2&#45;&gt;Node18</title>
<g id="a_edge49_Node000002_Node000018"><a xlink:title=" ">
<path fill="none" stroke="#63b8ff" d="M1004.16,-332.4C1065.23,-329.19 1153.25,-318.06 1221.54,-283 1295.91,-244.82 1323.26,-228.11 1355.54,-151 1364.02,-130.75 1357.01,-105.54 1350.21,-88.9"/>
<polygon fill="#63b8ff" stroke="#63b8ff" points="1353.41,-87.47 1346.15,-79.76 1347.01,-90.32 1353.41,-87.47"/>
</a>
</g>
</g>
<!-- Node21 -->
<g id="Node000021" class="node">
<title>Node21</title>
<g id="a_Node000021"><a xlink:href="rigidbody__2d_8h.html" target="_top" xlink:title=" ">
<polygon fill="white" stroke="#666666" points="1004.04,-283 859.04,-283 859.04,-253 1004.04,-253 1004.04,-283"/>
<text text-anchor="start" x="867.04" y="-271" font-family="Helvetica,sans-Serif" font-size="10.00">engine/public/components</text>
<text text-anchor="middle" x="931.54" y="-260" font-family="Helvetica,sans-Serif" font-size="10.00">/rigidbody_2d.h</text>
</a>
</g>
</g>
<!-- Node2&#45;&gt;Node21 -->
<g id="edge45_Node000002_Node000021" class="edge">
<title>Node2&#45;&gt;Node21</title>
<g id="a_edge45_Node000002_Node000021"><a xlink:title=" ">
<path fill="none" stroke="#63b8ff" d="M931.54,-318.8C931.54,-311.34 931.54,-301.99 931.54,-293.41"/>
<polygon fill="#63b8ff" stroke="#63b8ff" points="935.04,-293.16 931.54,-283.16 928.04,-293.16 935.04,-293.16"/>
</a>
</g>
</g>
<!-- Node4 -->
<g id="Node000004" class="node">
<title>Node4</title>
<g id="a_Node000004"><a xlink:title=" ">
<polygon fill="#e0e0e0" stroke="#999999" points="1013.54,-19 963.54,-19 963.54,0 1013.54,0 1013.54,-19"/>
<text text-anchor="middle" x="988.54" y="-7" font-family="Helvetica,sans-Serif" font-size="10.00">cstdint</text>
</a>
</g>
</g>
<!-- Node3&#45;&gt;Node4 -->
<g id="edge3_Node000003_Node000004" class="edge">
<title>Node3&#45;&gt;Node4</title>
<g id="a_edge3_Node000003_Node000004"><a xlink:title=" ">
<path fill="none" stroke="#63b8ff" d="M1267.15,-120.95C1254.19,-102.73 1229.05,-71.36 1199.54,-55 1143.28,-23.81 1067.48,-14.44 1023.72,-11.65"/>
<polygon fill="#63b8ff" stroke="#63b8ff" points="1023.76,-8.15 1013.58,-11.09 1023.37,-15.14 1023.76,-8.15"/>
</a>
</g>
</g>
<!-- Node6 -->
<g id="Node000006" class="node">
<title>Node6</title>
<g id="a_Node000006"><a xlink:title=" ">
<polygon fill="#e0e0e0" stroke="#999999" points="693.04,-19 604.04,-19 604.04,0 693.04,0 693.04,-19"/>
<text text-anchor="middle" x="648.54" y="-7" font-family="Helvetica,sans-Serif" font-size="10.00">box2d/box2d.h</text>
</a>
</g>
</g>
<!-- Node5&#45;&gt;Node6 -->
<g id="edge5_Node000005_Node000006" class="edge">
<title>Node5&#45;&gt;Node6</title>
<g id="a_edge5_Node000005_Node000006"><a xlink:title=" ">
<path fill="none" stroke="#63b8ff" d="M62.37,-255.28C40.96,-247.98 19.31,-236.15 6.54,-217 -22.5,-173.44 60.25,-121.91 61.54,-121 130.81,-72.1 158,-74.41 240.54,-55 364.67,-25.81 514.64,-15.69 593.66,-12.23"/>
<polygon fill="#63b8ff" stroke="#63b8ff" points="594.02,-15.72 603.87,-11.81 593.73,-8.73 594.02,-15.72"/>
</a>
</g>
</g>
<!-- Node7 -->
<g id="Node000007" class="node">
<title>Node7</title>
<g id="a_Node000007"><a xlink:href="collider__ray__result_8h.html" target="_top" xlink:title=" ">
<polygon fill="white" stroke="#666666" points="152.54,-217 24.54,-217 24.54,-187 152.54,-187 152.54,-217"/>
<text text-anchor="start" x="32.54" y="-205" font-family="Helvetica,sans-Serif" font-size="10.00">engine/physics/raycast</text>
<text text-anchor="middle" x="88.54" y="-194" font-family="Helvetica,sans-Serif" font-size="10.00">/collider_ray_result.h</text>
</a>
</g>
</g>
<!-- Node5&#45;&gt;Node7 -->
<g id="edge6_Node000005_Node000007" class="edge">
<title>Node5&#45;&gt;Node7</title>
<g id="a_edge6_Node000005_Node000007"><a xlink:title=" ">
<path fill="none" stroke="#63b8ff" d="M118.11,-252.8C113.43,-244.92 107.51,-234.95 102.19,-225.99"/>
<polygon fill="#63b8ff" stroke="#63b8ff" points="105.07,-223.98 96.95,-217.16 99.05,-227.55 105.07,-223.98"/>
</a>
</g>
</g>
<!-- Node5&#45;&gt;Node8 -->
<g id="edge9_Node000005_Node000008" class="edge">
<title>Node5&#45;&gt;Node8</title>
<g id="a_edge9_Node000005_Node000008"><a xlink:title=" ">
<path fill="none" stroke="#63b8ff" d="M146.04,-252.98C159.72,-243.07 178.38,-229.4 194.54,-217 220.43,-197.14 249.51,-173.75 269.6,-157.41"/>
<polygon fill="#63b8ff" stroke="#63b8ff" points="271.82,-160.12 277.37,-151.09 267.4,-154.69 271.82,-160.12"/>
</a>
</g>
</g>
<!-- Node9 -->
<g id="Node000009" class="node">
<title>Node9</title>
<g id="a_Node000009"><a xlink:title=" ">
<polygon fill="#e0e0e0" stroke="#999999" points="565.54,-79.5 507.54,-79.5 507.54,-60.5 565.54,-60.5 565.54,-79.5"/>
<text text-anchor="middle" x="536.54" y="-67.5" font-family="Helvetica,sans-Serif" font-size="10.00">memory</text>
</a>
</g>
</g>
<!-- Node5&#45;&gt;Node9 -->
<g id="edge10_Node000005_Node000009" class="edge">
<title>Node5&#45;&gt;Node9</title>
<g id="a_edge10_Node000005_Node000009"><a xlink:title=" ">
<path fill="none" stroke="#63b8ff" d="M63.86,-252.91C45.11,-245.45 26.61,-234.13 15.54,-217 8.3,-205.8 8.24,-198.16 15.54,-187 68.81,-105.59 385.2,-79.69 497.24,-73.01"/>
<polygon fill="#63b8ff" stroke="#63b8ff" points="497.65,-76.49 507.43,-72.42 497.25,-69.5 497.65,-76.49"/>
</a>
</g>
</g>
<!-- Node5&#45;&gt;Node10 -->
<g id="edge11_Node000005_Node000010" class="edge">
<title>Node5&#45;&gt;Node10</title>
<g id="a_edge11_Node000005_Node000010"><a xlink:title=" ">
<path fill="none" stroke="#63b8ff" d="M136.47,-252.9C161.81,-217.03 227.37,-124.81 234.54,-121 315.55,-77.92 970.05,-105.24 1059.54,-85 1061.71,-84.51 1063.92,-83.88 1066.11,-83.17"/>
<polygon fill="#63b8ff" stroke="#63b8ff" points="1067.36,-86.44 1075.46,-79.61 1064.87,-79.9 1067.36,-86.44"/>
</a>
</g>
</g>
<!-- Node7&#45;&gt;Node6 -->
<g id="edge7_Node000007_Node000006" class="edge">
<title>Node7&#45;&gt;Node6</title>
<g id="a_edge7_Node000007_Node000006"><a xlink:title=" ">
<path fill="none" stroke="#63b8ff" d="M98.36,-186.72C111.65,-168.55 137.11,-137.53 166.54,-121 307.05,-42.09 500.66,-19.49 593.94,-13.05"/>
<polygon fill="#63b8ff" stroke="#63b8ff" points="594.25,-16.54 604,-12.39 593.8,-9.55 594.25,-16.54"/>
</a>
</g>
</g>
<!-- Node7&#45;&gt;Node8 -->
<g id="edge8_Node000007_Node000008" class="edge">
<title>Node7&#45;&gt;Node8</title>
<g id="a_edge8_Node000007_Node000008"><a xlink:title=" ">
<path fill="none" stroke="#63b8ff" d="M133.75,-186.95C164.88,-177.28 206.41,-164.38 239.47,-154.11"/>
<polygon fill="#63b8ff" stroke="#63b8ff" points="240.93,-157.32 249.44,-151.01 238.85,-150.64 240.93,-157.32"/>
</a>
</g>
</g>
<!-- Node11&#45;&gt;Node6 -->
<g id="edge13_Node000011_Node000006" class="edge">
<title>Node11&#45;&gt;Node6</title>
<g id="a_edge13_Node000011_Node000006"><a xlink:title=" ">
<path fill="none" stroke="#63b8ff" d="M590.82,-252.96C548.33,-217.62 447.82,-122.95 498.54,-55 520.33,-25.8 560.47,-14.99 593.74,-11.3"/>
<polygon fill="#63b8ff" stroke="#63b8ff" points="594.18,-14.78 603.82,-10.38 593.54,-7.81 594.18,-14.78"/>
</a>
</g>
</g>
<!-- Node11&#45;&gt;Node8 -->
<g id="edge41_Node000011_Node000008" class="edge">
<title>Node11&#45;&gt;Node8</title>
<g id="a_edge41_Node000011_Node000008"><a xlink:title=" ">
<path fill="none" stroke="#63b8ff" d="M548.82,-260.56C483.4,-252.61 383.5,-237.57 351.54,-217 330.27,-203.31 314.51,-178.62 305.02,-160.28"/>
<polygon fill="#63b8ff" stroke="#63b8ff" points="308.06,-158.54 300.51,-151.11 301.78,-161.63 308.06,-158.54"/>
</a>
</g>
</g>
<!-- Node11&#45;&gt;Node9 -->
<g id="edge43_Node000011_Node000009" class="edge">
<title>Node11&#45;&gt;Node9</title>
<g id="a_edge43_Node000011_Node000009"><a xlink:title=" ">
<path fill="none" stroke="#63b8ff" d="M603.36,-252.9C590.57,-218.08 557.49,-128.02 543.23,-89.22"/>
<polygon fill="#63b8ff" stroke="#63b8ff" points="546.48,-87.91 539.75,-79.73 539.91,-90.32 546.48,-87.91"/>
</a>
</g>
</g>
<!-- Node12 -->
<g id="Node000012" class="node">
<title>Node12</title>
<g id="a_Node000012"><a xlink:href="physics__creation__factory_8h.html" target="_top" xlink:title=" ">
<polygon fill="white" stroke="#666666" points="973.04,-217 824.04,-217 824.04,-187 973.04,-187 973.04,-217"/>
<text text-anchor="start" x="832.04" y="-205" font-family="Helvetica,sans-Serif" font-size="10.00">engine/physics/creation</text>
<text text-anchor="middle" x="898.54" y="-194" font-family="Helvetica,sans-Serif" font-size="10.00">/physics_creation_factory.h</text>
</a>
</g>
</g>
<!-- Node11&#45;&gt;Node12 -->
<g id="edge14_Node000011_Node000012" class="edge">
<title>Node11&#45;&gt;Node12</title>
<g id="a_edge14_Node000011_Node000012"><a xlink:title=" ">
<path fill="none" stroke="#63b8ff" d="M668.28,-253.82C713.73,-243.79 776.51,-229.93 825.04,-219.22"/>
<polygon fill="#63b8ff" stroke="#63b8ff" points="825.85,-222.63 834.86,-217.05 824.34,-215.79 825.85,-222.63"/>
</a>
</g>
</g>
<!-- Node13 -->
<g id="Node000013" class="node">
<title>Node13</title>
<g id="a_Node000013"><a xlink:href="body__2d_8h.html" target="_top" xlink:title=" ">
<polygon fill="white" stroke="#666666" points="870.04,-151 751.04,-151 751.04,-121 870.04,-121 870.04,-151"/>
<text text-anchor="start" x="759.04" y="-139" font-family="Helvetica,sans-Serif" font-size="10.00">engine/physics/world</text>
<text text-anchor="middle" x="810.54" y="-128" font-family="Helvetica,sans-Serif" font-size="10.00">/body/body_2d.h</text>
</a>
</g>
</g>
<!-- Node11&#45;&gt;Node13 -->
<g id="edge37_Node000011_Node000013" class="edge">
<title>Node11&#45;&gt;Node13</title>
<g id="a_edge37_Node000011_Node000013"><a xlink:title=" ">
<path fill="none" stroke="#63b8ff" d="M630.54,-252.84C666.74,-229.54 738.94,-183.08 780.05,-156.63"/>
<polygon fill="#63b8ff" stroke="#63b8ff" points="782.05,-159.5 788.57,-151.14 778.26,-153.61 782.05,-159.5"/>
</a>
</g>
</g>
<!-- Node15 -->
<g id="Node000015" class="node">
<title>Node15</title>
<g id="a_Node000015"><a xlink:href="shape__type__2d_8h.html" target="_top" xlink:title=" ">
<polygon fill="white" stroke="#666666" points="713.04,-85 584.04,-85 584.04,-55 713.04,-55 713.04,-85"/>
<text text-anchor="start" x="592.04" y="-73" font-family="Helvetica,sans-Serif" font-size="10.00">engine/physics/world</text>
<text text-anchor="middle" x="648.54" y="-62" font-family="Helvetica,sans-Serif" font-size="10.00">/body/shape_type_2d.h</text>
</a>
</g>
</g>
<!-- Node11&#45;&gt;Node15 -->
<g id="edge40_Node000011_Node000015" class="edge">
<title>Node11&#45;&gt;Node15</title>
<g id="a_edge40_Node000011_Node000015"><a xlink:title=" ">
<path fill="none" stroke="#63b8ff" d="M610.18,-252.77C613.35,-226.49 621.05,-168.7 632.54,-121 634.61,-112.4 637.41,-103.14 640.09,-94.95"/>
<polygon fill="#63b8ff" stroke="#63b8ff" points="643.47,-95.88 643.35,-85.28 636.84,-93.64 643.47,-95.88"/>
</a>
</g>
</g>
<!-- Node16 -->
<g id="Node000016" class="node">
<title>Node16</title>
<g id="a_Node000016"><a xlink:href="vector3_8h.html" target="_top" xlink:title=" ">
<polygon fill="white" stroke="#666666" points="832.04,-85 731.04,-85 731.04,-55 832.04,-55 832.04,-85"/>
<text text-anchor="start" x="739.04" y="-73" font-family="Helvetica,sans-Serif" font-size="10.00">engine/public/util</text>
<text text-anchor="middle" x="781.54" y="-62" font-family="Helvetica,sans-Serif" font-size="10.00">/vector3.h</text>
</a>
</g>
</g>
<!-- Node11&#45;&gt;Node16 -->
<g id="edge42_Node000011_Node000016" class="edge">
<title>Node11&#45;&gt;Node16</title>
<g id="a_edge42_Node000011_Node000016"><a xlink:title=" ">
<path fill="none" stroke="#63b8ff" d="M620.18,-252.62C641.77,-226.1 689.73,-167.92 732.54,-121 741.29,-111.42 751.26,-101.13 759.91,-92.4"/>
<polygon fill="#63b8ff" stroke="#63b8ff" points="762.53,-94.73 767.11,-85.18 757.57,-89.79 762.53,-94.73"/>
</a>
</g>
</g>
<!-- Node20 -->
<g id="Node000020" class="node">
<title>Node20</title>
<g id="a_Node000020"><a xlink:href="body__distance__2d_8h.html" target="_top" xlink:title=" ">
<polygon fill="white" stroke="#666666" points="504.04,-217 361.04,-217 361.04,-187 504.04,-187 504.04,-217"/>
<text text-anchor="start" x="369.04" y="-205" font-family="Helvetica,sans-Serif" font-size="10.00">engine/physics/world</text>
<text text-anchor="middle" x="432.54" y="-194" font-family="Helvetica,sans-Serif" font-size="10.00">/body/body_distance_2d.h</text>
</a>
</g>
</g>
<!-- Node11&#45;&gt;Node20 -->
<g id="edge38_Node000011_Node000020" class="edge">
<title>Node11&#45;&gt;Node20</title>
<g id="a_edge38_Node000011_Node000020"><a xlink:title=" ">
<path fill="none" stroke="#63b8ff" d="M569.92,-252.95C543.67,-243.41 508.75,-230.71 480.69,-220.51"/>
<polygon fill="#63b8ff" stroke="#63b8ff" points="481.67,-217.14 471.08,-217.01 479.28,-223.72 481.67,-217.14"/>
</a>
</g>
</g>
<!-- Node12&#45;&gt;Node3 -->
<g id="edge16_Node000012_Node000003" class="edge">
<title>Node12&#45;&gt;Node3</title>
<g id="a_edge16_Node000012_Node000003"><a xlink:title=" ">
<path fill="none" stroke="#63b8ff" d="M973.22,-188.36C1037.79,-177.42 1130.87,-161.66 1196.86,-150.49"/>
<polygon fill="#63b8ff" stroke="#63b8ff" points="1197.52,-153.93 1206.8,-148.81 1196.36,-147.03 1197.52,-153.93"/>
</a>
</g>
</g>
<!-- Node12&#45;&gt;Node6 -->
<g id="edge15_Node000012_Node000006" class="edge">
<title>Node12&#45;&gt;Node6</title>
<g id="a_edge15_Node000012_Node000006"><a xlink:title=" ">
<path fill="none" stroke="#63b8ff" d="M899.17,-186.82C899.64,-157.39 896.21,-89.57 857.54,-55 835.13,-34.97 757.34,-22.46 703.27,-15.99"/>
<polygon fill="#63b8ff" stroke="#63b8ff" points="703.46,-12.49 693.13,-14.81 702.66,-19.44 703.46,-12.49"/>
</a>
</g>
</g>
<!-- Node12&#45;&gt;Node8 -->
<g id="edge33_Node000012_Node000008" class="edge">
<title>Node12&#45;&gt;Node8</title>
<g id="a_edge33_Node000012_Node000008"><a xlink:title=" ">
<path fill="none" stroke="#63b8ff" d="M823.87,-193.09C702.98,-180.28 466.71,-155.24 355.36,-143.44"/>
<polygon fill="#63b8ff" stroke="#63b8ff" points="355.61,-139.95 345.3,-142.38 354.88,-146.91 355.61,-139.95"/>
</a>
</g>
</g>
<!-- Node12&#45;&gt;Node9 -->
<g id="edge35_Node000012_Node000009" class="edge">
<title>Node12&#45;&gt;Node9</title>
<g id="a_edge35_Node000012_Node000009"><a xlink:title=" ">
<path fill="none" stroke="#63b8ff" d="M847.28,-186.92C814.26,-177.52 770.56,-164.45 732.54,-151 672.11,-129.62 603.04,-100.24 565.16,-83.68"/>
<polygon fill="#63b8ff" stroke="#63b8ff" points="566.34,-80.38 555.78,-79.57 563.53,-86.79 566.34,-80.38"/>
</a>
</g>
</g>
<!-- Node12&#45;&gt;Node10 -->
<g id="edge36_Node000012_Node000010" class="edge">
<title>Node12&#45;&gt;Node10</title>
<g id="a_edge36_Node000012_Node000010"><a xlink:title=" ">
<path fill="none" stroke="#63b8ff" d="M915.5,-186.64C942.25,-163.99 991.45,-122.38 993.54,-121 1015.63,-106.41 1042.55,-93.07 1062.74,-83.84"/>
<polygon fill="#63b8ff" stroke="#63b8ff" points="1064.37,-86.95 1072.06,-79.66 1061.51,-80.56 1064.37,-86.95"/>
</a>
</g>
</g>
<!-- Node12&#45;&gt;Node13 -->
<g id="edge17_Node000012_Node000013" class="edge">
<title>Node12&#45;&gt;Node13</title>
<g id="a_edge17_Node000012_Node000013"><a xlink:title=" ">
<path fill="none" stroke="#63b8ff" d="M879.01,-186.8C867.05,-178.1 851.55,-166.82 838.32,-157.2"/>
<polygon fill="#63b8ff" stroke="#63b8ff" points="840.16,-154.22 830.02,-151.16 836.05,-159.88 840.16,-154.22"/>
</a>
</g>
</g>
<!-- Node14 -->
<g id="Node000014" class="node">
<title>Node14</title>
<g id="a_Node000014"><a xlink:href="body__type__2d_8h.html" target="_top" xlink:title=" ">
<polygon fill="white" stroke="#666666" points="1050.54,-85 926.54,-85 926.54,-55 1050.54,-55 1050.54,-85"/>
<text text-anchor="start" x="934.54" y="-73" font-family="Helvetica,sans-Serif" font-size="10.00">engine/physics/world</text>
<text text-anchor="middle" x="988.54" y="-62" font-family="Helvetica,sans-Serif" font-size="10.00">/body/body_type_2d.h</text>
</a>
</g>
</g>
<!-- Node12&#45;&gt;Node14 -->
<g id="edge27_Node000012_Node000014" class="edge">
<title>Node12&#45;&gt;Node14</title>
<g id="a_edge27_Node000012_Node000014"><a xlink:title=" ">
<path fill="none" stroke="#63b8ff" d="M908.34,-186.84C923.9,-164.37 954.37,-120.36 972.94,-93.53"/>
<polygon fill="#63b8ff" stroke="#63b8ff" points="975.94,-95.36 978.75,-85.14 970.18,-91.37 975.94,-95.36"/>
</a>
</g>
</g>
<!-- Node12&#45;&gt;Node16 -->
<g id="edge34_Node000012_Node000016" class="edge">
<title>Node12&#45;&gt;Node16</title>
<g id="a_edge34_Node000012_Node000016"><a xlink:title=" ">
<path fill="none" stroke="#63b8ff" d="M823.81,-195.76C793.52,-189.52 761.32,-176.73 742.54,-151 729.31,-132.87 743.65,-109.56 758.53,-92.79"/>
<polygon fill="#63b8ff" stroke="#63b8ff" points="761.44,-94.8 765.76,-85.13 756.35,-90 761.44,-94.8"/>
</a>
</g>
</g>
<!-- Node12&#45;&gt;Node17 -->
<g id="edge28_Node000012_Node000017" class="edge">
<title>Node12&#45;&gt;Node17</title>
<g id="a_edge28_Node000012_Node000017"><a xlink:title=" ">
<path fill="none" stroke="#63b8ff" d="M937.6,-186.95C969.23,-175.58 1013.3,-159.74 1043.27,-148.96"/>
<polygon fill="#63b8ff" stroke="#63b8ff" points="1044.63,-152.19 1052.85,-145.52 1042.26,-145.61 1044.63,-152.19"/>
</a>
</g>
</g>
<!-- Node13&#45;&gt;Node6 -->
<g id="edge18_Node000013_Node000006" class="edge">
<title>Node13&#45;&gt;Node6</title>
<g id="a_edge18_Node000013_Node000006"><a xlink:title=" ">
<path fill="none" stroke="#63b8ff" d="M823.77,-120.99C838.24,-103.93 857.4,-74.93 841.54,-55 824.52,-33.6 754.15,-21.62 703.3,-15.61"/>
<polygon fill="#63b8ff" stroke="#63b8ff" points="703.42,-12.1 693.09,-14.45 702.63,-19.05 703.42,-12.1"/>
</a>
</g>
</g>
<!-- Node13&#45;&gt;Node10 -->
<g id="edge26_Node000013_Node000010" class="edge">
<title>Node13&#45;&gt;Node10</title>
<g id="a_edge26_Node000013_Node000010"><a xlink:title=" ">
<path fill="none" stroke="#63b8ff" d="M870.25,-126.51C921.23,-118.43 996.14,-104.59 1059.54,-85 1061.22,-84.48 1062.92,-83.91 1064.64,-83.3"/>
<polygon fill="#63b8ff" stroke="#63b8ff" points="1066.25,-86.42 1074.29,-79.52 1063.7,-79.91 1066.25,-86.42"/>
</a>
</g>
</g>
<!-- Node13&#45;&gt;Node14 -->
<g id="edge19_Node000013_Node000014" class="edge">
<title>Node13&#45;&gt;Node14</title>
<g id="a_edge19_Node000013_Node000014"><a xlink:title=" ">
<path fill="none" stroke="#63b8ff" d="M849.6,-120.95C876.15,-111.41 911.46,-98.71 939.85,-88.51"/>
<polygon fill="#63b8ff" stroke="#63b8ff" points="941.34,-91.69 949.57,-85.01 938.98,-85.1 941.34,-91.69"/>
</a>
</g>
</g>
<!-- Node13&#45;&gt;Node15 -->
<g id="edge22_Node000013_Node000015" class="edge">
<title>Node13&#45;&gt;Node15</title>
<g id="a_edge22_Node000013_Node000015"><a xlink:title=" ">
<path fill="none" stroke="#63b8ff" d="M774.99,-120.95C751.04,-111.49 719.25,-98.93 693.54,-88.78"/>
<polygon fill="#63b8ff" stroke="#63b8ff" points="694.6,-85.43 684.01,-85.01 692.02,-91.94 694.6,-85.43"/>
</a>
</g>
</g>
<!-- Node13&#45;&gt;Node16 -->
<g id="edge25_Node000013_Node000016" class="edge">
<title>Node13&#45;&gt;Node16</title>
<g id="a_edge25_Node000013_Node000016"><a xlink:title=" ">
<path fill="none" stroke="#63b8ff" d="M804.11,-120.8C800.58,-113.01 796.11,-103.16 792.09,-94.28"/>
<polygon fill="#63b8ff" stroke="#63b8ff" points="795.27,-92.83 787.96,-85.16 788.9,-95.72 795.27,-92.83"/>
</a>
</g>
</g>
<!-- Node14&#45;&gt;Node4 -->
<g id="edge21_Node000014_Node000004" class="edge">
<title>Node14&#45;&gt;Node4</title>
<g id="a_edge21_Node000014_Node000004"><a xlink:title=" ">
<path fill="none" stroke="#63b8ff" d="M988.54,-54.84C988.54,-47.21 988.54,-37.7 988.54,-29.45"/>
<polygon fill="#63b8ff" stroke="#63b8ff" points="992.04,-29.27 988.54,-19.27 985.04,-29.27 992.04,-29.27"/>
</a>
</g>
</g>
<!-- Node14&#45;&gt;Node6 -->
<g id="edge20_Node000014_Node000006" class="edge">
<title>Node14&#45;&gt;Node6</title>
<g id="a_edge20_Node000014_Node000006"><a xlink:title=" ">
<path fill="none" stroke="#63b8ff" d="M926.34,-57.46C921.67,-56.62 917.03,-55.79 912.54,-55 840.3,-42.26 756.79,-28.31 703.36,-19.49"/>
<polygon fill="#63b8ff" stroke="#63b8ff" points="703.86,-16.03 693.42,-17.85 702.72,-22.93 703.86,-16.03"/>
</a>
</g>
</g>
<!-- Node15&#45;&gt;Node4 -->
<g id="edge24_Node000015_Node000004" class="edge">
<title>Node15&#45;&gt;Node4</title>
<g id="a_edge24_Node000015_Node000004"><a xlink:title=" ">
<path fill="none" stroke="#63b8ff" d="M713.1,-56.7C716.29,-56.12 719.45,-55.55 722.54,-55 804.95,-40.31 901.99,-24.44 953.03,-16.19"/>
<polygon fill="#63b8ff" stroke="#63b8ff" points="953.89,-19.6 963.2,-14.56 952.77,-12.69 953.89,-19.6"/>
</a>
</g>
</g>
<!-- Node15&#45;&gt;Node6 -->
<g id="edge23_Node000015_Node000006" class="edge">
<title>Node15&#45;&gt;Node6</title>
<g id="a_edge23_Node000015_Node000006"><a xlink:title=" ">
<path fill="none" stroke="#63b8ff" d="M648.54,-54.84C648.54,-47.21 648.54,-37.7 648.54,-29.45"/>
<polygon fill="#63b8ff" stroke="#63b8ff" points="652.04,-29.27 648.54,-19.27 645.04,-29.27 652.04,-29.27"/>
</a>
</g>
</g>
<!-- Node17&#45;&gt;Node9 -->
<g id="edge30_Node000017_Node000009" class="edge">
<title>Node17&#45;&gt;Node9</title>
<g id="a_edge30_Node000017_Node000009"><a xlink:title=" ">
<path fill="none" stroke="#63b8ff" d="M1001.79,-129.89C882.34,-121.33 653.81,-103.24 574.54,-85 571.87,-84.39 569.13,-83.63 566.41,-82.8"/>
<polygon fill="#63b8ff" stroke="#63b8ff" points="567.36,-79.43 556.76,-79.53 565.11,-86.05 567.36,-79.43"/>
</a>
</g>
</g>
<!-- Node17&#45;&gt;Node10 -->
<g id="edge32_Node000017_Node000010" class="edge">
<title>Node17&#45;&gt;Node10</title>
<g id="a_edge32_Node000017_Node000010"><a xlink:title=" ">
<path fill="none" stroke="#63b8ff" d="M1078.7,-126.37C1081.02,-117.07 1084.8,-101.98 1087.82,-89.9"/>
<polygon fill="#63b8ff" stroke="#63b8ff" points="1091.29,-90.46 1090.31,-79.91 1084.49,-88.76 1091.29,-90.46"/>
</a>
</g>
</g>
<!-- Node17&#45;&gt;Node18 -->
<g id="edge29_Node000017_Node000018" class="edge">
<title>Node17&#45;&gt;Node18</title>
<g id="a_edge29_Node000017_Node000018"><a xlink:title=" ">
<path fill="none" stroke="#63b8ff" d="M1112.01,-126.44C1160.4,-114.75 1247.02,-93.83 1298.89,-81.3"/>
<polygon fill="#63b8ff" stroke="#63b8ff" points="1299.89,-84.66 1308.78,-78.91 1298.24,-77.86 1299.89,-84.66"/>
</a>
</g>
</g>
<!-- Node19 -->
<g id="Node000019" class="node">
<title>Node19</title>
<g id="a_Node000019"><a xlink:title=" ">
<polygon fill="#e0e0e0" stroke="#999999" points="1190.54,-79.5 1134.54,-79.5 1134.54,-60.5 1190.54,-60.5 1190.54,-79.5"/>
<text text-anchor="middle" x="1162.54" y="-67.5" font-family="Helvetica,sans-Serif" font-size="10.00">optional</text>
</a>
</g>
</g>
<!-- Node17&#45;&gt;Node19 -->
<g id="edge31_Node000017_Node000019" class="edge">
<title>Node17&#45;&gt;Node19</title>
<g id="a_edge31_Node000017_Node000019"><a xlink:title=" ">
<path fill="none" stroke="#63b8ff" d="M1088.14,-126.37C1102.12,-115.97 1125.83,-98.32 1142.72,-85.75"/>
<polygon fill="#63b8ff" stroke="#63b8ff" points="1144.92,-88.48 1150.85,-79.7 1140.74,-82.86 1144.92,-88.48"/>
</a>
</g>
</g>
<!-- Node20&#45;&gt;Node8 -->
<g id="edge39_Node000020_Node000008" class="edge">
<title>Node20&#45;&gt;Node8</title>
<g id="a_edge39_Node000020_Node000008"><a xlink:title=" ">
<path fill="none" stroke="#63b8ff" d="M402.26,-186.95C382.21,-177.66 355.73,-165.38 334.03,-155.32"/>
<polygon fill="#63b8ff" stroke="#63b8ff" points="335.3,-152.04 324.76,-151.01 332.35,-158.39 335.3,-152.04"/>
</a>
</g>
</g>
<!-- Node21&#45;&gt;Node12 -->
<g id="edge46_Node000021_Node000012" class="edge">
<title>Node21&#45;&gt;Node12</title>
<g id="a_edge46_Node000021_Node000012"><a xlink:title=" ">
<path fill="none" stroke="#63b8ff" d="M924.22,-252.8C920.2,-245.01 915.12,-235.16 910.54,-226.28"/>
<polygon fill="#63b8ff" stroke="#63b8ff" points="913.54,-224.45 905.84,-217.16 907.32,-227.66 913.54,-224.45"/>
</a>
</g>
</g>
<!-- Node21&#45;&gt;Node17 -->
<g id="edge47_Node000021_Node000017" class="edge">
<title>Node21&#45;&gt;Node17</title>
<g id="a_edge47_Node000021_Node000017"><a xlink:title=" ">
<path fill="none" stroke="#63b8ff" d="M947.33,-252.84C974.73,-228.28 1030.82,-177.99 1059.23,-152.52"/>
<polygon fill="#63b8ff" stroke="#63b8ff" points="1061.67,-155.03 1066.78,-145.75 1057,-149.82 1061.67,-155.03"/>
</a>
</g>
</g>
</g>
</svg>
