<?xml version="1.0" encoding="UTF-8" standalone="no"?>
<!DOCTYPE svg PUBLIC "-//W3C//DTD SVG 1.1//EN"
 "http://www.w3.org/Graphics/SVG/1.1/DTD/svg11.dtd">
<!-- Generated by graphviz version 2.43.0 (0)
 -->
<!-- Title: include/engine/public/components/colliders/box_collider_2d.h Pages: 1 -->
<svg width="1365pt" height="434pt"
 viewBox="0.00 0.00 1364.73 434.00" xmlns="http://www.w3.org/2000/svg" xmlns:xlink="http://www.w3.org/1999/xlink">
<g id="graph0" class="graph" transform="scale(1 1) rotate(0) translate(4 430)">
<title>include/engine/public/components/colliders/box_collider_2d.h</title>
<!-- Node1 -->
<g id="Node000001" class="node">
<title>Node1</title>
<g id="a_Node000001"><a xlink:title=" ">
<polygon fill="#999999" stroke="#666666" points="463.23,-426 339.23,-426 339.23,-385 463.23,-385 463.23,-426"/>
<text text-anchor="start" x="347.23" y="-414" font-family="Helvetica,sans-Serif" font-size="10.00">include/engine/public</text>
<text text-anchor="start" x="347.23" y="-403" font-family="Helvetica,sans-Serif" font-size="10.00">/components/colliders</text>
<text text-anchor="middle" x="401.23" y="-392" font-family="Helvetica,sans-Serif" font-size="10.00">/box_collider_2d.h</text>
</a>
</g>
</g>
<!-- Node2 -->
<g id="Node000002" class="node">
<title>Node2</title>
<g id="a_Node000002"><a xlink:href="collider__2d_8h.html" target="_top" xlink:title=" ">
<polygon fill="white" stroke="#666666" points="981.73,-349 836.73,-349 836.73,-319 981.73,-319 981.73,-349"/>
<text text-anchor="start" x="844.73" y="-337" font-family="Helvetica,sans-Serif" font-size="10.00">engine/public/components</text>
<text text-anchor="middle" x="909.23" y="-326" font-family="Helvetica,sans-Serif" font-size="10.00">/colliders/collider_2d.h</text>
</a>
</g>
</g>
<!-- Node1&#45;&gt;Node2 -->
<g id="edge1_Node000001_Node000002" class="edge">
<title>Node1&#45;&gt;Node2</title>
<g id="a_edge1_Node000001_Node000002"><a xlink:title=" ">
<path fill="none" stroke="#63b8ff" d="M463.27,-396.01C554.46,-383.54 724.86,-360.22 826.57,-346.31"/>
<polygon fill="#63b8ff" stroke="#63b8ff" points="827.07,-349.77 836.5,-344.95 826.12,-342.84 827.07,-349.77"/>
</a>
</g>
</g>
<!-- Node10 -->
<g id="Node000010" class="node">
<title>Node10</title>
<g id="a_Node000010"><a xlink:href="point_8h.html" target="_top" xlink:title=" ">
<polygon fill="white" stroke="#666666" points="260.73,-151 159.73,-151 159.73,-121 260.73,-121 260.73,-151"/>
<text text-anchor="start" x="167.73" y="-139" font-family="Helvetica,sans-Serif" font-size="10.00">engine/public/util</text>
<text text-anchor="middle" x="210.23" y="-128" font-family="Helvetica,sans-Serif" font-size="10.00">/point.h</text>
</a>
</g>
</g>
<!-- Node1&#45;&gt;Node10 -->
<g id="edge51_Node000001_Node000010" class="edge">
<title>Node1&#45;&gt;Node10</title>
<g id="a_edge51_Node000001_Node000010"><a xlink:title=" ">
<path fill="none" stroke="#63b8ff" d="M339.2,-395.64C248.01,-378.91 80.65,-333.25 7.23,-217 -27.81,-161.52 77.53,-144.49 149.3,-139.28"/>
<polygon fill="#63b8ff" stroke="#63b8ff" points="149.88,-142.75 159.63,-138.6 149.42,-135.77 149.88,-142.75"/>
</a>
</g>
</g>
<!-- Node3 -->
<g id="Node000003" class="node">
<title>Node3</title>
<g id="a_Node000003"><a xlink:title=" ">
<polygon fill="#e0e0e0" stroke="#999999" points="1356.73,-79.5 1291.73,-79.5 1291.73,-60.5 1356.73,-60.5 1356.73,-79.5"/>
<text text-anchor="middle" x="1324.23" y="-67.5" font-family="Helvetica,sans-Serif" font-size="10.00">functional</text>
</a>
</g>
</g>
<!-- Node2&#45;&gt;Node3 -->
<g id="edge2_Node000002_Node000003" class="edge">
<title>Node2&#45;&gt;Node3</title>
<g id="a_edge2_Node000002_Node000003"><a xlink:title=" ">
<path fill="none" stroke="#63b8ff" d="M981.82,-326.27C1058.83,-318.23 1174.73,-303.27 1214.23,-283 1288.06,-245.13 1314.48,-227.65 1346.23,-151 1354.9,-130.09 1344.63,-104.7 1335.41,-88.22"/>
<polygon fill="#63b8ff" stroke="#63b8ff" points="1338.41,-86.41 1330.26,-79.64 1332.41,-90.01 1338.41,-86.41"/>
</a>
</g>
</g>
<!-- Node4 -->
<g id="Node000004" class="node">
<title>Node4</title>
<g id="a_Node000004"><a xlink:title=" ">
<polygon fill="#e0e0e0" stroke="#999999" points="1074.73,-79.5 1027.73,-79.5 1027.73,-60.5 1074.73,-60.5 1074.73,-79.5"/>
<text text-anchor="middle" x="1051.23" y="-67.5" font-family="Helvetica,sans-Serif" font-size="10.00">vector</text>
</a>
</g>
</g>
<!-- Node2&#45;&gt;Node4 -->
<g id="edge3_Node000002_Node000004" class="edge">
<title>Node2&#45;&gt;Node4</title>
<g id="a_edge3_Node000002_Node000004"><a xlink:title=" ">
<path fill="none" stroke="#63b8ff" d="M947.46,-318.87C1005.7,-294.87 1113.82,-239.91 1151.23,-151 1156.4,-138.71 1158.24,-132.34 1151.23,-121 1147.13,-114.35 1108.62,-96.29 1080.62,-83.8"/>
<polygon fill="#63b8ff" stroke="#63b8ff" points="1081.79,-80.49 1071.23,-79.64 1078.95,-86.89 1081.79,-80.49"/>
</a>
</g>
</g>
<!-- Node5 -->
<g id="Node000005" class="node">
<title>Node5</title>
<g id="a_Node000005"><a xlink:href="physics__creation__flags_8h.html" target="_top" xlink:title=" ">
<polygon fill="white" stroke="#666666" points="1337.73,-151 1198.73,-151 1198.73,-121 1337.73,-121 1337.73,-151"/>
<text text-anchor="start" x="1206.73" y="-139" font-family="Helvetica,sans-Serif" font-size="10.00">engine/physics/creation</text>
<text text-anchor="middle" x="1268.23" y="-128" font-family="Helvetica,sans-Serif" font-size="10.00">/physics_creation_flags.h</text>
</a>
</g>
</g>
<!-- Node2&#45;&gt;Node5 -->
<g id="edge4_Node000002_Node000005" class="edge">
<title>Node2&#45;&gt;Node5</title>
<g id="a_edge4_Node000002_Node000005"><a xlink:title=" ">
<path fill="none" stroke="#63b8ff" d="M981.88,-326.72C1052.08,-319.44 1152.36,-305.48 1184.23,-283 1226.71,-253.04 1250.7,-194.29 1261.39,-161.18"/>
<polygon fill="#63b8ff" stroke="#63b8ff" points="1264.81,-161.99 1264.41,-151.4 1258.12,-159.93 1264.81,-161.99"/>
</a>
</g>
</g>
<!-- Node7 -->
<g id="Node000007" class="node">
<title>Node7</title>
<g id="a_Node000007"><a xlink:href="physics__raycaster_8h.html" target="_top" xlink:title=" ">
<polygon fill="white" stroke="#666666" points="420.23,-283 292.23,-283 292.23,-253 420.23,-253 420.23,-283"/>
<text text-anchor="start" x="300.23" y="-271" font-family="Helvetica,sans-Serif" font-size="10.00">engine/physics/raycast</text>
<text text-anchor="middle" x="356.23" y="-260" font-family="Helvetica,sans-Serif" font-size="10.00">/physics_raycaster.h</text>
</a>
</g>
</g>
<!-- Node2&#45;&gt;Node7 -->
<g id="edge6_Node000002_Node000007" class="edge">
<title>Node2&#45;&gt;Node7</title>
<g id="a_edge6_Node000002_Node000007"><a xlink:title=" ">
<path fill="none" stroke="#63b8ff" d="M836.65,-324.6C731.2,-312.4 536.62,-289.88 430.32,-277.57"/>
<polygon fill="#63b8ff" stroke="#63b8ff" points="430.65,-274.09 420.32,-276.42 429.85,-281.04 430.65,-274.09"/>
</a>
</g>
</g>
<!-- Node2&#45;&gt;Node10 -->
<g id="edge50_Node000002_Node000010" class="edge">
<title>Node2&#45;&gt;Node10</title>
<g id="a_edge50_Node000002_Node000010"><a xlink:title=" ">
<path fill="none" stroke="#63b8ff" d="M836.69,-333.07C693.69,-332.26 380.81,-325.51 283.23,-283 243.43,-265.66 228.96,-256.63 211.23,-217 203.37,-199.42 203.73,-177.42 205.71,-160.94"/>
<polygon fill="#63b8ff" stroke="#63b8ff" points="209.18,-161.42 207.18,-151.01 202.26,-160.4 209.18,-161.42"/>
</a>
</g>
</g>
<!-- Node12 -->
<g id="Node000012" class="node">
<title>Node12</title>
<g id="a_Node000012"><a xlink:href="physics__world_8h.html" target="_top" xlink:title=" ">
<polygon fill="white" stroke="#666666" points="659.73,-283 540.73,-283 540.73,-253 659.73,-253 659.73,-283"/>
<text text-anchor="start" x="548.73" y="-271" font-family="Helvetica,sans-Serif" font-size="10.00">engine/physics/world</text>
<text text-anchor="middle" x="600.23" y="-260" font-family="Helvetica,sans-Serif" font-size="10.00">/physics_world.h</text>
</a>
</g>
</g>
<!-- Node2&#45;&gt;Node12 -->
<g id="edge14_Node000002_Node000012" class="edge">
<title>Node2&#45;&gt;Node12</title>
<g id="a_edge14_Node000002_Node000012"><a xlink:title=" ">
<path fill="none" stroke="#63b8ff" d="M841.42,-318.95C790.54,-308.42 721.11,-294.04 669.81,-283.41"/>
<polygon fill="#63b8ff" stroke="#63b8ff" points="670.3,-279.94 659.8,-281.34 668.88,-286.79 670.3,-279.94"/>
</a>
</g>
</g>
<!-- Node18 -->
<g id="Node000018" class="node">
<title>Node18</title>
<g id="a_Node000018"><a xlink:href="component_8h.html" target="_top" xlink:title=" ">
<polygon fill="white" stroke="#666666" points="1142.73,-145.5 993.73,-145.5 993.73,-126.5 1142.73,-126.5 1142.73,-145.5"/>
<text text-anchor="middle" x="1068.23" y="-133.5" font-family="Helvetica,sans-Serif" font-size="10.00">engine/public/component.h</text>
</a>
</g>
</g>
<!-- Node2&#45;&gt;Node18 -->
<g id="edge46_Node000002_Node000018" class="edge">
<title>Node2&#45;&gt;Node18</title>
<g id="a_edge46_Node000002_Node000018"><a xlink:title=" ">
<path fill="none" stroke="#63b8ff" d="M940.05,-318.95C956.45,-310.33 976.09,-298.06 990.23,-283 1026.86,-244.01 1051.46,-184.53 1062.16,-154.97"/>
<polygon fill="#63b8ff" stroke="#63b8ff" points="1065.47,-156.12 1065.47,-145.53 1058.86,-153.81 1065.47,-156.12"/>
</a>
</g>
</g>
<!-- Node21 -->
<g id="Node000021" class="node">
<title>Node21</title>
<g id="a_Node000021"><a xlink:href="rigidbody__2d_8h.html" target="_top" xlink:title=" ">
<polygon fill="white" stroke="#666666" points="981.73,-283 836.73,-283 836.73,-253 981.73,-253 981.73,-283"/>
<text text-anchor="start" x="844.73" y="-271" font-family="Helvetica,sans-Serif" font-size="10.00">engine/public/components</text>
<text text-anchor="middle" x="909.23" y="-260" font-family="Helvetica,sans-Serif" font-size="10.00">/rigidbody_2d.h</text>
</a>
</g>
</g>
<!-- Node2&#45;&gt;Node21 -->
<g id="edge47_Node000002_Node000021" class="edge">
<title>Node2&#45;&gt;Node21</title>
<g id="a_edge47_Node000002_Node000021"><a xlink:title=" ">
<path fill="none" stroke="#63b8ff" d="M909.23,-318.8C909.23,-311.34 909.23,-301.99 909.23,-293.41"/>
<polygon fill="#63b8ff" stroke="#63b8ff" points="912.73,-293.16 909.23,-283.16 905.73,-293.16 912.73,-293.16"/>
</a>
</g>
</g>
<!-- Node6 -->
<g id="Node000006" class="node">
<title>Node6</title>
<g id="a_Node000006"><a xlink:title=" ">
<polygon fill="#e0e0e0" stroke="#999999" points="972.23,-19 922.23,-19 922.23,0 972.23,0 972.23,-19"/>
<text text-anchor="middle" x="947.23" y="-7" font-family="Helvetica,sans-Serif" font-size="10.00">cstdint</text>
</a>
</g>
</g>
<!-- Node5&#45;&gt;Node6 -->
<g id="edge5_Node000005_Node000006" class="edge">
<title>Node5&#45;&gt;Node6</title>
<g id="a_edge5_Node000005_Node000006"><a xlink:title=" ">
<path fill="none" stroke="#63b8ff" d="M1253.16,-120.77C1233.1,-102.65 1195.78,-71.69 1158.23,-55 1099.77,-29.01 1025.32,-17.89 982.29,-13.37"/>
<polygon fill="#63b8ff" stroke="#63b8ff" points="982.61,-9.88 972.32,-12.38 981.92,-16.85 982.61,-9.88"/>
</a>
</g>
</g>
<!-- Node7&#45;&gt;Node4 -->
<g id="edge9_Node000007_Node000004" class="edge">
<title>Node7&#45;&gt;Node4</title>
<g id="a_edge9_Node000007_Node000004"><a xlink:title=" ">
<path fill="none" stroke="#63b8ff" d="M420.28,-261.87C569.85,-249.85 929.93,-220.57 935.23,-217 974.97,-190.25 953.34,-157.61 984.23,-121 996.36,-106.62 1013.38,-93.99 1027.24,-85.01"/>
<polygon fill="#63b8ff" stroke="#63b8ff" points="1029.17,-87.93 1035.8,-79.67 1025.46,-82 1029.17,-87.93"/>
</a>
</g>
</g>
<!-- Node8 -->
<g id="Node000008" class="node">
<title>Node8</title>
<g id="a_Node000008"><a xlink:title=" ">
<polygon fill="#e0e0e0" stroke="#999999" points="715.73,-19 626.73,-19 626.73,0 715.73,0 715.73,-19"/>
<text text-anchor="middle" x="671.23" y="-7" font-family="Helvetica,sans-Serif" font-size="10.00">box2d/box2d.h</text>
</a>
</g>
</g>
<!-- Node7&#45;&gt;Node8 -->
<g id="edge7_Node000007_Node000008" class="edge">
<title>Node7&#45;&gt;Node8</title>
<g id="a_edge7_Node000007_Node000008"><a xlink:title=" ">
<path fill="none" stroke="#63b8ff" d="M292.14,-267.41C201.64,-266.45 43.37,-258.68 7.23,-217 -1.5,-206.93 0.78,-198.67 7.23,-187 61.1,-89.52 114.64,-90.4 220.23,-55 292.36,-30.82 512.82,-17.78 616.39,-12.85"/>
<polygon fill="#63b8ff" stroke="#63b8ff" points="616.82,-16.33 626.64,-12.37 616.49,-9.34 616.82,-16.33"/>
</a>
</g>
</g>
<!-- Node9 -->
<g id="Node000009" class="node">
<title>Node9</title>
<g id="a_Node000009"><a xlink:title=" ">
<polygon fill="#e0e0e0" stroke="#999999" points="643.23,-79.5 585.23,-79.5 585.23,-60.5 643.23,-60.5 643.23,-79.5"/>
<text text-anchor="middle" x="614.23" y="-67.5" font-family="Helvetica,sans-Serif" font-size="10.00">memory</text>
</a>
</g>
</g>
<!-- Node7&#45;&gt;Node9 -->
<g id="edge8_Node000007_Node000009" class="edge">
<title>Node7&#45;&gt;Node9</title>
<g id="a_edge8_Node000007_Node000009"><a xlink:title=" ">
<path fill="none" stroke="#63b8ff" d="M374.79,-252.9C422.1,-216.96 546.91,-122.15 594.98,-85.63"/>
<polygon fill="#63b8ff" stroke="#63b8ff" points="597.18,-88.35 603.03,-79.51 592.95,-82.78 597.18,-88.35"/>
</a>
</g>
</g>
<!-- Node7&#45;&gt;Node10 -->
<g id="edge10_Node000007_Node000010" class="edge">
<title>Node7&#45;&gt;Node10</title>
<g id="a_edge10_Node000007_Node000010"><a xlink:title=" ">
<path fill="none" stroke="#63b8ff" d="M292.16,-254.74C269.37,-247.36 245.38,-235.62 229.23,-217 215.91,-201.64 211.53,-178.61 210.27,-161.19"/>
<polygon fill="#63b8ff" stroke="#63b8ff" points="213.76,-161.03 209.83,-151.2 206.77,-161.34 213.76,-161.03"/>
</a>
</g>
</g>
<!-- Node11 -->
<g id="Node000011" class="node">
<title>Node11</title>
<g id="a_Node000011"><a xlink:href="collider__ray__result_8h.html" target="_top" xlink:title=" ">
<polygon fill="white" stroke="#666666" points="144.23,-217 16.23,-217 16.23,-187 144.23,-187 144.23,-217"/>
<text text-anchor="start" x="24.23" y="-205" font-family="Helvetica,sans-Serif" font-size="10.00">engine/physics/raycast</text>
<text text-anchor="middle" x="80.23" y="-194" font-family="Helvetica,sans-Serif" font-size="10.00">/collider_ray_result.h</text>
</a>
</g>
</g>
<!-- Node7&#45;&gt;Node11 -->
<g id="edge11_Node000007_Node000011" class="edge">
<title>Node7&#45;&gt;Node11</title>
<g id="a_edge11_Node000007_Node000011"><a xlink:title=" ">
<path fill="none" stroke="#63b8ff" d="M295.66,-252.95C252.88,-243.03 195.42,-229.71 150.6,-219.32"/>
<polygon fill="#63b8ff" stroke="#63b8ff" points="151.19,-215.86 140.66,-217.01 149.61,-222.68 151.19,-215.86"/>
</a>
</g>
</g>
<!-- Node11&#45;&gt;Node8 -->
<g id="edge12_Node000011_Node000008" class="edge">
<title>Node11&#45;&gt;Node8</title>
<g id="a_edge12_Node000011_Node000008"><a xlink:title=" ">
<path fill="none" stroke="#63b8ff" d="M88.72,-186.75C100.3,-168.62 122.77,-137.64 150.23,-121 301.09,-29.63 516.39,-13.07 616.35,-10.57"/>
<polygon fill="#63b8ff" stroke="#63b8ff" points="616.59,-14.06 626.52,-10.35 616.45,-7.07 616.59,-14.06"/>
</a>
</g>
</g>
<!-- Node11&#45;&gt;Node10 -->
<g id="edge13_Node000011_Node000010" class="edge">
<title>Node11&#45;&gt;Node10</title>
<g id="a_edge13_Node000011_Node000010"><a xlink:title=" ">
<path fill="none" stroke="#63b8ff" d="M108.76,-186.95C127.56,-177.7 152.37,-165.49 172.75,-155.45"/>
<polygon fill="#63b8ff" stroke="#63b8ff" points="174.34,-158.57 181.77,-151.01 171.25,-152.29 174.34,-158.57"/>
</a>
</g>
</g>
<!-- Node12&#45;&gt;Node8 -->
<g id="edge15_Node000012_Node000008" class="edge">
<title>Node12&#45;&gt;Node8</title>
<g id="a_edge15_Node000012_Node000008"><a xlink:title=" ">
<path fill="none" stroke="#63b8ff" d="M577.34,-252.77C523.78,-217.76 399.06,-125.21 456.23,-55 476.06,-30.65 559.41,-19.21 616.31,-14.15"/>
<polygon fill="#63b8ff" stroke="#63b8ff" points="616.94,-17.61 626.61,-13.28 616.35,-10.64 616.94,-17.61"/>
</a>
</g>
</g>
<!-- Node12&#45;&gt;Node9 -->
<g id="edge16_Node000012_Node000009" class="edge">
<title>Node12&#45;&gt;Node9</title>
<g id="a_edge16_Node000012_Node000009"><a xlink:title=" ">
<path fill="none" stroke="#63b8ff" d="M601.24,-252.9C603.72,-218.23 610.11,-128.79 612.9,-89.72"/>
<polygon fill="#63b8ff" stroke="#63b8ff" points="616.39,-89.95 613.61,-79.73 609.41,-89.45 616.39,-89.95"/>
</a>
</g>
</g>
<!-- Node12&#45;&gt;Node10 -->
<g id="edge45_Node000012_Node000010" class="edge">
<title>Node12&#45;&gt;Node10</title>
<g id="a_edge45_Node000012_Node000010"><a xlink:title=" ">
<path fill="none" stroke="#63b8ff" d="M564.52,-252.93C513.86,-233.06 423.59,-197.96 390.23,-187 350.97,-174.1 306.2,-161.65 271.13,-152.41"/>
<polygon fill="#63b8ff" stroke="#63b8ff" points="271.6,-148.91 261.04,-149.76 269.83,-155.68 271.6,-148.91"/>
</a>
</g>
</g>
<!-- Node13 -->
<g id="Node000013" class="node">
<title>Node13</title>
<g id="a_Node000013"><a xlink:href="physics__creation__factory_8h.html" target="_top" xlink:title=" ">
<polygon fill="white" stroke="#666666" points="926.73,-217 777.73,-217 777.73,-187 926.73,-187 926.73,-217"/>
<text text-anchor="start" x="785.73" y="-205" font-family="Helvetica,sans-Serif" font-size="10.00">engine/physics/creation</text>
<text text-anchor="middle" x="852.23" y="-194" font-family="Helvetica,sans-Serif" font-size="10.00">/physics_creation_factory.h</text>
</a>
</g>
</g>
<!-- Node12&#45;&gt;Node13 -->
<g id="edge17_Node000012_Node000013" class="edge">
<title>Node12&#45;&gt;Node13</title>
<g id="a_edge17_Node000012_Node000013"><a xlink:title=" ">
<path fill="none" stroke="#63b8ff" d="M655.54,-252.95C694.35,-243.1 746.4,-229.88 787.21,-219.51"/>
<polygon fill="#63b8ff" stroke="#63b8ff" points="788.23,-222.87 797.06,-217.01 786.51,-216.08 788.23,-222.87"/>
</a>
</g>
</g>
<!-- Node15 -->
<g id="Node000015" class="node">
<title>Node15</title>
<g id="a_Node000015"><a xlink:href="body__2d_8h.html" target="_top" xlink:title=" ">
<polygon fill="white" stroke="#666666" points="823.73,-151 704.73,-151 704.73,-121 823.73,-121 823.73,-151"/>
<text text-anchor="start" x="712.73" y="-139" font-family="Helvetica,sans-Serif" font-size="10.00">engine/physics/world</text>
<text text-anchor="middle" x="764.23" y="-128" font-family="Helvetica,sans-Serif" font-size="10.00">/body/body_2d.h</text>
</a>
</g>
</g>
<!-- Node12&#45;&gt;Node15 -->
<g id="edge40_Node000012_Node000015" class="edge">
<title>Node12&#45;&gt;Node15</title>
<g id="a_edge40_Node000012_Node000015"><a xlink:title=" ">
<path fill="none" stroke="#63b8ff" d="M618.1,-252.84C647.18,-229.79 704.88,-184.05 738.42,-157.46"/>
<polygon fill="#63b8ff" stroke="#63b8ff" points="740.73,-160.1 746.39,-151.14 736.38,-154.61 740.73,-160.1"/>
</a>
</g>
</g>
<!-- Node16 -->
<g id="Node000016" class="node">
<title>Node16</title>
<g id="a_Node000016"><a xlink:href="shape__type__2d_8h.html" target="_top" xlink:title=" ">
<polygon fill="white" stroke="#666666" points="828.73,-85 699.73,-85 699.73,-55 828.73,-55 828.73,-85"/>
<text text-anchor="start" x="707.73" y="-73" font-family="Helvetica,sans-Serif" font-size="10.00">engine/physics/world</text>
<text text-anchor="middle" x="764.23" y="-62" font-family="Helvetica,sans-Serif" font-size="10.00">/body/shape_type_2d.h</text>
</a>
</g>
</g>
<!-- Node12&#45;&gt;Node16 -->
<g id="edge41_Node000012_Node000016" class="edge">
<title>Node12&#45;&gt;Node16</title>
<g id="a_edge41_Node000012_Node000016"><a xlink:title=" ">
<path fill="none" stroke="#63b8ff" d="M607.14,-252.94C621.09,-225.44 654.8,-163.51 695.23,-121 705.98,-109.7 719.58,-99.23 731.85,-90.82"/>
<polygon fill="#63b8ff" stroke="#63b8ff" points="734.1,-93.52 740.5,-85.08 730.23,-87.69 734.1,-93.52"/>
</a>
</g>
</g>
<!-- Node17 -->
<g id="Node000017" class="node">
<title>Node17</title>
<g id="a_Node000017"><a xlink:href="vector3_8h.html" target="_top" xlink:title=" ">
<polygon fill="white" stroke="#666666" points="566.73,-85 465.73,-85 465.73,-55 566.73,-55 566.73,-85"/>
<text text-anchor="start" x="473.73" y="-73" font-family="Helvetica,sans-Serif" font-size="10.00">engine/public/util</text>
<text text-anchor="middle" x="516.23" y="-62" font-family="Helvetica,sans-Serif" font-size="10.00">/vector3.h</text>
</a>
</g>
</g>
<!-- Node12&#45;&gt;Node17 -->
<g id="edge44_Node000012_Node000017" class="edge">
<title>Node12&#45;&gt;Node17</title>
<g id="a_edge44_Node000012_Node000017"><a xlink:title=" ">
<path fill="none" stroke="#63b8ff" d="M594.19,-252.9C579.91,-219.58 543.94,-135.64 526.3,-94.49"/>
<polygon fill="#63b8ff" stroke="#63b8ff" points="529.49,-93.04 522.33,-85.23 523.05,-95.8 529.49,-93.04"/>
</a>
</g>
</g>
<!-- Node20 -->
<g id="Node000020" class="node">
<title>Node20</title>
<g id="a_Node000020"><a xlink:href="body__distance__2d_8h.html" target="_top" xlink:title=" ">
<polygon fill="white" stroke="#666666" points="381.73,-217 238.73,-217 238.73,-187 381.73,-187 381.73,-217"/>
<text text-anchor="start" x="246.73" y="-205" font-family="Helvetica,sans-Serif" font-size="10.00">engine/physics/world</text>
<text text-anchor="middle" x="310.23" y="-194" font-family="Helvetica,sans-Serif" font-size="10.00">/body/body_distance_2d.h</text>
</a>
</g>
</g>
<!-- Node12&#45;&gt;Node20 -->
<g id="edge42_Node000012_Node000020" class="edge">
<title>Node12&#45;&gt;Node20</title>
<g id="a_edge42_Node000012_Node000020"><a xlink:title=" ">
<path fill="none" stroke="#63b8ff" d="M540.5,-253.82C495.05,-243.79 432.26,-229.93 383.73,-219.22"/>
<polygon fill="#63b8ff" stroke="#63b8ff" points="384.43,-215.79 373.91,-217.05 382.92,-222.63 384.43,-215.79"/>
</a>
</g>
</g>
<!-- Node13&#45;&gt;Node4 -->
<g id="edge20_Node000013_Node000004" class="edge">
<title>Node13&#45;&gt;Node4</title>
<g id="a_edge20_Node000013_Node000004"><a xlink:title=" ">
<path fill="none" stroke="#63b8ff" d="M869.6,-186.95C897.07,-164.76 947.88,-123.79 952.23,-121 974.65,-106.6 1001.75,-93.16 1021.93,-83.85"/>
<polygon fill="#63b8ff" stroke="#63b8ff" points="1023.57,-86.95 1031.23,-79.62 1020.67,-80.57 1023.57,-86.95"/>
</a>
</g>
</g>
<!-- Node13&#45;&gt;Node5 -->
<g id="edge21_Node000013_Node000005" class="edge">
<title>Node13&#45;&gt;Node5</title>
<g id="a_edge21_Node000013_Node000005"><a xlink:title=" ">
<path fill="none" stroke="#63b8ff" d="M927.09,-189.48C1000.85,-178.14 1113.16,-160.86 1188.56,-149.26"/>
<polygon fill="#63b8ff" stroke="#63b8ff" points="1189.13,-152.71 1198.48,-147.73 1188.06,-145.79 1189.13,-152.71"/>
</a>
</g>
</g>
<!-- Node13&#45;&gt;Node8 -->
<g id="edge18_Node000013_Node000008" class="edge">
<title>Node13&#45;&gt;Node8</title>
<g id="a_edge18_Node000013_Node000008"><a xlink:title=" ">
<path fill="none" stroke="#63b8ff" d="M855.48,-186.96C861.21,-158.4 869.62,-93.02 837.23,-55 822.77,-38.02 768.58,-25.7 726,-18.38"/>
<polygon fill="#63b8ff" stroke="#63b8ff" points="726.44,-14.91 716.01,-16.72 725.3,-21.81 726.44,-14.91"/>
</a>
</g>
</g>
<!-- Node13&#45;&gt;Node9 -->
<g id="edge19_Node000013_Node000009" class="edge">
<title>Node13&#45;&gt;Node9</title>
<g id="a_edge19_Node000013_Node000009"><a xlink:title=" ">
<path fill="none" stroke="#63b8ff" d="M784.73,-186.96C755.83,-179.11 722.53,-167.5 695.23,-151 667.32,-134.13 641.74,-105.77 627.08,-87.74"/>
<polygon fill="#63b8ff" stroke="#63b8ff" points="629.76,-85.48 620.8,-79.82 624.27,-89.83 629.76,-85.48"/>
</a>
</g>
</g>
<!-- Node13&#45;&gt;Node10 -->
<g id="edge38_Node000013_Node000010" class="edge">
<title>Node13&#45;&gt;Node10</title>
<g id="a_edge38_Node000013_Node000010"><a xlink:title=" ">
<path fill="none" stroke="#63b8ff" d="M777.65,-193.56C649.35,-180.77 389.32,-154.85 271.14,-143.07"/>
<polygon fill="#63b8ff" stroke="#63b8ff" points="271.13,-139.55 260.84,-142.04 270.44,-146.52 271.13,-139.55"/>
</a>
</g>
</g>
<!-- Node14 -->
<g id="Node000014" class="node">
<title>Node14</title>
<g id="a_Node000014"><a xlink:href="body__type__2d_8h.html" target="_top" xlink:title=" ">
<polygon fill="white" stroke="#666666" points="1009.23,-85 885.23,-85 885.23,-55 1009.23,-55 1009.23,-85"/>
<text text-anchor="start" x="893.23" y="-73" font-family="Helvetica,sans-Serif" font-size="10.00">engine/physics/world</text>
<text text-anchor="middle" x="947.23" y="-62" font-family="Helvetica,sans-Serif" font-size="10.00">/body/body_type_2d.h</text>
</a>
</g>
</g>
<!-- Node13&#45;&gt;Node14 -->
<g id="edge22_Node000013_Node000014" class="edge">
<title>Node13&#45;&gt;Node14</title>
<g id="a_edge22_Node000013_Node000014"><a xlink:title=" ">
<path fill="none" stroke="#63b8ff" d="M862.58,-186.84C879,-164.37 911.16,-120.36 930.77,-93.53"/>
<polygon fill="#63b8ff" stroke="#63b8ff" points="933.82,-95.28 936.9,-85.14 928.17,-91.15 933.82,-95.28"/>
</a>
</g>
</g>
<!-- Node13&#45;&gt;Node15 -->
<g id="edge25_Node000013_Node000015" class="edge">
<title>Node13&#45;&gt;Node15</title>
<g id="a_edge25_Node000013_Node000015"><a xlink:title=" ">
<path fill="none" stroke="#63b8ff" d="M832.7,-186.8C820.74,-178.1 805.24,-166.82 792.01,-157.2"/>
<polygon fill="#63b8ff" stroke="#63b8ff" points="793.85,-154.22 783.71,-151.16 789.74,-159.88 793.85,-154.22"/>
</a>
</g>
</g>
<!-- Node13&#45;&gt;Node17 -->
<g id="edge39_Node000013_Node000017" class="edge">
<title>Node13&#45;&gt;Node17</title>
<g id="a_edge39_Node000013_Node000017"><a xlink:title=" ">
<path fill="none" stroke="#63b8ff" d="M777.73,-187.14C740.21,-178.9 694.47,-166.92 655.23,-151 615.13,-134.73 572.49,-108.73 545.17,-90.81"/>
<polygon fill="#63b8ff" stroke="#63b8ff" points="546.78,-87.68 536.52,-85.06 542.91,-93.51 546.78,-87.68"/>
</a>
</g>
</g>
<!-- Node13&#45;&gt;Node18 -->
<g id="edge33_Node000013_Node000018" class="edge">
<title>Node13&#45;&gt;Node18</title>
<g id="a_edge33_Node000013_Node000018"><a xlink:title=" ">
<path fill="none" stroke="#63b8ff" d="M899.64,-186.95C938.68,-175.38 993.36,-159.18 1029.74,-148.41"/>
<polygon fill="#63b8ff" stroke="#63b8ff" points="1030.89,-151.71 1039.49,-145.52 1028.9,-145 1030.89,-151.71"/>
</a>
</g>
</g>
<!-- Node14&#45;&gt;Node6 -->
<g id="edge24_Node000014_Node000006" class="edge">
<title>Node14&#45;&gt;Node6</title>
<g id="a_edge24_Node000014_Node000006"><a xlink:title=" ">
<path fill="none" stroke="#63b8ff" d="M947.23,-54.84C947.23,-47.21 947.23,-37.7 947.23,-29.45"/>
<polygon fill="#63b8ff" stroke="#63b8ff" points="950.73,-29.27 947.23,-19.27 943.73,-29.27 950.73,-29.27"/>
</a>
</g>
</g>
<!-- Node14&#45;&gt;Node8 -->
<g id="edge23_Node000014_Node000008" class="edge">
<title>Node14&#45;&gt;Node8</title>
<g id="a_edge23_Node000014_Node000008"><a xlink:title=" ">
<path fill="none" stroke="#63b8ff" d="M884.95,-55.8C835.58,-45.33 767.49,-30.9 721.54,-21.16"/>
<polygon fill="#63b8ff" stroke="#63b8ff" points="722.02,-17.69 711.51,-19.04 720.57,-24.53 722.02,-17.69"/>
</a>
</g>
</g>
<!-- Node15&#45;&gt;Node4 -->
<g id="edge27_Node000015_Node000004" class="edge">
<title>Node15&#45;&gt;Node4</title>
<g id="a_edge27_Node000015_Node000004"><a xlink:title=" ">
<path fill="none" stroke="#63b8ff" d="M823.86,-126.83C875.88,-118.87 953.03,-105.01 1018.23,-85 1019.91,-84.49 1021.62,-83.91 1023.33,-83.31"/>
<polygon fill="#63b8ff" stroke="#63b8ff" points="1024.94,-86.43 1032.98,-79.54 1022.39,-79.91 1024.94,-86.43"/>
</a>
</g>
</g>
<!-- Node15&#45;&gt;Node8 -->
<g id="edge26_Node000015_Node000008" class="edge">
<title>Node15&#45;&gt;Node8</title>
<g id="a_edge26_Node000015_Node000008"><a xlink:title=" ">
<path fill="none" stroke="#63b8ff" d="M733.58,-120.96C718.43,-112.55 701.12,-100.47 690.23,-85 678.61,-68.49 674.09,-45.47 672.34,-29.41"/>
<polygon fill="#63b8ff" stroke="#63b8ff" points="675.8,-28.81 671.49,-19.13 668.82,-29.39 675.8,-28.81"/>
</a>
</g>
</g>
<!-- Node15&#45;&gt;Node14 -->
<g id="edge31_Node000015_Node000014" class="edge">
<title>Node15&#45;&gt;Node14</title>
<g id="a_edge31_Node000015_Node000014"><a xlink:title=" ">
<path fill="none" stroke="#63b8ff" d="M804.39,-120.95C831.81,-111.37 868.31,-98.6 897.55,-88.37"/>
<polygon fill="#63b8ff" stroke="#63b8ff" points="898.88,-91.62 907.17,-85.01 896.57,-85.01 898.88,-91.62"/>
</a>
</g>
</g>
<!-- Node15&#45;&gt;Node16 -->
<g id="edge28_Node000015_Node000016" class="edge">
<title>Node15&#45;&gt;Node16</title>
<g id="a_edge28_Node000015_Node000016"><a xlink:title=" ">
<path fill="none" stroke="#63b8ff" d="M764.23,-120.8C764.23,-113.34 764.23,-103.99 764.23,-95.41"/>
<polygon fill="#63b8ff" stroke="#63b8ff" points="767.73,-95.16 764.23,-85.16 760.73,-95.16 767.73,-95.16"/>
</a>
</g>
</g>
<!-- Node15&#45;&gt;Node17 -->
<g id="edge32_Node000015_Node000017" class="edge">
<title>Node15&#45;&gt;Node17</title>
<g id="a_edge32_Node000015_Node000017"><a xlink:title=" ">
<path fill="none" stroke="#63b8ff" d="M709.81,-120.95C670.56,-110.83 617.55,-97.15 576.93,-86.66"/>
<polygon fill="#63b8ff" stroke="#63b8ff" points="577.7,-83.25 567.15,-84.14 575.96,-90.03 577.7,-83.25"/>
</a>
</g>
</g>
<!-- Node16&#45;&gt;Node6 -->
<g id="edge30_Node000016_Node000006" class="edge">
<title>Node16&#45;&gt;Node6</title>
<g id="a_edge30_Node000016_Node000006"><a xlink:title=" ">
<path fill="none" stroke="#63b8ff" d="M808.07,-54.99C839.94,-44.8 882.53,-31.18 912.16,-21.71"/>
<polygon fill="#63b8ff" stroke="#63b8ff" points="913.6,-24.93 922.06,-18.55 911.47,-18.26 913.6,-24.93"/>
</a>
</g>
</g>
<!-- Node16&#45;&gt;Node8 -->
<g id="edge29_Node000016_Node000008" class="edge">
<title>Node16&#45;&gt;Node8</title>
<g id="a_edge29_Node000016_Node000008"><a xlink:title=" ">
<path fill="none" stroke="#63b8ff" d="M741.72,-54.84C727.17,-45.68 708.3,-33.82 693.75,-24.66"/>
<polygon fill="#63b8ff" stroke="#63b8ff" points="695.22,-21.46 684.9,-19.09 691.5,-27.38 695.22,-21.46"/>
</a>
</g>
</g>
<!-- Node18&#45;&gt;Node3 -->
<g id="edge34_Node000018_Node000003" class="edge">
<title>Node18&#45;&gt;Node3</title>
<g id="a_edge34_Node000018_Node000003"><a xlink:title=" ">
<path fill="none" stroke="#63b8ff" d="M1102.49,-126.44C1148.76,-114.87 1231.21,-94.26 1281.48,-81.69"/>
<polygon fill="#63b8ff" stroke="#63b8ff" points="1282.54,-85.03 1291.39,-79.21 1280.84,-78.24 1282.54,-85.03"/>
</a>
</g>
</g>
<!-- Node18&#45;&gt;Node4 -->
<g id="edge37_Node000018_Node000004" class="edge">
<title>Node18&#45;&gt;Node4</title>
<g id="a_edge37_Node000018_Node000004"><a xlink:title=" ">
<path fill="none" stroke="#63b8ff" d="M1065.94,-126.37C1063.47,-117.07 1059.46,-101.98 1056.25,-89.9"/>
<polygon fill="#63b8ff" stroke="#63b8ff" points="1059.55,-88.67 1053.6,-79.91 1052.78,-90.47 1059.55,-88.67"/>
</a>
</g>
</g>
<!-- Node18&#45;&gt;Node9 -->
<g id="edge35_Node000018_Node000009" class="edge">
<title>Node18&#45;&gt;Node9</title>
<g id="a_edge35_Node000018_Node000009"><a xlink:title=" ">
<path fill="none" stroke="#63b8ff" d="M995.26,-126.46C919.01,-117.28 795.99,-101.72 690.23,-85 678.24,-83.1 665.23,-80.8 653.42,-78.61"/>
<polygon fill="#63b8ff" stroke="#63b8ff" points="653.88,-75.14 643.41,-76.73 652.59,-82.02 653.88,-75.14"/>
</a>
</g>
</g>
<!-- Node19 -->
<g id="Node000019" class="node">
<title>Node19</title>
<g id="a_Node000019"><a xlink:title=" ">
<polygon fill="#e0e0e0" stroke="#999999" points="1149.23,-79.5 1093.23,-79.5 1093.23,-60.5 1149.23,-60.5 1149.23,-79.5"/>
<text text-anchor="middle" x="1121.23" y="-67.5" font-family="Helvetica,sans-Serif" font-size="10.00">optional</text>
</a>
</g>
</g>
<!-- Node18&#45;&gt;Node19 -->
<g id="edge36_Node000018_Node000019" class="edge">
<title>Node18&#45;&gt;Node19</title>
<g id="a_edge36_Node000018_Node000019"><a xlink:title=" ">
<path fill="none" stroke="#63b8ff" d="M1075.38,-126.37C1083.55,-116.5 1097.13,-100.11 1107.39,-87.72"/>
<polygon fill="#63b8ff" stroke="#63b8ff" points="1110.18,-89.84 1113.86,-79.91 1104.78,-85.37 1110.18,-89.84"/>
</a>
</g>
</g>
<!-- Node20&#45;&gt;Node10 -->
<g id="edge43_Node000020_Node000010" class="edge">
<title>Node20&#45;&gt;Node10</title>
<g id="a_edge43_Node000020_Node000010"><a xlink:title=" ">
<path fill="none" stroke="#63b8ff" d="M288.04,-186.8C274.19,-177.93 256.16,-166.39 240.94,-156.66"/>
<polygon fill="#63b8ff" stroke="#63b8ff" points="242.67,-153.61 232.36,-151.16 238.9,-159.5 242.67,-153.61"/>
</a>
</g>
</g>
<!-- Node21&#45;&gt;Node13 -->
<g id="edge48_Node000021_Node000013" class="edge">
<title>Node21&#45;&gt;Node13</title>
<g id="a_edge48_Node000021_Node000013"><a xlink:title=" ">
<path fill="none" stroke="#63b8ff" d="M896.58,-252.8C889.28,-244.59 879.93,-234.1 871.71,-224.87"/>
<polygon fill="#63b8ff" stroke="#63b8ff" points="874.11,-222.3 864.85,-217.16 868.89,-226.96 874.11,-222.3"/>
</a>
</g>
</g>
<!-- Node21&#45;&gt;Node18 -->
<g id="edge49_Node000021_Node000018" class="edge">
<title>Node21&#45;&gt;Node18</title>
<g id="a_edge49_Node000021_Node000018"><a xlink:title=" ">
<path fill="none" stroke="#63b8ff" d="M930.86,-252.79C945.2,-243.13 964.23,-229.82 980.23,-217 1006.26,-196.14 1034.49,-169.74 1051.77,-153.11"/>
<polygon fill="#63b8ff" stroke="#63b8ff" points="1054.57,-155.27 1059.32,-145.8 1049.7,-150.24 1054.57,-155.27"/>
</a>
</g>
</g>
</g>
</svg>
