<?xml version="1.0" encoding="UTF-8" standalone="no"?>
<!DOCTYPE svg PUBLIC "-//W3C//DTD SVG 1.1//EN"
 "http://www.w3.org/Graphics/SVG/1.1/DTD/svg11.dtd">
<!-- Generated by graphviz version 2.43.0 (0)
 -->
<!-- Title: IEngineService Pages: 1 -->
<svg width="594pt" height="82pt"
 viewBox="0.00 0.00 594.00 82.00" xmlns="http://www.w3.org/2000/svg" xmlns:xlink="http://www.w3.org/1999/xlink">
<g id="graph0" class="graph" transform="scale(1 1) rotate(0) translate(4 78)">
<title>IEngineService</title>
<!-- Node1 -->
<g id="Node000001" class="node">
<title>Node1</title>
<g id="a_Node000001"><a xlink:title=" ">
<polygon fill="#999999" stroke="#666666" points="334.5,-74 245.5,-74 245.5,-55 334.5,-55 334.5,-74"/>
<text text-anchor="middle" x="290" y="-62" font-family="Helvetica,sans-Serif" font-size="10.00">IEngineService</text>
</a>
</g>
</g>
<!-- Node2 -->
<g id="Node000002" class="node">
<title>Node2</title>
<g id="a_Node000002"><a xlink:href="class_asset_service.html" target="_top" xlink:title="Service responsible for managing game assets such as textures and spritesheets.">
<polygon fill="white" stroke="#666666" points="80,-19 0,-19 0,0 80,0 80,-19"/>
<text text-anchor="middle" x="40" y="-7" font-family="Helvetica,sans-Serif" font-size="10.00">AssetService</text>
</a>
</g>
</g>
<!-- Node1&#45;&gt;Node2 -->
<g id="edge1_Node000001_Node000002" class="edge">
<title>Node1&#45;&gt;Node2</title>
<g id="a_edge1_Node000001_Node000002"><a xlink:title=" ">
<path fill="none" stroke="#63b8ff" d="M239.87,-52.87C192.86,-42.91 123.49,-28.2 80.07,-18.99"/>
<polygon fill="#63b8ff" stroke="#63b8ff" points="239.32,-56.33 249.83,-54.98 240.78,-49.49 239.32,-56.33"/>
</a>
</g>
</g>
<!-- Node3 -->
<g id="Node000003" class="node">
<title>Node3</title>
<g id="a_Node000003"><a xlink:href="class_audio_service.html" target="_top" xlink:title="Manages audio playback and sound instances within the engine.">
<polygon fill="white" stroke="#666666" points="178,-19 98,-19 98,0 178,0 178,-19"/>
<text text-anchor="middle" x="138" y="-7" font-family="Helvetica,sans-Serif" font-size="10.00">AudioService</text>
</a>
</g>
</g>
<!-- Node1&#45;&gt;Node3 -->
<g id="edge2_Node000001_Node000003" class="edge">
<title>Node1&#45;&gt;Node3</title>
<g id="a_edge2_Node000001_Node000003"><a xlink:title=" ">
<path fill="none" stroke="#63b8ff" d="M256.07,-51.67C227.73,-41.79 187.98,-27.93 162.61,-19.08"/>
<polygon fill="#63b8ff" stroke="#63b8ff" points="254.98,-55 265.58,-54.98 257.29,-48.39 254.98,-55"/>
</a>
</g>
</g>
<!-- Node4 -->
<g id="Node000004" class="node">
<title>Node4</title>
<g id="a_Node000004"><a xlink:href="class_input_manager.html" target="_top" xlink:title="Centralized input manager that delegates to an external input provider.">
<polygon fill="white" stroke="#666666" points="280,-19 196,-19 196,0 280,0 280,-19"/>
<text text-anchor="middle" x="238" y="-7" font-family="Helvetica,sans-Serif" font-size="10.00">InputManager</text>
</a>
</g>
</g>
<!-- Node1&#45;&gt;Node4 -->
<g id="edge3_Node000001_Node000004" class="edge">
<title>Node1&#45;&gt;Node4</title>
<g id="a_edge3_Node000001_Node000004"><a xlink:title=" ">
<path fill="none" stroke="#63b8ff" d="M274.32,-47.52C265.16,-38.18 253.95,-26.75 246.43,-19.09"/>
<polygon fill="#63b8ff" stroke="#63b8ff" points="271.91,-50.06 281.41,-54.75 276.91,-45.16 271.91,-50.06"/>
</a>
</g>
</g>
<!-- Node5 -->
<g id="Node000005" class="node">
<title>Node5</title>
<g id="a_Node000005"><a xlink:href="class_physics_service.html" target="_top" xlink:title="Service responsible for managing the physics world.">
<polygon fill="white" stroke="#666666" points="386.5,-19 297.5,-19 297.5,0 386.5,0 386.5,-19"/>
<text text-anchor="middle" x="342" y="-7" font-family="Helvetica,sans-Serif" font-size="10.00">PhysicsService</text>
</a>
</g>
</g>
<!-- Node1&#45;&gt;Node5 -->
<g id="edge4_Node000001_Node000005" class="edge">
<title>Node1&#45;&gt;Node5</title>
<g id="a_edge4_Node000001_Node000005"><a xlink:title=" ">
<path fill="none" stroke="#63b8ff" d="M305.68,-47.52C314.84,-38.18 326.05,-26.75 333.57,-19.09"/>
<polygon fill="#63b8ff" stroke="#63b8ff" points="303.09,-45.16 298.59,-54.75 308.09,-50.06 303.09,-45.16"/>
</a>
</g>
</g>
<!-- Node6 -->
<g id="Node000006" class="node">
<title>Node6</title>
<g id="a_Node000006"><a xlink:href="class_renderer.html" target="_top" xlink:title="Service responsible for rendering game objects to the screen.">
<polygon fill="white" stroke="#666666" points="465.5,-19 404.5,-19 404.5,0 465.5,0 465.5,-19"/>
<text text-anchor="middle" x="435" y="-7" font-family="Helvetica,sans-Serif" font-size="10.00">Renderer</text>
</a>
</g>
</g>
<!-- Node1&#45;&gt;Node6 -->
<g id="edge5_Node000001_Node000006" class="edge">
<title>Node1&#45;&gt;Node6</title>
<g id="a_edge5_Node000001_Node000006"><a xlink:title=" ">
<path fill="none" stroke="#63b8ff" d="M322.69,-51.55C349.62,-41.71 387.16,-27.98 411.28,-19.17"/>
<polygon fill="#63b8ff" stroke="#63b8ff" points="321.49,-48.26 313.3,-54.98 323.89,-54.84 321.49,-48.26"/>
</a>
</g>
</g>
<!-- Node7 -->
<g id="Node000007" class="node">
<title>Node7</title>
<g id="a_Node000007"><a xlink:href="class_rendering_service.html" target="_top" xlink:title="Service responsible for rendering game objects to the window. This service functions as a manager for...">
<polygon fill="white" stroke="#666666" points="586,-19 484,-19 484,0 586,0 586,-19"/>
<text text-anchor="middle" x="535" y="-7" font-family="Helvetica,sans-Serif" font-size="10.00">RenderingService</text>
</a>
</g>
</g>
<!-- Node1&#45;&gt;Node7 -->
<g id="edge6_Node000001_Node000007" class="edge">
<title>Node1&#45;&gt;Node7</title>
<g id="a_edge6_Node000001_Node000007"><a xlink:title=" ">
<path fill="none" stroke="#63b8ff" d="M339.39,-52.82C385.3,-42.88 452.83,-28.28 495.33,-19.08"/>
<polygon fill="#63b8ff" stroke="#63b8ff" points="338.4,-49.45 329.36,-54.98 339.88,-56.29 338.4,-49.45"/>
</a>
</g>
</g>
</g>
</svg>
