<?xml version="1.0" encoding="UTF-8" standalone="no"?>
<!DOCTYPE svg PUBLIC "-//W3C//DTD SVG 1.1//EN"
 "http://www.w3.org/Graphics/SVG/1.1/DTD/svg11.dtd">
<!-- Generated by graphviz version 2.43.0 (0)
 -->
<!-- Title: IEngineService Pages: 1 -->
<svg width="493pt" height="82pt"
 viewBox="0.00 0.00 493.00 82.00" xmlns="http://www.w3.org/2000/svg" xmlns:xlink="http://www.w3.org/1999/xlink">
<g id="graph0" class="graph" transform="scale(1 1) rotate(0) translate(4 78)">
<title>IEngineService</title>
<!-- Node1 -->
<g id="Node000001" class="node">
<title>Node1</title>
<g id="a_Node000001"><a xlink:title=" ">
<polygon fill="#999999" stroke="#666666" points="285.5,-74 196.5,-74 196.5,-55 285.5,-55 285.5,-74"/>
<text text-anchor="middle" x="241" y="-62" font-family="Helvetica,sans-Serif" font-size="10.00">IEngineService</text>
</a>
</g>
</g>
<!-- Node2 -->
<g id="Node000002" class="node">
<title>Node2</title>
<g id="a_Node000002"><a xlink:href="class_asset_service.html" target="_top" xlink:title="Service responsible for managing game assets such as textures and spritesheets.">
<polygon fill="white" stroke="#666666" points="80,-19 0,-19 0,0 80,0 80,-19"/>
<text text-anchor="middle" x="40" y="-7" font-family="Helvetica,sans-Serif" font-size="10.00">AssetService</text>
</a>
</g>
</g>
<!-- Node1&#45;&gt;Node2 -->
<g id="edge1_Node000001_Node000002" class="edge">
<title>Node1&#45;&gt;Node2</title>
<g id="a_edge1_Node000001_Node000002"><a xlink:title=" ">
<path fill="none" stroke="#63b8ff" d="M198.57,-52.31C160.96,-42.39 106.83,-28.12 72.55,-19.08"/>
<polygon fill="#63b8ff" stroke="#63b8ff" points="198.14,-55.82 208.71,-54.98 199.93,-49.05 198.14,-55.82"/>
</a>
</g>
</g>
<!-- Node3 -->
<g id="Node000003" class="node">
<title>Node3</title>
<g id="a_Node000003"><a xlink:href="class_audio_service.html" target="_top" xlink:title="Manages audio playback and sound instances within the engine.">
<polygon fill="white" stroke="#666666" points="178,-19 98,-19 98,0 178,0 178,-19"/>
<text text-anchor="middle" x="138" y="-7" font-family="Helvetica,sans-Serif" font-size="10.00">AudioService</text>
</a>
</g>
</g>
<!-- Node1&#45;&gt;Node3 -->
<g id="edge2_Node000001_Node000003" class="edge">
<title>Node1&#45;&gt;Node3</title>
<g id="a_edge2_Node000001_Node000003"><a xlink:title=" ">
<path fill="none" stroke="#63b8ff" d="M215.48,-50.37C196.56,-40.63 171.3,-27.64 154.85,-19.17"/>
<polygon fill="#63b8ff" stroke="#63b8ff" points="213.96,-53.52 224.45,-54.98 217.16,-47.3 213.96,-53.52"/>
</a>
</g>
</g>
<!-- Node4 -->
<g id="Node000004" class="node">
<title>Node4</title>
<g id="a_Node000004"><a xlink:href="class_physics_service.html" target="_top" xlink:title="Service responsible for managing the physics world.">
<polygon fill="white" stroke="#666666" points="285.5,-19 196.5,-19 196.5,0 285.5,0 285.5,-19"/>
<text text-anchor="middle" x="241" y="-7" font-family="Helvetica,sans-Serif" font-size="10.00">PhysicsService</text>
</a>
</g>
</g>
<!-- Node1&#45;&gt;Node4 -->
<g id="edge3_Node000001_Node000004" class="edge">
<title>Node1&#45;&gt;Node4</title>
<g id="a_edge3_Node000001_Node000004"><a xlink:title=" ">
<path fill="none" stroke="#63b8ff" d="M241,-44.66C241,-35.93 241,-25.99 241,-19.09"/>
<polygon fill="#63b8ff" stroke="#63b8ff" points="237.5,-44.75 241,-54.75 244.5,-44.75 237.5,-44.75"/>
</a>
</g>
</g>
<!-- Node5 -->
<g id="Node000005" class="node">
<title>Node5</title>
<g id="a_Node000005"><a xlink:href="class_renderer.html" target="_top" xlink:title="Service responsible for rendering game objects to the screen.">
<polygon fill="white" stroke="#666666" points="364.5,-19 303.5,-19 303.5,0 364.5,0 364.5,-19"/>
<text text-anchor="middle" x="334" y="-7" font-family="Helvetica,sans-Serif" font-size="10.00">Renderer</text>
</a>
</g>
</g>
<!-- Node1&#45;&gt;Node5 -->
<g id="edge4_Node000001_Node000005" class="edge">
<title>Node1&#45;&gt;Node5</title>
<g id="a_edge4_Node000001_Node000005"><a xlink:title=" ">
<path fill="none" stroke="#63b8ff" d="M264.75,-49.97C281.75,-40.28 304.13,-27.52 318.79,-19.17"/>
<polygon fill="#63b8ff" stroke="#63b8ff" points="262.9,-46.99 255.94,-54.98 266.36,-53.07 262.9,-46.99"/>
</a>
</g>
</g>
<!-- Node6 -->
<g id="Node000006" class="node">
<title>Node6</title>
<g id="a_Node000006"><a xlink:href="class_rendering_service.html" target="_top" xlink:title="Service responsible for rendering game objects to the window. This service functions as a manager for...">
<polygon fill="white" stroke="#666666" points="485,-19 383,-19 383,0 485,0 485,-19"/>
<text text-anchor="middle" x="434" y="-7" font-family="Helvetica,sans-Serif" font-size="10.00">RenderingService</text>
</a>
</g>
</g>
<!-- Node1&#45;&gt;Node6 -->
<g id="edge5_Node000001_Node000006" class="edge">
<title>Node1&#45;&gt;Node6</title>
<g id="a_edge5_Node000001_Node000006"><a xlink:title=" ">
<path fill="none" stroke="#63b8ff" d="M281.75,-52.31C317.86,-42.39 369.83,-28.12 402.75,-19.08"/>
<polygon fill="#63b8ff" stroke="#63b8ff" points="280.72,-48.96 272.01,-54.98 282.58,-55.71 280.72,-48.96"/>
</a>
</g>
</g>
</g>
</svg>
