<?xml version="1.0" encoding="UTF-8" standalone="no"?>
<!DOCTYPE svg PUBLIC "-//W3C//DTD SVG 1.1//EN"
 "http://www.w3.org/Graphics/SVG/1.1/DTD/svg11.dtd">
<!-- Generated by graphviz version 2.43.0 (0)
 -->
<!-- Title: Component Pages: 1 -->
<svg width="332pt" height="137pt"
 viewBox="0.00 0.00 332.00 137.00" xmlns="http://www.w3.org/2000/svg" xmlns:xlink="http://www.w3.org/1999/xlink">
<g id="graph0" class="graph" transform="scale(1 1) rotate(0) translate(4 133)">
<title>Component</title>
<!-- Node1 -->
<g id="Node000001" class="node">
<title>Node1</title>
<g id="a_Node000001"><a xlink:title=" ">
<polygon fill="#999999" stroke="#666666" points="212,-129 139,-129 139,-110 212,-110 212,-129"/>
<text text-anchor="middle" x="175.5" y="-117" font-family="Helvetica,sans-Serif" font-size="10.00">Component</text>
</a>
</g>
</g>
<!-- Node2 -->
<g id="Node000002" class="node">
<title>Node2</title>
<g id="a_Node000002"><a xlink:href="class_audio_source.html" target="_top" xlink:title="Component that plays audio using the AudioService.">
<polygon fill="white" stroke="#666666" points="77,-74 0,-74 0,-55 77,-55 77,-74"/>
<text text-anchor="middle" x="38.5" y="-62" font-family="Helvetica,sans-Serif" font-size="10.00">AudioSource</text>
</a>
</g>
</g>
<!-- Node1&#45;&gt;Node2 -->
<g id="edge1_Node000001_Node000002" class="edge">
<title>Node1&#45;&gt;Node2</title>
<g id="a_edge1_Node000001_Node000002"><a xlink:title=" ">
<path fill="none" stroke="#63b8ff" d="M143.94,-106.29C118.55,-96.47 83.5,-82.91 60.91,-74.17"/>
<polygon fill="#63b8ff" stroke="#63b8ff" points="142.9,-109.64 153.49,-109.98 145.42,-103.11 142.9,-109.64"/>
</a>
</g>
</g>
<!-- Node3 -->
<g id="Node000003" class="node">
<title>Node3</title>
<g id="a_Node000003"><a xlink:href="class_collider2_d.html" target="_top" xlink:title="A 2D collider base that defines the shape and physical properties of a GameObject for collision detec...">
<polygon fill="white" stroke="#666666" points="163.5,-74 95.5,-74 95.5,-55 163.5,-55 163.5,-74"/>
<text text-anchor="middle" x="129.5" y="-62" font-family="Helvetica,sans-Serif" font-size="10.00">Collider2D</text>
</a>
</g>
</g>
<!-- Node1&#45;&gt;Node3 -->
<g id="edge2_Node000001_Node000003" class="edge">
<title>Node1&#45;&gt;Node3</title>
<g id="a_edge2_Node000001_Node000003"><a xlink:title=" ">
<path fill="none" stroke="#63b8ff" d="M161.14,-101.96C153.13,-92.72 143.47,-81.6 136.95,-74.09"/>
<polygon fill="#63b8ff" stroke="#63b8ff" points="158.71,-104.49 167.9,-109.75 163.99,-99.9 158.71,-104.49"/>
</a>
</g>
</g>
<!-- Node6 -->
<g id="Node000006" class="node">
<title>Node6</title>
<g id="a_Node000006"><a xlink:href="class_rigidbody2_d.html" target="_top" xlink:title="A 2D rigidbody component that adds physics properties to a GameObject.">
<polygon fill="white" stroke="#666666" points="261,-74 182,-74 182,-55 261,-55 261,-74"/>
<text text-anchor="middle" x="221.5" y="-62" font-family="Helvetica,sans-Serif" font-size="10.00">Rigidbody2D</text>
</a>
</g>
</g>
<!-- Node1&#45;&gt;Node6 -->
<g id="edge5_Node000001_Node000006" class="edge">
<title>Node1&#45;&gt;Node6</title>
<g id="a_edge5_Node000001_Node000006"><a xlink:title=" ">
<path fill="none" stroke="#63b8ff" d="M189.86,-101.96C197.87,-92.72 207.53,-81.6 214.05,-74.09"/>
<polygon fill="#63b8ff" stroke="#63b8ff" points="187.01,-99.9 183.1,-109.75 192.29,-104.49 187.01,-99.9"/>
</a>
</g>
</g>
<!-- Node7 -->
<g id="Node000007" class="node">
<title>Node7</title>
<g id="a_Node000007"><a xlink:href="class_sprite.html" target="_top" xlink:title="Component that represents a 2D sprite to be rendered. The Sprite component holds a reference to a Tex...">
<polygon fill="white" stroke="#666666" points="324,-74 279,-74 279,-55 324,-55 324,-74"/>
<text text-anchor="middle" x="301.5" y="-62" font-family="Helvetica,sans-Serif" font-size="10.00">Sprite</text>
</a>
</g>
</g>
<!-- Node1&#45;&gt;Node7 -->
<g id="edge6_Node000001_Node000007" class="edge">
<title>Node1&#45;&gt;Node7</title>
<g id="a_edge6_Node000001_Node000007"><a xlink:title=" ">
<path fill="none" stroke="#63b8ff" d="M205.15,-106.03C228.45,-96.23 260.3,-82.83 280.89,-74.17"/>
<polygon fill="#63b8ff" stroke="#63b8ff" points="203.6,-102.88 195.74,-109.98 206.32,-109.33 203.6,-102.88"/>
</a>
</g>
</g>
<!-- Node4 -->
<g id="Node000004" class="node">
<title>Node4</title>
<g id="a_Node000004"><a xlink:href="class_box_collider2_d.html" target="_top" xlink:title="A 2D box collider component that defines a rectangular collision shape for a GameObject.">
<polygon fill="white" stroke="#666666" points="117.5,-19 31.5,-19 31.5,0 117.5,0 117.5,-19"/>
<text text-anchor="middle" x="74.5" y="-7" font-family="Helvetica,sans-Serif" font-size="10.00">BoxCollider2D</text>
</a>
</g>
</g>
<!-- Node3&#45;&gt;Node4 -->
<g id="edge3_Node000003_Node000004" class="edge">
<title>Node3&#45;&gt;Node4</title>
<g id="a_edge3_Node000003_Node000004"><a xlink:title=" ">
<path fill="none" stroke="#63b8ff" d="M113.21,-47.8C103.46,-38.41 91.45,-26.83 83.41,-19.09"/>
<polygon fill="#63b8ff" stroke="#63b8ff" points="110.79,-50.33 120.42,-54.75 115.65,-45.29 110.79,-50.33"/>
</a>
</g>
</g>
<!-- Node5 -->
<g id="Node000005" class="node">
<title>Node5</title>
<g id="a_Node000005"><a xlink:href="class_circle_collider2_d.html" target="_top" xlink:title="A 2D circle collider component that defines a circular collision shape for a GameObject.">
<polygon fill="white" stroke="#666666" points="231,-19 136,-19 136,0 231,0 231,-19"/>
<text text-anchor="middle" x="183.5" y="-7" font-family="Helvetica,sans-Serif" font-size="10.00">CircleCollider2D</text>
</a>
</g>
</g>
<!-- Node3&#45;&gt;Node5 -->
<g id="edge4_Node000003_Node000005" class="edge">
<title>Node3&#45;&gt;Node5</title>
<g id="a_edge4_Node000003_Node000005"><a xlink:title=" ">
<path fill="none" stroke="#63b8ff" d="M145.78,-47.52C155.3,-38.18 166.94,-26.75 174.75,-19.09"/>
<polygon fill="#63b8ff" stroke="#63b8ff" points="143.1,-45.25 138.42,-54.75 148.01,-50.24 143.1,-45.25"/>
</a>
</g>
</g>
</g>
</svg>
