<?xml version="1.0" encoding="UTF-8" standalone="no"?>
<!DOCTYPE svg PUBLIC "-//W3C//DTD SVG 1.1//EN"
 "http://www.w3.org/Graphics/SVG/1.1/DTD/svg11.dtd">
<!-- Generated by graphviz version 2.43.0 (0)
 -->
<!-- Title: Component Pages: 1 -->
<svg width="438pt" height="137pt"
 viewBox="0.00 0.00 438.00 137.00" xmlns="http://www.w3.org/2000/svg" xmlns:xlink="http://www.w3.org/1999/xlink">
<g id="graph0" class="graph" transform="scale(1 1) rotate(0) translate(4 133)">
<title>Component</title>
<!-- Node1 -->
<g id="Node000001" class="node">
<title>Node1</title>
<g id="a_Node000001"><a xlink:title=" ">
<polygon fill="#999999" stroke="#666666" points="272,-129 199,-129 199,-110 272,-110 272,-129"/>
<text text-anchor="middle" x="235.5" y="-117" font-family="Helvetica,sans-Serif" font-size="10.00">Component</text>
</a>
</g>
</g>
<!-- Node2 -->
<g id="Node000002" class="node">
<title>Node2</title>
<g id="a_Node000002"><a xlink:href="class_audio_source.html" target="_top" xlink:title="Component that plays audio using the AudioService.">
<polygon fill="white" stroke="#666666" points="77,-74 0,-74 0,-55 77,-55 77,-74"/>
<text text-anchor="middle" x="38.5" y="-62" font-family="Helvetica,sans-Serif" font-size="10.00">AudioSource</text>
</a>
</g>
</g>
<!-- Node1&#45;&gt;Node2 -->
<g id="edge1_Node000001_Node000002" class="edge">
<title>Node1&#45;&gt;Node2</title>
<g id="a_edge1_Node000001_Node000002"><a xlink:title=" ">
<path fill="none" stroke="#63b8ff" d="M193.91,-107.31C157.05,-97.39 104,-83.12 70.4,-74.08"/>
<polygon fill="#63b8ff" stroke="#63b8ff" points="193.28,-110.77 203.85,-109.98 195.1,-104.01 193.28,-110.77"/>
</a>
</g>
</g>
<!-- Node3 -->
<g id="Node000003" class="node">
<title>Node3</title>
<g id="a_Node000003"><a xlink:href="class_behavior_script.html" target="_top" xlink:title="A Component that wraps a Behavior, allowing it to be attached to GameObjects.">
<polygon fill="white" stroke="#666666" points="183.5,-74 95.5,-74 95.5,-55 183.5,-55 183.5,-74"/>
<text text-anchor="middle" x="139.5" y="-62" font-family="Helvetica,sans-Serif" font-size="10.00">BehaviorScript</text>
</a>
</g>
</g>
<!-- Node1&#45;&gt;Node3 -->
<g id="edge2_Node000001_Node000003" class="edge">
<title>Node1&#45;&gt;Node3</title>
<g id="a_edge2_Node000001_Node000003"><a xlink:title=" ">
<path fill="none" stroke="#63b8ff" d="M210.98,-104.97C193.44,-95.28 170.33,-82.52 155.2,-74.17"/>
<polygon fill="#63b8ff" stroke="#63b8ff" points="209.63,-108.22 220.08,-109.98 213.01,-102.09 209.63,-108.22"/>
</a>
</g>
</g>
<!-- Node4 -->
<g id="Node000004" class="node">
<title>Node4</title>
<g id="a_Node000004"><a xlink:href="class_collider2_d.html" target="_top" xlink:title="A 2D collider base that defines the shape and physical properties of a GameObject for collision detec...">
<polygon fill="white" stroke="#666666" points="269.5,-74 201.5,-74 201.5,-55 269.5,-55 269.5,-74"/>
<text text-anchor="middle" x="235.5" y="-62" font-family="Helvetica,sans-Serif" font-size="10.00">Collider2D</text>
</a>
</g>
</g>
<!-- Node1&#45;&gt;Node4 -->
<g id="edge3_Node000001_Node000004" class="edge">
<title>Node1&#45;&gt;Node4</title>
<g id="a_edge3_Node000001_Node000004"><a xlink:title=" ">
<path fill="none" stroke="#63b8ff" d="M235.5,-99.66C235.5,-90.93 235.5,-80.99 235.5,-74.09"/>
<polygon fill="#63b8ff" stroke="#63b8ff" points="232,-99.75 235.5,-109.75 239,-99.75 232,-99.75"/>
</a>
</g>
</g>
<!-- Node7 -->
<g id="Node000007" class="node">
<title>Node7</title>
<g id="a_Node000007"><a xlink:href="class_rigidbody2_d.html" target="_top" xlink:title="A 2D rigidbody component that adds physics properties to a GameObject.">
<polygon fill="white" stroke="#666666" points="367,-74 288,-74 288,-55 367,-55 367,-74"/>
<text text-anchor="middle" x="327.5" y="-62" font-family="Helvetica,sans-Serif" font-size="10.00">Rigidbody2D</text>
</a>
</g>
</g>
<!-- Node1&#45;&gt;Node7 -->
<g id="edge6_Node000001_Node000007" class="edge">
<title>Node1&#45;&gt;Node7</title>
<g id="a_edge6_Node000001_Node000007"><a xlink:title=" ">
<path fill="none" stroke="#63b8ff" d="M258.99,-104.97C275.81,-95.28 297.95,-82.52 312.45,-74.17"/>
<polygon fill="#63b8ff" stroke="#63b8ff" points="257.2,-101.96 250.28,-109.98 260.69,-108.03 257.2,-101.96"/>
</a>
</g>
</g>
<!-- Node8 -->
<g id="Node000008" class="node">
<title>Node8</title>
<g id="a_Node000008"><a xlink:href="class_sprite.html" target="_top" xlink:title="Component that represents a 2D sprite to be rendered. The Sprite component holds a reference to a Tex...">
<polygon fill="white" stroke="#666666" points="430,-74 385,-74 385,-55 430,-55 430,-74"/>
<text text-anchor="middle" x="407.5" y="-62" font-family="Helvetica,sans-Serif" font-size="10.00">Sprite</text>
</a>
</g>
</g>
<!-- Node1&#45;&gt;Node8 -->
<g id="edge7_Node000001_Node000008" class="edge">
<title>Node1&#45;&gt;Node8</title>
<g id="a_edge7_Node000001_Node000008"><a xlink:title=" ">
<path fill="none" stroke="#63b8ff" d="M272.76,-107.02C306.91,-96.5 356.35,-81.26 384.88,-72.47"/>
<polygon fill="#63b8ff" stroke="#63b8ff" points="271.66,-103.69 263.13,-109.98 273.72,-110.38 271.66,-103.69"/>
</a>
</g>
</g>
<!-- Node5 -->
<g id="Node000005" class="node">
<title>Node5</title>
<g id="a_Node000005"><a xlink:href="class_box_collider2_d.html" target="_top" xlink:title="A 2D box collider component that defines a rectangular collision shape for a GameObject.">
<polygon fill="white" stroke="#666666" points="223.5,-19 137.5,-19 137.5,0 223.5,0 223.5,-19"/>
<text text-anchor="middle" x="180.5" y="-7" font-family="Helvetica,sans-Serif" font-size="10.00">BoxCollider2D</text>
</a>
</g>
</g>
<!-- Node4&#45;&gt;Node5 -->
<g id="edge4_Node000004_Node000005" class="edge">
<title>Node4&#45;&gt;Node5</title>
<g id="a_edge4_Node000004_Node000005"><a xlink:title=" ">
<path fill="none" stroke="#63b8ff" d="M219.21,-47.8C209.46,-38.41 197.45,-26.83 189.41,-19.09"/>
<polygon fill="#63b8ff" stroke="#63b8ff" points="216.79,-50.33 226.42,-54.75 221.65,-45.29 216.79,-50.33"/>
</a>
</g>
</g>
<!-- Node6 -->
<g id="Node000006" class="node">
<title>Node6</title>
<g id="a_Node000006"><a xlink:href="class_circle_collider2_d.html" target="_top" xlink:title="A 2D circle collider component that defines a circular collision shape for a GameObject.">
<polygon fill="white" stroke="#666666" points="337,-19 242,-19 242,0 337,0 337,-19"/>
<text text-anchor="middle" x="289.5" y="-7" font-family="Helvetica,sans-Serif" font-size="10.00">CircleCollider2D</text>
</a>
</g>
</g>
<!-- Node4&#45;&gt;Node6 -->
<g id="edge5_Node000004_Node000006" class="edge">
<title>Node4&#45;&gt;Node6</title>
<g id="a_edge5_Node000004_Node000006"><a xlink:title=" ">
<path fill="none" stroke="#63b8ff" d="M251.78,-47.52C261.3,-38.18 272.94,-26.75 280.75,-19.09"/>
<polygon fill="#63b8ff" stroke="#63b8ff" points="249.1,-45.25 244.42,-54.75 254.01,-50.24 249.1,-45.25"/>
</a>
</g>
</g>
</g>
</svg>
