<?xml version="1.0" encoding="UTF-8" standalone="no"?>
<!DOCTYPE svg PUBLIC "-//W3C//DTD SVG 1.1//EN"
 "http://www.w3.org/Graphics/SVG/1.1/DTD/svg11.dtd">
<!-- Generated by graphviz version 2.43.0 (0)
 -->
<!-- Title: Collider2D Pages: 1 -->
<svg width="208pt" height="137pt"
 viewBox="0.00 0.00 207.50 137.00" xmlns="http://www.w3.org/2000/svg" xmlns:xlink="http://www.w3.org/1999/xlink">
<g id="graph0" class="graph" transform="scale(1 1) rotate(0) translate(4 133)">
<title>Collider2D</title>
<!-- Node1 -->
<g id="Node000001" class="node">
<title>Node1</title>
<g id="a_Node000001"><a xlink:title="A 2D collider base that defines the shape and physical properties of a GameObject for collision detec...">
<polygon fill="#999999" stroke="#666666" points="131,-74 63,-74 63,-55 131,-55 131,-74"/>
<text text-anchor="middle" x="97" y="-62" font-family="Helvetica,sans-Serif" font-size="10.00">Collider2D</text>
</a>
</g>
</g>
<!-- Node3 -->
<g id="Node000003" class="node">
<title>Node3</title>
<g id="a_Node000003"><a xlink:href="class_box_collider2_d.html" target="_top" xlink:title="A 2D box collider component that defines a rectangular collision shape for a GameObject.">
<polygon fill="white" stroke="#666666" points="86,-19 0,-19 0,0 86,0 86,-19"/>
<text text-anchor="middle" x="43" y="-7" font-family="Helvetica,sans-Serif" font-size="10.00">BoxCollider2D</text>
</a>
</g>
</g>
<!-- Node1&#45;&gt;Node3 -->
<g id="edge2_Node000001_Node000003" class="edge">
<title>Node1&#45;&gt;Node3</title>
<g id="a_edge2_Node000001_Node000003"><a xlink:title=" ">
<path fill="none" stroke="#63b8ff" d="M80.72,-47.52C71.2,-38.18 59.56,-26.75 51.75,-19.09"/>
<polygon fill="#63b8ff" stroke="#63b8ff" points="78.49,-50.24 88.08,-54.75 83.4,-45.25 78.49,-50.24"/>
</a>
</g>
</g>
<!-- Node4 -->
<g id="Node000004" class="node">
<title>Node4</title>
<g id="a_Node000004"><a xlink:href="class_circle_collider2_d.html" target="_top" xlink:title="A 2D circle collider component that defines a circular collision shape for a GameObject.">
<polygon fill="white" stroke="#666666" points="199.5,-19 104.5,-19 104.5,0 199.5,0 199.5,-19"/>
<text text-anchor="middle" x="152" y="-7" font-family="Helvetica,sans-Serif" font-size="10.00">CircleCollider2D</text>
</a>
</g>
</g>
<!-- Node1&#45;&gt;Node4 -->
<g id="edge3_Node000001_Node000004" class="edge">
<title>Node1&#45;&gt;Node4</title>
<g id="a_edge3_Node000001_Node000004"><a xlink:title=" ">
<path fill="none" stroke="#63b8ff" d="M113.29,-47.8C123.04,-38.41 135.05,-26.83 143.09,-19.09"/>
<polygon fill="#63b8ff" stroke="#63b8ff" points="110.85,-45.29 106.08,-54.75 115.71,-50.33 110.85,-45.29"/>
</a>
</g>
</g>
<!-- Node2 -->
<g id="Node000002" class="node">
<title>Node2</title>
<g id="a_Node000002"><a xlink:href="class_component.html" target="_top" xlink:title=" ">
<polygon fill="white" stroke="#666666" points="133.5,-129 60.5,-129 60.5,-110 133.5,-110 133.5,-129"/>
<text text-anchor="middle" x="97" y="-117" font-family="Helvetica,sans-Serif" font-size="10.00">Component</text>
</a>
</g>
</g>
<!-- Node2&#45;&gt;Node1 -->
<g id="edge1_Node000001_Node000002" class="edge">
<title>Node2&#45;&gt;Node1</title>
<g id="a_edge1_Node000001_Node000002"><a xlink:title=" ">
<path fill="none" stroke="#63b8ff" d="M97,-99.66C97,-90.93 97,-80.99 97,-74.09"/>
<polygon fill="#63b8ff" stroke="#63b8ff" points="93.5,-99.75 97,-109.75 100.5,-99.75 93.5,-99.75"/>
</a>
</g>
</g>
</g>
</svg>
