<?xml version="1.0" encoding="UTF-8" standalone="no"?>
<!DOCTYPE svg PUBLIC "-//W3C//DTD SVG 1.1//EN"
 "http://www.w3.org/Graphics/SVG/1.1/DTD/svg11.dtd">
<!-- Generated by graphviz version 2.43.0 (0)
 -->
<!-- Title: IEngineService Pages: 1 -->
<svg width="235pt" height="249pt"
 viewBox="0.00 0.00 235.00 249.00" xmlns="http://www.w3.org/2000/svg" xmlns:xlink="http://www.w3.org/1999/xlink">
<g id="graph0" class="graph" transform="scale(1 1) rotate(0) translate(4 245)">
<title>IEngineService</title>
<!-- Node1 -->
<g id="Node000001" class="node">
<title>Node1</title>
<g id="a_Node000001"><a xlink:title=" ">
<polygon fill="#999999" stroke="#666666" points="89,-130 0,-130 0,-111 89,-111 89,-130"/>
<text text-anchor="middle" x="44.5" y="-118" font-family="Helvetica,sans-Serif" font-size="10.00">IEngineService</text>
</a>
</g>
</g>
<!-- Node2 -->
<g id="Node000002" class="node">
<title>Node2</title>
<g id="a_Node000002"><a xlink:href="class_asset_service.html" target="_top" xlink:title="Service responsible for managing game assets such as textures and spritesheets.">
<polygon fill="white" stroke="#666666" points="216,-241 136,-241 136,-222 216,-222 216,-241"/>
<text text-anchor="middle" x="176" y="-229" font-family="Helvetica,sans-Serif" font-size="10.00">AssetService</text>
</a>
</g>
</g>
<!-- Node1&#45;&gt;Node2 -->
<g id="edge1_Node000001_Node000002" class="edge">
<title>Node1&#45;&gt;Node2</title>
<g id="a_edge1_Node000001_Node000002"><a xlink:title=" ">
<path fill="none" stroke="#63b8ff" d="M56.76,-138.64C70.51,-159.41 95.6,-193.19 125,-213.5 129.86,-216.86 135.41,-219.66 141.01,-221.98"/>
<polygon fill="#63b8ff" stroke="#63b8ff" points="59.62,-136.62 51.26,-130.1 53.73,-140.4 59.62,-136.62"/>
</a>
</g>
</g>
<!-- Node3 -->
<g id="Node000003" class="node">
<title>Node3</title>
<g id="a_Node000003"><a xlink:href="class_audio_service.html" target="_top" xlink:title="Manages audio playback and sound instances within the engine.">
<polygon fill="white" stroke="#666666" points="216,-204 136,-204 136,-185 216,-185 216,-204"/>
<text text-anchor="middle" x="176" y="-192" font-family="Helvetica,sans-Serif" font-size="10.00">AudioService</text>
</a>
</g>
</g>
<!-- Node1&#45;&gt;Node3 -->
<g id="edge2_Node000001_Node000003" class="edge">
<title>Node1&#45;&gt;Node3</title>
<g id="a_edge2_Node000001_Node000003"><a xlink:title=" ">
<path fill="none" stroke="#63b8ff" d="M64.82,-136.34C80.36,-148.52 103.14,-165.13 125,-176.5 131.06,-179.65 137.79,-182.48 144.3,-184.92"/>
<polygon fill="#63b8ff" stroke="#63b8ff" points="66.98,-133.59 56.98,-130.09 62.62,-139.06 66.98,-133.59"/>
</a>
</g>
</g>
<!-- Node4 -->
<g id="Node000004" class="node">
<title>Node4</title>
<g id="a_Node000004"><a xlink:href="class_input_manager.html" target="_top" xlink:title="Centralized input manager that delegates to an external input provider.">
<polygon fill="white" stroke="#666666" points="218,-167 134,-167 134,-148 218,-148 218,-167"/>
<text text-anchor="middle" x="176" y="-155" font-family="Helvetica,sans-Serif" font-size="10.00">InputManager</text>
</a>
</g>
</g>
<!-- Node1&#45;&gt;Node4 -->
<g id="edge3_Node000001_Node000004" class="edge">
<title>Node1&#45;&gt;Node4</title>
<g id="a_edge3_Node000001_Node000004"><a xlink:title=" ">
<path fill="none" stroke="#63b8ff" d="M88.64,-132.83C105.79,-137.73 125.23,-143.28 141.31,-147.88"/>
<polygon fill="#63b8ff" stroke="#63b8ff" points="89.43,-129.41 78.85,-130.03 87.5,-136.14 89.43,-129.41"/>
</a>
</g>
</g>
<!-- Node5 -->
<g id="Node000005" class="node">
<title>Node5</title>
<g id="a_Node000005"><a xlink:href="class_physics_service.html" target="_top" xlink:title="Service responsible for managing the physics world.">
<polygon fill="white" stroke="#666666" points="220.5,-130 131.5,-130 131.5,-111 220.5,-111 220.5,-130"/>
<text text-anchor="middle" x="176" y="-118" font-family="Helvetica,sans-Serif" font-size="10.00">PhysicsService</text>
</a>
</g>
</g>
<!-- Node1&#45;&gt;Node5 -->
<g id="edge4_Node000001_Node000005" class="edge">
<title>Node1&#45;&gt;Node5</title>
<g id="a_edge4_Node000001_Node000005"><a xlink:title=" ">
<path fill="none" stroke="#63b8ff" d="M99.35,-120.5C109.96,-120.5 120.97,-120.5 131.2,-120.5"/>
<polygon fill="#63b8ff" stroke="#63b8ff" points="99.34,-117 89.34,-120.5 99.34,-124 99.34,-117"/>
</a>
</g>
</g>
<!-- Node6 -->
<g id="Node000006" class="node">
<title>Node6</title>
<g id="a_Node000006"><a xlink:href="class_renderer.html" target="_top" xlink:title="Service responsible for rendering game objects to the screen.">
<polygon fill="white" stroke="#666666" points="206.5,-93 145.5,-93 145.5,-74 206.5,-74 206.5,-93"/>
<text text-anchor="middle" x="176" y="-81" font-family="Helvetica,sans-Serif" font-size="10.00">Renderer</text>
</a>
</g>
</g>
<!-- Node1&#45;&gt;Node6 -->
<g id="edge5_Node000001_Node000006" class="edge">
<title>Node1&#45;&gt;Node6</title>
<g id="a_edge5_Node000001_Node000006"><a xlink:title=" ">
<path fill="none" stroke="#63b8ff" d="M88.58,-108.19C107.19,-102.87 128.5,-96.79 145.3,-91.99"/>
<polygon fill="#63b8ff" stroke="#63b8ff" points="87.5,-104.86 78.85,-110.97 89.43,-111.59 87.5,-104.86"/>
</a>
</g>
</g>
<!-- Node7 -->
<g id="Node000007" class="node">
<title>Node7</title>
<g id="a_Node000007"><a xlink:href="class_rendering_service.html" target="_top" xlink:title="Service responsible for rendering game objects to the window. This service functions as a manager for...">
<polygon fill="white" stroke="#666666" points="227,-56 125,-56 125,-37 227,-37 227,-56"/>
<text text-anchor="middle" x="176" y="-44" font-family="Helvetica,sans-Serif" font-size="10.00">RenderingService</text>
</a>
</g>
</g>
<!-- Node1&#45;&gt;Node7 -->
<g id="edge6_Node000001_Node000007" class="edge">
<title>Node1&#45;&gt;Node7</title>
<g id="a_edge6_Node000001_Node000007"><a xlink:title=" ">
<path fill="none" stroke="#63b8ff" d="M65.62,-104.54C81.2,-92.7 103.64,-76.73 125,-65.5 131.66,-62 139.11,-58.81 146.18,-56.09"/>
<polygon fill="#63b8ff" stroke="#63b8ff" points="63.08,-102.08 57.31,-110.96 67.36,-107.62 63.08,-102.08"/>
</a>
</g>
</g>
<!-- Node8 -->
<g id="Node000008" class="node">
<title>Node8</title>
<g id="a_Node000008"><a xlink:href="class_scene_service.html" target="_top" xlink:title=" ">
<polygon fill="white" stroke="#666666" points="217,-19 135,-19 135,0 217,0 217,-19"/>
<text text-anchor="middle" x="176" y="-7" font-family="Helvetica,sans-Serif" font-size="10.00">SceneService</text>
</a>
</g>
</g>
<!-- Node1&#45;&gt;Node8 -->
<g id="edge7_Node000001_Node000008" class="edge">
<title>Node1&#45;&gt;Node8</title>
<g id="a_edge7_Node000001_Node000008"><a xlink:title=" ">
<path fill="none" stroke="#63b8ff" d="M57.08,-102.34C70.98,-81.85 96.05,-48.76 125,-28.5 130.4,-24.72 136.65,-21.57 142.87,-19"/>
<polygon fill="#63b8ff" stroke="#63b8ff" points="54.1,-100.5 51.51,-110.77 59.94,-104.36 54.1,-100.5"/>
</a>
</g>
</g>
</g>
</svg>
