<?xml version="1.0" encoding="UTF-8" standalone="no"?>
<!DOCTYPE svg PUBLIC "-//W3C//DTD SVG 1.1//EN"
 "http://www.w3.org/Graphics/SVG/1.1/DTD/svg11.dtd">
<!-- Generated by graphviz version 2.43.0 (0)
 -->
<!-- Title: include/engine/public/components/colliders/collider_2d.h Pages: 1 -->
<svg width="1274pt" height="368pt"
 viewBox="0.00 0.00 1274.00 368.00" xmlns="http://www.w3.org/2000/svg" xmlns:xlink="http://www.w3.org/1999/xlink">
<g id="graph0" class="graph" transform="scale(1 1) rotate(0) translate(4 364)">
<title>include/engine/public/components/colliders/collider_2d.h</title>
<!-- Node1 -->
<g id="Node000001" class="node">
<title>Node1</title>
<g id="a_Node000001"><a xlink:title=" ">
<polygon fill="#999999" stroke="#666666" points="381.5,-360 257.5,-360 257.5,-319 381.5,-319 381.5,-360"/>
<text text-anchor="start" x="265.5" y="-348" font-family="Helvetica,sans-Serif" font-size="10.00">include/engine/public</text>
<text text-anchor="start" x="265.5" y="-337" font-family="Helvetica,sans-Serif" font-size="10.00">/components/colliders</text>
<text text-anchor="middle" x="319.5" y="-326" font-family="Helvetica,sans-Serif" font-size="10.00">/collider_2d.h</text>
</a>
</g>
</g>
<!-- Node2 -->
<g id="Node000002" class="node">
<title>Node2</title>
<g id="a_Node000002"><a xlink:title=" ">
<polygon fill="#e0e0e0" stroke="#999999" points="65,-79.5 0,-79.5 0,-60.5 65,-60.5 65,-79.5"/>
<text text-anchor="middle" x="32.5" y="-67.5" font-family="Helvetica,sans-Serif" font-size="10.00">functional</text>
</a>
</g>
</g>
<!-- Node1&#45;&gt;Node2 -->
<g id="edge1_Node000001_Node000002" class="edge">
<title>Node1&#45;&gt;Node2</title>
<g id="a_edge1_Node000001_Node000002"><a xlink:title=" ">
<path fill="none" stroke="#63b8ff" d="M257.02,-335.45C210.51,-330.3 147.69,-316.99 103.5,-283 41.78,-235.53 33.19,-132.27 32.37,-89.81"/>
<polygon fill="#63b8ff" stroke="#63b8ff" points="35.86,-89.73 32.3,-79.76 28.86,-89.78 35.86,-89.73"/>
</a>
</g>
</g>
<!-- Node3 -->
<g id="Node000003" class="node">
<title>Node3</title>
<g id="a_Node000003"><a xlink:title=" ">
<polygon fill="#e0e0e0" stroke="#999999" points="319,-79.5 272,-79.5 272,-60.5 319,-60.5 319,-79.5"/>
<text text-anchor="middle" x="295.5" y="-67.5" font-family="Helvetica,sans-Serif" font-size="10.00">vector</text>
</a>
</g>
</g>
<!-- Node1&#45;&gt;Node3 -->
<g id="edge2_Node000001_Node000003" class="edge">
<title>Node1&#45;&gt;Node3</title>
<g id="a_edge2_Node000001_Node000003"><a xlink:title=" ">
<path fill="none" stroke="#63b8ff" d="M257.27,-330.36C220.31,-322.98 174.23,-309.06 140.5,-283 85.85,-240.78 77.45,-217.41 58.5,-151 54.84,-138.18 50.1,-131.36 58.5,-121 71.27,-105.25 199.29,-84.86 261.68,-75.75"/>
<polygon fill="#63b8ff" stroke="#63b8ff" points="262.41,-79.18 271.81,-74.29 261.41,-72.25 262.41,-79.18"/>
</a>
</g>
</g>
<!-- Node4 -->
<g id="Node000004" class="node">
<title>Node4</title>
<g id="a_Node000004"><a xlink:href="physics__creation__flags_8h.html" target="_top" xlink:title=" ">
<polygon fill="white" stroke="#666666" points="1266,-151 1127,-151 1127,-121 1266,-121 1266,-151"/>
<text text-anchor="start" x="1135" y="-139" font-family="Helvetica,sans-Serif" font-size="10.00">engine/physics/creation</text>
<text text-anchor="middle" x="1196.5" y="-128" font-family="Helvetica,sans-Serif" font-size="10.00">/physics_creation_flags.h</text>
</a>
</g>
</g>
<!-- Node1&#45;&gt;Node4 -->
<g id="edge3_Node000001_Node000004" class="edge">
<title>Node1&#45;&gt;Node4</title>
<g id="a_edge3_Node000001_Node000004"><a xlink:title=" ">
<path fill="none" stroke="#63b8ff" d="M381.69,-339.4C495.15,-339.63 742.59,-333.62 943.5,-283 1015.71,-264.81 1033.72,-255.43 1097.5,-217 1125.82,-199.94 1154.86,-175.49 1174.09,-158.12"/>
<polygon fill="#63b8ff" stroke="#63b8ff" points="1176.7,-160.49 1181.71,-151.15 1171.97,-155.32 1176.7,-160.49"/>
</a>
</g>
</g>
<!-- Node6 -->
<g id="Node000006" class="node">
<title>Node6</title>
<g id="a_Node000006"><a xlink:href="physics__raycaster_8h.html" target="_top" xlink:title=" ">
<polygon fill="white" stroke="#666666" points="461.5,-283 333.5,-283 333.5,-253 461.5,-253 461.5,-283"/>
<text text-anchor="start" x="341.5" y="-271" font-family="Helvetica,sans-Serif" font-size="10.00">engine/physics/raycast</text>
<text text-anchor="middle" x="397.5" y="-260" font-family="Helvetica,sans-Serif" font-size="10.00">/physics_raycaster.h</text>
</a>
</g>
</g>
<!-- Node1&#45;&gt;Node6 -->
<g id="edge5_Node000001_Node000006" class="edge">
<title>Node1&#45;&gt;Node6</title>
<g id="a_edge5_Node000001_Node000006"><a xlink:title=" ">
<path fill="none" stroke="#63b8ff" d="M341.64,-318.77C351.84,-309.69 363.93,-298.91 374.26,-289.71"/>
<polygon fill="#63b8ff" stroke="#63b8ff" points="376.61,-292.3 381.74,-283.04 371.95,-287.08 376.61,-292.3"/>
</a>
</g>
</g>
<!-- Node9 -->
<g id="Node000009" class="node">
<title>Node9</title>
<g id="a_Node000009"><a xlink:href="point_8h.html" target="_top" xlink:title=" ">
<polygon fill="white" stroke="#666666" points="897,-151 796,-151 796,-121 897,-121 897,-151"/>
<text text-anchor="start" x="804" y="-139" font-family="Helvetica,sans-Serif" font-size="10.00">engine/public/util</text>
<text text-anchor="middle" x="846.5" y="-128" font-family="Helvetica,sans-Serif" font-size="10.00">/point.h</text>
</a>
</g>
</g>
<!-- Node1&#45;&gt;Node9 -->
<g id="edge49_Node000001_Node000009" class="edge">
<title>Node1&#45;&gt;Node9</title>
<g id="a_edge49_Node000001_Node000009"><a xlink:title=" ">
<path fill="none" stroke="#63b8ff" d="M381.68,-336.29C525.69,-330.66 873.08,-314.01 915.5,-283 951.38,-256.77 966.63,-224.95 943.5,-187 934.93,-172.93 920.98,-162.65 906.31,-155.21"/>
<polygon fill="#63b8ff" stroke="#63b8ff" points="907.67,-151.98 897.12,-150.94 904.71,-158.33 907.67,-151.98"/>
</a>
</g>
</g>
<!-- Node11 -->
<g id="Node000011" class="node">
<title>Node11</title>
<g id="a_Node000011"><a xlink:href="physics__world_8h.html" target="_top" xlink:title=" ">
<polygon fill="white" stroke="#666666" points="906,-283 787,-283 787,-253 906,-253 906,-283"/>
<text text-anchor="start" x="795" y="-271" font-family="Helvetica,sans-Serif" font-size="10.00">engine/physics/world</text>
<text text-anchor="middle" x="846.5" y="-260" font-family="Helvetica,sans-Serif" font-size="10.00">/physics_world.h</text>
</a>
</g>
</g>
<!-- Node1&#45;&gt;Node11 -->
<g id="edge13_Node000001_Node000011" class="edge">
<title>Node1&#45;&gt;Node11</title>
<g id="a_edge13_Node000001_Node000011"><a xlink:title=" ">
<path fill="none" stroke="#63b8ff" d="M381.5,-330.32C480.38,-317.28 673.15,-291.86 776.71,-278.2"/>
<polygon fill="#63b8ff" stroke="#63b8ff" points="777.3,-281.66 786.76,-276.88 776.39,-274.72 777.3,-281.66"/>
</a>
</g>
</g>
<!-- Node17 -->
<g id="Node000017" class="node">
<title>Node17</title>
<g id="a_Node000017"><a xlink:href="component_8h.html" target="_top" xlink:title=" ">
<polygon fill="white" stroke="#666666" points="216,-145.5 67,-145.5 67,-126.5 216,-126.5 216,-145.5"/>
<text text-anchor="middle" x="141.5" y="-133.5" font-family="Helvetica,sans-Serif" font-size="10.00">engine/public/component.h</text>
</a>
</g>
</g>
<!-- Node1&#45;&gt;Node17 -->
<g id="edge45_Node000001_Node000017" class="edge">
<title>Node1&#45;&gt;Node17</title>
<g id="a_edge45_Node000001_Node000017"><a xlink:title=" ">
<path fill="none" stroke="#63b8ff" d="M257.36,-332.21C223.92,-325.49 184.85,-311.6 161.5,-283 131.52,-246.27 134.46,-186.21 138.38,-155.84"/>
<polygon fill="#63b8ff" stroke="#63b8ff" points="141.87,-156.17 139.86,-145.77 134.94,-155.15 141.87,-156.17"/>
</a>
</g>
</g>
<!-- Node20 -->
<g id="Node000020" class="node">
<title>Node20</title>
<g id="a_Node000020"><a xlink:href="rigidbody__2d_8h.html" target="_top" xlink:title=" ">
<polygon fill="white" stroke="#666666" points="315,-283 170,-283 170,-253 315,-253 315,-283"/>
<text text-anchor="start" x="178" y="-271" font-family="Helvetica,sans-Serif" font-size="10.00">engine/public/components</text>
<text text-anchor="middle" x="242.5" y="-260" font-family="Helvetica,sans-Serif" font-size="10.00">/rigidbody_2d.h</text>
</a>
</g>
</g>
<!-- Node1&#45;&gt;Node20 -->
<g id="edge46_Node000001_Node000020" class="edge">
<title>Node1&#45;&gt;Node20</title>
<g id="a_edge46_Node000001_Node000020"><a xlink:title=" ">
<path fill="none" stroke="#63b8ff" d="M297.64,-318.77C287.68,-309.78 275.87,-299.12 265.75,-289.98"/>
<polygon fill="#63b8ff" stroke="#63b8ff" points="267.82,-287.14 258.05,-283.04 263.13,-292.34 267.82,-287.14"/>
</a>
</g>
</g>
<!-- Node5 -->
<g id="Node000005" class="node">
<title>Node5</title>
<g id="a_Node000005"><a xlink:title=" ">
<polygon fill="#e0e0e0" stroke="#999999" points="1124.5,-19 1074.5,-19 1074.5,0 1124.5,0 1124.5,-19"/>
<text text-anchor="middle" x="1099.5" y="-7" font-family="Helvetica,sans-Serif" font-size="10.00">cstdint</text>
</a>
</g>
</g>
<!-- Node4&#45;&gt;Node5 -->
<g id="edge4_Node000004_Node000005" class="edge">
<title>Node4&#45;&gt;Node5</title>
<g id="a_edge4_Node000004_Node000005"><a xlink:title=" ">
<path fill="none" stroke="#63b8ff" d="M1195.55,-120.88C1193.75,-103.71 1188.55,-74.6 1173.5,-55 1162.87,-41.15 1146.59,-30.69 1132.01,-23.4"/>
<polygon fill="#63b8ff" stroke="#63b8ff" points="1133.28,-20.14 1122.74,-19.07 1130.32,-26.48 1133.28,-20.14"/>
</a>
</g>
</g>
<!-- Node6&#45;&gt;Node3 -->
<g id="edge8_Node000006_Node000003" class="edge">
<title>Node6&#45;&gt;Node3</title>
<g id="a_edge8_Node000006_Node000003"><a xlink:title=" ">
<path fill="none" stroke="#63b8ff" d="M371.54,-252.8C358,-244.14 342.28,-231.87 332.5,-217 306.12,-176.88 298.55,-119.2 296.37,-89.79"/>
<polygon fill="#63b8ff" stroke="#63b8ff" points="299.86,-89.45 295.76,-79.68 292.87,-89.87 299.86,-89.45"/>
</a>
</g>
</g>
<!-- Node7 -->
<g id="Node000007" class="node">
<title>Node7</title>
<g id="a_Node000007"><a xlink:title=" ">
<polygon fill="#e0e0e0" stroke="#999999" points="665,-19 576,-19 576,0 665,0 665,-19"/>
<text text-anchor="middle" x="620.5" y="-7" font-family="Helvetica,sans-Serif" font-size="10.00">box2d/box2d.h</text>
</a>
</g>
</g>
<!-- Node6&#45;&gt;Node7 -->
<g id="edge6_Node000006_Node000007" class="edge">
<title>Node6&#45;&gt;Node7</title>
<g id="a_edge6_Node000006_Node000007"><a xlink:title=" ">
<path fill="none" stroke="#63b8ff" d="M362.65,-252.87C345.86,-244.56 326.59,-232.6 313.5,-217 265.07,-159.27 213.62,-111.48 263.5,-55 283.17,-32.73 470.9,-18.98 565.94,-13.39"/>
<polygon fill="#63b8ff" stroke="#63b8ff" points="566.16,-16.88 575.95,-12.81 565.76,-9.89 566.16,-16.88"/>
</a>
</g>
</g>
<!-- Node8 -->
<g id="Node000008" class="node">
<title>Node8</title>
<g id="a_Node000008"><a xlink:title=" ">
<polygon fill="#e0e0e0" stroke="#999999" points="410.5,-79.5 352.5,-79.5 352.5,-60.5 410.5,-60.5 410.5,-79.5"/>
<text text-anchor="middle" x="381.5" y="-67.5" font-family="Helvetica,sans-Serif" font-size="10.00">memory</text>
</a>
</g>
</g>
<!-- Node6&#45;&gt;Node8 -->
<g id="edge7_Node000006_Node000008" class="edge">
<title>Node6&#45;&gt;Node8</title>
<g id="a_edge7_Node000006_Node000008"><a xlink:title=" ">
<path fill="none" stroke="#63b8ff" d="M374.85,-252.83C363.13,-244.09 349.95,-231.75 343.5,-217 324.08,-172.56 352.64,-116.02 369.92,-88.14"/>
<polygon fill="#63b8ff" stroke="#63b8ff" points="372.99,-89.84 375.47,-79.54 367.11,-86.04 372.99,-89.84"/>
</a>
</g>
</g>
<!-- Node6&#45;&gt;Node9 -->
<g id="edge9_Node000006_Node000009" class="edge">
<title>Node6&#45;&gt;Node9</title>
<g id="a_edge9_Node000006_Node000009"><a xlink:title=" ">
<path fill="none" stroke="#63b8ff" d="M461.79,-261.61C521.87,-255.27 613.47,-242.23 689.5,-217 735.42,-201.76 784.51,-174.82 815.34,-156.45"/>
<polygon fill="#63b8ff" stroke="#63b8ff" points="817.55,-159.21 824.3,-151.05 813.93,-153.22 817.55,-159.21"/>
</a>
</g>
</g>
<!-- Node10 -->
<g id="Node000010" class="node">
<title>Node10</title>
<g id="a_Node000010"><a xlink:href="collider__ray__result_8h.html" target="_top" xlink:title=" ">
<polygon fill="white" stroke="#666666" points="680.5,-217 552.5,-217 552.5,-187 680.5,-187 680.5,-217"/>
<text text-anchor="start" x="560.5" y="-205" font-family="Helvetica,sans-Serif" font-size="10.00">engine/physics/raycast</text>
<text text-anchor="middle" x="616.5" y="-194" font-family="Helvetica,sans-Serif" font-size="10.00">/collider_ray_result.h</text>
</a>
</g>
</g>
<!-- Node6&#45;&gt;Node10 -->
<g id="edge10_Node000006_Node000010" class="edge">
<title>Node6&#45;&gt;Node10</title>
<g id="a_edge10_Node000006_Node000010"><a xlink:title=" ">
<path fill="none" stroke="#63b8ff" d="M445.56,-252.95C478.94,-243.2 523.57,-230.16 558.86,-219.84"/>
<polygon fill="#63b8ff" stroke="#63b8ff" points="559.93,-223.18 568.55,-217.01 557.97,-216.46 559.93,-223.18"/>
</a>
</g>
</g>
<!-- Node10&#45;&gt;Node7 -->
<g id="edge11_Node000010_Node000007" class="edge">
<title>Node10&#45;&gt;Node7</title>
<g id="a_edge11_Node000010_Node000007"><a xlink:title=" ">
<path fill="none" stroke="#63b8ff" d="M614.67,-186.59C613.51,-176.61 612.1,-163.02 611.5,-151 609.33,-107.41 614.56,-56.27 617.93,-29.32"/>
<polygon fill="#63b8ff" stroke="#63b8ff" points="621.45,-29.42 619.27,-19.05 614.51,-28.51 621.45,-29.42"/>
</a>
</g>
</g>
<!-- Node10&#45;&gt;Node9 -->
<g id="edge12_Node000010_Node000009" class="edge">
<title>Node10&#45;&gt;Node9</title>
<g id="a_edge12_Node000010_Node000009"><a xlink:title=" ">
<path fill="none" stroke="#63b8ff" d="M666.97,-186.95C702.18,-177.16 749.31,-164.05 786.44,-153.71"/>
<polygon fill="#63b8ff" stroke="#63b8ff" points="787.45,-157.07 796.14,-151.01 785.57,-150.32 787.45,-157.07"/>
</a>
</g>
</g>
<!-- Node11&#45;&gt;Node7 -->
<g id="edge14_Node000011_Node000007" class="edge">
<title>Node11&#45;&gt;Node7</title>
<g id="a_edge14_Node000011_Node000007"><a xlink:title=" ">
<path fill="none" stroke="#63b8ff" d="M906.2,-254.38C926.3,-246.97 946.62,-235.31 958.5,-217 1000.04,-152.97 962.23,-101.23 901.5,-55 866.9,-28.66 746.94,-17.5 675.43,-13.1"/>
<polygon fill="#63b8ff" stroke="#63b8ff" points="675.44,-9.6 665.25,-12.5 675.02,-16.58 675.44,-9.6"/>
</a>
</g>
</g>
<!-- Node11&#45;&gt;Node8 -->
<g id="edge15_Node000011_Node000008" class="edge">
<title>Node11&#45;&gt;Node8</title>
<g id="a_edge15_Node000011_Node000008"><a xlink:title=" ">
<path fill="none" stroke="#63b8ff" d="M786.96,-265.03C666.61,-260.43 403.49,-247.01 376.5,-217 360.13,-198.79 371.3,-124.98 377.78,-89.81"/>
<polygon fill="#63b8ff" stroke="#63b8ff" points="381.24,-90.35 379.68,-79.87 374.36,-89.04 381.24,-90.35"/>
</a>
</g>
</g>
<!-- Node11&#45;&gt;Node9 -->
<g id="edge44_Node000011_Node000009" class="edge">
<title>Node11&#45;&gt;Node9</title>
<g id="a_edge44_Node000011_Node000009"><a xlink:title=" ">
<path fill="none" stroke="#63b8ff" d="M885.57,-252.89C901.55,-244.96 918.4,-233.31 927.5,-217 934,-205.36 934,-198.64 927.5,-187 920.11,-173.75 907.6,-163.57 894.6,-155.97"/>
<polygon fill="#63b8ff" stroke="#63b8ff" points="896.03,-152.77 885.57,-151.11 892.72,-158.93 896.03,-152.77"/>
</a>
</g>
</g>
<!-- Node12 -->
<g id="Node000012" class="node">
<title>Node12</title>
<g id="a_Node000012"><a xlink:href="physics__creation__factory_8h.html" target="_top" xlink:title=" ">
<polygon fill="white" stroke="#666666" points="534,-217 385,-217 385,-187 534,-187 534,-217"/>
<text text-anchor="start" x="393" y="-205" font-family="Helvetica,sans-Serif" font-size="10.00">engine/physics/creation</text>
<text text-anchor="middle" x="459.5" y="-194" font-family="Helvetica,sans-Serif" font-size="10.00">/physics_creation_factory.h</text>
</a>
</g>
</g>
<!-- Node11&#45;&gt;Node12 -->
<g id="edge16_Node000011_Node000012" class="edge">
<title>Node11&#45;&gt;Node12</title>
<g id="a_edge16_Node000011_Node000012"><a xlink:title=" ">
<path fill="none" stroke="#63b8ff" d="M786.99,-257.21C728.04,-247.5 634.88,-232.15 544.07,-217.09"/>
<polygon fill="#63b8ff" stroke="#63b8ff" points="544.59,-213.63 534.15,-215.45 543.45,-220.54 544.59,-213.63"/>
</a>
</g>
</g>
<!-- Node14 -->
<g id="Node000014" class="node">
<title>Node14</title>
<g id="a_Node000014"><a xlink:href="body__2d_8h.html" target="_top" xlink:title=" ">
<polygon fill="white" stroke="#666666" points="739,-151 620,-151 620,-121 739,-121 739,-151"/>
<text text-anchor="start" x="628" y="-139" font-family="Helvetica,sans-Serif" font-size="10.00">engine/physics/world</text>
<text text-anchor="middle" x="679.5" y="-128" font-family="Helvetica,sans-Serif" font-size="10.00">/body/body_2d.h</text>
</a>
</g>
</g>
<!-- Node11&#45;&gt;Node14 -->
<g id="edge39_Node000011_Node000014" class="edge">
<title>Node11&#45;&gt;Node14</title>
<g id="a_edge39_Node000011_Node000014"><a xlink:title=" ">
<path fill="none" stroke="#63b8ff" d="M821.21,-252.82C805.06,-243.38 783.96,-230.3 766.5,-217 742.58,-198.78 717.53,-175.2 700.49,-158.37"/>
<polygon fill="#63b8ff" stroke="#63b8ff" points="702.81,-155.74 693.26,-151.16 697.87,-160.7 702.81,-155.74"/>
</a>
</g>
</g>
<!-- Node15 -->
<g id="Node000015" class="node">
<title>Node15</title>
<g id="a_Node000015"><a xlink:href="shape__type__2d_8h.html" target="_top" xlink:title=" ">
<polygon fill="white" stroke="#666666" points="1164,-85 1035,-85 1035,-55 1164,-55 1164,-85"/>
<text text-anchor="start" x="1043" y="-73" font-family="Helvetica,sans-Serif" font-size="10.00">engine/physics/world</text>
<text text-anchor="middle" x="1099.5" y="-62" font-family="Helvetica,sans-Serif" font-size="10.00">/body/shape_type_2d.h</text>
</a>
</g>
</g>
<!-- Node11&#45;&gt;Node15 -->
<g id="edge40_Node000011_Node000015" class="edge">
<title>Node11&#45;&gt;Node15</title>
<g id="a_edge40_Node000011_Node000015"><a xlink:title=" ">
<path fill="none" stroke="#63b8ff" d="M906.15,-261.42C965.76,-254.58 1051.73,-240.85 1074.5,-217 1105.64,-184.39 1105.85,-127.96 1102.89,-95.64"/>
<polygon fill="#63b8ff" stroke="#63b8ff" points="1106.33,-94.85 1101.76,-85.29 1099.37,-95.61 1106.33,-94.85"/>
</a>
</g>
</g>
<!-- Node16 -->
<g id="Node000016" class="node">
<title>Node16</title>
<g id="a_Node000016"><a xlink:href="vector3_8h.html" target="_top" xlink:title=" ">
<polygon fill="white" stroke="#666666" points="892,-85 791,-85 791,-55 892,-55 892,-85"/>
<text text-anchor="start" x="799" y="-73" font-family="Helvetica,sans-Serif" font-size="10.00">engine/public/util</text>
<text text-anchor="middle" x="841.5" y="-62" font-family="Helvetica,sans-Serif" font-size="10.00">/vector3.h</text>
</a>
</g>
</g>
<!-- Node11&#45;&gt;Node16 -->
<g id="edge43_Node000011_Node000016" class="edge">
<title>Node11&#45;&gt;Node16</title>
<g id="a_edge43_Node000011_Node000016"><a xlink:title=" ">
<path fill="none" stroke="#63b8ff" d="M897.38,-252.95C915.14,-245.34 933.2,-233.91 943.5,-217 950.44,-205.62 946.87,-199.9 943.5,-187 935,-154.46 928.5,-146.44 906.5,-121 896.78,-109.76 884.18,-99.37 872.66,-91.01"/>
<polygon fill="#63b8ff" stroke="#63b8ff" points="874.33,-87.91 864.13,-85.03 870.31,-93.64 874.33,-87.91"/>
</a>
</g>
</g>
<!-- Node19 -->
<g id="Node000019" class="node">
<title>Node19</title>
<g id="a_Node000019"><a xlink:href="body__distance__2d_8h.html" target="_top" xlink:title=" ">
<polygon fill="white" stroke="#666666" points="918,-217 775,-217 775,-187 918,-187 918,-217"/>
<text text-anchor="start" x="783" y="-205" font-family="Helvetica,sans-Serif" font-size="10.00">engine/physics/world</text>
<text text-anchor="middle" x="846.5" y="-194" font-family="Helvetica,sans-Serif" font-size="10.00">/body/body_distance_2d.h</text>
</a>
</g>
</g>
<!-- Node11&#45;&gt;Node19 -->
<g id="edge41_Node000011_Node000019" class="edge">
<title>Node11&#45;&gt;Node19</title>
<g id="a_edge41_Node000011_Node000019"><a xlink:title=" ">
<path fill="none" stroke="#63b8ff" d="M846.5,-252.8C846.5,-245.34 846.5,-235.99 846.5,-227.41"/>
<polygon fill="#63b8ff" stroke="#63b8ff" points="850,-227.16 846.5,-217.16 843,-227.16 850,-227.16"/>
</a>
</g>
</g>
<!-- Node12&#45;&gt;Node3 -->
<g id="edge19_Node000012_Node000003" class="edge">
<title>Node12&#45;&gt;Node3</title>
<g id="a_edge19_Node000012_Node000003"><a xlink:title=" ">
<path fill="none" stroke="#63b8ff" d="M441.64,-186.84C410.52,-162.18 346.66,-111.56 314.66,-86.19"/>
<polygon fill="#63b8ff" stroke="#63b8ff" points="316.55,-83.22 306.54,-79.75 312.2,-88.7 316.55,-83.22"/>
</a>
</g>
</g>
<!-- Node12&#45;&gt;Node4 -->
<g id="edge20_Node000012_Node000004" class="edge">
<title>Node12&#45;&gt;Node4</title>
<g id="a_edge20_Node000012_Node000004"><a xlink:title=" ">
<path fill="none" stroke="#63b8ff" d="M534.11,-188.21C537.28,-187.78 540.42,-187.37 543.5,-187 749.35,-162.02 993.31,-147.25 1116.61,-140.83"/>
<polygon fill="#63b8ff" stroke="#63b8ff" points="1116.91,-144.32 1126.72,-140.31 1116.55,-137.33 1116.91,-144.32"/>
</a>
</g>
</g>
<!-- Node12&#45;&gt;Node7 -->
<g id="edge17_Node000012_Node000007" class="edge">
<title>Node12&#45;&gt;Node7</title>
<g id="a_edge17_Node000012_Node000007"><a xlink:title=" ">
<path fill="none" stroke="#63b8ff" d="M471.34,-186.99C500.38,-152.63 575.06,-64.26 606.37,-27.22"/>
<polygon fill="#63b8ff" stroke="#63b8ff" points="609.23,-29.26 613.01,-19.36 603.88,-24.74 609.23,-29.26"/>
</a>
</g>
</g>
<!-- Node12&#45;&gt;Node8 -->
<g id="edge18_Node000012_Node000008" class="edge">
<title>Node12&#45;&gt;Node8</title>
<g id="a_edge18_Node000012_Node000008"><a xlink:title=" ">
<path fill="none" stroke="#63b8ff" d="M451,-186.84C436.65,-162.92 407.64,-114.56 392.02,-88.53"/>
<polygon fill="#63b8ff" stroke="#63b8ff" points="394.9,-86.52 386.75,-79.75 388.89,-90.12 394.9,-86.52"/>
</a>
</g>
</g>
<!-- Node12&#45;&gt;Node9 -->
<g id="edge37_Node000012_Node000009" class="edge">
<title>Node12&#45;&gt;Node9</title>
<g id="a_edge37_Node000012_Node000009"><a xlink:title=" ">
<path fill="none" stroke="#63b8ff" d="M534.15,-188.5C537.31,-187.99 540.43,-187.49 543.5,-187 649.15,-170.21 676.27,-170.27 781.5,-151 782.95,-150.73 784.43,-150.46 785.91,-150.18"/>
<polygon fill="#63b8ff" stroke="#63b8ff" points="786.68,-153.59 795.82,-148.23 785.33,-146.72 786.68,-153.59"/>
</a>
</g>
</g>
<!-- Node13 -->
<g id="Node000013" class="node">
<title>Node13</title>
<g id="a_Node000013"><a xlink:href="body__type__2d_8h.html" target="_top" xlink:title=" ">
<polygon fill="white" stroke="#666666" points="772.5,-85 648.5,-85 648.5,-55 772.5,-55 772.5,-85"/>
<text text-anchor="start" x="656.5" y="-73" font-family="Helvetica,sans-Serif" font-size="10.00">engine/physics/world</text>
<text text-anchor="middle" x="710.5" y="-62" font-family="Helvetica,sans-Serif" font-size="10.00">/body/body_type_2d.h</text>
</a>
</g>
</g>
<!-- Node12&#45;&gt;Node13 -->
<g id="edge21_Node000012_Node000013" class="edge">
<title>Node12&#45;&gt;Node13</title>
<g id="a_edge21_Node000012_Node000013"><a xlink:title=" ">
<path fill="none" stroke="#63b8ff" d="M485.79,-186.99C516.04,-170.91 567.24,-143.82 611.5,-121 631.85,-110.51 654.66,-98.97 673.24,-89.63"/>
<polygon fill="#63b8ff" stroke="#63b8ff" points="674.9,-92.71 682.27,-85.1 671.76,-86.46 674.9,-92.71"/>
</a>
</g>
</g>
<!-- Node12&#45;&gt;Node14 -->
<g id="edge24_Node000012_Node000014" class="edge">
<title>Node12&#45;&gt;Node14</title>
<g id="a_edge24_Node000012_Node000014"><a xlink:title=" ">
<path fill="none" stroke="#63b8ff" d="M507.78,-186.95C541.31,-177.2 586.15,-164.16 621.6,-153.84"/>
<polygon fill="#63b8ff" stroke="#63b8ff" points="622.71,-157.17 631.33,-151.01 620.75,-150.44 622.71,-157.17"/>
</a>
</g>
</g>
<!-- Node12&#45;&gt;Node16 -->
<g id="edge38_Node000012_Node000016" class="edge">
<title>Node12&#45;&gt;Node16</title>
<g id="a_edge38_Node000012_Node000016"><a xlink:title=" ">
<path fill="none" stroke="#63b8ff" d="M534.23,-188.32C619.04,-173.89 746.05,-152.16 748.5,-151 756.54,-147.21 793.64,-114.34 818.48,-91.94"/>
<polygon fill="#63b8ff" stroke="#63b8ff" points="820.99,-94.38 826.06,-85.08 816.3,-89.19 820.99,-94.38"/>
</a>
</g>
</g>
<!-- Node12&#45;&gt;Node17 -->
<g id="edge32_Node000012_Node000017" class="edge">
<title>Node12&#45;&gt;Node17</title>
<g id="a_edge32_Node000012_Node000017"><a xlink:title=" ">
<path fill="none" stroke="#63b8ff" d="M389.71,-186.95C330.63,-175.06 247.24,-158.28 193.77,-147.52"/>
<polygon fill="#63b8ff" stroke="#63b8ff" points="194.31,-144.06 183.82,-145.52 192.93,-150.92 194.31,-144.06"/>
</a>
</g>
</g>
<!-- Node13&#45;&gt;Node5 -->
<g id="edge23_Node000013_Node000005" class="edge">
<title>Node13&#45;&gt;Node5</title>
<g id="a_edge23_Node000013_Node000005"><a xlink:title=" ">
<path fill="none" stroke="#63b8ff" d="M772.52,-56.73C775.89,-56.13 779.23,-55.55 782.5,-55 884.41,-37.95 1005.5,-22.19 1064.16,-14.84"/>
<polygon fill="#63b8ff" stroke="#63b8ff" points="1064.87,-18.28 1074.36,-13.57 1064.01,-11.34 1064.87,-18.28"/>
</a>
</g>
</g>
<!-- Node13&#45;&gt;Node7 -->
<g id="edge22_Node000013_Node000007" class="edge">
<title>Node13&#45;&gt;Node7</title>
<g id="a_edge22_Node000013_Node000007"><a xlink:title=" ">
<path fill="none" stroke="#63b8ff" d="M688.71,-54.84C674.63,-45.68 656.37,-33.82 642.29,-24.66"/>
<polygon fill="#63b8ff" stroke="#63b8ff" points="644.01,-21.61 633.72,-19.09 640.2,-27.48 644.01,-21.61"/>
</a>
</g>
</g>
<!-- Node14&#45;&gt;Node3 -->
<g id="edge26_Node000014_Node000003" class="edge">
<title>Node14&#45;&gt;Node3</title>
<g id="a_edge26_Node000014_Node000003"><a xlink:title=" ">
<path fill="none" stroke="#63b8ff" d="M619.88,-128.61C552.36,-120.81 439.27,-105.99 343.5,-85 338.77,-83.96 333.82,-82.71 328.97,-81.39"/>
<polygon fill="#63b8ff" stroke="#63b8ff" points="329.84,-78 319.26,-78.62 327.92,-84.73 329.84,-78"/>
</a>
</g>
</g>
<!-- Node14&#45;&gt;Node7 -->
<g id="edge25_Node000014_Node000007" class="edge">
<title>Node14&#45;&gt;Node7</title>
<g id="a_edge25_Node000014_Node000007"><a xlink:title=" ">
<path fill="none" stroke="#63b8ff" d="M665.43,-120.84C656.79,-111.41 646.14,-98.33 639.5,-85 630.59,-67.12 625.6,-44.68 623,-29.13"/>
<polygon fill="#63b8ff" stroke="#63b8ff" points="626.45,-28.55 621.5,-19.18 619.53,-29.59 626.45,-28.55"/>
</a>
</g>
</g>
<!-- Node14&#45;&gt;Node13 -->
<g id="edge30_Node000014_Node000013" class="edge">
<title>Node14&#45;&gt;Node13</title>
<g id="a_edge30_Node000014_Node000013"><a xlink:title=" ">
<path fill="none" stroke="#63b8ff" d="M686.38,-120.8C690.15,-113.01 694.92,-103.16 699.23,-94.28"/>
<polygon fill="#63b8ff" stroke="#63b8ff" points="702.43,-95.69 703.64,-85.16 696.13,-92.64 702.43,-95.69"/>
</a>
</g>
</g>
<!-- Node14&#45;&gt;Node15 -->
<g id="edge27_Node000014_Node000015" class="edge">
<title>Node14&#45;&gt;Node15</title>
<g id="a_edge27_Node000014_Node000015"><a xlink:title=" ">
<path fill="none" stroke="#63b8ff" d="M739.23,-125.9C814.27,-114.46 943.06,-94.84 1024.61,-82.41"/>
<polygon fill="#63b8ff" stroke="#63b8ff" points="1025.45,-85.82 1034.81,-80.86 1024.39,-78.9 1025.45,-85.82"/>
</a>
</g>
</g>
<!-- Node14&#45;&gt;Node16 -->
<g id="edge31_Node000014_Node000016" class="edge">
<title>Node14&#45;&gt;Node16</title>
<g id="a_edge31_Node000014_Node000016"><a xlink:title=" ">
<path fill="none" stroke="#63b8ff" d="M715.05,-120.95C739,-111.49 770.79,-98.93 796.5,-88.78"/>
<polygon fill="#63b8ff" stroke="#63b8ff" points="798.02,-91.94 806.03,-85.01 795.44,-85.43 798.02,-91.94"/>
</a>
</g>
</g>
<!-- Node15&#45;&gt;Node5 -->
<g id="edge29_Node000015_Node000005" class="edge">
<title>Node15&#45;&gt;Node5</title>
<g id="a_edge29_Node000015_Node000005"><a xlink:title=" ">
<path fill="none" stroke="#63b8ff" d="M1099.5,-54.84C1099.5,-47.21 1099.5,-37.7 1099.5,-29.45"/>
<polygon fill="#63b8ff" stroke="#63b8ff" points="1103,-29.27 1099.5,-19.27 1096,-29.27 1103,-29.27"/>
</a>
</g>
</g>
<!-- Node15&#45;&gt;Node7 -->
<g id="edge28_Node000015_Node000007" class="edge">
<title>Node15&#45;&gt;Node7</title>
<g id="a_edge28_Node000015_Node000007"><a xlink:title=" ">
<path fill="none" stroke="#63b8ff" d="M1034.89,-57.2C1030.02,-56.42 1025.19,-55.68 1020.5,-55 897.39,-37.26 752.09,-22.68 674.98,-15.44"/>
<polygon fill="#63b8ff" stroke="#63b8ff" points="675.29,-11.95 665.01,-14.5 674.64,-18.92 675.29,-11.95"/>
</a>
</g>
</g>
<!-- Node17&#45;&gt;Node2 -->
<g id="edge33_Node000017_Node000002" class="edge">
<title>Node17&#45;&gt;Node2</title>
<g id="a_edge33_Node000017_Node000002"><a xlink:title=" ">
<path fill="none" stroke="#63b8ff" d="M126.8,-126.37C108.68,-115.73 77.65,-97.51 56.16,-84.89"/>
<polygon fill="#63b8ff" stroke="#63b8ff" points="57.71,-81.74 47.32,-79.7 54.17,-87.78 57.71,-81.74"/>
</a>
</g>
</g>
<!-- Node17&#45;&gt;Node3 -->
<g id="edge36_Node000017_Node000003" class="edge">
<title>Node17&#45;&gt;Node3</title>
<g id="a_edge36_Node000017_Node000003"><a xlink:title=" ">
<path fill="none" stroke="#63b8ff" d="M162.27,-126.37C188.79,-115.35 234.88,-96.19 265.29,-83.55"/>
<polygon fill="#63b8ff" stroke="#63b8ff" points="266.68,-86.77 274.57,-79.7 263.99,-80.3 266.68,-86.77"/>
</a>
</g>
</g>
<!-- Node17&#45;&gt;Node8 -->
<g id="edge34_Node000017_Node000008" class="edge">
<title>Node17&#45;&gt;Node8</title>
<g id="a_edge34_Node000017_Node000008"><a xlink:title=" ">
<path fill="none" stroke="#63b8ff" d="M173.87,-126.37C217.61,-114.7 295.53,-93.93 342.47,-81.41"/>
<polygon fill="#63b8ff" stroke="#63b8ff" points="343.51,-84.75 352.27,-78.79 341.71,-77.99 343.51,-84.75"/>
</a>
</g>
</g>
<!-- Node18 -->
<g id="Node000018" class="node">
<title>Node18</title>
<g id="a_Node000018"><a xlink:title=" ">
<polygon fill="#e0e0e0" stroke="#999999" points="169.5,-79.5 113.5,-79.5 113.5,-60.5 169.5,-60.5 169.5,-79.5"/>
<text text-anchor="middle" x="141.5" y="-67.5" font-family="Helvetica,sans-Serif" font-size="10.00">optional</text>
</a>
</g>
</g>
<!-- Node17&#45;&gt;Node18 -->
<g id="edge35_Node000017_Node000018" class="edge">
<title>Node17&#45;&gt;Node18</title>
<g id="a_edge35_Node000017_Node000018"><a xlink:title=" ">
<path fill="none" stroke="#63b8ff" d="M141.5,-126.37C141.5,-117.16 141.5,-102.29 141.5,-90.27"/>
<polygon fill="#63b8ff" stroke="#63b8ff" points="145,-89.91 141.5,-79.91 138,-89.91 145,-89.91"/>
</a>
</g>
</g>
<!-- Node19&#45;&gt;Node9 -->
<g id="edge42_Node000019_Node000009" class="edge">
<title>Node19&#45;&gt;Node9</title>
<g id="a_edge42_Node000019_Node000009"><a xlink:title=" ">
<path fill="none" stroke="#63b8ff" d="M846.5,-186.8C846.5,-179.34 846.5,-169.99 846.5,-161.41"/>
<polygon fill="#63b8ff" stroke="#63b8ff" points="850,-161.16 846.5,-151.16 843,-161.16 850,-161.16"/>
</a>
</g>
</g>
<!-- Node20&#45;&gt;Node12 -->
<g id="edge47_Node000020_Node000012" class="edge">
<title>Node20&#45;&gt;Node12</title>
<g id="a_edge47_Node000020_Node000012"><a xlink:title=" ">
<path fill="none" stroke="#63b8ff" d="M290.12,-252.95C323.19,-243.2 367.42,-230.16 402.39,-219.84"/>
<polygon fill="#63b8ff" stroke="#63b8ff" points="403.39,-223.2 411.99,-217.01 401.41,-216.48 403.39,-223.2"/>
</a>
</g>
</g>
<!-- Node20&#45;&gt;Node17 -->
<g id="edge48_Node000020_Node000017" class="edge">
<title>Node20&#45;&gt;Node17</title>
<g id="a_edge48_Node000020_Node000017"><a xlink:title=" ">
<path fill="none" stroke="#63b8ff" d="M231.5,-252.84C212.75,-228.71 174.68,-179.71 154.59,-153.85"/>
<polygon fill="#63b8ff" stroke="#63b8ff" points="157.2,-151.5 148.3,-145.75 151.67,-155.79 157.2,-151.5"/>
</a>
</g>
</g>
</g>
</svg>
