<?xml version="1.0" encoding="UTF-8" standalone="no"?>
<!DOCTYPE svg PUBLIC "-//W3C//DTD SVG 1.1//EN"
 "http://www.w3.org/Graphics/SVG/1.1/DTD/svg11.dtd">
<!-- Generated by graphviz version 2.43.0 (0)
 -->
<!-- Title: include/engine/public/component.h Pages: 1 -->
<svg width="918pt" height="335pt"
 viewBox="0.00 0.00 918.00 335.00" xmlns="http://www.w3.org/2000/svg" xmlns:xlink="http://www.w3.org/1999/xlink">
<g id="graph0" class="graph" transform="scale(1 1) rotate(0) translate(4 331)">
<title>include/engine/public/component.h</title>
<!-- Node1 -->
<g id="Node000001" class="node">
<title>Node1</title>
<g id="a_Node000001"><a xlink:title=" ">
<polygon fill="#999999" stroke="#666666" points="489,-327 369,-327 369,-297 489,-297 489,-327"/>
<text text-anchor="start" x="377" y="-315" font-family="Helvetica,sans-Serif" font-size="10.00">include/engine/public</text>
<text text-anchor="middle" x="429" y="-304" font-family="Helvetica,sans-Serif" font-size="10.00">/component.h</text>
</a>
</g>
</g>
<!-- Node2 -->
<g id="Node000002" class="node">
<title>Node2</title>
<g id="a_Node000002"><a xlink:href="physics__creation__factory_8h.html" target="_top" xlink:title=" ">
<polygon fill="white" stroke="#666666" points="246,-261 102,-261 102,-220 246,-220 246,-261"/>
<text text-anchor="start" x="110" y="-249" font-family="Helvetica,sans-Serif" font-size="10.00">include/engine/physics</text>
<text text-anchor="start" x="110" y="-238" font-family="Helvetica,sans-Serif" font-size="10.00">/creation/physics_creation</text>
<text text-anchor="middle" x="174" y="-227" font-family="Helvetica,sans-Serif" font-size="10.00">_factory.h</text>
</a>
</g>
</g>
<!-- Node1&#45;&gt;Node2 -->
<g id="edge1_Node000001_Node000002" class="edge">
<title>Node1&#45;&gt;Node2</title>
<g id="a_edge1_Node000001_Node000002"><a xlink:title=" ">
<path fill="none" stroke="#63b8ff" d="M367.35,-294.2C330.72,-284.21 284.1,-271.51 245.82,-261.07"/>
<polygon fill="#63b8ff" stroke="#63b8ff" points="366.83,-297.68 377.4,-296.94 368.67,-290.93 366.83,-297.68"/>
</a>
</g>
</g>
<!-- Node5 -->
<g id="Node000005" class="node">
<title>Node5</title>
<g id="a_Node000005"><a xlink:href="collider__2d_8h.html" target="_top" xlink:title=" ">
<polygon fill="white" stroke="#666666" points="332,-118 208,-118 208,-77 332,-77 332,-118"/>
<text text-anchor="start" x="216" y="-106" font-family="Helvetica,sans-Serif" font-size="10.00">include/engine/public</text>
<text text-anchor="start" x="216" y="-95" font-family="Helvetica,sans-Serif" font-size="10.00">/components/colliders</text>
<text text-anchor="middle" x="270" y="-84" font-family="Helvetica,sans-Serif" font-size="10.00">/collider_2d.h</text>
</a>
</g>
</g>
<!-- Node1&#45;&gt;Node5 -->
<g id="edge11_Node000001_Node000005" class="edge">
<title>Node1&#45;&gt;Node5</title>
<g id="a_edge11_Node000001_Node000005"><a xlink:title=" ">
<path fill="none" stroke="#63b8ff" d="M412.01,-288.57C406.14,-280.2 399.83,-270.43 395,-261 371.93,-215.95 387.57,-193.56 356,-154 344.25,-139.28 327.49,-127.23 311.87,-118.17"/>
<polygon fill="#63b8ff" stroke="#63b8ff" points="409.19,-290.65 417.88,-296.72 414.87,-286.56 409.19,-290.65"/>
</a>
</g>
</g>
<!-- Node8 -->
<g id="Node000008" class="node">
<title>Node8</title>
<g id="a_Node000008"><a xlink:href="rigidbody__2d_8h.html" target="_top" xlink:title=" ">
<polygon fill="white" stroke="#666666" points="347.5,-184 192.5,-184 192.5,-154 347.5,-154 347.5,-184"/>
<text text-anchor="start" x="200.5" y="-172" font-family="Helvetica,sans-Serif" font-size="10.00">include/engine/public</text>
<text text-anchor="middle" x="270" y="-161" font-family="Helvetica,sans-Serif" font-size="10.00">/components/rigidbody_2d.h</text>
</a>
</g>
</g>
<!-- Node1&#45;&gt;Node8 -->
<g id="edge12_Node000001_Node000008" class="edge">
<title>Node1&#45;&gt;Node8</title>
<g id="a_edge12_Node000001_Node000008"><a xlink:title=" ">
<path fill="none" stroke="#63b8ff" d="M400.1,-290.79C388.03,-282 374.04,-271.36 362,-261 332.37,-235.5 300.52,-202.63 283.15,-184.18"/>
<polygon fill="#63b8ff" stroke="#63b8ff" points="398.34,-293.83 408.5,-296.83 402.43,-288.15 398.34,-293.83"/>
</a>
</g>
</g>
<!-- Node9 -->
<g id="Node000009" class="node">
<title>Node9</title>
<g id="a_Node000009"><a xlink:href="audio__source_8h.html" target="_top" xlink:title=" ">
<polygon fill="white" stroke="#666666" points="560,-255.5 404,-255.5 404,-225.5 560,-225.5 560,-255.5"/>
<text text-anchor="start" x="412" y="-243.5" font-family="Helvetica,sans-Serif" font-size="10.00">include/engine/public</text>
<text text-anchor="middle" x="482" y="-232.5" font-family="Helvetica,sans-Serif" font-size="10.00">/components/audio_source.h</text>
</a>
</g>
</g>
<!-- Node1&#45;&gt;Node9 -->
<g id="edge10_Node000001_Node000009" class="edge">
<title>Node1&#45;&gt;Node9</title>
<g id="a_edge10_Node000001_Node000009"><a xlink:title=" ">
<path fill="none" stroke="#63b8ff" d="M446,-288.71C454.3,-277.82 464.04,-265.05 471.29,-255.54"/>
<polygon fill="#63b8ff" stroke="#63b8ff" points="443.01,-286.86 439.73,-296.94 448.57,-291.11 443.01,-286.86"/>
</a>
</g>
</g>
<!-- Node10 -->
<g id="Node000010" class="node">
<title>Node10</title>
<g id="a_Node000010"><a xlink:href="sprite_8h.html" target="_top" xlink:title=" ">
<polygon fill="white" stroke="#666666" points="698,-255.5 578,-255.5 578,-225.5 698,-225.5 698,-255.5"/>
<text text-anchor="start" x="586" y="-243.5" font-family="Helvetica,sans-Serif" font-size="10.00">include/engine/public</text>
<text text-anchor="middle" x="638" y="-232.5" font-family="Helvetica,sans-Serif" font-size="10.00">/components/sprite.h</text>
</a>
</g>
</g>
<!-- Node1&#45;&gt;Node10 -->
<g id="edge13_Node000001_Node000010" class="edge">
<title>Node1&#45;&gt;Node10</title>
<g id="a_edge13_Node000001_Node000010"><a xlink:title=" ">
<path fill="none" stroke="#63b8ff" d="M480.97,-293.72C516.37,-281.95 562.64,-266.56 595.77,-255.54"/>
<polygon fill="#63b8ff" stroke="#63b8ff" points="479.68,-290.46 471.29,-296.94 481.89,-297.1 479.68,-290.46"/>
</a>
</g>
</g>
<!-- Node11 -->
<g id="Node000011" class="node">
<title>Node11</title>
<g id="a_Node000011"><a xlink:href="game_object_8h.html" target="_top" xlink:title=" ">
<polygon fill="white" stroke="#666666" points="836,-255.5 716,-255.5 716,-225.5 836,-225.5 836,-255.5"/>
<text text-anchor="start" x="724" y="-243.5" font-family="Helvetica,sans-Serif" font-size="10.00">include/engine/public</text>
<text text-anchor="middle" x="776" y="-232.5" font-family="Helvetica,sans-Serif" font-size="10.00">/gameObject.h</text>
</a>
</g>
</g>
<!-- Node1&#45;&gt;Node11 -->
<g id="edge14_Node000001_Node000011" class="edge">
<title>Node1&#45;&gt;Node11</title>
<g id="a_edge14_Node000001_Node000011"><a xlink:title=" ">
<path fill="none" stroke="#63b8ff" d="M499.16,-300.32C555.6,-291.27 636.79,-277.19 707,-261 714.04,-259.38 721.42,-257.49 728.65,-255.54"/>
<polygon fill="#63b8ff" stroke="#63b8ff" points="498.59,-296.87 489.27,-301.9 499.69,-303.78 498.59,-296.87"/>
</a>
</g>
</g>
<!-- Node3 -->
<g id="Node000003" class="node">
<title>Node3</title>
<g id="a_Node000003"><a xlink:href="physics__service_8h.html" target="_top" xlink:title=" ">
<polygon fill="white" stroke="#666666" points="128,-112.5 0,-112.5 0,-82.5 128,-82.5 128,-112.5"/>
<text text-anchor="start" x="8" y="-100.5" font-family="Helvetica,sans-Serif" font-size="10.00">include/engine/physics</text>
<text text-anchor="middle" x="64" y="-89.5" font-family="Helvetica,sans-Serif" font-size="10.00">/physics_service.h</text>
</a>
</g>
</g>
<!-- Node2&#45;&gt;Node3 -->
<g id="edge2_Node000002_Node000003" class="edge">
<title>Node2&#45;&gt;Node3</title>
<g id="a_edge2_Node000002_Node000003"><a xlink:title=" ">
<path fill="none" stroke="#63b8ff" d="M92.29,-223.96C70.74,-215.74 49.93,-203.19 37,-184 21.95,-161.67 39.57,-130.47 52.58,-112.59"/>
<polygon fill="#63b8ff" stroke="#63b8ff" points="91.28,-227.32 101.87,-227.33 93.6,-220.71 91.28,-227.32"/>
</a>
</g>
</g>
<!-- Node4 -->
<g id="Node000004" class="node">
<title>Node4</title>
<g id="a_Node000004"><a xlink:href="physics__world_8h.html" target="_top" xlink:title=" ">
<polygon fill="white" stroke="#666666" points="174,-184 46,-184 46,-154 174,-154 174,-184"/>
<text text-anchor="start" x="54" y="-172" font-family="Helvetica,sans-Serif" font-size="10.00">include/engine/physics</text>
<text text-anchor="middle" x="110" y="-161" font-family="Helvetica,sans-Serif" font-size="10.00">/world/physics_world.h</text>
</a>
</g>
</g>
<!-- Node2&#45;&gt;Node4 -->
<g id="edge3_Node000002_Node000004" class="edge">
<title>Node2&#45;&gt;Node4</title>
<g id="a_edge3_Node000002_Node000004"><a xlink:title=" ">
<path fill="none" stroke="#63b8ff" d="M148.92,-212.26C140.03,-202.61 130.39,-192.14 122.93,-184.04"/>
<polygon fill="#63b8ff" stroke="#63b8ff" points="146.48,-214.78 155.83,-219.77 151.63,-210.04 146.48,-214.78"/>
</a>
</g>
</g>
<!-- Node2&#45;&gt;Node8 -->
<g id="edge8_Node000002_Node000008" class="edge">
<title>Node2&#45;&gt;Node8</title>
<g id="a_edge8_Node000002_Node000008"><a xlink:title=" ">
<path fill="none" stroke="#63b8ff" d="M209.41,-213.87C223.3,-203.81 238.7,-192.66 250.51,-184.11"/>
<polygon fill="#63b8ff" stroke="#63b8ff" points="207.04,-211.26 201,-219.96 211.15,-216.93 207.04,-211.26"/>
</a>
</g>
</g>
<!-- Node4&#45;&gt;Node3 -->
<g id="edge4_Node000004_Node000003" class="edge">
<title>Node4&#45;&gt;Node3</title>
<g id="a_edge4_Node000004_Node000003"><a xlink:title=" ">
<path fill="none" stroke="#63b8ff" d="M95.03,-145.38C87.87,-134.57 79.53,-121.96 73.29,-112.54"/>
<polygon fill="#63b8ff" stroke="#63b8ff" points="92.25,-147.53 100.69,-153.94 98.09,-143.66 92.25,-147.53"/>
</a>
</g>
</g>
<!-- Node4&#45;&gt;Node5 -->
<g id="edge5_Node000004_Node000005" class="edge">
<title>Node4&#45;&gt;Node5</title>
<g id="a_edge5_Node000004_Node000005"><a xlink:title=" ">
<path fill="none" stroke="#63b8ff" d="M151.66,-149.9C174.16,-140.13 201.94,-128.06 224.94,-118.07"/>
<polygon fill="#63b8ff" stroke="#63b8ff" points="150.16,-146.74 142.38,-153.94 152.94,-153.16 150.16,-146.74"/>
</a>
</g>
</g>
<!-- Node6 -->
<g id="Node000006" class="node">
<title>Node6</title>
<g id="a_Node000006"><a xlink:href="box__collider__2d_8h.html" target="_top" xlink:title=" ">
<polygon fill="white" stroke="#666666" points="261,-41 137,-41 137,0 261,0 261,-41"/>
<text text-anchor="start" x="145" y="-29" font-family="Helvetica,sans-Serif" font-size="10.00">include/engine/public</text>
<text text-anchor="start" x="145" y="-18" font-family="Helvetica,sans-Serif" font-size="10.00">/components/colliders</text>
<text text-anchor="middle" x="199" y="-7" font-family="Helvetica,sans-Serif" font-size="10.00">/box_collider_2d.h</text>
</a>
</g>
</g>
<!-- Node5&#45;&gt;Node6 -->
<g id="edge6_Node000005_Node000006" class="edge">
<title>Node5&#45;&gt;Node6</title>
<g id="a_edge6_Node000005_Node000006"><a xlink:title=" ">
<path fill="none" stroke="#63b8ff" d="M244.45,-69.51C235.55,-60.11 225.75,-49.76 217.53,-41.07"/>
<polygon fill="#63b8ff" stroke="#63b8ff" points="241.93,-71.94 251.35,-76.79 247.01,-67.13 241.93,-71.94"/>
</a>
</g>
</g>
<!-- Node7 -->
<g id="Node000007" class="node">
<title>Node7</title>
<g id="a_Node000007"><a xlink:href="circle__collider__2d_8h.html" target="_top" xlink:title=" ">
<polygon fill="white" stroke="#666666" points="403,-41 279,-41 279,0 403,0 403,-41"/>
<text text-anchor="start" x="287" y="-29" font-family="Helvetica,sans-Serif" font-size="10.00">include/engine/public</text>
<text text-anchor="start" x="287" y="-18" font-family="Helvetica,sans-Serif" font-size="10.00">/components/colliders</text>
<text text-anchor="middle" x="341" y="-7" font-family="Helvetica,sans-Serif" font-size="10.00">/circle_collider_2d.h</text>
</a>
</g>
</g>
<!-- Node5&#45;&gt;Node7 -->
<g id="edge7_Node000005_Node000007" class="edge">
<title>Node5&#45;&gt;Node7</title>
<g id="a_edge7_Node000005_Node000007"><a xlink:title=" ">
<path fill="none" stroke="#63b8ff" d="M295.55,-69.51C304.45,-60.11 314.25,-49.76 322.47,-41.07"/>
<polygon fill="#63b8ff" stroke="#63b8ff" points="292.99,-67.13 288.65,-76.79 298.07,-71.94 292.99,-67.13"/>
</a>
</g>
</g>
<!-- Node8&#45;&gt;Node5 -->
<g id="edge9_Node000008_Node000005" class="edge">
<title>Node8&#45;&gt;Node5</title>
<g id="a_edge9_Node000008_Node000005"><a xlink:title=" ">
<path fill="none" stroke="#63b8ff" d="M270,-143.91C270,-135.47 270,-126.1 270,-118.07"/>
<polygon fill="#63b8ff" stroke="#63b8ff" points="266.5,-143.94 270,-153.94 273.5,-143.94 266.5,-143.94"/>
</a>
</g>
</g>
<!-- Node12 -->
<g id="Node000012" class="node">
<title>Node12</title>
<g id="a_Node000012"><a xlink:href="renderer_8h.html" target="_top" xlink:title=" ">
<polygon fill="white" stroke="#666666" points="756.5,-184 637.5,-184 637.5,-154 756.5,-154 756.5,-184"/>
<text text-anchor="start" x="645.5" y="-172" font-family="Helvetica,sans-Serif" font-size="10.00">include/engine/core</text>
<text text-anchor="middle" x="697" y="-161" font-family="Helvetica,sans-Serif" font-size="10.00">/rendering/renderer.h</text>
</a>
</g>
</g>
<!-- Node11&#45;&gt;Node12 -->
<g id="edge15_Node000011_Node000012" class="edge">
<title>Node11&#45;&gt;Node12</title>
<g id="a_edge15_Node000011_Node000012"><a xlink:title=" ">
<path fill="none" stroke="#63b8ff" d="M752.48,-218.81C739.73,-207.59 724.31,-194.02 712.96,-184.04"/>
<polygon fill="#63b8ff" stroke="#63b8ff" points="750.19,-221.46 760.01,-225.44 754.82,-216.2 750.19,-221.46"/>
</a>
</g>
</g>
<!-- Node14 -->
<g id="Node000014" class="node">
<title>Node14</title>
<g id="a_Node000014"><a xlink:href="scene_8h.html" target="_top" xlink:title=" ">
<polygon fill="white" stroke="#666666" points="905,-184 785,-184 785,-154 905,-154 905,-184"/>
<text text-anchor="start" x="793" y="-172" font-family="Helvetica,sans-Serif" font-size="10.00">include/engine/public</text>
<text text-anchor="middle" x="845" y="-161" font-family="Helvetica,sans-Serif" font-size="10.00">/scene.h</text>
</a>
</g>
</g>
<!-- Node11&#45;&gt;Node14 -->
<g id="edge17_Node000011_Node000014" class="edge">
<title>Node11&#45;&gt;Node14</title>
<g id="a_edge17_Node000011_Node000014"><a xlink:title=" ">
<path fill="none" stroke="#63b8ff" d="M797.18,-218.17C808.19,-207.08 821.34,-193.84 831.06,-184.04"/>
<polygon fill="#63b8ff" stroke="#63b8ff" points="794.52,-215.87 789.96,-225.44 799.49,-220.8 794.52,-215.87"/>
</a>
</g>
</g>
<!-- Node13 -->
<g id="Node000013" class="node">
<title>Node13</title>
<g id="a_Node000013"><a xlink:href="rendering_service_8h.html" target="_top" xlink:title=" ">
<polygon fill="white" stroke="#666666" points="771.5,-112.5 610.5,-112.5 610.5,-82.5 771.5,-82.5 771.5,-112.5"/>
<text text-anchor="start" x="618.5" y="-100.5" font-family="Helvetica,sans-Serif" font-size="10.00">include/engine/core</text>
<text text-anchor="middle" x="691" y="-89.5" font-family="Helvetica,sans-Serif" font-size="10.00">/rendering/renderingService.h</text>
</a>
</g>
</g>
<!-- Node12&#45;&gt;Node13 -->
<g id="edge16_Node000012_Node000013" class="edge">
<title>Node12&#45;&gt;Node13</title>
<g id="a_edge16_Node000012_Node000013"><a xlink:title=" ">
<path fill="none" stroke="#63b8ff" d="M694.91,-143.75C694.01,-133.31 692.98,-121.49 692.21,-112.54"/>
<polygon fill="#63b8ff" stroke="#63b8ff" points="691.44,-144.27 695.79,-153.94 698.41,-143.67 691.44,-144.27"/>
</a>
</g>
</g>
<!-- Node15 -->
<g id="Node000015" class="node">
<title>Node15</title>
<g id="a_Node000015"><a xlink:href="scene__service_8h.html" target="_top" xlink:title=" ">
<polygon fill="white" stroke="#666666" points="910,-112.5 790,-112.5 790,-82.5 910,-82.5 910,-112.5"/>
<text text-anchor="start" x="798" y="-100.5" font-family="Helvetica,sans-Serif" font-size="10.00">include/engine/public</text>
<text text-anchor="middle" x="850" y="-89.5" font-family="Helvetica,sans-Serif" font-size="10.00">/scene_service.h</text>
</a>
</g>
</g>
<!-- Node14&#45;&gt;Node15 -->
<g id="edge18_Node000014_Node000015" class="edge">
<title>Node14&#45;&gt;Node15</title>
<g id="a_edge18_Node000014_Node000015"><a xlink:title=" ">
<path fill="none" stroke="#63b8ff" d="M846.74,-143.75C847.5,-133.31 848.35,-121.49 848.99,-112.54"/>
<polygon fill="#63b8ff" stroke="#63b8ff" points="843.24,-143.71 846.01,-153.94 850.22,-144.21 843.24,-143.71"/>
</a>
</g>
</g>
</g>
</svg>
