<?xml version="1.0" encoding="UTF-8" standalone="no"?>
<!DOCTYPE svg PUBLIC "-//W3C//DTD SVG 1.1//EN"
 "http://www.w3.org/Graphics/SVG/1.1/DTD/svg11.dtd">
<!-- Generated by graphviz version 2.43.0 (0)
 -->
<!-- Title: include/engine/public/component.h Pages: 1 -->
<svg width="994pt" height="335pt"
 viewBox="0.00 0.00 994.00 335.00" xmlns="http://www.w3.org/2000/svg" xmlns:xlink="http://www.w3.org/1999/xlink">
<g id="graph0" class="graph" transform="scale(1 1) rotate(0) translate(4 331)">
<title>include/engine/public/component.h</title>
<!-- Node1 -->
<g id="Node000001" class="node">
<title>Node1</title>
<g id="a_Node000001"><a xlink:title=" ">
<polygon fill="#999999" stroke="#666666" points="493,-327 373,-327 373,-297 493,-297 493,-327"/>
<text text-anchor="start" x="381" y="-315" font-family="Helvetica,sans-Serif" font-size="10.00">include/engine/public</text>
<text text-anchor="middle" x="433" y="-304" font-family="Helvetica,sans-Serif" font-size="10.00">/component.h</text>
</a>
</g>
</g>
<!-- Node2 -->
<g id="Node000002" class="node">
<title>Node2</title>
<g id="a_Node000002"><a xlink:href="physics__creation__factory_8h.html" target="_top" xlink:title=" ">
<polygon fill="white" stroke="#666666" points="246,-261 102,-261 102,-220 246,-220 246,-261"/>
<text text-anchor="start" x="110" y="-249" font-family="Helvetica,sans-Serif" font-size="10.00">include/engine/physics</text>
<text text-anchor="start" x="110" y="-238" font-family="Helvetica,sans-Serif" font-size="10.00">/creation/physics_creation</text>
<text text-anchor="middle" x="174" y="-227" font-family="Helvetica,sans-Serif" font-size="10.00">_factory.h</text>
</a>
</g>
</g>
<!-- Node1&#45;&gt;Node2 -->
<g id="edge1_Node000001_Node000002" class="edge">
<title>Node1&#45;&gt;Node2</title>
<g id="a_edge1_Node000001_Node000002"><a xlink:title=" ">
<path fill="none" stroke="#63b8ff" d="M370.82,-294.31C333.39,-284.27 285.58,-271.44 246.45,-260.94"/>
<polygon fill="#63b8ff" stroke="#63b8ff" points="370.02,-297.72 380.59,-296.94 371.84,-290.96 370.02,-297.72"/>
</a>
</g>
</g>
<!-- Node5 -->
<g id="Node000005" class="node">
<title>Node5</title>
<g id="a_Node000005"><a xlink:href="collider__2d_8h.html" target="_top" xlink:title=" ">
<polygon fill="white" stroke="#666666" points="332,-118 208,-118 208,-77 332,-77 332,-118"/>
<text text-anchor="start" x="216" y="-106" font-family="Helvetica,sans-Serif" font-size="10.00">include/engine/public</text>
<text text-anchor="start" x="216" y="-95" font-family="Helvetica,sans-Serif" font-size="10.00">/components/colliders</text>
<text text-anchor="middle" x="270" y="-84" font-family="Helvetica,sans-Serif" font-size="10.00">/collider_2d.h</text>
</a>
</g>
</g>
<!-- Node1&#45;&gt;Node5 -->
<g id="edge14_Node000001_Node000005" class="edge">
<title>Node1&#45;&gt;Node5</title>
<g id="a_edge14_Node000001_Node000005"><a xlink:title=" ">
<path fill="none" stroke="#63b8ff" d="M425.87,-287.27C415.05,-254.35 391.86,-194.33 356,-154 343.13,-139.53 325.63,-127.32 309.77,-118.07"/>
<polygon fill="#63b8ff" stroke="#63b8ff" points="422.58,-288.48 428.95,-296.95 429.25,-286.36 422.58,-288.48"/>
</a>
</g>
</g>
<!-- Node8 -->
<g id="Node000008" class="node">
<title>Node8</title>
<g id="a_Node000008"><a xlink:href="rigidbody__2d_8h.html" target="_top" xlink:title=" ">
<polygon fill="white" stroke="#666666" points="347.5,-184 192.5,-184 192.5,-154 347.5,-154 347.5,-184"/>
<text text-anchor="start" x="200.5" y="-172" font-family="Helvetica,sans-Serif" font-size="10.00">include/engine/public</text>
<text text-anchor="middle" x="270" y="-161" font-family="Helvetica,sans-Serif" font-size="10.00">/components/rigidbody_2d.h</text>
</a>
</g>
</g>
<!-- Node1&#45;&gt;Node8 -->
<g id="edge15_Node000001_Node000008" class="edge">
<title>Node1&#45;&gt;Node8</title>
<g id="a_edge15_Node000001_Node000008"><a xlink:title=" ">
<path fill="none" stroke="#63b8ff" d="M402.36,-291.07C389.53,-282.31 374.68,-271.61 362,-261 332.02,-235.91 300.29,-202.89 283.04,-184.31"/>
<polygon fill="#63b8ff" stroke="#63b8ff" points="400.62,-294.12 410.87,-296.8 404.53,-288.31 400.62,-294.12"/>
</a>
</g>
</g>
<!-- Node9 -->
<g id="Node000009" class="node">
<title>Node9</title>
<g id="a_Node000009"><a xlink:href="behavior_8h.html" target="_top" xlink:title=" ">
<polygon fill="white" stroke="#666666" points="562,-184 442,-184 442,-154 562,-154 562,-184"/>
<text text-anchor="start" x="450" y="-172" font-family="Helvetica,sans-Serif" font-size="10.00">include/engine/public</text>
<text text-anchor="middle" x="502" y="-161" font-family="Helvetica,sans-Serif" font-size="10.00">/behavior.h</text>
</a>
</g>
</g>
<!-- Node1&#45;&gt;Node9 -->
<g id="edge10_Node000001_Node000009" class="edge">
<title>Node1&#45;&gt;Node9</title>
<g id="a_edge10_Node000001_Node000009"><a xlink:title=" ">
<path fill="none" stroke="#63b8ff" d="M441.69,-287.33C448.82,-268.69 459.56,-242.22 471,-220 477.45,-207.47 485.95,-193.92 492.42,-184.09"/>
<polygon fill="#63b8ff" stroke="#63b8ff" points="438.37,-286.22 438.12,-296.81 444.92,-288.69 438.37,-286.22"/>
</a>
</g>
</g>
<!-- Node10 -->
<g id="Node000010" class="node">
<title>Node10</title>
<g id="a_Node000010"><a xlink:href="behaviorscript_8h.html" target="_top" xlink:title=" ">
<polygon fill="white" stroke="#666666" points="547.5,-112.5 386.5,-112.5 386.5,-82.5 547.5,-82.5 547.5,-112.5"/>
<text text-anchor="start" x="394.5" y="-100.5" font-family="Helvetica,sans-Serif" font-size="10.00">include/engine/public</text>
<text text-anchor="middle" x="467" y="-89.5" font-family="Helvetica,sans-Serif" font-size="10.00">/components/behaviorscript.h</text>
</a>
</g>
</g>
<!-- Node1&#45;&gt;Node10 -->
<g id="edge13_Node000001_Node000010" class="edge">
<title>Node1&#45;&gt;Node10</title>
<g id="a_edge13_Node000001_Node000010"><a xlink:title=" ">
<path fill="none" stroke="#63b8ff" d="M429,-286.8C424.73,-255.48 420.16,-199.53 433,-154 437.35,-138.56 447.34,-123.17 455.37,-112.53"/>
<polygon fill="#63b8ff" stroke="#63b8ff" points="425.56,-287.41 430.47,-296.79 432.48,-286.39 425.56,-287.41"/>
</a>
</g>
</g>
<!-- Node11 -->
<g id="Node000011" class="node">
<title>Node11</title>
<g id="a_Node000011"><a xlink:href="audio__source_8h.html" target="_top" xlink:title=" ">
<polygon fill="white" stroke="#666666" points="636,-255.5 480,-255.5 480,-225.5 636,-225.5 636,-255.5"/>
<text text-anchor="start" x="488" y="-243.5" font-family="Helvetica,sans-Serif" font-size="10.00">include/engine/public</text>
<text text-anchor="middle" x="558" y="-232.5" font-family="Helvetica,sans-Serif" font-size="10.00">/components/audio_source.h</text>
</a>
</g>
</g>
<!-- Node1&#45;&gt;Node11 -->
<g id="edge12_Node000001_Node000011" class="edge">
<title>Node1&#45;&gt;Node11</title>
<g id="a_edge12_Node000001_Node000011"><a xlink:title=" ">
<path fill="none" stroke="#63b8ff" d="M467.11,-292.03C487.84,-280.51 513.86,-266.04 532.74,-255.54"/>
<polygon fill="#63b8ff" stroke="#63b8ff" points="465.33,-289.02 458.3,-296.94 468.74,-295.14 465.33,-289.02"/>
</a>
</g>
</g>
<!-- Node12 -->
<g id="Node000012" class="node">
<title>Node12</title>
<g id="a_Node000012"><a xlink:href="sprite_8h.html" target="_top" xlink:title=" ">
<polygon fill="white" stroke="#666666" points="774,-255.5 654,-255.5 654,-225.5 774,-225.5 774,-255.5"/>
<text text-anchor="start" x="662" y="-243.5" font-family="Helvetica,sans-Serif" font-size="10.00">include/engine/public</text>
<text text-anchor="middle" x="714" y="-232.5" font-family="Helvetica,sans-Serif" font-size="10.00">/components/sprite.h</text>
</a>
</g>
</g>
<!-- Node1&#45;&gt;Node12 -->
<g id="edge16_Node000001_Node000012" class="edge">
<title>Node1&#45;&gt;Node12</title>
<g id="a_edge16_Node000001_Node000012"><a xlink:title=" ">
<path fill="none" stroke="#63b8ff" d="M503.01,-295.3C544.42,-285.81 597.82,-273.22 645,-261 651.63,-259.28 658.59,-257.4 665.44,-255.51"/>
<polygon fill="#63b8ff" stroke="#63b8ff" points="502,-291.94 493.03,-297.58 503.55,-298.77 502,-291.94"/>
</a>
</g>
</g>
<!-- Node13 -->
<g id="Node000013" class="node">
<title>Node13</title>
<g id="a_Node000013"><a xlink:href="game_object_8h.html" target="_top" xlink:title=" ">
<polygon fill="white" stroke="#666666" points="912,-255.5 792,-255.5 792,-225.5 912,-225.5 912,-255.5"/>
<text text-anchor="start" x="800" y="-243.5" font-family="Helvetica,sans-Serif" font-size="10.00">include/engine/public</text>
<text text-anchor="middle" x="852" y="-232.5" font-family="Helvetica,sans-Serif" font-size="10.00">/gameObject.h</text>
</a>
</g>
</g>
<!-- Node1&#45;&gt;Node13 -->
<g id="edge17_Node000001_Node000013" class="edge">
<title>Node1&#45;&gt;Node13</title>
<g id="a_edge17_Node000001_Node000013"><a xlink:title=" ">
<path fill="none" stroke="#63b8ff" d="M503.36,-303.75C574.38,-295.77 686.99,-281.33 783,-261 790.31,-259.45 797.98,-257.56 805.44,-255.57"/>
<polygon fill="#63b8ff" stroke="#63b8ff" points="502.74,-300.29 493.19,-304.88 503.52,-307.25 502.74,-300.29"/>
</a>
</g>
</g>
<!-- Node3 -->
<g id="Node000003" class="node">
<title>Node3</title>
<g id="a_Node000003"><a xlink:href="physics__service_8h.html" target="_top" xlink:title=" ">
<polygon fill="white" stroke="#666666" points="128,-112.5 0,-112.5 0,-82.5 128,-82.5 128,-112.5"/>
<text text-anchor="start" x="8" y="-100.5" font-family="Helvetica,sans-Serif" font-size="10.00">include/engine/physics</text>
<text text-anchor="middle" x="64" y="-89.5" font-family="Helvetica,sans-Serif" font-size="10.00">/physics_service.h</text>
</a>
</g>
</g>
<!-- Node2&#45;&gt;Node3 -->
<g id="edge2_Node000002_Node000003" class="edge">
<title>Node2&#45;&gt;Node3</title>
<g id="a_edge2_Node000002_Node000003"><a xlink:title=" ">
<path fill="none" stroke="#63b8ff" d="M92.29,-223.96C70.74,-215.74 49.93,-203.19 37,-184 21.95,-161.67 39.57,-130.47 52.58,-112.59"/>
<polygon fill="#63b8ff" stroke="#63b8ff" points="91.28,-227.32 101.87,-227.33 93.6,-220.71 91.28,-227.32"/>
</a>
</g>
</g>
<!-- Node4 -->
<g id="Node000004" class="node">
<title>Node4</title>
<g id="a_Node000004"><a xlink:href="physics__world_8h.html" target="_top" xlink:title=" ">
<polygon fill="white" stroke="#666666" points="174,-184 46,-184 46,-154 174,-154 174,-184"/>
<text text-anchor="start" x="54" y="-172" font-family="Helvetica,sans-Serif" font-size="10.00">include/engine/physics</text>
<text text-anchor="middle" x="110" y="-161" font-family="Helvetica,sans-Serif" font-size="10.00">/world/physics_world.h</text>
</a>
</g>
</g>
<!-- Node2&#45;&gt;Node4 -->
<g id="edge3_Node000002_Node000004" class="edge">
<title>Node2&#45;&gt;Node4</title>
<g id="a_edge3_Node000002_Node000004"><a xlink:title=" ">
<path fill="none" stroke="#63b8ff" d="M148.92,-212.26C140.03,-202.61 130.39,-192.14 122.93,-184.04"/>
<polygon fill="#63b8ff" stroke="#63b8ff" points="146.48,-214.78 155.83,-219.77 151.63,-210.04 146.48,-214.78"/>
</a>
</g>
</g>
<!-- Node2&#45;&gt;Node8 -->
<g id="edge8_Node000002_Node000008" class="edge">
<title>Node2&#45;&gt;Node8</title>
<g id="a_edge8_Node000002_Node000008"><a xlink:title=" ">
<path fill="none" stroke="#63b8ff" d="M209.41,-213.87C223.3,-203.81 238.7,-192.66 250.51,-184.11"/>
<polygon fill="#63b8ff" stroke="#63b8ff" points="207.04,-211.26 201,-219.96 211.15,-216.93 207.04,-211.26"/>
</a>
</g>
</g>
<!-- Node4&#45;&gt;Node3 -->
<g id="edge4_Node000004_Node000003" class="edge">
<title>Node4&#45;&gt;Node3</title>
<g id="a_edge4_Node000004_Node000003"><a xlink:title=" ">
<path fill="none" stroke="#63b8ff" d="M95.03,-145.38C87.87,-134.57 79.53,-121.96 73.29,-112.54"/>
<polygon fill="#63b8ff" stroke="#63b8ff" points="92.25,-147.53 100.69,-153.94 98.09,-143.66 92.25,-147.53"/>
</a>
</g>
</g>
<!-- Node4&#45;&gt;Node5 -->
<g id="edge5_Node000004_Node000005" class="edge">
<title>Node4&#45;&gt;Node5</title>
<g id="a_edge5_Node000004_Node000005"><a xlink:title=" ">
<path fill="none" stroke="#63b8ff" d="M151.66,-149.9C174.16,-140.13 201.94,-128.06 224.94,-118.07"/>
<polygon fill="#63b8ff" stroke="#63b8ff" points="150.16,-146.74 142.38,-153.94 152.94,-153.16 150.16,-146.74"/>
</a>
</g>
</g>
<!-- Node6 -->
<g id="Node000006" class="node">
<title>Node6</title>
<g id="a_Node000006"><a xlink:href="box__collider__2d_8h.html" target="_top" xlink:title=" ">
<polygon fill="white" stroke="#666666" points="261,-41 137,-41 137,0 261,0 261,-41"/>
<text text-anchor="start" x="145" y="-29" font-family="Helvetica,sans-Serif" font-size="10.00">include/engine/public</text>
<text text-anchor="start" x="145" y="-18" font-family="Helvetica,sans-Serif" font-size="10.00">/components/colliders</text>
<text text-anchor="middle" x="199" y="-7" font-family="Helvetica,sans-Serif" font-size="10.00">/box_collider_2d.h</text>
</a>
</g>
</g>
<!-- Node5&#45;&gt;Node6 -->
<g id="edge6_Node000005_Node000006" class="edge">
<title>Node5&#45;&gt;Node6</title>
<g id="a_edge6_Node000005_Node000006"><a xlink:title=" ">
<path fill="none" stroke="#63b8ff" d="M244.45,-69.51C235.55,-60.11 225.75,-49.76 217.53,-41.07"/>
<polygon fill="#63b8ff" stroke="#63b8ff" points="241.93,-71.94 251.35,-76.79 247.01,-67.13 241.93,-71.94"/>
</a>
</g>
</g>
<!-- Node7 -->
<g id="Node000007" class="node">
<title>Node7</title>
<g id="a_Node000007"><a xlink:href="circle__collider__2d_8h.html" target="_top" xlink:title=" ">
<polygon fill="white" stroke="#666666" points="403,-41 279,-41 279,0 403,0 403,-41"/>
<text text-anchor="start" x="287" y="-29" font-family="Helvetica,sans-Serif" font-size="10.00">include/engine/public</text>
<text text-anchor="start" x="287" y="-18" font-family="Helvetica,sans-Serif" font-size="10.00">/components/colliders</text>
<text text-anchor="middle" x="341" y="-7" font-family="Helvetica,sans-Serif" font-size="10.00">/circle_collider_2d.h</text>
</a>
</g>
</g>
<!-- Node5&#45;&gt;Node7 -->
<g id="edge7_Node000005_Node000007" class="edge">
<title>Node5&#45;&gt;Node7</title>
<g id="a_edge7_Node000005_Node000007"><a xlink:title=" ">
<path fill="none" stroke="#63b8ff" d="M295.55,-69.51C304.45,-60.11 314.25,-49.76 322.47,-41.07"/>
<polygon fill="#63b8ff" stroke="#63b8ff" points="292.99,-67.13 288.65,-76.79 298.07,-71.94 292.99,-67.13"/>
</a>
</g>
</g>
<!-- Node8&#45;&gt;Node5 -->
<g id="edge9_Node000008_Node000005" class="edge">
<title>Node8&#45;&gt;Node5</title>
<g id="a_edge9_Node000008_Node000005"><a xlink:title=" ">
<path fill="none" stroke="#63b8ff" d="M270,-143.91C270,-135.47 270,-126.1 270,-118.07"/>
<polygon fill="#63b8ff" stroke="#63b8ff" points="266.5,-143.94 270,-153.94 273.5,-143.94 266.5,-143.94"/>
</a>
</g>
</g>
<!-- Node9&#45;&gt;Node10 -->
<g id="edge11_Node000009_Node000010" class="edge">
<title>Node9&#45;&gt;Node10</title>
<g id="a_edge11_Node000009_Node000010"><a xlink:title=" ">
<path fill="none" stroke="#63b8ff" d="M490.28,-144.73C484.91,-134.06 478.72,-121.77 474.07,-112.54"/>
<polygon fill="#63b8ff" stroke="#63b8ff" points="487.29,-146.58 494.92,-153.94 493.55,-143.43 487.29,-146.58"/>
</a>
</g>
</g>
<!-- Node13&#45;&gt;Node9 -->
<g id="edge20_Node000013_Node000009" class="edge">
<title>Node13&#45;&gt;Node9</title>
<g id="a_edge20_Node000013_Node000009"><a xlink:title=" ">
<path fill="none" stroke="#63b8ff" d="M794.78,-222.86C790.8,-221.85 786.85,-220.88 783,-220 707.42,-202.64 619.23,-187.82 562.1,-178.92"/>
<polygon fill="#63b8ff" stroke="#63b8ff" points="794.09,-226.3 804.65,-225.45 795.86,-219.53 794.09,-226.3"/>
</a>
</g>
</g>
<!-- Node14 -->
<g id="Node000014" class="node">
<title>Node14</title>
<g id="a_Node000014"><a xlink:href="renderer_8h.html" target="_top" xlink:title=" ">
<polygon fill="white" stroke="#666666" points="832.5,-184 713.5,-184 713.5,-154 832.5,-154 832.5,-184"/>
<text text-anchor="start" x="721.5" y="-172" font-family="Helvetica,sans-Serif" font-size="10.00">include/engine/core</text>
<text text-anchor="middle" x="773" y="-161" font-family="Helvetica,sans-Serif" font-size="10.00">/rendering/renderer.h</text>
</a>
</g>
</g>
<!-- Node13&#45;&gt;Node14 -->
<g id="edge18_Node000013_Node000014" class="edge">
<title>Node13&#45;&gt;Node14</title>
<g id="a_edge18_Node000013_Node000014"><a xlink:title=" ">
<path fill="none" stroke="#63b8ff" d="M828.48,-218.81C815.73,-207.59 800.31,-194.02 788.96,-184.04"/>
<polygon fill="#63b8ff" stroke="#63b8ff" points="826.19,-221.46 836.01,-225.44 830.82,-216.2 826.19,-221.46"/>
</a>
</g>
</g>
<!-- Node16 -->
<g id="Node000016" class="node">
<title>Node16</title>
<g id="a_Node000016"><a xlink:href="scene_8h.html" target="_top" xlink:title=" ">
<polygon fill="white" stroke="#666666" points="981,-184 861,-184 861,-154 981,-154 981,-184"/>
<text text-anchor="start" x="869" y="-172" font-family="Helvetica,sans-Serif" font-size="10.00">include/engine/public</text>
<text text-anchor="middle" x="921" y="-161" font-family="Helvetica,sans-Serif" font-size="10.00">/scene.h</text>
</a>
</g>
</g>
<!-- Node13&#45;&gt;Node16 -->
<g id="edge21_Node000013_Node000016" class="edge">
<title>Node13&#45;&gt;Node16</title>
<g id="a_edge21_Node000013_Node000016"><a xlink:title=" ">
<path fill="none" stroke="#63b8ff" d="M873.18,-218.17C884.19,-207.08 897.34,-193.84 907.06,-184.04"/>
<polygon fill="#63b8ff" stroke="#63b8ff" points="870.52,-215.87 865.96,-225.44 875.49,-220.8 870.52,-215.87"/>
</a>
</g>
</g>
<!-- Node15 -->
<g id="Node000015" class="node">
<title>Node15</title>
<g id="a_Node000015"><a xlink:href="rendering_service_8h.html" target="_top" xlink:title=" ">
<polygon fill="white" stroke="#666666" points="847.5,-112.5 686.5,-112.5 686.5,-82.5 847.5,-82.5 847.5,-112.5"/>
<text text-anchor="start" x="694.5" y="-100.5" font-family="Helvetica,sans-Serif" font-size="10.00">include/engine/core</text>
<text text-anchor="middle" x="767" y="-89.5" font-family="Helvetica,sans-Serif" font-size="10.00">/rendering/renderingService.h</text>
</a>
</g>
</g>
<!-- Node14&#45;&gt;Node15 -->
<g id="edge19_Node000014_Node000015" class="edge">
<title>Node14&#45;&gt;Node15</title>
<g id="a_edge19_Node000014_Node000015"><a xlink:title=" ">
<path fill="none" stroke="#63b8ff" d="M770.91,-143.75C770.01,-133.31 768.98,-121.49 768.21,-112.54"/>
<polygon fill="#63b8ff" stroke="#63b8ff" points="767.44,-144.27 771.79,-153.94 774.41,-143.67 767.44,-144.27"/>
</a>
</g>
</g>
<!-- Node17 -->
<g id="Node000017" class="node">
<title>Node17</title>
<g id="a_Node000017"><a xlink:href="scene__service_8h.html" target="_top" xlink:title=" ">
<polygon fill="white" stroke="#666666" points="986,-112.5 866,-112.5 866,-82.5 986,-82.5 986,-112.5"/>
<text text-anchor="start" x="874" y="-100.5" font-family="Helvetica,sans-Serif" font-size="10.00">include/engine/public</text>
<text text-anchor="middle" x="926" y="-89.5" font-family="Helvetica,sans-Serif" font-size="10.00">/scene_service.h</text>
</a>
</g>
</g>
<!-- Node16&#45;&gt;Node17 -->
<g id="edge22_Node000016_Node000017" class="edge">
<title>Node16&#45;&gt;Node17</title>
<g id="a_edge22_Node000016_Node000017"><a xlink:title=" ">
<path fill="none" stroke="#63b8ff" d="M922.74,-143.75C923.5,-133.31 924.35,-121.49 924.99,-112.54"/>
<polygon fill="#63b8ff" stroke="#63b8ff" points="919.24,-143.71 922.01,-153.94 926.22,-144.21 919.24,-143.71"/>
</a>
</g>
</g>
</g>
</svg>
