<?xml version="1.0" encoding="UTF-8" standalone="no"?>
<!DOCTYPE svg PUBLIC "-//W3C//DTD SVG 1.1//EN"
 "http://www.w3.org/Graphics/SVG/1.1/DTD/svg11.dtd">
<!-- Generated by graphviz version 2.43.0 (0)
 -->
<!-- Title: include/engine/public/component.h Pages: 1 -->
<svg width="628pt" height="236pt"
 viewBox="0.00 0.00 628.00 236.00" xmlns="http://www.w3.org/2000/svg" xmlns:xlink="http://www.w3.org/1999/xlink">
<g id="graph0" class="graph" transform="scale(1 1) rotate(0) translate(4 232)">
<title>include/engine/public/component.h</title>
<!-- Node1 -->
<g id="Node000001" class="node">
<title>Node1</title>
<g id="a_Node000001"><a xlink:title=" ">
<polygon fill="#999999" stroke="#666666" points="383.5,-228 263.5,-228 263.5,-198 383.5,-198 383.5,-228"/>
<text text-anchor="start" x="271.5" y="-216" font-family="Helvetica,sans-Serif" font-size="10.00">include/engine/public</text>
<text text-anchor="middle" x="323.5" y="-205" font-family="Helvetica,sans-Serif" font-size="10.00">/component.h</text>
</a>
</g>
</g>
<!-- Node2 -->
<g id="Node000002" class="node">
<title>Node2</title>
<g id="a_Node000002"><a xlink:href="physics__creation__factory_8h.html" target="_top" xlink:title=" ">
<polygon fill="white" stroke="#666666" points="149,-162 0,-162 0,-132 149,-132 149,-162"/>
<text text-anchor="start" x="8" y="-150" font-family="Helvetica,sans-Serif" font-size="10.00">include/engine/physics</text>
<text text-anchor="middle" x="74.5" y="-139" font-family="Helvetica,sans-Serif" font-size="10.00">/physics_creation_factory.h</text>
</a>
</g>
</g>
<!-- Node1&#45;&gt;Node2 -->
<g id="edge1_Node000001_Node000002" class="edge">
<title>Node1&#45;&gt;Node2</title>
<g id="a_edge1_Node000001_Node000002"><a xlink:title=" ">
<path fill="none" stroke="#63b8ff" d="M259.12,-195.45C218.77,-185.08 167.34,-171.86 129.02,-162.01"/>
<polygon fill="#63b8ff" stroke="#63b8ff" points="258.3,-198.86 268.86,-197.95 260.04,-192.08 258.3,-198.86"/>
</a>
</g>
</g>
<!-- Node4 -->
<g id="Node000004" class="node">
<title>Node4</title>
<g id="a_Node000004"><a xlink:href="audio__source_8h.html" target="_top" xlink:title=" ">
<polygon fill="white" stroke="#666666" points="323.5,-162 167.5,-162 167.5,-132 323.5,-132 323.5,-162"/>
<text text-anchor="start" x="175.5" y="-150" font-family="Helvetica,sans-Serif" font-size="10.00">include/engine/public</text>
<text text-anchor="middle" x="245.5" y="-139" font-family="Helvetica,sans-Serif" font-size="10.00">/components/audio_source.h</text>
</a>
</g>
</g>
<!-- Node1&#45;&gt;Node4 -->
<g id="edge3_Node000001_Node000004" class="edge">
<title>Node1&#45;&gt;Node4</title>
<g id="a_edge3_Node000001_Node000004"><a xlink:title=" ">
<path fill="none" stroke="#63b8ff" d="M298.15,-191.2C286.57,-181.7 273.15,-170.69 262.76,-162.16"/>
<polygon fill="#63b8ff" stroke="#63b8ff" points="296.24,-194.16 306.19,-197.8 300.68,-188.75 296.24,-194.16"/>
</a>
</g>
</g>
<!-- Node5 -->
<g id="Node000005" class="node">
<title>Node5</title>
<g id="a_Node000005"><a xlink:href="sprite_8h.html" target="_top" xlink:title=" ">
<polygon fill="white" stroke="#666666" points="461.5,-162 341.5,-162 341.5,-132 461.5,-132 461.5,-162"/>
<text text-anchor="start" x="349.5" y="-150" font-family="Helvetica,sans-Serif" font-size="10.00">include/engine/public</text>
<text text-anchor="middle" x="401.5" y="-139" font-family="Helvetica,sans-Serif" font-size="10.00">/components/sprite.h</text>
</a>
</g>
</g>
<!-- Node1&#45;&gt;Node5 -->
<g id="edge4_Node000001_Node000005" class="edge">
<title>Node1&#45;&gt;Node5</title>
<g id="a_edge4_Node000001_Node000005"><a xlink:title=" ">
<path fill="none" stroke="#63b8ff" d="M348.85,-191.2C360.43,-181.7 373.85,-170.69 384.24,-162.16"/>
<polygon fill="#63b8ff" stroke="#63b8ff" points="346.32,-188.75 340.81,-197.8 350.76,-194.16 346.32,-188.75"/>
</a>
</g>
</g>
<!-- Node6 -->
<g id="Node000006" class="node">
<title>Node6</title>
<g id="a_Node000006"><a xlink:href="game_object_8h.html" target="_top" xlink:title=" ">
<polygon fill="white" stroke="#666666" points="599.5,-162 479.5,-162 479.5,-132 599.5,-132 599.5,-162"/>
<text text-anchor="start" x="487.5" y="-150" font-family="Helvetica,sans-Serif" font-size="10.00">include/engine/public</text>
<text text-anchor="middle" x="539.5" y="-139" font-family="Helvetica,sans-Serif" font-size="10.00">/gameObject.h</text>
</a>
</g>
</g>
<!-- Node1&#45;&gt;Node6 -->
<g id="edge5_Node000001_Node000006" class="edge">
<title>Node1&#45;&gt;Node6</title>
<g id="a_edge5_Node000001_Node000006"><a xlink:title=" ">
<path fill="none" stroke="#63b8ff" d="M380.91,-194.99C415.67,-184.69 459.45,-171.72 492.21,-162.01"/>
<polygon fill="#63b8ff" stroke="#63b8ff" points="379.5,-191.76 370.9,-197.95 381.48,-198.47 379.5,-191.76"/>
</a>
</g>
</g>
<!-- Node3 -->
<g id="Node000003" class="node">
<title>Node3</title>
<g id="a_Node000003"><a xlink:href="physics__service_8h.html" target="_top" xlink:title=" ">
<polygon fill="white" stroke="#666666" points="138.5,-96 10.5,-96 10.5,-66 138.5,-66 138.5,-96"/>
<text text-anchor="start" x="18.5" y="-84" font-family="Helvetica,sans-Serif" font-size="10.00">include/engine/physics</text>
<text text-anchor="middle" x="74.5" y="-73" font-family="Helvetica,sans-Serif" font-size="10.00">/physics_service.h</text>
</a>
</g>
</g>
<!-- Node2&#45;&gt;Node3 -->
<g id="edge2_Node000002_Node000003" class="edge">
<title>Node2&#45;&gt;Node3</title>
<g id="a_edge2_Node000002_Node000003"><a xlink:title=" ">
<path fill="none" stroke="#63b8ff" d="M74.5,-121.54C74.5,-112.96 74.5,-103.61 74.5,-96.16"/>
<polygon fill="#63b8ff" stroke="#63b8ff" points="71,-121.8 74.5,-131.8 78,-121.8 71,-121.8"/>
</a>
</g>
</g>
<!-- Node7 -->
<g id="Node000007" class="node">
<title>Node7</title>
<g id="a_Node000007"><a xlink:href="renderer_8h.html" target="_top" xlink:title=" ">
<polygon fill="white" stroke="#666666" points="599,-96 480,-96 480,-66 599,-66 599,-96"/>
<text text-anchor="start" x="488" y="-84" font-family="Helvetica,sans-Serif" font-size="10.00">include/engine/core</text>
<text text-anchor="middle" x="539.5" y="-73" font-family="Helvetica,sans-Serif" font-size="10.00">/rendering/renderer.h</text>
</a>
</g>
</g>
<!-- Node6&#45;&gt;Node7 -->
<g id="edge6_Node000006_Node000007" class="edge">
<title>Node6&#45;&gt;Node7</title>
<g id="a_edge6_Node000006_Node000007"><a xlink:title=" ">
<path fill="none" stroke="#63b8ff" d="M539.5,-121.54C539.5,-112.96 539.5,-103.61 539.5,-96.16"/>
<polygon fill="#63b8ff" stroke="#63b8ff" points="536,-121.8 539.5,-131.8 543,-121.8 536,-121.8"/>
</a>
</g>
</g>
<!-- Node8 -->
<g id="Node000008" class="node">
<title>Node8</title>
<g id="a_Node000008"><a xlink:href="rendering_service_8h.html" target="_top" xlink:title=" ">
<polygon fill="white" stroke="#666666" points="620,-30 459,-30 459,0 620,0 620,-30"/>
<text text-anchor="start" x="467" y="-18" font-family="Helvetica,sans-Serif" font-size="10.00">include/engine/core</text>
<text text-anchor="middle" x="539.5" y="-7" font-family="Helvetica,sans-Serif" font-size="10.00">/rendering/renderingService.h</text>
</a>
</g>
</g>
<!-- Node7&#45;&gt;Node8 -->
<g id="edge7_Node000007_Node000008" class="edge">
<title>Node7&#45;&gt;Node8</title>
<g id="a_edge7_Node000007_Node000008"><a xlink:title=" ">
<path fill="none" stroke="#63b8ff" d="M539.5,-55.54C539.5,-46.96 539.5,-37.61 539.5,-30.16"/>
<polygon fill="#63b8ff" stroke="#63b8ff" points="536,-55.8 539.5,-65.8 543,-55.8 536,-55.8"/>
</a>
</g>
</g>
</g>
</svg>
