<?xml version="1.0" encoding="UTF-8" standalone="no"?>
<!DOCTYPE svg PUBLIC "-//W3C//DTD SVG 1.1//EN"
 "http://www.w3.org/Graphics/SVG/1.1/DTD/svg11.dtd">
<!-- Generated by graphviz version 2.43.0 (0)
 -->
<!-- Title: include/engine Pages: 1 -->
<svg width="299pt" height="259pt"
 viewBox="0.00 0.00 299.00 259.00" xmlns="http://www.w3.org/2000/svg" xmlns:xlink="http://www.w3.org/1999/xlink">
<g id="graph0" class="graph" transform="scale(1 1) rotate(0) translate(4 255)">
<title>include/engine</title>
<g id="clust1" class="cluster">
<title>clusterdir_d44c64559bbebec7f509842c48db8b23</title>
<g id="a_clust1"><a xlink:href="dir_d44c64559bbebec7f509842c48db8b23.html" target="_top" xlink:title="include">
<polygon fill="#daedff" stroke="#404040" stroke-dasharray="5,2" points="8,-8 8,-243 283,-243 283,-8 8,-8"/>
<text text-anchor="middle" x="145.5" y="-231" font-family="Helvetica,sans-Serif" font-size="10.00">include</text>
</a>
</g>
</g>
<g id="clust2" class="cluster">
<title>clusterdir_a7f531b1c37460085cedd304cb8df01d</title>
<g id="a_clust2"><a xlink:href="dir_a7f531b1c37460085cedd304cb8df01d.html" target="_top">
<polygon fill="#daedff" stroke="#404040" stroke-width="2" points="16,-16 16,-216 275,-216 275,-16 16,-16"/>
</a>
</g>
</g>
<!-- dir_a7f531b1c37460085cedd304cb8df01d -->
<g id="node1" class="node">
<title>dir_a7f531b1c37460085cedd304cb8df01d</title>
<text text-anchor="middle" x="242" y="-196" font-family="Helvetica,sans-Serif" font-size="10.00">engine</text>
</g>
<!-- dir_9f8aea6aa0d0f8b2278afd3a6ed97649 -->
<g id="node2" class="node">
<title>dir_9f8aea6aa0d0f8b2278afd3a6ed97649</title>
<g id="a_node2"><a xlink:href="dir_9f8aea6aa0d0f8b2278afd3a6ed97649.html" target="_top" xlink:title="audio">
<polygon fill="#4ea9ff" stroke="#404040" points="199,-208 155,-208 155,-189 199,-189 199,-208"/>
<text text-anchor="middle" x="177" y="-196" font-family="Helvetica,sans-Serif" font-size="10.00">audio</text>
</a>
</g>
</g>
<!-- dir_7f643b58e2241519524527f42d96aecd -->
<g id="node3" class="node">
<title>dir_7f643b58e2241519524527f42d96aecd</title>
<g id="a_node3"><a xlink:href="dir_7f643b58e2241519524527f42d96aecd.html" target="_top" xlink:title="core">
<polygon fill="#4ea9ff" stroke="#404040" points="125,-153 87,-153 87,-134 125,-134 125,-153"/>
<text text-anchor="middle" x="106" y="-141" font-family="Helvetica,sans-Serif" font-size="10.00">core</text>
</a>
</g>
</g>
<!-- dir_9f8aea6aa0d0f8b2278afd3a6ed97649&#45;&gt;dir_7f643b58e2241519524527f42d96aecd -->
<g id="edge1" class="edge">
<title>dir_9f8aea6aa0d0f8b2278afd3a6ed97649&#45;&gt;dir_7f643b58e2241519524527f42d96aecd</title>
<g id="a_edge1"><a xlink:href="dir_000000_000002.html" target="_top">
<path fill="none" stroke="#63b8ff" d="M165.59,-188.98C154.89,-181 138.66,-168.88 125.84,-159.31"/>
<polygon fill="#63b8ff" stroke="#63b8ff" points="127.72,-156.35 117.61,-153.17 123.53,-161.96 127.72,-156.35"/>
</a>
</g>
<g id="a_edge1&#45;headlabel"><a xlink:href="dir_000000_000002.html" target="_top" xlink:title="1">
<text text-anchor="middle" x="132.3" y="-153.72" font-family="Helvetica,sans-Serif" font-size="10.00" fill="#63b8ff">1</text>
</a>
</g>
</g>
<!-- dir_449e025360b1e0775671965c2105f9c1 -->
<g id="node6" class="node">
<title>dir_449e025360b1e0775671965c2105f9c1</title>
<g id="a_node6"><a xlink:href="dir_449e025360b1e0775671965c2105f9c1.html" target="_top" xlink:title="public">
<polygon fill="#4ea9ff" stroke="#404040" points="129,-98 83,-98 83,-79 129,-79 129,-98"/>
<text text-anchor="middle" x="106" y="-86" font-family="Helvetica,sans-Serif" font-size="10.00">public</text>
</a>
</g>
</g>
<!-- dir_7f643b58e2241519524527f42d96aecd&#45;&gt;dir_449e025360b1e0775671965c2105f9c1 -->
<g id="edge2" class="edge">
<title>dir_7f643b58e2241519524527f42d96aecd&#45;&gt;dir_449e025360b1e0775671965c2105f9c1</title>
<g id="a_edge2"><a xlink:href="dir_000002_000008.html" target="_top">
<path fill="none" stroke="#63b8ff" d="M100.83,-133.75C99.34,-126.8 98.9,-116.85 99.52,-108.13"/>
<polygon fill="#63b8ff" stroke="#63b8ff" points="103.01,-108.47 100.87,-98.09 96.07,-107.53 103.01,-108.47"/>
</a>
</g>
<g id="a_edge2&#45;headlabel"><a xlink:href="dir_000002_000008.html" target="_top" xlink:title="1">
<text text-anchor="middle" x="105.34" y="-109.91" font-family="Helvetica,sans-Serif" font-size="10.00" fill="#63b8ff">1</text>
</a>
</g>
</g>
<!-- dir_f77ff83871a8c0c224aa74732336c103 -->
<g id="node4" class="node">
<title>dir_f77ff83871a8c0c224aa74732336c103</title>
<g id="a_node4"><a xlink:href="dir_f77ff83871a8c0c224aa74732336c103.html" target="_top" xlink:title="input">
<polygon fill="#4ea9ff" stroke="#404040" points="136.5,-208 95.5,-208 95.5,-189 136.5,-189 136.5,-208"/>
<text text-anchor="middle" x="116" y="-196" font-family="Helvetica,sans-Serif" font-size="10.00">input</text>
</a>
</g>
</g>
<!-- dir_f77ff83871a8c0c224aa74732336c103&#45;&gt;dir_7f643b58e2241519524527f42d96aecd -->
<g id="edge4" class="edge">
<title>dir_f77ff83871a8c0c224aa74732336c103&#45;&gt;dir_7f643b58e2241519524527f42d96aecd</title>
<g id="a_edge4"><a xlink:href="dir_000005_000002.html" target="_top">
<path fill="none" stroke="#63b8ff" d="M114.35,-188.75C113.04,-181.8 111.16,-171.85 109.52,-163.13"/>
<polygon fill="#63b8ff" stroke="#63b8ff" points="112.91,-162.27 107.62,-153.09 106.04,-163.56 112.91,-162.27"/>
</a>
</g>
<g id="a_edge4&#45;headlabel"><a xlink:href="dir_000005_000002.html" target="_top" xlink:title="1">
<text text-anchor="middle" x="116.37" y="-162.77" font-family="Helvetica,sans-Serif" font-size="10.00" fill="#63b8ff">1</text>
</a>
</g>
</g>
<!-- dir_f77ff83871a8c0c224aa74732336c103&#45;&gt;dir_449e025360b1e0775671965c2105f9c1 -->
<g id="edge3" class="edge">
<title>dir_f77ff83871a8c0c224aa74732336c103&#45;&gt;dir_449e025360b1e0775671965c2105f9c1</title>
<g id="a_edge3"><a xlink:href="dir_000005_000008.html" target="_top">
<path fill="none" stroke="#63b8ff" d="M121.57,-188.87C128.74,-176.64 139.65,-153.6 134,-134 131.13,-124.06 125.32,-114.2 119.72,-106.29"/>
<polygon fill="#63b8ff" stroke="#63b8ff" points="122.5,-104.16 113.67,-98.3 116.92,-108.39 122.5,-104.16"/>
</a>
</g>
<g id="a_edge3&#45;headlabel"><a xlink:href="dir_000005_000008.html" target="_top" xlink:title="2">
<text text-anchor="middle" x="126.93" y="-102.82" font-family="Helvetica,sans-Serif" font-size="10.00" fill="#63b8ff">2</text>
</a>
</g>
</g>
<!-- dir_507eef3fc303406776132f4dfa1b45c0 -->
<g id="node5" class="node">
<title>dir_507eef3fc303406776132f4dfa1b45c0</title>
<g id="a_node5"><a xlink:href="dir_507eef3fc303406776132f4dfa1b45c0.html" target="_top" xlink:title="physics">
<polygon fill="#4ea9ff" stroke="#404040" points="77.5,-208 24.5,-208 24.5,-189 77.5,-189 77.5,-208"/>
<text text-anchor="middle" x="51" y="-196" font-family="Helvetica,sans-Serif" font-size="10.00">physics</text>
</a>
</g>
</g>
<!-- dir_507eef3fc303406776132f4dfa1b45c0&#45;&gt;dir_7f643b58e2241519524527f42d96aecd -->
<g id="edge6" class="edge">
<title>dir_507eef3fc303406776132f4dfa1b45c0&#45;&gt;dir_7f643b58e2241519524527f42d96aecd</title>
<g id="a_edge6"><a xlink:href="dir_000007_000002.html" target="_top">
<path fill="none" stroke="#63b8ff" d="M60.08,-188.75C68.09,-181.03 79.96,-169.6 89.62,-160.28"/>
<polygon fill="#63b8ff" stroke="#63b8ff" points="92.31,-162.55 97.09,-153.09 87.46,-157.51 92.31,-162.55"/>
</a>
</g>
<g id="a_edge6&#45;headlabel"><a xlink:href="dir_000007_000002.html" target="_top" xlink:title="1">
<text text-anchor="middle" x="91.7" y="-164.59" font-family="Helvetica,sans-Serif" font-size="10.00" fill="#63b8ff">1</text>
</a>
</g>
</g>
<!-- dir_507eef3fc303406776132f4dfa1b45c0&#45;&gt;dir_449e025360b1e0775671965c2105f9c1 -->
<g id="edge5" class="edge">
<title>dir_507eef3fc303406776132f4dfa1b45c0&#45;&gt;dir_449e025360b1e0775671965c2105f9c1</title>
<g id="a_edge5"><a xlink:href="dir_000007_000008.html" target="_top">
<path fill="none" stroke="#63b8ff" d="M54.24,-188.67C58.93,-176.21 68.12,-152.9 78,-134 82.86,-124.7 89.01,-114.77 94.3,-106.66"/>
<polygon fill="#63b8ff" stroke="#63b8ff" points="97.36,-108.38 100,-98.12 91.54,-104.5 97.36,-108.38"/>
</a>
</g>
<g id="a_edge5&#45;headlabel"><a xlink:href="dir_000007_000008.html" target="_top" xlink:title="2">
<text text-anchor="middle" x="97.73" y="-110.45" font-family="Helvetica,sans-Serif" font-size="10.00" fill="#63b8ff">2</text>
</a>
</g>
</g>
<!-- dir_449e025360b1e0775671965c2105f9c1&#45;&gt;dir_9f8aea6aa0d0f8b2278afd3a6ed97649 -->
<g id="edge8" class="edge">
<title>dir_449e025360b1e0775671965c2105f9c1&#45;&gt;dir_9f8aea6aa0d0f8b2278afd3a6ed97649</title>
<g id="a_edge8"><a xlink:href="dir_000008_000000.html" target="_top">
<path fill="none" stroke="#63b8ff" d="M112.84,-98.18C119.7,-107.02 130.46,-121.2 139,-134 149.12,-149.16 159.69,-167.01 167.11,-179.92"/>
<polygon fill="#63b8ff" stroke="#63b8ff" points="164.12,-181.74 172.1,-188.7 170.2,-178.28 164.12,-181.74"/>
</a>
</g>
<g id="a_edge8&#45;headlabel"><a xlink:href="dir_000008_000000.html" target="_top" xlink:title="2">
<text text-anchor="middle" x="159.87" y="-177.52" font-family="Helvetica,sans-Serif" font-size="10.00" fill="#63b8ff">2</text>
</a>
</g>
</g>
<!-- dir_449e025360b1e0775671965c2105f9c1&#45;&gt;dir_7f643b58e2241519524527f42d96aecd -->
<g id="edge7" class="edge">
<title>dir_449e025360b1e0775671965c2105f9c1&#45;&gt;dir_7f643b58e2241519524527f42d96aecd</title>
<g id="a_edge7"><a xlink:href="dir_000008_000002.html" target="_top">
<path fill="none" stroke="#63b8ff" d="M111.13,-98.09C112.64,-104.99 113.09,-114.93 112.49,-123.66"/>
<polygon fill="#63b8ff" stroke="#63b8ff" points="109,-123.38 111.17,-133.75 115.94,-124.29 109,-123.38"/>
</a>
</g>
<g id="a_edge7&#45;headlabel"><a xlink:href="dir_000008_000002.html" target="_top" xlink:title="1">
<text text-anchor="middle" x="106.65" y="-116.94" font-family="Helvetica,sans-Serif" font-size="10.00" fill="#63b8ff">1</text>
</a>
</g>
</g>
<!-- dir_ba73608aff21b3524a8f2c22a10ff48a -->
<g id="node7" class="node">
<title>dir_ba73608aff21b3524a8f2c22a10ff48a</title>
<g id="a_node7"><a xlink:href="dir_ba73608aff21b3524a8f2c22a10ff48a.html" target="_top" xlink:title="util">
<polygon fill="#4ea9ff" stroke="#404040" points="122,-43 90,-43 90,-24 122,-24 122,-43"/>
<text text-anchor="middle" x="106" y="-31" font-family="Helvetica,sans-Serif" font-size="10.00">util</text>
</a>
</g>
</g>
<!-- dir_449e025360b1e0775671965c2105f9c1&#45;&gt;dir_ba73608aff21b3524a8f2c22a10ff48a -->
<g id="edge9" class="edge">
<title>dir_449e025360b1e0775671965c2105f9c1&#45;&gt;dir_ba73608aff21b3524a8f2c22a10ff48a</title>
<g id="a_edge9"><a xlink:href="dir_000008_000014.html" target="_top">
<path fill="none" stroke="#63b8ff" d="M106,-78.75C106,-71.8 106,-61.85 106,-53.13"/>
<polygon fill="#63b8ff" stroke="#63b8ff" points="109.5,-53.09 106,-43.09 102.5,-53.09 109.5,-53.09"/>
</a>
</g>
<g id="a_edge9&#45;headlabel"><a xlink:href="dir_000008_000014.html" target="_top" xlink:title="1">
<text text-anchor="middle" x="112.34" y="-54.18" font-family="Helvetica,sans-Serif" font-size="10.00" fill="#63b8ff">1</text>
</a>
</g>
</g>
</g>
</svg>
