<?xml version="1.0" encoding="UTF-8" standalone="no"?>
<!DOCTYPE svg PUBLIC "-//W3C//DTD SVG 1.1//EN"
 "http://www.w3.org/Graphics/SVG/1.1/DTD/svg11.dtd">
<!-- Generated by graphviz version 2.43.0 (0)
 -->
<!-- Title: include/engine/physics Pages: 1 -->
<svg width="272pt" height="251pt"
 viewBox="0.00 0.00 272.00 251.00" xmlns="http://www.w3.org/2000/svg" xmlns:xlink="http://www.w3.org/1999/xlink">
<g id="graph0" class="graph" transform="scale(1 1) rotate(0) translate(4 247)">
<title>include/engine/physics</title>
<g id="clust1" class="cluster">
<title>clusterdir_a7f531b1c37460085cedd304cb8df01d</title>
<g id="a_clust1"><a xlink:href="dir_a7f531b1c37460085cedd304cb8df01d.html" target="_top" xlink:title="engine">
<polygon fill="#daedff" stroke="#7f7f7f" stroke-dasharray="5,2" points="8,-8 8,-235 256,-235 256,-8 8,-8"/>
<text text-anchor="middle" x="132" y="-223" font-family="Helvetica,sans-Serif" font-size="10.00">engine</text>
</a>
</g>
</g>
<g id="clust2" class="cluster">
<title>clusterdir_507eef3fc303406776132f4dfa1b45c0</title>
<g id="a_clust2"><a xlink:href="dir_507eef3fc303406776132f4dfa1b45c0.html" target="_top">
<polygon fill="#daedff" stroke="#404040" stroke-width="2" points="16,-63 16,-208 180,-208 180,-63 16,-63"/>
</a>
</g>
</g>
<!-- dir_449e025360b1e0775671965c2105f9c1 -->
<g id="node1" class="node">
<title>dir_449e025360b1e0775671965c2105f9c1</title>
<g id="a_node1"><a xlink:href="dir_449e025360b1e0775671965c2105f9c1.html" target="_top" xlink:title="public">
<polygon fill="#4ea9ff" stroke="red" points="153,-35 107,-35 107,-16 153,-16 153,-35"/>
<text text-anchor="middle" x="130" y="-23" font-family="Helvetica,sans-Serif" font-size="10.00">public</text>
</a>
</g>
</g>
<!-- dir_7f643b58e2241519524527f42d96aecd -->
<g id="node2" class="node">
<title>dir_7f643b58e2241519524527f42d96aecd</title>
<g id="a_node2"><a xlink:href="dir_7f643b58e2241519524527f42d96aecd.html" target="_top" xlink:title="core">
<polygon fill="#4ea9ff" stroke="red" points="248,-145 210,-145 210,-126 248,-126 248,-145"/>
<text text-anchor="middle" x="229" y="-133" font-family="Helvetica,sans-Serif" font-size="10.00">core</text>
</a>
</g>
</g>
<!-- dir_507eef3fc303406776132f4dfa1b45c0 -->
<g id="node3" class="node">
<title>dir_507eef3fc303406776132f4dfa1b45c0</title>
<text text-anchor="middle" x="145" y="-188" font-family="Helvetica,sans-Serif" font-size="10.00">physics</text>
</g>
<!-- dir_507eef3fc303406776132f4dfa1b45c0&#45;&gt;dir_449e025360b1e0775671965c2105f9c1 -->
<g id="edge2" class="edge">
<title>dir_507eef3fc303406776132f4dfa1b45c0&#45;&gt;dir_449e025360b1e0775671965c2105f9c1</title>
<g id="a_edge2"><a xlink:href="dir_000010_000011.html" target="_top">
<path fill="none" stroke="#63b8ff" d="M155.16,-180.81C163.9,-172.6 175.9,-159.43 181,-145 183.82,-137.04 182.98,-134.21 181,-126 173.52,-95.01 154.64,-62.82 142.07,-43.74"/>
<polygon fill="#63b8ff" stroke="#63b8ff" points="144.83,-41.57 136.33,-35.25 139.04,-45.5 144.83,-41.57"/>
</a>
</g>
<g id="a_edge2&#45;headlabel"><a xlink:href="dir_000010_000011.html" target="_top" xlink:title="10">
<text text-anchor="middle" x="149.2" y="-40.46" font-family="Helvetica,sans-Serif" font-size="10.00" fill="#63b8ff">10</text>
</a>
</g>
</g>
<!-- dir_507eef3fc303406776132f4dfa1b45c0&#45;&gt;dir_7f643b58e2241519524527f42d96aecd -->
<g id="edge3" class="edge">
<title>dir_507eef3fc303406776132f4dfa1b45c0&#45;&gt;dir_7f643b58e2241519524527f42d96aecd</title>
<g id="a_edge3"><a xlink:href="dir_000010_000004.html" target="_top">
<path fill="none" stroke="#63b8ff" d="M158.5,-180.98C171.4,-172.84 191.1,-160.41 206.4,-150.76"/>
<polygon fill="#63b8ff" stroke="#63b8ff" points="208.67,-153.47 215.26,-145.17 204.93,-147.55 208.67,-153.47"/>
</a>
</g>
<g id="a_edge3&#45;headlabel"><a xlink:href="dir_000010_000004.html" target="_top" xlink:title="1">
<text text-anchor="middle" x="207.14" y="-155.29" font-family="Helvetica,sans-Serif" font-size="10.00" fill="#63b8ff">1</text>
</a>
</g>
</g>
<!-- dir_2fdd05c8b44becc61a6381da59ffda6c -->
<g id="node4" class="node">
<title>dir_2fdd05c8b44becc61a6381da59ffda6c</title>
<g id="a_node4"><a xlink:href="dir_2fdd05c8b44becc61a6381da59ffda6c.html" target="_top" xlink:title="creation">
<polygon fill="#4ea9ff" stroke="#404040" points="100,-145 44,-145 44,-126 100,-126 100,-145"/>
<text text-anchor="middle" x="72" y="-133" font-family="Helvetica,sans-Serif" font-size="10.00">creation</text>
</a>
</g>
</g>
<!-- dir_507eef3fc303406776132f4dfa1b45c0&#45;&gt;dir_2fdd05c8b44becc61a6381da59ffda6c -->
<g id="edge1" class="edge">
<title>dir_507eef3fc303406776132f4dfa1b45c0&#45;&gt;dir_2fdd05c8b44becc61a6381da59ffda6c</title>
<g id="a_edge1"><a xlink:href="dir_000010_000005.html" target="_top">
<path fill="none" stroke="#63b8ff" d="M133.27,-180.98C122.27,-173 105.58,-160.88 92.4,-151.31"/>
<polygon fill="#63b8ff" stroke="#63b8ff" points="94.09,-148.21 83.94,-145.17 89.98,-153.88 94.09,-148.21"/>
</a>
</g>
<g id="a_edge1&#45;headlabel"><a xlink:href="dir_000010_000005.html" target="_top" xlink:title="2">
<text text-anchor="middle" x="98.67" y="-145.53" font-family="Helvetica,sans-Serif" font-size="10.00" fill="#63b8ff">2</text>
</a>
</g>
</g>
<!-- dir_c0b2892c4e9061cc199b0409c7be21e5 -->
<g id="node5" class="node">
<title>dir_c0b2892c4e9061cc199b0409c7be21e5</title>
<g id="a_node5"><a xlink:href="dir_c0b2892c4e9061cc199b0409c7be21e5.html" target="_top" xlink:title="raycast">
<polygon fill="#4ea9ff" stroke="#404040" points="171.5,-145 118.5,-145 118.5,-126 171.5,-126 171.5,-145"/>
<text text-anchor="middle" x="145" y="-133" font-family="Helvetica,sans-Serif" font-size="10.00">raycast</text>
</a>
</g>
</g>
<!-- dir_507eef3fc303406776132f4dfa1b45c0&#45;&gt;dir_c0b2892c4e9061cc199b0409c7be21e5 -->
<g id="edge5" class="edge">
<title>dir_507eef3fc303406776132f4dfa1b45c0&#45;&gt;dir_c0b2892c4e9061cc199b0409c7be21e5</title>
<g id="a_edge5"><a xlink:href="dir_000010_000012.html" target="_top">
<path fill="none" stroke="#63b8ff" d="M145,-180.75C145,-173.8 145,-163.85 145,-155.13"/>
<polygon fill="#63b8ff" stroke="#63b8ff" points="148.5,-155.09 145,-145.09 141.5,-155.09 148.5,-155.09"/>
</a>
</g>
<g id="a_edge5&#45;headlabel"><a xlink:href="dir_000010_000012.html" target="_top" xlink:title="1">
<text text-anchor="middle" x="151.34" y="-156.18" font-family="Helvetica,sans-Serif" font-size="10.00" fill="#63b8ff">1</text>
</a>
</g>
</g>
<!-- dir_9228928e920d3547c08edb1901b2c09a -->
<g id="node6" class="node">
<title>dir_9228928e920d3547c08edb1901b2c09a</title>
<g id="a_node6"><a xlink:href="dir_9228928e920d3547c08edb1901b2c09a.html" target="_top" xlink:title="world">
<polygon fill="#4ea9ff" stroke="#404040" points="94,-90 50,-90 50,-71 94,-71 94,-90"/>
<text text-anchor="middle" x="72" y="-78" font-family="Helvetica,sans-Serif" font-size="10.00">world</text>
</a>
</g>
</g>
<!-- dir_507eef3fc303406776132f4dfa1b45c0&#45;&gt;dir_9228928e920d3547c08edb1901b2c09a -->
<g id="edge4" class="edge">
<title>dir_507eef3fc303406776132f4dfa1b45c0&#45;&gt;dir_9228928e920d3547c08edb1901b2c09a</title>
<g id="a_edge4"><a xlink:href="dir_000010_000019.html" target="_top">
<path fill="none" stroke="#63b8ff" d="M118.46,-187.03C92.27,-183.01 53.54,-172.5 35,-145 24.33,-129.17 38.77,-110.15 52.62,-97.08"/>
<polygon fill="#63b8ff" stroke="#63b8ff" points="55.31,-99.37 60.51,-90.14 50.69,-94.12 55.31,-99.37"/>
</a>
</g>
<g id="a_edge4&#45;headlabel"><a xlink:href="dir_000010_000019.html" target="_top" xlink:title="6">
<text text-anchor="middle" x="54.49" y="-101.38" font-family="Helvetica,sans-Serif" font-size="10.00" fill="#63b8ff">6</text>
</a>
</g>
</g>
<!-- dir_2fdd05c8b44becc61a6381da59ffda6c&#45;&gt;dir_449e025360b1e0775671965c2105f9c1 -->
<g id="edge6" class="edge">
<title>dir_2fdd05c8b44becc61a6381da59ffda6c&#45;&gt;dir_449e025360b1e0775671965c2105f9c1</title>
<g id="a_edge6"><a xlink:href="dir_000005_000011.html" target="_top">
<path fill="none" stroke="#63b8ff" d="M78.73,-125.98C85.42,-117.27 95.71,-103.18 103,-90 111.06,-75.42 118.33,-57.94 123.29,-45.02"/>
<polygon fill="#63b8ff" stroke="#63b8ff" points="126.67,-45.99 126.88,-35.4 120.11,-43.54 126.67,-45.99"/>
</a>
</g>
<g id="a_edge6&#45;headlabel"><a xlink:href="dir_000005_000011.html" target="_top" xlink:title="3">
<text text-anchor="middle" x="128.07" y="-47.85" font-family="Helvetica,sans-Serif" font-size="10.00" fill="#63b8ff">3</text>
</a>
</g>
</g>
<!-- dir_2fdd05c8b44becc61a6381da59ffda6c&#45;&gt;dir_9228928e920d3547c08edb1901b2c09a -->
<g id="edge7" class="edge">
<title>dir_2fdd05c8b44becc61a6381da59ffda6c&#45;&gt;dir_9228928e920d3547c08edb1901b2c09a</title>
<g id="a_edge7"><a xlink:href="dir_000005_000019.html" target="_top">
<path fill="none" stroke="#63b8ff" d="M66.83,-125.75C65.34,-118.8 64.9,-108.85 65.52,-100.13"/>
<polygon fill="#63b8ff" stroke="#63b8ff" points="69.01,-100.47 66.87,-90.09 62.07,-99.53 69.01,-100.47"/>
</a>
</g>
<g id="a_edge7&#45;headlabel"><a xlink:href="dir_000005_000019.html" target="_top" xlink:title="2">
<text text-anchor="middle" x="71.34" y="-101.91" font-family="Helvetica,sans-Serif" font-size="10.00" fill="#63b8ff">2</text>
</a>
</g>
</g>
<!-- dir_c0b2892c4e9061cc199b0409c7be21e5&#45;&gt;dir_449e025360b1e0775671965c2105f9c1 -->
<g id="edge8" class="edge">
<title>dir_c0b2892c4e9061cc199b0409c7be21e5&#45;&gt;dir_449e025360b1e0775671965c2105f9c1</title>
<g id="a_edge8"><a xlink:href="dir_000012_000011.html" target="_top">
<path fill="none" stroke="#63b8ff" d="M143.77,-125.66C141.34,-108.17 135.88,-68.8 132.61,-45.27"/>
<polygon fill="#63b8ff" stroke="#63b8ff" points="136.05,-44.58 131.2,-35.16 129.11,-45.54 136.05,-44.58"/>
</a>
</g>
<g id="a_edge8&#45;headlabel"><a xlink:href="dir_000012_000011.html" target="_top" xlink:title="2">
<text text-anchor="middle" x="139.35" y="-45.25" font-family="Helvetica,sans-Serif" font-size="10.00" fill="#63b8ff">2</text>
</a>
</g>
</g>
<!-- dir_9228928e920d3547c08edb1901b2c09a&#45;&gt;dir_449e025360b1e0775671965c2105f9c1 -->
<g id="edge10" class="edge">
<title>dir_9228928e920d3547c08edb1901b2c09a&#45;&gt;dir_449e025360b1e0775671965c2105f9c1</title>
<g id="a_edge10"><a xlink:href="dir_000019_000011.html" target="_top">
<path fill="none" stroke="#63b8ff" d="M81.32,-70.98C89.81,-63.23 102.56,-51.58 112.88,-42.14"/>
<polygon fill="#63b8ff" stroke="#63b8ff" points="115.49,-44.5 120.51,-35.17 110.77,-39.33 115.49,-44.5"/>
</a>
</g>
<g id="a_edge10&#45;headlabel"><a xlink:href="dir_000019_000011.html" target="_top" xlink:title="4">
<text text-anchor="middle" x="114.75" y="-46.52" font-family="Helvetica,sans-Serif" font-size="10.00" fill="#63b8ff">4</text>
</a>
</g>
</g>
<!-- dir_9228928e920d3547c08edb1901b2c09a&#45;&gt;dir_2fdd05c8b44becc61a6381da59ffda6c -->
<g id="edge9" class="edge">
<title>dir_9228928e920d3547c08edb1901b2c09a&#45;&gt;dir_2fdd05c8b44becc61a6381da59ffda6c</title>
<g id="a_edge9"><a xlink:href="dir_000019_000005.html" target="_top">
<path fill="none" stroke="#63b8ff" d="M77.13,-90.09C78.64,-96.99 79.09,-106.93 78.49,-115.66"/>
<polygon fill="#63b8ff" stroke="#63b8ff" points="75,-115.38 77.17,-125.75 81.94,-116.29 75,-115.38"/>
</a>
</g>
<g id="a_edge9&#45;headlabel"><a xlink:href="dir_000019_000005.html" target="_top" xlink:title="1">
<text text-anchor="middle" x="72.65" y="-108.94" font-family="Helvetica,sans-Serif" font-size="10.00" fill="#63b8ff">1</text>
</a>
</g>
</g>
</g>
</svg>
