<?xml version="1.0" encoding="UTF-8" standalone="no"?>
<!DOCTYPE svg PUBLIC "-//W3C//DTD SVG 1.1//EN"
 "http://www.w3.org/Graphics/SVG/1.1/DTD/svg11.dtd">
<!-- Generated by graphviz version 2.43.0 (0)
 -->
<!-- Title: include/engine Pages: 1 -->
<svg width="228pt" height="259pt"
 viewBox="0.00 0.00 228.00 259.00" xmlns="http://www.w3.org/2000/svg" xmlns:xlink="http://www.w3.org/1999/xlink">
<g id="graph0" class="graph" transform="scale(1 1) rotate(0) translate(4 255)">
<title>include/engine</title>
<g id="clust1" class="cluster">
<title>clusterdir_d44c64559bbebec7f509842c48db8b23</title>
<g id="a_clust1"><a xlink:href="dir_d44c64559bbebec7f509842c48db8b23.html" target="_top" xlink:title="include">
<polygon fill="#daedff" stroke="#404040" stroke-dasharray="5,2" points="8,-8 8,-243 212,-243 212,-8 8,-8"/>
<text text-anchor="middle" x="110" y="-231" font-family="Helvetica,sans-Serif" font-size="10.00">include</text>
</a>
</g>
</g>
<g id="clust2" class="cluster">
<title>clusterdir_a7f531b1c37460085cedd304cb8df01d</title>
<g id="a_clust2"><a xlink:href="dir_a7f531b1c37460085cedd304cb8df01d.html" target="_top">
<polygon fill="#daedff" stroke="#404040" stroke-width="2" points="16,-16 16,-216 204,-216 204,-16 16,-16"/>
</a>
</g>
</g>
<!-- dir_a7f531b1c37460085cedd304cb8df01d -->
<g id="node1" class="node">
<title>dir_a7f531b1c37460085cedd304cb8df01d</title>
<text text-anchor="middle" x="171" y="-196" font-family="Helvetica,sans-Serif" font-size="10.00">engine</text>
</g>
<!-- dir_9f8aea6aa0d0f8b2278afd3a6ed97649 -->
<g id="node2" class="node">
<title>dir_9f8aea6aa0d0f8b2278afd3a6ed97649</title>
<g id="a_node2"><a xlink:href="dir_9f8aea6aa0d0f8b2278afd3a6ed97649.html" target="_top" xlink:title="audio">
<polygon fill="#4ea9ff" stroke="#404040" points="128,-208 84,-208 84,-189 128,-189 128,-208"/>
<text text-anchor="middle" x="106" y="-196" font-family="Helvetica,sans-Serif" font-size="10.00">audio</text>
</a>
</g>
</g>
<!-- dir_7f643b58e2241519524527f42d96aecd -->
<g id="node3" class="node">
<title>dir_7f643b58e2241519524527f42d96aecd</title>
<g id="a_node3"><a xlink:href="dir_7f643b58e2241519524527f42d96aecd.html" target="_top" xlink:title="core">
<polygon fill="#4ea9ff" stroke="#404040" points="94,-153 56,-153 56,-134 94,-134 94,-153"/>
<text text-anchor="middle" x="75" y="-141" font-family="Helvetica,sans-Serif" font-size="10.00">core</text>
</a>
</g>
</g>
<!-- dir_9f8aea6aa0d0f8b2278afd3a6ed97649&#45;&gt;dir_7f643b58e2241519524527f42d96aecd -->
<g id="edge1" class="edge">
<title>dir_9f8aea6aa0d0f8b2278afd3a6ed97649&#45;&gt;dir_7f643b58e2241519524527f42d96aecd</title>
<g id="a_edge1"><a xlink:href="dir_000000_000004.html" target="_top">
<path fill="none" stroke="#63b8ff" d="M100.88,-188.75C96.64,-181.49 90.47,-170.95 85.22,-161.98"/>
<polygon fill="#63b8ff" stroke="#63b8ff" points="88.09,-159.95 80.02,-153.09 82.05,-163.49 88.09,-159.95"/>
</a>
</g>
<g id="a_edge1&#45;headlabel"><a xlink:href="dir_000000_000004.html" target="_top" xlink:title="1">
<text text-anchor="middle" x="92.36" y="-159.12" font-family="Helvetica,sans-Serif" font-size="10.00" fill="#63b8ff">1</text>
</a>
</g>
</g>
<!-- dir_449e025360b1e0775671965c2105f9c1 -->
<g id="node6" class="node">
<title>dir_449e025360b1e0775671965c2105f9c1</title>
<g id="a_node6"><a xlink:href="dir_449e025360b1e0775671965c2105f9c1.html" target="_top" xlink:title="public">
<polygon fill="#4ea9ff" stroke="#404040" points="98,-98 52,-98 52,-79 98,-79 98,-98"/>
<text text-anchor="middle" x="75" y="-86" font-family="Helvetica,sans-Serif" font-size="10.00">public</text>
</a>
</g>
</g>
<!-- dir_7f643b58e2241519524527f42d96aecd&#45;&gt;dir_449e025360b1e0775671965c2105f9c1 -->
<g id="edge2" class="edge">
<title>dir_7f643b58e2241519524527f42d96aecd&#45;&gt;dir_449e025360b1e0775671965c2105f9c1</title>
<g id="a_edge2"><a xlink:href="dir_000004_000011.html" target="_top">
<path fill="none" stroke="#63b8ff" d="M69.83,-133.75C68.34,-126.8 67.9,-116.85 68.52,-108.13"/>
<polygon fill="#63b8ff" stroke="#63b8ff" points="72.01,-108.47 69.87,-98.09 65.07,-107.53 72.01,-108.47"/>
</a>
</g>
<g id="a_edge2&#45;headlabel"><a xlink:href="dir_000004_000011.html" target="_top" xlink:title="1">
<text text-anchor="middle" x="74.34" y="-109.91" font-family="Helvetica,sans-Serif" font-size="10.00" fill="#63b8ff">1</text>
</a>
</g>
</g>
<!-- dir_f77ff83871a8c0c224aa74732336c103 -->
<g id="node4" class="node">
<title>dir_f77ff83871a8c0c224aa74732336c103</title>
<g id="a_node4"><a xlink:href="dir_f77ff83871a8c0c224aa74732336c103.html" target="_top" xlink:title="input">
<polygon fill="#4ea9ff" stroke="#404040" points="65.5,-208 24.5,-208 24.5,-189 65.5,-189 65.5,-208"/>
<text text-anchor="middle" x="45" y="-196" font-family="Helvetica,sans-Serif" font-size="10.00">input</text>
</a>
</g>
</g>
<!-- dir_f77ff83871a8c0c224aa74732336c103&#45;&gt;dir_7f643b58e2241519524527f42d96aecd -->
<g id="edge4" class="edge">
<title>dir_f77ff83871a8c0c224aa74732336c103&#45;&gt;dir_7f643b58e2241519524527f42d96aecd</title>
<g id="a_edge4"><a xlink:href="dir_000008_000004.html" target="_top">
<path fill="none" stroke="#63b8ff" d="M49.95,-188.75C54.06,-181.49 60.03,-170.95 65.1,-161.98"/>
<polygon fill="#63b8ff" stroke="#63b8ff" points="68.26,-163.52 70.14,-153.09 62.17,-160.07 68.26,-163.52"/>
</a>
</g>
<g id="a_edge4&#45;headlabel"><a xlink:href="dir_000008_000004.html" target="_top" xlink:title="1">
<text text-anchor="middle" x="68.96" y="-165.54" font-family="Helvetica,sans-Serif" font-size="10.00" fill="#63b8ff">1</text>
</a>
</g>
</g>
<!-- dir_f77ff83871a8c0c224aa74732336c103&#45;&gt;dir_449e025360b1e0775671965c2105f9c1 -->
<g id="edge3" class="edge">
<title>dir_f77ff83871a8c0c224aa74732336c103&#45;&gt;dir_449e025360b1e0775671965c2105f9c1</title>
<g id="a_edge3"><a xlink:href="dir_000008_000011.html" target="_top">
<path fill="none" stroke="#63b8ff" d="M43.85,-188.64C42.54,-176.14 41.26,-152.78 47,-134 50.06,-123.98 56.01,-114 61.64,-106.03"/>
<polygon fill="#63b8ff" stroke="#63b8ff" points="64.46,-108.1 67.68,-98.01 58.87,-103.89 64.46,-108.1"/>
</a>
</g>
<g id="a_edge3&#45;headlabel"><a xlink:href="dir_000008_000011.html" target="_top" xlink:title="2">
<text text-anchor="middle" x="64.57" y="-110.18" font-family="Helvetica,sans-Serif" font-size="10.00" fill="#63b8ff">2</text>
</a>
</g>
</g>
<!-- dir_507eef3fc303406776132f4dfa1b45c0 -->
<g id="node5" class="node">
<title>dir_507eef3fc303406776132f4dfa1b45c0</title>
<g id="a_node5"><a xlink:href="dir_507eef3fc303406776132f4dfa1b45c0.html" target="_top" xlink:title="physics">
<polygon fill="#4ea9ff" stroke="#404040" points="139.5,-43 86.5,-43 86.5,-24 139.5,-24 139.5,-43"/>
<text text-anchor="middle" x="113" y="-31" font-family="Helvetica,sans-Serif" font-size="10.00">physics</text>
</a>
</g>
</g>
<!-- dir_507eef3fc303406776132f4dfa1b45c0&#45;&gt;dir_7f643b58e2241519524527f42d96aecd -->
<g id="edge6" class="edge">
<title>dir_507eef3fc303406776132f4dfa1b45c0&#45;&gt;dir_7f643b58e2241519524527f42d96aecd</title>
<g id="a_edge6"><a xlink:href="dir_000010_000004.html" target="_top">
<path fill="none" stroke="#63b8ff" d="M113.58,-43.03C114.12,-55.53 114,-79.34 107,-98 103.17,-108.21 96.36,-118.19 90,-126.11"/>
<polygon fill="#63b8ff" stroke="#63b8ff" points="87.27,-123.92 83.45,-133.8 92.6,-128.46 87.27,-123.92"/>
</a>
</g>
<g id="a_edge6&#45;headlabel"><a xlink:href="dir_000010_000004.html" target="_top" xlink:title="1">
<text text-anchor="middle" x="87.44" y="-116.84" font-family="Helvetica,sans-Serif" font-size="10.00" fill="#63b8ff">1</text>
</a>
</g>
</g>
<!-- dir_507eef3fc303406776132f4dfa1b45c0&#45;&gt;dir_449e025360b1e0775671965c2105f9c1 -->
<g id="edge5" class="edge">
<title>dir_507eef3fc303406776132f4dfa1b45c0&#45;&gt;dir_449e025360b1e0775671965c2105f9c1</title>
<g id="a_edge5"><a xlink:href="dir_000010_000011.html" target="_top">
<path fill="none" stroke="#63b8ff" d="M111.97,-43.09C108.23,-50.6 100.65,-61.72 93.17,-70.96"/>
<polygon fill="#63b8ff" stroke="#63b8ff" points="90.33,-68.89 86.44,-78.75 95.63,-73.47 90.33,-68.89"/>
</a>
</g>
<g id="a_edge5&#45;headlabel"><a xlink:href="dir_000010_000011.html" target="_top" xlink:title="10">
<text text-anchor="middle" x="90.53" y="-61.82" font-family="Helvetica,sans-Serif" font-size="10.00" fill="#63b8ff">10</text>
</a>
</g>
</g>
<!-- dir_449e025360b1e0775671965c2105f9c1&#45;&gt;dir_9f8aea6aa0d0f8b2278afd3a6ed97649 -->
<g id="edge9" class="edge">
<title>dir_449e025360b1e0775671965c2105f9c1&#45;&gt;dir_9f8aea6aa0d0f8b2278afd3a6ed97649</title>
<g id="a_edge9"><a xlink:href="dir_000011_000000.html" target="_top">
<path fill="none" stroke="#63b8ff" d="M82.27,-98.02C89.02,-106.51 98.68,-120.24 103,-134 107.55,-148.5 108.08,-165.77 107.59,-178.63"/>
<polygon fill="#63b8ff" stroke="#63b8ff" points="104.09,-178.43 106.97,-188.63 111.08,-178.86 104.09,-178.43"/>
</a>
</g>
<g id="a_edge9&#45;headlabel"><a xlink:href="dir_000011_000000.html" target="_top" xlink:title="2">
<text text-anchor="middle" x="101.48" y="-172.17" font-family="Helvetica,sans-Serif" font-size="10.00" fill="#63b8ff">2</text>
</a>
</g>
</g>
<!-- dir_449e025360b1e0775671965c2105f9c1&#45;&gt;dir_7f643b58e2241519524527f42d96aecd -->
<g id="edge8" class="edge">
<title>dir_449e025360b1e0775671965c2105f9c1&#45;&gt;dir_7f643b58e2241519524527f42d96aecd</title>
<g id="a_edge8"><a xlink:href="dir_000011_000004.html" target="_top">
<path fill="none" stroke="#63b8ff" d="M80.13,-98.09C81.64,-104.99 82.09,-114.93 81.49,-123.66"/>
<polygon fill="#63b8ff" stroke="#63b8ff" points="78,-123.38 80.17,-133.75 84.94,-124.29 78,-123.38"/>
</a>
</g>
<g id="a_edge8&#45;headlabel"><a xlink:href="dir_000011_000004.html" target="_top" xlink:title="1">
<text text-anchor="middle" x="75.65" y="-116.94" font-family="Helvetica,sans-Serif" font-size="10.00" fill="#63b8ff">1</text>
</a>
</g>
</g>
<!-- dir_449e025360b1e0775671965c2105f9c1&#45;&gt;dir_507eef3fc303406776132f4dfa1b45c0 -->
<g id="edge7" class="edge">
<title>dir_449e025360b1e0775671965c2105f9c1&#45;&gt;dir_507eef3fc303406776132f4dfa1b45c0</title>
<g id="a_edge7"><a xlink:href="dir_000011_000010.html" target="_top">
<path fill="none" stroke="#63b8ff" d="M76.11,-78.75C79.91,-71.18 87.51,-60.05 94.99,-50.84"/>
<polygon fill="#63b8ff" stroke="#63b8ff" points="97.81,-52.94 101.71,-43.09 92.52,-48.36 97.81,-52.94"/>
</a>
</g>
<g id="a_edge7&#45;headlabel"><a xlink:href="dir_000011_000010.html" target="_top" xlink:title="4">
<text text-anchor="middle" x="97.6" y="-55.02" font-family="Helvetica,sans-Serif" font-size="10.00" fill="#63b8ff">4</text>
</a>
</g>
</g>
<!-- dir_ba73608aff21b3524a8f2c22a10ff48a -->
<g id="node7" class="node">
<title>dir_ba73608aff21b3524a8f2c22a10ff48a</title>
<g id="a_node7"><a xlink:href="dir_ba73608aff21b3524a8f2c22a10ff48a.html" target="_top" xlink:title="util">
<polygon fill="#4ea9ff" stroke="#404040" points="68,-43 36,-43 36,-24 68,-24 68,-43"/>
<text text-anchor="middle" x="52" y="-31" font-family="Helvetica,sans-Serif" font-size="10.00">util</text>
</a>
</g>
</g>
<!-- dir_449e025360b1e0775671965c2105f9c1&#45;&gt;dir_ba73608aff21b3524a8f2c22a10ff48a -->
<g id="edge10" class="edge">
<title>dir_449e025360b1e0775671965c2105f9c1&#45;&gt;dir_ba73608aff21b3524a8f2c22a10ff48a</title>
<g id="a_edge10"><a xlink:href="dir_000011_000018.html" target="_top">
<path fill="none" stroke="#63b8ff" d="M71.2,-78.75C68.09,-71.57 63.58,-61.18 59.71,-52.27"/>
<polygon fill="#63b8ff" stroke="#63b8ff" points="62.92,-50.87 55.73,-43.09 56.5,-53.66 62.92,-50.87"/>
</a>
</g>
<g id="a_edge10&#45;headlabel"><a xlink:href="dir_000011_000018.html" target="_top" xlink:title="1">
<text text-anchor="middle" x="66.95" y="-50.54" font-family="Helvetica,sans-Serif" font-size="10.00" fill="#63b8ff">1</text>
</a>
</g>
</g>
</g>
</svg>
