<?xml version="1.0" encoding="UTF-8" standalone="no"?>
<!DOCTYPE svg PUBLIC "-//W3C//DTD SVG 1.1//EN"
 "http://www.w3.org/Graphics/SVG/1.1/DTD/svg11.dtd">
<!-- Generated by graphviz version 2.43.0 (0)
 -->
<!-- Title: include/engine Pages: 1 -->
<svg width="278pt" height="259pt"
 viewBox="0.00 0.00 278.00 259.00" xmlns="http://www.w3.org/2000/svg" xmlns:xlink="http://www.w3.org/1999/xlink">
<g id="graph0" class="graph" transform="scale(1 1) rotate(0) translate(4 255)">
<title>include/engine</title>
<g id="clust1" class="cluster">
<title>clusterdir_d44c64559bbebec7f509842c48db8b23</title>
<g id="a_clust1"><a xlink:href="dir_d44c64559bbebec7f509842c48db8b23.html" target="_top" xlink:title="include">
<polygon fill="#daedff" stroke="#404040" stroke-dasharray="5,2" points="8,-8 8,-243 262,-243 262,-8 8,-8"/>
<text text-anchor="middle" x="135" y="-231" font-family="Helvetica,sans-Serif" font-size="10.00">include</text>
</a>
</g>
</g>
<g id="clust2" class="cluster">
<title>clusterdir_a7f531b1c37460085cedd304cb8df01d</title>
<g id="a_clust2"><a xlink:href="dir_a7f531b1c37460085cedd304cb8df01d.html" target="_top">
<polygon fill="#daedff" stroke="#404040" stroke-width="2" points="16,-16 16,-216 254,-216 254,-16 16,-16"/>
</a>
</g>
</g>
<!-- dir_a7f531b1c37460085cedd304cb8df01d -->
<g id="node1" class="node">
<title>dir_a7f531b1c37460085cedd304cb8df01d</title>
<text text-anchor="middle" x="221" y="-196" font-family="Helvetica,sans-Serif" font-size="10.00">engine</text>
</g>
<!-- dir_9f8aea6aa0d0f8b2278afd3a6ed97649 -->
<g id="node2" class="node">
<title>dir_9f8aea6aa0d0f8b2278afd3a6ed97649</title>
<g id="a_node2"><a xlink:href="dir_9f8aea6aa0d0f8b2278afd3a6ed97649.html" target="_top" xlink:title="audio">
<polygon fill="#4ea9ff" stroke="#404040" points="178,-208 134,-208 134,-189 178,-189 178,-208"/>
<text text-anchor="middle" x="156" y="-196" font-family="Helvetica,sans-Serif" font-size="10.00">audio</text>
</a>
</g>
</g>
<!-- dir_7f643b58e2241519524527f42d96aecd -->
<g id="node3" class="node">
<title>dir_7f643b58e2241519524527f42d96aecd</title>
<g id="a_node3"><a xlink:href="dir_7f643b58e2241519524527f42d96aecd.html" target="_top" xlink:title="core">
<polygon fill="#4ea9ff" stroke="#404040" points="144,-153 106,-153 106,-134 144,-134 144,-153"/>
<text text-anchor="middle" x="125" y="-141" font-family="Helvetica,sans-Serif" font-size="10.00">core</text>
</a>
</g>
</g>
<!-- dir_9f8aea6aa0d0f8b2278afd3a6ed97649&#45;&gt;dir_7f643b58e2241519524527f42d96aecd -->
<g id="edge1" class="edge">
<title>dir_9f8aea6aa0d0f8b2278afd3a6ed97649&#45;&gt;dir_7f643b58e2241519524527f42d96aecd</title>
<g id="a_edge1"><a xlink:href="dir_000000_000004.html" target="_top">
<path fill="none" stroke="#63b8ff" d="M150.88,-188.75C146.64,-181.49 140.47,-170.95 135.22,-161.98"/>
<polygon fill="#63b8ff" stroke="#63b8ff" points="138.09,-159.95 130.02,-153.09 132.05,-163.49 138.09,-159.95"/>
</a>
</g>
<g id="a_edge1&#45;headlabel"><a xlink:href="dir_000000_000004.html" target="_top" xlink:title="1">
<text text-anchor="middle" x="142.36" y="-159.12" font-family="Helvetica,sans-Serif" font-size="10.00" fill="#63b8ff">1</text>
</a>
</g>
</g>
<!-- dir_449e025360b1e0775671965c2105f9c1 -->
<g id="node6" class="node">
<title>dir_449e025360b1e0775671965c2105f9c1</title>
<g id="a_node6"><a xlink:href="dir_449e025360b1e0775671965c2105f9c1.html" target="_top" xlink:title="public">
<polygon fill="#4ea9ff" stroke="#404040" points="148,-98 102,-98 102,-79 148,-79 148,-98"/>
<text text-anchor="middle" x="125" y="-86" font-family="Helvetica,sans-Serif" font-size="10.00">public</text>
</a>
</g>
</g>
<!-- dir_7f643b58e2241519524527f42d96aecd&#45;&gt;dir_449e025360b1e0775671965c2105f9c1 -->
<g id="edge2" class="edge">
<title>dir_7f643b58e2241519524527f42d96aecd&#45;&gt;dir_449e025360b1e0775671965c2105f9c1</title>
<g id="a_edge2"><a xlink:href="dir_000004_000011.html" target="_top">
<path fill="none" stroke="#63b8ff" d="M119.83,-133.75C118.34,-126.8 117.9,-116.85 118.52,-108.13"/>
<polygon fill="#63b8ff" stroke="#63b8ff" points="122.01,-108.47 119.87,-98.09 115.07,-107.53 122.01,-108.47"/>
</a>
</g>
<g id="a_edge2&#45;headlabel"><a xlink:href="dir_000004_000011.html" target="_top" xlink:title="1">
<text text-anchor="middle" x="124.34" y="-109.91" font-family="Helvetica,sans-Serif" font-size="10.00" fill="#63b8ff">1</text>
</a>
</g>
</g>
<!-- dir_f77ff83871a8c0c224aa74732336c103 -->
<g id="node4" class="node">
<title>dir_f77ff83871a8c0c224aa74732336c103</title>
<g id="a_node4"><a xlink:href="dir_f77ff83871a8c0c224aa74732336c103.html" target="_top" xlink:title="input">
<polygon fill="#4ea9ff" stroke="#404040" points="115.5,-208 74.5,-208 74.5,-189 115.5,-189 115.5,-208"/>
<text text-anchor="middle" x="95" y="-196" font-family="Helvetica,sans-Serif" font-size="10.00">input</text>
</a>
</g>
</g>
<!-- dir_f77ff83871a8c0c224aa74732336c103&#45;&gt;dir_7f643b58e2241519524527f42d96aecd -->
<g id="edge4" class="edge">
<title>dir_f77ff83871a8c0c224aa74732336c103&#45;&gt;dir_7f643b58e2241519524527f42d96aecd</title>
<g id="a_edge4"><a xlink:href="dir_000008_000004.html" target="_top">
<path fill="none" stroke="#63b8ff" d="M99.95,-188.75C104.06,-181.49 110.03,-170.95 115.1,-161.98"/>
<polygon fill="#63b8ff" stroke="#63b8ff" points="118.26,-163.52 120.14,-153.09 112.17,-160.07 118.26,-163.52"/>
</a>
</g>
<g id="a_edge4&#45;headlabel"><a xlink:href="dir_000008_000004.html" target="_top" xlink:title="1">
<text text-anchor="middle" x="118.96" y="-165.54" font-family="Helvetica,sans-Serif" font-size="10.00" fill="#63b8ff">1</text>
</a>
</g>
</g>
<!-- dir_f77ff83871a8c0c224aa74732336c103&#45;&gt;dir_449e025360b1e0775671965c2105f9c1 -->
<g id="edge3" class="edge">
<title>dir_f77ff83871a8c0c224aa74732336c103&#45;&gt;dir_449e025360b1e0775671965c2105f9c1</title>
<g id="a_edge3"><a xlink:href="dir_000008_000011.html" target="_top">
<path fill="none" stroke="#63b8ff" d="M93.85,-188.64C92.54,-176.14 91.26,-152.78 97,-134 100.06,-123.98 106.01,-114 111.64,-106.03"/>
<polygon fill="#63b8ff" stroke="#63b8ff" points="114.46,-108.1 117.68,-98.01 108.87,-103.89 114.46,-108.1"/>
</a>
</g>
<g id="a_edge3&#45;headlabel"><a xlink:href="dir_000008_000011.html" target="_top" xlink:title="2">
<text text-anchor="middle" x="114.57" y="-110.18" font-family="Helvetica,sans-Serif" font-size="10.00" fill="#63b8ff">2</text>
</a>
</g>
</g>
<!-- dir_507eef3fc303406776132f4dfa1b45c0 -->
<g id="node5" class="node">
<title>dir_507eef3fc303406776132f4dfa1b45c0</title>
<g id="a_node5"><a xlink:href="dir_507eef3fc303406776132f4dfa1b45c0.html" target="_top" xlink:title="physics">
<polygon fill="#4ea9ff" stroke="#404040" points="151.5,-43 98.5,-43 98.5,-24 151.5,-24 151.5,-43"/>
<text text-anchor="middle" x="125" y="-31" font-family="Helvetica,sans-Serif" font-size="10.00">physics</text>
</a>
</g>
</g>
<!-- dir_507eef3fc303406776132f4dfa1b45c0&#45;&gt;dir_7f643b58e2241519524527f42d96aecd -->
<g id="edge6" class="edge">
<title>dir_507eef3fc303406776132f4dfa1b45c0&#45;&gt;dir_7f643b58e2241519524527f42d96aecd</title>
<g id="a_edge6"><a xlink:href="dir_000010_000004.html" target="_top">
<path fill="none" stroke="#63b8ff" d="M133.75,-43.1C141.56,-51.44 152.45,-64.87 157,-79 162.41,-95.8 151.79,-113.65 141.37,-126.13"/>
<polygon fill="#63b8ff" stroke="#63b8ff" points="138.5,-124.07 134.37,-133.83 143.69,-128.78 138.5,-124.07"/>
</a>
</g>
<g id="a_edge6&#45;headlabel"><a xlink:href="dir_000010_000004.html" target="_top" xlink:title="1">
<text text-anchor="middle" x="138.82" y="-117" font-family="Helvetica,sans-Serif" font-size="10.00" fill="#63b8ff">1</text>
</a>
</g>
</g>
<!-- dir_507eef3fc303406776132f4dfa1b45c0&#45;&gt;dir_449e025360b1e0775671965c2105f9c1 -->
<g id="edge5" class="edge">
<title>dir_507eef3fc303406776132f4dfa1b45c0&#45;&gt;dir_449e025360b1e0775671965c2105f9c1</title>
<g id="a_edge5"><a xlink:href="dir_000010_000011.html" target="_top">
<path fill="none" stroke="#63b8ff" d="M130.13,-43.09C131.64,-49.99 132.09,-59.93 131.49,-68.66"/>
<polygon fill="#63b8ff" stroke="#63b8ff" points="128,-68.38 130.17,-78.75 134.94,-69.29 128,-68.38"/>
</a>
</g>
<g id="a_edge5&#45;headlabel"><a xlink:href="dir_000010_000011.html" target="_top" xlink:title="10">
<text text-anchor="middle" x="125.65" y="-61.94" font-family="Helvetica,sans-Serif" font-size="10.00" fill="#63b8ff">10</text>
</a>
</g>
</g>
<!-- dir_449e025360b1e0775671965c2105f9c1&#45;&gt;dir_9f8aea6aa0d0f8b2278afd3a6ed97649 -->
<g id="edge9" class="edge">
<title>dir_449e025360b1e0775671965c2105f9c1&#45;&gt;dir_9f8aea6aa0d0f8b2278afd3a6ed97649</title>
<g id="a_edge9"><a xlink:href="dir_000011_000000.html" target="_top">
<path fill="none" stroke="#63b8ff" d="M132.27,-98.02C139.02,-106.51 148.68,-120.24 153,-134 157.55,-148.5 158.08,-165.77 157.59,-178.63"/>
<polygon fill="#63b8ff" stroke="#63b8ff" points="154.09,-178.43 156.97,-188.63 161.08,-178.86 154.09,-178.43"/>
</a>
</g>
<g id="a_edge9&#45;headlabel"><a xlink:href="dir_000011_000000.html" target="_top" xlink:title="2">
<text text-anchor="middle" x="151.48" y="-172.17" font-family="Helvetica,sans-Serif" font-size="10.00" fill="#63b8ff">2</text>
</a>
</g>
</g>
<!-- dir_449e025360b1e0775671965c2105f9c1&#45;&gt;dir_7f643b58e2241519524527f42d96aecd -->
<g id="edge8" class="edge">
<title>dir_449e025360b1e0775671965c2105f9c1&#45;&gt;dir_7f643b58e2241519524527f42d96aecd</title>
<g id="a_edge8"><a xlink:href="dir_000011_000004.html" target="_top">
<path fill="none" stroke="#63b8ff" d="M130.13,-98.09C131.64,-104.99 132.09,-114.93 131.49,-123.66"/>
<polygon fill="#63b8ff" stroke="#63b8ff" points="128,-123.38 130.17,-133.75 134.94,-124.29 128,-123.38"/>
</a>
</g>
<g id="a_edge8&#45;headlabel"><a xlink:href="dir_000011_000004.html" target="_top" xlink:title="2">
<text text-anchor="middle" x="125.65" y="-116.94" font-family="Helvetica,sans-Serif" font-size="10.00" fill="#63b8ff">2</text>
</a>
</g>
</g>
<!-- dir_449e025360b1e0775671965c2105f9c1&#45;&gt;dir_507eef3fc303406776132f4dfa1b45c0 -->
<g id="edge7" class="edge">
<title>dir_449e025360b1e0775671965c2105f9c1&#45;&gt;dir_507eef3fc303406776132f4dfa1b45c0</title>
<g id="a_edge7"><a xlink:href="dir_000011_000010.html" target="_top">
<path fill="none" stroke="#63b8ff" d="M119.83,-78.75C118.34,-71.8 117.9,-61.85 118.52,-53.13"/>
<polygon fill="#63b8ff" stroke="#63b8ff" points="122.01,-53.47 119.87,-43.09 115.07,-52.53 122.01,-53.47"/>
</a>
</g>
<g id="a_edge7&#45;headlabel"><a xlink:href="dir_000011_000010.html" target="_top" xlink:title="4">
<text text-anchor="middle" x="124.34" y="-54.91" font-family="Helvetica,sans-Serif" font-size="10.00" fill="#63b8ff">4</text>
</a>
</g>
</g>
<!-- dir_ba73608aff21b3524a8f2c22a10ff48a -->
<g id="node7" class="node">
<title>dir_ba73608aff21b3524a8f2c22a10ff48a</title>
<g id="a_node7"><a xlink:href="dir_ba73608aff21b3524a8f2c22a10ff48a.html" target="_top" xlink:title="util">
<polygon fill="#4ea9ff" stroke="#404040" points="56,-208 24,-208 24,-189 56,-189 56,-208"/>
<text text-anchor="middle" x="40" y="-196" font-family="Helvetica,sans-Serif" font-size="10.00">util</text>
</a>
</g>
</g>
</g>
</svg>
