<?xml version="1.0" encoding="UTF-8" standalone="no"?>
<!DOCTYPE svg PUBLIC "-//W3C//DTD SVG 1.1//EN"
 "http://www.w3.org/Graphics/SVG/1.1/DTD/svg11.dtd">
<!-- Generated by graphviz version 2.43.0 (0)
 -->
<!-- Title: include/engine Pages: 1 -->
<svg width="349pt" height="259pt"
 viewBox="0.00 0.00 349.00 259.00" xmlns="http://www.w3.org/2000/svg" xmlns:xlink="http://www.w3.org/1999/xlink">
<g id="graph0" class="graph" transform="scale(1 1) rotate(0) translate(4 255)">
<title>include/engine</title>
<g id="clust1" class="cluster">
<title>clusterdir_d44c64559bbebec7f509842c48db8b23</title>
<g id="a_clust1"><a xlink:href="dir_d44c64559bbebec7f509842c48db8b23.html" target="_top" xlink:title="include">
<polygon fill="#daedff" stroke="#404040" stroke-dasharray="5,2" points="8,-8 8,-243 333,-243 333,-8 8,-8"/>
<text text-anchor="middle" x="170.5" y="-231" font-family="Helvetica,sans-Serif" font-size="10.00">include</text>
</a>
</g>
</g>
<g id="clust2" class="cluster">
<title>clusterdir_a7f531b1c37460085cedd304cb8df01d</title>
<g id="a_clust2"><a xlink:href="dir_a7f531b1c37460085cedd304cb8df01d.html" target="_top">
<polygon fill="#daedff" stroke="#404040" stroke-width="2" points="16,-16 16,-216 325,-216 325,-16 16,-16"/>
</a>
</g>
</g>
<!-- dir_a7f531b1c37460085cedd304cb8df01d -->
<g id="node1" class="node">
<title>dir_a7f531b1c37460085cedd304cb8df01d</title>
<text text-anchor="middle" x="292" y="-196" font-family="Helvetica,sans-Serif" font-size="10.00">engine</text>
</g>
<!-- dir_9f8aea6aa0d0f8b2278afd3a6ed97649 -->
<g id="node2" class="node">
<title>dir_9f8aea6aa0d0f8b2278afd3a6ed97649</title>
<g id="a_node2"><a xlink:href="dir_9f8aea6aa0d0f8b2278afd3a6ed97649.html" target="_top" xlink:title="audio">
<polygon fill="#4ea9ff" stroke="#404040" points="249,-208 205,-208 205,-189 249,-189 249,-208"/>
<text text-anchor="middle" x="227" y="-196" font-family="Helvetica,sans-Serif" font-size="10.00">audio</text>
</a>
</g>
</g>
<!-- dir_7f643b58e2241519524527f42d96aecd -->
<g id="node3" class="node">
<title>dir_7f643b58e2241519524527f42d96aecd</title>
<g id="a_node3"><a xlink:href="dir_7f643b58e2241519524527f42d96aecd.html" target="_top" xlink:title="core">
<polygon fill="#4ea9ff" stroke="#404040" points="215,-153 177,-153 177,-134 215,-134 215,-153"/>
<text text-anchor="middle" x="196" y="-141" font-family="Helvetica,sans-Serif" font-size="10.00">core</text>
</a>
</g>
</g>
<!-- dir_9f8aea6aa0d0f8b2278afd3a6ed97649&#45;&gt;dir_7f643b58e2241519524527f42d96aecd -->
<g id="edge1" class="edge">
<title>dir_9f8aea6aa0d0f8b2278afd3a6ed97649&#45;&gt;dir_7f643b58e2241519524527f42d96aecd</title>
<g id="a_edge1"><a xlink:href="dir_000000_000004.html" target="_top">
<path fill="none" stroke="#63b8ff" d="M221.88,-188.75C217.64,-181.49 211.47,-170.95 206.22,-161.98"/>
<polygon fill="#63b8ff" stroke="#63b8ff" points="209.09,-159.95 201.02,-153.09 203.05,-163.49 209.09,-159.95"/>
</a>
</g>
<g id="a_edge1&#45;headlabel"><a xlink:href="dir_000000_000004.html" target="_top" xlink:title="1">
<text text-anchor="middle" x="213.36" y="-159.12" font-family="Helvetica,sans-Serif" font-size="10.00" fill="#63b8ff">1</text>
</a>
</g>
</g>
<!-- dir_449e025360b1e0775671965c2105f9c1 -->
<g id="node6" class="node">
<title>dir_449e025360b1e0775671965c2105f9c1</title>
<g id="a_node6"><a xlink:href="dir_449e025360b1e0775671965c2105f9c1.html" target="_top" xlink:title="public">
<polygon fill="#4ea9ff" stroke="#404040" points="219,-98 173,-98 173,-79 219,-79 219,-98"/>
<text text-anchor="middle" x="196" y="-86" font-family="Helvetica,sans-Serif" font-size="10.00">public</text>
</a>
</g>
</g>
<!-- dir_7f643b58e2241519524527f42d96aecd&#45;&gt;dir_449e025360b1e0775671965c2105f9c1 -->
<g id="edge2" class="edge">
<title>dir_7f643b58e2241519524527f42d96aecd&#45;&gt;dir_449e025360b1e0775671965c2105f9c1</title>
<g id="a_edge2"><a xlink:href="dir_000004_000011.html" target="_top">
<path fill="none" stroke="#63b8ff" d="M190.83,-133.75C189.34,-126.8 188.9,-116.85 189.52,-108.13"/>
<polygon fill="#63b8ff" stroke="#63b8ff" points="193.01,-108.47 190.87,-98.09 186.07,-107.53 193.01,-108.47"/>
</a>
</g>
<g id="a_edge2&#45;headlabel"><a xlink:href="dir_000004_000011.html" target="_top" xlink:title="1">
<text text-anchor="middle" x="195.34" y="-109.91" font-family="Helvetica,sans-Serif" font-size="10.00" fill="#63b8ff">1</text>
</a>
</g>
</g>
<!-- dir_f77ff83871a8c0c224aa74732336c103 -->
<g id="node4" class="node">
<title>dir_f77ff83871a8c0c224aa74732336c103</title>
<g id="a_node4"><a xlink:href="dir_f77ff83871a8c0c224aa74732336c103.html" target="_top" xlink:title="input">
<polygon fill="#4ea9ff" stroke="#404040" points="186.5,-208 145.5,-208 145.5,-189 186.5,-189 186.5,-208"/>
<text text-anchor="middle" x="166" y="-196" font-family="Helvetica,sans-Serif" font-size="10.00">input</text>
</a>
</g>
</g>
<!-- dir_f77ff83871a8c0c224aa74732336c103&#45;&gt;dir_7f643b58e2241519524527f42d96aecd -->
<g id="edge4" class="edge">
<title>dir_f77ff83871a8c0c224aa74732336c103&#45;&gt;dir_7f643b58e2241519524527f42d96aecd</title>
<g id="a_edge4"><a xlink:href="dir_000008_000004.html" target="_top">
<path fill="none" stroke="#63b8ff" d="M170.95,-188.75C175.06,-181.49 181.03,-170.95 186.1,-161.98"/>
<polygon fill="#63b8ff" stroke="#63b8ff" points="189.26,-163.52 191.14,-153.09 183.17,-160.07 189.26,-163.52"/>
</a>
</g>
<g id="a_edge4&#45;headlabel"><a xlink:href="dir_000008_000004.html" target="_top" xlink:title="1">
<text text-anchor="middle" x="189.96" y="-165.54" font-family="Helvetica,sans-Serif" font-size="10.00" fill="#63b8ff">1</text>
</a>
</g>
</g>
<!-- dir_f77ff83871a8c0c224aa74732336c103&#45;&gt;dir_449e025360b1e0775671965c2105f9c1 -->
<g id="edge3" class="edge">
<title>dir_f77ff83871a8c0c224aa74732336c103&#45;&gt;dir_449e025360b1e0775671965c2105f9c1</title>
<g id="a_edge3"><a xlink:href="dir_000008_000011.html" target="_top">
<path fill="none" stroke="#63b8ff" d="M164.85,-188.64C163.54,-176.14 162.26,-152.78 168,-134 171.06,-123.98 177.01,-114 182.64,-106.03"/>
<polygon fill="#63b8ff" stroke="#63b8ff" points="185.46,-108.1 188.68,-98.01 179.87,-103.89 185.46,-108.1"/>
</a>
</g>
<g id="a_edge3&#45;headlabel"><a xlink:href="dir_000008_000011.html" target="_top" xlink:title="2">
<text text-anchor="middle" x="185.57" y="-110.18" font-family="Helvetica,sans-Serif" font-size="10.00" fill="#63b8ff">2</text>
</a>
</g>
</g>
<!-- dir_507eef3fc303406776132f4dfa1b45c0 -->
<g id="node5" class="node">
<title>dir_507eef3fc303406776132f4dfa1b45c0</title>
<g id="a_node5"><a xlink:href="dir_507eef3fc303406776132f4dfa1b45c0.html" target="_top" xlink:title="physics">
<polygon fill="#4ea9ff" stroke="#404040" points="222.5,-43 169.5,-43 169.5,-24 222.5,-24 222.5,-43"/>
<text text-anchor="middle" x="196" y="-31" font-family="Helvetica,sans-Serif" font-size="10.00">physics</text>
</a>
</g>
</g>
<!-- dir_507eef3fc303406776132f4dfa1b45c0&#45;&gt;dir_7f643b58e2241519524527f42d96aecd -->
<g id="edge6" class="edge">
<title>dir_507eef3fc303406776132f4dfa1b45c0&#45;&gt;dir_7f643b58e2241519524527f42d96aecd</title>
<g id="a_edge6"><a xlink:href="dir_000010_000004.html" target="_top">
<path fill="none" stroke="#63b8ff" d="M205.37,-43.17C217.04,-55.06 234.66,-77.32 228,-98 224.66,-108.38 217.9,-118.38 211.45,-126.26"/>
<polygon fill="#63b8ff" stroke="#63b8ff" points="208.71,-124.08 204.75,-133.9 213.97,-128.69 208.71,-124.08"/>
</a>
</g>
<g id="a_edge6&#45;headlabel"><a xlink:href="dir_000010_000004.html" target="_top" xlink:title="1">
<text text-anchor="middle" x="208.94" y="-117" font-family="Helvetica,sans-Serif" font-size="10.00" fill="#63b8ff">1</text>
</a>
</g>
</g>
<!-- dir_507eef3fc303406776132f4dfa1b45c0&#45;&gt;dir_449e025360b1e0775671965c2105f9c1 -->
<g id="edge5" class="edge">
<title>dir_507eef3fc303406776132f4dfa1b45c0&#45;&gt;dir_449e025360b1e0775671965c2105f9c1</title>
<g id="a_edge5"><a xlink:href="dir_000010_000011.html" target="_top">
<path fill="none" stroke="#63b8ff" d="M201.13,-43.09C202.64,-49.99 203.09,-59.93 202.49,-68.66"/>
<polygon fill="#63b8ff" stroke="#63b8ff" points="199,-68.38 201.17,-78.75 205.94,-69.29 199,-68.38"/>
</a>
</g>
<g id="a_edge5&#45;headlabel"><a xlink:href="dir_000010_000011.html" target="_top" xlink:title="10">
<text text-anchor="middle" x="196.65" y="-61.94" font-family="Helvetica,sans-Serif" font-size="10.00" fill="#63b8ff">10</text>
</a>
</g>
</g>
<!-- dir_449e025360b1e0775671965c2105f9c1&#45;&gt;dir_9f8aea6aa0d0f8b2278afd3a6ed97649 -->
<g id="edge9" class="edge">
<title>dir_449e025360b1e0775671965c2105f9c1&#45;&gt;dir_9f8aea6aa0d0f8b2278afd3a6ed97649</title>
<g id="a_edge9"><a xlink:href="dir_000011_000000.html" target="_top">
<path fill="none" stroke="#63b8ff" d="M203.27,-98.02C210.02,-106.51 219.68,-120.24 224,-134 228.55,-148.5 229.08,-165.77 228.59,-178.63"/>
<polygon fill="#63b8ff" stroke="#63b8ff" points="225.09,-178.43 227.97,-188.63 232.08,-178.86 225.09,-178.43"/>
</a>
</g>
<g id="a_edge9&#45;headlabel"><a xlink:href="dir_000011_000000.html" target="_top" xlink:title="2">
<text text-anchor="middle" x="222.48" y="-172.17" font-family="Helvetica,sans-Serif" font-size="10.00" fill="#63b8ff">2</text>
</a>
</g>
</g>
<!-- dir_449e025360b1e0775671965c2105f9c1&#45;&gt;dir_7f643b58e2241519524527f42d96aecd -->
<g id="edge8" class="edge">
<title>dir_449e025360b1e0775671965c2105f9c1&#45;&gt;dir_7f643b58e2241519524527f42d96aecd</title>
<g id="a_edge8"><a xlink:href="dir_000011_000004.html" target="_top">
<path fill="none" stroke="#63b8ff" d="M201.13,-98.09C202.64,-104.99 203.09,-114.93 202.49,-123.66"/>
<polygon fill="#63b8ff" stroke="#63b8ff" points="199,-123.38 201.17,-133.75 205.94,-124.29 199,-123.38"/>
</a>
</g>
<g id="a_edge8&#45;headlabel"><a xlink:href="dir_000011_000004.html" target="_top" xlink:title="2">
<text text-anchor="middle" x="196.65" y="-116.94" font-family="Helvetica,sans-Serif" font-size="10.00" fill="#63b8ff">2</text>
</a>
</g>
</g>
<!-- dir_449e025360b1e0775671965c2105f9c1&#45;&gt;dir_507eef3fc303406776132f4dfa1b45c0 -->
<g id="edge7" class="edge">
<title>dir_449e025360b1e0775671965c2105f9c1&#45;&gt;dir_507eef3fc303406776132f4dfa1b45c0</title>
<g id="a_edge7"><a xlink:href="dir_000011_000010.html" target="_top">
<path fill="none" stroke="#63b8ff" d="M190.83,-78.75C189.34,-71.8 188.9,-61.85 189.52,-53.13"/>
<polygon fill="#63b8ff" stroke="#63b8ff" points="193.01,-53.47 190.87,-43.09 186.07,-52.53 193.01,-53.47"/>
</a>
</g>
<g id="a_edge7&#45;headlabel"><a xlink:href="dir_000011_000010.html" target="_top" xlink:title="4">
<text text-anchor="middle" x="195.34" y="-54.91" font-family="Helvetica,sans-Serif" font-size="10.00" fill="#63b8ff">4</text>
</a>
</g>
</g>
<!-- dir_8b11a1212dbde7bdde850e03babc5120 -->
<g id="node7" class="node">
<title>dir_8b11a1212dbde7bdde850e03babc5120</title>
<g id="a_node7"><a xlink:href="dir_8b11a1212dbde7bdde850e03babc5120.html" target="_top" xlink:title="storage">
<polygon fill="#4ea9ff" stroke="#404040" points="127.5,-208 74.5,-208 74.5,-189 127.5,-189 127.5,-208"/>
<text text-anchor="middle" x="101" y="-196" font-family="Helvetica,sans-Serif" font-size="10.00">storage</text>
</a>
</g>
</g>
<!-- dir_ba73608aff21b3524a8f2c22a10ff48a -->
<g id="node8" class="node">
<title>dir_ba73608aff21b3524a8f2c22a10ff48a</title>
<g id="a_node8"><a xlink:href="dir_ba73608aff21b3524a8f2c22a10ff48a.html" target="_top" xlink:title="util">
<polygon fill="#4ea9ff" stroke="#404040" points="56,-208 24,-208 24,-189 56,-189 56,-208"/>
<text text-anchor="middle" x="40" y="-196" font-family="Helvetica,sans-Serif" font-size="10.00">util</text>
</a>
</g>
</g>
</g>
</svg>
