<?xml version="1.0" encoding="UTF-8" standalone="no"?>
<!DOCTYPE svg PUBLIC "-//W3C//DTD SVG 1.1//EN"
 "http://www.w3.org/Graphics/SVG/1.1/DTD/svg11.dtd">
<!-- Generated by graphviz version 2.43.0 (0)
 -->
<!-- Title: include/engine/physics/world Pages: 1 -->
<svg width="166pt" height="180pt"
 viewBox="0.00 0.00 166.20 180.00" xmlns="http://www.w3.org/2000/svg" xmlns:xlink="http://www.w3.org/1999/xlink">
<g id="graph0" class="graph" transform="scale(1 1) rotate(0) translate(4 176)">
<title>include/engine/physics/world</title>
<g id="clust1" class="cluster">
<title>clusterdir_507eef3fc303406776132f4dfa1b45c0</title>
<g id="a_clust1"><a xlink:href="dir_507eef3fc303406776132f4dfa1b45c0.html" target="_top" xlink:title="physics">
<polygon fill="#daedff" stroke="#7f7f7f" stroke-dasharray="5,2" points="8,-39 8,-164 148,-164 148,-39 8,-39"/>
<text text-anchor="middle" x="78" y="-152" font-family="Helvetica,sans-Serif" font-size="10.00">physics</text>
</a>
</g>
</g>
<g id="clust2" class="cluster">
<title>clusterdir_9228928e920d3547c08edb1901b2c09a</title>
<g id="a_clust2"><a xlink:href="dir_9228928e920d3547c08edb1901b2c09a.html" target="_top">
<polygon fill="#daedff" stroke="#404040" stroke-width="2" points="16,-47 16,-137 76,-137 76,-47 16,-47"/>
</a>
</g>
</g>
<!-- dir_2fdd05c8b44becc61a6381da59ffda6c -->
<g id="node1" class="node">
<title>dir_2fdd05c8b44becc61a6381da59ffda6c</title>
<g id="a_node1"><a xlink:href="dir_2fdd05c8b44becc61a6381da59ffda6c.html" target="_top" xlink:title="creation">
<polygon fill="#4ea9ff" stroke="#404040" points="140,-74 84,-74 84,-55 140,-55 140,-74"/>
<text text-anchor="middle" x="112" y="-62" font-family="Helvetica,sans-Serif" font-size="10.00">creation</text>
</a>
</g>
</g>
<!-- dir_9228928e920d3547c08edb1901b2c09a -->
<g id="node2" class="node">
<title>dir_9228928e920d3547c08edb1901b2c09a</title>
<text text-anchor="middle" x="46" y="-117" font-family="Helvetica,sans-Serif" font-size="10.00">world</text>
</g>
<!-- dir_9228928e920d3547c08edb1901b2c09a&#45;&gt;dir_2fdd05c8b44becc61a6381da59ffda6c -->
<g id="edge1" class="edge">
<title>dir_9228928e920d3547c08edb1901b2c09a&#45;&gt;dir_2fdd05c8b44becc61a6381da59ffda6c</title>
<g id="a_edge1"><a xlink:href="dir_000020_000005.html" target="_top">
<path fill="none" stroke="#63b8ff" d="M56.6,-109.98C66.46,-102.07 81.35,-90.11 93.22,-80.58"/>
<polygon fill="#63b8ff" stroke="#63b8ff" points="95.6,-83.16 101.2,-74.17 91.21,-77.7 95.6,-83.16"/>
</a>
</g>
<g id="a_edge1&#45;headlabel"><a xlink:href="dir_000020_000005.html" target="_top" xlink:title="1">
<text text-anchor="middle" x="94.57" y="-85.13" font-family="Helvetica,sans-Serif" font-size="10.00" fill="#63b8ff">1</text>
</a>
</g>
</g>
<!-- dir_6170cc2ff91258b47a5101d09851150c -->
<g id="node3" class="node">
<title>dir_6170cc2ff91258b47a5101d09851150c</title>
<g id="a_node3"><a xlink:href="dir_6170cc2ff91258b47a5101d09851150c.html" target="_top" xlink:title="body">
<polygon fill="#4ea9ff" stroke="#404040" points="65.5,-74 24.5,-74 24.5,-55 65.5,-55 65.5,-74"/>
<text text-anchor="middle" x="45" y="-62" font-family="Helvetica,sans-Serif" font-size="10.00">body</text>
</a>
</g>
</g>
<!-- dir_9228928e920d3547c08edb1901b2c09a&#45;&gt;dir_6170cc2ff91258b47a5101d09851150c -->
<g id="edge3" class="edge">
<title>dir_9228928e920d3547c08edb1901b2c09a&#45;&gt;dir_6170cc2ff91258b47a5101d09851150c</title>
<g id="a_edge3"><a xlink:href="dir_000020_000001.html" target="_top">
<path fill="none" stroke="#63b8ff" d="M45.83,-109.75C45.7,-102.8 45.52,-92.85 45.35,-84.13"/>
<polygon fill="#63b8ff" stroke="#63b8ff" points="48.85,-84.02 45.16,-74.09 41.85,-84.15 48.85,-84.02"/>
</a>
</g>
<g id="a_edge3&#45;headlabel"><a xlink:href="dir_000020_000001.html" target="_top" xlink:title="3">
<text text-anchor="middle" x="51.76" y="-85.06" font-family="Helvetica,sans-Serif" font-size="10.00" fill="#63b8ff">3</text>
</a>
</g>
</g>
<!-- dir_449e025360b1e0775671965c2105f9c1 -->
<g id="node4" class="node">
<title>dir_449e025360b1e0775671965c2105f9c1</title>
<g id="a_node4"><a xlink:href="dir_449e025360b1e0775671965c2105f9c1.html" target="_top" xlink:title="public">
<polygon fill="#daedff" stroke="red" stroke-dasharray="5,2" points="129,-19 83,-19 83,0 129,0 129,-19"/>
<text text-anchor="middle" x="106" y="-7" font-family="Helvetica,sans-Serif" font-size="10.00">public</text>
</a>
</g>
</g>
<!-- dir_9228928e920d3547c08edb1901b2c09a&#45;&gt;dir_449e025360b1e0775671965c2105f9c1 -->
<g id="edge2" class="edge">
<title>dir_9228928e920d3547c08edb1901b2c09a&#45;&gt;dir_449e025360b1e0775671965c2105f9c1</title>
<g id="a_edge2"><a xlink:href="dir_000020_000011.html" target="_top">
<path fill="none" stroke="#63b8ff" d="M68.38,-116.24C93.59,-112.36 133.44,-101.92 152,-74 160.61,-61.05 159.57,-52.59 152,-39 148.76,-33.18 143.79,-28.4 138.29,-24.53"/>
<polygon fill="#63b8ff" stroke="#63b8ff" points="139.77,-21.33 129.4,-19.17 136.16,-27.33 139.77,-21.33"/>
</a>
</g>
<g id="a_edge2&#45;headlabel"><a xlink:href="dir_000020_000011.html" target="_top" xlink:title="4">
<text text-anchor="middle" x="144.31" y="-18.26" font-family="Helvetica,sans-Serif" font-size="10.00" fill="#63b8ff">4</text>
</a>
</g>
</g>
<!-- dir_6170cc2ff91258b47a5101d09851150c&#45;&gt;dir_449e025360b1e0775671965c2105f9c1 -->
<g id="edge4" class="edge">
<title>dir_6170cc2ff91258b47a5101d09851150c&#45;&gt;dir_449e025360b1e0775671965c2105f9c1</title>
<g id="a_edge4"><a xlink:href="dir_000001_000011.html" target="_top">
<path fill="none" stroke="#63b8ff" d="M53.58,-54.65C58.3,-49.89 64.35,-43.98 70,-39 75.18,-34.43 80.98,-29.69 86.38,-25.42"/>
<polygon fill="#63b8ff" stroke="#63b8ff" points="88.65,-28.09 94.4,-19.18 84.36,-22.56 88.65,-28.09"/>
</a>
</g>
<g id="a_edge4&#45;headlabel"><a xlink:href="dir_000001_000011.html" target="_top" xlink:title="2">
<text text-anchor="middle" x="87.56" y="-30.03" font-family="Helvetica,sans-Serif" font-size="10.00" fill="#63b8ff">2</text>
</a>
</g>
</g>
</g>
</svg>
