<?xml version="1.0" encoding="UTF-8" standalone="no"?>
<!DOCTYPE svg PUBLIC "-//W3C//DTD SVG 1.1//EN"
 "http://www.w3.org/Graphics/SVG/1.1/DTD/svg11.dtd">
<!-- Generated by graphviz version 2.43.0 (0)
 -->
<!-- Title: include/engine Pages: 1 -->
<svg width="349pt" height="204pt"
 viewBox="0.00 0.00 349.00 204.00" xmlns="http://www.w3.org/2000/svg" xmlns:xlink="http://www.w3.org/1999/xlink">
<g id="graph0" class="graph" transform="scale(1 1) rotate(0) translate(4 200)">
<title>include/engine</title>
<g id="clust1" class="cluster">
<title>clusterdir_d44c64559bbebec7f509842c48db8b23</title>
<g id="a_clust1"><a xlink:href="dir_d44c64559bbebec7f509842c48db8b23.html" target="_top" xlink:title="include">
<polygon fill="#daedff" stroke="#404040" stroke-dasharray="5,2" points="8,-8 8,-188 333,-188 333,-8 8,-8"/>
<text text-anchor="middle" x="170.5" y="-176" font-family="Helvetica,sans-Serif" font-size="10.00">include</text>
</a>
</g>
</g>
<g id="clust2" class="cluster">
<title>clusterdir_a7f531b1c37460085cedd304cb8df01d</title>
<g id="a_clust2"><a xlink:href="dir_a7f531b1c37460085cedd304cb8df01d.html" target="_top">
<polygon fill="#daedff" stroke="#404040" stroke-width="2" points="16,-16 16,-161 325,-161 325,-16 16,-16"/>
</a>
</g>
</g>
<!-- dir_a7f531b1c37460085cedd304cb8df01d -->
<g id="node1" class="node">
<title>dir_a7f531b1c37460085cedd304cb8df01d</title>
<text text-anchor="middle" x="292" y="-141" font-family="Helvetica,sans-Serif" font-size="10.00">engine</text>
</g>
<!-- dir_9f8aea6aa0d0f8b2278afd3a6ed97649 -->
<g id="node2" class="node">
<title>dir_9f8aea6aa0d0f8b2278afd3a6ed97649</title>
<g id="a_node2"><a xlink:href="dir_9f8aea6aa0d0f8b2278afd3a6ed97649.html" target="_top" xlink:title="audio">
<polygon fill="#4ea9ff" stroke="#404040" points="249,-153 205,-153 205,-134 249,-134 249,-153"/>
<text text-anchor="middle" x="227" y="-141" font-family="Helvetica,sans-Serif" font-size="10.00">audio</text>
</a>
</g>
</g>
<!-- dir_7f643b58e2241519524527f42d96aecd -->
<g id="node3" class="node">
<title>dir_7f643b58e2241519524527f42d96aecd</title>
<g id="a_node3"><a xlink:href="dir_7f643b58e2241519524527f42d96aecd.html" target="_top" xlink:title="core">
<polygon fill="#4ea9ff" stroke="#404040" points="175,-98 137,-98 137,-79 175,-79 175,-98"/>
<text text-anchor="middle" x="156" y="-86" font-family="Helvetica,sans-Serif" font-size="10.00">core</text>
</a>
</g>
</g>
<!-- dir_9f8aea6aa0d0f8b2278afd3a6ed97649&#45;&gt;dir_7f643b58e2241519524527f42d96aecd -->
<g id="edge1" class="edge">
<title>dir_9f8aea6aa0d0f8b2278afd3a6ed97649&#45;&gt;dir_7f643b58e2241519524527f42d96aecd</title>
<g id="a_edge1"><a xlink:href="dir_000000_000002.html" target="_top">
<path fill="none" stroke="#63b8ff" d="M215.59,-133.98C204.89,-126 188.66,-113.88 175.84,-104.31"/>
<polygon fill="#63b8ff" stroke="#63b8ff" points="177.72,-101.35 167.61,-98.17 173.53,-106.96 177.72,-101.35"/>
</a>
</g>
<g id="a_edge1&#45;headlabel"><a xlink:href="dir_000000_000002.html" target="_top" xlink:title="1">
<text text-anchor="middle" x="182.3" y="-98.72" font-family="Helvetica,sans-Serif" font-size="10.00" fill="#63b8ff">1</text>
</a>
</g>
</g>
<!-- dir_449e025360b1e0775671965c2105f9c1 -->
<g id="node6" class="node">
<title>dir_449e025360b1e0775671965c2105f9c1</title>
<g id="a_node6"><a xlink:href="dir_449e025360b1e0775671965c2105f9c1.html" target="_top" xlink:title="public">
<polygon fill="#4ea9ff" stroke="#404040" points="179,-43 133,-43 133,-24 179,-24 179,-43"/>
<text text-anchor="middle" x="156" y="-31" font-family="Helvetica,sans-Serif" font-size="10.00">public</text>
</a>
</g>
</g>
<!-- dir_7f643b58e2241519524527f42d96aecd&#45;&gt;dir_449e025360b1e0775671965c2105f9c1 -->
<g id="edge2" class="edge">
<title>dir_7f643b58e2241519524527f42d96aecd&#45;&gt;dir_449e025360b1e0775671965c2105f9c1</title>
<g id="a_edge2"><a xlink:href="dir_000002_000008.html" target="_top">
<path fill="none" stroke="#63b8ff" d="M150.83,-78.75C149.34,-71.8 148.9,-61.85 149.52,-53.13"/>
<polygon fill="#63b8ff" stroke="#63b8ff" points="153.01,-53.47 150.87,-43.09 146.07,-52.53 153.01,-53.47"/>
</a>
</g>
<g id="a_edge2&#45;headlabel"><a xlink:href="dir_000002_000008.html" target="_top" xlink:title="1">
<text text-anchor="middle" x="155.34" y="-54.91" font-family="Helvetica,sans-Serif" font-size="10.00" fill="#63b8ff">1</text>
</a>
</g>
</g>
<!-- dir_f77ff83871a8c0c224aa74732336c103 -->
<g id="node4" class="node">
<title>dir_f77ff83871a8c0c224aa74732336c103</title>
<g id="a_node4"><a xlink:href="dir_f77ff83871a8c0c224aa74732336c103.html" target="_top" xlink:title="input">
<polygon fill="#4ea9ff" stroke="#404040" points="186.5,-153 145.5,-153 145.5,-134 186.5,-134 186.5,-153"/>
<text text-anchor="middle" x="166" y="-141" font-family="Helvetica,sans-Serif" font-size="10.00">input</text>
</a>
</g>
</g>
<!-- dir_f77ff83871a8c0c224aa74732336c103&#45;&gt;dir_7f643b58e2241519524527f42d96aecd -->
<g id="edge4" class="edge">
<title>dir_f77ff83871a8c0c224aa74732336c103&#45;&gt;dir_7f643b58e2241519524527f42d96aecd</title>
<g id="a_edge4"><a xlink:href="dir_000005_000002.html" target="_top">
<path fill="none" stroke="#63b8ff" d="M164.35,-133.75C163.04,-126.8 161.16,-116.85 159.52,-108.13"/>
<polygon fill="#63b8ff" stroke="#63b8ff" points="162.91,-107.27 157.62,-98.09 156.04,-108.56 162.91,-107.27"/>
</a>
</g>
<g id="a_edge4&#45;headlabel"><a xlink:href="dir_000005_000002.html" target="_top" xlink:title="1">
<text text-anchor="middle" x="166.37" y="-107.77" font-family="Helvetica,sans-Serif" font-size="10.00" fill="#63b8ff">1</text>
</a>
</g>
</g>
<!-- dir_f77ff83871a8c0c224aa74732336c103&#45;&gt;dir_449e025360b1e0775671965c2105f9c1 -->
<g id="edge3" class="edge">
<title>dir_f77ff83871a8c0c224aa74732336c103&#45;&gt;dir_449e025360b1e0775671965c2105f9c1</title>
<g id="a_edge3"><a xlink:href="dir_000005_000008.html" target="_top">
<path fill="none" stroke="#63b8ff" d="M171.57,-133.87C178.74,-121.64 189.65,-98.6 184,-79 181.13,-69.06 175.32,-59.2 169.72,-51.29"/>
<polygon fill="#63b8ff" stroke="#63b8ff" points="172.5,-49.16 163.67,-43.3 166.92,-53.39 172.5,-49.16"/>
</a>
</g>
<g id="a_edge3&#45;headlabel"><a xlink:href="dir_000005_000008.html" target="_top" xlink:title="2">
<text text-anchor="middle" x="176.93" y="-47.82" font-family="Helvetica,sans-Serif" font-size="10.00" fill="#63b8ff">2</text>
</a>
</g>
</g>
<!-- dir_507eef3fc303406776132f4dfa1b45c0 -->
<g id="node5" class="node">
<title>dir_507eef3fc303406776132f4dfa1b45c0</title>
<g id="a_node5"><a xlink:href="dir_507eef3fc303406776132f4dfa1b45c0.html" target="_top" xlink:title="physics">
<polygon fill="#4ea9ff" stroke="#404040" points="127.5,-153 74.5,-153 74.5,-134 127.5,-134 127.5,-153"/>
<text text-anchor="middle" x="101" y="-141" font-family="Helvetica,sans-Serif" font-size="10.00">physics</text>
</a>
</g>
</g>
<!-- dir_507eef3fc303406776132f4dfa1b45c0&#45;&gt;dir_7f643b58e2241519524527f42d96aecd -->
<g id="edge6" class="edge">
<title>dir_507eef3fc303406776132f4dfa1b45c0&#45;&gt;dir_7f643b58e2241519524527f42d96aecd</title>
<g id="a_edge6"><a xlink:href="dir_000007_000002.html" target="_top">
<path fill="none" stroke="#63b8ff" d="M110.08,-133.75C118.09,-126.03 129.96,-114.6 139.62,-105.28"/>
<polygon fill="#63b8ff" stroke="#63b8ff" points="142.31,-107.55 147.09,-98.09 137.46,-102.51 142.31,-107.55"/>
</a>
</g>
<g id="a_edge6&#45;headlabel"><a xlink:href="dir_000007_000002.html" target="_top" xlink:title="1">
<text text-anchor="middle" x="141.7" y="-109.59" font-family="Helvetica,sans-Serif" font-size="10.00" fill="#63b8ff">1</text>
</a>
</g>
</g>
<!-- dir_507eef3fc303406776132f4dfa1b45c0&#45;&gt;dir_449e025360b1e0775671965c2105f9c1 -->
<g id="edge5" class="edge">
<title>dir_507eef3fc303406776132f4dfa1b45c0&#45;&gt;dir_449e025360b1e0775671965c2105f9c1</title>
<g id="a_edge5"><a xlink:href="dir_000007_000008.html" target="_top">
<path fill="none" stroke="#63b8ff" d="M104.24,-133.67C108.93,-121.21 118.12,-97.9 128,-79 132.86,-69.7 139.01,-59.77 144.3,-51.66"/>
<polygon fill="#63b8ff" stroke="#63b8ff" points="147.36,-53.38 150,-43.12 141.54,-49.5 147.36,-53.38"/>
</a>
</g>
<g id="a_edge5&#45;headlabel"><a xlink:href="dir_000007_000008.html" target="_top" xlink:title="2">
<text text-anchor="middle" x="147.73" y="-55.45" font-family="Helvetica,sans-Serif" font-size="10.00" fill="#63b8ff">2</text>
</a>
</g>
</g>
<!-- dir_449e025360b1e0775671965c2105f9c1&#45;&gt;dir_9f8aea6aa0d0f8b2278afd3a6ed97649 -->
<g id="edge8" class="edge">
<title>dir_449e025360b1e0775671965c2105f9c1&#45;&gt;dir_9f8aea6aa0d0f8b2278afd3a6ed97649</title>
<g id="a_edge8"><a xlink:href="dir_000008_000000.html" target="_top">
<path fill="none" stroke="#63b8ff" d="M162.84,-43.18C169.7,-52.02 180.46,-66.2 189,-79 199.12,-94.16 209.69,-112.01 217.11,-124.92"/>
<polygon fill="#63b8ff" stroke="#63b8ff" points="214.12,-126.74 222.1,-133.7 220.2,-123.28 214.12,-126.74"/>
</a>
</g>
<g id="a_edge8&#45;headlabel"><a xlink:href="dir_000008_000000.html" target="_top" xlink:title="2">
<text text-anchor="middle" x="209.87" y="-122.52" font-family="Helvetica,sans-Serif" font-size="10.00" fill="#63b8ff">2</text>
</a>
</g>
</g>
<!-- dir_449e025360b1e0775671965c2105f9c1&#45;&gt;dir_7f643b58e2241519524527f42d96aecd -->
<g id="edge7" class="edge">
<title>dir_449e025360b1e0775671965c2105f9c1&#45;&gt;dir_7f643b58e2241519524527f42d96aecd</title>
<g id="a_edge7"><a xlink:href="dir_000008_000002.html" target="_top">
<path fill="none" stroke="#63b8ff" d="M161.13,-43.09C162.64,-49.99 163.09,-59.93 162.49,-68.66"/>
<polygon fill="#63b8ff" stroke="#63b8ff" points="159,-68.38 161.17,-78.75 165.94,-69.29 159,-68.38"/>
</a>
</g>
<g id="a_edge7&#45;headlabel"><a xlink:href="dir_000008_000002.html" target="_top" xlink:title="1">
<text text-anchor="middle" x="156.65" y="-61.94" font-family="Helvetica,sans-Serif" font-size="10.00" fill="#63b8ff">1</text>
</a>
</g>
</g>
<!-- dir_ba73608aff21b3524a8f2c22a10ff48a -->
<g id="node7" class="node">
<title>dir_ba73608aff21b3524a8f2c22a10ff48a</title>
<g id="a_node7"><a xlink:href="dir_ba73608aff21b3524a8f2c22a10ff48a.html" target="_top" xlink:title="util">
<polygon fill="#4ea9ff" stroke="#404040" points="56,-153 24,-153 24,-134 56,-134 56,-153"/>
<text text-anchor="middle" x="40" y="-141" font-family="Helvetica,sans-Serif" font-size="10.00">util</text>
</a>
</g>
</g>
</g>
</svg>
