<?xml version="1.0" encoding="UTF-8" standalone="no"?>
<!DOCTYPE svg PUBLIC "-//W3C//DTD SVG 1.1//EN"
 "http://www.w3.org/Graphics/SVG/1.1/DTD/svg11.dtd">
<!-- Generated by graphviz version 2.43.0 (0)
 -->
<!-- Title: include/engine/public/gameObject.h Pages: 1 -->
<svg width="869pt" height="159pt"
 viewBox="0.00 0.00 869.00 159.00" xmlns="http://www.w3.org/2000/svg" xmlns:xlink="http://www.w3.org/1999/xlink">
<g id="graph0" class="graph" transform="scale(1 1) rotate(0) translate(4 155)">
<title>include/engine/public/gameObject.h</title>
<!-- Node1 -->
<g id="Node000001" class="node">
<title>Node1</title>
<g id="a_Node000001"><a xlink:title=" ">
<polygon fill="#999999" stroke="#666666" points="532,-151 412,-151 412,-121 532,-121 532,-151"/>
<text text-anchor="start" x="420" y="-139" font-family="Helvetica,sans-Serif" font-size="10.00">include/engine/public</text>
<text text-anchor="middle" x="472" y="-128" font-family="Helvetica,sans-Serif" font-size="10.00">/gameObject.h</text>
</a>
</g>
</g>
<!-- Node2 -->
<g id="Node000002" class="node">
<title>Node2</title>
<g id="a_Node000002"><a xlink:title=" ">
<polygon fill="#e0e0e0" stroke="#999999" points="64,-85 0,-85 0,-66 64,-66 64,-85"/>
<text text-anchor="middle" x="32" y="-73" font-family="Helvetica,sans-Serif" font-size="10.00">algorithm</text>
</a>
</g>
</g>
<!-- Node1&#45;&gt;Node2 -->
<g id="edge1_Node000001_Node000002" class="edge">
<title>Node1&#45;&gt;Node2</title>
<g id="a_edge1_Node000001_Node000002"><a xlink:title=" ">
<path fill="none" stroke="#63b8ff" d="M411.78,-128.43C334.36,-119.74 195.87,-103.35 78,-85 76.74,-84.8 75.45,-84.6 74.16,-84.39"/>
<polygon fill="#63b8ff" stroke="#63b8ff" points="74.58,-80.91 64.13,-82.68 73.4,-87.81 74.58,-80.91"/>
</a>
</g>
</g>
<!-- Node3 -->
<g id="Node000003" class="node">
<title>Node3</title>
<g id="a_Node000003"><a xlink:title=" ">
<polygon fill="#e0e0e0" stroke="#999999" points="217,-24.5 161,-24.5 161,-5.5 217,-5.5 217,-24.5"/>
<text text-anchor="middle" x="189" y="-12.5" font-family="Helvetica,sans-Serif" font-size="10.00">optional</text>
</a>
</g>
</g>
<!-- Node1&#45;&gt;Node3 -->
<g id="edge2_Node000001_Node000003" class="edge">
<title>Node1&#45;&gt;Node3</title>
<g id="a_edge2_Node000001_Node000003"><a xlink:title=" ">
<path fill="none" stroke="#63b8ff" d="M411.68,-135.8C319.04,-135.6 148.4,-129.07 110,-85 90.79,-62.95 126.78,-41.41 156.27,-28.41"/>
<polygon fill="#63b8ff" stroke="#63b8ff" points="157.68,-31.62 165.54,-24.51 154.96,-25.17 157.68,-31.62"/>
</a>
</g>
</g>
<!-- Node4 -->
<g id="Node000004" class="node">
<title>Node4</title>
<g id="a_Node000004"><a xlink:title=" ">
<polygon fill="#e0e0e0" stroke="#999999" points="497,-85 447,-85 447,-66 497,-66 497,-85"/>
<text text-anchor="middle" x="472" y="-73" font-family="Helvetica,sans-Serif" font-size="10.00">ranges</text>
</a>
</g>
</g>
<!-- Node1&#45;&gt;Node4 -->
<g id="edge3_Node000001_Node000004" class="edge">
<title>Node1&#45;&gt;Node4</title>
<g id="a_edge3_Node000001_Node000004"><a xlink:title=" ">
<path fill="none" stroke="#63b8ff" d="M472,-120.84C472,-113.21 472,-103.7 472,-95.45"/>
<polygon fill="#63b8ff" stroke="#63b8ff" points="475.5,-95.27 472,-85.27 468.5,-95.27 475.5,-95.27"/>
</a>
</g>
</g>
<!-- Node5 -->
<g id="Node000005" class="node">
<title>Node5</title>
<g id="a_Node000005"><a xlink:title=" ">
<polygon fill="#e0e0e0" stroke="#999999" points="627,-24.5 583,-24.5 583,-5.5 627,-5.5 627,-24.5"/>
<text text-anchor="middle" x="605" y="-12.5" font-family="Helvetica,sans-Serif" font-size="10.00">string</text>
</a>
</g>
</g>
<!-- Node1&#45;&gt;Node5 -->
<g id="edge4_Node000001_Node000005" class="edge">
<title>Node1&#45;&gt;Node5</title>
<g id="a_edge4_Node000001_Node000005"><a xlink:title=" ">
<path fill="none" stroke="#63b8ff" d="M532.36,-131.95C565.75,-126.8 604.68,-114.33 626,-85 637.22,-69.57 627.64,-48.06 618.05,-33.18"/>
<polygon fill="#63b8ff" stroke="#63b8ff" points="620.86,-31.08 612.26,-24.88 615.11,-35.09 620.86,-31.08"/>
</a>
</g>
</g>
<!-- Node6 -->
<g id="Node000006" class="node">
<title>Node6</title>
<g id="a_Node000006"><a xlink:title=" ">
<polygon fill="#e0e0e0" stroke="#999999" points="720.5,-85 673.5,-85 673.5,-66 720.5,-66 720.5,-85"/>
<text text-anchor="middle" x="697" y="-73" font-family="Helvetica,sans-Serif" font-size="10.00">vector</text>
</a>
</g>
</g>
<!-- Node1&#45;&gt;Node6 -->
<g id="edge5_Node000001_Node000006" class="edge">
<title>Node1&#45;&gt;Node6</title>
<g id="a_edge5_Node000001_Node000006"><a xlink:title=" ">
<path fill="none" stroke="#63b8ff" d="M525.89,-120.99C568.61,-109.88 626.97,-94.71 663.3,-85.26"/>
<polygon fill="#63b8ff" stroke="#63b8ff" points="664.58,-88.55 673.38,-82.64 662.82,-81.77 664.58,-88.55"/>
</a>
</g>
</g>
<!-- Node7 -->
<g id="Node000007" class="node">
<title>Node7</title>
<g id="a_Node000007"><a xlink:href="scene_8h.html" target="_top" xlink:title=" ">
<polygon fill="white" stroke="#666666" points="861,-85 739,-85 739,-66 861,-66 861,-85"/>
<text text-anchor="middle" x="800" y="-73" font-family="Helvetica,sans-Serif" font-size="10.00">engine/public/scene.h</text>
</a>
</g>
</g>
<!-- Node1&#45;&gt;Node7 -->
<g id="edge6_Node000001_Node000007" class="edge">
<title>Node1&#45;&gt;Node7</title>
<g id="a_edge6_Node000001_Node000007"><a xlink:title=" ">
<path fill="none" stroke="#63b8ff" d="M532.16,-124.27C592.04,-113.59 683.29,-97.32 742.29,-86.79"/>
<polygon fill="#63b8ff" stroke="#63b8ff" points="742.97,-90.23 752.2,-85.03 741.74,-83.34 742.97,-90.23"/>
</a>
</g>
</g>
<!-- Node8 -->
<g id="Node000008" class="node">
<title>Node8</title>
<g id="a_Node000008"><a xlink:href="transform_8h.html" target="_top" xlink:title=" ">
<polygon fill="white" stroke="#666666" points="429,-85 287,-85 287,-66 429,-66 429,-85"/>
<text text-anchor="middle" x="358" y="-73" font-family="Helvetica,sans-Serif" font-size="10.00">engine/public/transform.h</text>
</a>
</g>
</g>
<!-- Node1&#45;&gt;Node8 -->
<g id="edge7_Node000001_Node000008" class="edge">
<title>Node1&#45;&gt;Node8</title>
<g id="a_edge7_Node000001_Node000008"><a xlink:title=" ">
<path fill="none" stroke="#63b8ff" d="M444.69,-120.99C426.35,-111.58 402.32,-99.24 384.21,-89.95"/>
<polygon fill="#63b8ff" stroke="#63b8ff" points="385.33,-86.59 374.84,-85.14 382.13,-92.82 385.33,-86.59"/>
</a>
</g>
</g>
<!-- Node11 -->
<g id="Node000011" class="node">
<title>Node11</title>
<g id="a_Node000011"><a xlink:href="component_8h.html" target="_top" xlink:title=" ">
<polygon fill="white" stroke="#666666" points="268.5,-85 119.5,-85 119.5,-66 268.5,-66 268.5,-85"/>
<text text-anchor="middle" x="194" y="-73" font-family="Helvetica,sans-Serif" font-size="10.00">engine/public/component.h</text>
</a>
</g>
</g>
<!-- Node1&#45;&gt;Node11 -->
<g id="edge11_Node000001_Node000011" class="edge">
<title>Node1&#45;&gt;Node11</title>
<g id="a_edge11_Node000001_Node000011"><a xlink:title=" ">
<path fill="none" stroke="#63b8ff" d="M411.68,-122.31C361.69,-111.79 291.46,-97.01 244.42,-87.11"/>
<polygon fill="#63b8ff" stroke="#63b8ff" points="244.97,-83.65 234.46,-85.01 243.53,-90.5 244.97,-83.65"/>
</a>
</g>
</g>
<!-- Node12 -->
<g id="Node000012" class="node">
<title>Node12</title>
<g id="a_Node000012"><a xlink:href="uuid_8h.html" target="_top" xlink:title=" ">
<polygon fill="white" stroke="#666666" points="616.5,-85 515.5,-85 515.5,-66 616.5,-66 616.5,-85"/>
<text text-anchor="middle" x="566" y="-73" font-family="Helvetica,sans-Serif" font-size="10.00">engine/util/uuid.h</text>
</a>
</g>
</g>
<!-- Node1&#45;&gt;Node12 -->
<g id="edge14_Node000001_Node000012" class="edge">
<title>Node1&#45;&gt;Node12</title>
<g id="a_edge14_Node000001_Node000012"><a xlink:title=" ">
<path fill="none" stroke="#63b8ff" d="M494.75,-120.84C509.6,-111.6 528.9,-99.59 543.66,-90.4"/>
<polygon fill="#63b8ff" stroke="#63b8ff" points="545.55,-93.35 552.19,-85.09 541.85,-87.41 545.55,-93.35"/>
</a>
</g>
</g>
<!-- Node8&#45;&gt;Node3 -->
<g id="edge9_Node000008_Node000003" class="edge">
<title>Node8&#45;&gt;Node3</title>
<g id="a_edge9_Node000008_Node000003"><a xlink:title=" ">
<path fill="none" stroke="#63b8ff" d="M331.61,-65.92C304.89,-57.15 262.43,-43.03 226,-30 224.35,-29.41 222.67,-28.8 220.97,-28.18"/>
<polygon fill="#63b8ff" stroke="#63b8ff" points="221.85,-24.77 211.26,-24.57 219.41,-31.33 221.85,-24.77"/>
</a>
</g>
</g>
<!-- Node9 -->
<g id="Node000009" class="node">
<title>Node9</title>
<g id="a_Node000009"><a xlink:title=" ">
<polygon fill="#e0e0e0" stroke="#999999" points="293,-24.5 235,-24.5 235,-5.5 293,-5.5 293,-24.5"/>
<text text-anchor="middle" x="264" y="-12.5" font-family="Helvetica,sans-Serif" font-size="10.00">memory</text>
</a>
</g>
</g>
<!-- Node8&#45;&gt;Node9 -->
<g id="edge8_Node000008_Node000009" class="edge">
<title>Node8&#45;&gt;Node9</title>
<g id="a_edge8_Node000008_Node000009"><a xlink:title=" ">
<path fill="none" stroke="#63b8ff" d="M344.13,-65.87C329,-56.45 304.54,-41.23 286.62,-30.08"/>
<polygon fill="#63b8ff" stroke="#63b8ff" points="288.27,-26.98 277.93,-24.67 284.57,-32.92 288.27,-26.98"/>
</a>
</g>
</g>
<!-- Node10 -->
<g id="Node000010" class="node">
<title>Node10</title>
<g id="a_Node000010"><a xlink:href="vector3_8h.html" target="_top" xlink:title=" ">
<polygon fill="white" stroke="#666666" points="412.5,-30 311.5,-30 311.5,0 412.5,0 412.5,-30"/>
<text text-anchor="start" x="319.5" y="-18" font-family="Helvetica,sans-Serif" font-size="10.00">engine/public/util</text>
<text text-anchor="middle" x="362" y="-7" font-family="Helvetica,sans-Serif" font-size="10.00">/vector3.h</text>
</a>
</g>
</g>
<!-- Node8&#45;&gt;Node10 -->
<g id="edge10_Node000008_Node000010" class="edge">
<title>Node8&#45;&gt;Node10</title>
<g id="a_edge10_Node000008_Node000010"><a xlink:title=" ">
<path fill="none" stroke="#63b8ff" d="M358.59,-65.87C359.05,-59.11 359.72,-49.35 360.34,-40.26"/>
<polygon fill="#63b8ff" stroke="#63b8ff" points="363.84,-40.33 361.03,-30.11 356.86,-39.85 363.84,-40.33"/>
</a>
</g>
</g>
<!-- Node11&#45;&gt;Node3 -->
<g id="edge13_Node000011_Node000003" class="edge">
<title>Node11&#45;&gt;Node3</title>
<g id="a_edge13_Node000011_Node000003"><a xlink:title=" ">
<path fill="none" stroke="#63b8ff" d="M193.26,-65.87C192.57,-57.75 191.5,-45.31 190.61,-34.89"/>
<polygon fill="#63b8ff" stroke="#63b8ff" points="194.08,-34.33 189.74,-24.67 187.11,-34.93 194.08,-34.33"/>
</a>
</g>
</g>
<!-- Node11&#45;&gt;Node9 -->
<g id="edge12_Node000011_Node000009" class="edge">
<title>Node11&#45;&gt;Node9</title>
<g id="a_edge12_Node000011_Node000009"><a xlink:title=" ">
<path fill="none" stroke="#63b8ff" d="M204.33,-65.87C215.19,-56.8 232.49,-42.34 245.67,-31.32"/>
<polygon fill="#63b8ff" stroke="#63b8ff" points="248.2,-33.77 253.63,-24.67 243.71,-28.39 248.2,-33.77"/>
</a>
</g>
</g>
<!-- Node12&#45;&gt;Node5 -->
<g id="edge15_Node000012_Node000005" class="edge">
<title>Node12&#45;&gt;Node5</title>
<g id="a_edge15_Node000012_Node000005"><a xlink:title=" ">
<path fill="none" stroke="#63b8ff" d="M571.75,-65.87C577.46,-57.31 586.35,-43.97 593.51,-33.24"/>
<polygon fill="#63b8ff" stroke="#63b8ff" points="596.59,-34.93 599.22,-24.67 590.76,-31.05 596.59,-34.93"/>
</a>
</g>
</g>
</g>
</svg>
