<?xml version="1.0" encoding="UTF-8" standalone="no"?>
<!DOCTYPE svg PUBLIC "-//W3C//DTD SVG 1.1//EN"
 "http://www.w3.org/Graphics/SVG/1.1/DTD/svg11.dtd">
<!-- Generated by graphviz version 2.43.0 (0)
 -->
<!-- Title: include/engine/public/gameObject.h Pages: 1 -->
<svg width="840pt" height="159pt"
 viewBox="0.00 0.00 840.00 159.00" xmlns="http://www.w3.org/2000/svg" xmlns:xlink="http://www.w3.org/1999/xlink">
<g id="graph0" class="graph" transform="scale(1 1) rotate(0) translate(4 155)">
<title>include/engine/public/gameObject.h</title>
<!-- Node1 -->
<g id="Node000001" class="node">
<title>Node1</title>
<g id="a_Node000001"><a xlink:title=" ">
<polygon fill="#999999" stroke="#666666" points="516,-151 396,-151 396,-121 516,-121 516,-151"/>
<text text-anchor="start" x="404" y="-139" font-family="Helvetica,sans-Serif" font-size="10.00">include/engine/public</text>
<text text-anchor="middle" x="456" y="-128" font-family="Helvetica,sans-Serif" font-size="10.00">/gameObject.h</text>
</a>
</g>
</g>
<!-- Node2 -->
<g id="Node000002" class="node">
<title>Node2</title>
<g id="a_Node000002"><a xlink:title=" ">
<polygon fill="#e0e0e0" stroke="#999999" points="64,-85 0,-85 0,-66 64,-66 64,-85"/>
<text text-anchor="middle" x="32" y="-73" font-family="Helvetica,sans-Serif" font-size="10.00">algorithm</text>
</a>
</g>
</g>
<!-- Node1&#45;&gt;Node2 -->
<g id="edge1_Node000001_Node000002" class="edge">
<title>Node1&#45;&gt;Node2</title>
<g id="a_edge1_Node000001_Node000002"><a xlink:title=" ">
<path fill="none" stroke="#63b8ff" d="M395.76,-128.54C322.21,-120.35 193.83,-105.02 74.25,-85.1"/>
<polygon fill="#63b8ff" stroke="#63b8ff" points="74.63,-81.62 64.19,-83.41 73.47,-88.52 74.63,-81.62"/>
</a>
</g>
</g>
<!-- Node3 -->
<g id="Node000003" class="node">
<title>Node3</title>
<g id="a_Node000003"><a xlink:title=" ">
<polygon fill="#e0e0e0" stroke="#999999" points="292,-24.5 236,-24.5 236,-5.5 292,-5.5 292,-24.5"/>
<text text-anchor="middle" x="264" y="-12.5" font-family="Helvetica,sans-Serif" font-size="10.00">optional</text>
</a>
</g>
</g>
<!-- Node1&#45;&gt;Node3 -->
<g id="edge2_Node000001_Node000003" class="edge">
<title>Node1&#45;&gt;Node3</title>
<g id="a_edge2_Node000001_Node000003"><a xlink:title=" ">
<path fill="none" stroke="#63b8ff" d="M395.98,-126.43C348.01,-118.27 286.21,-104.35 270,-85 258.44,-71.21 258.35,-49.96 260.26,-34.68"/>
<polygon fill="#63b8ff" stroke="#63b8ff" points="263.72,-35.24 261.88,-24.81 256.81,-34.11 263.72,-35.24"/>
</a>
</g>
</g>
<!-- Node4 -->
<g id="Node000004" class="node">
<title>Node4</title>
<g id="a_Node000004"><a xlink:title=" ">
<polygon fill="#e0e0e0" stroke="#999999" points="534,-85 484,-85 484,-66 534,-66 534,-85"/>
<text text-anchor="middle" x="509" y="-73" font-family="Helvetica,sans-Serif" font-size="10.00">ranges</text>
</a>
</g>
</g>
<!-- Node1&#45;&gt;Node4 -->
<g id="edge3_Node000001_Node000004" class="edge">
<title>Node1&#45;&gt;Node4</title>
<g id="a_edge3_Node000001_Node000004"><a xlink:title=" ">
<path fill="none" stroke="#63b8ff" d="M468.83,-120.84C476.52,-112.35 486.33,-101.52 494.33,-92.69"/>
<polygon fill="#63b8ff" stroke="#63b8ff" points="496.94,-95.03 501.06,-85.27 491.75,-90.33 496.94,-95.03"/>
</a>
</g>
</g>
<!-- Node5 -->
<g id="Node000005" class="node">
<title>Node5</title>
<g id="a_Node000005"><a xlink:title=" ">
<polygon fill="#e0e0e0" stroke="#999999" points="664,-24.5 620,-24.5 620,-5.5 664,-5.5 664,-24.5"/>
<text text-anchor="middle" x="642" y="-12.5" font-family="Helvetica,sans-Serif" font-size="10.00">string</text>
</a>
</g>
</g>
<!-- Node1&#45;&gt;Node5 -->
<g id="edge4_Node000001_Node000005" class="edge">
<title>Node1&#45;&gt;Node5</title>
<g id="a_edge4_Node000001_Node000005"><a xlink:title=" ">
<path fill="none" stroke="#63b8ff" d="M516.1,-128.68C570.55,-121.57 644.96,-107.91 663,-85 674.93,-69.85 664.9,-47.95 655.02,-32.91"/>
<polygon fill="#63b8ff" stroke="#63b8ff" points="657.73,-30.68 649.08,-24.55 652.02,-34.73 657.73,-30.68"/>
</a>
</g>
</g>
<!-- Node6 -->
<g id="Node000006" class="node">
<title>Node6</title>
<g id="a_Node000006"><a xlink:title=" ">
<polygon fill="#e0e0e0" stroke="#999999" points="465.5,-24.5 418.5,-24.5 418.5,-5.5 465.5,-5.5 465.5,-24.5"/>
<text text-anchor="middle" x="442" y="-12.5" font-family="Helvetica,sans-Serif" font-size="10.00">vector</text>
</a>
</g>
</g>
<!-- Node1&#45;&gt;Node6 -->
<g id="edge5_Node000001_Node000006" class="edge">
<title>Node1&#45;&gt;Node6</title>
<g id="a_edge5_Node000001_Node000006"><a xlink:title=" ">
<path fill="none" stroke="#63b8ff" d="M454.34,-120.88C451.82,-99.51 447.05,-58.89 444.23,-34.96"/>
<polygon fill="#63b8ff" stroke="#63b8ff" points="447.67,-34.23 443.02,-24.71 440.72,-35.05 447.67,-34.23"/>
</a>
</g>
</g>
<!-- Node7 -->
<g id="Node000007" class="node">
<title>Node7</title>
<g id="a_Node000007"><a xlink:href="scene_8h.html" target="_top" xlink:title=" ">
<polygon fill="white" stroke="#666666" points="832,-85 710,-85 710,-66 832,-66 832,-85"/>
<text text-anchor="middle" x="771" y="-73" font-family="Helvetica,sans-Serif" font-size="10.00">engine/public/scene.h</text>
</a>
</g>
</g>
<!-- Node1&#45;&gt;Node7 -->
<g id="edge6_Node000001_Node000007" class="edge">
<title>Node1&#45;&gt;Node7</title>
<g id="a_edge6_Node000001_Node000007"><a xlink:title=" ">
<path fill="none" stroke="#63b8ff" d="M516.36,-123.79C573.71,-113.14 659.25,-97.25 715.08,-86.88"/>
<polygon fill="#63b8ff" stroke="#63b8ff" points="715.95,-90.28 725.15,-85.02 714.68,-83.4 715.95,-90.28"/>
</a>
</g>
</g>
<!-- Node8 -->
<g id="Node000008" class="node">
<title>Node8</title>
<g id="a_Node000008"><a xlink:href="transform_8h.html" target="_top" xlink:title=" ">
<polygon fill="white" stroke="#666666" points="224,-85 82,-85 82,-66 224,-66 224,-85"/>
<text text-anchor="middle" x="153" y="-73" font-family="Helvetica,sans-Serif" font-size="10.00">engine/public/transform.h</text>
</a>
</g>
</g>
<!-- Node1&#45;&gt;Node8 -->
<g id="edge7_Node000001_Node000008" class="edge">
<title>Node1&#45;&gt;Node8</title>
<g id="a_edge7_Node000001_Node000008"><a xlink:title=" ">
<path fill="none" stroke="#63b8ff" d="M395.77,-123.37C340.81,-112.76 260.29,-97.21 207.28,-86.98"/>
<polygon fill="#63b8ff" stroke="#63b8ff" points="207.86,-83.53 197.38,-85.07 206.54,-90.4 207.86,-83.53"/>
</a>
</g>
</g>
<!-- Node11 -->
<g id="Node000011" class="node">
<title>Node11</title>
<g id="a_Node000011"><a xlink:href="component_8h.html" target="_top" xlink:title=" ">
<polygon fill="white" stroke="#666666" points="428.5,-85 279.5,-85 279.5,-66 428.5,-66 428.5,-85"/>
<text text-anchor="middle" x="354" y="-73" font-family="Helvetica,sans-Serif" font-size="10.00">engine/public/component.h</text>
</a>
</g>
</g>
<!-- Node1&#45;&gt;Node11 -->
<g id="edge11_Node000001_Node000011" class="edge">
<title>Node1&#45;&gt;Node11</title>
<g id="a_edge11_Node000001_Node000011"><a xlink:title=" ">
<path fill="none" stroke="#63b8ff" d="M431.57,-120.99C415.31,-111.66 394.05,-99.47 377.9,-90.21"/>
<polygon fill="#63b8ff" stroke="#63b8ff" points="379.48,-87.08 369.06,-85.14 376,-93.15 379.48,-87.08"/>
</a>
</g>
</g>
<!-- Node13 -->
<g id="Node000013" class="node">
<title>Node13</title>
<g id="a_Node000013"><a xlink:href="uuid_8h.html" target="_top" xlink:title=" ">
<polygon fill="white" stroke="#666666" points="653.5,-85 552.5,-85 552.5,-66 653.5,-66 653.5,-85"/>
<text text-anchor="middle" x="603" y="-73" font-family="Helvetica,sans-Serif" font-size="10.00">engine/util/uuid.h</text>
</a>
</g>
</g>
<!-- Node1&#45;&gt;Node13 -->
<g id="edge16_Node000001_Node000013" class="edge">
<title>Node1&#45;&gt;Node13</title>
<g id="a_edge16_Node000001_Node000013"><a xlink:title=" ">
<path fill="none" stroke="#63b8ff" d="M491.21,-120.99C515.74,-111.23 548.15,-98.33 571.76,-88.93"/>
<polygon fill="#63b8ff" stroke="#63b8ff" points="573.29,-92.09 581.29,-85.14 570.71,-85.58 573.29,-92.09"/>
</a>
</g>
</g>
<!-- Node8&#45;&gt;Node3 -->
<g id="edge9_Node000008_Node000003" class="edge">
<title>Node8&#45;&gt;Node3</title>
<g id="a_edge9_Node000008_Node000003"><a xlink:title=" ">
<path fill="none" stroke="#63b8ff" d="M169.38,-65.87C187.58,-56.28 217.2,-40.67 238.45,-29.47"/>
<polygon fill="#63b8ff" stroke="#63b8ff" points="240.34,-32.43 247.55,-24.67 237.08,-26.23 240.34,-32.43"/>
</a>
</g>
</g>
<!-- Node9 -->
<g id="Node000009" class="node">
<title>Node9</title>
<g id="a_Node000009"><a xlink:title=" ">
<polygon fill="#e0e0e0" stroke="#999999" points="218,-24.5 160,-24.5 160,-5.5 218,-5.5 218,-24.5"/>
<text text-anchor="middle" x="189" y="-12.5" font-family="Helvetica,sans-Serif" font-size="10.00">memory</text>
</a>
</g>
</g>
<!-- Node8&#45;&gt;Node9 -->
<g id="edge8_Node000008_Node000009" class="edge">
<title>Node8&#45;&gt;Node9</title>
<g id="a_edge8_Node000008_Node000009"><a xlink:title=" ">
<path fill="none" stroke="#63b8ff" d="M158.31,-65.87C163.58,-57.31 171.79,-43.97 178.39,-33.24"/>
<polygon fill="#63b8ff" stroke="#63b8ff" points="181.41,-35.02 183.67,-24.67 175.44,-31.35 181.41,-35.02"/>
</a>
</g>
</g>
<!-- Node10 -->
<g id="Node000010" class="node">
<title>Node10</title>
<g id="a_Node000010"><a xlink:href="vector3_8h.html" target="_top" xlink:title=" ">
<polygon fill="white" stroke="#666666" points="141.5,-30 40.5,-30 40.5,0 141.5,0 141.5,-30"/>
<text text-anchor="start" x="48.5" y="-18" font-family="Helvetica,sans-Serif" font-size="10.00">engine/public/util</text>
<text text-anchor="middle" x="91" y="-7" font-family="Helvetica,sans-Serif" font-size="10.00">/vector3.h</text>
</a>
</g>
</g>
<!-- Node8&#45;&gt;Node10 -->
<g id="edge10_Node000008_Node000010" class="edge">
<title>Node8&#45;&gt;Node10</title>
<g id="a_edge10_Node000008_Node000010"><a xlink:title=" ">
<path fill="none" stroke="#63b8ff" d="M143.85,-65.87C135.83,-58.3 123.83,-46.98 113.3,-37.04"/>
<polygon fill="#63b8ff" stroke="#63b8ff" points="115.63,-34.43 105.96,-30.11 110.83,-39.52 115.63,-34.43"/>
</a>
</g>
</g>
<!-- Node11&#45;&gt;Node3 -->
<g id="edge14_Node000011_Node000003" class="edge">
<title>Node11&#45;&gt;Node3</title>
<g id="a_edge14_Node000011_Node000003"><a xlink:title=" ">
<path fill="none" stroke="#63b8ff" d="M340.72,-65.87C326.36,-56.54 303.24,-41.51 286.13,-30.38"/>
<polygon fill="#63b8ff" stroke="#63b8ff" points="287.63,-27.18 277.33,-24.67 283.81,-33.05 287.63,-27.18"/>
</a>
</g>
</g>
<!-- Node11&#45;&gt;Node6 -->
<g id="edge15_Node000011_Node000006" class="edge">
<title>Node11&#45;&gt;Node6</title>
<g id="a_edge15_Node000011_Node000006"><a xlink:title=" ">
<path fill="none" stroke="#63b8ff" d="M366.98,-65.87C381.02,-56.54 403.63,-41.51 420.36,-30.38"/>
<polygon fill="#63b8ff" stroke="#63b8ff" points="422.57,-33.12 428.96,-24.67 418.7,-27.29 422.57,-33.12"/>
</a>
</g>
</g>
<!-- Node11&#45;&gt;Node9 -->
<g id="edge13_Node000011_Node000009" class="edge">
<title>Node11&#45;&gt;Node9</title>
<g id="a_edge13_Node000011_Node000009"><a xlink:title=" ">
<path fill="none" stroke="#63b8ff" d="M329.14,-65.92C303.5,-57.04 262.4,-42.72 227,-30 225.36,-29.41 223.69,-28.81 221.99,-28.19"/>
<polygon fill="#63b8ff" stroke="#63b8ff" points="222.88,-24.79 212.29,-24.65 220.48,-31.37 222.88,-24.79"/>
</a>
</g>
</g>
<!-- Node12 -->
<g id="Node000012" class="node">
<title>Node12</title>
<g id="a_Node000012"><a xlink:title=" ">
<polygon fill="#e0e0e0" stroke="#999999" points="386.5,-24.5 321.5,-24.5 321.5,-5.5 386.5,-5.5 386.5,-24.5"/>
<text text-anchor="middle" x="354" y="-12.5" font-family="Helvetica,sans-Serif" font-size="10.00">functional</text>
</a>
</g>
</g>
<!-- Node11&#45;&gt;Node12 -->
<g id="edge12_Node000011_Node000012" class="edge">
<title>Node11&#45;&gt;Node12</title>
<g id="a_edge12_Node000011_Node000012"><a xlink:title=" ">
<path fill="none" stroke="#63b8ff" d="M354,-65.87C354,-57.75 354,-45.31 354,-34.89"/>
<polygon fill="#63b8ff" stroke="#63b8ff" points="357.5,-34.67 354,-24.67 350.5,-34.67 357.5,-34.67"/>
</a>
</g>
</g>
<!-- Node13&#45;&gt;Node5 -->
<g id="edge17_Node000013_Node000005" class="edge">
<title>Node13&#45;&gt;Node5</title>
<g id="a_edge17_Node000013_Node000005"><a xlink:title=" ">
<path fill="none" stroke="#63b8ff" d="M608.75,-65.87C614.46,-57.31 623.35,-43.97 630.51,-33.24"/>
<polygon fill="#63b8ff" stroke="#63b8ff" points="633.59,-34.93 636.22,-24.67 627.76,-31.05 633.59,-34.93"/>
</a>
</g>
</g>
</g>
</svg>
