<?xml version="1.0" encoding="UTF-8" standalone="no"?>
<!DOCTYPE svg PUBLIC "-//W3C//DTD SVG 1.1//EN"
 "http://www.w3.org/Graphics/SVG/1.1/DTD/svg11.dtd">
<!-- Generated by graphviz version 2.43.0 (0)
 -->
<!-- Title: include/engine/public/gameObject.h Pages: 1 -->
<svg width="604pt" height="159pt"
 viewBox="0.00 0.00 604.00 159.00" xmlns="http://www.w3.org/2000/svg" xmlns:xlink="http://www.w3.org/1999/xlink">
<g id="graph0" class="graph" transform="scale(1 1) rotate(0) translate(4 155)">
<title>include/engine/public/gameObject.h</title>
<!-- Node1 -->
<g id="Node000001" class="node">
<title>Node1</title>
<g id="a_Node000001"><a xlink:title=" ">
<polygon fill="#999999" stroke="#666666" points="414,-151 294,-151 294,-121 414,-121 414,-151"/>
<text text-anchor="start" x="302" y="-139" font-family="Helvetica,sans-Serif" font-size="10.00">include/engine/public</text>
<text text-anchor="middle" x="354" y="-128" font-family="Helvetica,sans-Serif" font-size="10.00">/gameObject.h</text>
</a>
</g>
</g>
<!-- Node2 -->
<g id="Node000002" class="node">
<title>Node2</title>
<g id="a_Node000002"><a xlink:title=" ">
<polygon fill="#e0e0e0" stroke="#999999" points="64,-85 0,-85 0,-66 64,-66 64,-85"/>
<text text-anchor="middle" x="32" y="-73" font-family="Helvetica,sans-Serif" font-size="10.00">algorithm</text>
</a>
</g>
</g>
<!-- Node1&#45;&gt;Node2 -->
<g id="edge1_Node000001_Node000002" class="edge">
<title>Node1&#45;&gt;Node2</title>
<g id="a_edge1_Node000001_Node000002"><a xlink:title=" ">
<path fill="none" stroke="#63b8ff" d="M293.89,-124.81C239.15,-115.42 155.85,-100.84 74.16,-85.18"/>
<polygon fill="#63b8ff" stroke="#63b8ff" points="74.69,-81.72 64.21,-83.27 73.37,-88.59 74.69,-81.72"/>
</a>
</g>
</g>
<!-- Node3 -->
<g id="Node000003" class="node">
<title>Node3</title>
<g id="a_Node000003"><a xlink:title=" ">
<polygon fill="#e0e0e0" stroke="#999999" points="255,-24.5 199,-24.5 199,-5.5 255,-5.5 255,-24.5"/>
<text text-anchor="middle" x="227" y="-12.5" font-family="Helvetica,sans-Serif" font-size="10.00">optional</text>
</a>
</g>
</g>
<!-- Node1&#45;&gt;Node3 -->
<g id="edge2_Node000001_Node000003" class="edge">
<title>Node1&#45;&gt;Node3</title>
<g id="a_edge2_Node000001_Node000003"><a xlink:title=" ">
<path fill="none" stroke="#63b8ff" d="M323.27,-120.86C306.52,-112.14 286.18,-99.8 271,-85 255.63,-70.01 243.07,-48.67 235.36,-33.71"/>
<polygon fill="#63b8ff" stroke="#63b8ff" points="238.39,-31.94 230.83,-24.52 232.11,-35.03 238.39,-31.94"/>
</a>
</g>
</g>
<!-- Node4 -->
<g id="Node000004" class="node">
<title>Node4</title>
<g id="a_Node000004"><a xlink:title=" ">
<polygon fill="#e0e0e0" stroke="#999999" points="534,-85 484,-85 484,-66 534,-66 534,-85"/>
<text text-anchor="middle" x="509" y="-73" font-family="Helvetica,sans-Serif" font-size="10.00">ranges</text>
</a>
</g>
</g>
<!-- Node1&#45;&gt;Node4 -->
<g id="edge3_Node000001_Node000004" class="edge">
<title>Node1&#45;&gt;Node4</title>
<g id="a_edge3_Node000001_Node000004"><a xlink:title=" ">
<path fill="none" stroke="#63b8ff" d="M391.13,-120.99C417.22,-111.14 451.78,-98.1 476.73,-88.68"/>
<polygon fill="#63b8ff" stroke="#63b8ff" points="477.99,-91.94 486.11,-85.14 475.52,-85.4 477.99,-91.94"/>
</a>
</g>
</g>
<!-- Node5 -->
<g id="Node000005" class="node">
<title>Node5</title>
<g id="a_Node000005"><a xlink:title=" ">
<polygon fill="#e0e0e0" stroke="#999999" points="596,-85 552,-85 552,-66 596,-66 596,-85"/>
<text text-anchor="middle" x="574" y="-73" font-family="Helvetica,sans-Serif" font-size="10.00">string</text>
</a>
</g>
</g>
<!-- Node1&#45;&gt;Node5 -->
<g id="edge4_Node000001_Node000005" class="edge">
<title>Node1&#45;&gt;Node5</title>
<g id="a_edge4_Node000001_Node000005"><a xlink:title=" ">
<path fill="none" stroke="#63b8ff" d="M407.8,-120.9C443.35,-111.56 491.22,-98.91 542.12,-85.22"/>
<polygon fill="#63b8ff" stroke="#63b8ff" points="543.25,-88.54 551.99,-82.56 541.43,-81.78 543.25,-88.54"/>
</a>
</g>
</g>
<!-- Node6 -->
<g id="Node000006" class="node">
<title>Node6</title>
<g id="a_Node000006"><a xlink:title=" ">
<polygon fill="#e0e0e0" stroke="#999999" points="479.5,-24.5 432.5,-24.5 432.5,-5.5 479.5,-5.5 479.5,-24.5"/>
<text text-anchor="middle" x="456" y="-12.5" font-family="Helvetica,sans-Serif" font-size="10.00">vector</text>
</a>
</g>
</g>
<!-- Node1&#45;&gt;Node6 -->
<g id="edge5_Node000001_Node000006" class="edge">
<title>Node1&#45;&gt;Node6</title>
<g id="a_edge5_Node000001_Node000006"><a xlink:title=" ">
<path fill="none" stroke="#63b8ff" d="M389.9,-120.87C406.44,-112.68 425.01,-100.82 437,-85 448.13,-70.32 452.74,-49.51 454.65,-34.59"/>
<polygon fill="#63b8ff" stroke="#63b8ff" points="458.14,-34.82 455.65,-24.52 451.18,-34.13 458.14,-34.82"/>
</a>
</g>
</g>
<!-- Node7 -->
<g id="Node000007" class="node">
<title>Node7</title>
<g id="a_Node000007"><a xlink:href="transform_8h.html" target="_top" xlink:title=" ">
<polygon fill="white" stroke="#666666" points="224,-85 82,-85 82,-66 224,-66 224,-85"/>
<text text-anchor="middle" x="153" y="-73" font-family="Helvetica,sans-Serif" font-size="10.00">engine/public/transform.h</text>
</a>
</g>
</g>
<!-- Node1&#45;&gt;Node7 -->
<g id="edge6_Node000001_Node000007" class="edge">
<title>Node1&#45;&gt;Node7</title>
<g id="a_edge6_Node000001_Node000007"><a xlink:title=" ">
<path fill="none" stroke="#63b8ff" d="M305.86,-120.99C271.02,-110.85 224.53,-97.32 192.01,-87.85"/>
<polygon fill="#63b8ff" stroke="#63b8ff" points="192.97,-84.49 182.39,-85.05 191.01,-91.21 192.97,-84.49"/>
</a>
</g>
</g>
<!-- Node10 -->
<g id="Node000010" class="node">
<title>Node10</title>
<g id="a_Node000010"><a xlink:href="component_8h.html" target="_top" xlink:title=" ">
<polygon fill="white" stroke="#666666" points="428.5,-85 279.5,-85 279.5,-66 428.5,-66 428.5,-85"/>
<text text-anchor="middle" x="354" y="-73" font-family="Helvetica,sans-Serif" font-size="10.00">engine/public/component.h</text>
</a>
</g>
</g>
<!-- Node1&#45;&gt;Node10 -->
<g id="edge10_Node000001_Node000010" class="edge">
<title>Node1&#45;&gt;Node10</title>
<g id="a_edge10_Node000001_Node000010"><a xlink:title=" ">
<path fill="none" stroke="#63b8ff" d="M354,-120.84C354,-113.21 354,-103.7 354,-95.45"/>
<polygon fill="#63b8ff" stroke="#63b8ff" points="357.5,-95.27 354,-85.27 350.5,-95.27 357.5,-95.27"/>
</a>
</g>
</g>
<!-- Node7&#45;&gt;Node3 -->
<g id="edge8_Node000007_Node000003" class="edge">
<title>Node7&#45;&gt;Node3</title>
<g id="a_edge8_Node000007_Node000003"><a xlink:title=" ">
<path fill="none" stroke="#63b8ff" d="M163.92,-65.87C175.51,-56.71 194.03,-42.06 208.02,-31.01"/>
<polygon fill="#63b8ff" stroke="#63b8ff" points="210.36,-33.61 216.04,-24.67 206.02,-28.12 210.36,-33.61"/>
</a>
</g>
</g>
<!-- Node8 -->
<g id="Node000008" class="node">
<title>Node8</title>
<g id="a_Node000008"><a xlink:title=" ">
<polygon fill="#e0e0e0" stroke="#999999" points="331,-24.5 273,-24.5 273,-5.5 331,-5.5 331,-24.5"/>
<text text-anchor="middle" x="302" y="-12.5" font-family="Helvetica,sans-Serif" font-size="10.00">memory</text>
</a>
</g>
</g>
<!-- Node7&#45;&gt;Node8 -->
<g id="edge7_Node000007_Node000008" class="edge">
<title>Node7&#45;&gt;Node8</title>
<g id="a_edge7_Node000007_Node000008"><a xlink:title=" ">
<path fill="none" stroke="#63b8ff" d="M174.67,-65.99C199.94,-56.07 241.91,-39.59 270.72,-28.28"/>
<polygon fill="#63b8ff" stroke="#63b8ff" points="272.28,-31.43 280.31,-24.52 269.72,-24.91 272.28,-31.43"/>
</a>
</g>
</g>
<!-- Node9 -->
<g id="Node000009" class="node">
<title>Node9</title>
<g id="a_Node000009"><a xlink:href="vector3_8h.html" target="_top" xlink:title=" ">
<polygon fill="white" stroke="#666666" points="180.5,-30 79.5,-30 79.5,0 180.5,0 180.5,-30"/>
<text text-anchor="start" x="87.5" y="-18" font-family="Helvetica,sans-Serif" font-size="10.00">engine/public/util</text>
<text text-anchor="middle" x="130" y="-7" font-family="Helvetica,sans-Serif" font-size="10.00">/vector3.h</text>
</a>
</g>
</g>
<!-- Node7&#45;&gt;Node9 -->
<g id="edge9_Node000007_Node000009" class="edge">
<title>Node7&#45;&gt;Node9</title>
<g id="a_edge9_Node000007_Node000009"><a xlink:title=" ">
<path fill="none" stroke="#63b8ff" d="M149.61,-65.87C146.89,-58.96 142.95,-48.93 139.31,-39.67"/>
<polygon fill="#63b8ff" stroke="#63b8ff" points="142.47,-38.14 135.55,-30.11 135.95,-40.7 142.47,-38.14"/>
</a>
</g>
</g>
<!-- Node10&#45;&gt;Node3 -->
<g id="edge13_Node000010_Node000003" class="edge">
<title>Node10&#45;&gt;Node3</title>
<g id="a_edge13_Node000010_Node000003"><a xlink:title=" ">
<path fill="none" stroke="#63b8ff" d="M335.53,-65.99C314.28,-56.2 279.15,-40.02 254.63,-28.73"/>
<polygon fill="#63b8ff" stroke="#63b8ff" points="256.04,-25.52 245.49,-24.52 253.11,-31.88 256.04,-25.52"/>
</a>
</g>
</g>
<!-- Node10&#45;&gt;Node6 -->
<g id="edge14_Node000010_Node000006" class="edge">
<title>Node10&#45;&gt;Node6</title>
<g id="a_edge14_Node000010_Node000006"><a xlink:title=" ">
<path fill="none" stroke="#63b8ff" d="M369.05,-65.87C385.62,-56.36 412.5,-40.95 431.99,-29.77"/>
<polygon fill="#63b8ff" stroke="#63b8ff" points="433.95,-32.68 440.89,-24.67 430.47,-26.61 433.95,-32.68"/>
</a>
</g>
</g>
<!-- Node10&#45;&gt;Node8 -->
<g id="edge12_Node000010_Node000008" class="edge">
<title>Node10&#45;&gt;Node8</title>
<g id="a_edge12_Node000010_Node000008"><a xlink:title=" ">
<path fill="none" stroke="#63b8ff" d="M346.33,-65.87C338.49,-57.05 326.14,-43.16 316.46,-32.27"/>
<polygon fill="#63b8ff" stroke="#63b8ff" points="318.96,-29.82 309.7,-24.67 313.73,-34.47 318.96,-29.82"/>
</a>
</g>
</g>
<!-- Node11 -->
<g id="Node000011" class="node">
<title>Node11</title>
<g id="a_Node000011"><a xlink:title=" ">
<polygon fill="#e0e0e0" stroke="#999999" points="414.5,-24.5 349.5,-24.5 349.5,-5.5 414.5,-5.5 414.5,-24.5"/>
<text text-anchor="middle" x="382" y="-12.5" font-family="Helvetica,sans-Serif" font-size="10.00">functional</text>
</a>
</g>
</g>
<!-- Node10&#45;&gt;Node11 -->
<g id="edge11_Node000010_Node000011" class="edge">
<title>Node10&#45;&gt;Node11</title>
<g id="a_edge11_Node000010_Node000011"><a xlink:title=" ">
<path fill="none" stroke="#63b8ff" d="M358.13,-65.87C362.14,-57.49 368.35,-44.51 373.44,-33.89"/>
<polygon fill="#63b8ff" stroke="#63b8ff" points="376.69,-35.2 377.85,-24.67 370.38,-32.18 376.69,-35.2"/>
</a>
</g>
</g>
</g>
</svg>
