<?xml version="1.0" encoding="UTF-8" standalone="no"?>
<!DOCTYPE svg PUBLIC "-//W3C//DTD SVG 1.1//EN"
 "http://www.w3.org/Graphics/SVG/1.1/DTD/svg11.dtd">
<!-- Generated by graphviz version 2.43.0 (0)
 -->
<!-- Title: include/engine/public/gameObject.h Pages: 1 -->
<svg width="773pt" height="159pt"
 viewBox="0.00 0.00 773.00 159.00" xmlns="http://www.w3.org/2000/svg" xmlns:xlink="http://www.w3.org/1999/xlink">
<g id="graph0" class="graph" transform="scale(1 1) rotate(0) translate(4 155)">
<title>include/engine/public/gameObject.h</title>
<!-- Node1 -->
<g id="Node000001" class="node">
<title>Node1</title>
<g id="a_Node000001"><a xlink:title=" ">
<polygon fill="#999999" stroke="#666666" points="475,-151 355,-151 355,-121 475,-121 475,-151"/>
<text text-anchor="start" x="363" y="-139" font-family="Helvetica,sans-Serif" font-size="10.00">include/engine/public</text>
<text text-anchor="middle" x="415" y="-128" font-family="Helvetica,sans-Serif" font-size="10.00">/gameObject.h</text>
</a>
</g>
</g>
<!-- Node2 -->
<g id="Node000002" class="node">
<title>Node2</title>
<g id="a_Node000002"><a xlink:title=" ">
<polygon fill="#e0e0e0" stroke="#999999" points="64,-85 0,-85 0,-66 64,-66 64,-85"/>
<text text-anchor="middle" x="32" y="-73" font-family="Helvetica,sans-Serif" font-size="10.00">algorithm</text>
</a>
</g>
</g>
<!-- Node1&#45;&gt;Node2 -->
<g id="edge1_Node000001_Node000002" class="edge">
<title>Node1&#45;&gt;Node2</title>
<g id="a_edge1_Node000001_Node000002"><a xlink:title=" ">
<path fill="none" stroke="#63b8ff" d="M354.94,-126.74C287.46,-117.31 174.71,-101.1 78,-85 76.74,-84.79 75.46,-84.57 74.17,-84.35"/>
<polygon fill="#63b8ff" stroke="#63b8ff" points="74.6,-80.88 64.15,-82.59 73.39,-87.77 74.6,-80.88"/>
</a>
</g>
</g>
<!-- Node3 -->
<g id="Node000003" class="node">
<title>Node3</title>
<g id="a_Node000003"><a xlink:title=" ">
<polygon fill="#e0e0e0" stroke="#999999" points="217,-24.5 161,-24.5 161,-5.5 217,-5.5 217,-24.5"/>
<text text-anchor="middle" x="189" y="-12.5" font-family="Helvetica,sans-Serif" font-size="10.00">optional</text>
</a>
</g>
</g>
<!-- Node1&#45;&gt;Node3 -->
<g id="edge2_Node000001_Node000003" class="edge">
<title>Node1&#45;&gt;Node3</title>
<g id="a_edge2_Node000001_Node000003"><a xlink:title=" ">
<path fill="none" stroke="#63b8ff" d="M354.77,-133.96C275.23,-131.17 141.64,-121.09 111,-85 92.34,-63.02 127.2,-41.65 156.14,-28.66"/>
<polygon fill="#63b8ff" stroke="#63b8ff" points="157.82,-31.74 165.64,-24.58 155.07,-25.31 157.82,-31.74"/>
</a>
</g>
</g>
<!-- Node4 -->
<g id="Node000004" class="node">
<title>Node4</title>
<g id="a_Node000004"><a xlink:title=" ">
<polygon fill="#e0e0e0" stroke="#999999" points="497,-85 447,-85 447,-66 497,-66 497,-85"/>
<text text-anchor="middle" x="472" y="-73" font-family="Helvetica,sans-Serif" font-size="10.00">ranges</text>
</a>
</g>
</g>
<!-- Node1&#45;&gt;Node4 -->
<g id="edge3_Node000001_Node000004" class="edge">
<title>Node1&#45;&gt;Node4</title>
<g id="a_edge3_Node000001_Node000004"><a xlink:title=" ">
<path fill="none" stroke="#63b8ff" d="M428.8,-120.84C437.07,-112.35 447.62,-101.52 456.23,-92.69"/>
<polygon fill="#63b8ff" stroke="#63b8ff" points="458.99,-94.87 463.46,-85.27 453.97,-89.99 458.99,-94.87"/>
</a>
</g>
</g>
<!-- Node5 -->
<g id="Node000005" class="node">
<title>Node5</title>
<g id="a_Node000005"><a xlink:title=" ">
<polygon fill="#e0e0e0" stroke="#999999" points="559,-85 515,-85 515,-66 559,-66 559,-85"/>
<text text-anchor="middle" x="537" y="-73" font-family="Helvetica,sans-Serif" font-size="10.00">string</text>
</a>
</g>
</g>
<!-- Node1&#45;&gt;Node5 -->
<g id="edge4_Node000001_Node000005" class="edge">
<title>Node1&#45;&gt;Node5</title>
<g id="a_edge4_Node000001_Node000005"><a xlink:title=" ">
<path fill="none" stroke="#63b8ff" d="M444.22,-120.99C464.12,-111.45 490.28,-98.9 509.75,-89.57"/>
<polygon fill="#63b8ff" stroke="#63b8ff" points="511.48,-92.62 518.98,-85.14 508.45,-86.31 511.48,-92.62"/>
</a>
</g>
</g>
<!-- Node6 -->
<g id="Node000006" class="node">
<title>Node6</title>
<g id="a_Node000006"><a xlink:title=" ">
<polygon fill="#e0e0e0" stroke="#999999" points="624.5,-85 577.5,-85 577.5,-66 624.5,-66 624.5,-85"/>
<text text-anchor="middle" x="601" y="-73" font-family="Helvetica,sans-Serif" font-size="10.00">vector</text>
</a>
</g>
</g>
<!-- Node1&#45;&gt;Node6 -->
<g id="edge5_Node000001_Node000006" class="edge">
<title>Node1&#45;&gt;Node6</title>
<g id="a_edge5_Node000001_Node000006"><a xlink:title=" ">
<path fill="none" stroke="#63b8ff" d="M459.55,-120.99C492.77,-110.54 537.42,-96.5 567.61,-87"/>
<polygon fill="#63b8ff" stroke="#63b8ff" points="568.76,-90.31 577.25,-83.97 566.66,-83.63 568.76,-90.31"/>
</a>
</g>
</g>
<!-- Node7 -->
<g id="Node000007" class="node">
<title>Node7</title>
<g id="a_Node000007"><a xlink:href="scene_8h.html" target="_top" xlink:title=" ">
<polygon fill="white" stroke="#666666" points="765,-85 643,-85 643,-66 765,-66 765,-85"/>
<text text-anchor="middle" x="704" y="-73" font-family="Helvetica,sans-Serif" font-size="10.00">engine/public/scene.h</text>
</a>
</g>
</g>
<!-- Node1&#45;&gt;Node7 -->
<g id="edge6_Node000001_Node000007" class="edge">
<title>Node1&#45;&gt;Node7</title>
<g id="a_edge6_Node000001_Node000007"><a xlink:title=" ">
<path fill="none" stroke="#63b8ff" d="M475.23,-122.81C527.39,-112.25 602.06,-97.14 651.73,-87.08"/>
<polygon fill="#63b8ff" stroke="#63b8ff" points="652.52,-90.49 661.63,-85.08 651.13,-83.63 652.52,-90.49"/>
</a>
</g>
</g>
<!-- Node8 -->
<g id="Node000008" class="node">
<title>Node8</title>
<g id="a_Node000008"><a xlink:href="transform_8h.html" target="_top" xlink:title=" ">
<polygon fill="white" stroke="#666666" points="429,-85 287,-85 287,-66 429,-66 429,-85"/>
<text text-anchor="middle" x="358" y="-73" font-family="Helvetica,sans-Serif" font-size="10.00">engine/public/transform.h</text>
</a>
</g>
</g>
<!-- Node1&#45;&gt;Node8 -->
<g id="edge7_Node000001_Node000008" class="edge">
<title>Node1&#45;&gt;Node8</title>
<g id="a_edge7_Node000001_Node000008"><a xlink:title=" ">
<path fill="none" stroke="#63b8ff" d="M401.2,-120.84C392.93,-112.35 382.38,-101.52 373.77,-92.69"/>
<polygon fill="#63b8ff" stroke="#63b8ff" points="376.03,-89.99 366.54,-85.27 371.01,-94.87 376.03,-89.99"/>
</a>
</g>
</g>
<!-- Node11 -->
<g id="Node000011" class="node">
<title>Node11</title>
<g id="a_Node000011"><a xlink:href="component_8h.html" target="_top" xlink:title=" ">
<polygon fill="white" stroke="#666666" points="268.5,-85 119.5,-85 119.5,-66 268.5,-66 268.5,-85"/>
<text text-anchor="middle" x="194" y="-73" font-family="Helvetica,sans-Serif" font-size="10.00">engine/public/component.h</text>
</a>
</g>
</g>
<!-- Node1&#45;&gt;Node11 -->
<g id="edge11_Node000001_Node000011" class="edge">
<title>Node1&#45;&gt;Node11</title>
<g id="a_edge11_Node000001_Node000011"><a xlink:title=" ">
<path fill="none" stroke="#63b8ff" d="M362.06,-120.99C323.59,-110.8 272.21,-97.2 236.43,-87.73"/>
<polygon fill="#63b8ff" stroke="#63b8ff" points="236.88,-84.23 226.31,-85.05 235.09,-91 236.88,-84.23"/>
</a>
</g>
</g>
<!-- Node8&#45;&gt;Node3 -->
<g id="edge9_Node000008_Node000003" class="edge">
<title>Node8&#45;&gt;Node3</title>
<g id="a_edge9_Node000008_Node000003"><a xlink:title=" ">
<path fill="none" stroke="#63b8ff" d="M331.61,-65.92C304.89,-57.15 262.43,-43.03 226,-30 224.35,-29.41 222.67,-28.8 220.97,-28.18"/>
<polygon fill="#63b8ff" stroke="#63b8ff" points="221.85,-24.77 211.26,-24.57 219.41,-31.33 221.85,-24.77"/>
</a>
</g>
</g>
<!-- Node9 -->
<g id="Node000009" class="node">
<title>Node9</title>
<g id="a_Node000009"><a xlink:title=" ">
<polygon fill="#e0e0e0" stroke="#999999" points="293,-24.5 235,-24.5 235,-5.5 293,-5.5 293,-24.5"/>
<text text-anchor="middle" x="264" y="-12.5" font-family="Helvetica,sans-Serif" font-size="10.00">memory</text>
</a>
</g>
</g>
<!-- Node8&#45;&gt;Node9 -->
<g id="edge8_Node000008_Node000009" class="edge">
<title>Node8&#45;&gt;Node9</title>
<g id="a_edge8_Node000008_Node000009"><a xlink:title=" ">
<path fill="none" stroke="#63b8ff" d="M344.13,-65.87C329,-56.45 304.54,-41.23 286.62,-30.08"/>
<polygon fill="#63b8ff" stroke="#63b8ff" points="288.27,-26.98 277.93,-24.67 284.57,-32.92 288.27,-26.98"/>
</a>
</g>
</g>
<!-- Node10 -->
<g id="Node000010" class="node">
<title>Node10</title>
<g id="a_Node000010"><a xlink:href="vector3_8h.html" target="_top" xlink:title=" ">
<polygon fill="white" stroke="#666666" points="412.5,-30 311.5,-30 311.5,0 412.5,0 412.5,-30"/>
<text text-anchor="start" x="319.5" y="-18" font-family="Helvetica,sans-Serif" font-size="10.00">engine/public/util</text>
<text text-anchor="middle" x="362" y="-7" font-family="Helvetica,sans-Serif" font-size="10.00">/vector3.h</text>
</a>
</g>
</g>
<!-- Node8&#45;&gt;Node10 -->
<g id="edge10_Node000008_Node000010" class="edge">
<title>Node8&#45;&gt;Node10</title>
<g id="a_edge10_Node000008_Node000010"><a xlink:title=" ">
<path fill="none" stroke="#63b8ff" d="M358.59,-65.87C359.05,-59.11 359.72,-49.35 360.34,-40.26"/>
<polygon fill="#63b8ff" stroke="#63b8ff" points="363.84,-40.33 361.03,-30.11 356.86,-39.85 363.84,-40.33"/>
</a>
</g>
</g>
<!-- Node11&#45;&gt;Node3 -->
<g id="edge13_Node000011_Node000003" class="edge">
<title>Node11&#45;&gt;Node3</title>
<g id="a_edge13_Node000011_Node000003"><a xlink:title=" ">
<path fill="none" stroke="#63b8ff" d="M193.26,-65.87C192.57,-57.75 191.5,-45.31 190.61,-34.89"/>
<polygon fill="#63b8ff" stroke="#63b8ff" points="194.08,-34.33 189.74,-24.67 187.11,-34.93 194.08,-34.33"/>
</a>
</g>
</g>
<!-- Node11&#45;&gt;Node9 -->
<g id="edge12_Node000011_Node000009" class="edge">
<title>Node11&#45;&gt;Node9</title>
<g id="a_edge12_Node000011_Node000009"><a xlink:title=" ">
<path fill="none" stroke="#63b8ff" d="M204.33,-65.87C215.19,-56.8 232.49,-42.34 245.67,-31.32"/>
<polygon fill="#63b8ff" stroke="#63b8ff" points="248.2,-33.77 253.63,-24.67 243.71,-28.39 248.2,-33.77"/>
</a>
</g>
</g>
</g>
</svg>
