<?xml version="1.0" encoding="UTF-8" standalone="no"?>
<!DOCTYPE svg PUBLIC "-//W3C//DTD SVG 1.1//EN"
 "http://www.w3.org/Graphics/SVG/1.1/DTD/svg11.dtd">
<!-- Generated by graphviz version 2.43.0 (0)
 -->
<!-- Title: include/engine/public/gameObject.h Pages: 1 -->
<svg width="487pt" height="170pt"
 viewBox="0.00 0.00 486.50 170.00" xmlns="http://www.w3.org/2000/svg" xmlns:xlink="http://www.w3.org/1999/xlink">
<g id="graph0" class="graph" transform="scale(1 1) rotate(0) translate(4 166)">
<title>include/engine/public/gameObject.h</title>
<!-- Node1 -->
<g id="Node000001" class="node">
<title>Node1</title>
<g id="a_Node000001"><a xlink:title=" ">
<polygon fill="#999999" stroke="#666666" points="319.5,-162 199.5,-162 199.5,-132 319.5,-132 319.5,-162"/>
<text text-anchor="start" x="207.5" y="-150" font-family="Helvetica,sans-Serif" font-size="10.00">include/engine/public</text>
<text text-anchor="middle" x="259.5" y="-139" font-family="Helvetica,sans-Serif" font-size="10.00">/gameObject.h</text>
</a>
</g>
</g>
<!-- Node2 -->
<g id="Node000002" class="node">
<title>Node2</title>
<g id="a_Node000002"><a xlink:href="renderer_8h.html" target="_top" xlink:title=" ">
<polygon fill="white" stroke="#666666" points="161,-96 42,-96 42,-66 161,-66 161,-96"/>
<text text-anchor="start" x="50" y="-84" font-family="Helvetica,sans-Serif" font-size="10.00">include/engine/core</text>
<text text-anchor="middle" x="101.5" y="-73" font-family="Helvetica,sans-Serif" font-size="10.00">/rendering/renderer.h</text>
</a>
</g>
</g>
<!-- Node1&#45;&gt;Node2 -->
<g id="edge1_Node000001_Node000002" class="edge">
<title>Node1&#45;&gt;Node2</title>
<g id="a_edge1_Node000001_Node000002"><a xlink:title=" ">
<path fill="none" stroke="#63b8ff" d="M215.53,-128.19C190.44,-118.02 159.43,-105.47 136.09,-96.01"/>
<polygon fill="#63b8ff" stroke="#63b8ff" points="214.24,-131.44 224.83,-131.95 216.87,-124.96 214.24,-131.44"/>
</a>
</g>
</g>
<!-- Node4 -->
<g id="Node000004" class="node">
<title>Node4</title>
<g id="a_Node000004"><a xlink:href="behavior_8h.html" target="_top" xlink:title=" ">
<polygon fill="white" stroke="#666666" points="319.5,-96 199.5,-96 199.5,-66 319.5,-66 319.5,-96"/>
<text text-anchor="start" x="207.5" y="-84" font-family="Helvetica,sans-Serif" font-size="10.00">include/engine/public</text>
<text text-anchor="middle" x="259.5" y="-73" font-family="Helvetica,sans-Serif" font-size="10.00">/behavior.h</text>
</a>
</g>
</g>
<!-- Node1&#45;&gt;Node4 -->
<g id="edge3_Node000001_Node000004" class="edge">
<title>Node1&#45;&gt;Node4</title>
<g id="a_edge3_Node000001_Node000004"><a xlink:title=" ">
<path fill="none" stroke="#63b8ff" d="M259.5,-121.54C259.5,-112.96 259.5,-103.61 259.5,-96.16"/>
<polygon fill="#63b8ff" stroke="#63b8ff" points="256,-121.8 259.5,-131.8 263,-121.8 256,-121.8"/>
</a>
</g>
</g>
<!-- Node6 -->
<g id="Node000006" class="node">
<title>Node6</title>
<g id="a_Node000006"><a xlink:href="scene_8h.html" target="_top" xlink:title=" ">
<polygon fill="white" stroke="#666666" points="467.5,-96 347.5,-96 347.5,-66 467.5,-66 467.5,-96"/>
<text text-anchor="start" x="355.5" y="-84" font-family="Helvetica,sans-Serif" font-size="10.00">include/engine/public</text>
<text text-anchor="middle" x="407.5" y="-73" font-family="Helvetica,sans-Serif" font-size="10.00">/scene.h</text>
</a>
</g>
</g>
<!-- Node1&#45;&gt;Node6 -->
<g id="edge5_Node000001_Node000006" class="edge">
<title>Node1&#45;&gt;Node6</title>
<g id="a_edge5_Node000001_Node000006"><a xlink:title=" ">
<path fill="none" stroke="#63b8ff" d="M301.31,-127.92C324.7,-117.8 353.42,-105.38 375.1,-96.01"/>
<polygon fill="#63b8ff" stroke="#63b8ff" points="299.77,-124.77 291.98,-131.95 302.55,-131.2 299.77,-124.77"/>
</a>
</g>
</g>
<!-- Node3 -->
<g id="Node000003" class="node">
<title>Node3</title>
<g id="a_Node000003"><a xlink:href="rendering_service_8h.html" target="_top" xlink:title=" ">
<polygon fill="white" stroke="#666666" points="161,-30 0,-30 0,0 161,0 161,-30"/>
<text text-anchor="start" x="8" y="-18" font-family="Helvetica,sans-Serif" font-size="10.00">include/engine/core</text>
<text text-anchor="middle" x="80.5" y="-7" font-family="Helvetica,sans-Serif" font-size="10.00">/rendering/renderingService.h</text>
</a>
</g>
</g>
<!-- Node2&#45;&gt;Node3 -->
<g id="edge2_Node000002_Node000003" class="edge">
<title>Node2&#45;&gt;Node3</title>
<g id="a_edge2_Node000002_Node000003"><a xlink:title=" ">
<path fill="none" stroke="#63b8ff" d="M93.66,-56.11C90.8,-47.38 87.65,-37.78 85.15,-30.16"/>
<polygon fill="#63b8ff" stroke="#63b8ff" points="90.4,-57.39 96.84,-65.8 97.05,-55.2 90.4,-57.39"/>
</a>
</g>
</g>
<!-- Node5 -->
<g id="Node000005" class="node">
<title>Node5</title>
<g id="a_Node000005"><a xlink:href="behaviorscript_8h.html" target="_top" xlink:title=" ">
<polygon fill="white" stroke="#666666" points="340,-30 179,-30 179,0 340,0 340,-30"/>
<text text-anchor="start" x="187" y="-18" font-family="Helvetica,sans-Serif" font-size="10.00">include/engine/public</text>
<text text-anchor="middle" x="259.5" y="-7" font-family="Helvetica,sans-Serif" font-size="10.00">/components/behaviorscript.h</text>
</a>
</g>
</g>
<!-- Node4&#45;&gt;Node5 -->
<g id="edge4_Node000004_Node000005" class="edge">
<title>Node4&#45;&gt;Node5</title>
<g id="a_edge4_Node000004_Node000005"><a xlink:title=" ">
<path fill="none" stroke="#63b8ff" d="M259.5,-55.54C259.5,-46.96 259.5,-37.61 259.5,-30.16"/>
<polygon fill="#63b8ff" stroke="#63b8ff" points="256,-55.8 259.5,-65.8 263,-55.8 256,-55.8"/>
</a>
</g>
</g>
<!-- Node7 -->
<g id="Node000007" class="node">
<title>Node7</title>
<g id="a_Node000007"><a xlink:href="scene__service_8h.html" target="_top" xlink:title=" ">
<polygon fill="white" stroke="#666666" points="478.5,-30 358.5,-30 358.5,0 478.5,0 478.5,-30"/>
<text text-anchor="start" x="366.5" y="-18" font-family="Helvetica,sans-Serif" font-size="10.00">include/engine/public</text>
<text text-anchor="middle" x="418.5" y="-7" font-family="Helvetica,sans-Serif" font-size="10.00">/scene_service.h</text>
</a>
</g>
</g>
<!-- Node6&#45;&gt;Node7 -->
<g id="edge6_Node000006_Node000007" class="edge">
<title>Node6&#45;&gt;Node7</title>
<g id="a_edge6_Node000006_Node000007"><a xlink:title=" ">
<path fill="none" stroke="#63b8ff" d="M411.66,-55.83C413.14,-47.17 414.77,-37.7 416.07,-30.16"/>
<polygon fill="#63b8ff" stroke="#63b8ff" points="408.19,-55.35 409.94,-65.8 415.08,-56.53 408.19,-55.35"/>
</a>
</g>
</g>
</g>
</svg>
