<?xml version="1.0" encoding="UTF-8" standalone="no"?>
<!DOCTYPE svg PUBLIC "-//W3C//DTD SVG 1.1//EN"
 "http://www.w3.org/Graphics/SVG/1.1/DTD/svg11.dtd">
<!-- Generated by graphviz version 2.43.0 (0)
 -->
<!-- Title: include/engine/public/gameObject.h Pages: 1 -->
<svg width="1312pt" height="335pt"
 viewBox="0.00 0.00 1312.37 335.00" xmlns="http://www.w3.org/2000/svg" xmlns:xlink="http://www.w3.org/1999/xlink">
<g id="graph0" class="graph" transform="scale(1 1) rotate(0) translate(4 331)">
<title>include/engine/public/gameObject.h</title>
<!-- Node1 -->
<g id="Node000001" class="node">
<title>Node1</title>
<g id="a_Node000001"><a xlink:title=" ">
<polygon fill="#999999" stroke="#666666" points="914.37,-327 794.37,-327 794.37,-297 914.37,-297 914.37,-327"/>
<text text-anchor="start" x="802.37" y="-315" font-family="Helvetica,sans-Serif" font-size="10.00">include/engine/public</text>
<text text-anchor="middle" x="854.37" y="-304" font-family="Helvetica,sans-Serif" font-size="10.00">/gameObject.h</text>
</a>
</g>
</g>
<!-- Node2 -->
<g id="Node000002" class="node">
<title>Node2</title>
<g id="a_Node000002"><a xlink:href="renderer_8h.html" target="_top" xlink:title=" ">
<polygon fill="white" stroke="#666666" points="652.87,-261 533.87,-261 533.87,-231 652.87,-231 652.87,-261"/>
<text text-anchor="start" x="541.87" y="-249" font-family="Helvetica,sans-Serif" font-size="10.00">include/engine/core</text>
<text text-anchor="middle" x="593.37" y="-238" font-family="Helvetica,sans-Serif" font-size="10.00">/rendering/renderer.h</text>
</a>
</g>
</g>
<!-- Node1&#45;&gt;Node2 -->
<g id="edge1_Node000001_Node000002" class="edge">
<title>Node1&#45;&gt;Node2</title>
<g id="a_edge1_Node000001_Node000002"><a xlink:title=" ">
<path fill="none" stroke="#63b8ff" d="M787.15,-294.52C744.82,-284.14 690.77,-270.88 650.51,-261.01"/>
<polygon fill="#63b8ff" stroke="#63b8ff" points="786.54,-297.97 797.09,-296.95 788.21,-291.17 786.54,-297.97"/>
</a>
</g>
</g>
<!-- Node11 -->
<g id="Node000011" class="node">
<title>Node11</title>
<g id="a_Node000011"><a xlink:href="behavior_8h.html" target="_top" xlink:title=" ">
<polygon fill="white" stroke="#666666" points="831.37,-261 711.37,-261 711.37,-231 831.37,-231 831.37,-261"/>
<text text-anchor="start" x="719.37" y="-249" font-family="Helvetica,sans-Serif" font-size="10.00">include/engine/public</text>
<text text-anchor="middle" x="771.37" y="-238" font-family="Helvetica,sans-Serif" font-size="10.00">/behavior.h</text>
</a>
</g>
</g>
<!-- Node1&#45;&gt;Node11 -->
<g id="edge13_Node000001_Node000011" class="edge">
<title>Node1&#45;&gt;Node11</title>
<g id="a_edge13_Node000001_Node000011"><a xlink:title=" ">
<path fill="none" stroke="#63b8ff" d="M827.75,-290.48C815.35,-280.91 800.9,-269.77 789.74,-261.16"/>
<polygon fill="#63b8ff" stroke="#63b8ff" points="825.89,-293.46 835.95,-296.8 830.16,-287.92 825.89,-293.46"/>
</a>
</g>
</g>
<!-- Node13 -->
<g id="Node000013" class="node">
<title>Node13</title>
<g id="a_Node000013"><a xlink:href="ui__object_8h.html" target="_top" xlink:title=" ">
<polygon fill="white" stroke="#666666" points="1005.37,-261 857.37,-261 857.37,-231 1005.37,-231 1005.37,-261"/>
<text text-anchor="start" x="865.37" y="-249" font-family="Helvetica,sans-Serif" font-size="10.00">include/engine/public</text>
<text text-anchor="middle" x="931.37" y="-238" font-family="Helvetica,sans-Serif" font-size="10.00">/components/ui/ui_object.h</text>
</a>
</g>
</g>
<!-- Node1&#45;&gt;Node13 -->
<g id="edge15_Node000001_Node000013" class="edge">
<title>Node1&#45;&gt;Node13</title>
<g id="a_edge15_Node000001_Node000013"><a xlink:title=" ">
<path fill="none" stroke="#63b8ff" d="M879.39,-290.2C890.82,-280.7 904.07,-269.69 914.33,-261.16"/>
<polygon fill="#63b8ff" stroke="#63b8ff" points="876.91,-287.71 871.46,-296.8 881.38,-293.1 876.91,-287.71"/>
</a>
</g>
</g>
<!-- Node16 -->
<g id="Node000016" class="node">
<title>Node16</title>
<g id="a_Node000016"><a xlink:href="scene_8h.html" target="_top" xlink:title=" ">
<polygon fill="white" stroke="#666666" points="1223.37,-261 1103.37,-261 1103.37,-231 1223.37,-231 1223.37,-261"/>
<text text-anchor="start" x="1111.37" y="-249" font-family="Helvetica,sans-Serif" font-size="10.00">include/engine/public</text>
<text text-anchor="middle" x="1163.37" y="-238" font-family="Helvetica,sans-Serif" font-size="10.00">/scene.h</text>
</a>
</g>
</g>
<!-- Node1&#45;&gt;Node16 -->
<g id="edge18_Node000001_Node000016" class="edge">
<title>Node1&#45;&gt;Node16</title>
<g id="a_edge18_Node000001_Node000016"><a xlink:title=" ">
<path fill="none" stroke="#63b8ff" d="M924.5,-296.47C978.38,-285.32 1052,-270.07 1103.21,-259.46"/>
<polygon fill="#63b8ff" stroke="#63b8ff" points="923.76,-293.05 914.68,-298.51 925.18,-299.91 923.76,-293.05"/>
</a>
</g>
</g>
<!-- Node3 -->
<g id="Node000003" class="node">
<title>Node3</title>
<g id="a_Node000003"><a xlink:href="rendering_service_8h.html" target="_top" xlink:title=" ">
<polygon fill="white" stroke="#666666" points="735.87,-35.5 574.87,-35.5 574.87,-5.5 735.87,-5.5 735.87,-35.5"/>
<text text-anchor="start" x="582.87" y="-23.5" font-family="Helvetica,sans-Serif" font-size="10.00">include/engine/core</text>
<text text-anchor="middle" x="655.37" y="-12.5" font-family="Helvetica,sans-Serif" font-size="10.00">/rendering/renderingService.h</text>
</a>
</g>
</g>
<!-- Node2&#45;&gt;Node3 -->
<g id="edge2_Node000002_Node000003" class="edge">
<title>Node2&#45;&gt;Node3</title>
<g id="a_edge2_Node000002_Node000003"><a xlink:title=" ">
<path fill="none" stroke="#63b8ff" d="M602.47,-221.22C611.91,-195.92 626.62,-154.57 636.37,-118 644.06,-89.13 650.11,-54.63 653.18,-35.7"/>
<polygon fill="#63b8ff" stroke="#63b8ff" points="599.14,-220.12 598.9,-230.71 605.7,-222.59 599.14,-220.12"/>
</a>
</g>
</g>
<!-- Node4 -->
<g id="Node000004" class="node">
<title>Node4</title>
<g id="a_Node000004"><a xlink:href="irendering__strategy_8h.html" target="_top" xlink:title=" ">
<polygon fill="white" stroke="#666666" points="366.37,-195 244.37,-195 244.37,-154 366.37,-154 366.37,-195"/>
<text text-anchor="start" x="252.37" y="-183" font-family="Helvetica,sans-Serif" font-size="10.00">include/engine/core</text>
<text text-anchor="start" x="252.37" y="-172" font-family="Helvetica,sans-Serif" font-size="10.00">/rendering/strategies</text>
<text text-anchor="middle" x="305.37" y="-161" font-family="Helvetica,sans-Serif" font-size="10.00">/irendering_strategy.h</text>
</a>
</g>
</g>
<!-- Node2&#45;&gt;Node4 -->
<g id="edge3_Node000002_Node000004" class="edge">
<title>Node2&#45;&gt;Node4</title>
<g id="a_edge3_Node000002_Node000004"><a xlink:title=" ">
<path fill="none" stroke="#63b8ff" d="M525.06,-228.52C476.93,-216.9 413.02,-201.48 366.54,-190.26"/>
<polygon fill="#63b8ff" stroke="#63b8ff" points="524.54,-231.99 535.09,-230.94 526.19,-225.19 524.54,-231.99"/>
</a>
</g>
</g>
<!-- Node7 -->
<g id="Node000007" class="node">
<title>Node7</title>
<g id="a_Node000007"><a xlink:href="irendering__strategy__factory_8h.html" target="_top" xlink:title=" ">
<polygon fill="white" stroke="#666666" points="627.37,-118 465.37,-118 465.37,-77 627.37,-77 627.37,-118"/>
<text text-anchor="start" x="473.37" y="-106" font-family="Helvetica,sans-Serif" font-size="10.00">include/engine/core</text>
<text text-anchor="start" x="473.37" y="-95" font-family="Helvetica,sans-Serif" font-size="10.00">/rendering/strategies</text>
<text text-anchor="middle" x="546.37" y="-84" font-family="Helvetica,sans-Serif" font-size="10.00">/irendering_strategy_factory.h</text>
</a>
</g>
</g>
<!-- Node2&#45;&gt;Node7 -->
<g id="edge12_Node000002_Node000007" class="edge">
<title>Node2&#45;&gt;Node7</title>
<g id="a_edge12_Node000002_Node000007"><a xlink:title=" ">
<path fill="none" stroke="#63b8ff" d="M585.78,-221.34C576.59,-192.71 561.3,-145.03 552.71,-118.27"/>
<polygon fill="#63b8ff" stroke="#63b8ff" points="582.47,-222.5 588.86,-230.95 589.14,-220.36 582.47,-222.5"/>
</a>
</g>
</g>
<!-- Node5 -->
<g id="Node000005" class="node">
<title>Node5</title>
<g id="a_Node000005"><a xlink:href="renderable_8h.html" target="_top" xlink:title=" ">
<polygon fill="white" stroke="#666666" points="446.87,-112.5 315.87,-112.5 315.87,-82.5 446.87,-82.5 446.87,-112.5"/>
<text text-anchor="start" x="323.87" y="-100.5" font-family="Helvetica,sans-Serif" font-size="10.00">include/engine/core</text>
<text text-anchor="middle" x="381.37" y="-89.5" font-family="Helvetica,sans-Serif" font-size="10.00">/rendering/renderable.h</text>
</a>
</g>
</g>
<!-- Node4&#45;&gt;Node5 -->
<g id="edge4_Node000004_Node000005" class="edge">
<title>Node4&#45;&gt;Node5</title>
<g id="a_edge4_Node000004_Node000005"><a xlink:title=" ">
<path fill="none" stroke="#63b8ff" d="M332.66,-146.57C344.19,-135.18 357.16,-122.39 366.81,-112.86"/>
<polygon fill="#63b8ff" stroke="#63b8ff" points="329.99,-144.28 325.33,-153.79 334.91,-149.26 329.99,-144.28"/>
</a>
</g>
</g>
<!-- Node6 -->
<g id="Node000006" class="node">
<title>Node6</title>
<g id="a_Node000006"><a xlink:href="sprite_8h.html" target="_top" xlink:title=" ">
<polygon fill="white" stroke="#666666" points="222.37,-35.5 102.37,-35.5 102.37,-5.5 222.37,-5.5 222.37,-35.5"/>
<text text-anchor="start" x="110.37" y="-23.5" font-family="Helvetica,sans-Serif" font-size="10.00">include/engine/public</text>
<text text-anchor="middle" x="162.37" y="-12.5" font-family="Helvetica,sans-Serif" font-size="10.00">/components/sprite.h</text>
</a>
</g>
</g>
<!-- Node4&#45;&gt;Node6 -->
<g id="edge11_Node000004_Node000006" class="edge">
<title>Node4&#45;&gt;Node6</title>
<g id="a_edge11_Node000004_Node000006"><a xlink:title=" ">
<path fill="none" stroke="#63b8ff" d="M233.8,-170.33C155.23,-165.16 36.47,-151.84 8.37,-118 -3.27,-103.98 -2.11,-91.91 8.37,-77 29.52,-46.89 68.68,-33.04 102.22,-26.7"/>
<polygon fill="#63b8ff" stroke="#63b8ff" points="233.92,-173.84 244.12,-170.97 234.36,-166.85 233.92,-173.84"/>
</a>
</g>
</g>
<!-- Node4&#45;&gt;Node7 -->
<g id="edge6_Node000004_Node000007" class="edge">
<title>Node4&#45;&gt;Node7</title>
<g id="a_edge6_Node000004_Node000007"><a xlink:title=" ">
<path fill="none" stroke="#63b8ff" d="M376.37,-151.41C410.38,-140.82 450.76,-128.25 483.63,-118.03"/>
<polygon fill="#63b8ff" stroke="#63b8ff" points="375,-148.16 366.49,-154.48 377.08,-154.85 375,-148.16"/>
</a>
</g>
</g>
<!-- Node9 -->
<g id="Node000009" class="node">
<title>Node9</title>
<g id="a_Node000009"><a xlink:href="sdl__gui__strategy_8h.html" target="_top" xlink:title=" ">
<polygon fill="white" stroke="#666666" points="142.87,-118 17.87,-118 17.87,-77 142.87,-77 142.87,-118"/>
<text text-anchor="start" x="25.87" y="-106" font-family="Helvetica,sans-Serif" font-size="10.00">include/engine/core</text>
<text text-anchor="start" x="25.87" y="-95" font-family="Helvetica,sans-Serif" font-size="10.00">/rendering/strategies</text>
<text text-anchor="middle" x="80.37" y="-84" font-family="Helvetica,sans-Serif" font-size="10.00">/sdl/sdl_gui_strategy.h</text>
</a>
</g>
</g>
<!-- Node4&#45;&gt;Node9 -->
<g id="edge9_Node000004_Node000009" class="edge">
<title>Node4&#45;&gt;Node9</title>
<g id="a_edge9_Node000004_Node000009"><a xlink:title=" ">
<path fill="none" stroke="#63b8ff" d="M237.3,-150.81C205.94,-140.36 169.1,-128.08 138.99,-118.04"/>
<polygon fill="#63b8ff" stroke="#63b8ff" points="236.24,-154.15 246.84,-153.99 238.46,-147.51 236.24,-154.15"/>
</a>
</g>
</g>
<!-- Node10 -->
<g id="Node000010" class="node">
<title>Node10</title>
<g id="a_Node000010"><a xlink:href="sdl__sprite__strategy_8h.html" target="_top" xlink:title=" ">
<polygon fill="white" stroke="#666666" points="297.87,-118 160.87,-118 160.87,-77 297.87,-77 297.87,-118"/>
<text text-anchor="start" x="168.87" y="-106" font-family="Helvetica,sans-Serif" font-size="10.00">include/engine/core</text>
<text text-anchor="start" x="168.87" y="-95" font-family="Helvetica,sans-Serif" font-size="10.00">/rendering/strategies</text>
<text text-anchor="middle" x="229.37" y="-84" font-family="Helvetica,sans-Serif" font-size="10.00">/sdl/sdl_sprite_strategy.h</text>
</a>
</g>
</g>
<!-- Node4&#45;&gt;Node10 -->
<g id="edge10_Node000004_Node000010" class="edge">
<title>Node4&#45;&gt;Node10</title>
<g id="a_edge10_Node000004_Node000010"><a xlink:title=" ">
<path fill="none" stroke="#63b8ff" d="M278.02,-146.51C268.49,-137.11 258,-126.76 249.2,-118.07"/>
<polygon fill="#63b8ff" stroke="#63b8ff" points="275.82,-149.26 285.4,-153.79 280.74,-144.28 275.82,-149.26"/>
</a>
</g>
</g>
<!-- Node5&#45;&gt;Node6 -->
<g id="edge5_Node000005_Node000006" class="edge">
<title>Node5&#45;&gt;Node6</title>
<g id="a_edge5_Node000005_Node000006"><a xlink:title=" ">
<path fill="none" stroke="#63b8ff" d="M330.92,-79.22C292.26,-65.99 239.59,-47.95 203.47,-35.58"/>
<polygon fill="#63b8ff" stroke="#63b8ff" points="329.84,-82.55 340.43,-82.48 332.1,-75.93 329.84,-82.55"/>
</a>
</g>
</g>
<!-- Node7&#45;&gt;Node3 -->
<g id="edge7_Node000007_Node000003" class="edge">
<title>Node7&#45;&gt;Node3</title>
<g id="a_edge7_Node000007_Node000003"><a xlink:title=" ">
<path fill="none" stroke="#63b8ff" d="M583.41,-71.01C600.55,-59.22 620.27,-45.65 634.73,-35.7"/>
<polygon fill="#63b8ff" stroke="#63b8ff" points="580.97,-68.44 574.72,-76.99 584.94,-74.21 580.97,-68.44"/>
</a>
</g>
</g>
<!-- Node8 -->
<g id="Node000008" class="node">
<title>Node8</title>
<g id="a_Node000008"><a xlink:href="sdl__strategy__factory_8h.html" target="_top" xlink:title=" ">
<polygon fill="white" stroke="#666666" points="556.37,-41 412.37,-41 412.37,0 556.37,0 556.37,-41"/>
<text text-anchor="start" x="420.37" y="-29" font-family="Helvetica,sans-Serif" font-size="10.00">include/engine/core</text>
<text text-anchor="start" x="420.37" y="-18" font-family="Helvetica,sans-Serif" font-size="10.00">/rendering/strategies</text>
<text text-anchor="middle" x="484.37" y="-7" font-family="Helvetica,sans-Serif" font-size="10.00">/sdl/sdl_strategy_factory.h</text>
</a>
</g>
</g>
<!-- Node7&#45;&gt;Node8 -->
<g id="edge8_Node000007_Node000008" class="edge">
<title>Node7&#45;&gt;Node8</title>
<g id="a_edge8_Node000007_Node000008"><a xlink:title=" ">
<path fill="none" stroke="#63b8ff" d="M523.59,-68.95C515.95,-59.7 507.58,-49.58 500.55,-41.07"/>
<polygon fill="#63b8ff" stroke="#63b8ff" points="521.01,-71.32 530.08,-76.79 526.4,-66.86 521.01,-71.32"/>
</a>
</g>
</g>
<!-- Node12 -->
<g id="Node000012" class="node">
<title>Node12</title>
<g id="a_Node000012"><a xlink:href="behaviorscript_8h.html" target="_top" xlink:title=" ">
<polygon fill="white" stroke="#666666" points="844.87,-189.5 683.87,-189.5 683.87,-159.5 844.87,-159.5 844.87,-189.5"/>
<text text-anchor="start" x="691.87" y="-177.5" font-family="Helvetica,sans-Serif" font-size="10.00">include/engine/public</text>
<text text-anchor="middle" x="764.37" y="-166.5" font-family="Helvetica,sans-Serif" font-size="10.00">/components/behaviorscript.h</text>
</a>
</g>
</g>
<!-- Node11&#45;&gt;Node12 -->
<g id="edge14_Node000011_Node000012" class="edge">
<title>Node11&#45;&gt;Node12</title>
<g id="a_edge14_Node000011_Node000012"><a xlink:title=" ">
<path fill="none" stroke="#63b8ff" d="M768.92,-220.75C767.87,-210.31 766.68,-198.49 765.78,-189.54"/>
<polygon fill="#63b8ff" stroke="#63b8ff" points="765.47,-221.34 769.95,-230.94 772.43,-220.64 765.47,-221.34"/>
</a>
</g>
</g>
<!-- Node14 -->
<g id="Node000014" class="node">
<title>Node14</title>
<g id="a_Node000014"><a xlink:href="ui__button_8h.html" target="_top" xlink:title=" ">
<polygon fill="white" stroke="#666666" points="1166.87,-189.5 1017.87,-189.5 1017.87,-159.5 1166.87,-159.5 1166.87,-189.5"/>
<text text-anchor="start" x="1025.87" y="-177.5" font-family="Helvetica,sans-Serif" font-size="10.00">include/engine/public</text>
<text text-anchor="middle" x="1092.37" y="-166.5" font-family="Helvetica,sans-Serif" font-size="10.00">/components/ui/ui_button.h</text>
</a>
</g>
</g>
<!-- Node13&#45;&gt;Node14 -->
<g id="edge16_Node000013_Node000014" class="edge">
<title>Node13&#45;&gt;Node14</title>
<g id="a_edge16_Node000013_Node000014"><a xlink:title=" ">
<path fill="none" stroke="#63b8ff" d="M973.16,-226.96C1000.19,-215.29 1034.86,-200.32 1059.83,-189.54"/>
<polygon fill="#63b8ff" stroke="#63b8ff" points="971.74,-223.76 963.95,-230.94 974.52,-230.19 971.74,-223.76"/>
</a>
</g>
</g>
<!-- Node15 -->
<g id="Node000015" class="node">
<title>Node15</title>
<g id="a_Node000015"><a xlink:href="ui__text_8h.html" target="_top" xlink:title=" ">
<polygon fill="white" stroke="#666666" points="999.87,-189.5 862.87,-189.5 862.87,-159.5 999.87,-159.5 999.87,-189.5"/>
<text text-anchor="start" x="870.87" y="-177.5" font-family="Helvetica,sans-Serif" font-size="10.00">include/engine/public</text>
<text text-anchor="middle" x="931.37" y="-166.5" font-family="Helvetica,sans-Serif" font-size="10.00">/components/ui/ui_text.h</text>
</a>
</g>
</g>
<!-- Node13&#45;&gt;Node15 -->
<g id="edge17_Node000013_Node000015" class="edge">
<title>Node13&#45;&gt;Node15</title>
<g id="a_edge17_Node000013_Node000015"><a xlink:title=" ">
<path fill="none" stroke="#63b8ff" d="M931.37,-220.75C931.37,-210.31 931.37,-198.49 931.37,-189.54"/>
<polygon fill="#63b8ff" stroke="#63b8ff" points="927.87,-220.94 931.37,-230.94 934.87,-220.94 927.87,-220.94"/>
</a>
</g>
</g>
<!-- Node17 -->
<g id="Node000017" class="node">
<title>Node17</title>
<g id="a_Node000017"><a xlink:href="scene__service_8h.html" target="_top" xlink:title=" ">
<polygon fill="white" stroke="#666666" points="1304.37,-189.5 1184.37,-189.5 1184.37,-159.5 1304.37,-159.5 1304.37,-189.5"/>
<text text-anchor="start" x="1192.37" y="-177.5" font-family="Helvetica,sans-Serif" font-size="10.00">include/engine/public</text>
<text text-anchor="middle" x="1244.37" y="-166.5" font-family="Helvetica,sans-Serif" font-size="10.00">/scene_service.h</text>
</a>
</g>
</g>
<!-- Node16&#45;&gt;Node17 -->
<g id="edge19_Node000016_Node000017" class="edge">
<title>Node16&#45;&gt;Node17</title>
<g id="a_edge19_Node000016_Node000017"><a xlink:title=" ">
<path fill="none" stroke="#63b8ff" d="M1187.48,-224.31C1200.56,-213.09 1216.37,-199.52 1228,-189.54"/>
<polygon fill="#63b8ff" stroke="#63b8ff" points="1185.07,-221.77 1179.76,-230.94 1189.63,-227.08 1185.07,-221.77"/>
</a>
</g>
</g>
</g>
</svg>
