<?xml version="1.0" encoding="UTF-8" standalone="no"?>
<!DOCTYPE svg PUBLIC "-//W3C//DTD SVG 1.1//EN"
 "http://www.w3.org/Graphics/SVG/1.1/DTD/svg11.dtd">
<!-- Generated by graphviz version 2.43.0 (0)
 -->
<!-- Title: include/engine/audio/sound/instance/generic_sound_instance.h Pages: 1 -->
<svg width="266pt" height="302pt"
 viewBox="0.00 0.00 266.00 302.00" xmlns="http://www.w3.org/2000/svg" xmlns:xlink="http://www.w3.org/1999/xlink">
<g id="graph0" class="graph" transform="scale(1 1) rotate(0) translate(4 298)">
<title>include/engine/audio/sound/instance/generic_sound_instance.h</title>
<!-- Node1 -->
<g id="Node000001" class="node">
<title>Node1</title>
<g id="a_Node000001"><a xlink:title=" ">
<polygon fill="#999999" stroke="#666666" points="258,-294 126,-294 126,-253 258,-253 258,-294"/>
<text text-anchor="start" x="134" y="-282" font-family="Helvetica,sans-Serif" font-size="10.00">include/engine/audio</text>
<text text-anchor="start" x="134" y="-271" font-family="Helvetica,sans-Serif" font-size="10.00">/sound/instance/generic</text>
<text text-anchor="middle" x="192" y="-260" font-family="Helvetica,sans-Serif" font-size="10.00">_sound_instance.h</text>
</a>
</g>
</g>
<!-- Node2 -->
<g id="Node000002" class="node">
<title>Node2</title>
<g id="a_Node000002"><a xlink:title=" ">
<polygon fill="#e0e0e0" stroke="#999999" points="253,-79.5 195,-79.5 195,-60.5 253,-60.5 253,-79.5"/>
<text text-anchor="middle" x="224" y="-67.5" font-family="Helvetica,sans-Serif" font-size="10.00">memory</text>
</a>
</g>
</g>
<!-- Node1&#45;&gt;Node2 -->
<g id="edge1_Node000001_Node000002" class="edge">
<title>Node1&#45;&gt;Node2</title>
<g id="a_edge1_Node000001_Node000002"><a xlink:title=" ">
<path fill="none" stroke="#63b8ff" d="M206.66,-252.79C213.32,-242.65 220.48,-229.76 224,-217 236.2,-172.76 231.14,-118.07 227.14,-89.84"/>
<polygon fill="#63b8ff" stroke="#63b8ff" points="230.57,-89.12 225.59,-79.77 223.65,-90.19 230.57,-89.12"/>
</a>
</g>
</g>
<!-- Node3 -->
<g id="Node000003" class="node">
<title>Node3</title>
<g id="a_Node000003"><a xlink:href="sound__instance_8h.html" target="_top" xlink:title=" ">
<polygon fill="white" stroke="#666666" points="215.5,-217 66.5,-217 66.5,-187 215.5,-187 215.5,-217"/>
<text text-anchor="start" x="74.5" y="-205" font-family="Helvetica,sans-Serif" font-size="10.00">engine/audio/sound</text>
<text text-anchor="middle" x="141" y="-194" font-family="Helvetica,sans-Serif" font-size="10.00">/instance/sound_instance.h</text>
</a>
</g>
</g>
<!-- Node1&#45;&gt;Node3 -->
<g id="edge2_Node000001_Node000003" class="edge">
<title>Node1&#45;&gt;Node3</title>
<g id="a_edge2_Node000001_Node000003"><a xlink:title=" ">
<path fill="none" stroke="#63b8ff" d="M177.52,-252.77C171.25,-244.22 163.87,-234.17 157.4,-225.35"/>
<polygon fill="#63b8ff" stroke="#63b8ff" points="160.04,-223.03 151.3,-217.04 154.4,-227.17 160.04,-223.03"/>
</a>
</g>
</g>
<!-- Node3&#45;&gt;Node2 -->
<g id="edge3_Node000003_Node000002" class="edge">
<title>Node3&#45;&gt;Node2</title>
<g id="a_edge3_Node000003_Node000002"><a xlink:title=" ">
<path fill="none" stroke="#63b8ff" d="M166.33,-186.98C179.75,-178.3 195.41,-165.95 205,-151 216.9,-132.45 221.36,-107.18 223.02,-90.04"/>
<polygon fill="#63b8ff" stroke="#63b8ff" points="226.54,-89.89 223.78,-79.66 219.56,-89.37 226.54,-89.89"/>
</a>
</g>
</g>
<!-- Node4 -->
<g id="Node000004" class="node">
<title>Node4</title>
<g id="a_Node000004"><a xlink:title=" ">
<polygon fill="#e0e0e0" stroke="#999999" points="44,-79.5 0,-79.5 0,-60.5 44,-60.5 44,-79.5"/>
<text text-anchor="middle" x="22" y="-67.5" font-family="Helvetica,sans-Serif" font-size="10.00">string</text>
</a>
</g>
</g>
<!-- Node3&#45;&gt;Node4 -->
<g id="edge4_Node000003_Node000004" class="edge">
<title>Node3&#45;&gt;Node4</title>
<g id="a_edge4_Node000003_Node000004"><a xlink:title=" ">
<path fill="none" stroke="#63b8ff" d="M89.03,-186.98C69.97,-179.32 49.92,-167.85 37,-151 23.53,-133.43 20.93,-107.4 20.94,-89.85"/>
<polygon fill="#63b8ff" stroke="#63b8ff" points="24.44,-89.81 21.23,-79.71 17.44,-89.6 24.44,-89.81"/>
</a>
</g>
</g>
<!-- Node5 -->
<g id="Node000005" class="node">
<title>Node5</title>
<g id="a_Node000005"><a xlink:href="sound__resource_8h.html" target="_top" xlink:title=" ">
<polygon fill="white" stroke="#666666" points="196,-151 46,-151 46,-121 196,-121 196,-151"/>
<text text-anchor="start" x="54" y="-139" font-family="Helvetica,sans-Serif" font-size="10.00">engine/audio/sound</text>
<text text-anchor="middle" x="121" y="-128" font-family="Helvetica,sans-Serif" font-size="10.00">/resource/sound_resource.h</text>
</a>
</g>
</g>
<!-- Node3&#45;&gt;Node5 -->
<g id="edge5_Node000003_Node000005" class="edge">
<title>Node3&#45;&gt;Node5</title>
<g id="a_edge5_Node000003_Node000005"><a xlink:title=" ">
<path fill="none" stroke="#63b8ff" d="M136.56,-186.8C134.18,-179.17 131.18,-169.57 128.45,-160.84"/>
<polygon fill="#63b8ff" stroke="#63b8ff" points="131.75,-159.66 125.43,-151.16 125.07,-161.75 131.75,-159.66"/>
</a>
</g>
</g>
<!-- Node5&#45;&gt;Node2 -->
<g id="edge6_Node000005_Node000002" class="edge">
<title>Node5&#45;&gt;Node2</title>
<g id="a_edge6_Node000005_Node000002"><a xlink:title=" ">
<path fill="none" stroke="#63b8ff" d="M143.6,-120.95C160.79,-110.27 184.33,-95.65 201.49,-84.98"/>
<polygon fill="#63b8ff" stroke="#63b8ff" points="203.65,-87.77 210.29,-79.52 199.95,-81.82 203.65,-87.77"/>
</a>
</g>
</g>
<!-- Node5&#45;&gt;Node4 -->
<g id="edge7_Node000005_Node000004" class="edge">
<title>Node5&#45;&gt;Node4</title>
<g id="a_edge7_Node000005_Node000004"><a xlink:title=" ">
<path fill="none" stroke="#63b8ff" d="M99.03,-120.8C82.59,-110.17 60.21,-95.7 43.81,-85.1"/>
<polygon fill="#63b8ff" stroke="#63b8ff" points="45.69,-82.15 35.39,-79.66 41.89,-88.03 45.69,-82.15"/>
</a>
</g>
</g>
<!-- Node6 -->
<g id="Node000006" class="node">
<title>Node6</title>
<g id="a_Node000006"><a xlink:href="sound__type_8h.html" target="_top" xlink:title=" ">
<polygon fill="white" stroke="#666666" points="177,-85 65,-85 65,-55 177,-55 177,-85"/>
<text text-anchor="start" x="73" y="-73" font-family="Helvetica,sans-Serif" font-size="10.00">engine/audio/sound</text>
<text text-anchor="middle" x="121" y="-62" font-family="Helvetica,sans-Serif" font-size="10.00">/sound_type.h</text>
</a>
</g>
</g>
<!-- Node5&#45;&gt;Node6 -->
<g id="edge8_Node000005_Node000006" class="edge">
<title>Node5&#45;&gt;Node6</title>
<g id="a_edge8_Node000005_Node000006"><a xlink:title=" ">
<path fill="none" stroke="#63b8ff" d="M121,-120.8C121,-113.34 121,-103.99 121,-95.41"/>
<polygon fill="#63b8ff" stroke="#63b8ff" points="124.5,-95.16 121,-85.16 117.5,-95.16 124.5,-95.16"/>
</a>
</g>
</g>
<!-- Node7 -->
<g id="Node000007" class="node">
<title>Node7</title>
<g id="a_Node000007"><a xlink:title=" ">
<polygon fill="#e0e0e0" stroke="#999999" points="146,-19 96,-19 96,0 146,0 146,-19"/>
<text text-anchor="middle" x="121" y="-7" font-family="Helvetica,sans-Serif" font-size="10.00">cstdint</text>
</a>
</g>
</g>
<!-- Node6&#45;&gt;Node7 -->
<g id="edge9_Node000006_Node000007" class="edge">
<title>Node6&#45;&gt;Node7</title>
<g id="a_edge9_Node000006_Node000007"><a xlink:title=" ">
<path fill="none" stroke="#63b8ff" d="M121,-54.84C121,-47.21 121,-37.7 121,-29.45"/>
<polygon fill="#63b8ff" stroke="#63b8ff" points="124.5,-29.27 121,-19.27 117.5,-29.27 124.5,-29.27"/>
</a>
</g>
</g>
</g>
</svg>
