<?xml version="1.0" encoding="UTF-8" standalone="no"?>
<!DOCTYPE svg PUBLIC "-//W3C//DTD SVG 1.1//EN"
 "http://www.w3.org/Graphics/SVG/1.1/DTD/svg11.dtd">
<!-- Generated by graphviz version 2.43.0 (0)
 -->
<!-- Title: include/engine/input/i_input_provider.h Pages: 1 -->
<svg width="695pt" height="280pt"
 viewBox="0.00 0.00 695.00 280.00" xmlns="http://www.w3.org/2000/svg" xmlns:xlink="http://www.w3.org/1999/xlink">
<g id="graph0" class="graph" transform="scale(1 1) rotate(0) translate(4 276)">
<title>include/engine/input/i_input_provider.h</title>
<!-- Node1 -->
<g id="Node000001" class="node">
<title>Node1</title>
<g id="a_Node000001"><a xlink:title=" ">
<polygon fill="#999999" stroke="#666666" points="353.5,-272 237.5,-272 237.5,-242 353.5,-242 353.5,-272"/>
<text text-anchor="start" x="245.5" y="-260" font-family="Helvetica,sans-Serif" font-size="10.00">include/engine/input</text>
<text text-anchor="middle" x="295.5" y="-249" font-family="Helvetica,sans-Serif" font-size="10.00">/i_input_provider.h</text>
</a>
</g>
</g>
<!-- Node2 -->
<g id="Node000002" class="node">
<title>Node2</title>
<g id="a_Node000002"><a xlink:title=" ">
<polygon fill="#e0e0e0" stroke="#999999" points="53,-206 0,-206 0,-187 53,-187 53,-206"/>
<text text-anchor="middle" x="26.5" y="-194" font-family="Helvetica,sans-Serif" font-size="10.00">cstddef</text>
</a>
</g>
</g>
<!-- Node1&#45;&gt;Node2 -->
<g id="edge1_Node000001_Node000002" class="edge">
<title>Node1&#45;&gt;Node2</title>
<g id="a_edge1_Node000001_Node000002"><a xlink:title=" ">
<path fill="none" stroke="#63b8ff" d="M237.5,-243.9C192.62,-234.45 128.65,-220.82 63.3,-206.14"/>
<polygon fill="#63b8ff" stroke="#63b8ff" points="63.75,-202.66 53.22,-203.87 62.21,-209.49 63.75,-202.66"/>
</a>
</g>
</g>
<!-- Node3 -->
<g id="Node000003" class="node">
<title>Node3</title>
<g id="a_Node000003"><a xlink:title=" ">
<polygon fill="#e0e0e0" stroke="#999999" points="129.5,-206 71.5,-206 71.5,-187 129.5,-187 129.5,-206"/>
<text text-anchor="middle" x="100.5" y="-194" font-family="Helvetica,sans-Serif" font-size="10.00">memory</text>
</a>
</g>
</g>
<!-- Node1&#45;&gt;Node3 -->
<g id="edge2_Node000001_Node000003" class="edge">
<title>Node1&#45;&gt;Node3</title>
<g id="a_edge2_Node000001_Node000003"><a xlink:title=" ">
<path fill="none" stroke="#63b8ff" d="M248.79,-241.99C215.14,-231.89 170.29,-218.44 138.75,-208.98"/>
<polygon fill="#63b8ff" stroke="#63b8ff" points="139.6,-205.57 129.01,-206.05 137.58,-212.28 139.6,-205.57"/>
</a>
</g>
</g>
<!-- Node4 -->
<g id="Node000004" class="node">
<title>Node4</title>
<g id="a_Node000004"><a xlink:title=" ">
<polygon fill="#e0e0e0" stroke="#999999" points="203.5,-206 147.5,-206 147.5,-187 203.5,-187 203.5,-206"/>
<text text-anchor="middle" x="175.5" y="-194" font-family="Helvetica,sans-Serif" font-size="10.00">optional</text>
</a>
</g>
</g>
<!-- Node1&#45;&gt;Node4 -->
<g id="edge3_Node000001_Node000004" class="edge">
<title>Node1&#45;&gt;Node4</title>
<g id="a_edge3_Node000001_Node000004"><a xlink:title=" ">
<path fill="none" stroke="#63b8ff" d="M266.76,-241.99C247.18,-232.45 221.45,-219.9 202.3,-210.57"/>
<polygon fill="#63b8ff" stroke="#63b8ff" points="203.74,-207.38 193.22,-206.14 200.68,-213.67 203.74,-207.38"/>
</a>
</g>
</g>
<!-- Node5 -->
<g id="Node000005" class="node">
<title>Node5</title>
<g id="a_Node000005"><a xlink:title=" ">
<polygon fill="#e0e0e0" stroke="#999999" points="267,-206 222,-206 222,-187 267,-187 267,-206"/>
<text text-anchor="middle" x="244.5" y="-194" font-family="Helvetica,sans-Serif" font-size="10.00">utility</text>
</a>
</g>
</g>
<!-- Node1&#45;&gt;Node5 -->
<g id="edge4_Node000001_Node000005" class="edge">
<title>Node1&#45;&gt;Node5</title>
<g id="a_edge4_Node000001_Node000005"><a xlink:title=" ">
<path fill="none" stroke="#63b8ff" d="M283.15,-241.84C275.83,-233.43 266.5,-222.74 258.85,-213.96"/>
<polygon fill="#63b8ff" stroke="#63b8ff" points="261.35,-211.5 252.14,-206.27 256.08,-216.1 261.35,-211.5"/>
</a>
</g>
</g>
<!-- Node6 -->
<g id="Node000006" class="node">
<title>Node6</title>
<g id="a_Node000006"><a xlink:href="i__input_8h.html" target="_top" xlink:title=" ">
<polygon fill="white" stroke="#666666" points="445.5,-206 323.5,-206 323.5,-187 445.5,-187 445.5,-206"/>
<text text-anchor="middle" x="384.5" y="-194" font-family="Helvetica,sans-Serif" font-size="10.00">engine/input/i_input.h</text>
</a>
</g>
</g>
<!-- Node1&#45;&gt;Node6 -->
<g id="edge5_Node000001_Node000006" class="edge">
<title>Node1&#45;&gt;Node6</title>
<g id="a_edge5_Node000001_Node000006"><a xlink:title=" ">
<path fill="none" stroke="#63b8ff" d="M317.04,-241.84C330.97,-232.68 349.03,-220.82 362.95,-211.66"/>
<polygon fill="#63b8ff" stroke="#63b8ff" points="364.99,-214.51 371.42,-206.09 361.15,-208.66 364.99,-214.51"/>
</a>
</g>
</g>
<!-- Node8 -->
<g id="Node000008" class="node">
<title>Node8</title>
<g id="a_Node000008"><a xlink:href="key__code_8h.html" target="_top" xlink:title=" ">
<polygon fill="white" stroke="#666666" points="245,-145.5 110,-145.5 110,-126.5 245,-126.5 245,-145.5"/>
<text text-anchor="middle" x="177.5" y="-133.5" font-family="Helvetica,sans-Serif" font-size="10.00">engine/input/key_code.h</text>
</a>
</g>
</g>
<!-- Node1&#45;&gt;Node8 -->
<g id="edge15_Node000001_Node000008" class="edge">
<title>Node1&#45;&gt;Node8</title>
<g id="a_edge15_Node000001_Node000008"><a xlink:title=" ">
<path fill="none" stroke="#63b8ff" d="M294.66,-241.78C293.07,-226.65 288.53,-202.77 275.5,-187 260.76,-169.16 238.02,-157 218.15,-149.15"/>
<polygon fill="#63b8ff" stroke="#63b8ff" points="219.27,-145.83 208.68,-145.64 216.83,-152.4 219.27,-145.83"/>
</a>
</g>
</g>
<!-- Node11 -->
<g id="Node000011" class="node">
<title>Node11</title>
<g id="a_Node000011"><a xlink:href="mouse__state_8h.html" target="_top" xlink:title=" ">
<polygon fill="white" stroke="#666666" points="570,-151 457,-151 457,-121 570,-121 570,-151"/>
<text text-anchor="start" x="465" y="-139" font-family="Helvetica,sans-Serif" font-size="10.00">engine/input/mouse</text>
<text text-anchor="middle" x="513.5" y="-128" font-family="Helvetica,sans-Serif" font-size="10.00">_state.h</text>
</a>
</g>
</g>
<!-- Node1&#45;&gt;Node11 -->
<g id="edge17_Node000001_Node000011" class="edge">
<title>Node1&#45;&gt;Node11</title>
<g id="a_edge17_Node000001_Node000011"><a xlink:title=" ">
<path fill="none" stroke="#63b8ff" d="M353.71,-245.88C385.4,-238.43 424.2,-226.02 454.5,-206 472.75,-193.94 488.55,-174.68 499.19,-159.57"/>
<polygon fill="#63b8ff" stroke="#63b8ff" points="502.13,-161.48 504.84,-151.24 496.33,-157.55 502.13,-161.48"/>
</a>
</g>
</g>
<!-- Node12 -->
<g id="Node000012" class="node">
<title>Node12</title>
<g id="a_Node000012"><a xlink:href="mouse__button_8h.html" target="_top" xlink:title=" ">
<polygon fill="white" stroke="#666666" points="568,-85 455,-85 455,-55 568,-55 568,-85"/>
<text text-anchor="start" x="463" y="-73" font-family="Helvetica,sans-Serif" font-size="10.00">engine/input/mouse</text>
<text text-anchor="middle" x="511.5" y="-62" font-family="Helvetica,sans-Serif" font-size="10.00">_button.h</text>
</a>
</g>
</g>
<!-- Node1&#45;&gt;Node12 -->
<g id="edge16_Node000001_Node000012" class="edge">
<title>Node1&#45;&gt;Node12</title>
<g id="a_edge16_Node000001_Node000012"><a xlink:title=" ">
<path fill="none" stroke="#63b8ff" d="M353.51,-254.55C422.4,-249.23 533.75,-228.38 579.5,-151 586.29,-139.52 585.52,-132.9 579.5,-121 573.17,-108.5 562.09,-98.36 550.68,-90.56"/>
<polygon fill="#63b8ff" stroke="#63b8ff" points="552.29,-87.44 541.96,-85.06 548.55,-93.36 552.29,-87.44"/>
</a>
</g>
</g>
<!-- Node13 -->
<g id="Node000013" class="node">
<title>Node13</title>
<g id="a_Node000013"><a xlink:href="point_8h.html" target="_top" xlink:title=" ">
<polygon fill="white" stroke="#666666" points="687,-85 586,-85 586,-55 687,-55 687,-85"/>
<text text-anchor="start" x="594" y="-73" font-family="Helvetica,sans-Serif" font-size="10.00">engine/public/util</text>
<text text-anchor="middle" x="636.5" y="-62" font-family="Helvetica,sans-Serif" font-size="10.00">/point.h</text>
</a>
</g>
</g>
<!-- Node1&#45;&gt;Node13 -->
<g id="edge18_Node000001_Node000013" class="edge">
<title>Node1&#45;&gt;Node13</title>
<g id="a_edge18_Node000001_Node000013"><a xlink:title=" ">
<path fill="none" stroke="#63b8ff" d="M353.51,-256.09C408.51,-253.67 491.55,-243.34 552.5,-206 593.95,-180.61 618.12,-126.27 629.17,-94.82"/>
<polygon fill="#63b8ff" stroke="#63b8ff" points="632.57,-95.71 632.42,-85.11 625.93,-93.48 632.57,-95.71"/>
</a>
</g>
</g>
<!-- Node7 -->
<g id="Node000007" class="node">
<title>Node7</title>
<g id="a_Node000007"><a xlink:title=" ">
<polygon fill="#e0e0e0" stroke="#999999" points="364.5,-79.5 326.5,-79.5 326.5,-60.5 364.5,-60.5 364.5,-79.5"/>
<text text-anchor="middle" x="345.5" y="-67.5" font-family="Helvetica,sans-Serif" font-size="10.00">map</text>
</a>
</g>
</g>
<!-- Node6&#45;&gt;Node7 -->
<g id="edge6_Node000006_Node000007" class="edge">
<title>Node6&#45;&gt;Node7</title>
<g id="a_edge6_Node000006_Node000007"><a xlink:title=" ">
<path fill="none" stroke="#63b8ff" d="M345.19,-186.92C325.79,-180.48 304.09,-169.49 292.5,-151 278.02,-127.91 303.7,-101.65 324.12,-85.71"/>
<polygon fill="#63b8ff" stroke="#63b8ff" points="326.47,-88.32 332.42,-79.55 322.3,-82.7 326.47,-88.32"/>
</a>
</g>
</g>
<!-- Node6&#45;&gt;Node8 -->
<g id="edge7_Node000006_Node000008" class="edge">
<title>Node6&#45;&gt;Node8</title>
<g id="a_edge7_Node000006_Node000008"><a xlink:title=" ">
<path fill="none" stroke="#63b8ff" d="M354.4,-186.99C318.22,-176.77 257.39,-159.58 217.34,-148.26"/>
<polygon fill="#63b8ff" stroke="#63b8ff" points="218.21,-144.87 207.64,-145.52 216.31,-151.6 218.21,-144.87"/>
</a>
</g>
</g>
<!-- Node10 -->
<g id="Node000010" class="node">
<title>Node10</title>
<g id="a_Node000010"><a xlink:href="key__state_8h.html" target="_top" xlink:title=" ">
<polygon fill="white" stroke="#666666" points="439,-145.5 302,-145.5 302,-126.5 439,-126.5 439,-145.5"/>
<text text-anchor="middle" x="370.5" y="-133.5" font-family="Helvetica,sans-Serif" font-size="10.00">engine/input/key_state.h</text>
</a>
</g>
</g>
<!-- Node6&#45;&gt;Node10 -->
<g id="edge9_Node000006_Node000010" class="edge">
<title>Node6&#45;&gt;Node10</title>
<g id="a_edge9_Node000006_Node000010"><a xlink:title=" ">
<path fill="none" stroke="#63b8ff" d="M382.43,-186.87C380.47,-178.66 377.45,-166.04 374.94,-155.55"/>
<polygon fill="#63b8ff" stroke="#63b8ff" points="378.31,-154.58 372.57,-145.67 371.5,-156.21 378.31,-154.58"/>
</a>
</g>
</g>
<!-- Node6&#45;&gt;Node11 -->
<g id="edge10_Node000006_Node000011" class="edge">
<title>Node6&#45;&gt;Node11</title>
<g id="a_edge10_Node000006_Node000011"><a xlink:title=" ">
<path fill="none" stroke="#63b8ff" d="M403.26,-186.99C421.44,-178.75 449.6,-165.98 472.92,-155.4"/>
<polygon fill="#63b8ff" stroke="#63b8ff" points="474.57,-158.5 482.24,-151.18 471.68,-152.12 474.57,-158.5"/>
</a>
</g>
</g>
<!-- Node9 -->
<g id="Node000009" class="node">
<title>Node9</title>
<g id="a_Node000009"><a xlink:title=" ">
<polygon fill="#e0e0e0" stroke="#999999" points="441.5,-19 391.5,-19 391.5,0 441.5,0 441.5,-19"/>
<text text-anchor="middle" x="416.5" y="-7" font-family="Helvetica,sans-Serif" font-size="10.00">cstdint</text>
</a>
</g>
</g>
<!-- Node8&#45;&gt;Node9 -->
<g id="edge8_Node000008_Node000009" class="edge">
<title>Node8&#45;&gt;Node9</title>
<g id="a_edge8_Node000008_Node000009"><a xlink:title=" ">
<path fill="none" stroke="#63b8ff" d="M191.56,-126.36C216.51,-111.17 270.35,-79 317.5,-55 340.2,-43.45 366.53,-31.69 386.32,-23.16"/>
<polygon fill="#63b8ff" stroke="#63b8ff" points="387.93,-26.28 395.75,-19.13 385.18,-19.85 387.93,-26.28"/>
</a>
</g>
</g>
<!-- Node11&#45;&gt;Node7 -->
<g id="edge11_Node000011_Node000007" class="edge">
<title>Node11&#45;&gt;Node7</title>
<g id="a_edge11_Node000011_Node000007"><a xlink:title=" ">
<path fill="none" stroke="#63b8ff" d="M476.63,-120.95C445.83,-109.22 402.54,-92.73 374.26,-81.96"/>
<polygon fill="#63b8ff" stroke="#63b8ff" points="375.16,-78.55 364.57,-78.26 372.67,-85.09 375.16,-78.55"/>
</a>
</g>
</g>
<!-- Node11&#45;&gt;Node12 -->
<g id="edge12_Node000011_Node000012" class="edge">
<title>Node11&#45;&gt;Node12</title>
<g id="a_edge12_Node000011_Node000012"><a xlink:title=" ">
<path fill="none" stroke="#63b8ff" d="M513.06,-120.8C512.82,-113.34 512.53,-103.99 512.26,-95.41"/>
<polygon fill="#63b8ff" stroke="#63b8ff" points="515.75,-95.05 511.94,-85.16 508.76,-95.27 515.75,-95.05"/>
</a>
</g>
</g>
<!-- Node11&#45;&gt;Node13 -->
<g id="edge14_Node000011_Node000013" class="edge">
<title>Node11&#45;&gt;Node13</title>
<g id="a_edge14_Node000011_Node000013"><a xlink:title=" ">
<path fill="none" stroke="#63b8ff" d="M540.49,-120.95C558.12,-111.78 581.33,-99.71 600.52,-89.72"/>
<polygon fill="#63b8ff" stroke="#63b8ff" points="602.31,-92.73 609.57,-85.01 599.08,-86.52 602.31,-92.73"/>
</a>
</g>
</g>
<!-- Node12&#45;&gt;Node9 -->
<g id="edge13_Node000012_Node000009" class="edge">
<title>Node12&#45;&gt;Node9</title>
<g id="a_edge13_Node000012_Node000009"><a xlink:title=" ">
<path fill="none" stroke="#63b8ff" d="M488.5,-54.84C473.5,-45.6 454,-33.59 439.07,-24.4"/>
<polygon fill="#63b8ff" stroke="#63b8ff" points="440.81,-21.36 430.46,-19.09 437.14,-27.32 440.81,-21.36"/>
</a>
</g>
</g>
</g>
</svg>
