<?xml version="1.0" encoding="UTF-8" standalone="no"?>
<!DOCTYPE svg PUBLIC "-//W3C//DTD SVG 1.1//EN"
 "http://www.w3.org/Graphics/SVG/1.1/DTD/svg11.dtd">
<!-- Generated by graphviz version 2.43.0 (0)
 -->
<!-- Title: include/engine/input/i_input.h Pages: 1 -->
<svg width="468pt" height="225pt"
 viewBox="0.00 0.00 468.00 225.00" xmlns="http://www.w3.org/2000/svg" xmlns:xlink="http://www.w3.org/1999/xlink">
<g id="graph0" class="graph" transform="scale(1 1) rotate(0) translate(4 221)">
<title>include/engine/input/i_input.h</title>
<!-- Node1 -->
<g id="Node000001" class="node">
<title>Node1</title>
<g id="a_Node000001"><a xlink:title=" ">
<polygon fill="#999999" stroke="#666666" points="269.5,-217 153.5,-217 153.5,-187 269.5,-187 269.5,-217"/>
<text text-anchor="start" x="161.5" y="-205" font-family="Helvetica,sans-Serif" font-size="10.00">include/engine/input</text>
<text text-anchor="middle" x="211.5" y="-194" font-family="Helvetica,sans-Serif" font-size="10.00">/i_input.h</text>
</a>
</g>
</g>
<!-- Node2 -->
<g id="Node000002" class="node">
<title>Node2</title>
<g id="a_Node000002"><a xlink:title=" ">
<polygon fill="#e0e0e0" stroke="#999999" points="187.5,-79.5 149.5,-79.5 149.5,-60.5 187.5,-60.5 187.5,-79.5"/>
<text text-anchor="middle" x="168.5" y="-67.5" font-family="Helvetica,sans-Serif" font-size="10.00">map</text>
</a>
</g>
</g>
<!-- Node1&#45;&gt;Node2 -->
<g id="edge1_Node000001_Node000002" class="edge">
<title>Node1&#45;&gt;Node2</title>
<g id="a_edge1_Node000001_Node000002"><a xlink:title=" ">
<path fill="none" stroke="#63b8ff" d="M201.44,-186.79C195.06,-177.13 187.17,-163.82 182.5,-151 175.13,-130.76 171.57,-106.19 169.9,-89.67"/>
<polygon fill="#63b8ff" stroke="#63b8ff" points="173.38,-89.32 169.02,-79.66 166.41,-89.93 173.38,-89.32"/>
</a>
</g>
</g>
<!-- Node3 -->
<g id="Node000003" class="node">
<title>Node3</title>
<g id="a_Node000003"><a xlink:href="key__code_8h.html" target="_top" xlink:title=" ">
<polygon fill="white" stroke="#666666" points="135,-145.5 0,-145.5 0,-126.5 135,-126.5 135,-145.5"/>
<text text-anchor="middle" x="67.5" y="-133.5" font-family="Helvetica,sans-Serif" font-size="10.00">engine/input/key_code.h</text>
</a>
</g>
</g>
<!-- Node1&#45;&gt;Node3 -->
<g id="edge2_Node000001_Node000003" class="edge">
<title>Node1&#45;&gt;Node3</title>
<g id="a_edge2_Node000001_Node000003"><a xlink:title=" ">
<path fill="none" stroke="#63b8ff" d="M179.9,-186.95C154.87,-175.83 120.2,-160.42 96.01,-149.67"/>
<polygon fill="#63b8ff" stroke="#63b8ff" points="97.22,-146.38 86.66,-145.52 94.38,-152.78 97.22,-146.38"/>
</a>
</g>
</g>
<!-- Node5 -->
<g id="Node000005" class="node">
<title>Node5</title>
<g id="a_Node000005"><a xlink:href="key__state_8h.html" target="_top" xlink:title=" ">
<polygon fill="white" stroke="#666666" points="329,-145.5 192,-145.5 192,-126.5 329,-126.5 329,-145.5"/>
<text text-anchor="middle" x="260.5" y="-133.5" font-family="Helvetica,sans-Serif" font-size="10.00">engine/input/key_state.h</text>
</a>
</g>
</g>
<!-- Node1&#45;&gt;Node5 -->
<g id="edge4_Node000001_Node000005" class="edge">
<title>Node1&#45;&gt;Node5</title>
<g id="a_edge4_Node000001_Node000005"><a xlink:title=" ">
<path fill="none" stroke="#63b8ff" d="M222.37,-186.8C229.79,-177.11 239.64,-164.24 247.48,-154.01"/>
<polygon fill="#63b8ff" stroke="#63b8ff" points="250.43,-155.91 253.73,-145.84 244.87,-151.66 250.43,-155.91"/>
</a>
</g>
</g>
<!-- Node6 -->
<g id="Node000006" class="node">
<title>Node6</title>
<g id="a_Node000006"><a xlink:href="mouse__state_8h.html" target="_top" xlink:title=" ">
<polygon fill="white" stroke="#666666" points="460,-151 347,-151 347,-121 460,-121 460,-151"/>
<text text-anchor="start" x="355" y="-139" font-family="Helvetica,sans-Serif" font-size="10.00">engine/input/mouse</text>
<text text-anchor="middle" x="403.5" y="-128" font-family="Helvetica,sans-Serif" font-size="10.00">_state.h</text>
</a>
</g>
</g>
<!-- Node1&#45;&gt;Node6 -->
<g id="edge5_Node000001_Node000006" class="edge">
<title>Node1&#45;&gt;Node6</title>
<g id="a_edge5_Node000001_Node000006"><a xlink:title=" ">
<path fill="none" stroke="#63b8ff" d="M253.64,-186.95C282.52,-177.33 321.03,-164.49 351.77,-154.24"/>
<polygon fill="#63b8ff" stroke="#63b8ff" points="353.08,-157.5 361.46,-151.01 350.87,-150.85 353.08,-157.5"/>
</a>
</g>
</g>
<!-- Node4 -->
<g id="Node000004" class="node">
<title>Node4</title>
<g id="a_Node000004"><a xlink:title=" ">
<polygon fill="#e0e0e0" stroke="#999999" points="203.5,-19 153.5,-19 153.5,0 203.5,0 203.5,-19"/>
<text text-anchor="middle" x="178.5" y="-7" font-family="Helvetica,sans-Serif" font-size="10.00">cstdint</text>
</a>
</g>
</g>
<!-- Node3&#45;&gt;Node4 -->
<g id="edge3_Node000003_Node000004" class="edge">
<title>Node3&#45;&gt;Node4</title>
<g id="a_edge3_Node000003_Node000004"><a xlink:title=" ">
<path fill="none" stroke="#63b8ff" d="M75.13,-126.44C93.43,-105.92 140.05,-53.62 163.93,-26.84"/>
<polygon fill="#63b8ff" stroke="#63b8ff" points="166.77,-28.91 170.82,-19.12 161.55,-24.25 166.77,-28.91"/>
</a>
</g>
</g>
<!-- Node6&#45;&gt;Node2 -->
<g id="edge6_Node000006_Node000002" class="edge">
<title>Node6&#45;&gt;Node2</title>
<g id="a_edge6_Node000006_Node000002"><a xlink:title=" ">
<path fill="none" stroke="#63b8ff" d="M346.69,-121.85C297.08,-110.19 228.98,-93.69 202.5,-85 200.83,-84.45 199.13,-83.86 197.42,-83.24"/>
<polygon fill="#63b8ff" stroke="#63b8ff" points="198.32,-79.84 187.73,-79.49 195.8,-86.37 198.32,-79.84"/>
</a>
</g>
</g>
<!-- Node7 -->
<g id="Node000007" class="node">
<title>Node7</title>
<g id="a_Node000007"><a xlink:href="mouse__button_8h.html" target="_top" xlink:title=" ">
<polygon fill="white" stroke="#666666" points="325,-85 212,-85 212,-55 325,-55 325,-85"/>
<text text-anchor="start" x="220" y="-73" font-family="Helvetica,sans-Serif" font-size="10.00">engine/input/mouse</text>
<text text-anchor="middle" x="268.5" y="-62" font-family="Helvetica,sans-Serif" font-size="10.00">_button.h</text>
</a>
</g>
</g>
<!-- Node6&#45;&gt;Node7 -->
<g id="edge7_Node000006_Node000007" class="edge">
<title>Node6&#45;&gt;Node7</title>
<g id="a_edge7_Node000006_Node000007"><a xlink:title=" ">
<path fill="none" stroke="#63b8ff" d="M373.87,-120.95C354.27,-111.66 328.36,-99.38 307.13,-89.32"/>
<polygon fill="#63b8ff" stroke="#63b8ff" points="308.59,-86.13 298.06,-85.01 305.59,-92.46 308.59,-86.13"/>
</a>
</g>
</g>
<!-- Node8 -->
<g id="Node000008" class="node">
<title>Node8</title>
<g id="a_Node000008"><a xlink:href="point_8h.html" target="_top" xlink:title=" ">
<polygon fill="white" stroke="#666666" points="454,-85 353,-85 353,-55 454,-55 454,-85"/>
<text text-anchor="start" x="361" y="-73" font-family="Helvetica,sans-Serif" font-size="10.00">engine/public/util</text>
<text text-anchor="middle" x="403.5" y="-62" font-family="Helvetica,sans-Serif" font-size="10.00">/point.h</text>
</a>
</g>
</g>
<!-- Node6&#45;&gt;Node8 -->
<g id="edge9_Node000006_Node000008" class="edge">
<title>Node6&#45;&gt;Node8</title>
<g id="a_edge9_Node000006_Node000008"><a xlink:title=" ">
<path fill="none" stroke="#63b8ff" d="M403.5,-120.8C403.5,-113.34 403.5,-103.99 403.5,-95.41"/>
<polygon fill="#63b8ff" stroke="#63b8ff" points="407,-95.16 403.5,-85.16 400,-95.16 407,-95.16"/>
</a>
</g>
</g>
<!-- Node7&#45;&gt;Node4 -->
<g id="edge8_Node000007_Node000004" class="edge">
<title>Node7&#45;&gt;Node4</title>
<g id="a_edge8_Node000007_Node000004"><a xlink:title=" ">
<path fill="none" stroke="#63b8ff" d="M246.71,-54.84C232.63,-45.68 214.37,-33.82 200.29,-24.66"/>
<polygon fill="#63b8ff" stroke="#63b8ff" points="202.01,-21.61 191.72,-19.09 198.2,-27.48 202.01,-21.61"/>
</a>
</g>
</g>
</g>
</svg>
