<?xml version="1.0" encoding="UTF-8" standalone="no"?>
<!DOCTYPE svg PUBLIC "-//W3C//DTD SVG 1.1//EN"
 "http://www.w3.org/Graphics/SVG/1.1/DTD/svg11.dtd">
<!-- Generated by graphviz version 2.43.0 (0)
 -->
<!-- Title: include/engine/core/iEngineService.h Pages: 1 -->
<svg width="736pt" height="170pt"
 viewBox="0.00 0.00 736.00 170.00" xmlns="http://www.w3.org/2000/svg" xmlns:xlink="http://www.w3.org/1999/xlink">
<g id="graph0" class="graph" transform="scale(1 1) rotate(0) translate(4 166)">
<title>include/engine/core/iEngineService.h</title>
<!-- Node1 -->
<g id="Node000001" class="node">
<title>Node1</title>
<g id="a_Node000001"><a xlink:title=" ">
<polygon fill="#999999" stroke="#666666" points="454,-162 342,-162 342,-132 454,-132 454,-162"/>
<text text-anchor="start" x="350" y="-150" font-family="Helvetica,sans-Serif" font-size="10.00">include/engine/core</text>
<text text-anchor="middle" x="398" y="-139" font-family="Helvetica,sans-Serif" font-size="10.00">/iEngineService.h</text>
</a>
</g>
</g>
<!-- Node2 -->
<g id="Node000002" class="node">
<title>Node2</title>
<g id="a_Node000002"><a xlink:href="audio__service_8h.html" target="_top" xlink:title=" ">
<polygon fill="white" stroke="#666666" points="118,-96 0,-96 0,-66 118,-66 118,-96"/>
<text text-anchor="start" x="8" y="-84" font-family="Helvetica,sans-Serif" font-size="10.00">include/engine/audio</text>
<text text-anchor="middle" x="59" y="-73" font-family="Helvetica,sans-Serif" font-size="10.00">/audio_service.h</text>
</a>
</g>
</g>
<!-- Node1&#45;&gt;Node2 -->
<g id="edge1_Node000001_Node000002" class="edge">
<title>Node1&#45;&gt;Node2</title>
<g id="a_edge1_Node000001_Node000002"><a xlink:title=" ">
<path fill="none" stroke="#63b8ff" d="M331.93,-134.2C277.01,-124.3 196.84,-109.63 127,-96 124.16,-95.45 121.26,-94.87 118.32,-94.29"/>
<polygon fill="#63b8ff" stroke="#63b8ff" points="331.42,-137.67 341.88,-135.99 332.66,-130.78 331.42,-137.67"/>
</a>
</g>
</g>
<!-- Node3 -->
<g id="Node000003" class="node">
<title>Node3</title>
<g id="a_Node000003"><a xlink:href="asset_service_8h.html" target="_top" xlink:title=" ">
<polygon fill="white" stroke="#666666" points="276,-96 136,-96 136,-66 276,-66 276,-96"/>
<text text-anchor="start" x="144" y="-84" font-family="Helvetica,sans-Serif" font-size="10.00">include/engine/core</text>
<text text-anchor="middle" x="206" y="-73" font-family="Helvetica,sans-Serif" font-size="10.00">/rendering/assetService.h</text>
</a>
</g>
</g>
<!-- Node1&#45;&gt;Node3 -->
<g id="edge2_Node000001_Node000003" class="edge">
<title>Node1&#45;&gt;Node3</title>
<g id="a_edge2_Node000001_Node000003"><a xlink:title=" ">
<path fill="none" stroke="#63b8ff" d="M346.17,-128.72C315.41,-118.47 276.9,-105.63 248.04,-96.01"/>
<polygon fill="#63b8ff" stroke="#63b8ff" points="345.27,-132.11 355.86,-131.95 347.48,-125.47 345.27,-132.11"/>
</a>
</g>
</g>
<!-- Node4 -->
<g id="Node000004" class="node">
<title>Node4</title>
<g id="a_Node000004"><a xlink:href="renderer_8h.html" target="_top" xlink:title=" ">
<polygon fill="white" stroke="#666666" points="413.5,-96 294.5,-96 294.5,-66 413.5,-66 413.5,-96"/>
<text text-anchor="start" x="302.5" y="-84" font-family="Helvetica,sans-Serif" font-size="10.00">include/engine/core</text>
<text text-anchor="middle" x="354" y="-73" font-family="Helvetica,sans-Serif" font-size="10.00">/rendering/renderer.h</text>
</a>
</g>
</g>
<!-- Node1&#45;&gt;Node4 -->
<g id="edge3_Node000001_Node000004" class="edge">
<title>Node1&#45;&gt;Node4</title>
<g id="a_edge3_Node000001_Node000004"><a xlink:title=" ">
<path fill="none" stroke="#63b8ff" d="M382.55,-123.53C376.29,-114.43 369.26,-104.19 363.74,-96.16"/>
<polygon fill="#63b8ff" stroke="#63b8ff" points="379.69,-125.54 388.23,-131.8 385.45,-121.57 379.69,-125.54"/>
</a>
</g>
</g>
<!-- Node5 -->
<g id="Node000005" class="node">
<title>Node5</title>
<g id="a_Node000005"><a xlink:href="rendering_service_8h.html" target="_top" xlink:title=" ">
<polygon fill="white" stroke="#666666" points="443.5,-30 282.5,-30 282.5,0 443.5,0 443.5,-30"/>
<text text-anchor="start" x="290.5" y="-18" font-family="Helvetica,sans-Serif" font-size="10.00">include/engine/core</text>
<text text-anchor="middle" x="363" y="-7" font-family="Helvetica,sans-Serif" font-size="10.00">/rendering/renderingService.h</text>
</a>
</g>
</g>
<!-- Node1&#45;&gt;Node5 -->
<g id="edge5_Node000001_Node000005" class="edge">
<title>Node1&#45;&gt;Node5</title>
<g id="a_edge5_Node000001_Node000005"><a xlink:title=" ">
<path fill="none" stroke="#63b8ff" d="M413.98,-123.13C423.3,-106.78 431.67,-84.51 423,-66 415.87,-50.77 401.57,-38.57 388.72,-30.03"/>
<polygon fill="#63b8ff" stroke="#63b8ff" points="410.79,-121.64 408.51,-131.99 416.74,-125.32 410.79,-121.64"/>
</a>
</g>
</g>
<!-- Node6 -->
<g id="Node000006" class="node">
<title>Node6</title>
<g id="a_Node000006"><a xlink:href="service_container_8h.html" target="_top" xlink:title=" ">
<polygon fill="white" stroke="#666666" points="582,-96 470,-96 470,-66 582,-66 582,-96"/>
<text text-anchor="start" x="478" y="-84" font-family="Helvetica,sans-Serif" font-size="10.00">include/engine/core</text>
<text text-anchor="middle" x="526" y="-73" font-family="Helvetica,sans-Serif" font-size="10.00">/serviceContainer.h</text>
</a>
</g>
</g>
<!-- Node1&#45;&gt;Node6 -->
<g id="edge6_Node000001_Node000006" class="edge">
<title>Node1&#45;&gt;Node6</title>
<g id="a_edge6_Node000001_Node000006"><a xlink:title=" ">
<path fill="none" stroke="#63b8ff" d="M435.24,-127.38C455.27,-117.36 479.57,-105.22 497.98,-96.01"/>
<polygon fill="#63b8ff" stroke="#63b8ff" points="433.47,-124.35 426.09,-131.95 436.6,-130.61 433.47,-124.35"/>
</a>
</g>
</g>
<!-- Node8 -->
<g id="Node000008" class="node">
<title>Node8</title>
<g id="a_Node000008"><a xlink:href="physics__service_8h.html" target="_top" xlink:title=" ">
<polygon fill="white" stroke="#666666" points="728,-96 600,-96 600,-66 728,-66 728,-96"/>
<text text-anchor="start" x="608" y="-84" font-family="Helvetica,sans-Serif" font-size="10.00">include/engine/physics</text>
<text text-anchor="middle" x="664" y="-73" font-family="Helvetica,sans-Serif" font-size="10.00">/physics_service.h</text>
</a>
</g>
</g>
<!-- Node1&#45;&gt;Node8 -->
<g id="edge8_Node000001_Node000008" class="edge">
<title>Node1&#45;&gt;Node8</title>
<g id="a_edge8_Node000001_Node000008"><a xlink:title=" ">
<path fill="none" stroke="#63b8ff" d="M464,-130.12C507.47,-119.66 563.87,-106.09 605.69,-96.03"/>
<polygon fill="#63b8ff" stroke="#63b8ff" points="462.99,-126.76 454.09,-132.51 464.63,-133.57 462.99,-126.76"/>
</a>
</g>
</g>
<!-- Node4&#45;&gt;Node5 -->
<g id="edge4_Node000004_Node000005" class="edge">
<title>Node4&#45;&gt;Node5</title>
<g id="a_edge4_Node000004_Node000005"><a xlink:title=" ">
<path fill="none" stroke="#63b8ff" d="M357.4,-55.83C358.62,-47.17 359.95,-37.7 361.01,-30.16"/>
<polygon fill="#63b8ff" stroke="#63b8ff" points="353.92,-55.41 356,-65.8 360.86,-56.38 353.92,-55.41"/>
</a>
</g>
</g>
<!-- Node7 -->
<g id="Node000007" class="node">
<title>Node7</title>
<g id="a_Node000007"><a xlink:href="engine_8h.html" target="_top" xlink:title=" ">
<polygon fill="white" stroke="#666666" points="582,-30 470,-30 470,0 582,0 582,-30"/>
<text text-anchor="start" x="478" y="-18" font-family="Helvetica,sans-Serif" font-size="10.00">include/engine/core</text>
<text text-anchor="middle" x="526" y="-7" font-family="Helvetica,sans-Serif" font-size="10.00">/engine.h</text>
</a>
</g>
</g>
<!-- Node6&#45;&gt;Node7 -->
<g id="edge7_Node000006_Node000007" class="edge">
<title>Node6&#45;&gt;Node7</title>
<g id="a_edge7_Node000006_Node000007"><a xlink:title=" ">
<path fill="none" stroke="#63b8ff" d="M526,-55.54C526,-46.96 526,-37.61 526,-30.16"/>
<polygon fill="#63b8ff" stroke="#63b8ff" points="522.5,-55.8 526,-65.8 529.5,-55.8 522.5,-55.8"/>
</a>
</g>
</g>
</g>
</svg>
