<?xml version="1.0" encoding="UTF-8" standalone="no"?>
<!DOCTYPE svg PUBLIC "-//W3C//DTD SVG 1.1//EN"
 "http://www.w3.org/Graphics/SVG/1.1/DTD/svg11.dtd">
<!-- Generated by graphviz version 2.43.0 (0)
 -->
<!-- Title: Graphical Class Hierarchy Pages: 1 -->
<svg width="222pt" height="64pt"
 viewBox="0.00 0.00 222.00 64.00" xmlns="http://www.w3.org/2000/svg" xmlns:xlink="http://www.w3.org/1999/xlink">
<g id="graph0" class="graph" transform="scale(1 1) rotate(0) translate(4 60)">
<title>Graphical Class Hierarchy</title>
<!-- Node0 -->
<g id="Node000000" class="node">
<title>Node0</title>
<g id="a_Node000000"><a xlink:href="class_i_engine_service.html" target="_top" xlink:title=" ">
<polygon fill="white" stroke="#666666" points="89,-37 0,-37 0,-18 89,-18 89,-37"/>
<text text-anchor="middle" x="44.5" y="-25" font-family="Helvetica,sans-Serif" font-size="10.00">IEngineService</text>
</a>
</g>
</g>
<!-- Node1 -->
<g id="Node000001" class="node">
<title>Node1</title>
<g id="a_Node000001"><a xlink:href="class_audio_service.html" target="_top" xlink:title="Manages audio playback and sound instances within the engine.">
<polygon fill="white" stroke="#666666" points="209.5,-56 129.5,-56 129.5,-37 209.5,-37 209.5,-56"/>
<text text-anchor="middle" x="169.5" y="-44" font-family="Helvetica,sans-Serif" font-size="10.00">AudioService</text>
</a>
</g>
</g>
<!-- Node0&#45;&gt;Node1 -->
<g id="edge1_Node000000_Node000001" class="edge">
<title>Node0&#45;&gt;Node1</title>
<g id="a_edge1_Node000000_Node000001"><a xlink:title=" ">
<path fill="none" stroke="#63b8ff" d="M99.23,-35.8C109.39,-37.37 119.83,-38.98 129.43,-40.47"/>
<polygon fill="#63b8ff" stroke="#63b8ff" points="99.63,-32.32 89.21,-34.25 98.56,-39.24 99.63,-32.32"/>
</a>
</g>
</g>
<!-- Node2 -->
<g id="Node000002" class="node">
<title>Node2</title>
<g id="a_Node000002"><a xlink:href="class_physics_service.html" target="_top" xlink:title="Service responsible for managing the physics world.">
<polygon fill="white" stroke="#666666" points="214,-19 125,-19 125,0 214,0 214,-19"/>
<text text-anchor="middle" x="169.5" y="-7" font-family="Helvetica,sans-Serif" font-size="10.00">PhysicsService</text>
</a>
</g>
</g>
<!-- Node0&#45;&gt;Node2 -->
<g id="edge2_Node000000_Node000002" class="edge">
<title>Node0&#45;&gt;Node2</title>
<g id="a_edge2_Node000000_Node000002"><a xlink:title=" ">
<path fill="none" stroke="#63b8ff" d="M99.18,-19.64C107.78,-18.39 116.6,-17.1 124.93,-15.88"/>
<polygon fill="#63b8ff" stroke="#63b8ff" points="98.6,-16.19 89.21,-21.1 99.61,-23.12 98.6,-16.19"/>
</a>
</g>
</g>
</g>
</svg>
