<?xml version="1.0" encoding="UTF-8" standalone="no"?>
<!DOCTYPE svg PUBLIC "-//W3C//DTD SVG 1.1//EN"
 "http://www.w3.org/Graphics/SVG/1.1/DTD/svg11.dtd">
<!-- Generated by graphviz version 2.43.0 (0)
 -->
<!-- Title: Graphical Class Hierarchy Pages: 1 -->
<svg width="336pt" height="175pt"
 viewBox="0.00 0.00 336.00 175.00" xmlns="http://www.w3.org/2000/svg" xmlns:xlink="http://www.w3.org/1999/xlink">
<g id="graph0" class="graph" transform="scale(1 1) rotate(0) translate(4 171)">
<title>Graphical Class Hierarchy</title>
<!-- Node0 -->
<g id="Node000000" class="node">
<title>Node0</title>
<g id="a_Node000000"><a xlink:href="class_component.html" target="_top" xlink:title=" ">
<polygon fill="white" stroke="#666666" points="73,-93 0,-93 0,-74 73,-74 73,-93"/>
<text text-anchor="middle" x="36.5" y="-81" font-family="Helvetica,sans-Serif" font-size="10.00">Component</text>
</a>
</g>
</g>
<!-- Node1 -->
<g id="Node000001" class="node">
<title>Node1</title>
<g id="a_Node000001"><a xlink:href="class_audio_source.html" target="_top" xlink:title="Component that plays audio using the AudioService.">
<polygon fill="white" stroke="#666666" points="191.5,-167 114.5,-167 114.5,-148 191.5,-148 191.5,-167"/>
<text text-anchor="middle" x="153" y="-155" font-family="Helvetica,sans-Serif" font-size="10.00">AudioSource</text>
</a>
</g>
</g>
<!-- Node0&#45;&gt;Node1 -->
<g id="edge1_Node000000_Node000001" class="edge">
<title>Node0&#45;&gt;Node1</title>
<g id="a_edge1_Node000000_Node000001"><a xlink:title=" ">
<path fill="none" stroke="#63b8ff" d="M55.79,-100.08C69.68,-112.08 89.63,-128.14 109,-139.5 114.31,-142.61 120.25,-145.46 125.99,-147.93"/>
<polygon fill="#63b8ff" stroke="#63b8ff" points="57.8,-97.18 47.99,-93.2 53.18,-102.44 57.8,-97.18"/>
</a>
</g>
</g>
<!-- Node2 -->
<g id="Node000002" class="node">
<title>Node2</title>
<g id="a_Node000002"><a xlink:href="class_behavior_script.html" target="_top" xlink:title="A Component that wraps a Behavior, allowing it to be attached to GameObjects.">
<polygon fill="white" stroke="#666666" points="197,-130 109,-130 109,-111 197,-111 197,-130"/>
<text text-anchor="middle" x="153" y="-118" font-family="Helvetica,sans-Serif" font-size="10.00">BehaviorScript</text>
</a>
</g>
</g>
<!-- Node0&#45;&gt;Node2 -->
<g id="edge2_Node000000_Node000002" class="edge">
<title>Node0&#45;&gt;Node2</title>
<g id="a_edge2_Node000000_Node000002"><a xlink:title=" ">
<path fill="none" stroke="#63b8ff" d="M76.92,-96.24C91.77,-101.04 108.39,-106.41 122.22,-110.88"/>
<polygon fill="#63b8ff" stroke="#63b8ff" points="77.58,-92.77 66.99,-93.03 75.43,-99.43 77.58,-92.77"/>
</a>
</g>
</g>
<!-- Node3 -->
<g id="Node000003" class="node">
<title>Node3</title>
<g id="a_Node000003"><a xlink:href="class_collider2_d.html" target="_top" xlink:title="A 2D collider base that defines the shape and physical properties of a GameObject for collision detec...">
<polygon fill="white" stroke="#666666" points="187,-93 119,-93 119,-74 187,-74 187,-93"/>
<text text-anchor="middle" x="153" y="-81" font-family="Helvetica,sans-Serif" font-size="10.00">Collider2D</text>
</a>
</g>
</g>
<!-- Node0&#45;&gt;Node3 -->
<g id="edge3_Node000000_Node000003" class="edge">
<title>Node0&#45;&gt;Node3</title>
<g id="a_edge3_Node000000_Node000003"><a xlink:title=" ">
<path fill="none" stroke="#63b8ff" d="M83.29,-83.5C95.15,-83.5 107.69,-83.5 118.76,-83.5"/>
<polygon fill="#63b8ff" stroke="#63b8ff" points="83.1,-80 73.1,-83.5 83.1,-87 83.1,-80"/>
</a>
</g>
</g>
<!-- Node6 -->
<g id="Node000006" class="node">
<title>Node6</title>
<g id="a_Node000006"><a xlink:href="class_rigidbody2_d.html" target="_top" xlink:title="A 2D rigidbody component that adds physics properties to a GameObject.">
<polygon fill="white" stroke="#666666" points="192.5,-56 113.5,-56 113.5,-37 192.5,-37 192.5,-56"/>
<text text-anchor="middle" x="153" y="-44" font-family="Helvetica,sans-Serif" font-size="10.00">Rigidbody2D</text>
</a>
</g>
</g>
<!-- Node0&#45;&gt;Node6 -->
<g id="edge6_Node000000_Node000006" class="edge">
<title>Node0&#45;&gt;Node6</title>
<g id="a_edge6_Node000000_Node000006"><a xlink:title=" ">
<path fill="none" stroke="#63b8ff" d="M76.92,-70.76C91.77,-65.96 108.39,-60.59 122.22,-56.12"/>
<polygon fill="#63b8ff" stroke="#63b8ff" points="75.43,-67.57 66.99,-73.97 77.58,-74.23 75.43,-67.57"/>
</a>
</g>
</g>
<!-- Node7 -->
<g id="Node000007" class="node">
<title>Node7</title>
<g id="a_Node000007"><a xlink:href="class_sprite.html" target="_top" xlink:title="Component that represents a 2D sprite to be rendered. The Sprite component holds a reference to a Tex...">
<polygon fill="white" stroke="#666666" points="175.5,-19 130.5,-19 130.5,0 175.5,0 175.5,-19"/>
<text text-anchor="middle" x="153" y="-7" font-family="Helvetica,sans-Serif" font-size="10.00">Sprite</text>
</a>
</g>
</g>
<!-- Node0&#45;&gt;Node7 -->
<g id="edge7_Node000000_Node000007" class="edge">
<title>Node0&#45;&gt;Node7</title>
<g id="a_edge7_Node000000_Node000007"><a xlink:title=" ">
<path fill="none" stroke="#63b8ff" d="M56.39,-66.95C70.31,-55.27 90.04,-39.76 109,-28.5 115.6,-24.58 123.15,-20.98 130.06,-17.99"/>
<polygon fill="#63b8ff" stroke="#63b8ff" points="53.87,-64.5 48.54,-73.65 58.41,-69.82 53.87,-64.5"/>
</a>
</g>
</g>
<!-- Node4 -->
<g id="Node000004" class="node">
<title>Node4</title>
<g id="a_Node000004"><a xlink:href="class_box_collider2_d.html" target="_top" xlink:title="A 2D box collider component that defines a rectangular collision shape for a GameObject.">
<polygon fill="white" stroke="#666666" points="323.5,-111 237.5,-111 237.5,-92 323.5,-92 323.5,-111"/>
<text text-anchor="middle" x="280.5" y="-99" font-family="Helvetica,sans-Serif" font-size="10.00">BoxCollider2D</text>
</a>
</g>
</g>
<!-- Node3&#45;&gt;Node4 -->
<g id="edge4_Node000003_Node000004" class="edge">
<title>Node3&#45;&gt;Node4</title>
<g id="a_edge4_Node000003_Node000004"><a xlink:title=" ">
<path fill="none" stroke="#63b8ff" d="M197.4,-89.73C210.39,-91.59 224.6,-93.63 237.49,-95.47"/>
<polygon fill="#63b8ff" stroke="#63b8ff" points="197.7,-86.23 187.3,-88.28 196.7,-93.16 197.7,-86.23"/>
</a>
</g>
</g>
<!-- Node5 -->
<g id="Node000005" class="node">
<title>Node5</title>
<g id="a_Node000005"><a xlink:href="class_circle_collider2_d.html" target="_top" xlink:title="A 2D circle collider component that defines a circular collision shape for a GameObject.">
<polygon fill="white" stroke="#666666" points="328,-74 233,-74 233,-55 328,-55 328,-74"/>
<text text-anchor="middle" x="280.5" y="-62" font-family="Helvetica,sans-Serif" font-size="10.00">CircleCollider2D</text>
</a>
</g>
</g>
<!-- Node3&#45;&gt;Node5 -->
<g id="edge5_Node000003_Node000005" class="edge">
<title>Node3&#45;&gt;Node5</title>
<g id="a_edge5_Node000003_Node000005"><a xlink:title=" ">
<path fill="none" stroke="#63b8ff" d="M197.47,-76.92C208.88,-75.19 221.24,-73.32 232.81,-71.57"/>
<polygon fill="#63b8ff" stroke="#63b8ff" points="196.67,-73.5 187.3,-78.46 197.71,-80.42 196.67,-73.5"/>
</a>
</g>
</g>
</g>
</svg>
