<?xml version="1.0" encoding="UTF-8" standalone="no"?>
<!DOCTYPE svg PUBLIC "-//W3C//DTD SVG 1.1//EN"
 "http://www.w3.org/Graphics/SVG/1.1/DTD/svg11.dtd">
<!-- Generated by graphviz version 2.43.0 (0)
 -->
<!-- Title: Graphical Class Hierarchy Pages: 1 -->
<svg width="235pt" height="212pt"
 viewBox="0.00 0.00 235.00 212.00" xmlns="http://www.w3.org/2000/svg" xmlns:xlink="http://www.w3.org/1999/xlink">
<g id="graph0" class="graph" transform="scale(1 1) rotate(0) translate(4 208)">
<title>Graphical Class Hierarchy</title>
<!-- Node0 -->
<g id="Node000000" class="node">
<title>Node0</title>
<g id="a_Node000000"><a xlink:href="class_i_engine_service.html" target="_top" xlink:title=" ">
<polygon fill="white" stroke="#666666" points="89,-111 0,-111 0,-92 89,-92 89,-111"/>
<text text-anchor="middle" x="44.5" y="-99" font-family="Helvetica,sans-Serif" font-size="10.00">IEngineService</text>
</a>
</g>
</g>
<!-- Node1 -->
<g id="Node000001" class="node">
<title>Node1</title>
<g id="a_Node000001"><a xlink:href="class_asset_service.html" target="_top" xlink:title="Service responsible for managing game assets such as textures and spritesheets.">
<polygon fill="white" stroke="#666666" points="216,-204 136,-204 136,-185 216,-185 216,-204"/>
<text text-anchor="middle" x="176" y="-192" font-family="Helvetica,sans-Serif" font-size="10.00">AssetService</text>
</a>
</g>
</g>
<!-- Node0&#45;&gt;Node1 -->
<g id="edge3_Node000000_Node000001" class="edge">
<title>Node0&#45;&gt;Node1</title>
<g id="a_edge3_Node000000_Node000001"><a xlink:title=" ">
<path fill="none" stroke="#63b8ff" d="M60.19,-119.03C75.04,-135.79 99.39,-160.77 125,-176.5 130.35,-179.78 136.38,-182.59 142.36,-184.95"/>
<polygon fill="#63b8ff" stroke="#63b8ff" points="62.53,-116.38 53.34,-111.11 57.23,-120.96 62.53,-116.38"/>
</a>
</g>
</g>
<!-- Node2 -->
<g id="Node000002" class="node">
<title>Node2</title>
<g id="a_Node000002"><a xlink:href="class_audio_service.html" target="_top" xlink:title="Manages audio playback and sound instances within the engine.">
<polygon fill="white" stroke="#666666" points="216,-167 136,-167 136,-148 216,-148 216,-167"/>
<text text-anchor="middle" x="176" y="-155" font-family="Helvetica,sans-Serif" font-size="10.00">AudioService</text>
</a>
</g>
</g>
<!-- Node0&#45;&gt;Node2 -->
<g id="edge4_Node000000_Node000002" class="edge">
<title>Node0&#45;&gt;Node2</title>
<g id="a_edge4_Node000000_Node000002"><a xlink:title=" ">
<path fill="none" stroke="#63b8ff" d="M73.5,-115.73C88.59,-123.18 107.63,-132.24 125,-139.5 132.07,-142.45 139.81,-145.38 147.04,-147.99"/>
<polygon fill="#63b8ff" stroke="#63b8ff" points="74.72,-112.43 64.21,-111.1 71.6,-118.69 74.72,-112.43"/>
</a>
</g>
</g>
<!-- Node3 -->
<g id="Node000003" class="node">
<title>Node3</title>
<g id="a_Node000003"><a xlink:href="class_input_manager.html" target="_top" xlink:title="Centralized input manager that delegates to an external input provider.">
<polygon fill="white" stroke="#666666" points="218,-130 134,-130 134,-111 218,-111 218,-130"/>
<text text-anchor="middle" x="176" y="-118" font-family="Helvetica,sans-Serif" font-size="10.00">InputManager</text>
</a>
</g>
</g>
<!-- Node0&#45;&gt;Node3 -->
<g id="edge5_Node000000_Node000003" class="edge">
<title>Node0&#45;&gt;Node3</title>
<g id="a_edge5_Node000000_Node000003"><a xlink:title=" ">
<path fill="none" stroke="#63b8ff" d="M99.32,-109.4C110.85,-111.09 122.86,-112.85 133.83,-114.46"/>
<polygon fill="#63b8ff" stroke="#63b8ff" points="99.74,-105.92 89.34,-107.93 98.73,-112.85 99.74,-105.92"/>
</a>
</g>
</g>
<!-- Node4 -->
<g id="Node000004" class="node">
<title>Node4</title>
<g id="a_Node000004"><a xlink:href="class_physics_service.html" target="_top" xlink:title="Service responsible for managing the physics world.">
<polygon fill="white" stroke="#666666" points="220.5,-93 131.5,-93 131.5,-74 220.5,-74 220.5,-93"/>
<text text-anchor="middle" x="176" y="-81" font-family="Helvetica,sans-Serif" font-size="10.00">PhysicsService</text>
</a>
</g>
</g>
<!-- Node0&#45;&gt;Node4 -->
<g id="edge6_Node000000_Node000004" class="edge">
<title>Node0&#45;&gt;Node4</title>
<g id="a_edge6_Node000000_Node000004"><a xlink:title=" ">
<path fill="none" stroke="#63b8ff" d="M99.35,-94.01C109.96,-92.54 120.97,-91.01 131.2,-89.59"/>
<polygon fill="#63b8ff" stroke="#63b8ff" points="98.77,-90.56 89.34,-95.41 99.73,-97.5 98.77,-90.56"/>
</a>
</g>
</g>
<!-- Node5 -->
<g id="Node000005" class="node">
<title>Node5</title>
<g id="a_Node000005"><a xlink:href="class_renderer.html" target="_top" xlink:title="Service responsible for rendering game objects to the screen.">
<polygon fill="white" stroke="#666666" points="206.5,-56 145.5,-56 145.5,-37 206.5,-37 206.5,-56"/>
<text text-anchor="middle" x="176" y="-44" font-family="Helvetica,sans-Serif" font-size="10.00">Renderer</text>
</a>
</g>
</g>
<!-- Node0&#45;&gt;Node5 -->
<g id="edge7_Node000000_Node000005" class="edge">
<title>Node0&#45;&gt;Node5</title>
<g id="a_edge7_Node000000_Node000005"><a xlink:title=" ">
<path fill="none" stroke="#63b8ff" d="M74.85,-87.69C89.77,-80.8 108.25,-72.47 125,-65.5 132.72,-62.29 141.19,-58.99 148.93,-56.06"/>
<polygon fill="#63b8ff" stroke="#63b8ff" points="73.2,-84.59 65.61,-91.98 76.15,-90.94 73.2,-84.59"/>
</a>
</g>
</g>
<!-- Node6 -->
<g id="Node000006" class="node">
<title>Node6</title>
<g id="a_Node000006"><a xlink:href="class_rendering_service.html" target="_top" xlink:title="Service responsible for rendering game objects to the window. This service functions as a manager for...">
<polygon fill="white" stroke="#666666" points="227,-19 125,-19 125,0 227,0 227,-19"/>
<text text-anchor="middle" x="176" y="-7" font-family="Helvetica,sans-Serif" font-size="10.00">RenderingService</text>
</a>
</g>
</g>
<!-- Node0&#45;&gt;Node6 -->
<g id="edge8_Node000000_Node000006" class="edge">
<title>Node0&#45;&gt;Node6</title>
<g id="a_edge8_Node000000_Node000006"><a xlink:title=" ">
<path fill="none" stroke="#63b8ff" d="M60.83,-84.03C75.83,-67.81 100.02,-43.92 125,-28.5 130.93,-24.84 137.67,-21.7 144.25,-19.08"/>
<polygon fill="#63b8ff" stroke="#63b8ff" points="57.98,-81.96 53.87,-91.72 63.17,-86.66 57.98,-81.96"/>
</a>
</g>
</g>
</g>
</svg>
