<?xml version="1.0" encoding="UTF-8" standalone="no"?>
<!DOCTYPE svg PUBLIC "-//W3C//DTD SVG 1.1//EN"
 "http://www.w3.org/Graphics/SVG/1.1/DTD/svg11.dtd">
<!-- Generated by graphviz version 2.43.0 (0)
 -->
<!-- Title: Graphical Class Hierarchy Pages: 1 -->
<svg width="235pt" height="175pt"
 viewBox="0.00 0.00 235.00 175.00" xmlns="http://www.w3.org/2000/svg" xmlns:xlink="http://www.w3.org/1999/xlink">
<g id="graph0" class="graph" transform="scale(1 1) rotate(0) translate(4 171)">
<title>Graphical Class Hierarchy</title>
<!-- Node0 -->
<g id="Node000000" class="node">
<title>Node0</title>
<g id="a_Node000000"><a xlink:href="class_i_engine_service.html" target="_top" xlink:title=" ">
<polygon fill="white" stroke="#666666" points="89,-93 0,-93 0,-74 89,-74 89,-93"/>
<text text-anchor="middle" x="44.5" y="-81" font-family="Helvetica,sans-Serif" font-size="10.00">IEngineService</text>
</a>
</g>
</g>
<!-- Node1 -->
<g id="Node000001" class="node">
<title>Node1</title>
<g id="a_Node000001"><a xlink:href="class_asset_service.html" target="_top" xlink:title="Service responsible for managing game assets such as textures and spritesheets.">
<polygon fill="white" stroke="#666666" points="216,-167 136,-167 136,-148 216,-148 216,-167"/>
<text text-anchor="middle" x="176" y="-155" font-family="Helvetica,sans-Serif" font-size="10.00">AssetService</text>
</a>
</g>
</g>
<!-- Node0&#45;&gt;Node1 -->
<g id="edge2_Node000000_Node000001" class="edge">
<title>Node0&#45;&gt;Node1</title>
<g id="a_edge2_Node000000_Node000001"><a xlink:title=" ">
<path fill="none" stroke="#63b8ff" d="M64.82,-99.34C80.36,-111.52 103.14,-128.13 125,-139.5 131.06,-142.65 137.79,-145.48 144.3,-147.92"/>
<polygon fill="#63b8ff" stroke="#63b8ff" points="66.98,-96.59 56.98,-93.09 62.62,-102.06 66.98,-96.59"/>
</a>
</g>
</g>
<!-- Node2 -->
<g id="Node000002" class="node">
<title>Node2</title>
<g id="a_Node000002"><a xlink:href="class_audio_service.html" target="_top" xlink:title="Manages audio playback and sound instances within the engine.">
<polygon fill="white" stroke="#666666" points="216,-130 136,-130 136,-111 216,-111 216,-130"/>
<text text-anchor="middle" x="176" y="-118" font-family="Helvetica,sans-Serif" font-size="10.00">AudioService</text>
</a>
</g>
</g>
<!-- Node0&#45;&gt;Node2 -->
<g id="edge3_Node000000_Node000002" class="edge">
<title>Node0&#45;&gt;Node2</title>
<g id="a_edge3_Node000000_Node000002"><a xlink:title=" ">
<path fill="none" stroke="#63b8ff" d="M88.64,-95.83C105.79,-100.73 125.23,-106.28 141.31,-110.88"/>
<polygon fill="#63b8ff" stroke="#63b8ff" points="89.43,-92.41 78.85,-93.03 87.5,-99.14 89.43,-92.41"/>
</a>
</g>
</g>
<!-- Node3 -->
<g id="Node000003" class="node">
<title>Node3</title>
<g id="a_Node000003"><a xlink:href="class_physics_service.html" target="_top" xlink:title="Service responsible for managing the physics world.">
<polygon fill="white" stroke="#666666" points="220.5,-93 131.5,-93 131.5,-74 220.5,-74 220.5,-93"/>
<text text-anchor="middle" x="176" y="-81" font-family="Helvetica,sans-Serif" font-size="10.00">PhysicsService</text>
</a>
</g>
</g>
<!-- Node0&#45;&gt;Node3 -->
<g id="edge4_Node000000_Node000003" class="edge">
<title>Node0&#45;&gt;Node3</title>
<g id="a_edge4_Node000000_Node000003"><a xlink:title=" ">
<path fill="none" stroke="#63b8ff" d="M99.35,-83.5C109.96,-83.5 120.97,-83.5 131.2,-83.5"/>
<polygon fill="#63b8ff" stroke="#63b8ff" points="99.34,-80 89.34,-83.5 99.34,-87 99.34,-80"/>
</a>
</g>
</g>
<!-- Node4 -->
<g id="Node000004" class="node">
<title>Node4</title>
<g id="a_Node000004"><a xlink:href="class_renderer.html" target="_top" xlink:title="Service responsible for rendering game objects to the screen.">
<polygon fill="white" stroke="#666666" points="206.5,-56 145.5,-56 145.5,-37 206.5,-37 206.5,-56"/>
<text text-anchor="middle" x="176" y="-44" font-family="Helvetica,sans-Serif" font-size="10.00">Renderer</text>
</a>
</g>
</g>
<!-- Node0&#45;&gt;Node4 -->
<g id="edge5_Node000000_Node000004" class="edge">
<title>Node0&#45;&gt;Node4</title>
<g id="a_edge5_Node000000_Node000004"><a xlink:title=" ">
<path fill="none" stroke="#63b8ff" d="M88.58,-71.19C107.19,-65.87 128.5,-59.79 145.3,-54.99"/>
<polygon fill="#63b8ff" stroke="#63b8ff" points="87.5,-67.86 78.85,-73.97 89.43,-74.59 87.5,-67.86"/>
</a>
</g>
</g>
<!-- Node5 -->
<g id="Node000005" class="node">
<title>Node5</title>
<g id="a_Node000005"><a xlink:href="class_rendering_service.html" target="_top" xlink:title="Service responsible for rendering game objects to the window. This service functions as a manager for...">
<polygon fill="white" stroke="#666666" points="227,-19 125,-19 125,0 227,0 227,-19"/>
<text text-anchor="middle" x="176" y="-7" font-family="Helvetica,sans-Serif" font-size="10.00">RenderingService</text>
</a>
</g>
</g>
<!-- Node0&#45;&gt;Node5 -->
<g id="edge6_Node000000_Node000005" class="edge">
<title>Node0&#45;&gt;Node5</title>
<g id="a_edge6_Node000000_Node000005"><a xlink:title=" ">
<path fill="none" stroke="#63b8ff" d="M65.62,-67.54C81.2,-55.7 103.64,-39.73 125,-28.5 131.66,-25 139.11,-21.81 146.18,-19.09"/>
<polygon fill="#63b8ff" stroke="#63b8ff" points="63.08,-65.08 57.31,-73.96 67.36,-70.62 63.08,-65.08"/>
</a>
</g>
</g>
</g>
</svg>
