<?xml version="1.0" encoding="UTF-8" standalone="no"?>
<!DOCTYPE svg PUBLIC "-//W3C//DTD SVG 1.1//EN"
 "http://www.w3.org/Graphics/SVG/1.1/DTD/svg11.dtd">
<!-- Generated by graphviz version 2.43.0 (0)
 -->
<!-- Title: Graphical Class Hierarchy Pages: 1 -->
<svg width="194pt" height="64pt"
 viewBox="0.00 0.00 194.00 64.00" xmlns="http://www.w3.org/2000/svg" xmlns:xlink="http://www.w3.org/1999/xlink">
<g id="graph0" class="graph" transform="scale(1 1) rotate(0) translate(4 60)">
<title>Graphical Class Hierarchy</title>
<!-- Node0 -->
<g id="Node000000" class="node">
<title>Node0</title>
<g id="a_Node000000"><a xlink:href="class_component.html" target="_top" xlink:title=" ">
<polygon fill="white" stroke="#666666" points="73,-37 0,-37 0,-18 73,-18 73,-37"/>
<text text-anchor="middle" x="36.5" y="-25" font-family="Helvetica,sans-Serif" font-size="10.00">Component</text>
</a>
</g>
</g>
<!-- Node1 -->
<g id="Node000001" class="node">
<title>Node1</title>
<g id="a_Node000001"><a xlink:href="class_audio_source.html" target="_top" xlink:title="Component that plays audio using the AudioService.">
<polygon fill="white" stroke="#666666" points="186,-56 109,-56 109,-37 186,-37 186,-56"/>
<text text-anchor="middle" x="147.5" y="-44" font-family="Helvetica,sans-Serif" font-size="10.00">AudioSource</text>
</a>
</g>
</g>
<!-- Node0&#45;&gt;Node1 -->
<g id="edge1_Node000000_Node000001" class="edge">
<title>Node0&#45;&gt;Node1</title>
<g id="a_edge1_Node000000_Node000001"><a xlink:title=" ">
<path fill="none" stroke="#63b8ff" d="M83.08,-35.44C91.66,-36.94 100.55,-38.49 108.85,-39.94"/>
<polygon fill="#63b8ff" stroke="#63b8ff" points="83.64,-31.99 73.19,-33.72 82.44,-38.89 83.64,-31.99"/>
</a>
</g>
</g>
<!-- Node2 -->
<g id="Node000002" class="node">
<title>Node2</title>
<g id="a_Node000002"><a xlink:href="class_sprite.html" target="_top" xlink:title="Component that represents a 2D sprite to be rendered. The Sprite component holds a reference to a Tex...">
<polygon fill="white" stroke="#666666" points="170,-19 125,-19 125,0 170,0 170,-19"/>
<text text-anchor="middle" x="147.5" y="-7" font-family="Helvetica,sans-Serif" font-size="10.00">Sprite</text>
</a>
</g>
</g>
<!-- Node0&#45;&gt;Node2 -->
<g id="edge2_Node000000_Node000002" class="edge">
<title>Node0&#45;&gt;Node2</title>
<g id="a_edge2_Node000000_Node000002"><a xlink:title=" ">
<path fill="none" stroke="#63b8ff" d="M83.42,-19.92C97.74,-17.55 112.88,-15.05 124.73,-13.09"/>
<polygon fill="#63b8ff" stroke="#63b8ff" points="82.49,-16.52 73.19,-21.61 83.63,-23.43 82.49,-16.52"/>
</a>
</g>
</g>
</g>
</svg>
