<?xml version="1.0" encoding="UTF-8" standalone="no"?>
<!DOCTYPE svg PUBLIC "-//W3C//DTD SVG 1.1//EN"
 "http://www.w3.org/Graphics/SVG/1.1/DTD/svg11.dtd">
<!-- Generated by graphviz version 2.43.0 (0)
 -->
<!-- Title: Graphical Class Hierarchy Pages: 1 -->
<svg width="257pt" height="64pt"
 viewBox="0.00 0.00 257.00 64.00" xmlns="http://www.w3.org/2000/svg" xmlns:xlink="http://www.w3.org/1999/xlink">
<g id="graph0" class="graph" transform="scale(1 1) rotate(0) translate(4 60)">
<title>Graphical Class Hierarchy</title>
<!-- Node0 -->
<g id="Node000000" class="node">
<title>Node0</title>
<g id="a_Node000000"><a xlink:href="class_sound_instance.html" target="_top" xlink:title="Represents an instance of a generic sound within the audio system. The reason for separating SoundIns...">
<polygon fill="white" stroke="#666666" points="88,-37 0,-37 0,-18 88,-18 88,-37"/>
<text text-anchor="middle" x="44" y="-25" font-family="Helvetica,sans-Serif" font-size="10.00">SoundInstance</text>
</a>
</g>
</g>
<!-- Node1 -->
<g id="Node000001" class="node">
<title>Node1</title>
<g id="a_Node000001"><a xlink:href="class_generic_sound_instance.html" target="_top" xlink:title="A generic implementation of a sound instance. Provides the basic functionality while not tied to any ...">
<polygon fill="white" stroke="#666666" points="249,-56 124,-56 124,-37 249,-37 249,-56"/>
<text text-anchor="middle" x="186.5" y="-44" font-family="Helvetica,sans-Serif" font-size="10.00">GenericSoundInstance</text>
</a>
</g>
</g>
<!-- Node0&#45;&gt;Node1 -->
<g id="edge15_Node000000_Node000001" class="edge">
<title>Node0&#45;&gt;Node1</title>
<g id="a_edge15_Node000000_Node000001"><a xlink:title=" ">
<path fill="none" stroke="#63b8ff" d="M98.26,-34.7C106.58,-35.83 115.25,-37 123.75,-38.15"/>
<polygon fill="#63b8ff" stroke="#63b8ff" points="98.68,-31.23 88.3,-33.36 97.74,-38.16 98.68,-31.23"/>
</a>
</g>
</g>
<!-- Node2 -->
<g id="Node000002" class="node">
<title>Node2</title>
<g id="a_Node000002"><a xlink:href="class_s_d_l_sound_instance.html" target="_top" xlink:title="Represents a SDL&#45;specific implementation of a sound instance. Inherits from the generic SoundInstance...">
<polygon fill="white" stroke="#666666" points="240,-19 133,-19 133,0 240,0 240,-19"/>
<text text-anchor="middle" x="186.5" y="-7" font-family="Helvetica,sans-Serif" font-size="10.00">SDLSoundInstance</text>
</a>
</g>
</g>
<!-- Node0&#45;&gt;Node2 -->
<g id="edge16_Node000000_Node000002" class="edge">
<title>Node0&#45;&gt;Node2</title>
<g id="a_edge16_Node000000_Node000002"><a xlink:title=" ">
<path fill="none" stroke="#63b8ff" d="M98.47,-20.65C109.77,-19.2 121.68,-17.68 132.94,-16.23"/>
<polygon fill="#63b8ff" stroke="#63b8ff" points="97.78,-17.21 88.3,-21.95 98.66,-24.15 97.78,-17.21"/>
</a>
</g>
</g>
</g>
</svg>
