<?xml version="1.0" encoding="UTF-8" standalone="no"?>
<!DOCTYPE svg PUBLIC "-//W3C//DTD SVG 1.1//EN"
 "http://www.w3.org/Graphics/SVG/1.1/DTD/svg11.dtd">
<!-- Generated by graphviz version 2.43.0 (0)
 -->
<!-- Title: Graphical Class Hierarchy Pages: 1 -->
<svg width="327pt" height="138pt"
 viewBox="0.00 0.00 327.00 138.00" xmlns="http://www.w3.org/2000/svg" xmlns:xlink="http://www.w3.org/1999/xlink">
<g id="graph0" class="graph" transform="scale(1 1) rotate(0) translate(4 134)">
<title>Graphical Class Hierarchy</title>
<!-- Node0 -->
<g id="Node000000" class="node">
<title>Node0</title>
<g id="a_Node000000"><a xlink:href="class_component.html" target="_top" xlink:title=" ">
<polygon fill="white" stroke="#666666" points="73,-74 0,-74 0,-55 73,-55 73,-74"/>
<text text-anchor="middle" x="36.5" y="-62" font-family="Helvetica,sans-Serif" font-size="10.00">Component</text>
</a>
</g>
</g>
<!-- Node1 -->
<g id="Node000001" class="node">
<title>Node1</title>
<g id="a_Node000001"><a xlink:href="class_audio_source.html" target="_top" xlink:title="Component that plays audio using the AudioService.">
<polygon fill="white" stroke="#666666" points="187,-130 110,-130 110,-111 187,-111 187,-130"/>
<text text-anchor="middle" x="148.5" y="-118" font-family="Helvetica,sans-Serif" font-size="10.00">AudioSource</text>
</a>
</g>
</g>
<!-- Node0&#45;&gt;Node1 -->
<g id="edge1_Node000000_Node000001" class="edge">
<title>Node0&#45;&gt;Node1</title>
<g id="a_edge1_Node000000_Node000001"><a xlink:title=" ">
<path fill="none" stroke="#63b8ff" d="M64.12,-79.07C77.5,-86.28 94.02,-95.02 109,-102.5 114.68,-105.33 120.89,-108.29 126.63,-110.98"/>
<polygon fill="#63b8ff" stroke="#63b8ff" points="65.46,-75.81 55,-74.12 62.12,-81.96 65.46,-75.81"/>
</a>
</g>
</g>
<!-- Node2 -->
<g id="Node000002" class="node">
<title>Node2</title>
<g id="a_Node000002"><a xlink:href="class_collider2_d.html" target="_top" xlink:title="A 2D collider base that defines the shape and physical properties of a GameObject for collision detec...">
<polygon fill="white" stroke="#666666" points="182.5,-93 114.5,-93 114.5,-74 182.5,-74 182.5,-93"/>
<text text-anchor="middle" x="148.5" y="-81" font-family="Helvetica,sans-Serif" font-size="10.00">Collider2D</text>
</a>
</g>
</g>
<!-- Node0&#45;&gt;Node2 -->
<g id="edge2_Node000000_Node000002" class="edge">
<title>Node0&#45;&gt;Node2</title>
<g id="a_edge2_Node000000_Node000002"><a xlink:title=" ">
<path fill="none" stroke="#63b8ff" d="M83.35,-72.42C93.7,-74.21 104.49,-76.07 114.2,-77.75"/>
<polygon fill="#63b8ff" stroke="#63b8ff" points="83.66,-68.92 73.21,-70.67 82.47,-75.82 83.66,-68.92"/>
</a>
</g>
</g>
<!-- Node5 -->
<g id="Node000005" class="node">
<title>Node5</title>
<g id="a_Node000005"><a xlink:href="class_rigidbody2_d.html" target="_top" xlink:title="A 2D rigidbody component that adds physics properties to a GameObject.">
<polygon fill="white" stroke="#666666" points="188,-56 109,-56 109,-37 188,-37 188,-56"/>
<text text-anchor="middle" x="148.5" y="-44" font-family="Helvetica,sans-Serif" font-size="10.00">Rigidbody2D</text>
</a>
</g>
</g>
<!-- Node0&#45;&gt;Node5 -->
<g id="edge5_Node000000_Node000005" class="edge">
<title>Node0&#45;&gt;Node5</title>
<g id="a_edge5_Node000000_Node000005"><a xlink:title=" ">
<path fill="none" stroke="#63b8ff" d="M83.1,-57.04C91.68,-55.63 100.58,-54.18 108.93,-52.81"/>
<polygon fill="#63b8ff" stroke="#63b8ff" points="82.52,-53.59 73.21,-58.66 83.65,-60.5 82.52,-53.59"/>
</a>
</g>
</g>
<!-- Node6 -->
<g id="Node000006" class="node">
<title>Node6</title>
<g id="a_Node000006"><a xlink:href="class_sprite.html" target="_top" xlink:title="Component that represents a 2D sprite to be rendered. The Sprite component holds a reference to a Tex...">
<polygon fill="white" stroke="#666666" points="171,-19 126,-19 126,0 171,0 171,-19"/>
<text text-anchor="middle" x="148.5" y="-7" font-family="Helvetica,sans-Serif" font-size="10.00">Sprite</text>
</a>
</g>
</g>
<!-- Node0&#45;&gt;Node6 -->
<g id="edge6_Node000000_Node000006" class="edge">
<title>Node0&#45;&gt;Node6</title>
<g id="a_edge6_Node000000_Node000006"><a xlink:title=" ">
<path fill="none" stroke="#63b8ff" d="M65.36,-50.41C78.57,-43.74 94.59,-35.68 109,-28.5 115.14,-25.44 121.84,-22.13 127.9,-19.14"/>
<polygon fill="#63b8ff" stroke="#63b8ff" points="63.65,-47.35 56.3,-54.98 66.8,-53.6 63.65,-47.35"/>
</a>
</g>
</g>
<!-- Node3 -->
<g id="Node000003" class="node">
<title>Node3</title>
<g id="a_Node000003"><a xlink:href="class_box_collider2_d.html" target="_top" xlink:title="A 2D box collider component that defines a rectangular collision shape for a GameObject.">
<polygon fill="white" stroke="#666666" points="314.5,-111 228.5,-111 228.5,-92 314.5,-92 314.5,-111"/>
<text text-anchor="middle" x="271.5" y="-99" font-family="Helvetica,sans-Serif" font-size="10.00">BoxCollider2D</text>
</a>
</g>
</g>
<!-- Node2&#45;&gt;Node3 -->
<g id="edge3_Node000002_Node000003" class="edge">
<title>Node2&#45;&gt;Node3</title>
<g id="a_edge3_Node000002_Node000003"><a xlink:title=" ">
<path fill="none" stroke="#63b8ff" d="M192.51,-89.9C204.17,-91.63 216.77,-93.51 228.37,-95.23"/>
<polygon fill="#63b8ff" stroke="#63b8ff" points="192.97,-86.43 182.56,-88.42 191.94,-93.35 192.97,-86.43"/>
</a>
</g>
</g>
<!-- Node4 -->
<g id="Node000004" class="node">
<title>Node4</title>
<g id="a_Node000004"><a xlink:href="class_circle_collider2_d.html" target="_top" xlink:title="A 2D circle collider component that defines a circular collision shape for a GameObject.">
<polygon fill="white" stroke="#666666" points="319,-74 224,-74 224,-55 319,-55 319,-74"/>
<text text-anchor="middle" x="271.5" y="-62" font-family="Helvetica,sans-Serif" font-size="10.00">CircleCollider2D</text>
</a>
</g>
</g>
<!-- Node2&#45;&gt;Node4 -->
<g id="edge4_Node000002_Node000004" class="edge">
<title>Node2&#45;&gt;Node4</title>
<g id="a_edge4_Node000002_Node000004"><a xlink:title=" ">
<path fill="none" stroke="#63b8ff" d="M192.45,-76.76C202.63,-75.16 213.54,-73.44 223.87,-71.82"/>
<polygon fill="#63b8ff" stroke="#63b8ff" points="191.9,-73.3 182.56,-78.31 192.99,-80.21 191.9,-73.3"/>
</a>
</g>
</g>
</g>
</svg>
