<?xml version="1.0" encoding="UTF-8" standalone="no"?>
<!DOCTYPE svg PUBLIC "-//W3C//DTD SVG 1.1//EN"
 "http://www.w3.org/Graphics/SVG/1.1/DTD/svg11.dtd">
<!-- Generated by graphviz version 2.43.0 (0)
 -->
<!-- Title: include/engine/input/input_manager.h Pages: 1 -->
<svg width="734pt" height="346pt"
 viewBox="0.00 0.00 734.00 346.00" xmlns="http://www.w3.org/2000/svg" xmlns:xlink="http://www.w3.org/1999/xlink">
<g id="graph0" class="graph" transform="scale(1 1) rotate(0) translate(4 342)">
<title>include/engine/input/input_manager.h</title>
<!-- Node1 -->
<g id="Node000001" class="node">
<title>Node1</title>
<g id="a_Node000001"><a xlink:title=" ">
<polygon fill="#999999" stroke="#666666" points="244,-338 128,-338 128,-308 244,-308 244,-338"/>
<text text-anchor="start" x="136" y="-326" font-family="Helvetica,sans-Serif" font-size="10.00">include/engine/input</text>
<text text-anchor="middle" x="186" y="-315" font-family="Helvetica,sans-Serif" font-size="10.00">/input_manager.h</text>
</a>
</g>
</g>
<!-- Node2 -->
<g id="Node000002" class="node">
<title>Node2</title>
<g id="a_Node000002"><a xlink:title=" ">
<polygon fill="#e0e0e0" stroke="#999999" points="200,-206 142,-206 142,-187 200,-187 200,-206"/>
<text text-anchor="middle" x="171" y="-194" font-family="Helvetica,sans-Serif" font-size="10.00">memory</text>
</a>
</g>
</g>
<!-- Node1&#45;&gt;Node2 -->
<g id="edge1_Node000001_Node000002" class="edge">
<title>Node1&#45;&gt;Node2</title>
<g id="a_edge1_Node000001_Node000002"><a xlink:title=" ">
<path fill="none" stroke="#63b8ff" d="M184.28,-307.72C181.56,-285.12 176.26,-241.12 173.24,-216.09"/>
<polygon fill="#63b8ff" stroke="#63b8ff" points="176.7,-215.58 172.03,-206.07 169.75,-216.42 176.7,-215.58"/>
</a>
</g>
</g>
<!-- Node3 -->
<g id="Node000003" class="node">
<title>Node3</title>
<g id="a_Node000003"><a xlink:href="i_engine_service_8h.html" target="_top" xlink:title=" ">
<polygon fill="white" stroke="#666666" points="158,-266.5 0,-266.5 0,-247.5 158,-247.5 158,-266.5"/>
<text text-anchor="middle" x="79" y="-254.5" font-family="Helvetica,sans-Serif" font-size="10.00">engine/core/iEngineService.h</text>
</a>
</g>
</g>
<!-- Node1&#45;&gt;Node3 -->
<g id="edge2_Node000001_Node000003" class="edge">
<title>Node1&#45;&gt;Node3</title>
<g id="a_edge2_Node000001_Node000003"><a xlink:title=" ">
<path fill="none" stroke="#63b8ff" d="M162.52,-307.95C144.5,-297.18 119.76,-282.38 101.89,-271.69"/>
<polygon fill="#63b8ff" stroke="#63b8ff" points="103.62,-268.65 93.24,-266.52 100.03,-274.65 103.62,-268.65"/>
</a>
</g>
</g>
<!-- Node5 -->
<g id="Node000005" class="node">
<title>Node5</title>
<g id="a_Node000005"><a xlink:href="i__input__provider_8h.html" target="_top" xlink:title=" ">
<polygon fill="white" stroke="#666666" points="481.5,-272 368.5,-272 368.5,-242 481.5,-242 481.5,-272"/>
<text text-anchor="start" x="376.5" y="-260" font-family="Helvetica,sans-Serif" font-size="10.00">engine/input/i_input</text>
<text text-anchor="middle" x="425" y="-249" font-family="Helvetica,sans-Serif" font-size="10.00">_provider.h</text>
</a>
</g>
</g>
<!-- Node1&#45;&gt;Node5 -->
<g id="edge4_Node000001_Node000005" class="edge">
<title>Node1&#45;&gt;Node5</title>
<g id="a_edge4_Node000001_Node000005"><a xlink:title=" ">
<path fill="none" stroke="#63b8ff" d="M238.45,-307.95C275.03,-298.16 324,-285.05 362.59,-274.71"/>
<polygon fill="#63b8ff" stroke="#63b8ff" points="363.92,-277.98 372.67,-272.01 362.11,-271.22 363.92,-277.98"/>
</a>
</g>
</g>
<!-- Node4 -->
<g id="Node000004" class="node">
<title>Node4</title>
<g id="a_Node000004"><a xlink:title=" ">
<polygon fill="#e0e0e0" stroke="#999999" points="109,-206 49,-206 49,-187 109,-187 109,-206"/>
<text text-anchor="middle" x="79" y="-194" font-family="Helvetica,sans-Serif" font-size="10.00">concepts</text>
</a>
</g>
</g>
<!-- Node3&#45;&gt;Node4 -->
<g id="edge3_Node000003_Node000004" class="edge">
<title>Node3&#45;&gt;Node4</title>
<g id="a_edge3_Node000003_Node000004"><a xlink:title=" ">
<path fill="none" stroke="#63b8ff" d="M79,-247.37C79,-239.25 79,-226.81 79,-216.39"/>
<polygon fill="#63b8ff" stroke="#63b8ff" points="82.5,-216.17 79,-206.17 75.5,-216.17 82.5,-216.17"/>
</a>
</g>
</g>
<!-- Node5&#45;&gt;Node2 -->
<g id="edge6_Node000005_Node000002" class="edge">
<title>Node5&#45;&gt;Node2</title>
<g id="a_edge6_Node000005_Node000002"><a xlink:title=" ">
<path fill="none" stroke="#63b8ff" d="M368.31,-242.94C320.23,-231.87 252.5,-216.27 210.21,-206.53"/>
<polygon fill="#63b8ff" stroke="#63b8ff" points="210.82,-203.08 200.29,-204.25 209.25,-209.9 210.82,-203.08"/>
</a>
</g>
</g>
<!-- Node6 -->
<g id="Node000006" class="node">
<title>Node6</title>
<g id="a_Node000006"><a xlink:title=" ">
<polygon fill="#e0e0e0" stroke="#999999" points="651.5,-206 598.5,-206 598.5,-187 651.5,-187 651.5,-206"/>
<text text-anchor="middle" x="625" y="-194" font-family="Helvetica,sans-Serif" font-size="10.00">cstddef</text>
</a>
</g>
</g>
<!-- Node5&#45;&gt;Node6 -->
<g id="edge5_Node000005_Node000006" class="edge">
<title>Node5&#45;&gt;Node6</title>
<g id="a_edge5_Node000005_Node000006"><a xlink:title=" ">
<path fill="none" stroke="#63b8ff" d="M472.9,-241.99C508.36,-231.62 555.93,-217.7 588.38,-208.21"/>
<polygon fill="#63b8ff" stroke="#63b8ff" points="589.73,-211.46 598.34,-205.3 587.76,-204.75 589.73,-211.46"/>
</a>
</g>
</g>
<!-- Node7 -->
<g id="Node000007" class="node">
<title>Node7</title>
<g id="a_Node000007"><a xlink:title=" ">
<polygon fill="#e0e0e0" stroke="#999999" points="726,-206 670,-206 670,-187 726,-187 726,-206"/>
<text text-anchor="middle" x="698" y="-194" font-family="Helvetica,sans-Serif" font-size="10.00">optional</text>
</a>
</g>
</g>
<!-- Node5&#45;&gt;Node7 -->
<g id="edge7_Node000005_Node000007" class="edge">
<title>Node5&#45;&gt;Node7</title>
<g id="a_edge7_Node000005_Node000007"><a xlink:title=" ">
<path fill="none" stroke="#63b8ff" d="M481.8,-244.25C527.4,-234.75 593.33,-220.87 659.9,-206.21"/>
<polygon fill="#63b8ff" stroke="#63b8ff" points="660.72,-209.62 669.73,-204.05 659.21,-202.78 660.72,-209.62"/>
</a>
</g>
</g>
<!-- Node8 -->
<g id="Node000008" class="node">
<title>Node8</title>
<g id="a_Node000008"><a xlink:title=" ">
<polygon fill="#e0e0e0" stroke="#999999" points="263.5,-206 218.5,-206 218.5,-187 263.5,-187 263.5,-206"/>
<text text-anchor="middle" x="241" y="-194" font-family="Helvetica,sans-Serif" font-size="10.00">utility</text>
</a>
</g>
</g>
<!-- Node5&#45;&gt;Node8 -->
<g id="edge8_Node000005_Node000008" class="edge">
<title>Node5&#45;&gt;Node8</title>
<g id="a_edge8_Node000005_Node000008"><a xlink:title=" ">
<path fill="none" stroke="#63b8ff" d="M380.93,-241.99C347.93,-231.5 303.51,-217.37 273.65,-207.88"/>
<polygon fill="#63b8ff" stroke="#63b8ff" points="274.33,-204.42 263.74,-204.73 272.21,-211.09 274.33,-204.42"/>
</a>
</g>
</g>
<!-- Node9 -->
<g id="Node000009" class="node">
<title>Node9</title>
<g id="a_Node000009"><a xlink:href="i__input_8h.html" target="_top" xlink:title=" ">
<polygon fill="white" stroke="#666666" points="442,-206 320,-206 320,-187 442,-187 442,-206"/>
<text text-anchor="middle" x="381" y="-194" font-family="Helvetica,sans-Serif" font-size="10.00">engine/input/i_input.h</text>
</a>
</g>
</g>
<!-- Node5&#45;&gt;Node9 -->
<g id="edge9_Node000005_Node000009" class="edge">
<title>Node5&#45;&gt;Node9</title>
<g id="a_edge9_Node000005_Node000009"><a xlink:title=" ">
<path fill="none" stroke="#63b8ff" d="M414.35,-241.84C408.16,-233.61 400.31,-223.18 393.79,-214.51"/>
<polygon fill="#63b8ff" stroke="#63b8ff" points="396.4,-212.15 387.59,-206.27 390.81,-216.36 396.4,-212.15"/>
</a>
</g>
</g>
<!-- Node11 -->
<g id="Node000011" class="node">
<title>Node11</title>
<g id="a_Node000011"><a xlink:href="key__code_8h.html" target="_top" xlink:title=" ">
<polygon fill="white" stroke="#666666" points="178.5,-145.5 43.5,-145.5 43.5,-126.5 178.5,-126.5 178.5,-145.5"/>
<text text-anchor="middle" x="111" y="-133.5" font-family="Helvetica,sans-Serif" font-size="10.00">engine/input/key_code.h</text>
</a>
</g>
</g>
<!-- Node5&#45;&gt;Node11 -->
<g id="edge19_Node000005_Node000011" class="edge">
<title>Node5&#45;&gt;Node11</title>
<g id="a_edge19_Node000005_Node000011"><a xlink:title=" ">
<path fill="none" stroke="#63b8ff" d="M391.92,-241.91C369.08,-232.07 338.07,-218.52 311,-206 293.5,-197.9 289.93,-194.1 272,-187 232.54,-171.37 186.13,-157.4 153.3,-148.23"/>
<polygon fill="#63b8ff" stroke="#63b8ff" points="154.15,-144.83 143.57,-145.54 152.28,-151.58 154.15,-144.83"/>
</a>
</g>
</g>
<!-- Node14 -->
<g id="Node000014" class="node">
<title>Node14</title>
<g id="a_Node000014"><a xlink:href="mouse__state_8h.html" target="_top" xlink:title=" ">
<polygon fill="white" stroke="#666666" points="503.5,-151 390.5,-151 390.5,-121 503.5,-121 503.5,-151"/>
<text text-anchor="start" x="398.5" y="-139" font-family="Helvetica,sans-Serif" font-size="10.00">engine/input/mouse</text>
<text text-anchor="middle" x="447" y="-128" font-family="Helvetica,sans-Serif" font-size="10.00">_state.h</text>
</a>
</g>
</g>
<!-- Node5&#45;&gt;Node14 -->
<g id="edge21_Node000005_Node000014" class="edge">
<title>Node5&#45;&gt;Node14</title>
<g id="a_edge21_Node000005_Node000014"><a xlink:title=" ">
<path fill="none" stroke="#63b8ff" d="M434.7,-241.86C440.7,-232.23 447.84,-218.93 451,-206 454.57,-191.38 453.69,-174.51 451.85,-161.12"/>
<polygon fill="#63b8ff" stroke="#63b8ff" points="455.3,-160.54 450.24,-151.23 448.39,-161.66 455.3,-160.54"/>
</a>
</g>
</g>
<!-- Node15 -->
<g id="Node000015" class="node">
<title>Node15</title>
<g id="a_Node000015"><a xlink:href="mouse__button_8h.html" target="_top" xlink:title=" ">
<polygon fill="white" stroke="#666666" points="501.5,-85 388.5,-85 388.5,-55 501.5,-55 501.5,-85"/>
<text text-anchor="start" x="396.5" y="-73" font-family="Helvetica,sans-Serif" font-size="10.00">engine/input/mouse</text>
<text text-anchor="middle" x="445" y="-62" font-family="Helvetica,sans-Serif" font-size="10.00">_button.h</text>
</a>
</g>
</g>
<!-- Node5&#45;&gt;Node15 -->
<g id="edge20_Node000005_Node000015" class="edge">
<title>Node5&#45;&gt;Node15</title>
<g id="a_edge20_Node000005_Node000015"><a xlink:title=" ">
<path fill="none" stroke="#63b8ff" d="M442.7,-241.92C464.11,-223.63 499.04,-189.45 513,-151 517.55,-138.47 519.02,-132.9 513,-121 506.67,-108.5 495.59,-98.36 484.18,-90.56"/>
<polygon fill="#63b8ff" stroke="#63b8ff" points="485.79,-87.44 475.46,-85.06 482.05,-93.36 485.79,-87.44"/>
</a>
</g>
</g>
<!-- Node16 -->
<g id="Node000016" class="node">
<title>Node16</title>
<g id="a_Node000016"><a xlink:href="point_8h.html" target="_top" xlink:title=" ">
<polygon fill="white" stroke="#666666" points="620.5,-85 519.5,-85 519.5,-55 620.5,-55 620.5,-85"/>
<text text-anchor="start" x="527.5" y="-73" font-family="Helvetica,sans-Serif" font-size="10.00">engine/public/util</text>
<text text-anchor="middle" x="570" y="-62" font-family="Helvetica,sans-Serif" font-size="10.00">/point.h</text>
</a>
</g>
</g>
<!-- Node5&#45;&gt;Node16 -->
<g id="edge22_Node000005_Node000016" class="edge">
<title>Node5&#45;&gt;Node16</title>
<g id="a_edge22_Node000005_Node000016"><a xlink:title=" ">
<path fill="none" stroke="#63b8ff" d="M452.84,-241.98C468.18,-233.22 486.74,-220.8 500,-206 530.13,-172.38 551.24,-123.44 561.94,-94.65"/>
<polygon fill="#63b8ff" stroke="#63b8ff" points="565.31,-95.61 565.4,-85.02 558.72,-93.24 565.31,-95.61"/>
</a>
</g>
</g>
<!-- Node10 -->
<g id="Node000010" class="node">
<title>Node10</title>
<g id="a_Node000010"><a xlink:title=" ">
<polygon fill="#e0e0e0" stroke="#999999" points="298,-79.5 260,-79.5 260,-60.5 298,-60.5 298,-79.5"/>
<text text-anchor="middle" x="279" y="-67.5" font-family="Helvetica,sans-Serif" font-size="10.00">map</text>
</a>
</g>
</g>
<!-- Node9&#45;&gt;Node10 -->
<g id="edge10_Node000009_Node000010" class="edge">
<title>Node9&#45;&gt;Node10</title>
<g id="a_edge10_Node000009_Node000010"><a xlink:title=" ">
<path fill="none" stroke="#63b8ff" d="M326.55,-186.95C286.98,-179.5 238.3,-167.32 226,-151 209.44,-129.01 236.33,-102.08 257.49,-85.75"/>
<polygon fill="#63b8ff" stroke="#63b8ff" points="259.8,-88.39 265.78,-79.64 255.65,-82.75 259.8,-88.39"/>
</a>
</g>
</g>
<!-- Node9&#45;&gt;Node11 -->
<g id="edge11_Node000009_Node000011" class="edge">
<title>Node9&#45;&gt;Node11</title>
<g id="a_edge11_Node000009_Node000011"><a xlink:title=" ">
<path fill="none" stroke="#63b8ff" d="M341.74,-186.99C293.75,-176.6 212.5,-158.99 160.33,-147.69"/>
<polygon fill="#63b8ff" stroke="#63b8ff" points="160.82,-144.21 150.31,-145.52 159.34,-151.05 160.82,-144.21"/>
</a>
</g>
</g>
<!-- Node13 -->
<g id="Node000013" class="node">
<title>Node13</title>
<g id="a_Node000013"><a xlink:href="key__state_8h.html" target="_top" xlink:title=" ">
<polygon fill="white" stroke="#666666" points="372.5,-145.5 235.5,-145.5 235.5,-126.5 372.5,-126.5 372.5,-145.5"/>
<text text-anchor="middle" x="304" y="-133.5" font-family="Helvetica,sans-Serif" font-size="10.00">engine/input/key_state.h</text>
</a>
</g>
</g>
<!-- Node9&#45;&gt;Node13 -->
<g id="edge13_Node000009_Node000013" class="edge">
<title>Node9&#45;&gt;Node13</title>
<g id="a_edge13_Node000009_Node000013"><a xlink:title=" ">
<path fill="none" stroke="#63b8ff" d="M369.64,-186.87C357.58,-177.71 338.3,-163.06 323.75,-152.01"/>
<polygon fill="#63b8ff" stroke="#63b8ff" points="325.49,-148.93 315.41,-145.67 321.25,-154.5 325.49,-148.93"/>
</a>
</g>
</g>
<!-- Node9&#45;&gt;Node14 -->
<g id="edge14_Node000009_Node000014" class="edge">
<title>Node9&#45;&gt;Node14</title>
<g id="a_edge14_Node000009_Node000014"><a xlink:title=" ">
<path fill="none" stroke="#63b8ff" d="M390.74,-186.87C399.36,-179.22 412.3,-167.76 423.59,-157.75"/>
<polygon fill="#63b8ff" stroke="#63b8ff" points="425.91,-160.37 431.08,-151.11 421.27,-155.13 425.91,-160.37"/>
</a>
</g>
</g>
<!-- Node12 -->
<g id="Node000012" class="node">
<title>Node12</title>
<g id="a_Node000012"><a xlink:title=" ">
<polygon fill="#e0e0e0" stroke="#999999" points="375,-19 325,-19 325,0 375,0 375,-19"/>
<text text-anchor="middle" x="350" y="-7" font-family="Helvetica,sans-Serif" font-size="10.00">cstdint</text>
</a>
</g>
</g>
<!-- Node11&#45;&gt;Node12 -->
<g id="edge12_Node000011_Node000012" class="edge">
<title>Node11&#45;&gt;Node12</title>
<g id="a_edge12_Node000011_Node000012"><a xlink:title=" ">
<path fill="none" stroke="#63b8ff" d="M125.06,-126.36C150.01,-111.17 203.85,-79 251,-55 273.7,-43.45 300.03,-31.69 319.82,-23.16"/>
<polygon fill="#63b8ff" stroke="#63b8ff" points="321.43,-26.28 329.25,-19.13 318.68,-19.85 321.43,-26.28"/>
</a>
</g>
</g>
<!-- Node14&#45;&gt;Node10 -->
<g id="edge15_Node000014_Node000010" class="edge">
<title>Node14&#45;&gt;Node10</title>
<g id="a_edge15_Node000014_Node000010"><a xlink:title=" ">
<path fill="none" stroke="#63b8ff" d="M410.13,-120.95C379.33,-109.22 336.04,-92.73 307.76,-81.96"/>
<polygon fill="#63b8ff" stroke="#63b8ff" points="308.66,-78.55 298.07,-78.26 306.17,-85.09 308.66,-78.55"/>
</a>
</g>
</g>
<!-- Node14&#45;&gt;Node15 -->
<g id="edge16_Node000014_Node000015" class="edge">
<title>Node14&#45;&gt;Node15</title>
<g id="a_edge16_Node000014_Node000015"><a xlink:title=" ">
<path fill="none" stroke="#63b8ff" d="M446.56,-120.8C446.32,-113.34 446.03,-103.99 445.76,-95.41"/>
<polygon fill="#63b8ff" stroke="#63b8ff" points="449.25,-95.05 445.44,-85.16 442.26,-95.27 449.25,-95.05"/>
</a>
</g>
</g>
<!-- Node14&#45;&gt;Node16 -->
<g id="edge18_Node000014_Node000016" class="edge">
<title>Node14&#45;&gt;Node16</title>
<g id="a_edge18_Node000014_Node000016"><a xlink:title=" ">
<path fill="none" stroke="#63b8ff" d="M473.99,-120.95C491.62,-111.78 514.83,-99.71 534.02,-89.72"/>
<polygon fill="#63b8ff" stroke="#63b8ff" points="535.81,-92.73 543.07,-85.01 532.58,-86.52 535.81,-92.73"/>
</a>
</g>
</g>
<!-- Node15&#45;&gt;Node12 -->
<g id="edge17_Node000015_Node000012" class="edge">
<title>Node15&#45;&gt;Node12</title>
<g id="a_edge17_Node000015_Node000012"><a xlink:title=" ">
<path fill="none" stroke="#63b8ff" d="M422,-54.84C407,-45.6 387.5,-33.59 372.57,-24.4"/>
<polygon fill="#63b8ff" stroke="#63b8ff" points="374.31,-21.36 363.96,-19.09 370.64,-27.32 374.31,-21.36"/>
</a>
</g>
</g>
</g>
</svg>
