<?xml version="1.0" encoding="UTF-8" standalone="no"?>
<!DOCTYPE svg PUBLIC "-//W3C//DTD SVG 1.1//EN"
 "http://www.w3.org/Graphics/SVG/1.1/DTD/svg11.dtd">
<!-- Generated by graphviz version 2.43.0 (0)
 -->
<!-- Title: include/engine/input/input_system.h Pages: 1 -->
<svg width="683pt" height="346pt"
 viewBox="0.00 0.00 683.02 346.00" xmlns="http://www.w3.org/2000/svg" xmlns:xlink="http://www.w3.org/1999/xlink">
<g id="graph0" class="graph" transform="scale(1 1) rotate(0) translate(4 342)">
<title>include/engine/input/input_system.h</title>
<!-- Node1 -->
<g id="Node000001" class="node">
<title>Node1</title>
<g id="a_Node000001"><a xlink:title=" ">
<polygon fill="#999999" stroke="#666666" points="267.95,-338 151.95,-338 151.95,-308 267.95,-308 267.95,-338"/>
<text text-anchor="start" x="159.95" y="-326" font-family="Helvetica,sans-Serif" font-size="10.00">include/engine/input</text>
<text text-anchor="middle" x="209.95" y="-315" font-family="Helvetica,sans-Serif" font-size="10.00">/input_system.h</text>
</a>
</g>
</g>
<!-- Node2 -->
<g id="Node000002" class="node">
<title>Node2</title>
<g id="a_Node000002"><a xlink:title=" ">
<polygon fill="#e0e0e0" stroke="#999999" points="193.95,-79.5 155.95,-79.5 155.95,-60.5 193.95,-60.5 193.95,-79.5"/>
<text text-anchor="middle" x="174.95" y="-67.5" font-family="Helvetica,sans-Serif" font-size="10.00">map</text>
</a>
</g>
</g>
<!-- Node1&#45;&gt;Node2 -->
<g id="edge1_Node000001_Node000002" class="edge">
<title>Node1&#45;&gt;Node2</title>
<g id="a_edge1_Node000001_Node000002"><a xlink:title=" ">
<path fill="none" stroke="#63b8ff" d="M173.25,-307.81C153.41,-299.14 129.12,-286.87 109.95,-272 53.7,-228.35 29.86,-217.7 4.95,-151 0.29,-138.51 -3.04,-131.68 4.95,-121 21.85,-98.41 101.77,-82.53 145.75,-75.34"/>
<polygon fill="#63b8ff" stroke="#63b8ff" points="146.52,-78.76 155.84,-73.73 145.42,-71.84 146.52,-78.76"/>
</a>
</g>
</g>
<!-- Node3 -->
<g id="Node000003" class="node">
<title>Node3</title>
<g id="a_Node000003"><a xlink:href="i__input__provider_8h.html" target="_top" xlink:title=" ">
<polygon fill="white" stroke="#666666" points="425.45,-272 312.45,-272 312.45,-242 425.45,-242 425.45,-272"/>
<text text-anchor="start" x="320.45" y="-260" font-family="Helvetica,sans-Serif" font-size="10.00">engine/input/i_input</text>
<text text-anchor="middle" x="368.95" y="-249" font-family="Helvetica,sans-Serif" font-size="10.00">_provider.h</text>
</a>
</g>
</g>
<!-- Node1&#45;&gt;Node3 -->
<g id="edge2_Node000001_Node000003" class="edge">
<title>Node1&#45;&gt;Node3</title>
<g id="a_edge2_Node000001_Node000003"><a xlink:title=" ">
<path fill="none" stroke="#63b8ff" d="M244.85,-307.95C268.35,-298.49 299.55,-285.93 324.79,-275.78"/>
<polygon fill="#63b8ff" stroke="#63b8ff" points="326.17,-278.99 334.14,-272.01 323.56,-272.5 326.17,-278.99"/>
</a>
</g>
</g>
<!-- Node9 -->
<g id="Node000009" class="node">
<title>Node9</title>
<g id="a_Node000009"><a xlink:href="key__code_8h.html" target="_top" xlink:title=" ">
<polygon fill="white" stroke="#666666" points="551.45,-145.5 416.45,-145.5 416.45,-126.5 551.45,-126.5 551.45,-145.5"/>
<text text-anchor="middle" x="483.95" y="-133.5" font-family="Helvetica,sans-Serif" font-size="10.00">engine/input/key_code.h</text>
</a>
</g>
</g>
<!-- Node1&#45;&gt;Node9 -->
<g id="edge21_Node000001_Node000009" class="edge">
<title>Node1&#45;&gt;Node9</title>
<g id="a_edge21_Node000001_Node000009"><a xlink:title=" ">
<path fill="none" stroke="#63b8ff" d="M268.1,-316.13C380.1,-303.48 618.98,-269.53 666.95,-206 698.71,-163.95 624.7,-147.52 561.5,-141.11"/>
<polygon fill="#63b8ff" stroke="#63b8ff" points="561.75,-137.62 551.47,-140.16 561.09,-144.59 561.75,-137.62"/>
</a>
</g>
</g>
<!-- Node11 -->
<g id="Node000011" class="node">
<title>Node11</title>
<g id="a_Node000011"><a xlink:href="key__state_8h.html" target="_top" xlink:title=" ">
<polygon fill="white" stroke="#666666" points="151.45,-145.5 14.45,-145.5 14.45,-126.5 151.45,-126.5 151.45,-145.5"/>
<text text-anchor="middle" x="82.95" y="-133.5" font-family="Helvetica,sans-Serif" font-size="10.00">engine/input/key_state.h</text>
</a>
</g>
</g>
<!-- Node1&#45;&gt;Node11 -->
<g id="edge22_Node000001_Node000011" class="edge">
<title>Node1&#45;&gt;Node11</title>
<g id="a_edge22_Node000001_Node000011"><a xlink:title=" ">
<path fill="none" stroke="#63b8ff" d="M187.68,-307.88C159.49,-288.65 111.96,-251.36 89.95,-206 82.32,-190.27 81.09,-170.19 81.46,-155.75"/>
<polygon fill="#63b8ff" stroke="#63b8ff" points="84.97,-155.75 82.01,-145.57 77.98,-155.37 84.97,-155.75"/>
</a>
</g>
</g>
<!-- Node4 -->
<g id="Node000004" class="node">
<title>Node4</title>
<g id="a_Node000004"><a xlink:title=" ">
<polygon fill="#e0e0e0" stroke="#999999" points="507.45,-206 454.45,-206 454.45,-187 507.45,-187 507.45,-206"/>
<text text-anchor="middle" x="480.95" y="-194" font-family="Helvetica,sans-Serif" font-size="10.00">cstddef</text>
</a>
</g>
</g>
<!-- Node3&#45;&gt;Node4 -->
<g id="edge3_Node000003_Node000004" class="edge">
<title>Node3&#45;&gt;Node4</title>
<g id="a_edge3_Node000003_Node000004"><a xlink:title=" ">
<path fill="none" stroke="#63b8ff" d="M395.78,-241.99C413.8,-232.58 437.41,-220.24 455.2,-210.95"/>
<polygon fill="#63b8ff" stroke="#63b8ff" points="457.17,-213.87 464.41,-206.14 453.93,-207.67 457.17,-213.87"/>
</a>
</g>
</g>
<!-- Node5 -->
<g id="Node000005" class="node">
<title>Node5</title>
<g id="a_Node000005"><a xlink:title=" ">
<polygon fill="#e0e0e0" stroke="#999999" points="583.95,-206 525.95,-206 525.95,-187 583.95,-187 583.95,-206"/>
<text text-anchor="middle" x="554.95" y="-194" font-family="Helvetica,sans-Serif" font-size="10.00">memory</text>
</a>
</g>
</g>
<!-- Node3&#45;&gt;Node5 -->
<g id="edge4_Node000003_Node000005" class="edge">
<title>Node3&#45;&gt;Node5</title>
<g id="a_edge4_Node000003_Node000005"><a xlink:title=" ">
<path fill="none" stroke="#63b8ff" d="M413.5,-241.99C445.46,-231.94 488.02,-218.55 518.07,-209.1"/>
<polygon fill="#63b8ff" stroke="#63b8ff" points="519.27,-212.39 527.76,-206.05 517.17,-205.72 519.27,-212.39"/>
</a>
</g>
</g>
<!-- Node6 -->
<g id="Node000006" class="node">
<title>Node6</title>
<g id="a_Node000006"><a xlink:title=" ">
<polygon fill="#e0e0e0" stroke="#999999" points="657.95,-206 601.95,-206 601.95,-187 657.95,-187 657.95,-206"/>
<text text-anchor="middle" x="629.95" y="-194" font-family="Helvetica,sans-Serif" font-size="10.00">optional</text>
</a>
</g>
</g>
<!-- Node3&#45;&gt;Node6 -->
<g id="edge5_Node000003_Node000006" class="edge">
<title>Node3&#45;&gt;Node6</title>
<g id="a_edge5_Node000003_Node000006"><a xlink:title=" ">
<path fill="none" stroke="#63b8ff" d="M425.59,-243.46C468.59,-233.91 529.46,-220.36 591.68,-206.28"/>
<polygon fill="#63b8ff" stroke="#63b8ff" points="592.69,-209.64 601.67,-204.02 591.15,-202.81 592.69,-209.64"/>
</a>
</g>
</g>
<!-- Node7 -->
<g id="Node000007" class="node">
<title>Node7</title>
<g id="a_Node000007"><a xlink:title=" ">
<polygon fill="#e0e0e0" stroke="#999999" points="143.45,-206 98.45,-206 98.45,-187 143.45,-187 143.45,-206"/>
<text text-anchor="middle" x="120.95" y="-194" font-family="Helvetica,sans-Serif" font-size="10.00">utility</text>
</a>
</g>
</g>
<!-- Node3&#45;&gt;Node7 -->
<g id="edge6_Node000003_Node000007" class="edge">
<title>Node3&#45;&gt;Node7</title>
<g id="a_edge6_Node000003_Node000007"><a xlink:title=" ">
<path fill="none" stroke="#63b8ff" d="M312.44,-243.44C271.09,-234.13 213.4,-220.9 153.65,-206.11"/>
<polygon fill="#63b8ff" stroke="#63b8ff" points="154.2,-202.64 143.65,-203.63 152.52,-209.43 154.2,-202.64"/>
</a>
</g>
</g>
<!-- Node8 -->
<g id="Node000008" class="node">
<title>Node8</title>
<g id="a_Node000008"><a xlink:href="i__input_8h.html" target="_top" xlink:title=" ">
<polygon fill="white" stroke="#666666" points="283.95,-206 161.95,-206 161.95,-187 283.95,-187 283.95,-206"/>
<text text-anchor="middle" x="222.95" y="-194" font-family="Helvetica,sans-Serif" font-size="10.00">engine/input/i_input.h</text>
</a>
</g>
</g>
<!-- Node3&#45;&gt;Node8 -->
<g id="edge7_Node000003_Node000008" class="edge">
<title>Node3&#45;&gt;Node8</title>
<g id="a_edge7_Node000003_Node000008"><a xlink:title=" ">
<path fill="none" stroke="#63b8ff" d="M333.98,-241.99C309.62,-232.23 277.43,-219.33 253.98,-209.93"/>
<polygon fill="#63b8ff" stroke="#63b8ff" points="255.1,-206.61 244.51,-206.14 252.49,-213.11 255.1,-206.61"/>
</a>
</g>
</g>
<!-- Node3&#45;&gt;Node9 -->
<g id="edge17_Node000003_Node000009" class="edge">
<title>Node3&#45;&gt;Node9</title>
<g id="a_edge17_Node000003_Node000009"><a xlink:title=" ">
<path fill="none" stroke="#63b8ff" d="M382.6,-241.88C404.1,-219.63 445.74,-176.54 468.38,-153.11"/>
<polygon fill="#63b8ff" stroke="#63b8ff" points="471.1,-155.33 475.53,-145.71 466.07,-150.47 471.1,-155.33"/>
</a>
</g>
</g>
<!-- Node12 -->
<g id="Node000012" class="node">
<title>Node12</title>
<g id="a_Node000012"><a xlink:href="mouse__state_8h.html" target="_top" xlink:title=" ">
<polygon fill="white" stroke="#666666" points="321.45,-151 208.45,-151 208.45,-121 321.45,-121 321.45,-151"/>
<text text-anchor="start" x="216.45" y="-139" font-family="Helvetica,sans-Serif" font-size="10.00">engine/input/mouse</text>
<text text-anchor="middle" x="264.95" y="-128" font-family="Helvetica,sans-Serif" font-size="10.00">_state.h</text>
</a>
</g>
</g>
<!-- Node3&#45;&gt;Node12 -->
<g id="edge19_Node000003_Node000012" class="edge">
<title>Node3&#45;&gt;Node12</title>
<g id="a_edge19_Node000003_Node000012"><a xlink:title=" ">
<path fill="none" stroke="#63b8ff" d="M356.61,-241.88C338.63,-221.31 305.07,-182.9 283.93,-158.71"/>
<polygon fill="#63b8ff" stroke="#63b8ff" points="286.49,-156.33 277.27,-151.1 281.22,-160.93 286.49,-156.33"/>
</a>
</g>
</g>
<!-- Node13 -->
<g id="Node000013" class="node">
<title>Node13</title>
<g id="a_Node000013"><a xlink:href="mouse__button_8h.html" target="_top" xlink:title=" ">
<polygon fill="white" stroke="#666666" points="325.45,-85 212.45,-85 212.45,-55 325.45,-55 325.45,-85"/>
<text text-anchor="start" x="220.45" y="-73" font-family="Helvetica,sans-Serif" font-size="10.00">engine/input/mouse</text>
<text text-anchor="middle" x="268.95" y="-62" font-family="Helvetica,sans-Serif" font-size="10.00">_button.h</text>
</a>
</g>
</g>
<!-- Node3&#45;&gt;Node13 -->
<g id="edge18_Node000003_Node000013" class="edge">
<title>Node3&#45;&gt;Node13</title>
<g id="a_edge18_Node000003_Node000013"><a xlink:title=" ">
<path fill="none" stroke="#63b8ff" d="M367.8,-241.82C365.11,-215.86 356.56,-159.82 330.95,-121 323.32,-109.43 312.16,-99.26 301.41,-91.16"/>
<polygon fill="#63b8ff" stroke="#63b8ff" points="303.12,-88.08 292.95,-85.13 299.06,-93.78 303.12,-88.08"/>
</a>
</g>
</g>
<!-- Node14 -->
<g id="Node000014" class="node">
<title>Node14</title>
<g id="a_Node000014"><a xlink:href="point_8h.html" target="_top" xlink:title=" ">
<polygon fill="white" stroke="#666666" points="444.45,-85 343.45,-85 343.45,-55 444.45,-55 444.45,-85"/>
<text text-anchor="start" x="351.45" y="-73" font-family="Helvetica,sans-Serif" font-size="10.00">engine/public/util</text>
<text text-anchor="middle" x="393.95" y="-62" font-family="Helvetica,sans-Serif" font-size="10.00">/point.h</text>
</a>
</g>
</g>
<!-- Node3&#45;&gt;Node14 -->
<g id="edge20_Node000003_Node000014" class="edge">
<title>Node3&#45;&gt;Node14</title>
<g id="a_edge20_Node000003_Node000014"><a xlink:title=" ">
<path fill="none" stroke="#63b8ff" d="M370.87,-241.79C375.14,-210.24 385.43,-134.04 390.71,-94.97"/>
<polygon fill="#63b8ff" stroke="#63b8ff" points="394.19,-95.38 392.06,-85 387.25,-94.45 394.19,-95.38"/>
</a>
</g>
</g>
<!-- Node8&#45;&gt;Node2 -->
<g id="edge8_Node000008_Node000002" class="edge">
<title>Node8&#45;&gt;Node2</title>
<g id="a_edge8_Node000008_Node000002"><a xlink:title=" ">
<path fill="none" stroke="#63b8ff" d="M217.91,-186.85C212.9,-178.04 205.24,-163.87 199.95,-151 191.5,-130.44 184.24,-105.93 179.75,-89.51"/>
<polygon fill="#63b8ff" stroke="#63b8ff" points="183.06,-88.34 177.11,-79.58 176.3,-90.14 183.06,-88.34"/>
</a>
</g>
</g>
<!-- Node8&#45;&gt;Node9 -->
<g id="edge9_Node000008_Node000009" class="edge">
<title>Node8&#45;&gt;Node9</title>
<g id="a_edge9_Node000008_Node000009"><a xlink:title=" ">
<path fill="none" stroke="#63b8ff" d="M260.9,-186.99C307.2,-176.62 385.51,-159.07 435.95,-147.76"/>
<polygon fill="#63b8ff" stroke="#63b8ff" points="436.96,-151.12 445.95,-145.52 435.43,-144.29 436.96,-151.12"/>
</a>
</g>
</g>
<!-- Node8&#45;&gt;Node11 -->
<g id="edge11_Node000008_Node000011" class="edge">
<title>Node8&#45;&gt;Node11</title>
<g id="a_edge11_Node000008_Node000011"><a xlink:title=" ">
<path fill="none" stroke="#63b8ff" d="M202.6,-186.99C178.96,-177.12 139.75,-160.73 112.7,-149.43"/>
<polygon fill="#63b8ff" stroke="#63b8ff" points="113.91,-146.14 103.33,-145.52 111.21,-152.6 113.91,-146.14"/>
</a>
</g>
</g>
<!-- Node8&#45;&gt;Node12 -->
<g id="edge12_Node000008_Node000012" class="edge">
<title>Node8&#45;&gt;Node12</title>
<g id="a_edge12_Node000008_Node000012"><a xlink:title=" ">
<path fill="none" stroke="#63b8ff" d="M229.15,-186.87C234.32,-179.67 241.93,-169.07 248.8,-159.49"/>
<polygon fill="#63b8ff" stroke="#63b8ff" points="251.83,-161.28 254.82,-151.11 246.14,-157.2 251.83,-161.28"/>
</a>
</g>
</g>
<!-- Node10 -->
<g id="Node000010" class="node">
<title>Node10</title>
<g id="a_Node000010"><a xlink:title=" ">
<polygon fill="#e0e0e0" stroke="#999999" points="398.95,-19 348.95,-19 348.95,0 398.95,0 398.95,-19"/>
<text text-anchor="middle" x="373.95" y="-7" font-family="Helvetica,sans-Serif" font-size="10.00">cstdint</text>
</a>
</g>
</g>
<!-- Node9&#45;&gt;Node10 -->
<g id="edge10_Node000009_Node000010" class="edge">
<title>Node9&#45;&gt;Node10</title>
<g id="a_edge10_Node000009_Node000010"><a xlink:title=" ">
<path fill="none" stroke="#63b8ff" d="M482.71,-126.3C480.04,-110.43 472.44,-76.47 453.95,-55 441.84,-40.94 424.14,-30.45 408.46,-23.19"/>
<polygon fill="#63b8ff" stroke="#63b8ff" points="409.59,-19.87 399.03,-19.09 406.8,-26.29 409.59,-19.87"/>
</a>
</g>
</g>
<!-- Node12&#45;&gt;Node2 -->
<g id="edge13_Node000012_Node000002" class="edge">
<title>Node12&#45;&gt;Node2</title>
<g id="a_edge13_Node000012_Node000002"><a xlink:title=" ">
<path fill="none" stroke="#63b8ff" d="M244.98,-120.8C230.31,-110.37 210.44,-96.24 195.62,-85.69"/>
<polygon fill="#63b8ff" stroke="#63b8ff" points="197.31,-82.6 187.13,-79.66 193.25,-88.31 197.31,-82.6"/>
</a>
</g>
</g>
<!-- Node12&#45;&gt;Node13 -->
<g id="edge14_Node000012_Node000013" class="edge">
<title>Node12&#45;&gt;Node13</title>
<g id="a_edge14_Node000012_Node000013"><a xlink:title=" ">
<path fill="none" stroke="#63b8ff" d="M265.84,-120.8C266.31,-113.34 266.89,-103.99 267.43,-95.41"/>
<polygon fill="#63b8ff" stroke="#63b8ff" points="270.94,-95.36 268.07,-85.16 263.95,-94.93 270.94,-95.36"/>
</a>
</g>
</g>
<!-- Node12&#45;&gt;Node14 -->
<g id="edge16_Node000012_Node000014" class="edge">
<title>Node12&#45;&gt;Node14</title>
<g id="a_edge16_Node000012_Node000014"><a xlink:title=" ">
<path fill="none" stroke="#63b8ff" d="M293.26,-120.95C311.83,-111.74 336.31,-99.6 356.49,-89.59"/>
<polygon fill="#63b8ff" stroke="#63b8ff" points="358.31,-92.59 365.71,-85.01 355.2,-86.32 358.31,-92.59"/>
</a>
</g>
</g>
<!-- Node13&#45;&gt;Node10 -->
<g id="edge15_Node000013_Node000010" class="edge">
<title>Node13&#45;&gt;Node10</title>
<g id="a_edge15_Node000013_Node000010"><a xlink:title=" ">
<path fill="none" stroke="#63b8ff" d="M294.1,-54.99C310.84,-45.66 332.72,-33.47 349.34,-24.21"/>
<polygon fill="#63b8ff" stroke="#63b8ff" points="351.41,-27.06 358.45,-19.14 348.01,-20.95 351.41,-27.06"/>
</a>
</g>
</g>
</g>
</svg>
