<?xml version="1.0" encoding="UTF-8" standalone="no"?>
<!DOCTYPE svg PUBLIC "-//W3C//DTD SVG 1.1//EN"
 "http://www.w3.org/Graphics/SVG/1.1/DTD/svg11.dtd">
<!-- Generated by graphviz version 2.43.0 (0)
 -->
<!-- Title: include/engine/core/rendering/strategies/irendering_strategy.h Pages: 1 -->
<svg width="954pt" height="280pt"
 viewBox="0.00 0.00 953.50 280.00" xmlns="http://www.w3.org/2000/svg" xmlns:xlink="http://www.w3.org/1999/xlink">
<g id="graph0" class="graph" transform="scale(1 1) rotate(0) translate(4 276)">
<title>include/engine/core/rendering/strategies/irendering_strategy.h</title>
<!-- Node1 -->
<g id="Node000001" class="node">
<title>Node1</title>
<g id="a_Node000001"><a xlink:title=" ">
<polygon fill="#999999" stroke="#666666" points="557,-272 435,-272 435,-231 557,-231 557,-272"/>
<text text-anchor="start" x="443" y="-260" font-family="Helvetica,sans-Serif" font-size="10.00">include/engine/core</text>
<text text-anchor="start" x="443" y="-249" font-family="Helvetica,sans-Serif" font-size="10.00">/rendering/strategies</text>
<text text-anchor="middle" x="496" y="-238" font-family="Helvetica,sans-Serif" font-size="10.00">/irendering_strategy.h</text>
</a>
</g>
</g>
<!-- Node2 -->
<g id="Node000002" class="node">
<title>Node2</title>
<g id="a_Node000002"><a xlink:href="renderable_8h.html" target="_top" xlink:title=" ">
<polygon fill="white" stroke="#666666" points="365.5,-189.5 234.5,-189.5 234.5,-159.5 365.5,-159.5 365.5,-189.5"/>
<text text-anchor="start" x="242.5" y="-177.5" font-family="Helvetica,sans-Serif" font-size="10.00">include/engine/core</text>
<text text-anchor="middle" x="300" y="-166.5" font-family="Helvetica,sans-Serif" font-size="10.00">/rendering/renderable.h</text>
</a>
</g>
</g>
<!-- Node1&#45;&gt;Node2 -->
<g id="edge1_Node000001_Node000002" class="edge">
<title>Node1&#45;&gt;Node2</title>
<g id="a_edge1_Node000001_Node000002"><a xlink:title=" ">
<path fill="none" stroke="#63b8ff" d="M435.65,-227.41C403.34,-215.05 364.6,-200.22 336.8,-189.58"/>
<polygon fill="#63b8ff" stroke="#63b8ff" points="434.42,-230.69 445.01,-230.99 436.93,-224.15 434.42,-230.69"/>
</a>
</g>
</g>
<!-- Node3 -->
<g id="Node000003" class="node">
<title>Node3</title>
<g id="a_Node000003"><a xlink:href="sprite_8h.html" target="_top" xlink:title=" ">
<polygon fill="white" stroke="#666666" points="120,-112.5 0,-112.5 0,-82.5 120,-82.5 120,-112.5"/>
<text text-anchor="start" x="8" y="-100.5" font-family="Helvetica,sans-Serif" font-size="10.00">include/engine/public</text>
<text text-anchor="middle" x="60" y="-89.5" font-family="Helvetica,sans-Serif" font-size="10.00">/components/sprite.h</text>
</a>
</g>
</g>
<!-- Node1&#45;&gt;Node3 -->
<g id="edge15_Node000001_Node000003" class="edge">
<title>Node1&#45;&gt;Node3</title>
<g id="a_edge15_Node000001_Node000003"><a xlink:title=" ">
<path fill="none" stroke="#63b8ff" d="M424.8,-242.4C369.08,-234.53 290.34,-220.01 225,-195 168.59,-173.41 108.99,-133.74 79.25,-112.62"/>
<polygon fill="#63b8ff" stroke="#63b8ff" points="424.55,-245.9 434.93,-243.79 425.5,-238.96 424.55,-245.9"/>
</a>
</g>
</g>
<!-- Node8 -->
<g id="Node000008" class="node">
<title>Node8</title>
<g id="a_Node000008"><a xlink:href="sdl__text__strategy_8h.html" target="_top" xlink:title=" ">
<polygon fill="white" stroke="#666666" points="506.5,-41 377.5,-41 377.5,0 506.5,0 506.5,-41"/>
<text text-anchor="start" x="385.5" y="-29" font-family="Helvetica,sans-Serif" font-size="10.00">include/engine/core</text>
<text text-anchor="start" x="385.5" y="-18" font-family="Helvetica,sans-Serif" font-size="10.00">/rendering/strategies</text>
<text text-anchor="middle" x="442" y="-7" font-family="Helvetica,sans-Serif" font-size="10.00">/sdl/sdl_text_strategy.h</text>
</a>
</g>
</g>
<!-- Node1&#45;&gt;Node8 -->
<g id="edge14_Node000001_Node000008" class="edge">
<title>Node1&#45;&gt;Node8</title>
<g id="a_edge14_Node000001_Node000008"><a xlink:title=" ">
<path fill="none" stroke="#63b8ff" d="M474.89,-222.49C469.51,-214.05 464.32,-204.5 461,-195 442.37,-141.64 440.8,-73.95 441.32,-41.12"/>
<polygon fill="#63b8ff" stroke="#63b8ff" points="472.01,-224.48 480.5,-230.82 477.82,-220.57 472.01,-224.48"/>
</a>
</g>
</g>
<!-- Node9 -->
<g id="Node000009" class="node">
<title>Node9</title>
<g id="a_Node000009"><a xlink:href="irendering__strategy__factory_8h.html" target="_top" xlink:title=" ">
<polygon fill="white" stroke="#666666" points="632,-195 470,-195 470,-154 632,-154 632,-195"/>
<text text-anchor="start" x="478" y="-183" font-family="Helvetica,sans-Serif" font-size="10.00">include/engine/core</text>
<text text-anchor="start" x="478" y="-172" font-family="Helvetica,sans-Serif" font-size="10.00">/rendering/strategies</text>
<text text-anchor="middle" x="551" y="-161" font-family="Helvetica,sans-Serif" font-size="10.00">/irendering_strategy_factory.h</text>
</a>
</g>
</g>
<!-- Node1&#45;&gt;Node9 -->
<g id="edge9_Node000001_Node000009" class="edge">
<title>Node1&#45;&gt;Node9</title>
<g id="a_edge9_Node000001_Node000009"><a xlink:title=" ">
<path fill="none" stroke="#63b8ff" d="M516.41,-222.67C523.13,-213.5 530.47,-203.5 536.65,-195.07"/>
<polygon fill="#63b8ff" stroke="#63b8ff" points="513.54,-220.66 510.45,-230.79 519.19,-224.8 513.54,-220.66"/>
</a>
</g>
</g>
<!-- Node12 -->
<g id="Node000012" class="node">
<title>Node12</title>
<g id="a_Node000012"><a xlink:href="sdl__image__strategy_8h.html" target="_top" xlink:title=" ">
<polygon fill="white" stroke="#666666" points="790,-195 650,-195 650,-154 790,-154 790,-195"/>
<text text-anchor="start" x="658" y="-183" font-family="Helvetica,sans-Serif" font-size="10.00">include/engine/core</text>
<text text-anchor="start" x="658" y="-172" font-family="Helvetica,sans-Serif" font-size="10.00">/rendering/strategies</text>
<text text-anchor="middle" x="720" y="-161" font-family="Helvetica,sans-Serif" font-size="10.00">/sdl/sdl_image_strategy.h</text>
</a>
</g>
</g>
<!-- Node1&#45;&gt;Node12 -->
<g id="edge12_Node000001_Node000012" class="edge">
<title>Node1&#45;&gt;Node12</title>
<g id="a_edge12_Node000001_Node000012"><a xlink:title=" ">
<path fill="none" stroke="#63b8ff" d="M563.77,-227.81C594.98,-217.36 631.66,-205.08 661.63,-195.04"/>
<polygon fill="#63b8ff" stroke="#63b8ff" points="562.64,-224.5 554.27,-230.99 564.86,-231.13 562.64,-224.5"/>
</a>
</g>
</g>
<!-- Node13 -->
<g id="Node000013" class="node">
<title>Node13</title>
<g id="a_Node000013"><a xlink:href="sdl__sprite__strategy_8h.html" target="_top" xlink:title=" ">
<polygon fill="white" stroke="#666666" points="945.5,-195 808.5,-195 808.5,-154 945.5,-154 945.5,-195"/>
<text text-anchor="start" x="816.5" y="-183" font-family="Helvetica,sans-Serif" font-size="10.00">include/engine/core</text>
<text text-anchor="start" x="816.5" y="-172" font-family="Helvetica,sans-Serif" font-size="10.00">/rendering/strategies</text>
<text text-anchor="middle" x="877" y="-161" font-family="Helvetica,sans-Serif" font-size="10.00">/sdl/sdl_sprite_strategy.h</text>
</a>
</g>
</g>
<!-- Node1&#45;&gt;Node13 -->
<g id="edge13_Node000001_Node000013" class="edge">
<title>Node1&#45;&gt;Node13</title>
<g id="a_edge13_Node000001_Node000013"><a xlink:title=" ">
<path fill="none" stroke="#63b8ff" d="M567.16,-238.79C628.73,-228.34 720.03,-212.09 799,-195 802,-194.35 805.06,-193.67 808.15,-192.97"/>
<polygon fill="#63b8ff" stroke="#63b8ff" points="566.44,-235.36 557.16,-240.48 567.61,-242.26 566.44,-235.36"/>
</a>
</g>
</g>
<!-- Node2&#45;&gt;Node3 -->
<g id="edge2_Node000002_Node000003" class="edge">
<title>Node2&#45;&gt;Node3</title>
<g id="a_edge2_Node000002_Node000003"><a xlink:title=" ">
<path fill="none" stroke="#63b8ff" d="M245.53,-156.48C203.09,-143.21 144.88,-125.02 105.05,-112.58"/>
<polygon fill="#63b8ff" stroke="#63b8ff" points="244.55,-159.84 255.14,-159.48 246.64,-153.16 244.55,-159.84"/>
</a>
</g>
</g>
<!-- Node4 -->
<g id="Node000004" class="node">
<title>Node4</title>
<g id="a_Node000004"><a xlink:href="image_8h.html" target="_top" xlink:title=" ">
<polygon fill="white" stroke="#666666" points="272,-112.5 138,-112.5 138,-82.5 272,-82.5 272,-112.5"/>
<text text-anchor="start" x="146" y="-100.5" font-family="Helvetica,sans-Serif" font-size="10.00">include/engine/public</text>
<text text-anchor="middle" x="205" y="-89.5" font-family="Helvetica,sans-Serif" font-size="10.00">/components/ui/image.h</text>
</a>
</g>
</g>
<!-- Node2&#45;&gt;Node4 -->
<g id="edge3_Node000002_Node000004" class="edge">
<title>Node2&#45;&gt;Node4</title>
<g id="a_edge3_Node000002_Node000004"><a xlink:title=" ">
<path fill="none" stroke="#63b8ff" d="M274.07,-153.03C257.79,-140.18 237.23,-123.94 222.79,-112.54"/>
<polygon fill="#63b8ff" stroke="#63b8ff" points="272.11,-155.94 282.13,-159.39 276.45,-150.45 272.11,-155.94"/>
</a>
</g>
</g>
<!-- Node7 -->
<g id="Node000007" class="node">
<title>Node7</title>
<g id="a_Node000007"><a xlink:href="text_8h.html" target="_top" xlink:title=" ">
<polygon fill="white" stroke="#666666" points="413.5,-112.5 290.5,-112.5 290.5,-82.5 413.5,-82.5 413.5,-112.5"/>
<text text-anchor="start" x="298.5" y="-100.5" font-family="Helvetica,sans-Serif" font-size="10.00">include/engine/public</text>
<text text-anchor="middle" x="352" y="-89.5" font-family="Helvetica,sans-Serif" font-size="10.00">/components/ui/text.h</text>
</a>
</g>
</g>
<!-- Node2&#45;&gt;Node7 -->
<g id="edge6_Node000002_Node000007" class="edge">
<title>Node2&#45;&gt;Node7</title>
<g id="a_edge6_Node000002_Node000007"><a xlink:title=" ">
<path fill="none" stroke="#63b8ff" d="M315.69,-150.88C324.33,-138.41 334.79,-123.32 342.26,-112.54"/>
<polygon fill="#63b8ff" stroke="#63b8ff" points="312.6,-149.18 309.78,-159.39 318.35,-153.17 312.6,-149.18"/>
</a>
</g>
</g>
<!-- Node5 -->
<g id="Node000005" class="node">
<title>Node5</title>
<g id="a_Node000005"><a xlink:href="ui__input_8h.html" target="_top" xlink:title=" ">
<polygon fill="white" stroke="#666666" points="359.5,-35.5 218.5,-35.5 218.5,-5.5 359.5,-5.5 359.5,-35.5"/>
<text text-anchor="start" x="226.5" y="-23.5" font-family="Helvetica,sans-Serif" font-size="10.00">include/engine/public</text>
<text text-anchor="middle" x="289" y="-12.5" font-family="Helvetica,sans-Serif" font-size="10.00">/ui/interactable/ui_input.h</text>
</a>
</g>
</g>
<!-- Node4&#45;&gt;Node5 -->
<g id="edge4_Node000004_Node000005" class="edge">
<title>Node4&#45;&gt;Node5</title>
<g id="a_edge4_Node000004_Node000005"><a xlink:title=" ">
<path fill="none" stroke="#63b8ff" d="M228.33,-75.67C242.65,-62.88 260.62,-46.84 273.27,-35.54"/>
<polygon fill="#63b8ff" stroke="#63b8ff" points="225.93,-73.12 220.8,-82.39 230.59,-78.34 225.93,-73.12"/>
</a>
</g>
</g>
<!-- Node6 -->
<g id="Node000006" class="node">
<title>Node6</title>
<g id="a_Node000006"><a xlink:href="ui__image_8h.html" target="_top" xlink:title=" ">
<polygon fill="white" stroke="#666666" points="200,-35.5 80,-35.5 80,-5.5 200,-5.5 200,-35.5"/>
<text text-anchor="start" x="88" y="-23.5" font-family="Helvetica,sans-Serif" font-size="10.00">include/engine/public</text>
<text text-anchor="middle" x="140" y="-12.5" font-family="Helvetica,sans-Serif" font-size="10.00">/ui/ui_image.h</text>
</a>
</g>
</g>
<!-- Node4&#45;&gt;Node6 -->
<g id="edge5_Node000004_Node000006" class="edge">
<title>Node4&#45;&gt;Node6</title>
<g id="a_edge5_Node000004_Node000006"><a xlink:title=" ">
<path fill="none" stroke="#63b8ff" d="M186.02,-74.6C175.09,-61.99 161.69,-46.53 152.17,-35.54"/>
<polygon fill="#63b8ff" stroke="#63b8ff" points="183.58,-77.13 192.77,-82.39 188.87,-72.54 183.58,-77.13"/>
</a>
</g>
</g>
<!-- Node7&#45;&gt;Node5 -->
<g id="edge8_Node000007_Node000005" class="edge">
<title>Node7&#45;&gt;Node5</title>
<g id="a_edge8_Node000007_Node000005"><a xlink:title=" ">
<path fill="none" stroke="#63b8ff" d="M333.6,-74.6C323.01,-61.99 310.02,-46.53 300.8,-35.54"/>
<polygon fill="#63b8ff" stroke="#63b8ff" points="331.04,-76.99 340.15,-82.39 336.4,-72.48 331.04,-76.99"/>
</a>
</g>
</g>
<!-- Node7&#45;&gt;Node8 -->
<g id="edge7_Node000007_Node000008" class="edge">
<title>Node7&#45;&gt;Node8</title>
<g id="a_edge7_Node000007_Node000008"><a xlink:title=" ">
<path fill="none" stroke="#63b8ff" d="M376.97,-75.69C389.91,-64.91 405.62,-51.82 418.36,-41.2"/>
<polygon fill="#63b8ff" stroke="#63b8ff" points="374.37,-73.3 368.93,-82.39 378.85,-78.68 374.37,-73.3"/>
</a>
</g>
</g>
<!-- Node10 -->
<g id="Node000010" class="node">
<title>Node10</title>
<g id="a_Node000010"><a xlink:href="rendering_service_8h.html" target="_top" xlink:title=" ">
<polygon fill="white" stroke="#666666" points="631.5,-112.5 470.5,-112.5 470.5,-82.5 631.5,-82.5 631.5,-112.5"/>
<text text-anchor="start" x="478.5" y="-100.5" font-family="Helvetica,sans-Serif" font-size="10.00">include/engine/core</text>
<text text-anchor="middle" x="551" y="-89.5" font-family="Helvetica,sans-Serif" font-size="10.00">/rendering/renderingService.h</text>
</a>
</g>
</g>
<!-- Node9&#45;&gt;Node10 -->
<g id="edge10_Node000009_Node000010" class="edge">
<title>Node9&#45;&gt;Node10</title>
<g id="a_edge10_Node000009_Node000010"><a xlink:title=" ">
<path fill="none" stroke="#63b8ff" d="M551,-143.61C551,-133.01 551,-121.57 551,-112.86"/>
<polygon fill="#63b8ff" stroke="#63b8ff" points="547.5,-143.79 551,-153.79 554.5,-143.79 547.5,-143.79"/>
</a>
</g>
</g>
<!-- Node11 -->
<g id="Node000011" class="node">
<title>Node11</title>
<g id="a_Node000011"><a xlink:href="sdl__strategy__factory_8h.html" target="_top" xlink:title=" ">
<polygon fill="white" stroke="#666666" points="794,-118 650,-118 650,-77 794,-77 794,-118"/>
<text text-anchor="start" x="658" y="-106" font-family="Helvetica,sans-Serif" font-size="10.00">include/engine/core</text>
<text text-anchor="start" x="658" y="-95" font-family="Helvetica,sans-Serif" font-size="10.00">/rendering/strategies</text>
<text text-anchor="middle" x="722" y="-84" font-family="Helvetica,sans-Serif" font-size="10.00">/sdl/sdl_strategy_factory.h</text>
</a>
</g>
</g>
<!-- Node9&#45;&gt;Node11 -->
<g id="edge11_Node000009_Node000011" class="edge">
<title>Node9&#45;&gt;Node11</title>
<g id="a_edge11_Node000009_Node000011"><a xlink:title=" ">
<path fill="none" stroke="#63b8ff" d="M604.9,-149.86C628.25,-139.62 655.25,-127.77 677.44,-118.04"/>
<polygon fill="#63b8ff" stroke="#63b8ff" points="603.23,-146.77 595.48,-153.99 606.05,-153.18 603.23,-146.77"/>
</a>
</g>
</g>
</g>
</svg>
