<?xml version="1.0" encoding="UTF-8" standalone="no"?>
<!DOCTYPE svg PUBLIC "-//W3C//DTD SVG 1.1//EN"
 "http://www.w3.org/Graphics/SVG/1.1/DTD/svg11.dtd">
<!-- Generated by graphviz version 2.43.0 (0)
 -->
<!-- Title: include/engine/input/key_state.h Pages: 1 -->
<svg width="344pt" height="236pt"
 viewBox="0.00 0.00 344.00 236.00" xmlns="http://www.w3.org/2000/svg" xmlns:xlink="http://www.w3.org/1999/xlink">
<g id="graph0" class="graph" transform="scale(1 1) rotate(0) translate(4 232)">
<title>include/engine/input/key_state.h</title>
<!-- Node1 -->
<g id="Node000001" class="node">
<title>Node1</title>
<g id="a_Node000001"><a xlink:title=" ">
<polygon fill="#999999" stroke="#666666" points="336,-228 220,-228 220,-198 336,-198 336,-228"/>
<text text-anchor="start" x="228" y="-216" font-family="Helvetica,sans-Serif" font-size="10.00">include/engine/input</text>
<text text-anchor="middle" x="278" y="-205" font-family="Helvetica,sans-Serif" font-size="10.00">/key_state.h</text>
</a>
</g>
</g>
<!-- Node2 -->
<g id="Node000002" class="node">
<title>Node2</title>
<g id="a_Node000002"><a xlink:href="i__input_8h.html" target="_top" xlink:title=" ">
<polygon fill="white" stroke="#666666" points="273,-162 157,-162 157,-132 273,-132 273,-162"/>
<text text-anchor="start" x="165" y="-150" font-family="Helvetica,sans-Serif" font-size="10.00">include/engine/input</text>
<text text-anchor="middle" x="215" y="-139" font-family="Helvetica,sans-Serif" font-size="10.00">/i_input.h</text>
</a>
</g>
</g>
<!-- Node1&#45;&gt;Node2 -->
<g id="edge1_Node000001_Node000002" class="edge">
<title>Node1&#45;&gt;Node2</title>
<g id="a_edge1_Node000001_Node000002"><a xlink:title=" ">
<path fill="none" stroke="#63b8ff" d="M256.98,-190.65C247.75,-181.27 237.17,-170.53 228.94,-162.16"/>
<polygon fill="#63b8ff" stroke="#63b8ff" points="254.51,-193.13 264.02,-197.8 259.5,-188.21 254.51,-193.13"/>
</a>
</g>
</g>
<!-- Node5 -->
<g id="Node000005" class="node">
<title>Node5</title>
<g id="a_Node000005"><a xlink:href="input__system_8h.html" target="_top" xlink:title=" ">
<polygon fill="white" stroke="#666666" points="325,-30 209,-30 209,0 325,0 325,-30"/>
<text text-anchor="start" x="217" y="-18" font-family="Helvetica,sans-Serif" font-size="10.00">include/engine/input</text>
<text text-anchor="middle" x="267" y="-7" font-family="Helvetica,sans-Serif" font-size="10.00">/input_system.h</text>
</a>
</g>
</g>
<!-- Node1&#45;&gt;Node5 -->
<g id="edge7_Node000001_Node000005" class="edge">
<title>Node1&#45;&gt;Node5</title>
<g id="a_edge7_Node000001_Node000005"><a xlink:title=" ">
<path fill="none" stroke="#63b8ff" d="M294.39,-189.62C313.61,-160.44 340.64,-108.13 322,-66 315.42,-51.13 302,-38.79 290.06,-30.08"/>
<polygon fill="#63b8ff" stroke="#63b8ff" points="291.48,-187.67 288.73,-197.9 297.26,-191.62 291.48,-187.67"/>
</a>
</g>
</g>
<!-- Node3 -->
<g id="Node000003" class="node">
<title>Node3</title>
<g id="a_Node000003"><a xlink:href="i__input__provider_8h.html" target="_top" xlink:title=" ">
<polygon fill="white" stroke="#666666" points="116,-96 0,-96 0,-66 116,-66 116,-96"/>
<text text-anchor="start" x="8" y="-84" font-family="Helvetica,sans-Serif" font-size="10.00">include/engine/input</text>
<text text-anchor="middle" x="58" y="-73" font-family="Helvetica,sans-Serif" font-size="10.00">/i_input_provider.h</text>
</a>
</g>
</g>
<!-- Node2&#45;&gt;Node3 -->
<g id="edge2_Node000002_Node000003" class="edge">
<title>Node2&#45;&gt;Node3</title>
<g id="a_edge2_Node000002_Node000003"><a xlink:title=" ">
<path fill="none" stroke="#63b8ff" d="M170.98,-128.05C146.1,-117.91 115.47,-105.43 92.37,-96.01"/>
<polygon fill="#63b8ff" stroke="#63b8ff" points="169.96,-131.42 180.55,-131.95 172.61,-124.94 169.96,-131.42"/>
</a>
</g>
</g>
<!-- Node6 -->
<g id="Node000006" class="node">
<title>Node6</title>
<g id="a_Node000006"><a xlink:href="sdl__input__strategy_8h.html" target="_top" xlink:title=" ">
<polygon fill="white" stroke="#666666" points="295.5,-96 134.5,-96 134.5,-66 295.5,-66 295.5,-96"/>
<text text-anchor="start" x="142.5" y="-84" font-family="Helvetica,sans-Serif" font-size="10.00">include/engine/input</text>
<text text-anchor="middle" x="215" y="-73" font-family="Helvetica,sans-Serif" font-size="10.00">/strategy/sdl_input_strategy.h</text>
</a>
</g>
</g>
<!-- Node2&#45;&gt;Node6 -->
<g id="edge5_Node000002_Node000006" class="edge">
<title>Node2&#45;&gt;Node6</title>
<g id="a_edge5_Node000002_Node000006"><a xlink:title=" ">
<path fill="none" stroke="#63b8ff" d="M215,-121.54C215,-112.96 215,-103.61 215,-96.16"/>
<polygon fill="#63b8ff" stroke="#63b8ff" points="211.5,-121.8 215,-131.8 218.5,-121.8 211.5,-121.8"/>
</a>
</g>
</g>
<!-- Node4 -->
<g id="Node000004" class="node">
<title>Node4</title>
<g id="a_Node000004"><a xlink:href="input__manager_8h.html" target="_top" xlink:title=" ">
<polygon fill="white" stroke="#666666" points="116,-30 0,-30 0,0 116,0 116,-30"/>
<text text-anchor="start" x="8" y="-18" font-family="Helvetica,sans-Serif" font-size="10.00">include/engine/input</text>
<text text-anchor="middle" x="58" y="-7" font-family="Helvetica,sans-Serif" font-size="10.00">/input_manager.h</text>
</a>
</g>
</g>
<!-- Node3&#45;&gt;Node4 -->
<g id="edge3_Node000003_Node000004" class="edge">
<title>Node3&#45;&gt;Node4</title>
<g id="a_edge3_Node000003_Node000004"><a xlink:title=" ">
<path fill="none" stroke="#63b8ff" d="M58,-55.54C58,-46.96 58,-37.61 58,-30.16"/>
<polygon fill="#63b8ff" stroke="#63b8ff" points="54.5,-55.8 58,-65.8 61.5,-55.8 54.5,-55.8"/>
</a>
</g>
</g>
<!-- Node3&#45;&gt;Node5 -->
<g id="edge4_Node000003_Node000005" class="edge">
<title>Node3&#45;&gt;Node5</title>
<g id="a_edge4_Node000003_Node000005"><a xlink:title=" ">
<path fill="none" stroke="#63b8ff" d="M113.55,-62.99C147.18,-52.69 189.55,-39.72 221.24,-30.01"/>
<polygon fill="#63b8ff" stroke="#63b8ff" points="112.4,-59.68 103.87,-65.95 114.45,-66.37 112.4,-59.68"/>
</a>
</g>
</g>
<!-- Node6&#45;&gt;Node6 -->
<g id="edge6_Node000006_Node000006" class="edge">
<title>Node6&#45;&gt;Node6</title>
<g id="a_edge6_Node000006_Node000006"><a xlink:title=" ">
<path fill="none" stroke="#63b8ff" d="M305.71,-89.22C310.6,-87.21 313.5,-84.47 313.5,-81 313.5,-75.59 306.43,-71.95 295.77,-70.09"/>
<polygon fill="#63b8ff" stroke="#63b8ff" points="304.51,-85.92 295.77,-91.91 306.34,-92.67 304.51,-85.92"/>
</a>
</g>
</g>
</g>
</svg>
