<?xml version="1.0" encoding="UTF-8" standalone="no"?>
<!DOCTYPE svg PUBLIC "-//W3C//DTD SVG 1.1//EN"
 "http://www.w3.org/Graphics/SVG/1.1/DTD/svg11.dtd">
<!-- Generated by graphviz version 2.43.0 (0)
 -->
<!-- Title: include/engine/input/mouse_state.h Pages: 1 -->
<svg width="389pt" height="236pt"
 viewBox="0.00 0.00 388.50 236.00" xmlns="http://www.w3.org/2000/svg" xmlns:xlink="http://www.w3.org/1999/xlink">
<g id="graph0" class="graph" transform="scale(1 1) rotate(0) translate(4 232)">
<title>include/engine/input/mouse_state.h</title>
<!-- Node1 -->
<g id="Node000001" class="node">
<title>Node1</title>
<g id="a_Node000001"><a xlink:title=" ">
<polygon fill="#999999" stroke="#666666" points="226,-228 110,-228 110,-198 226,-198 226,-228"/>
<text text-anchor="start" x="118" y="-216" font-family="Helvetica,sans-Serif" font-size="10.00">include/engine/input</text>
<text text-anchor="middle" x="168" y="-205" font-family="Helvetica,sans-Serif" font-size="10.00">/mouse_state.h</text>
</a>
</g>
</g>
<!-- Node2 -->
<g id="Node000002" class="node">
<title>Node2</title>
<g id="a_Node000002"><a xlink:href="i__input_8h.html" target="_top" xlink:title=" ">
<polygon fill="white" stroke="#666666" points="269,-162 153,-162 153,-132 269,-132 269,-162"/>
<text text-anchor="start" x="161" y="-150" font-family="Helvetica,sans-Serif" font-size="10.00">include/engine/input</text>
<text text-anchor="middle" x="211" y="-139" font-family="Helvetica,sans-Serif" font-size="10.00">/i_input.h</text>
</a>
</g>
</g>
<!-- Node1&#45;&gt;Node2 -->
<g id="edge1_Node000001_Node000002" class="edge">
<title>Node1&#45;&gt;Node2</title>
<g id="a_edge1_Node000001_Node000002"><a xlink:title=" ">
<path fill="none" stroke="#63b8ff" d="M183.29,-189.24C189.36,-180.21 196.14,-170.11 201.48,-162.16"/>
<polygon fill="#63b8ff" stroke="#63b8ff" points="180.21,-187.54 177.54,-197.8 186.03,-191.45 180.21,-187.54"/>
</a>
</g>
</g>
<!-- Node3 -->
<g id="Node000003" class="node">
<title>Node3</title>
<g id="a_Node000003"><a xlink:href="i__input__provider_8h.html" target="_top" xlink:title=" ">
<polygon fill="white" stroke="#666666" points="183,-96 67,-96 67,-66 183,-66 183,-96"/>
<text text-anchor="start" x="75" y="-84" font-family="Helvetica,sans-Serif" font-size="10.00">include/engine/input</text>
<text text-anchor="middle" x="125" y="-73" font-family="Helvetica,sans-Serif" font-size="10.00">/i_input_provider.h</text>
</a>
</g>
</g>
<!-- Node1&#45;&gt;Node3 -->
<g id="edge7_Node000001_Node000003" class="edge">
<title>Node1&#45;&gt;Node3</title>
<g id="a_edge7_Node000001_Node000003"><a xlink:title=" ">
<path fill="none" stroke="#63b8ff" d="M155.61,-188.84C151.51,-180.54 147.19,-171 144,-162 136.04,-139.53 130.38,-112.33 127.41,-96.14"/>
<polygon fill="#63b8ff" stroke="#63b8ff" points="152.57,-190.59 160.23,-197.91 158.81,-187.41 152.57,-190.59"/>
</a>
</g>
</g>
<!-- Node2&#45;&gt;Node3 -->
<g id="edge2_Node000002_Node000003" class="edge">
<title>Node2&#45;&gt;Node3</title>
<g id="a_edge2_Node000002_Node000003"><a xlink:title=" ">
<path fill="none" stroke="#63b8ff" d="M183.79,-125.75C170.86,-116.13 155.71,-104.86 144.03,-96.16"/>
<polygon fill="#63b8ff" stroke="#63b8ff" points="181.8,-128.63 191.91,-131.8 185.98,-123.02 181.8,-128.63"/>
</a>
</g>
</g>
<!-- Node6 -->
<g id="Node000006" class="node">
<title>Node6</title>
<g id="a_Node000006"><a xlink:href="sdl__input__strategy_8h.html" target="_top" xlink:title=" ">
<polygon fill="white" stroke="#666666" points="362.5,-96 201.5,-96 201.5,-66 362.5,-66 362.5,-96"/>
<text text-anchor="start" x="209.5" y="-84" font-family="Helvetica,sans-Serif" font-size="10.00">include/engine/input</text>
<text text-anchor="middle" x="282" y="-73" font-family="Helvetica,sans-Serif" font-size="10.00">/strategy/sdl_input_strategy.h</text>
</a>
</g>
</g>
<!-- Node2&#45;&gt;Node6 -->
<g id="edge5_Node000002_Node000006" class="edge">
<title>Node2&#45;&gt;Node6</title>
<g id="a_edge5_Node000002_Node000006"><a xlink:title=" ">
<path fill="none" stroke="#63b8ff" d="M234.38,-124.92C244.85,-115.49 256.92,-104.61 266.29,-96.16"/>
<polygon fill="#63b8ff" stroke="#63b8ff" points="231.84,-122.5 226.76,-131.8 236.53,-127.7 231.84,-122.5"/>
</a>
</g>
</g>
<!-- Node4 -->
<g id="Node000004" class="node">
<title>Node4</title>
<g id="a_Node000004"><a xlink:href="input__manager_8h.html" target="_top" xlink:title=" ">
<polygon fill="white" stroke="#666666" points="116,-30 0,-30 0,0 116,0 116,-30"/>
<text text-anchor="start" x="8" y="-18" font-family="Helvetica,sans-Serif" font-size="10.00">include/engine/input</text>
<text text-anchor="middle" x="58" y="-7" font-family="Helvetica,sans-Serif" font-size="10.00">/input_manager.h</text>
</a>
</g>
</g>
<!-- Node3&#45;&gt;Node4 -->
<g id="edge3_Node000003_Node000004" class="edge">
<title>Node3&#45;&gt;Node4</title>
<g id="a_edge3_Node000003_Node000004"><a xlink:title=" ">
<path fill="none" stroke="#63b8ff" d="M102.65,-58.65C92.83,-49.27 81.58,-38.53 72.83,-30.16"/>
<polygon fill="#63b8ff" stroke="#63b8ff" points="100.48,-61.42 110.13,-65.8 105.32,-56.36 100.48,-61.42"/>
</a>
</g>
</g>
<!-- Node5 -->
<g id="Node000005" class="node">
<title>Node5</title>
<g id="a_Node000005"><a xlink:href="input__system_8h.html" target="_top" xlink:title=" ">
<polygon fill="white" stroke="#666666" points="250,-30 134,-30 134,0 250,0 250,-30"/>
<text text-anchor="start" x="142" y="-18" font-family="Helvetica,sans-Serif" font-size="10.00">include/engine/input</text>
<text text-anchor="middle" x="192" y="-7" font-family="Helvetica,sans-Serif" font-size="10.00">/input_system.h</text>
</a>
</g>
</g>
<!-- Node3&#45;&gt;Node5 -->
<g id="edge4_Node000003_Node000005" class="edge">
<title>Node3&#45;&gt;Node5</title>
<g id="a_edge4_Node000003_Node000005"><a xlink:title=" ">
<path fill="none" stroke="#63b8ff" d="M147.35,-58.65C157.17,-49.27 168.42,-38.53 177.17,-30.16"/>
<polygon fill="#63b8ff" stroke="#63b8ff" points="144.68,-56.36 139.87,-65.8 149.52,-61.42 144.68,-56.36"/>
</a>
</g>
</g>
<!-- Node6&#45;&gt;Node6 -->
<g id="edge6_Node000006_Node000006" class="edge">
<title>Node6&#45;&gt;Node6</title>
<g id="a_edge6_Node000006_Node000006"><a xlink:title=" ">
<path fill="none" stroke="#63b8ff" d="M372.71,-89.22C377.6,-87.21 380.5,-84.47 380.5,-81 380.5,-75.59 373.43,-71.95 362.77,-70.09"/>
<polygon fill="#63b8ff" stroke="#63b8ff" points="371.51,-85.92 362.77,-91.91 373.34,-92.67 371.51,-85.92"/>
</a>
</g>
</g>
</g>
</svg>
