<?xml version="1.0" encoding="UTF-8" standalone="no"?>
<!DOCTYPE svg PUBLIC "-//W3C//DTD SVG 1.1//EN"
 "http://www.w3.org/Graphics/SVG/1.1/DTD/svg11.dtd">
<!-- Generated by graphviz version 2.43.0 (0)
 -->
<!-- Title: include/engine/input/mouse_button.h Pages: 1 -->
<svg width="389pt" height="302pt"
 viewBox="0.00 0.00 388.50 302.00" xmlns="http://www.w3.org/2000/svg" xmlns:xlink="http://www.w3.org/1999/xlink">
<g id="graph0" class="graph" transform="scale(1 1) rotate(0) translate(4 298)">
<title>include/engine/input/mouse_button.h</title>
<!-- Node1 -->
<g id="Node000001" class="node">
<title>Node1</title>
<g id="a_Node000001"><a xlink:title=" ">
<polygon fill="#999999" stroke="#666666" points="207,-294 91,-294 91,-264 207,-264 207,-294"/>
<text text-anchor="start" x="99" y="-282" font-family="Helvetica,sans-Serif" font-size="10.00">include/engine/input</text>
<text text-anchor="middle" x="149" y="-271" font-family="Helvetica,sans-Serif" font-size="10.00">/mouse_button.h</text>
</a>
</g>
</g>
<!-- Node2 -->
<g id="Node000002" class="node">
<title>Node2</title>
<g id="a_Node000002"><a xlink:href="i__input__provider_8h.html" target="_top" xlink:title=" ">
<polygon fill="white" stroke="#666666" points="183,-96 67,-96 67,-66 183,-66 183,-96"/>
<text text-anchor="start" x="75" y="-84" font-family="Helvetica,sans-Serif" font-size="10.00">include/engine/input</text>
<text text-anchor="middle" x="125" y="-73" font-family="Helvetica,sans-Serif" font-size="10.00">/i_input_provider.h</text>
</a>
</g>
</g>
<!-- Node1&#45;&gt;Node2 -->
<g id="edge1_Node000001_Node000002" class="edge">
<title>Node1&#45;&gt;Node2</title>
<g id="a_edge1_Node000001_Node000002"><a xlink:title=" ">
<path fill="none" stroke="#63b8ff" d="M135.22,-254.82C131.08,-246.64 127.09,-237.18 125,-228 114.26,-180.79 119.54,-122.76 122.92,-96.33"/>
<polygon fill="#63b8ff" stroke="#63b8ff" points="132.21,-256.62 140.04,-263.76 138.37,-253.29 132.21,-256.62"/>
</a>
</g>
</g>
<!-- Node5 -->
<g id="Node000005" class="node">
<title>Node5</title>
<g id="a_Node000005"><a xlink:href="mouse__state_8h.html" target="_top" xlink:title=" ">
<polygon fill="white" stroke="#666666" points="250,-228 134,-228 134,-198 250,-198 250,-228"/>
<text text-anchor="start" x="142" y="-216" font-family="Helvetica,sans-Serif" font-size="10.00">include/engine/input</text>
<text text-anchor="middle" x="192" y="-205" font-family="Helvetica,sans-Serif" font-size="10.00">/mouse_state.h</text>
</a>
</g>
</g>
<!-- Node1&#45;&gt;Node5 -->
<g id="edge4_Node000001_Node000005" class="edge">
<title>Node1&#45;&gt;Node5</title>
<g id="a_edge4_Node000001_Node000005"><a xlink:title=" ">
<path fill="none" stroke="#63b8ff" d="M164.29,-255.24C170.36,-246.21 177.14,-236.11 182.48,-228.16"/>
<polygon fill="#63b8ff" stroke="#63b8ff" points="161.21,-253.54 158.54,-263.8 167.03,-257.45 161.21,-253.54"/>
</a>
</g>
</g>
<!-- Node3 -->
<g id="Node000003" class="node">
<title>Node3</title>
<g id="a_Node000003"><a xlink:href="input__manager_8h.html" target="_top" xlink:title=" ">
<polygon fill="white" stroke="#666666" points="116,-30 0,-30 0,0 116,0 116,-30"/>
<text text-anchor="start" x="8" y="-18" font-family="Helvetica,sans-Serif" font-size="10.00">include/engine/input</text>
<text text-anchor="middle" x="58" y="-7" font-family="Helvetica,sans-Serif" font-size="10.00">/input_manager.h</text>
</a>
</g>
</g>
<!-- Node2&#45;&gt;Node3 -->
<g id="edge2_Node000002_Node000003" class="edge">
<title>Node2&#45;&gt;Node3</title>
<g id="a_edge2_Node000002_Node000003"><a xlink:title=" ">
<path fill="none" stroke="#63b8ff" d="M102.65,-58.65C92.83,-49.27 81.58,-38.53 72.83,-30.16"/>
<polygon fill="#63b8ff" stroke="#63b8ff" points="100.48,-61.42 110.13,-65.8 105.32,-56.36 100.48,-61.42"/>
</a>
</g>
</g>
<!-- Node4 -->
<g id="Node000004" class="node">
<title>Node4</title>
<g id="a_Node000004"><a xlink:href="input__system_8h.html" target="_top" xlink:title=" ">
<polygon fill="white" stroke="#666666" points="250,-30 134,-30 134,0 250,0 250,-30"/>
<text text-anchor="start" x="142" y="-18" font-family="Helvetica,sans-Serif" font-size="10.00">include/engine/input</text>
<text text-anchor="middle" x="192" y="-7" font-family="Helvetica,sans-Serif" font-size="10.00">/input_system.h</text>
</a>
</g>
</g>
<!-- Node2&#45;&gt;Node4 -->
<g id="edge3_Node000002_Node000004" class="edge">
<title>Node2&#45;&gt;Node4</title>
<g id="a_edge3_Node000002_Node000004"><a xlink:title=" ">
<path fill="none" stroke="#63b8ff" d="M147.35,-58.65C157.17,-49.27 168.42,-38.53 177.17,-30.16"/>
<polygon fill="#63b8ff" stroke="#63b8ff" points="144.68,-56.36 139.87,-65.8 149.52,-61.42 144.68,-56.36"/>
</a>
</g>
</g>
<!-- Node5&#45;&gt;Node2 -->
<g id="edge9_Node000005_Node000002" class="edge">
<title>Node5&#45;&gt;Node2</title>
<g id="a_edge9_Node000005_Node000002"><a xlink:title=" ">
<path fill="none" stroke="#63b8ff" d="M178.06,-188.89C173.15,-180.5 167.69,-170.9 163,-162 151.04,-139.28 138.51,-112.16 131.25,-96.05"/>
<polygon fill="#63b8ff" stroke="#63b8ff" points="175.2,-190.92 183.31,-197.73 181.22,-187.35 175.2,-190.92"/>
</a>
</g>
</g>
<!-- Node6 -->
<g id="Node000006" class="node">
<title>Node6</title>
<g id="a_Node000006"><a xlink:href="i__input_8h.html" target="_top" xlink:title=" ">
<polygon fill="white" stroke="#666666" points="288,-162 172,-162 172,-132 288,-132 288,-162"/>
<text text-anchor="start" x="180" y="-150" font-family="Helvetica,sans-Serif" font-size="10.00">include/engine/input</text>
<text text-anchor="middle" x="230" y="-139" font-family="Helvetica,sans-Serif" font-size="10.00">/i_input.h</text>
</a>
</g>
</g>
<!-- Node5&#45;&gt;Node6 -->
<g id="edge5_Node000005_Node000006" class="edge">
<title>Node5&#45;&gt;Node6</title>
<g id="a_edge5_Node000005_Node000006"><a xlink:title=" ">
<path fill="none" stroke="#63b8ff" d="M205.68,-188.96C211,-180 216.92,-170.03 221.59,-162.16"/>
<polygon fill="#63b8ff" stroke="#63b8ff" points="202.53,-187.41 200.43,-197.8 208.55,-190.98 202.53,-187.41"/>
</a>
</g>
</g>
<!-- Node6&#45;&gt;Node2 -->
<g id="edge6_Node000006_Node000002" class="edge">
<title>Node6&#45;&gt;Node2</title>
<g id="a_edge6_Node000006_Node000002"><a xlink:title=" ">
<path fill="none" stroke="#63b8ff" d="M198.33,-126.69C182.12,-116.82 162.75,-105.01 147.99,-96.01"/>
<polygon fill="#63b8ff" stroke="#63b8ff" points="196.6,-129.74 206.96,-131.95 200.24,-123.76 196.6,-129.74"/>
</a>
</g>
</g>
<!-- Node7 -->
<g id="Node000007" class="node">
<title>Node7</title>
<g id="a_Node000007"><a xlink:href="sdl__input__strategy_8h.html" target="_top" xlink:title=" ">
<polygon fill="white" stroke="#666666" points="362.5,-96 201.5,-96 201.5,-66 362.5,-66 362.5,-96"/>
<text text-anchor="start" x="209.5" y="-84" font-family="Helvetica,sans-Serif" font-size="10.00">include/engine/input</text>
<text text-anchor="middle" x="282" y="-73" font-family="Helvetica,sans-Serif" font-size="10.00">/strategy/sdl_input_strategy.h</text>
</a>
</g>
</g>
<!-- Node6&#45;&gt;Node7 -->
<g id="edge7_Node000006_Node000007" class="edge">
<title>Node6&#45;&gt;Node7</title>
<g id="a_edge7_Node000006_Node000007"><a xlink:title=" ">
<path fill="none" stroke="#63b8ff" d="M248.03,-123.81C255.48,-114.64 263.9,-104.28 270.49,-96.16"/>
<polygon fill="#63b8ff" stroke="#63b8ff" points="245.13,-121.83 241.54,-131.8 250.56,-126.24 245.13,-121.83"/>
</a>
</g>
</g>
<!-- Node7&#45;&gt;Node7 -->
<g id="edge8_Node000007_Node000007" class="edge">
<title>Node7&#45;&gt;Node7</title>
<g id="a_edge8_Node000007_Node000007"><a xlink:title=" ">
<path fill="none" stroke="#63b8ff" d="M372.71,-89.22C377.6,-87.21 380.5,-84.47 380.5,-81 380.5,-75.59 373.43,-71.95 362.77,-70.09"/>
<polygon fill="#63b8ff" stroke="#63b8ff" points="371.51,-85.92 362.77,-91.91 373.34,-92.67 371.51,-85.92"/>
</a>
</g>
</g>
</g>
</svg>
