<?xml version="1.0" encoding="UTF-8" standalone="no"?>
<!DOCTYPE svg PUBLIC "-//W3C//DTD SVG 1.1//EN"
 "http://www.w3.org/Graphics/SVG/1.1/DTD/svg11.dtd">
<!-- Generated by graphviz version 2.43.0 (0)
 -->
<!-- Title: include/engine/network/network_message.h Pages: 1 -->
<svg width="382pt" height="236pt"
 viewBox="0.00 0.00 382.00 236.00" xmlns="http://www.w3.org/2000/svg" xmlns:xlink="http://www.w3.org/1999/xlink">
<g id="graph0" class="graph" transform="scale(1 1) rotate(0) translate(4 232)">
<title>include/engine/network/network_message.h</title>
<!-- Node1 -->
<g id="Node000001" class="node">
<title>Node1</title>
<g id="a_Node000001"><a xlink:title=" ">
<polygon fill="#999999" stroke="#666666" points="299,-228 168,-228 168,-198 299,-198 299,-228"/>
<text text-anchor="start" x="176" y="-216" font-family="Helvetica,sans-Serif" font-size="10.00">include/engine/network</text>
<text text-anchor="middle" x="233.5" y="-205" font-family="Helvetica,sans-Serif" font-size="10.00">/network_message.h</text>
</a>
</g>
</g>
<!-- Node2 -->
<g id="Node000002" class="node">
<title>Node2</title>
<g id="a_Node000002"><a xlink:href="router_8h.html" target="_top" xlink:title=" ">
<polygon fill="white" stroke="#666666" points="225,-162 94,-162 94,-132 225,-132 225,-162"/>
<text text-anchor="start" x="102" y="-150" font-family="Helvetica,sans-Serif" font-size="10.00">include/engine/network</text>
<text text-anchor="middle" x="159.5" y="-139" font-family="Helvetica,sans-Serif" font-size="10.00">/router.h</text>
</a>
</g>
</g>
<!-- Node1&#45;&gt;Node2 -->
<g id="edge1_Node000001_Node000002" class="edge">
<title>Node1&#45;&gt;Node2</title>
<g id="a_edge1_Node000001_Node000002"><a xlink:title=" ">
<path fill="none" stroke="#63b8ff" d="M209.45,-191.2C198.47,-181.7 185.74,-170.69 175.88,-162.16"/>
<polygon fill="#63b8ff" stroke="#63b8ff" points="207.22,-193.9 217.08,-197.8 211.8,-188.61 207.22,-193.9"/>
</a>
</g>
</g>
<!-- Node6 -->
<g id="Node000006" class="node">
<title>Node6</title>
<g id="a_Node000006"><a xlink:href="snapshot_8h.html" target="_top" xlink:title=" ">
<polygon fill="white" stroke="#666666" points="374,-162 243,-162 243,-132 374,-132 374,-162"/>
<text text-anchor="start" x="251" y="-150" font-family="Helvetica,sans-Serif" font-size="10.00">include/engine/network</text>
<text text-anchor="middle" x="308.5" y="-139" font-family="Helvetica,sans-Serif" font-size="10.00">/snapshot.h</text>
</a>
</g>
</g>
<!-- Node1&#45;&gt;Node6 -->
<g id="edge7_Node000001_Node000006" class="edge">
<title>Node1&#45;&gt;Node6</title>
<g id="a_edge7_Node000001_Node000006"><a xlink:title=" ">
<path fill="none" stroke="#63b8ff" d="M257.87,-191.2C269.01,-181.7 281.91,-170.69 291.9,-162.16"/>
<polygon fill="#63b8ff" stroke="#63b8ff" points="255.48,-188.64 250.14,-197.8 260.02,-193.97 255.48,-188.64"/>
</a>
</g>
</g>
<!-- Node3 -->
<g id="Node000003" class="node">
<title>Node3</title>
<g id="a_Node000003"><a xlink:href="client_8h.html" target="_top" xlink:title=" ">
<polygon fill="white" stroke="#666666" points="131,-96 0,-96 0,-66 131,-66 131,-96"/>
<text text-anchor="start" x="8" y="-84" font-family="Helvetica,sans-Serif" font-size="10.00">include/engine/network</text>
<text text-anchor="middle" x="65.5" y="-73" font-family="Helvetica,sans-Serif" font-size="10.00">/client.h</text>
</a>
</g>
</g>
<!-- Node2&#45;&gt;Node3 -->
<g id="edge2_Node000002_Node000003" class="edge">
<title>Node2&#45;&gt;Node3</title>
<g id="a_edge2_Node000002_Node000003"><a xlink:title=" ">
<path fill="none" stroke="#63b8ff" d="M130.17,-126.03C115.94,-116.34 99.19,-104.94 86.3,-96.16"/>
<polygon fill="#63b8ff" stroke="#63b8ff" points="128.4,-129.06 138.64,-131.8 132.34,-123.28 128.4,-129.06"/>
</a>
</g>
</g>
<!-- Node4 -->
<g id="Node000004" class="node">
<title>Node4</title>
<g id="a_Node000004"><a xlink:href="multiplayer__service_8h.html" target="_top" xlink:title=" ">
<polygon fill="white" stroke="#666666" points="225,-30 94,-30 94,0 225,0 225,-30"/>
<text text-anchor="start" x="102" y="-18" font-family="Helvetica,sans-Serif" font-size="10.00">include/engine/network</text>
<text text-anchor="middle" x="159.5" y="-7" font-family="Helvetica,sans-Serif" font-size="10.00">/multiplayer_service.h</text>
</a>
</g>
</g>
<!-- Node2&#45;&gt;Node4 -->
<g id="edge6_Node000002_Node000004" class="edge">
<title>Node2&#45;&gt;Node4</title>
<g id="a_edge6_Node000002_Node000004"><a xlink:title=" ">
<path fill="none" stroke="#63b8ff" d="M159.5,-121.68C159.5,-94.7 159.5,-52.11 159.5,-30.14"/>
<polygon fill="#63b8ff" stroke="#63b8ff" points="156,-121.84 159.5,-131.84 163,-121.84 156,-121.84"/>
</a>
</g>
</g>
<!-- Node5 -->
<g id="Node000005" class="node">
<title>Node5</title>
<g id="a_Node000005"><a xlink:href="host_8h.html" target="_top" xlink:title=" ">
<polygon fill="white" stroke="#666666" points="319,-96 188,-96 188,-66 319,-66 319,-96"/>
<text text-anchor="start" x="196" y="-84" font-family="Helvetica,sans-Serif" font-size="10.00">include/engine/network</text>
<text text-anchor="middle" x="253.5" y="-73" font-family="Helvetica,sans-Serif" font-size="10.00">/host.h</text>
</a>
</g>
</g>
<!-- Node2&#45;&gt;Node5 -->
<g id="edge4_Node000002_Node000005" class="edge">
<title>Node2&#45;&gt;Node5</title>
<g id="a_edge4_Node000002_Node000005"><a xlink:title=" ">
<path fill="none" stroke="#63b8ff" d="M188.83,-126.03C203.06,-116.34 219.81,-104.94 232.7,-96.16"/>
<polygon fill="#63b8ff" stroke="#63b8ff" points="186.66,-123.28 180.36,-131.8 190.6,-129.06 186.66,-123.28"/>
</a>
</g>
</g>
<!-- Node3&#45;&gt;Node4 -->
<g id="edge3_Node000003_Node000004" class="edge">
<title>Node3&#45;&gt;Node4</title>
<g id="a_edge3_Node000003_Node000004"><a xlink:title=" ">
<path fill="none" stroke="#63b8ff" d="M94.83,-60.03C109.06,-50.34 125.81,-38.94 138.7,-30.16"/>
<polygon fill="#63b8ff" stroke="#63b8ff" points="92.66,-57.28 86.36,-65.8 96.6,-63.06 92.66,-57.28"/>
</a>
</g>
</g>
<!-- Node5&#45;&gt;Node4 -->
<g id="edge5_Node000005_Node000004" class="edge">
<title>Node5&#45;&gt;Node4</title>
<g id="a_edge5_Node000005_Node000004"><a xlink:title=" ">
<path fill="none" stroke="#63b8ff" d="M224.17,-60.03C209.94,-50.34 193.19,-38.94 180.3,-30.16"/>
<polygon fill="#63b8ff" stroke="#63b8ff" points="222.4,-63.06 232.64,-65.8 226.34,-57.28 222.4,-63.06"/>
</a>
</g>
</g>
</g>
</svg>
