<?xml version="1.0" encoding="UTF-8" standalone="no"?>
<!DOCTYPE svg PUBLIC "-//W3C//DTD SVG 1.1//EN"
 "http://www.w3.org/Graphics/SVG/1.1/DTD/svg11.dtd">
<!-- Generated by graphviz version 2.43.0 (0)
 -->
<!-- Title: include/engine/physics/raycast/physics_raycaster.h Pages: 1 -->
<svg width="325pt" height="170pt"
 viewBox="0.00 0.00 324.78 170.00" xmlns="http://www.w3.org/2000/svg" xmlns:xlink="http://www.w3.org/1999/xlink">
<g id="graph0" class="graph" transform="scale(1 1) rotate(0) translate(4 166)">
<title>include/engine/physics/raycast/physics_raycaster.h</title>
<!-- Node1 -->
<g id="Node000001" class="node">
<title>Node1</title>
<g id="a_Node000001"><a xlink:title=" ">
<polygon fill="#999999" stroke="#666666" points="191.78,-162 36.78,-162 36.78,-132 191.78,-132 191.78,-162"/>
<text text-anchor="start" x="44.78" y="-150" font-family="Helvetica,sans-Serif" font-size="10.00">include/engine/physics</text>
<text text-anchor="middle" x="114.28" y="-139" font-family="Helvetica,sans-Serif" font-size="10.00">/raycast/physics_raycaster.h</text>
</a>
</g>
</g>
<!-- Node2 -->
<g id="Node000002" class="node">
<title>Node2</title>
<g id="a_Node000002"><a xlink:title=" ">
<polygon fill="#e0e0e0" stroke="#999999" points="137.78,-24.5 48.78,-24.5 48.78,-5.5 137.78,-5.5 137.78,-24.5"/>
<text text-anchor="middle" x="93.28" y="-12.5" font-family="Helvetica,sans-Serif" font-size="10.00">box2d/box2d.h</text>
</a>
</g>
</g>
<!-- Node1&#45;&gt;Node2 -->
<g id="edge1_Node000001_Node000002" class="edge">
<title>Node1&#45;&gt;Node2</title>
<g id="a_edge1_Node000001_Node000002"><a xlink:title=" ">
<path fill="none" stroke="#63b8ff" d="M53.56,-132C34.85,-124.53 16.29,-113.17 5.28,-96 -1.92,-84.78 -1.43,-77.52 5.28,-66 15.64,-48.19 34.98,-36.2 52.89,-28.44"/>
<polygon fill="#63b8ff" stroke="#63b8ff" points="54.64,-31.51 62.63,-24.56 52.05,-25.01 54.64,-31.51"/>
</a>
</g>
</g>
<!-- Node3 -->
<g id="Node000003" class="node">
<title>Node3</title>
<g id="a_Node000003"><a xlink:title=" ">
<polygon fill="#e0e0e0" stroke="#999999" points="72.28,-90.5 14.28,-90.5 14.28,-71.5 72.28,-71.5 72.28,-90.5"/>
<text text-anchor="middle" x="43.28" y="-78.5" font-family="Helvetica,sans-Serif" font-size="10.00">memory</text>
</a>
</g>
</g>
<!-- Node1&#45;&gt;Node3 -->
<g id="edge2_Node000001_Node000003" class="edge">
<title>Node1&#45;&gt;Node3</title>
<g id="a_edge2_Node000001_Node000003"><a xlink:title=" ">
<path fill="none" stroke="#63b8ff" d="M98.52,-131.8C87.34,-121.72 72.34,-108.19 60.78,-97.78"/>
<polygon fill="#63b8ff" stroke="#63b8ff" points="62.86,-94.94 53.09,-90.84 58.17,-100.14 62.86,-94.94"/>
</a>
</g>
</g>
<!-- Node4 -->
<g id="Node000004" class="node">
<title>Node4</title>
<g id="a_Node000004"><a xlink:title=" ">
<polygon fill="#e0e0e0" stroke="#999999" points="137.78,-90.5 90.78,-90.5 90.78,-71.5 137.78,-71.5 137.78,-90.5"/>
<text text-anchor="middle" x="114.28" y="-78.5" font-family="Helvetica,sans-Serif" font-size="10.00">vector</text>
</a>
</g>
</g>
<!-- Node1&#45;&gt;Node4 -->
<g id="edge3_Node000001_Node000004" class="edge">
<title>Node1&#45;&gt;Node4</title>
<g id="a_edge3_Node000001_Node000004"><a xlink:title=" ">
<path fill="none" stroke="#63b8ff" d="M114.28,-131.8C114.28,-122.7 114.28,-110.79 114.28,-100.9"/>
<polygon fill="#63b8ff" stroke="#63b8ff" points="117.78,-100.84 114.28,-90.84 110.78,-100.84 117.78,-100.84"/>
</a>
</g>
</g>
<!-- Node5 -->
<g id="Node000005" class="node">
<title>Node5</title>
<g id="a_Node000005"><a xlink:href="point_8h.html" target="_top" xlink:title=" ">
<polygon fill="white" stroke="#666666" points="316.78,-30 215.78,-30 215.78,0 316.78,0 316.78,-30"/>
<text text-anchor="start" x="223.78" y="-18" font-family="Helvetica,sans-Serif" font-size="10.00">engine/public/util</text>
<text text-anchor="middle" x="266.28" y="-7" font-family="Helvetica,sans-Serif" font-size="10.00">/point.h</text>
</a>
</g>
</g>
<!-- Node1&#45;&gt;Node5 -->
<g id="edge4_Node000001_Node000005" class="edge">
<title>Node1&#45;&gt;Node5</title>
<g id="a_edge4_Node000001_Node000005"><a xlink:title=" ">
<path fill="none" stroke="#63b8ff" d="M191.98,-133.82C234.28,-125.44 280.55,-112.77 293.28,-96 306.11,-79.1 295.79,-55.73 284.41,-38.61"/>
<polygon fill="#63b8ff" stroke="#63b8ff" points="287.13,-36.4 278.47,-30.3 281.43,-40.47 287.13,-36.4"/>
</a>
</g>
</g>
<!-- Node6 -->
<g id="Node000006" class="node">
<title>Node6</title>
<g id="a_Node000006"><a xlink:href="collider__ray__result_8h.html" target="_top" xlink:title=" ">
<polygon fill="white" stroke="#666666" points="284.28,-96 156.28,-96 156.28,-66 284.28,-66 284.28,-96"/>
<text text-anchor="start" x="164.28" y="-84" font-family="Helvetica,sans-Serif" font-size="10.00">engine/physics/raycast</text>
<text text-anchor="middle" x="220.28" y="-73" font-family="Helvetica,sans-Serif" font-size="10.00">/collider_ray_result.h</text>
</a>
</g>
</g>
<!-- Node1&#45;&gt;Node6 -->
<g id="edge5_Node000001_Node000006" class="edge">
<title>Node1&#45;&gt;Node6</title>
<g id="a_edge5_Node000001_Node000006"><a xlink:title=" ">
<path fill="none" stroke="#63b8ff" d="M137.54,-131.95C152.45,-122.95 172.01,-111.14 188.36,-101.27"/>
<polygon fill="#63b8ff" stroke="#63b8ff" points="190.32,-104.18 197.07,-96.01 186.7,-98.18 190.32,-104.18"/>
</a>
</g>
</g>
<!-- Node6&#45;&gt;Node2 -->
<g id="edge6_Node000006_Node000002" class="edge">
<title>Node6&#45;&gt;Node2</title>
<g id="a_edge6_Node000006_Node000002"><a xlink:title=" ">
<path fill="none" stroke="#63b8ff" d="M192.41,-65.95C170.62,-54.98 140.57,-39.83 119.28,-29.11"/>
<polygon fill="#63b8ff" stroke="#63b8ff" points="120.68,-25.89 110.18,-24.52 117.53,-32.14 120.68,-25.89"/>
</a>
</g>
</g>
<!-- Node6&#45;&gt;Node5 -->
<g id="edge7_Node000006_Node000005" class="edge">
<title>Node6&#45;&gt;Node5</title>
<g id="a_edge7_Node000006_Node000005"><a xlink:title=" ">
<path fill="none" stroke="#63b8ff" d="M230.49,-65.8C236.26,-57.76 243.62,-47.53 250.16,-38.43"/>
<polygon fill="#63b8ff" stroke="#63b8ff" points="253.1,-40.33 256.1,-30.16 247.42,-36.24 253.1,-40.33"/>
</a>
</g>
</g>
</g>
</svg>
