<?xml version="1.0" encoding="UTF-8" standalone="no"?>
<!DOCTYPE svg PUBLIC "-//W3C//DTD SVG 1.1//EN"
 "http://www.w3.org/Graphics/SVG/1.1/DTD/svg11.dtd">
<!-- Generated by graphviz version 2.43.0 (0)
 -->
<!-- Title: include/engine/physics/physics_service.h Pages: 1 -->
<svg width="1594pt" height="357pt"
 viewBox="0.00 0.00 1594.00 357.00" xmlns="http://www.w3.org/2000/svg" xmlns:xlink="http://www.w3.org/1999/xlink">
<g id="graph0" class="graph" transform="scale(1 1) rotate(0) translate(4 353)">
<title>include/engine/physics/physics_service.h</title>
<!-- Node1 -->
<g id="Node000001" class="node">
<title>Node1</title>
<g id="a_Node000001"><a xlink:title=" ">
<polygon fill="#999999" stroke="#666666" points="985,-349 857,-349 857,-319 985,-319 985,-349"/>
<text text-anchor="start" x="865" y="-337" font-family="Helvetica,sans-Serif" font-size="10.00">include/engine/physics</text>
<text text-anchor="middle" x="921" y="-326" font-family="Helvetica,sans-Serif" font-size="10.00">/physics_service.h</text>
</a>
</g>
</g>
<!-- Node2 -->
<g id="Node000002" class="node">
<title>Node2</title>
<g id="a_Node000002"><a xlink:title=" ">
<polygon fill="#e0e0e0" stroke="#999999" points="1177.5,-19 1088.5,-19 1088.5,0 1177.5,0 1177.5,-19"/>
<text text-anchor="middle" x="1133" y="-7" font-family="Helvetica,sans-Serif" font-size="10.00">box2d/box2d.h</text>
</a>
</g>
</g>
<!-- Node1&#45;&gt;Node2 -->
<g id="edge1_Node000001_Node000002" class="edge">
<title>Node1&#45;&gt;Node2</title>
<g id="a_edge1_Node000001_Node000002"><a xlink:title=" ">
<path fill="none" stroke="#63b8ff" d="M985.06,-333.92C1151.73,-334.59 1586,-324.68 1586,-203 1586,-203 1586,-203 1586,-135 1586,-53.27 1308.38,-23.2 1187.81,-14"/>
<polygon fill="#63b8ff" stroke="#63b8ff" points="1187.91,-10.5 1177.68,-13.25 1187.39,-17.48 1187.91,-10.5"/>
</a>
</g>
</g>
<!-- Node3 -->
<g id="Node000003" class="node">
<title>Node3</title>
<g id="a_Node000003"><a xlink:href="i_engine_service_8h.html" target="_top" xlink:title=" ">
<polygon fill="white" stroke="#666666" points="158,-277.5 0,-277.5 0,-258.5 158,-258.5 158,-277.5"/>
<text text-anchor="middle" x="79" y="-265.5" font-family="Helvetica,sans-Serif" font-size="10.00">engine/core/iEngineService.h</text>
</a>
</g>
</g>
<!-- Node1&#45;&gt;Node3 -->
<g id="edge2_Node000001_Node000003" class="edge">
<title>Node1&#45;&gt;Node3</title>
<g id="a_edge2_Node000001_Node000003"><a xlink:title=" ">
<path fill="none" stroke="#63b8ff" d="M856.72,-330.5C726.99,-325.07 424.65,-310.4 172,-283 161.79,-281.89 150.98,-280.48 140.49,-278.99"/>
<polygon fill="#63b8ff" stroke="#63b8ff" points="140.95,-275.52 130.55,-277.54 139.94,-282.45 140.95,-275.52"/>
</a>
</g>
</g>
<!-- Node5 -->
<g id="Node000005" class="node">
<title>Node5</title>
<g id="a_Node000005"><a xlink:href="physics__creation__factory_8h.html" target="_top" xlink:title=" ">
<polygon fill="white" stroke="#666666" points="761.5,-217 612.5,-217 612.5,-187 761.5,-187 761.5,-217"/>
<text text-anchor="start" x="620.5" y="-205" font-family="Helvetica,sans-Serif" font-size="10.00">engine/physics/creation</text>
<text text-anchor="middle" x="687" y="-194" font-family="Helvetica,sans-Serif" font-size="10.00">/physics_creation_factory.h</text>
</a>
</g>
</g>
<!-- Node1&#45;&gt;Node5 -->
<g id="edge4_Node000001_Node000005" class="edge">
<title>Node1&#45;&gt;Node5</title>
<g id="a_edge4_Node000001_Node000005"><a xlink:title=" ">
<path fill="none" stroke="#63b8ff" d="M895.51,-318.84C853.31,-295.4 768.89,-248.49 721.43,-222.13"/>
<polygon fill="#63b8ff" stroke="#63b8ff" points="722.9,-218.94 712.46,-217.14 719.5,-225.06 722.9,-218.94"/>
</a>
</g>
</g>
<!-- Node15 -->
<g id="Node000015" class="node">
<title>Node15</title>
<g id="a_Node000015"><a xlink:title=" ">
<polygon fill="#e0e0e0" stroke="#999999" points="291,-79.5 233,-79.5 233,-60.5 291,-60.5 291,-79.5"/>
<text text-anchor="middle" x="262" y="-67.5" font-family="Helvetica,sans-Serif" font-size="10.00">memory</text>
</a>
</g>
</g>
<!-- Node1&#45;&gt;Node15 -->
<g id="edge49_Node000001_Node000015" class="edge">
<title>Node1&#45;&gt;Node15</title>
<g id="a_edge49_Node000001_Node000015"><a xlink:title=" ">
<path fill="none" stroke="#63b8ff" d="M856.97,-332.25C701.33,-328.94 309.98,-311.23 229,-217 201.19,-184.64 215.45,-161.78 228,-121 231.79,-108.68 239.77,-96.68 247.04,-87.52"/>
<polygon fill="#63b8ff" stroke="#63b8ff" points="249.87,-89.6 253.64,-79.7 244.51,-85.09 249.87,-89.6"/>
</a>
</g>
</g>
<!-- Node18 -->
<g id="Node000018" class="node">
<title>Node18</title>
<g id="a_Node000018"><a xlink:href="physics__math_8h.html" target="_top" xlink:title=" ">
<polygon fill="white" stroke="#666666" points="1557.5,-217 1428.5,-217 1428.5,-187 1557.5,-187 1557.5,-217"/>
<text text-anchor="start" x="1436.5" y="-205" font-family="Helvetica,sans-Serif" font-size="10.00">engine/physics/physics</text>
<text text-anchor="middle" x="1493" y="-194" font-family="Helvetica,sans-Serif" font-size="10.00">_math.h</text>
</a>
</g>
</g>
<!-- Node1&#45;&gt;Node18 -->
<g id="edge28_Node000001_Node000018" class="edge">
<title>Node1&#45;&gt;Node18</title>
<g id="a_edge28_Node000001_Node000018"><a xlink:title=" ">
<path fill="none" stroke="#63b8ff" d="M985.18,-323.38C1042.56,-314.36 1128.8,-299.77 1203,-283 1285.35,-264.38 1379.33,-237.38 1437.42,-220"/>
<polygon fill="#63b8ff" stroke="#63b8ff" points="1438.56,-223.32 1447.13,-217.09 1436.54,-216.61 1438.56,-223.32"/>
</a>
</g>
</g>
<!-- Node19 -->
<g id="Node000019" class="node">
<title>Node19</title>
<g id="a_Node000019"><a xlink:href="physics__raycaster_8h.html" target="_top" xlink:title=" ">
<polygon fill="white" stroke="#666666" points="1194,-283 1066,-283 1066,-253 1194,-253 1194,-283"/>
<text text-anchor="start" x="1074" y="-271" font-family="Helvetica,sans-Serif" font-size="10.00">engine/physics/raycast</text>
<text text-anchor="middle" x="1130" y="-260" font-family="Helvetica,sans-Serif" font-size="10.00">/physics_raycaster.h</text>
</a>
</g>
</g>
<!-- Node1&#45;&gt;Node19 -->
<g id="edge31_Node000001_Node000019" class="edge">
<title>Node1&#45;&gt;Node19</title>
<g id="a_edge31_Node000001_Node000019"><a xlink:title=" ">
<path fill="none" stroke="#63b8ff" d="M966.87,-318.95C998.58,-309.24 1040.95,-296.27 1074.56,-285.98"/>
<polygon fill="#63b8ff" stroke="#63b8ff" points="1075.7,-289.29 1084.24,-283.01 1073.65,-282.59 1075.7,-289.29"/>
</a>
</g>
</g>
<!-- Node21 -->
<g id="Node000021" class="node">
<title>Node21</title>
<g id="a_Node000021"><a xlink:href="physics__world_8h.html" target="_top" xlink:title=" ">
<polygon fill="white" stroke="#666666" points="980.5,-283 861.5,-283 861.5,-253 980.5,-253 980.5,-283"/>
<text text-anchor="start" x="869.5" y="-271" font-family="Helvetica,sans-Serif" font-size="10.00">engine/physics/world</text>
<text text-anchor="middle" x="921" y="-260" font-family="Helvetica,sans-Serif" font-size="10.00">/physics_world.h</text>
</a>
</g>
</g>
<!-- Node1&#45;&gt;Node21 -->
<g id="edge39_Node000001_Node000021" class="edge">
<title>Node1&#45;&gt;Node21</title>
<g id="a_edge39_Node000001_Node000021"><a xlink:title=" ">
<path fill="none" stroke="#63b8ff" d="M921,-318.8C921,-311.34 921,-301.99 921,-293.41"/>
<polygon fill="#63b8ff" stroke="#63b8ff" points="924.5,-293.16 921,-283.16 917.5,-293.16 924.5,-293.16"/>
</a>
</g>
</g>
<!-- Node4 -->
<g id="Node000004" class="node">
<title>Node4</title>
<g id="a_Node000004"><a xlink:title=" ">
<polygon fill="#e0e0e0" stroke="#999999" points="109,-211.5 49,-211.5 49,-192.5 109,-192.5 109,-211.5"/>
<text text-anchor="middle" x="79" y="-199.5" font-family="Helvetica,sans-Serif" font-size="10.00">concepts</text>
</a>
</g>
</g>
<!-- Node3&#45;&gt;Node4 -->
<g id="edge3_Node000003_Node000004" class="edge">
<title>Node3&#45;&gt;Node4</title>
<g id="a_edge3_Node000003_Node000004"><a xlink:title=" ">
<path fill="none" stroke="#63b8ff" d="M79,-258.37C79,-249.16 79,-234.29 79,-222.27"/>
<polygon fill="#63b8ff" stroke="#63b8ff" points="82.5,-221.91 79,-211.91 75.5,-221.91 82.5,-221.91"/>
</a>
</g>
</g>
<!-- Node5&#45;&gt;Node2 -->
<g id="edge5_Node000005_Node000002" class="edge">
<title>Node5&#45;&gt;Node2</title>
<g id="a_edge5_Node000005_Node000002"><a xlink:title=" ">
<path fill="none" stroke="#63b8ff" d="M696.59,-186.83C717.78,-156.82 771.81,-86.96 836,-55 877.46,-34.36 1004.39,-20.94 1078.21,-14.65"/>
<polygon fill="#63b8ff" stroke="#63b8ff" points="1078.59,-18.13 1088.26,-13.81 1078.01,-11.16 1078.59,-18.13"/>
</a>
</g>
</g>
<!-- Node6 -->
<g id="Node000006" class="node">
<title>Node6</title>
<g id="a_Node000006"><a xlink:href="physics__creation__flags_8h.html" target="_top" xlink:title=" ">
<polygon fill="white" stroke="#666666" points="467.5,-151 328.5,-151 328.5,-121 467.5,-121 467.5,-151"/>
<text text-anchor="start" x="336.5" y="-139" font-family="Helvetica,sans-Serif" font-size="10.00">engine/physics/creation</text>
<text text-anchor="middle" x="398" y="-128" font-family="Helvetica,sans-Serif" font-size="10.00">/physics_creation_flags.h</text>
</a>
</g>
</g>
<!-- Node5&#45;&gt;Node6 -->
<g id="edge6_Node000005_Node000006" class="edge">
<title>Node5&#45;&gt;Node6</title>
<g id="a_edge6_Node000005_Node000006"><a xlink:title=" ">
<path fill="none" stroke="#63b8ff" d="M623.58,-186.95C578.59,-176.99 518.11,-163.6 471.09,-153.19"/>
<polygon fill="#63b8ff" stroke="#63b8ff" points="471.79,-149.76 461.27,-151.01 470.28,-156.59 471.79,-149.76"/>
</a>
</g>
</g>
<!-- Node8 -->
<g id="Node000008" class="node">
<title>Node8</title>
<g id="a_Node000008"><a xlink:href="body__2d_8h.html" target="_top" xlink:title=" ">
<polygon fill="white" stroke="#666666" points="923.5,-151 804.5,-151 804.5,-121 923.5,-121 923.5,-151"/>
<text text-anchor="start" x="812.5" y="-139" font-family="Helvetica,sans-Serif" font-size="10.00">engine/physics/world</text>
<text text-anchor="middle" x="864" y="-128" font-family="Helvetica,sans-Serif" font-size="10.00">/body/body_2d.h</text>
</a>
</g>
</g>
<!-- Node5&#45;&gt;Node8 -->
<g id="edge8_Node000005_Node000008" class="edge">
<title>Node5&#45;&gt;Node8</title>
<g id="a_edge8_Node000005_Node000008"><a xlink:title=" ">
<path fill="none" stroke="#63b8ff" d="M725.84,-186.95C752.24,-177.41 787.36,-164.71 815.58,-154.51"/>
<polygon fill="#63b8ff" stroke="#63b8ff" points="817.03,-157.7 825.25,-151.01 814.65,-151.12 817.03,-157.7"/>
</a>
</g>
</g>
<!-- Node9 -->
<g id="Node000009" class="node">
<title>Node9</title>
<g id="a_Node000009"><a xlink:href="body__type__2d_8h.html" target="_top" xlink:title=" ">
<polygon fill="white" stroke="#666666" points="762,-85 638,-85 638,-55 762,-55 762,-85"/>
<text text-anchor="start" x="646" y="-73" font-family="Helvetica,sans-Serif" font-size="10.00">engine/physics/world</text>
<text text-anchor="middle" x="700" y="-62" font-family="Helvetica,sans-Serif" font-size="10.00">/body/body_type_2d.h</text>
</a>
</g>
</g>
<!-- Node5&#45;&gt;Node9 -->
<g id="edge18_Node000005_Node000009" class="edge">
<title>Node5&#45;&gt;Node9</title>
<g id="a_edge18_Node000005_Node000009"><a xlink:title=" ">
<path fill="none" stroke="#63b8ff" d="M688.42,-186.84C690.61,-164.86 694.87,-122.27 697.57,-95.3"/>
<polygon fill="#63b8ff" stroke="#63b8ff" points="701.07,-95.44 698.59,-85.14 694.11,-94.74 701.07,-95.44"/>
</a>
</g>
</g>
<!-- Node11 -->
<g id="Node000011" class="node">
<title>Node11</title>
<g id="a_Node000011"><a xlink:href="vector3_8h.html" target="_top" xlink:title=" ">
<polygon fill="white" stroke="#666666" points="1104.5,-85 1003.5,-85 1003.5,-55 1104.5,-55 1104.5,-85"/>
<text text-anchor="start" x="1011.5" y="-73" font-family="Helvetica,sans-Serif" font-size="10.00">engine/public/util</text>
<text text-anchor="middle" x="1054" y="-62" font-family="Helvetica,sans-Serif" font-size="10.00">/vector3.h</text>
</a>
</g>
</g>
<!-- Node5&#45;&gt;Node11 -->
<g id="edge25_Node000005_Node000011" class="edge">
<title>Node5&#45;&gt;Node11</title>
<g id="a_edge25_Node000005_Node000011"><a xlink:title=" ">
<path fill="none" stroke="#63b8ff" d="M761.56,-193.39C811.5,-186.5 877.93,-173.79 933,-151 969.06,-136.08 1005.8,-109.91 1029.19,-91.57"/>
<polygon fill="#63b8ff" stroke="#63b8ff" points="1031.53,-94.18 1037.17,-85.21 1027.17,-88.7 1031.53,-94.18"/>
</a>
</g>
</g>
<!-- Node12 -->
<g id="Node000012" class="node">
<title>Node12</title>
<g id="a_Node000012"><a xlink:title=" ">
<polygon fill="#e0e0e0" stroke="#999999" points="619.5,-79.5 572.5,-79.5 572.5,-60.5 619.5,-60.5 619.5,-79.5"/>
<text text-anchor="middle" x="596" y="-67.5" font-family="Helvetica,sans-Serif" font-size="10.00">vector</text>
</a>
</g>
</g>
<!-- Node5&#45;&gt;Node12 -->
<g id="edge27_Node000005_Node000012" class="edge">
<title>Node5&#45;&gt;Node12</title>
<g id="a_edge27_Node000005_Node000012"><a xlink:title=" ">
<path fill="none" stroke="#63b8ff" d="M680.78,-186.73C673.23,-170.18 659.59,-142.42 644,-121 634.93,-108.53 622.91,-96.02 613.17,-86.63"/>
<polygon fill="#63b8ff" stroke="#63b8ff" points="615.33,-83.85 605.64,-79.55 610.53,-88.95 615.33,-83.85"/>
</a>
</g>
</g>
<!-- Node13 -->
<g id="Node000013" class="node">
<title>Node13</title>
<g id="a_Node000013"><a xlink:href="component_8h.html" target="_top" xlink:title=" ">
<polygon fill="white" stroke="#666666" points="634.5,-145.5 485.5,-145.5 485.5,-126.5 634.5,-126.5 634.5,-145.5"/>
<text text-anchor="middle" x="560" y="-133.5" font-family="Helvetica,sans-Serif" font-size="10.00">engine/public/component.h</text>
</a>
</g>
</g>
<!-- Node5&#45;&gt;Node13 -->
<g id="edge19_Node000005_Node000013" class="edge">
<title>Node5&#45;&gt;Node13</title>
<g id="a_edge19_Node000005_Node000013"><a xlink:title=" ">
<path fill="none" stroke="#63b8ff" d="M659.13,-186.95C637.35,-175.98 607.3,-160.83 586.01,-150.11"/>
<polygon fill="#63b8ff" stroke="#63b8ff" points="587.41,-146.89 576.9,-145.52 584.26,-153.14 587.41,-146.89"/>
</a>
</g>
</g>
<!-- Node5&#45;&gt;Node15 -->
<g id="edge26_Node000005_Node000015" class="edge">
<title>Node5&#45;&gt;Node15</title>
<g id="a_edge26_Node000005_Node000015"><a xlink:title=" ">
<path fill="none" stroke="#63b8ff" d="M612.13,-197.7C519.42,-192.43 367.86,-179.65 320,-151 295.78,-136.5 278.74,-107.59 269.65,-88.79"/>
<polygon fill="#63b8ff" stroke="#63b8ff" points="272.76,-87.18 265.42,-79.54 266.39,-90.09 272.76,-87.18"/>
</a>
</g>
</g>
<!-- Node17 -->
<g id="Node000017" class="node">
<title>Node17</title>
<g id="a_Node000017"><a xlink:href="point_8h.html" target="_top" xlink:title=" ">
<polygon fill="white" stroke="#666666" points="1241.5,-151 1140.5,-151 1140.5,-121 1241.5,-121 1241.5,-151"/>
<text text-anchor="start" x="1148.5" y="-139" font-family="Helvetica,sans-Serif" font-size="10.00">engine/public/util</text>
<text text-anchor="middle" x="1191" y="-128" font-family="Helvetica,sans-Serif" font-size="10.00">/point.h</text>
</a>
</g>
</g>
<!-- Node5&#45;&gt;Node17 -->
<g id="edge24_Node000005_Node000017" class="edge">
<title>Node5&#45;&gt;Node17</title>
<g id="a_edge24_Node000005_Node000017"><a xlink:title=" ">
<path fill="none" stroke="#63b8ff" d="M761.64,-191.52C861.74,-178.81 1037.57,-156.48 1130.11,-144.73"/>
<polygon fill="#63b8ff" stroke="#63b8ff" points="1130.68,-148.19 1140.16,-143.46 1129.8,-141.24 1130.68,-148.19"/>
</a>
</g>
</g>
<!-- Node7 -->
<g id="Node000007" class="node">
<title>Node7</title>
<g id="a_Node000007"><a xlink:title=" ">
<polygon fill="#e0e0e0" stroke="#999999" points="725,-19 675,-19 675,0 725,0 725,-19"/>
<text text-anchor="middle" x="700" y="-7" font-family="Helvetica,sans-Serif" font-size="10.00">cstdint</text>
</a>
</g>
</g>
<!-- Node6&#45;&gt;Node7 -->
<g id="edge7_Node000006_Node000007" class="edge">
<title>Node6&#45;&gt;Node7</title>
<g id="a_edge7_Node000006_Node000007"><a xlink:title=" ">
<path fill="none" stroke="#63b8ff" d="M394.73,-120.74C391.56,-102.88 389.36,-72.5 406,-55 440.85,-18.35 594.58,-11.73 664.8,-10.65"/>
<polygon fill="#63b8ff" stroke="#63b8ff" points="664.97,-14.14 674.93,-10.52 664.88,-7.14 664.97,-14.14"/>
</a>
</g>
</g>
<!-- Node8&#45;&gt;Node2 -->
<g id="edge9_Node000008_Node000002" class="edge">
<title>Node8&#45;&gt;Node2</title>
<g id="a_edge9_Node000008_Node000002"><a xlink:title=" ">
<path fill="none" stroke="#63b8ff" d="M854.85,-120.79C844.83,-103.26 832.16,-73.51 848,-55 877.04,-21.07 1003.96,-12.82 1078.27,-10.93"/>
<polygon fill="#63b8ff" stroke="#63b8ff" points="1078.47,-14.43 1088.39,-10.71 1078.32,-7.43 1078.47,-14.43"/>
</a>
</g>
</g>
<!-- Node8&#45;&gt;Node9 -->
<g id="edge10_Node000008_Node000009" class="edge">
<title>Node8&#45;&gt;Node9</title>
<g id="a_edge10_Node000008_Node000009"><a xlink:title=" ">
<path fill="none" stroke="#63b8ff" d="M828.01,-120.95C803.76,-111.49 771.58,-98.93 745.55,-88.78"/>
<polygon fill="#63b8ff" stroke="#63b8ff" points="746.49,-85.39 735.91,-85.01 743.95,-91.91 746.49,-85.39"/>
</a>
</g>
</g>
<!-- Node10 -->
<g id="Node000010" class="node">
<title>Node10</title>
<g id="a_Node000010"><a xlink:href="shape__type__2d_8h.html" target="_top" xlink:title=" ">
<polygon fill="white" stroke="#666666" points="985.5,-85 856.5,-85 856.5,-55 985.5,-55 985.5,-85"/>
<text text-anchor="start" x="864.5" y="-73" font-family="Helvetica,sans-Serif" font-size="10.00">engine/physics/world</text>
<text text-anchor="middle" x="921" y="-62" font-family="Helvetica,sans-Serif" font-size="10.00">/body/shape_type_2d.h</text>
</a>
</g>
</g>
<!-- Node8&#45;&gt;Node10 -->
<g id="edge13_Node000008_Node000010" class="edge">
<title>Node8&#45;&gt;Node10</title>
<g id="a_edge13_Node000008_Node000010"><a xlink:title=" ">
<path fill="none" stroke="#63b8ff" d="M876.65,-120.8C883.96,-112.59 893.3,-102.1 901.52,-92.87"/>
<polygon fill="#63b8ff" stroke="#63b8ff" points="904.35,-94.96 908.39,-85.16 899.12,-90.3 904.35,-94.96"/>
</a>
</g>
</g>
<!-- Node8&#45;&gt;Node11 -->
<g id="edge16_Node000008_Node000011" class="edge">
<title>Node8&#45;&gt;Node11</title>
<g id="a_edge16_Node000008_Node000011"><a xlink:title=" ">
<path fill="none" stroke="#63b8ff" d="M905.7,-120.95C934.28,-111.33 972.39,-98.49 1002.81,-88.24"/>
<polygon fill="#63b8ff" stroke="#63b8ff" points="1004.04,-91.52 1012.4,-85.01 1001.81,-84.89 1004.04,-91.52"/>
</a>
</g>
</g>
<!-- Node8&#45;&gt;Node12 -->
<g id="edge17_Node000008_Node000012" class="edge">
<title>Node8&#45;&gt;Node12</title>
<g id="a_edge17_Node000008_Node000012"><a xlink:title=" ">
<path fill="none" stroke="#63b8ff" d="M804.43,-123.68C745.98,-112.32 661.07,-95.11 629,-85 627.37,-84.49 625.71,-83.92 624.04,-83.32"/>
<polygon fill="#63b8ff" stroke="#63b8ff" points="625.2,-80.02 614.61,-79.63 622.65,-86.53 625.2,-80.02"/>
</a>
</g>
</g>
<!-- Node9&#45;&gt;Node2 -->
<g id="edge11_Node000009_Node000002" class="edge">
<title>Node9&#45;&gt;Node2</title>
<g id="a_edge11_Node000009_Node000002"><a xlink:title=" ">
<path fill="none" stroke="#63b8ff" d="M762.16,-57.24C766.84,-56.45 771.49,-55.7 776,-55 882.57,-38.56 1007.76,-24.05 1077.99,-16.35"/>
<polygon fill="#63b8ff" stroke="#63b8ff" points="1078.8,-19.78 1088.36,-15.22 1078.04,-12.83 1078.8,-19.78"/>
</a>
</g>
</g>
<!-- Node9&#45;&gt;Node7 -->
<g id="edge12_Node000009_Node000007" class="edge">
<title>Node9&#45;&gt;Node7</title>
<g id="a_edge12_Node000009_Node000007"><a xlink:title=" ">
<path fill="none" stroke="#63b8ff" d="M700,-54.84C700,-47.21 700,-37.7 700,-29.45"/>
<polygon fill="#63b8ff" stroke="#63b8ff" points="703.5,-29.27 700,-19.27 696.5,-29.27 703.5,-29.27"/>
</a>
</g>
</g>
<!-- Node10&#45;&gt;Node2 -->
<g id="edge14_Node000010_Node000002" class="edge">
<title>Node10&#45;&gt;Node2</title>
<g id="a_edge14_Node000010_Node000002"><a xlink:title=" ">
<path fill="none" stroke="#63b8ff" d="M971.78,-54.99C1008.68,-44.8 1057.98,-31.2 1092.3,-21.73"/>
<polygon fill="#63b8ff" stroke="#63b8ff" points="1093.29,-25.09 1102,-19.05 1091.43,-18.34 1093.29,-25.09"/>
</a>
</g>
</g>
<!-- Node10&#45;&gt;Node7 -->
<g id="edge15_Node000010_Node000007" class="edge">
<title>Node10&#45;&gt;Node7</title>
<g id="a_edge15_Node000010_Node000007"><a xlink:title=" ">
<path fill="none" stroke="#63b8ff" d="M868.06,-54.99C826.92,-44.1 771.01,-29.3 735.2,-19.82"/>
<polygon fill="#63b8ff" stroke="#63b8ff" points="735.78,-16.35 725.22,-17.18 733.99,-23.12 735.78,-16.35"/>
</a>
</g>
</g>
<!-- Node13&#45;&gt;Node12 -->
<g id="edge23_Node000013_Node000012" class="edge">
<title>Node13&#45;&gt;Node12</title>
<g id="a_edge23_Node000013_Node000012"><a xlink:title=" ">
<path fill="none" stroke="#63b8ff" d="M564.86,-126.37C570.25,-116.78 579.1,-101.05 585.99,-88.8"/>
<polygon fill="#63b8ff" stroke="#63b8ff" points="589.14,-90.34 590.99,-79.91 583.04,-86.91 589.14,-90.34"/>
</a>
</g>
</g>
<!-- Node14 -->
<g id="Node000014" class="node">
<title>Node14</title>
<g id="a_Node000014"><a xlink:title=" ">
<polygon fill="#e0e0e0" stroke="#999999" points="554.5,-79.5 489.5,-79.5 489.5,-60.5 554.5,-60.5 554.5,-79.5"/>
<text text-anchor="middle" x="522" y="-67.5" font-family="Helvetica,sans-Serif" font-size="10.00">functional</text>
</a>
</g>
</g>
<!-- Node13&#45;&gt;Node14 -->
<g id="edge20_Node000013_Node000014" class="edge">
<title>Node13&#45;&gt;Node14</title>
<g id="a_edge20_Node000013_Node000014"><a xlink:title=" ">
<path fill="none" stroke="#63b8ff" d="M554.88,-126.37C549.18,-116.78 539.84,-101.05 532.57,-88.8"/>
<polygon fill="#63b8ff" stroke="#63b8ff" points="535.4,-86.72 527.29,-79.91 529.38,-90.29 535.4,-86.72"/>
</a>
</g>
</g>
<!-- Node13&#45;&gt;Node15 -->
<g id="edge21_Node000013_Node000015" class="edge">
<title>Node13&#45;&gt;Node15</title>
<g id="a_edge21_Node000013_Node000015"><a xlink:title=" ">
<path fill="none" stroke="#63b8ff" d="M520.12,-126.44C462.94,-114.15 358.28,-91.68 301.38,-79.46"/>
<polygon fill="#63b8ff" stroke="#63b8ff" points="301.84,-75.98 291.33,-77.3 300.37,-82.82 301.84,-75.98"/>
</a>
</g>
</g>
<!-- Node16 -->
<g id="Node000016" class="node">
<title>Node16</title>
<g id="a_Node000016"><a xlink:title=" ">
<polygon fill="#e0e0e0" stroke="#999999" points="471,-79.5 415,-79.5 415,-60.5 471,-60.5 471,-79.5"/>
<text text-anchor="middle" x="443" y="-67.5" font-family="Helvetica,sans-Serif" font-size="10.00">optional</text>
</a>
</g>
</g>
<!-- Node13&#45;&gt;Node16 -->
<g id="edge22_Node000013_Node000016" class="edge">
<title>Node13&#45;&gt;Node16</title>
<g id="a_edge22_Node000013_Node000016"><a xlink:title=" ">
<path fill="none" stroke="#63b8ff" d="M544.22,-126.37C524.59,-115.63 490.86,-97.18 467.77,-84.55"/>
<polygon fill="#63b8ff" stroke="#63b8ff" points="469.36,-81.43 458.9,-79.7 466,-87.57 469.36,-81.43"/>
</a>
</g>
</g>
<!-- Node18&#45;&gt;Node2 -->
<g id="edge29_Node000018_Node000002" class="edge">
<title>Node18&#45;&gt;Node2</title>
<g id="a_edge29_Node000018_Node000002"><a xlink:title=" ">
<path fill="none" stroke="#63b8ff" d="M1489.84,-186.99C1482.36,-157.28 1460.58,-87.97 1414,-55 1378.5,-29.88 1258.89,-18.26 1187.67,-13.46"/>
<polygon fill="#63b8ff" stroke="#63b8ff" points="1187.74,-9.95 1177.53,-12.8 1187.28,-16.94 1187.74,-9.95"/>
</a>
</g>
</g>
<!-- Node18&#45;&gt;Node17 -->
<g id="edge30_Node000018_Node000017" class="edge">
<title>Node18&#45;&gt;Node17</title>
<g id="a_edge30_Node000018_Node000017"><a xlink:title=" ">
<path fill="none" stroke="#63b8ff" d="M1428.21,-187.27C1375.89,-176.18 1302.81,-160.69 1251.63,-149.85"/>
<polygon fill="#63b8ff" stroke="#63b8ff" points="1252.21,-146.39 1241.7,-147.74 1250.76,-153.24 1252.21,-146.39"/>
</a>
</g>
</g>
<!-- Node19&#45;&gt;Node2 -->
<g id="edge32_Node000019_Node000002" class="edge">
<title>Node19&#45;&gt;Node2</title>
<g id="a_edge32_Node000019_Node000002"><a xlink:title=" ">
<path fill="none" stroke="#63b8ff" d="M1194.27,-253.95C1195.86,-253.63 1197.44,-253.31 1199,-253 1279.85,-236.8 1328.66,-280.71 1381,-217 1453.1,-129.24 1255.49,-50.98 1170.12,-22.21"/>
<polygon fill="#63b8ff" stroke="#63b8ff" points="1171.12,-18.85 1160.53,-19.02 1168.92,-25.49 1171.12,-18.85"/>
</a>
</g>
</g>
<!-- Node19&#45;&gt;Node12 -->
<g id="edge38_Node000019_Node000012" class="edge">
<title>Node19&#45;&gt;Node12</title>
<g id="a_edge38_Node000019_Node000012"><a xlink:title=" ">
<path fill="none" stroke="#63b8ff" d="M1087.62,-252.92C1024,-231.64 900.16,-189.65 796,-151 721.18,-123.24 702.85,-115.25 629,-85 627.8,-84.51 626.58,-84.01 625.35,-83.49"/>
<polygon fill="#63b8ff" stroke="#63b8ff" points="626.44,-80.16 615.86,-79.52 623.73,-86.61 626.44,-80.16"/>
</a>
</g>
</g>
<!-- Node19&#45;&gt;Node15 -->
<g id="edge37_Node000019_Node000015" class="edge">
<title>Node19&#45;&gt;Node15</title>
<g id="a_edge37_Node000019_Node000015"><a xlink:title=" ">
<path fill="none" stroke="#63b8ff" d="M1065.89,-260.5C1042.06,-258.11 1014.8,-255.4 990,-253 832.44,-237.77 401.1,-258.6 285,-151 268.06,-135.3 263.31,-108.02 262.13,-89.74"/>
<polygon fill="#63b8ff" stroke="#63b8ff" points="265.62,-89.58 261.78,-79.71 258.63,-89.82 265.62,-89.58"/>
</a>
</g>
</g>
<!-- Node19&#45;&gt;Node17 -->
<g id="edge36_Node000019_Node000017" class="edge">
<title>Node19&#45;&gt;Node17</title>
<g id="a_edge36_Node000019_Node000017"><a xlink:title=" ">
<path fill="none" stroke="#63b8ff" d="M1156.87,-252.96C1170.06,-244.49 1184.66,-232.34 1192,-217 1200.31,-199.63 1199.32,-177.61 1196.68,-161.07"/>
<polygon fill="#63b8ff" stroke="#63b8ff" points="1200.09,-160.27 1194.78,-151.1 1193.21,-161.58 1200.09,-160.27"/>
</a>
</g>
</g>
<!-- Node20 -->
<g id="Node000020" class="node">
<title>Node20</title>
<g id="a_Node000020"><a xlink:href="collider__ray__result_8h.html" target="_top" xlink:title=" ">
<polygon fill="white" stroke="#666666" points="1372,-217 1244,-217 1244,-187 1372,-187 1372,-217"/>
<text text-anchor="start" x="1252" y="-205" font-family="Helvetica,sans-Serif" font-size="10.00">engine/physics/raycast</text>
<text text-anchor="middle" x="1308" y="-194" font-family="Helvetica,sans-Serif" font-size="10.00">/collider_ray_result.h</text>
</a>
</g>
</g>
<!-- Node19&#45;&gt;Node20 -->
<g id="edge33_Node000019_Node000020" class="edge">
<title>Node19&#45;&gt;Node20</title>
<g id="a_edge33_Node000019_Node000020"><a xlink:title=" ">
<path fill="none" stroke="#63b8ff" d="M1169.06,-252.95C1195.61,-243.41 1230.92,-230.71 1259.3,-220.51"/>
<polygon fill="#63b8ff" stroke="#63b8ff" points="1260.8,-223.69 1269.03,-217.01 1258.43,-217.1 1260.8,-223.69"/>
</a>
</g>
</g>
<!-- Node20&#45;&gt;Node2 -->
<g id="edge34_Node000020_Node000002" class="edge">
<title>Node20&#45;&gt;Node2</title>
<g id="a_edge34_Node000020_Node000002"><a xlink:title=" ">
<path fill="none" stroke="#63b8ff" d="M1299.11,-186.78C1288.52,-170.28 1269.86,-142.57 1251,-121 1218.6,-83.96 1175.23,-45.83 1151.12,-25.47"/>
<polygon fill="#63b8ff" stroke="#63b8ff" points="1153.35,-22.78 1143.44,-19.04 1148.86,-28.14 1153.35,-22.78"/>
</a>
</g>
</g>
<!-- Node20&#45;&gt;Node17 -->
<g id="edge35_Node000020_Node000017" class="edge">
<title>Node20&#45;&gt;Node17</title>
<g id="a_edge35_Node000020_Node000017"><a xlink:title=" ">
<path fill="none" stroke="#63b8ff" d="M1282.32,-186.95C1265.71,-177.87 1243.88,-165.93 1225.73,-156"/>
<polygon fill="#63b8ff" stroke="#63b8ff" points="1227.07,-152.74 1216.62,-151.01 1223.71,-158.88 1227.07,-152.74"/>
</a>
</g>
</g>
<!-- Node21&#45;&gt;Node2 -->
<g id="edge40_Node000021_Node000002" class="edge">
<title>Node21&#45;&gt;Node2</title>
<g id="a_edge40_Node000021_Node000002"><a xlink:title=" ">
<path fill="none" stroke="#63b8ff" d="M934.01,-252.78C949.05,-236.51 974.73,-209.25 998,-187 1047.62,-139.56 1078.14,-143.54 1114,-85 1124.44,-67.96 1129.16,-45.38 1131.29,-29.56"/>
<polygon fill="#63b8ff" stroke="#63b8ff" points="1134.79,-29.74 1132.42,-19.42 1127.84,-28.97 1134.79,-29.74"/>
</a>
</g>
</g>
<!-- Node21&#45;&gt;Node5 -->
<g id="edge41_Node000021_Node000005" class="edge">
<title>Node21&#45;&gt;Node5</title>
<g id="a_edge41_Node000021_Node000005"><a xlink:title=" ">
<path fill="none" stroke="#63b8ff" d="M869.65,-252.95C833.83,-243.16 785.88,-230.05 748.1,-219.71"/>
<polygon fill="#63b8ff" stroke="#63b8ff" points="748.8,-216.27 738.23,-217.01 746.95,-223.03 748.8,-216.27"/>
</a>
</g>
</g>
<!-- Node21&#45;&gt;Node8 -->
<g id="edge42_Node000021_Node000008" class="edge">
<title>Node21&#45;&gt;Node8</title>
<g id="a_edge42_Node000021_Node000008"><a xlink:title=" ">
<path fill="none" stroke="#63b8ff" d="M909.99,-252.79C902.93,-243.12 893.99,-229.81 888,-217 879.54,-198.9 873.23,-177.1 869.21,-160.83"/>
<polygon fill="#63b8ff" stroke="#63b8ff" points="872.6,-159.97 866.9,-151.04 865.79,-161.57 872.6,-159.97"/>
</a>
</g>
</g>
<!-- Node21&#45;&gt;Node10 -->
<g id="edge45_Node000021_Node000010" class="edge">
<title>Node21&#45;&gt;Node10</title>
<g id="a_edge45_Node000021_Node000010"><a xlink:title=" ">
<path fill="none" stroke="#63b8ff" d="M921.33,-252.79C921.84,-236.75 923.07,-209.91 926,-187 928.07,-170.83 931.44,-167.22 933,-151 934.28,-137.73 934.57,-134.24 933,-121 931.98,-112.4 930.01,-103.13 927.96,-94.94"/>
<polygon fill="#63b8ff" stroke="#63b8ff" points="931.34,-94.04 925.38,-85.28 924.57,-95.84 931.34,-94.04"/>
</a>
</g>
</g>
<!-- Node21&#45;&gt;Node11 -->
<g id="edge47_Node000021_Node000011" class="edge">
<title>Node21&#45;&gt;Node11</title>
<g id="a_edge47_Node000021_Node000011"><a xlink:title=" ">
<path fill="none" stroke="#63b8ff" d="M927.77,-252.72C935.72,-236.39 949.65,-209.08 964,-187 986.4,-152.55 1016.28,-115.49 1035.33,-92.77"/>
<polygon fill="#63b8ff" stroke="#63b8ff" points="1038.05,-94.97 1041.83,-85.08 1032.7,-90.46 1038.05,-94.97"/>
</a>
</g>
</g>
<!-- Node21&#45;&gt;Node15 -->
<g id="edge48_Node000021_Node000015" class="edge">
<title>Node21&#45;&gt;Node15</title>
<g id="a_edge48_Node000021_Node000015"><a xlink:title=" ">
<path fill="none" stroke="#63b8ff" d="M861.29,-267.09C704.32,-266.71 289.28,-261.46 248,-217 215.31,-181.79 238.41,-119.18 252.82,-88.68"/>
<polygon fill="#63b8ff" stroke="#63b8ff" points="255.99,-90.17 257.28,-79.65 249.71,-87.07 255.99,-90.17"/>
</a>
</g>
</g>
<!-- Node21&#45;&gt;Node17 -->
<g id="edge46_Node000021_Node000017" class="edge">
<title>Node21&#45;&gt;Node17</title>
<g id="a_edge46_Node000021_Node000017"><a xlink:title=" ">
<path fill="none" stroke="#63b8ff" d="M980.57,-260.93C1042,-253.57 1132.45,-239.3 1159,-217 1175.58,-203.07 1183.64,-179.31 1187.52,-161.29"/>
<polygon fill="#63b8ff" stroke="#63b8ff" points="1191.01,-161.68 1189.39,-151.21 1184.12,-160.41 1191.01,-161.68"/>
</a>
</g>
</g>
<!-- Node22 -->
<g id="Node000022" class="node">
<title>Node22</title>
<g id="a_Node000022"><a xlink:href="body__distance__2d_8h.html" target="_top" xlink:title=" ">
<polygon fill="white" stroke="#666666" points="1149.5,-217 1006.5,-217 1006.5,-187 1149.5,-187 1149.5,-217"/>
<text text-anchor="start" x="1014.5" y="-205" font-family="Helvetica,sans-Serif" font-size="10.00">engine/physics/world</text>
<text text-anchor="middle" x="1078" y="-194" font-family="Helvetica,sans-Serif" font-size="10.00">/body/body_distance_2d.h</text>
</a>
</g>
</g>
<!-- Node21&#45;&gt;Node22 -->
<g id="edge43_Node000021_Node000022" class="edge">
<title>Node21&#45;&gt;Node22</title>
<g id="a_edge43_Node000021_Node000022"><a xlink:title=" ">
<path fill="none" stroke="#63b8ff" d="M955.45,-252.95C978.56,-243.53 1009.2,-231.04 1034.06,-220.91"/>
<polygon fill="#63b8ff" stroke="#63b8ff" points="1035.69,-224.03 1043.63,-217.01 1033.04,-217.55 1035.69,-224.03"/>
</a>
</g>
</g>
<!-- Node22&#45;&gt;Node17 -->
<g id="edge44_Node000022_Node000017" class="edge">
<title>Node22&#45;&gt;Node17</title>
<g id="a_edge44_Node000022_Node000017"><a xlink:title=" ">
<path fill="none" stroke="#63b8ff" d="M1102.8,-186.95C1118.84,-177.87 1139.93,-165.93 1157.46,-156"/>
<polygon fill="#63b8ff" stroke="#63b8ff" points="1159.28,-158.99 1166.26,-151.01 1155.83,-152.9 1159.28,-158.99"/>
</a>
</g>
</g>
</g>
</svg>
