<?xml version="1.0" encoding="UTF-8" standalone="no"?>
<!DOCTYPE svg PUBLIC "-//W3C//DTD SVG 1.1//EN"
 "http://www.w3.org/Graphics/SVG/1.1/DTD/svg11.dtd">
<!-- Generated by graphviz version 2.43.0 (0)
 -->
<!-- Title: include/engine/physics/physics_service.h Pages: 1 -->
<svg width="896pt" height="225pt"
 viewBox="0.00 0.00 895.50 225.00" xmlns="http://www.w3.org/2000/svg" xmlns:xlink="http://www.w3.org/1999/xlink">
<g id="graph0" class="graph" transform="scale(1 1) rotate(0) translate(4 221)">
<title>include/engine/physics/physics_service.h</title>
<!-- Node1 -->
<g id="Node000001" class="node">
<title>Node1</title>
<g id="a_Node000001"><a xlink:title=" ">
<polygon fill="#999999" stroke="#666666" points="461.5,-217 333.5,-217 333.5,-187 461.5,-187 461.5,-217"/>
<text text-anchor="start" x="341.5" y="-205" font-family="Helvetica,sans-Serif" font-size="10.00">include/engine/physics</text>
<text text-anchor="middle" x="397.5" y="-194" font-family="Helvetica,sans-Serif" font-size="10.00">/physics_service.h</text>
</a>
</g>
</g>
<!-- Node2 -->
<g id="Node000002" class="node">
<title>Node2</title>
<g id="a_Node000002"><a xlink:title=" ">
<polygon fill="#e0e0e0" stroke="#999999" points="295,-79.5 206,-79.5 206,-60.5 295,-60.5 295,-79.5"/>
<text text-anchor="middle" x="250.5" y="-67.5" font-family="Helvetica,sans-Serif" font-size="10.00">box2d/box2d.h</text>
</a>
</g>
</g>
<!-- Node1&#45;&gt;Node2 -->
<g id="edge1_Node000001_Node000002" class="edge">
<title>Node1&#45;&gt;Node2</title>
<g id="a_edge1_Node000001_Node000002"><a xlink:title=" ">
<path fill="none" stroke="#63b8ff" d="M333.39,-195.27C275.28,-188.59 195.87,-175.24 176.5,-151 156.76,-126.3 194.33,-99.76 222.79,-84.3"/>
<polygon fill="#63b8ff" stroke="#63b8ff" points="224.75,-87.23 232,-79.51 221.51,-81.02 224.75,-87.23"/>
</a>
</g>
</g>
<!-- Node3 -->
<g id="Node000003" class="node">
<title>Node3</title>
<g id="a_Node000003"><a xlink:title=" ">
<polygon fill="#e0e0e0" stroke="#999999" points="495.5,-19 437.5,-19 437.5,0 495.5,0 495.5,-19"/>
<text text-anchor="middle" x="466.5" y="-7" font-family="Helvetica,sans-Serif" font-size="10.00">memory</text>
</a>
</g>
</g>
<!-- Node1&#45;&gt;Node3 -->
<g id="edge2_Node000001_Node000003" class="edge">
<title>Node1&#45;&gt;Node3</title>
<g id="a_edge2_Node000001_Node000003"><a xlink:title=" ">
<path fill="none" stroke="#63b8ff" d="M431.73,-186.95C446.8,-178.84 462.99,-167.02 471.5,-151 492.42,-111.61 480.93,-56.86 472.63,-28.75"/>
<polygon fill="#63b8ff" stroke="#63b8ff" points="475.93,-27.55 469.58,-19.07 469.25,-29.66 475.93,-27.55"/>
</a>
</g>
</g>
<!-- Node4 -->
<g id="Node000004" class="node">
<title>Node4</title>
<g id="a_Node000004"><a xlink:href="i_engine_service_8h.html" target="_top" xlink:title=" ">
<polygon fill="white" stroke="#666666" points="887.5,-145.5 729.5,-145.5 729.5,-126.5 887.5,-126.5 887.5,-145.5"/>
<text text-anchor="middle" x="808.5" y="-133.5" font-family="Helvetica,sans-Serif" font-size="10.00">engine/core/iEngineService.h</text>
</a>
</g>
</g>
<!-- Node1&#45;&gt;Node4 -->
<g id="edge3_Node000001_Node000004" class="edge">
<title>Node1&#45;&gt;Node4</title>
<g id="a_edge3_Node000001_Node000004"><a xlink:title=" ">
<path fill="none" stroke="#63b8ff" d="M461.72,-191C538.53,-179.04 666.38,-159.13 743.53,-147.12"/>
<polygon fill="#63b8ff" stroke="#63b8ff" points="744.26,-150.55 753.6,-145.55 743.18,-143.63 744.26,-150.55"/>
</a>
</g>
</g>
<!-- Node6 -->
<g id="Node000006" class="node">
<title>Node6</title>
<g id="a_Node000006"><a xlink:href="physics__world_8h.html" target="_top" xlink:title=" ">
<polygon fill="white" stroke="#666666" points="462,-151 333,-151 333,-121 462,-121 462,-151"/>
<text text-anchor="start" x="341" y="-139" font-family="Helvetica,sans-Serif" font-size="10.00">engine/physics/physics</text>
<text text-anchor="middle" x="397.5" y="-128" font-family="Helvetica,sans-Serif" font-size="10.00">_world.h</text>
</a>
</g>
</g>
<!-- Node1&#45;&gt;Node6 -->
<g id="edge5_Node000001_Node000006" class="edge">
<title>Node1&#45;&gt;Node6</title>
<g id="a_edge5_Node000001_Node000006"><a xlink:title=" ">
<path fill="none" stroke="#63b8ff" d="M397.5,-186.8C397.5,-179.34 397.5,-169.99 397.5,-161.41"/>
<polygon fill="#63b8ff" stroke="#63b8ff" points="401,-161.16 397.5,-151.16 394,-161.16 401,-161.16"/>
</a>
</g>
</g>
<!-- Node7 -->
<g id="Node000007" class="node">
<title>Node7</title>
<g id="a_Node000007"><a xlink:href="physics__raycaster_8h.html" target="_top" xlink:title=" ">
<polygon fill="white" stroke="#666666" points="129,-151 0,-151 0,-121 129,-121 129,-151"/>
<text text-anchor="start" x="8" y="-139" font-family="Helvetica,sans-Serif" font-size="10.00">engine/physics/physics</text>
<text text-anchor="middle" x="64.5" y="-128" font-family="Helvetica,sans-Serif" font-size="10.00">_raycaster.h</text>
</a>
</g>
</g>
<!-- Node1&#45;&gt;Node7 -->
<g id="edge8_Node000001_Node000007" class="edge">
<title>Node1&#45;&gt;Node7</title>
<g id="a_edge8_Node000001_Node000007"><a xlink:title=" ">
<path fill="none" stroke="#63b8ff" d="M333.29,-188.66C277.73,-177.98 197.35,-162.53 138.98,-151.31"/>
<polygon fill="#63b8ff" stroke="#63b8ff" points="139.56,-147.86 129.08,-149.41 138.24,-154.74 139.56,-147.86"/>
</a>
</g>
</g>
<!-- Node9 -->
<g id="Node000009" class="node">
<title>Node9</title>
<g id="a_Node000009"><a xlink:href="physics__creation__factory_8h.html" target="_top" xlink:title=" ">
<polygon fill="white" stroke="#666666" points="648,-151 519,-151 519,-121 648,-121 648,-151"/>
<text text-anchor="start" x="527" y="-139" font-family="Helvetica,sans-Serif" font-size="10.00">engine/physics/physics</text>
<text text-anchor="middle" x="583.5" y="-128" font-family="Helvetica,sans-Serif" font-size="10.00">_creation_factory.h</text>
</a>
</g>
</g>
<!-- Node1&#45;&gt;Node9 -->
<g id="edge12_Node000001_Node000009" class="edge">
<title>Node1&#45;&gt;Node9</title>
<g id="a_edge12_Node000001_Node000009"><a xlink:title=" ">
<path fill="none" stroke="#63b8ff" d="M438.32,-186.95C466.18,-177.37 503.28,-164.6 533,-154.37"/>
<polygon fill="#63b8ff" stroke="#63b8ff" points="534.46,-157.58 542.78,-151.01 532.18,-150.96 534.46,-157.58"/>
</a>
</g>
</g>
<!-- Node13 -->
<g id="Node000013" class="node">
<title>Node13</title>
<g id="a_Node000013"><a xlink:href="physics__math_8h.html" target="_top" xlink:title=" ">
<polygon fill="white" stroke="#666666" points="315,-151 186,-151 186,-121 315,-121 315,-151"/>
<text text-anchor="start" x="194" y="-139" font-family="Helvetica,sans-Serif" font-size="10.00">engine/physics/physics</text>
<text text-anchor="middle" x="250.5" y="-128" font-family="Helvetica,sans-Serif" font-size="10.00">_math.h</text>
</a>
</g>
</g>
<!-- Node1&#45;&gt;Node13 -->
<g id="edge19_Node000001_Node000013" class="edge">
<title>Node1&#45;&gt;Node13</title>
<g id="a_edge19_Node000001_Node000013"><a xlink:title=" ">
<path fill="none" stroke="#63b8ff" d="M365.24,-186.95C343.7,-177.58 315.17,-165.16 291.95,-155.05"/>
<polygon fill="#63b8ff" stroke="#63b8ff" points="293.25,-151.8 282.68,-151.01 290.46,-158.21 293.25,-151.8"/>
</a>
</g>
</g>
<!-- Node5 -->
<g id="Node000005" class="node">
<title>Node5</title>
<g id="a_Node000005"><a xlink:title=" ">
<polygon fill="#e0e0e0" stroke="#999999" points="878.5,-79.5 818.5,-79.5 818.5,-60.5 878.5,-60.5 878.5,-79.5"/>
<text text-anchor="middle" x="848.5" y="-67.5" font-family="Helvetica,sans-Serif" font-size="10.00">concepts</text>
</a>
</g>
</g>
<!-- Node4&#45;&gt;Node5 -->
<g id="edge4_Node000004_Node000005" class="edge">
<title>Node4&#45;&gt;Node5</title>
<g id="a_edge4_Node000004_Node000005"><a xlink:title=" ">
<path fill="none" stroke="#63b8ff" d="M813.89,-126.37C819.94,-116.69 829.91,-100.74 837.6,-88.44"/>
<polygon fill="#63b8ff" stroke="#63b8ff" points="840.6,-90.24 842.93,-79.91 834.67,-86.53 840.6,-90.24"/>
</a>
</g>
</g>
<!-- Node6&#45;&gt;Node2 -->
<g id="edge6_Node000006_Node000002" class="edge">
<title>Node6&#45;&gt;Node2</title>
<g id="a_edge6_Node000006_Node000002"><a xlink:title=" ">
<path fill="none" stroke="#63b8ff" d="M365.24,-120.95C339.57,-109.78 303.99,-94.29 279.28,-83.53"/>
<polygon fill="#63b8ff" stroke="#63b8ff" points="280.63,-80.3 270.06,-79.52 277.83,-86.72 280.63,-80.3"/>
</a>
</g>
</g>
<!-- Node6&#45;&gt;Node3 -->
<g id="edge7_Node000006_Node000003" class="edge">
<title>Node6&#45;&gt;Node3</title>
<g id="a_edge7_Node000006_Node000003"><a xlink:title=" ">
<path fill="none" stroke="#63b8ff" d="M405.42,-120.72C418.11,-97.81 442.99,-52.93 456.75,-28.09"/>
<polygon fill="#63b8ff" stroke="#63b8ff" points="459.96,-29.51 461.75,-19.07 453.84,-26.12 459.96,-29.51"/>
</a>
</g>
</g>
<!-- Node7&#45;&gt;Node2 -->
<g id="edge9_Node000007_Node000002" class="edge">
<title>Node7&#45;&gt;Node2</title>
<g id="a_edge9_Node000007_Node000002"><a xlink:title=" ">
<path fill="none" stroke="#63b8ff" d="M105.32,-120.95C138.51,-109.53 184.82,-93.6 216.14,-82.82"/>
<polygon fill="#63b8ff" stroke="#63b8ff" points="217.43,-86.08 225.75,-79.52 215.15,-79.46 217.43,-86.08"/>
</a>
</g>
</g>
<!-- Node7&#45;&gt;Node3 -->
<g id="edge10_Node000007_Node000003" class="edge">
<title>Node7&#45;&gt;Node3</title>
<g id="a_edge10_Node000007_Node000003"><a xlink:title=" ">
<path fill="none" stroke="#63b8ff" d="M63.39,-120.71C62.83,-102.53 64.94,-71.5 83.5,-55 108.88,-32.44 334.69,-17.68 427.22,-12.54"/>
<polygon fill="#63b8ff" stroke="#63b8ff" points="427.51,-16.02 437.3,-11.98 427.13,-9.04 427.51,-16.02"/>
</a>
</g>
</g>
<!-- Node8 -->
<g id="Node000008" class="node">
<title>Node8</title>
<g id="a_Node000008"><a xlink:title=" ">
<polygon fill="#e0e0e0" stroke="#999999" points="140,-79.5 93,-79.5 93,-60.5 140,-60.5 140,-79.5"/>
<text text-anchor="middle" x="116.5" y="-67.5" font-family="Helvetica,sans-Serif" font-size="10.00">vector</text>
</a>
</g>
</g>
<!-- Node7&#45;&gt;Node8 -->
<g id="edge11_Node000007_Node000008" class="edge">
<title>Node7&#45;&gt;Node8</title>
<g id="a_edge11_Node000007_Node000008"><a xlink:title=" ">
<path fill="none" stroke="#63b8ff" d="M76.04,-120.8C83.99,-111.01 94.58,-97.98 102.93,-87.7"/>
<polygon fill="#63b8ff" stroke="#63b8ff" points="105.72,-89.81 109.31,-79.84 100.29,-85.4 105.72,-89.81"/>
</a>
</g>
</g>
<!-- Node9&#45;&gt;Node2 -->
<g id="edge13_Node000009_Node000002" class="edge">
<title>Node9&#45;&gt;Node2</title>
<g id="a_edge13_Node000009_Node000002"><a xlink:title=" ">
<path fill="none" stroke="#63b8ff" d="M518.9,-122.58C456.81,-110.65 364,-92.81 305.39,-81.55"/>
<polygon fill="#63b8ff" stroke="#63b8ff" points="305.69,-78.04 295.21,-79.59 304.37,-84.92 305.69,-78.04"/>
</a>
</g>
</g>
<!-- Node9&#45;&gt;Node3 -->
<g id="edge14_Node000009_Node000003" class="edge">
<title>Node9&#45;&gt;Node3</title>
<g id="a_edge14_Node000009_Node000003"><a xlink:title=" ">
<path fill="none" stroke="#63b8ff" d="M564.45,-120.9C552.16,-111.39 536.17,-98.21 523.5,-85 506.14,-66.9 489.03,-43.61 478.16,-27.93"/>
<polygon fill="#63b8ff" stroke="#63b8ff" points="480.78,-25.55 472.25,-19.26 474.99,-29.49 480.78,-25.55"/>
</a>
</g>
</g>
<!-- Node10 -->
<g id="Node000010" class="node">
<title>Node10</title>
<g id="a_Node000010"><a xlink:href="component_8h.html" target="_top" xlink:title=" ">
<polygon fill="white" stroke="#666666" points="681,-79.5 532,-79.5 532,-60.5 681,-60.5 681,-79.5"/>
<text text-anchor="middle" x="606.5" y="-67.5" font-family="Helvetica,sans-Serif" font-size="10.00">engine/public/component.h</text>
</a>
</g>
</g>
<!-- Node9&#45;&gt;Node10 -->
<g id="edge15_Node000009_Node000010" class="edge">
<title>Node9&#45;&gt;Node10</title>
<g id="a_edge15_Node000009_Node000010"><a xlink:title=" ">
<path fill="none" stroke="#63b8ff" d="M588.6,-120.8C591.94,-111.5 596.34,-99.27 599.94,-89.26"/>
<polygon fill="#63b8ff" stroke="#63b8ff" points="603.23,-90.44 603.32,-79.84 596.65,-88.07 603.23,-90.44"/>
</a>
</g>
</g>
<!-- Node12 -->
<g id="Node000012" class="node">
<title>Node12</title>
<g id="a_Node000012"><a xlink:href="point_8h.html" target="_top" xlink:title=" ">
<polygon fill="white" stroke="#666666" points="800,-85 699,-85 699,-55 800,-55 800,-85"/>
<text text-anchor="start" x="707" y="-73" font-family="Helvetica,sans-Serif" font-size="10.00">engine/public/util</text>
<text text-anchor="middle" x="749.5" y="-62" font-family="Helvetica,sans-Serif" font-size="10.00">/point.h</text>
</a>
</g>
</g>
<!-- Node9&#45;&gt;Node12 -->
<g id="edge18_Node000009_Node000012" class="edge">
<title>Node9&#45;&gt;Node12</title>
<g id="a_edge18_Node000009_Node000012"><a xlink:title=" ">
<path fill="none" stroke="#63b8ff" d="M619.93,-120.95C644.58,-111.45 677.33,-98.82 703.74,-88.64"/>
<polygon fill="#63b8ff" stroke="#63b8ff" points="705.08,-91.88 713.16,-85.01 702.57,-85.34 705.08,-91.88"/>
</a>
</g>
</g>
<!-- Node10&#45;&gt;Node3 -->
<g id="edge16_Node000010_Node000003" class="edge">
<title>Node10&#45;&gt;Node3</title>
<g id="a_edge16_Node000010_Node000003"><a xlink:title=" ">
<path fill="none" stroke="#63b8ff" d="M586.14,-60.49C562.5,-50.62 523.3,-34.23 496.25,-22.93"/>
<polygon fill="#63b8ff" stroke="#63b8ff" points="497.46,-19.64 486.88,-19.02 494.76,-26.1 497.46,-19.64"/>
</a>
</g>
</g>
<!-- Node11 -->
<g id="Node000011" class="node">
<title>Node11</title>
<g id="a_Node000011"><a xlink:title=" ">
<polygon fill="#e0e0e0" stroke="#999999" points="634.5,-19 578.5,-19 578.5,0 634.5,0 634.5,-19"/>
<text text-anchor="middle" x="606.5" y="-7" font-family="Helvetica,sans-Serif" font-size="10.00">optional</text>
</a>
</g>
</g>
<!-- Node10&#45;&gt;Node11 -->
<g id="edge17_Node000010_Node000011" class="edge">
<title>Node10&#45;&gt;Node11</title>
<g id="a_edge17_Node000010_Node000011"><a xlink:title=" ">
<path fill="none" stroke="#63b8ff" d="M606.5,-60.37C606.5,-52.25 606.5,-39.81 606.5,-29.39"/>
<polygon fill="#63b8ff" stroke="#63b8ff" points="610,-29.17 606.5,-19.17 603,-29.17 610,-29.17"/>
</a>
</g>
</g>
<!-- Node13&#45;&gt;Node2 -->
<g id="edge20_Node000013_Node000002" class="edge">
<title>Node13&#45;&gt;Node2</title>
<g id="a_edge20_Node000013_Node000002"><a xlink:title=" ">
<path fill="none" stroke="#63b8ff" d="M250.5,-120.8C250.5,-111.7 250.5,-99.79 250.5,-89.9"/>
<polygon fill="#63b8ff" stroke="#63b8ff" points="254,-89.84 250.5,-79.84 247,-89.84 254,-89.84"/>
</a>
</g>
</g>
</g>
</svg>
