<?xml version="1.0" encoding="UTF-8" standalone="no"?>
<!DOCTYPE svg PUBLIC "-//W3C//DTD SVG 1.1//EN"
 "http://www.w3.org/Graphics/SVG/1.1/DTD/svg11.dtd">
<!-- Generated by graphviz version 2.43.0 (0)
 -->
<!-- Title: include/engine/physics/world/physics_world.h Pages: 1 -->
<svg width="1023pt" height="291pt"
 viewBox="0.00 0.00 1023.02 291.00" xmlns="http://www.w3.org/2000/svg" xmlns:xlink="http://www.w3.org/1999/xlink">
<g id="graph0" class="graph" transform="scale(1 1) rotate(0) translate(4 287)">
<title>include/engine/physics/world/physics_world.h</title>
<!-- Node1 -->
<g id="Node000001" class="node">
<title>Node1</title>
<g id="a_Node000001"><a xlink:title=" ">
<polygon fill="#999999" stroke="#666666" points="404.52,-283 276.52,-283 276.52,-253 404.52,-253 404.52,-283"/>
<text text-anchor="start" x="284.52" y="-271" font-family="Helvetica,sans-Serif" font-size="10.00">include/engine/physics</text>
<text text-anchor="middle" x="340.52" y="-260" font-family="Helvetica,sans-Serif" font-size="10.00">/world/physics_world.h</text>
</a>
</g>
</g>
<!-- Node2 -->
<g id="Node000002" class="node">
<title>Node2</title>
<g id="a_Node000002"><a xlink:title=" ">
<polygon fill="#e0e0e0" stroke="#999999" points="336.02,-19 247.02,-19 247.02,0 336.02,0 336.02,-19"/>
<text text-anchor="middle" x="291.52" y="-7" font-family="Helvetica,sans-Serif" font-size="10.00">box2d/box2d.h</text>
</a>
</g>
</g>
<!-- Node1&#45;&gt;Node2 -->
<g id="edge1_Node000001_Node000002" class="edge">
<title>Node1&#45;&gt;Node2</title>
<g id="a_edge1_Node000001_Node000002"><a xlink:title=" ">
<path fill="none" stroke="#63b8ff" d="M276.28,-255.68C193.28,-237 53.72,-190.69 5.52,-85 -0.01,-72.87 -3.15,-65.13 5.52,-55 34.67,-20.96 162.04,-12.75 236.61,-10.9"/>
<polygon fill="#63b8ff" stroke="#63b8ff" points="236.84,-14.4 246.76,-10.68 236.69,-7.4 236.84,-14.4"/>
</a>
</g>
</g>
<!-- Node3 -->
<g id="Node000003" class="node">
<title>Node3</title>
<g id="a_Node000003"><a xlink:title=" ">
<polygon fill="#e0e0e0" stroke="#999999" points="819.52,-79.5 761.52,-79.5 761.52,-60.5 819.52,-60.5 819.52,-79.5"/>
<text text-anchor="middle" x="790.52" y="-67.5" font-family="Helvetica,sans-Serif" font-size="10.00">memory</text>
</a>
</g>
</g>
<!-- Node1&#45;&gt;Node3 -->
<g id="edge2_Node000001_Node000003" class="edge">
<title>Node1&#45;&gt;Node3</title>
<g id="a_edge2_Node000001_Node000003"><a xlink:title=" ">
<path fill="none" stroke="#63b8ff" d="M404.85,-258.32C513.26,-242.38 725.43,-205.01 775.52,-151 790.73,-134.6 792.87,-107.91 792.28,-89.91"/>
<polygon fill="#63b8ff" stroke="#63b8ff" points="795.77,-89.53 791.64,-79.77 788.78,-89.97 795.77,-89.53"/>
</a>
</g>
</g>
<!-- Node4 -->
<g id="Node000004" class="node">
<title>Node4</title>
<g id="a_Node000004"><a xlink:href="physics__creation__factory_8h.html" target="_top" xlink:title=" ">
<polygon fill="white" stroke="#666666" points="491.02,-217 342.02,-217 342.02,-187 491.02,-187 491.02,-217"/>
<text text-anchor="start" x="350.02" y="-205" font-family="Helvetica,sans-Serif" font-size="10.00">engine/physics/creation</text>
<text text-anchor="middle" x="416.52" y="-194" font-family="Helvetica,sans-Serif" font-size="10.00">/physics_creation_factory.h</text>
</a>
</g>
</g>
<!-- Node1&#45;&gt;Node4 -->
<g id="edge3_Node000001_Node000004" class="edge">
<title>Node1&#45;&gt;Node4</title>
<g id="a_edge3_Node000001_Node000004"><a xlink:title=" ">
<path fill="none" stroke="#63b8ff" d="M357.39,-252.8C367.52,-244.26 380.6,-233.25 391.88,-223.75"/>
<polygon fill="#63b8ff" stroke="#63b8ff" points="394.31,-226.28 399.7,-217.16 389.8,-220.93 394.31,-226.28"/>
</a>
</g>
</g>
<!-- Node9 -->
<g id="Node000009" class="node">
<title>Node9</title>
<g id="a_Node000009"><a xlink:href="body__2d_8h.html" target="_top" xlink:title=" ">
<polygon fill="white" stroke="#666666" points="301.02,-151 182.02,-151 182.02,-121 301.02,-121 301.02,-151"/>
<text text-anchor="start" x="190.02" y="-139" font-family="Helvetica,sans-Serif" font-size="10.00">engine/physics/world</text>
<text text-anchor="middle" x="241.52" y="-128" font-family="Helvetica,sans-Serif" font-size="10.00">/body/body_2d.h</text>
</a>
</g>
</g>
<!-- Node1&#45;&gt;Node9 -->
<g id="edge27_Node000001_Node000009" class="edge">
<title>Node1&#45;&gt;Node9</title>
<g id="a_edge27_Node000001_Node000009"><a xlink:title=" ">
<path fill="none" stroke="#63b8ff" d="M329.74,-252.84C312.56,-230.28 278.82,-185.98 258.41,-159.18"/>
<polygon fill="#63b8ff" stroke="#63b8ff" points="261.14,-156.98 252.29,-151.14 255.57,-161.22 261.14,-156.98"/>
</a>
</g>
</g>
<!-- Node10 -->
<g id="Node000010" class="node">
<title>Node10</title>
<g id="a_Node000010"><a xlink:href="shape__type__2d_8h.html" target="_top" xlink:title=" ">
<polygon fill="white" stroke="#666666" points="263.02,-85 134.02,-85 134.02,-55 263.02,-55 263.02,-85"/>
<text text-anchor="start" x="142.02" y="-73" font-family="Helvetica,sans-Serif" font-size="10.00">engine/physics/world</text>
<text text-anchor="middle" x="198.52" y="-62" font-family="Helvetica,sans-Serif" font-size="10.00">/body/shape_type_2d.h</text>
</a>
</g>
</g>
<!-- Node1&#45;&gt;Node10 -->
<g id="edge28_Node000001_Node000010" class="edge">
<title>Node1&#45;&gt;Node10</title>
<g id="a_edge28_Node000001_Node000010"><a xlink:title=" ">
<path fill="none" stroke="#63b8ff" d="M301.86,-252.92C261.26,-235.8 199.62,-202.63 172.52,-151 162.9,-132.67 171.91,-110.11 181.86,-93.63"/>
<polygon fill="#63b8ff" stroke="#63b8ff" points="184.85,-95.45 187.38,-85.16 178.99,-91.63 184.85,-95.45"/>
</a>
</g>
</g>
<!-- Node11 -->
<g id="Node000011" class="node">
<title>Node11</title>
<g id="a_Node000011"><a xlink:href="vector3_8h.html" target="_top" xlink:title=" ">
<polygon fill="white" stroke="#666666" points="116.02,-85 15.02,-85 15.02,-55 116.02,-55 116.02,-85"/>
<text text-anchor="start" x="23.02" y="-73" font-family="Helvetica,sans-Serif" font-size="10.00">engine/public/util</text>
<text text-anchor="middle" x="65.52" y="-62" font-family="Helvetica,sans-Serif" font-size="10.00">/vector3.h</text>
</a>
</g>
</g>
<!-- Node1&#45;&gt;Node11 -->
<g id="edge31_Node000001_Node000011" class="edge">
<title>Node1&#45;&gt;Node11</title>
<g id="a_edge31_Node000001_Node000011"><a xlink:title=" ">
<path fill="none" stroke="#63b8ff" d="M279.34,-252.91C252.78,-245 222.17,-233.36 197.52,-217 146.74,-183.29 102.63,-125.66 80.56,-93.82"/>
<polygon fill="#63b8ff" stroke="#63b8ff" points="83.2,-91.49 74.68,-85.2 77.42,-95.43 83.2,-91.49"/>
</a>
</g>
</g>
<!-- Node15 -->
<g id="Node000015" class="node">
<title>Node15</title>
<g id="a_Node000015"><a xlink:href="point_8h.html" target="_top" xlink:title=" ">
<polygon fill="white" stroke="#666666" points="935.02,-151 834.02,-151 834.02,-121 935.02,-121 935.02,-151"/>
<text text-anchor="start" x="842.02" y="-139" font-family="Helvetica,sans-Serif" font-size="10.00">engine/public/util</text>
<text text-anchor="middle" x="884.52" y="-128" font-family="Helvetica,sans-Serif" font-size="10.00">/point.h</text>
</a>
</g>
</g>
<!-- Node1&#45;&gt;Node15 -->
<g id="edge32_Node000001_Node000015" class="edge">
<title>Node1&#45;&gt;Node15</title>
<g id="a_edge32_Node000001_Node000015"><a xlink:title=" ">
<path fill="none" stroke="#63b8ff" d="M404.79,-266.3C518.44,-264.09 749.49,-254.92 819.52,-217 843.22,-204.17 861.52,-178.76 872.59,-160"/>
<polygon fill="#63b8ff" stroke="#63b8ff" points="875.71,-161.59 877.56,-151.16 869.61,-158.16 875.71,-161.59"/>
</a>
</g>
</g>
<!-- Node16 -->
<g id="Node000016" class="node">
<title>Node16</title>
<g id="a_Node000016"><a xlink:href="body__distance__2d_8h.html" target="_top" xlink:title=" ">
<polygon fill="white" stroke="#666666" points="1015.02,-217 872.02,-217 872.02,-187 1015.02,-187 1015.02,-217"/>
<text text-anchor="start" x="880.02" y="-205" font-family="Helvetica,sans-Serif" font-size="10.00">engine/physics/world</text>
<text text-anchor="middle" x="943.52" y="-194" font-family="Helvetica,sans-Serif" font-size="10.00">/body/body_distance_2d.h</text>
</a>
</g>
</g>
<!-- Node1&#45;&gt;Node16 -->
<g id="edge29_Node000001_Node000016" class="edge">
<title>Node1&#45;&gt;Node16</title>
<g id="a_edge29_Node000001_Node000016"><a xlink:title=" ">
<path fill="none" stroke="#63b8ff" d="M404.75,-262.14C502.65,-254.42 694.99,-238.07 857.52,-217 858.83,-216.83 860.15,-216.66 861.48,-216.48"/>
<polygon fill="#63b8ff" stroke="#63b8ff" points="862.36,-219.89 871.78,-215.04 861.39,-212.96 862.36,-219.89"/>
</a>
</g>
</g>
<!-- Node4&#45;&gt;Node2 -->
<g id="edge4_Node000004_Node000002" class="edge">
<title>Node4&#45;&gt;Node2</title>
<g id="a_edge4_Node000004_Node000002"><a xlink:title=" ">
<path fill="none" stroke="#63b8ff" d="M405.9,-186.72C398.6,-176.8 388.79,-163.23 380.52,-151 351,-107.32 318.32,-54.48 302,-27.76"/>
<polygon fill="#63b8ff" stroke="#63b8ff" points="304.96,-25.89 296.77,-19.17 298.98,-29.53 304.96,-25.89"/>
</a>
</g>
</g>
<!-- Node4&#45;&gt;Node3 -->
<g id="edge5_Node000004_Node000003" class="edge">
<title>Node4&#45;&gt;Node3</title>
<g id="a_edge5_Node000004_Node000003"><a xlink:title=" ">
<path fill="none" stroke="#63b8ff" d="M491.21,-197.52C576.17,-192.24 708.33,-179.6 748.52,-151 769.25,-136.25 780.57,-108.08 786.09,-89.42"/>
<polygon fill="#63b8ff" stroke="#63b8ff" points="789.48,-90.26 788.69,-79.7 782.72,-88.45 789.48,-90.26"/>
</a>
</g>
</g>
<!-- Node5 -->
<g id="Node000005" class="node">
<title>Node5</title>
<g id="a_Node000005"><a xlink:title=" ">
<polygon fill="#e0e0e0" stroke="#999999" points="586.02,-79.5 539.02,-79.5 539.02,-60.5 586.02,-60.5 586.02,-79.5"/>
<text text-anchor="middle" x="562.52" y="-67.5" font-family="Helvetica,sans-Serif" font-size="10.00">vector</text>
</a>
</g>
</g>
<!-- Node4&#45;&gt;Node5 -->
<g id="edge6_Node000004_Node000005" class="edge">
<title>Node4&#45;&gt;Node5</title>
<g id="a_edge6_Node000004_Node000005"><a xlink:title=" ">
<path fill="none" stroke="#63b8ff" d="M485.87,-186.96C507.03,-179.51 528.62,-168.18 543.52,-151 558.32,-133.93 562.09,-107.4 562.8,-89.62"/>
<polygon fill="#63b8ff" stroke="#63b8ff" points="566.3,-89.66 562.92,-79.62 559.3,-89.58 566.3,-89.66"/>
</a>
</g>
</g>
<!-- Node6 -->
<g id="Node000006" class="node">
<title>Node6</title>
<g id="a_Node000006"><a xlink:href="physics__creation__flags_8h.html" target="_top" xlink:title=" ">
<polygon fill="white" stroke="#666666" points="535.02,-151 396.02,-151 396.02,-121 535.02,-121 535.02,-151"/>
<text text-anchor="start" x="404.02" y="-139" font-family="Helvetica,sans-Serif" font-size="10.00">engine/physics/creation</text>
<text text-anchor="middle" x="465.52" y="-128" font-family="Helvetica,sans-Serif" font-size="10.00">/physics_creation_flags.h</text>
</a>
</g>
</g>
<!-- Node4&#45;&gt;Node6 -->
<g id="edge7_Node000004_Node000006" class="edge">
<title>Node4&#45;&gt;Node6</title>
<g id="a_edge7_Node000004_Node000006"><a xlink:title=" ">
<path fill="none" stroke="#63b8ff" d="M427.4,-186.8C433.61,-178.68 441.55,-168.31 448.57,-159.15"/>
<polygon fill="#63b8ff" stroke="#63b8ff" points="451.38,-161.23 454.68,-151.16 445.82,-156.98 451.38,-161.23"/>
</a>
</g>
</g>
<!-- Node8 -->
<g id="Node000008" class="node">
<title>Node8</title>
<g id="a_Node000008"><a xlink:href="body__type__2d_8h.html" target="_top" xlink:title=" ">
<polygon fill="white" stroke="#666666" points="481.52,-85 357.52,-85 357.52,-55 481.52,-55 481.52,-85"/>
<text text-anchor="start" x="365.52" y="-73" font-family="Helvetica,sans-Serif" font-size="10.00">engine/physics/world</text>
<text text-anchor="middle" x="419.52" y="-62" font-family="Helvetica,sans-Serif" font-size="10.00">/body/body_type_2d.h</text>
</a>
</g>
</g>
<!-- Node4&#45;&gt;Node8 -->
<g id="edge9_Node000004_Node000008" class="edge">
<title>Node4&#45;&gt;Node8</title>
<g id="a_edge9_Node000004_Node000008"><a xlink:title=" ">
<path fill="none" stroke="#63b8ff" d="M405.04,-186.66C398.19,-177.16 390.14,-164.07 386.52,-151 382.96,-138.15 382.69,-133.77 386.52,-121 389.47,-111.2 395.02,-101.54 400.75,-93.37"/>
<polygon fill="#63b8ff" stroke="#63b8ff" points="403.72,-95.25 406.91,-85.15 398.11,-91.05 403.72,-95.25"/>
</a>
</g>
</g>
<!-- Node4&#45;&gt;Node9 -->
<g id="edge12_Node000004_Node000009" class="edge">
<title>Node4&#45;&gt;Node9</title>
<g id="a_edge12_Node000004_Node000009"><a xlink:title=" ">
<path fill="none" stroke="#63b8ff" d="M378.12,-186.95C352.02,-177.41 317.3,-164.71 289.4,-154.51"/>
<polygon fill="#63b8ff" stroke="#63b8ff" points="290.43,-151.16 279.84,-151.01 288.03,-157.73 290.43,-151.16"/>
</a>
</g>
</g>
<!-- Node4&#45;&gt;Node11 -->
<g id="edge26_Node000004_Node000011" class="edge">
<title>Node4&#45;&gt;Node11</title>
<g id="a_edge26_Node000004_Node000011"><a xlink:title=" ">
<path fill="none" stroke="#63b8ff" d="M341.86,-194.29C292.16,-187.79 226.37,-175.18 172.52,-151 140.02,-136.4 108,-110.52 87.58,-92.15"/>
<polygon fill="#63b8ff" stroke="#63b8ff" points="89.83,-89.46 80.09,-85.28 85.09,-94.62 89.83,-89.46"/>
</a>
</g>
</g>
<!-- Node12 -->
<g id="Node000012" class="node">
<title>Node12</title>
<g id="a_Node000012"><a xlink:href="component_8h.html" target="_top" xlink:title=" ">
<polygon fill="white" stroke="#666666" points="740.02,-145.5 591.02,-145.5 591.02,-126.5 740.02,-126.5 740.02,-145.5"/>
<text text-anchor="middle" x="665.52" y="-133.5" font-family="Helvetica,sans-Serif" font-size="10.00">engine/public/component.h</text>
</a>
</g>
</g>
<!-- Node4&#45;&gt;Node12 -->
<g id="edge20_Node000004_Node000012" class="edge">
<title>Node4&#45;&gt;Node12</title>
<g id="a_edge20_Node000004_Node000012"><a xlink:title=" ">
<path fill="none" stroke="#63b8ff" d="M471.17,-186.95C516.66,-175.26 580.56,-158.84 622.49,-148.06"/>
<polygon fill="#63b8ff" stroke="#63b8ff" points="623.57,-151.4 632.39,-145.52 621.83,-144.62 623.57,-151.4"/>
</a>
</g>
</g>
<!-- Node4&#45;&gt;Node15 -->
<g id="edge25_Node000004_Node000015" class="edge">
<title>Node4&#45;&gt;Node15</title>
<g id="a_edge25_Node000004_Node000015"><a xlink:title=" ">
<path fill="none" stroke="#63b8ff" d="M491.2,-190.79C583.45,-178.17 738.61,-156.95 823.87,-145.29"/>
<polygon fill="#63b8ff" stroke="#63b8ff" points="824.48,-148.74 833.91,-143.92 823.53,-141.81 824.48,-148.74"/>
</a>
</g>
</g>
<!-- Node7 -->
<g id="Node000007" class="node">
<title>Node7</title>
<g id="a_Node000007"><a xlink:title=" ">
<polygon fill="#e0e0e0" stroke="#999999" points="444.52,-19 394.52,-19 394.52,0 444.52,0 444.52,-19"/>
<text text-anchor="middle" x="419.52" y="-7" font-family="Helvetica,sans-Serif" font-size="10.00">cstdint</text>
</a>
</g>
</g>
<!-- Node6&#45;&gt;Node7 -->
<g id="edge8_Node000006_Node000007" class="edge">
<title>Node6&#45;&gt;Node7</title>
<g id="a_edge8_Node000006_Node000007"><a xlink:title=" ">
<path fill="none" stroke="#63b8ff" d="M476.55,-120.72C487.89,-104.16 502.36,-76.39 490.52,-55 482.63,-40.73 468.03,-30.42 454.11,-23.34"/>
<polygon fill="#63b8ff" stroke="#63b8ff" points="455.22,-20 444.68,-18.95 452.26,-26.35 455.22,-20"/>
</a>
</g>
</g>
<!-- Node8&#45;&gt;Node2 -->
<g id="edge10_Node000008_Node000002" class="edge">
<title>Node8&#45;&gt;Node2</title>
<g id="a_edge10_Node000008_Node000002"><a xlink:title=" ">
<path fill="none" stroke="#63b8ff" d="M388.86,-54.99C367.79,-45.36 340.04,-32.67 319.55,-23.31"/>
<polygon fill="#63b8ff" stroke="#63b8ff" points="320.98,-20.11 310.43,-19.14 318.07,-26.48 320.98,-20.11"/>
</a>
</g>
</g>
<!-- Node8&#45;&gt;Node7 -->
<g id="edge11_Node000008_Node000007" class="edge">
<title>Node8&#45;&gt;Node7</title>
<g id="a_edge11_Node000008_Node000007"><a xlink:title=" ">
<path fill="none" stroke="#63b8ff" d="M419.52,-54.84C419.52,-47.21 419.52,-37.7 419.52,-29.45"/>
<polygon fill="#63b8ff" stroke="#63b8ff" points="423.02,-29.27 419.52,-19.27 416.02,-29.27 423.02,-29.27"/>
</a>
</g>
</g>
<!-- Node9&#45;&gt;Node2 -->
<g id="edge13_Node000009_Node000002" class="edge">
<title>Node9&#45;&gt;Node2</title>
<g id="a_edge13_Node000009_Node000002"><a xlink:title=" ">
<path fill="none" stroke="#63b8ff" d="M251.57,-120.69C258.01,-110.99 266.14,-97.67 271.52,-85 279.35,-66.55 284.86,-44.21 288.09,-28.83"/>
<polygon fill="#63b8ff" stroke="#63b8ff" points="291.52,-29.51 290.04,-19.02 284.66,-28.15 291.52,-29.51"/>
</a>
</g>
</g>
<!-- Node9&#45;&gt;Node5 -->
<g id="edge14_Node000009_Node000005" class="edge">
<title>Node9&#45;&gt;Node5</title>
<g id="a_edge14_Node000009_Node000005"><a xlink:title=" ">
<path fill="none" stroke="#63b8ff" d="M301.15,-123.11C368.12,-109.76 474.5,-88.55 528.57,-77.77"/>
<polygon fill="#63b8ff" stroke="#63b8ff" points="529.53,-81.15 538.66,-75.76 528.16,-74.28 529.53,-81.15"/>
</a>
</g>
</g>
<!-- Node9&#45;&gt;Node8 -->
<g id="edge18_Node000009_Node000008" class="edge">
<title>Node9&#45;&gt;Node8</title>
<g id="a_edge18_Node000009_Node000008"><a xlink:title=" ">
<path fill="none" stroke="#63b8ff" d="M280.59,-120.95C307.13,-111.41 342.45,-98.71 370.83,-88.51"/>
<polygon fill="#63b8ff" stroke="#63b8ff" points="372.33,-91.69 380.55,-85.01 369.96,-85.1 372.33,-91.69"/>
</a>
</g>
</g>
<!-- Node9&#45;&gt;Node10 -->
<g id="edge15_Node000009_Node000010" class="edge">
<title>Node9&#45;&gt;Node10</title>
<g id="a_edge15_Node000009_Node000010"><a xlink:title=" ">
<path fill="none" stroke="#63b8ff" d="M231.98,-120.8C226.64,-112.84 219.85,-102.74 213.78,-93.71"/>
<polygon fill="#63b8ff" stroke="#63b8ff" points="216.52,-91.51 208.04,-85.16 210.71,-95.42 216.52,-91.51"/>
</a>
</g>
</g>
<!-- Node9&#45;&gt;Node11 -->
<g id="edge19_Node000009_Node000011" class="edge">
<title>Node9&#45;&gt;Node11</title>
<g id="a_edge19_Node000009_Node000011"><a xlink:title=" ">
<path fill="none" stroke="#63b8ff" d="M202.9,-120.95C176.65,-111.41 141.73,-98.71 113.67,-88.51"/>
<polygon fill="#63b8ff" stroke="#63b8ff" points="114.65,-85.14 104.06,-85.01 112.26,-91.72 114.65,-85.14"/>
</a>
</g>
</g>
<!-- Node10&#45;&gt;Node2 -->
<g id="edge16_Node000010_Node000002" class="edge">
<title>Node10&#45;&gt;Node2</title>
<g id="a_edge16_Node000010_Node000002"><a xlink:title=" ">
<path fill="none" stroke="#63b8ff" d="M221.04,-54.84C235.59,-45.68 254.46,-33.82 269.01,-24.66"/>
<polygon fill="#63b8ff" stroke="#63b8ff" points="271.26,-27.38 277.86,-19.09 267.53,-21.46 271.26,-27.38"/>
</a>
</g>
</g>
<!-- Node10&#45;&gt;Node7 -->
<g id="edge17_Node000010_Node000007" class="edge">
<title>Node10&#45;&gt;Node7</title>
<g id="a_edge17_Node000010_Node000007"><a xlink:title=" ">
<path fill="none" stroke="#63b8ff" d="M251.46,-54.99C292.6,-44.1 348.52,-29.3 384.32,-19.82"/>
<polygon fill="#63b8ff" stroke="#63b8ff" points="385.53,-23.12 394.3,-17.18 383.74,-16.35 385.53,-23.12"/>
</a>
</g>
</g>
<!-- Node12&#45;&gt;Node3 -->
<g id="edge22_Node000012_Node000003" class="edge">
<title>Node12&#45;&gt;Node3</title>
<g id="a_edge22_Node000012_Node000003"><a xlink:title=" ">
<path fill="none" stroke="#63b8ff" d="M682.38,-126.37C703.44,-115.59 739.71,-97.02 764.38,-84.38"/>
<polygon fill="#63b8ff" stroke="#63b8ff" points="766.23,-87.37 773.53,-79.7 763.04,-81.14 766.23,-87.37"/>
</a>
</g>
</g>
<!-- Node12&#45;&gt;Node5 -->
<g id="edge24_Node000012_Node000005" class="edge">
<title>Node12&#45;&gt;Node5</title>
<g id="a_edge24_Node000012_Node000005"><a xlink:title=" ">
<path fill="none" stroke="#63b8ff" d="M651.63,-126.37C634.58,-115.78 605.45,-97.67 585.15,-85.06"/>
<polygon fill="#63b8ff" stroke="#63b8ff" points="586.86,-82 576.52,-79.7 583.17,-87.95 586.86,-82"/>
</a>
</g>
</g>
<!-- Node13 -->
<g id="Node000013" class="node">
<title>Node13</title>
<g id="a_Node000013"><a xlink:title=" ">
<polygon fill="#e0e0e0" stroke="#999999" points="669.02,-79.5 604.02,-79.5 604.02,-60.5 669.02,-60.5 669.02,-79.5"/>
<text text-anchor="middle" x="636.52" y="-67.5" font-family="Helvetica,sans-Serif" font-size="10.00">functional</text>
</a>
</g>
</g>
<!-- Node12&#45;&gt;Node13 -->
<g id="edge21_Node000012_Node000013" class="edge">
<title>Node12&#45;&gt;Node13</title>
<g id="a_edge21_Node000012_Node000013"><a xlink:title=" ">
<path fill="none" stroke="#63b8ff" d="M661.61,-126.37C657.31,-116.88 650.28,-101.36 644.75,-89.16"/>
<polygon fill="#63b8ff" stroke="#63b8ff" points="647.87,-87.57 640.56,-79.91 641.5,-90.46 647.87,-87.57"/>
</a>
</g>
</g>
<!-- Node14 -->
<g id="Node000014" class="node">
<title>Node14</title>
<g id="a_Node000014"><a xlink:title=" ">
<polygon fill="#e0e0e0" stroke="#999999" points="743.52,-79.5 687.52,-79.5 687.52,-60.5 743.52,-60.5 743.52,-79.5"/>
<text text-anchor="middle" x="715.52" y="-67.5" font-family="Helvetica,sans-Serif" font-size="10.00">optional</text>
</a>
</g>
</g>
<!-- Node12&#45;&gt;Node14 -->
<g id="edge23_Node000012_Node000014" class="edge">
<title>Node12&#45;&gt;Node14</title>
<g id="a_edge23_Node000012_Node000014"><a xlink:title=" ">
<path fill="none" stroke="#63b8ff" d="M672.27,-126.37C679.9,-116.59 692.54,-100.42 702.18,-88.08"/>
<polygon fill="#63b8ff" stroke="#63b8ff" points="705.17,-89.94 708.57,-79.91 699.65,-85.63 705.17,-89.94"/>
</a>
</g>
</g>
<!-- Node16&#45;&gt;Node15 -->
<g id="edge30_Node000016_Node000015" class="edge">
<title>Node16&#45;&gt;Node15</title>
<g id="a_edge30_Node000016_Node000015"><a xlink:title=" ">
<path fill="none" stroke="#63b8ff" d="M930.43,-186.8C922.79,-178.51 913,-167.89 904.42,-158.59"/>
<polygon fill="#63b8ff" stroke="#63b8ff" points="906.93,-156.14 897.58,-151.16 901.79,-160.89 906.93,-156.14"/>
</a>
</g>
</g>
</g>
</svg>
