<?xml version="1.0" encoding="UTF-8" standalone="no"?>
<!DOCTYPE svg PUBLIC "-//W3C//DTD SVG 1.1//EN"
 "http://www.w3.org/Graphics/SVG/1.1/DTD/svg11.dtd">
<!-- Generated by graphviz version 2.43.0 (0)
 -->
<!-- Title: include/engine/physics/creation/physics_creation_factory.h Pages: 1 -->
<svg width="880pt" height="236pt"
 viewBox="0.00 0.00 880.02 236.00" xmlns="http://www.w3.org/2000/svg" xmlns:xlink="http://www.w3.org/1999/xlink">
<g id="graph0" class="graph" transform="scale(1 1) rotate(0) translate(4 232)">
<title>include/engine/physics/creation/physics_creation_factory.h</title>
<!-- Node1 -->
<g id="Node000001" class="node">
<title>Node1</title>
<g id="a_Node000001"><a xlink:title=" ">
<polygon fill="#999999" stroke="#666666" points="512.52,-228 368.52,-228 368.52,-187 512.52,-187 512.52,-228"/>
<text text-anchor="start" x="376.52" y="-216" font-family="Helvetica,sans-Serif" font-size="10.00">include/engine/physics</text>
<text text-anchor="start" x="376.52" y="-205" font-family="Helvetica,sans-Serif" font-size="10.00">/creation/physics_creation</text>
<text text-anchor="middle" x="440.52" y="-194" font-family="Helvetica,sans-Serif" font-size="10.00">_factory.h</text>
</a>
</g>
</g>
<!-- Node2 -->
<g id="Node000002" class="node">
<title>Node2</title>
<g id="a_Node000002"><a xlink:title=" ">
<polygon fill="#e0e0e0" stroke="#999999" points="166.02,-19 77.02,-19 77.02,0 166.02,0 166.02,-19"/>
<text text-anchor="middle" x="121.52" y="-7" font-family="Helvetica,sans-Serif" font-size="10.00">box2d/box2d.h</text>
</a>
</g>
</g>
<!-- Node1&#45;&gt;Node2 -->
<g id="edge1_Node000001_Node000002" class="edge">
<title>Node1&#45;&gt;Node2</title>
<g id="a_edge1_Node000001_Node000002"><a xlink:title=" ">
<path fill="none" stroke="#63b8ff" d="M368.35,-198.05C254.82,-182.97 43.46,-147.04 5.52,-85 -1.44,-73.63 -2.04,-65.99 5.52,-55 19.46,-34.72 44.02,-23.67 66.96,-17.66"/>
<polygon fill="#63b8ff" stroke="#63b8ff" points="68.07,-21 77,-15.31 66.47,-14.19 68.07,-21"/>
</a>
</g>
</g>
<!-- Node3 -->
<g id="Node000003" class="node">
<title>Node3</title>
<g id="a_Node000003"><a xlink:title=" ">
<polygon fill="#e0e0e0" stroke="#999999" points="627.52,-79.5 569.52,-79.5 569.52,-60.5 627.52,-60.5 627.52,-79.5"/>
<text text-anchor="middle" x="598.52" y="-67.5" font-family="Helvetica,sans-Serif" font-size="10.00">memory</text>
</a>
</g>
</g>
<!-- Node1&#45;&gt;Node3 -->
<g id="edge2_Node000001_Node000003" class="edge">
<title>Node1&#45;&gt;Node3</title>
<g id="a_edge2_Node000001_Node000003"><a xlink:title=" ">
<path fill="none" stroke="#63b8ff" d="M483.03,-186.91C500.93,-177.51 521.32,-165.19 537.52,-151 558.69,-132.45 577.38,-105.55 588.32,-88.17"/>
<polygon fill="#63b8ff" stroke="#63b8ff" points="591.33,-89.96 593.57,-79.6 585.36,-86.3 591.33,-89.96"/>
</a>
</g>
</g>
<!-- Node4 -->
<g id="Node000004" class="node">
<title>Node4</title>
<g id="a_Node000004"><a xlink:title=" ">
<polygon fill="#e0e0e0" stroke="#999999" points="551.02,-79.5 504.02,-79.5 504.02,-60.5 551.02,-60.5 551.02,-79.5"/>
<text text-anchor="middle" x="527.52" y="-67.5" font-family="Helvetica,sans-Serif" font-size="10.00">vector</text>
</a>
</g>
</g>
<!-- Node1&#45;&gt;Node4 -->
<g id="edge3_Node000001_Node000004" class="edge">
<title>Node1&#45;&gt;Node4</title>
<g id="a_edge3_Node000001_Node000004"><a xlink:title=" ">
<path fill="none" stroke="#63b8ff" d="M481.69,-186.95C496.03,-178.03 510.72,-166.05 519.52,-151 530.39,-132.4 531.06,-107.14 529.88,-90.02"/>
<polygon fill="#63b8ff" stroke="#63b8ff" points="533.32,-89.26 528.86,-79.65 526.35,-89.94 533.32,-89.26"/>
</a>
</g>
</g>
<!-- Node5 -->
<g id="Node000005" class="node">
<title>Node5</title>
<g id="a_Node000005"><a xlink:href="physics__creation__flags_8h.html" target="_top" xlink:title=" ">
<polygon fill="white" stroke="#666666" points="510.02,-151 371.02,-151 371.02,-121 510.02,-121 510.02,-151"/>
<text text-anchor="start" x="379.02" y="-139" font-family="Helvetica,sans-Serif" font-size="10.00">engine/physics/creation</text>
<text text-anchor="middle" x="440.52" y="-128" font-family="Helvetica,sans-Serif" font-size="10.00">/physics_creation_flags.h</text>
</a>
</g>
</g>
<!-- Node1&#45;&gt;Node5 -->
<g id="edge4_Node000001_Node000005" class="edge">
<title>Node1&#45;&gt;Node5</title>
<g id="a_edge4_Node000001_Node000005"><a xlink:title=" ">
<path fill="none" stroke="#63b8ff" d="M440.52,-186.77C440.52,-178.85 440.52,-169.63 440.52,-161.3"/>
<polygon fill="#63b8ff" stroke="#63b8ff" points="444.02,-161.04 440.52,-151.04 437.02,-161.04 444.02,-161.04"/>
</a>
</g>
</g>
<!-- Node7 -->
<g id="Node000007" class="node">
<title>Node7</title>
<g id="a_Node000007"><a xlink:href="body__type__2d_8h.html" target="_top" xlink:title=" ">
<polygon fill="white" stroke="#666666" points="138.52,-85 14.52,-85 14.52,-55 138.52,-55 138.52,-85"/>
<text text-anchor="start" x="22.52" y="-73" font-family="Helvetica,sans-Serif" font-size="10.00">engine/physics/world</text>
<text text-anchor="middle" x="76.52" y="-62" font-family="Helvetica,sans-Serif" font-size="10.00">/body/body_type_2d.h</text>
</a>
</g>
</g>
<!-- Node1&#45;&gt;Node7 -->
<g id="edge6_Node000001_Node000007" class="edge">
<title>Node1&#45;&gt;Node7</title>
<g id="a_edge6_Node000001_Node000007"><a xlink:title=" ">
<path fill="none" stroke="#63b8ff" d="M368.46,-198.98C315.95,-191.59 244.06,-177.41 185.52,-151 152.65,-136.17 119.98,-110.34 99.1,-92.04"/>
<polygon fill="#63b8ff" stroke="#63b8ff" points="101.23,-89.25 91.44,-85.2 96.57,-94.47 101.23,-89.25"/>
</a>
</g>
</g>
<!-- Node8 -->
<g id="Node000008" class="node">
<title>Node8</title>
<g id="a_Node000008"><a xlink:href="body__2d_8h.html" target="_top" xlink:title=" ">
<polygon fill="white" stroke="#666666" points="314.02,-151 195.02,-151 195.02,-121 314.02,-121 314.02,-151"/>
<text text-anchor="start" x="203.02" y="-139" font-family="Helvetica,sans-Serif" font-size="10.00">engine/physics/world</text>
<text text-anchor="middle" x="254.52" y="-128" font-family="Helvetica,sans-Serif" font-size="10.00">/body/body_2d.h</text>
</a>
</g>
</g>
<!-- Node1&#45;&gt;Node8 -->
<g id="edge9_Node000001_Node000008" class="edge">
<title>Node1&#45;&gt;Node8</title>
<g id="a_edge9_Node000001_Node000008"><a xlink:title=" ">
<path fill="none" stroke="#63b8ff" d="M388.21,-186.96C360.94,-176.76 327.85,-164.4 301.41,-154.52"/>
<polygon fill="#63b8ff" stroke="#63b8ff" points="302.59,-151.23 291.99,-151 300.14,-157.78 302.59,-151.23"/>
</a>
</g>
</g>
<!-- Node10 -->
<g id="Node000010" class="node">
<title>Node10</title>
<g id="a_Node000010"><a xlink:href="vector3_8h.html" target="_top" xlink:title=" ">
<polygon fill="white" stroke="#666666" points="443.02,-85 342.02,-85 342.02,-55 443.02,-55 443.02,-85"/>
<text text-anchor="start" x="350.02" y="-73" font-family="Helvetica,sans-Serif" font-size="10.00">engine/public/util</text>
<text text-anchor="middle" x="392.52" y="-62" font-family="Helvetica,sans-Serif" font-size="10.00">/vector3.h</text>
</a>
</g>
</g>
<!-- Node1&#45;&gt;Node10 -->
<g id="edge23_Node000001_Node000010" class="edge">
<title>Node1&#45;&gt;Node10</title>
<g id="a_edge23_Node000001_Node000010"><a xlink:title=" ">
<path fill="none" stroke="#63b8ff" d="M398.23,-186.77C384.25,-177.94 370.29,-166.07 362.52,-151 352.88,-132.31 363.11,-109.79 374.16,-93.41"/>
<polygon fill="#63b8ff" stroke="#63b8ff" points="377.22,-95.16 380.27,-85.01 371.56,-91.04 377.22,-95.16"/>
</a>
</g>
</g>
<!-- Node11 -->
<g id="Node000011" class="node">
<title>Node11</title>
<g id="a_Node000011"><a xlink:href="component_8h.html" target="_top" xlink:title=" ">
<polygon fill="white" stroke="#666666" points="753.02,-145.5 604.02,-145.5 604.02,-126.5 753.02,-126.5 753.02,-145.5"/>
<text text-anchor="middle" x="678.52" y="-133.5" font-family="Helvetica,sans-Serif" font-size="10.00">engine/public/component.h</text>
</a>
</g>
</g>
<!-- Node1&#45;&gt;Node11 -->
<g id="edge17_Node000001_Node000011" class="edge">
<title>Node1&#45;&gt;Node11</title>
<g id="a_edge17_Node000001_Node000011"><a xlink:title=" ">
<path fill="none" stroke="#63b8ff" d="M507.45,-186.96C549.99,-174.53 603.6,-158.88 639.36,-148.44"/>
<polygon fill="#63b8ff" stroke="#63b8ff" points="640.78,-151.67 649.4,-145.5 638.82,-144.95 640.78,-151.67"/>
</a>
</g>
</g>
<!-- Node14 -->
<g id="Node000014" class="node">
<title>Node14</title>
<g id="a_Node000014"><a xlink:href="point_8h.html" target="_top" xlink:title=" ">
<polygon fill="white" stroke="#666666" points="872.02,-151 771.02,-151 771.02,-121 872.02,-121 872.02,-151"/>
<text text-anchor="start" x="779.02" y="-139" font-family="Helvetica,sans-Serif" font-size="10.00">engine/public/util</text>
<text text-anchor="middle" x="821.52" y="-128" font-family="Helvetica,sans-Serif" font-size="10.00">/point.h</text>
</a>
</g>
</g>
<!-- Node1&#45;&gt;Node14 -->
<g id="edge22_Node000001_Node000014" class="edge">
<title>Node1&#45;&gt;Node14</title>
<g id="a_edge22_Node000001_Node000014"><a xlink:title=" ">
<path fill="none" stroke="#63b8ff" d="M512.69,-195.38C575.81,-185.35 670.15,-169.64 760.82,-151.28"/>
<polygon fill="#63b8ff" stroke="#63b8ff" points="761.61,-154.69 770.71,-149.27 760.21,-147.83 761.61,-154.69"/>
</a>
</g>
</g>
<!-- Node6 -->
<g id="Node000006" class="node">
<title>Node6</title>
<g id="a_Node000006"><a xlink:title=" ">
<polygon fill="#e0e0e0" stroke="#999999" points="284.52,-19 234.52,-19 234.52,0 284.52,0 284.52,-19"/>
<text text-anchor="middle" x="259.52" y="-7" font-family="Helvetica,sans-Serif" font-size="10.00">cstdint</text>
</a>
</g>
</g>
<!-- Node5&#45;&gt;Node6 -->
<g id="edge5_Node000005_Node000006" class="edge">
<title>Node5&#45;&gt;Node6</title>
<g id="a_edge5_Node000005_Node000006"><a xlink:title=" ">
<path fill="none" stroke="#63b8ff" d="M448.4,-120.92C456.97,-103.52 467.56,-73.9 452.52,-55 433.18,-30.7 345.03,-18.53 294.81,-13.48"/>
<polygon fill="#63b8ff" stroke="#63b8ff" points="295,-9.98 284.71,-12.51 294.32,-16.95 295,-9.98"/>
</a>
</g>
</g>
<!-- Node7&#45;&gt;Node2 -->
<g id="edge7_Node000007_Node000002" class="edge">
<title>Node7&#45;&gt;Node2</title>
<g id="a_edge7_Node000007_Node000002"><a xlink:title=" ">
<path fill="none" stroke="#63b8ff" d="M87.41,-54.84C93.81,-46.52 101.93,-35.96 108.65,-27.23"/>
<polygon fill="#63b8ff" stroke="#63b8ff" points="111.45,-29.33 114.77,-19.27 105.9,-25.06 111.45,-29.33"/>
</a>
</g>
</g>
<!-- Node7&#45;&gt;Node6 -->
<g id="edge8_Node000007_Node000006" class="edge">
<title>Node7&#45;&gt;Node6</title>
<g id="a_edge8_Node000007_Node000006"><a xlink:title=" ">
<path fill="none" stroke="#63b8ff" d="M120.35,-54.99C152.23,-44.8 194.81,-31.18 224.44,-21.71"/>
<polygon fill="#63b8ff" stroke="#63b8ff" points="225.88,-24.93 234.34,-18.55 223.75,-18.26 225.88,-24.93"/>
</a>
</g>
</g>
<!-- Node8&#45;&gt;Node2 -->
<g id="edge10_Node000008_Node000002" class="edge">
<title>Node8&#45;&gt;Node2</title>
<g id="a_edge10_Node000008_Node000002"><a xlink:title=" ">
<path fill="none" stroke="#63b8ff" d="M232.38,-120.9C218.32,-111.5 200.1,-98.43 185.52,-85 166.01,-67.04 146.59,-43.42 134.35,-27.63"/>
<polygon fill="#63b8ff" stroke="#63b8ff" points="136.87,-25.17 128.02,-19.35 131.31,-29.42 136.87,-25.17"/>
</a>
</g>
</g>
<!-- Node8&#45;&gt;Node4 -->
<g id="edge11_Node000008_Node000004" class="edge">
<title>Node8&#45;&gt;Node4</title>
<g id="a_edge11_Node000008_Node000004"><a xlink:title=" ">
<path fill="none" stroke="#63b8ff" d="M314.09,-121.03C369.25,-108.1 449.31,-89.34 494.05,-78.85"/>
<polygon fill="#63b8ff" stroke="#63b8ff" points="494.89,-82.24 503.83,-76.55 493.3,-75.43 494.89,-82.24"/>
</a>
</g>
</g>
<!-- Node8&#45;&gt;Node7 -->
<g id="edge15_Node000008_Node000007" class="edge">
<title>Node8&#45;&gt;Node7</title>
<g id="a_edge15_Node000008_Node000007"><a xlink:title=" ">
<path fill="none" stroke="#63b8ff" d="M215.45,-120.95C188.91,-111.41 153.59,-98.71 125.21,-88.51"/>
<polygon fill="#63b8ff" stroke="#63b8ff" points="126.08,-85.1 115.49,-85.01 123.71,-91.69 126.08,-85.1"/>
</a>
</g>
</g>
<!-- Node9 -->
<g id="Node000009" class="node">
<title>Node9</title>
<g id="a_Node000009"><a xlink:href="shape__type__2d_8h.html" target="_top" xlink:title=" ">
<polygon fill="white" stroke="#666666" points="324.02,-85 195.02,-85 195.02,-55 324.02,-55 324.02,-85"/>
<text text-anchor="start" x="203.02" y="-73" font-family="Helvetica,sans-Serif" font-size="10.00">engine/physics/world</text>
<text text-anchor="middle" x="259.52" y="-62" font-family="Helvetica,sans-Serif" font-size="10.00">/body/shape_type_2d.h</text>
</a>
</g>
</g>
<!-- Node8&#45;&gt;Node9 -->
<g id="edge12_Node000008_Node000009" class="edge">
<title>Node8&#45;&gt;Node9</title>
<g id="a_edge12_Node000008_Node000009"><a xlink:title=" ">
<path fill="none" stroke="#63b8ff" d="M255.63,-120.8C256.21,-113.34 256.94,-103.99 257.61,-95.41"/>
<polygon fill="#63b8ff" stroke="#63b8ff" points="261.12,-95.41 258.41,-85.16 254.14,-94.86 261.12,-95.41"/>
</a>
</g>
</g>
<!-- Node8&#45;&gt;Node10 -->
<g id="edge16_Node000008_Node000010" class="edge">
<title>Node8&#45;&gt;Node10</title>
<g id="a_edge16_Node000008_Node000010"><a xlink:title=" ">
<path fill="none" stroke="#63b8ff" d="M284.8,-120.95C304.84,-111.66 331.33,-99.38 353.02,-89.32"/>
<polygon fill="#63b8ff" stroke="#63b8ff" points="354.7,-92.39 362.3,-85.01 351.76,-86.04 354.7,-92.39"/>
</a>
</g>
</g>
<!-- Node9&#45;&gt;Node2 -->
<g id="edge13_Node000009_Node000002" class="edge">
<title>Node9&#45;&gt;Node2</title>
<g id="a_edge13_Node000009_Node000002"><a xlink:title=" ">
<path fill="none" stroke="#63b8ff" d="M226.46,-54.99C203.54,-45.27 173.28,-32.44 151.14,-23.06"/>
<polygon fill="#63b8ff" stroke="#63b8ff" points="152.47,-19.82 141.9,-19.14 149.74,-26.26 152.47,-19.82"/>
</a>
</g>
</g>
<!-- Node9&#45;&gt;Node6 -->
<g id="edge14_Node000009_Node000006" class="edge">
<title>Node9&#45;&gt;Node6</title>
<g id="a_edge14_Node000009_Node000006"><a xlink:title=" ">
<path fill="none" stroke="#63b8ff" d="M259.52,-54.84C259.52,-47.21 259.52,-37.7 259.52,-29.45"/>
<polygon fill="#63b8ff" stroke="#63b8ff" points="263.02,-29.27 259.52,-19.27 256.02,-29.27 263.02,-29.27"/>
</a>
</g>
</g>
<!-- Node11&#45;&gt;Node3 -->
<g id="edge19_Node000011_Node000003" class="edge">
<title>Node11&#45;&gt;Node3</title>
<g id="a_edge19_Node000011_Node000003"><a xlink:title=" ">
<path fill="none" stroke="#63b8ff" d="M667.73,-126.37C654.84,-116.06 633.07,-98.65 617.38,-86.09"/>
<polygon fill="#63b8ff" stroke="#63b8ff" points="619.38,-83.21 609.39,-79.7 615.01,-88.68 619.38,-83.21"/>
</a>
</g>
</g>
<!-- Node11&#45;&gt;Node4 -->
<g id="edge21_Node000011_Node000004" class="edge">
<title>Node11&#45;&gt;Node4</title>
<g id="a_edge21_Node000011_Node000004"><a xlink:title=" ">
<path fill="none" stroke="#63b8ff" d="M658.15,-126.37C632.26,-115.39 587.34,-96.36 557.52,-83.72"/>
<polygon fill="#63b8ff" stroke="#63b8ff" points="558.61,-80.38 548.04,-79.7 555.88,-86.82 558.61,-80.38"/>
</a>
</g>
</g>
<!-- Node12 -->
<g id="Node000012" class="node">
<title>Node12</title>
<g id="a_Node000012"><a xlink:title=" ">
<polygon fill="#e0e0e0" stroke="#999999" points="711.02,-79.5 646.02,-79.5 646.02,-60.5 711.02,-60.5 711.02,-79.5"/>
<text text-anchor="middle" x="678.52" y="-67.5" font-family="Helvetica,sans-Serif" font-size="10.00">functional</text>
</a>
</g>
</g>
<!-- Node11&#45;&gt;Node12 -->
<g id="edge18_Node000011_Node000012" class="edge">
<title>Node11&#45;&gt;Node12</title>
<g id="a_edge18_Node000011_Node000012"><a xlink:title=" ">
<path fill="none" stroke="#63b8ff" d="M678.52,-126.37C678.52,-117.16 678.52,-102.29 678.52,-90.27"/>
<polygon fill="#63b8ff" stroke="#63b8ff" points="682.02,-89.91 678.52,-79.91 675.02,-89.91 682.02,-89.91"/>
</a>
</g>
</g>
<!-- Node13 -->
<g id="Node000013" class="node">
<title>Node13</title>
<g id="a_Node000013"><a xlink:title=" ">
<polygon fill="#e0e0e0" stroke="#999999" points="785.52,-79.5 729.52,-79.5 729.52,-60.5 785.52,-60.5 785.52,-79.5"/>
<text text-anchor="middle" x="757.52" y="-67.5" font-family="Helvetica,sans-Serif" font-size="10.00">optional</text>
</a>
</g>
</g>
<!-- Node11&#45;&gt;Node13 -->
<g id="edge20_Node000011_Node000013" class="edge">
<title>Node11&#45;&gt;Node13</title>
<g id="a_edge20_Node000011_Node000013"><a xlink:title=" ">
<path fill="none" stroke="#63b8ff" d="M689.17,-126.37C701.89,-116.06 723.39,-98.65 738.88,-86.09"/>
<polygon fill="#63b8ff" stroke="#63b8ff" points="741.21,-88.71 746.78,-79.7 736.8,-83.27 741.21,-88.71"/>
</a>
</g>
</g>
</g>
</svg>
