<?xml version="1.0" encoding="UTF-8" standalone="no"?>
<!DOCTYPE svg PUBLIC "-//W3C//DTD SVG 1.1//EN"
 "http://www.w3.org/Graphics/SVG/1.1/DTD/svg11.dtd">
<!-- Generated by graphviz version 2.43.0 (0)
 -->
<!-- Title: include/engine/physics/physics_service.h Pages: 1 -->
<svg width="1594pt" height="357pt"
 viewBox="0.00 0.00 1593.54 357.00" xmlns="http://www.w3.org/2000/svg" xmlns:xlink="http://www.w3.org/1999/xlink">
<g id="graph0" class="graph" transform="scale(1 1) rotate(0) translate(4 353)">
<title>include/engine/physics/physics_service.h</title>
<!-- Node1 -->
<g id="Node000001" class="node">
<title>Node1</title>
<g id="a_Node000001"><a xlink:title=" ">
<polygon fill="#999999" stroke="#666666" points="477.04,-349 349.04,-349 349.04,-319 477.04,-319 477.04,-349"/>
<text text-anchor="start" x="357.04" y="-337" font-family="Helvetica,sans-Serif" font-size="10.00">include/engine/physics</text>
<text text-anchor="middle" x="413.04" y="-326" font-family="Helvetica,sans-Serif" font-size="10.00">/physics_service.h</text>
</a>
</g>
</g>
<!-- Node2 -->
<g id="Node000002" class="node">
<title>Node2</title>
<g id="a_Node000002"><a xlink:title=" ">
<polygon fill="#e0e0e0" stroke="#999999" points="783.54,-19 694.54,-19 694.54,0 783.54,0 783.54,-19"/>
<text text-anchor="middle" x="739.04" y="-7" font-family="Helvetica,sans-Serif" font-size="10.00">box2d/box2d.h</text>
</a>
</g>
</g>
<!-- Node1&#45;&gt;Node2 -->
<g id="edge1_Node000001_Node000002" class="edge">
<title>Node1&#45;&gt;Node2</title>
<g id="a_edge1_Node000001_Node000002"><a xlink:title=" ">
<path fill="none" stroke="#63b8ff" d="M349,-333.38C250.45,-332.59 68.05,-325.25 21.04,-283 -6.13,-258.57 2.04,-239.54 2.04,-203 2.04,-203 2.04,-203 2.04,-135 2.04,-65.81 513.54,-25.5 684.3,-13.97"/>
<polygon fill="#63b8ff" stroke="#63b8ff" points="684.58,-17.45 694.33,-13.29 684.12,-10.47 684.58,-17.45"/>
</a>
</g>
</g>
<!-- Node3 -->
<g id="Node000003" class="node">
<title>Node3</title>
<g id="a_Node000003"><a xlink:title=" ">
<polygon fill="#e0e0e0" stroke="#999999" points="711.04,-79.5 653.04,-79.5 653.04,-60.5 711.04,-60.5 711.04,-79.5"/>
<text text-anchor="middle" x="682.04" y="-67.5" font-family="Helvetica,sans-Serif" font-size="10.00">memory</text>
</a>
</g>
</g>
<!-- Node1&#45;&gt;Node3 -->
<g id="edge2_Node000001_Node000003" class="edge">
<title>Node1&#45;&gt;Node3</title>
<g id="a_edge2_Node000001_Node000003"><a xlink:title=" ">
<path fill="none" stroke="#63b8ff" d="M372.76,-318.83C311.35,-295.01 205.69,-243.93 248.04,-187 295.77,-122.85 545.43,-87.05 642.96,-75.34"/>
<polygon fill="#63b8ff" stroke="#63b8ff" points="643.47,-78.8 652.99,-74.15 642.65,-71.85 643.47,-78.8"/>
</a>
</g>
</g>
<!-- Node4 -->
<g id="Node000004" class="node">
<title>Node4</title>
<g id="a_Node000004"><a xlink:href="i_engine_service_8h.html" target="_top" xlink:title=" ">
<polygon fill="white" stroke="#666666" points="188.04,-277.5 30.04,-277.5 30.04,-258.5 188.04,-258.5 188.04,-277.5"/>
<text text-anchor="middle" x="109.04" y="-265.5" font-family="Helvetica,sans-Serif" font-size="10.00">engine/core/iEngineService.h</text>
</a>
</g>
</g>
<!-- Node1&#45;&gt;Node4 -->
<g id="edge3_Node000001_Node000004" class="edge">
<title>Node1&#45;&gt;Node4</title>
<g id="a_edge3_Node000001_Node000004"><a xlink:title=" ">
<path fill="none" stroke="#63b8ff" d="M348.95,-319.51C292.6,-307.64 211.71,-290.61 159.77,-279.68"/>
<polygon fill="#63b8ff" stroke="#63b8ff" points="160.29,-276.21 149.78,-277.58 158.85,-283.06 160.29,-276.21"/>
</a>
</g>
</g>
<!-- Node6 -->
<g id="Node000006" class="node">
<title>Node6</title>
<g id="a_Node000006"><a xlink:href="physics__creation__factory_8h.html" target="_top" xlink:title=" ">
<polygon fill="white" stroke="#666666" points="1127.54,-217 978.54,-217 978.54,-187 1127.54,-187 1127.54,-217"/>
<text text-anchor="start" x="986.54" y="-205" font-family="Helvetica,sans-Serif" font-size="10.00">engine/physics/creation</text>
<text text-anchor="middle" x="1053.04" y="-194" font-family="Helvetica,sans-Serif" font-size="10.00">/physics_creation_factory.h</text>
</a>
</g>
</g>
<!-- Node1&#45;&gt;Node6 -->
<g id="edge5_Node000001_Node000006" class="edge">
<title>Node1&#45;&gt;Node6</title>
<g id="a_edge5_Node000001_Node000006"><a xlink:title=" ">
<path fill="none" stroke="#63b8ff" d="M477.36,-333.25C607.08,-332.8 895.13,-326.75 982.04,-283 1007.13,-270.37 1027.36,-244.74 1039.71,-225.88"/>
<polygon fill="#63b8ff" stroke="#63b8ff" points="1042.78,-227.58 1045.13,-217.25 1036.85,-223.86 1042.78,-227.58"/>
</a>
</g>
</g>
<!-- Node18 -->
<g id="Node000018" class="node">
<title>Node18</title>
<g id="a_Node000018"><a xlink:href="physics__raycaster_8h.html" target="_top" xlink:title=" ">
<polygon fill="white" stroke="#666666" points="477.04,-283 349.04,-283 349.04,-253 477.04,-253 477.04,-283"/>
<text text-anchor="start" x="357.04" y="-271" font-family="Helvetica,sans-Serif" font-size="10.00">engine/physics/raycast</text>
<text text-anchor="middle" x="413.04" y="-260" font-family="Helvetica,sans-Serif" font-size="10.00">/physics_raycaster.h</text>
</a>
</g>
</g>
<!-- Node1&#45;&gt;Node18 -->
<g id="edge29_Node000001_Node000018" class="edge">
<title>Node1&#45;&gt;Node18</title>
<g id="a_edge29_Node000001_Node000018"><a xlink:title=" ">
<path fill="none" stroke="#63b8ff" d="M413.04,-318.8C413.04,-311.34 413.04,-301.99 413.04,-293.41"/>
<polygon fill="#63b8ff" stroke="#63b8ff" points="416.54,-293.16 413.04,-283.16 409.54,-293.16 416.54,-293.16"/>
</a>
</g>
</g>
<!-- Node20 -->
<g id="Node000020" class="node">
<title>Node20</title>
<g id="a_Node000020"><a xlink:href="physics__math_8h.html" target="_top" xlink:title=" ">
<polygon fill="white" stroke="#666666" points="608.54,-217 479.54,-217 479.54,-187 608.54,-187 608.54,-217"/>
<text text-anchor="start" x="487.54" y="-205" font-family="Helvetica,sans-Serif" font-size="10.00">engine/physics/physics</text>
<text text-anchor="middle" x="544.04" y="-194" font-family="Helvetica,sans-Serif" font-size="10.00">_math.h</text>
</a>
</g>
</g>
<!-- Node1&#45;&gt;Node20 -->
<g id="edge37_Node000001_Node000020" class="edge">
<title>Node1&#45;&gt;Node20</title>
<g id="a_edge37_Node000001_Node000020"><a xlink:title=" ">
<path fill="none" stroke="#63b8ff" d="M437.95,-318.92C452.85,-309.8 471.63,-297.04 486.04,-283 503.68,-265.83 519.76,-242.79 530.49,-225.84"/>
<polygon fill="#63b8ff" stroke="#63b8ff" points="533.6,-227.48 535.88,-217.13 527.64,-223.79 533.6,-227.48"/>
</a>
</g>
</g>
<!-- Node21 -->
<g id="Node000021" class="node">
<title>Node21</title>
<g id="a_Node000021"><a xlink:href="physics__world_8h.html" target="_top" xlink:title=" ">
<polygon fill="white" stroke="#666666" points="972.54,-283 853.54,-283 853.54,-253 972.54,-253 972.54,-283"/>
<text text-anchor="start" x="861.54" y="-271" font-family="Helvetica,sans-Serif" font-size="10.00">engine/physics/world</text>
<text text-anchor="middle" x="913.04" y="-260" font-family="Helvetica,sans-Serif" font-size="10.00">/physics_world.h</text>
</a>
</g>
</g>
<!-- Node1&#45;&gt;Node21 -->
<g id="edge40_Node000001_Node000021" class="edge">
<title>Node1&#45;&gt;Node21</title>
<g id="a_edge40_Node000001_Node000021"><a xlink:title=" ">
<path fill="none" stroke="#63b8ff" d="M477.13,-324.8C571.17,-312.76 745.9,-290.4 843.14,-277.95"/>
<polygon fill="#63b8ff" stroke="#63b8ff" points="843.69,-281.41 853.17,-276.66 842.8,-274.46 843.69,-281.41"/>
</a>
</g>
</g>
<!-- Node5 -->
<g id="Node000005" class="node">
<title>Node5</title>
<g id="a_Node000005"><a xlink:title=" ">
<polygon fill="#e0e0e0" stroke="#999999" points="139.04,-211.5 79.04,-211.5 79.04,-192.5 139.04,-192.5 139.04,-211.5"/>
<text text-anchor="middle" x="109.04" y="-199.5" font-family="Helvetica,sans-Serif" font-size="10.00">concepts</text>
</a>
</g>
</g>
<!-- Node4&#45;&gt;Node5 -->
<g id="edge4_Node000004_Node000005" class="edge">
<title>Node4&#45;&gt;Node5</title>
<g id="a_edge4_Node000004_Node000005"><a xlink:title=" ">
<path fill="none" stroke="#63b8ff" d="M109.04,-258.37C109.04,-249.16 109.04,-234.29 109.04,-222.27"/>
<polygon fill="#63b8ff" stroke="#63b8ff" points="112.54,-221.91 109.04,-211.91 105.54,-221.91 112.54,-221.91"/>
</a>
</g>
</g>
<!-- Node6&#45;&gt;Node2 -->
<g id="edge6_Node000006_Node000002" class="edge">
<title>Node6&#45;&gt;Node2</title>
<g id="a_edge6_Node000006_Node000002"><a xlink:title=" ">
<path fill="none" stroke="#63b8ff" d="M1001.43,-186.92C974.45,-178.47 941.45,-166.36 914.04,-151 849.43,-114.78 784.26,-54.86 755.01,-26.43"/>
<polygon fill="#63b8ff" stroke="#63b8ff" points="757.33,-23.8 747.74,-19.29 752.42,-28.79 757.33,-23.8"/>
</a>
</g>
</g>
<!-- Node6&#45;&gt;Node3 -->
<g id="edge7_Node000006_Node000003" class="edge">
<title>Node6&#45;&gt;Node3</title>
<g id="a_edge7_Node000006_Node000003"><a xlink:title=" ">
<path fill="none" stroke="#63b8ff" d="M997.45,-186.92C962.57,-177.67 916.82,-164.76 877.04,-151 816.57,-130.08 747.72,-100.41 710.16,-83.71"/>
<polygon fill="#63b8ff" stroke="#63b8ff" points="711.43,-80.44 700.87,-79.56 708.57,-86.83 711.43,-80.44"/>
</a>
</g>
</g>
<!-- Node7 -->
<g id="Node000007" class="node">
<title>Node7</title>
<g id="a_Node000007"><a xlink:title=" ">
<polygon fill="#e0e0e0" stroke="#999999" points="906.54,-79.5 859.54,-79.5 859.54,-60.5 906.54,-60.5 906.54,-79.5"/>
<text text-anchor="middle" x="883.04" y="-67.5" font-family="Helvetica,sans-Serif" font-size="10.00">vector</text>
</a>
</g>
</g>
<!-- Node6&#45;&gt;Node7 -->
<g id="edge8_Node000006_Node000007" class="edge">
<title>Node6&#45;&gt;Node7</title>
<g id="a_edge8_Node000006_Node000007"><a xlink:title=" ">
<path fill="none" stroke="#63b8ff" d="M1013.28,-186.97C992.57,-178.49 967.56,-166.35 948.04,-151 925.26,-133.08 905.28,-105.8 893.68,-88.19"/>
<polygon fill="#63b8ff" stroke="#63b8ff" points="896.47,-86.06 888.14,-79.52 890.58,-89.83 896.47,-86.06"/>
</a>
</g>
</g>
<!-- Node8 -->
<g id="Node000008" class="node">
<title>Node8</title>
<g id="a_Node000008"><a xlink:href="physics__creation__flags_8h.html" target="_top" xlink:title=" ">
<polygon fill="white" stroke="#666666" points="1585.54,-151 1446.54,-151 1446.54,-121 1585.54,-121 1585.54,-151"/>
<text text-anchor="start" x="1454.54" y="-139" font-family="Helvetica,sans-Serif" font-size="10.00">engine/physics/creation</text>
<text text-anchor="middle" x="1516.04" y="-128" font-family="Helvetica,sans-Serif" font-size="10.00">/physics_creation_flags.h</text>
</a>
</g>
</g>
<!-- Node6&#45;&gt;Node8 -->
<g id="edge9_Node000006_Node000008" class="edge">
<title>Node6&#45;&gt;Node8</title>
<g id="a_edge9_Node000006_Node000008"><a xlink:title=" ">
<path fill="none" stroke="#63b8ff" d="M1127.69,-190.68C1212.33,-178.98 1349.78,-159.98 1436.42,-148.01"/>
<polygon fill="#63b8ff" stroke="#63b8ff" points="1437.04,-151.45 1446.47,-146.62 1436.08,-144.52 1437.04,-151.45"/>
</a>
</g>
</g>
<!-- Node10 -->
<g id="Node000010" class="node">
<title>Node10</title>
<g id="a_Node000010"><a xlink:href="body__type__2d_8h.html" target="_top" xlink:title=" ">
<polygon fill="white" stroke="#666666" points="1364.04,-85 1240.04,-85 1240.04,-55 1364.04,-55 1364.04,-85"/>
<text text-anchor="start" x="1248.04" y="-73" font-family="Helvetica,sans-Serif" font-size="10.00">engine/physics/world</text>
<text text-anchor="middle" x="1302.04" y="-62" font-family="Helvetica,sans-Serif" font-size="10.00">/body/body_type_2d.h</text>
</a>
</g>
</g>
<!-- Node6&#45;&gt;Node10 -->
<g id="edge11_Node000006_Node000010" class="edge">
<title>Node6&#45;&gt;Node10</title>
<g id="a_edge11_Node000006_Node000010"><a xlink:title=" ">
<path fill="none" stroke="#63b8ff" d="M1127.75,-194.46C1188.68,-187.52 1268.12,-174.26 1290.04,-151 1303.85,-136.36 1305.96,-113.05 1305.14,-95.36"/>
<polygon fill="#63b8ff" stroke="#63b8ff" points="1308.62,-94.89 1304.33,-85.2 1301.64,-95.45 1308.62,-94.89"/>
</a>
</g>
</g>
<!-- Node11 -->
<g id="Node000011" class="node">
<title>Node11</title>
<g id="a_Node000011"><a xlink:href="body__2d_8h.html" target="_top" xlink:title=" ">
<polygon fill="white" stroke="#666666" points="1280.54,-151 1161.54,-151 1161.54,-121 1280.54,-121 1280.54,-151"/>
<text text-anchor="start" x="1169.54" y="-139" font-family="Helvetica,sans-Serif" font-size="10.00">engine/physics/world</text>
<text text-anchor="middle" x="1221.04" y="-128" font-family="Helvetica,sans-Serif" font-size="10.00">/body/body_2d.h</text>
</a>
</g>
</g>
<!-- Node6&#45;&gt;Node11 -->
<g id="edge14_Node000006_Node000011" class="edge">
<title>Node6&#45;&gt;Node11</title>
<g id="a_edge14_Node000006_Node000011"><a xlink:title=" ">
<path fill="none" stroke="#63b8ff" d="M1089.91,-186.95C1114.86,-177.45 1148.01,-164.82 1174.73,-154.64"/>
<polygon fill="#63b8ff" stroke="#63b8ff" points="1176.16,-157.84 1184.26,-151.01 1173.67,-151.3 1176.16,-157.84"/>
</a>
</g>
</g>
<!-- Node13 -->
<g id="Node000013" class="node">
<title>Node13</title>
<g id="a_Node000013"><a xlink:href="vector3_8h.html" target="_top" xlink:title=" ">
<polygon fill="white" stroke="#666666" points="1183.54,-85 1082.54,-85 1082.54,-55 1183.54,-55 1183.54,-85"/>
<text text-anchor="start" x="1090.54" y="-73" font-family="Helvetica,sans-Serif" font-size="10.00">engine/public/util</text>
<text text-anchor="middle" x="1133.04" y="-62" font-family="Helvetica,sans-Serif" font-size="10.00">/vector3.h</text>
</a>
</g>
</g>
<!-- Node6&#45;&gt;Node13 -->
<g id="edge28_Node000006_Node000013" class="edge">
<title>Node6&#45;&gt;Node13</title>
<g id="a_edge28_Node000006_Node000013"><a xlink:title=" ">
<path fill="none" stroke="#63b8ff" d="M1077.65,-186.86C1090.67,-178.14 1105.84,-165.79 1115.04,-151 1125.53,-134.15 1129.94,-111.91 1131.77,-95.17"/>
<polygon fill="#63b8ff" stroke="#63b8ff" points="1135.27,-95.33 1132.64,-85.06 1128.3,-94.72 1135.27,-95.33"/>
</a>
</g>
</g>
<!-- Node14 -->
<g id="Node000014" class="node">
<title>Node14</title>
<g id="a_Node000014"><a xlink:href="component_8h.html" target="_top" xlink:title=" ">
<polygon fill="white" stroke="#666666" points="1105.54,-145.5 956.54,-145.5 956.54,-126.5 1105.54,-126.5 1105.54,-145.5"/>
<text text-anchor="middle" x="1031.04" y="-133.5" font-family="Helvetica,sans-Serif" font-size="10.00">engine/public/component.h</text>
</a>
</g>
</g>
<!-- Node6&#45;&gt;Node14 -->
<g id="edge22_Node000006_Node000014" class="edge">
<title>Node6&#45;&gt;Node14</title>
<g id="a_edge22_Node000006_Node000014"><a xlink:title=" ">
<path fill="none" stroke="#63b8ff" d="M1048.16,-186.8C1045,-177.6 1040.85,-165.53 1037.43,-155.58"/>
<polygon fill="#63b8ff" stroke="#63b8ff" points="1040.65,-154.16 1034.08,-145.84 1034.03,-156.44 1040.65,-154.16"/>
</a>
</g>
</g>
<!-- Node17 -->
<g id="Node000017" class="node">
<title>Node17</title>
<g id="a_Node000017"><a xlink:href="point_8h.html" target="_top" xlink:title=" ">
<polygon fill="white" stroke="#666666" points="633.54,-151 532.54,-151 532.54,-121 633.54,-121 633.54,-151"/>
<text text-anchor="start" x="540.54" y="-139" font-family="Helvetica,sans-Serif" font-size="10.00">engine/public/util</text>
<text text-anchor="middle" x="583.04" y="-128" font-family="Helvetica,sans-Serif" font-size="10.00">/point.h</text>
</a>
</g>
</g>
<!-- Node6&#45;&gt;Node17 -->
<g id="edge27_Node000006_Node000017" class="edge">
<title>Node6&#45;&gt;Node17</title>
<g id="a_edge27_Node000006_Node000017"><a xlink:title=" ">
<path fill="none" stroke="#63b8ff" d="M978.31,-190.82C885.6,-178.2 729.33,-156.92 643.68,-145.26"/>
<polygon fill="#63b8ff" stroke="#63b8ff" points="643.98,-141.77 633.6,-143.88 643.03,-148.7 643.98,-141.77"/>
</a>
</g>
</g>
<!-- Node9 -->
<g id="Node000009" class="node">
<title>Node9</title>
<g id="a_Node000009"><a xlink:title=" ">
<polygon fill="#e0e0e0" stroke="#999999" points="1472.04,-19 1422.04,-19 1422.04,0 1472.04,0 1472.04,-19"/>
<text text-anchor="middle" x="1447.04" y="-7" font-family="Helvetica,sans-Serif" font-size="10.00">cstdint</text>
</a>
</g>
</g>
<!-- Node8&#45;&gt;Node9 -->
<g id="edge10_Node000008_Node000009" class="edge">
<title>Node8&#45;&gt;Node9</title>
<g id="a_edge10_Node000008_Node000009"><a xlink:title=" ">
<path fill="none" stroke="#63b8ff" d="M1521.3,-120.95C1526.66,-104.11 1532.69,-75.59 1521.04,-55 1512.51,-39.91 1496.58,-29.37 1481.68,-22.35"/>
<polygon fill="#63b8ff" stroke="#63b8ff" points="1482.7,-18.98 1472.13,-18.23 1479.93,-25.4 1482.7,-18.98"/>
</a>
</g>
</g>
<!-- Node10&#45;&gt;Node2 -->
<g id="edge12_Node000010_Node000002" class="edge">
<title>Node10&#45;&gt;Node2</title>
<g id="a_edge12_Node000010_Node000002"><a xlink:title=" ">
<path fill="none" stroke="#63b8ff" d="M1239.91,-57.08C1235.22,-56.32 1230.56,-55.62 1226.04,-55 1069.94,-33.54 884.21,-19.8 793.86,-13.88"/>
<polygon fill="#63b8ff" stroke="#63b8ff" points="794.06,-10.38 783.85,-13.22 793.6,-17.37 794.06,-10.38"/>
</a>
</g>
</g>
<!-- Node10&#45;&gt;Node9 -->
<g id="edge13_Node000010_Node000009" class="edge">
<title>Node10&#45;&gt;Node9</title>
<g id="a_edge13_Node000010_Node000009"><a xlink:title=" ">
<path fill="none" stroke="#63b8ff" d="M1336.78,-54.99C1360.97,-45.23 1392.94,-32.33 1416.23,-22.93"/>
<polygon fill="#63b8ff" stroke="#63b8ff" points="1417.67,-26.13 1425.63,-19.14 1415.05,-19.63 1417.67,-26.13"/>
</a>
</g>
</g>
<!-- Node11&#45;&gt;Node2 -->
<g id="edge15_Node000011_Node000002" class="edge">
<title>Node11&#45;&gt;Node2</title>
<g id="a_edge15_Node000011_Node000002"><a xlink:title=" ">
<path fill="none" stroke="#63b8ff" d="M1220.49,-120.82C1218.94,-102.45 1213.29,-70.91 1193.04,-55 1162.24,-30.8 907.94,-17.43 793.95,-12.6"/>
<polygon fill="#63b8ff" stroke="#63b8ff" points="793.84,-9.09 783.7,-12.17 793.54,-16.09 793.84,-9.09"/>
</a>
</g>
</g>
<!-- Node11&#45;&gt;Node7 -->
<g id="edge16_Node000011_Node000007" class="edge">
<title>Node11&#45;&gt;Node7</title>
<g id="a_edge16_Node000011_Node000007"><a xlink:title=" ">
<path fill="none" stroke="#63b8ff" d="M1161.34,-126.94C1086.03,-116.47 960.95,-98 916.04,-85 914.36,-84.51 912.65,-83.96 910.93,-83.37"/>
<polygon fill="#63b8ff" stroke="#63b8ff" points="911.85,-79.97 901.26,-79.64 909.33,-86.51 911.85,-79.97"/>
</a>
</g>
</g>
<!-- Node11&#45;&gt;Node10 -->
<g id="edge20_Node000011_Node000010" class="edge">
<title>Node11&#45;&gt;Node10</title>
<g id="a_edge20_Node000011_Node000010"><a xlink:title=" ">
<path fill="none" stroke="#63b8ff" d="M1239.02,-120.8C1249.93,-112.18 1264.03,-101.04 1276.13,-91.48"/>
<polygon fill="#63b8ff" stroke="#63b8ff" points="1278.44,-94.11 1284.12,-85.16 1274.1,-88.62 1278.44,-94.11"/>
</a>
</g>
</g>
<!-- Node12 -->
<g id="Node000012" class="node">
<title>Node12</title>
<g id="a_Node000012"><a xlink:href="shape__type__2d_8h.html" target="_top" xlink:title=" ">
<polygon fill="white" stroke="#666666" points="1511.54,-85 1382.54,-85 1382.54,-55 1511.54,-55 1511.54,-85"/>
<text text-anchor="start" x="1390.54" y="-73" font-family="Helvetica,sans-Serif" font-size="10.00">engine/physics/world</text>
<text text-anchor="middle" x="1447.04" y="-62" font-family="Helvetica,sans-Serif" font-size="10.00">/body/shape_type_2d.h</text>
</a>
</g>
</g>
<!-- Node11&#45;&gt;Node12 -->
<g id="edge17_Node000011_Node000012" class="edge">
<title>Node11&#45;&gt;Node12</title>
<g id="a_edge17_Node000011_Node000012"><a xlink:title=" ">
<path fill="none" stroke="#63b8ff" d="M1270.64,-120.95C1305.08,-111.2 1351.15,-98.16 1387.56,-87.84"/>
<polygon fill="#63b8ff" stroke="#63b8ff" points="1388.9,-91.1 1397.56,-85.01 1386.99,-84.37 1388.9,-91.1"/>
</a>
</g>
</g>
<!-- Node11&#45;&gt;Node13 -->
<g id="edge21_Node000011_Node000013" class="edge">
<title>Node11&#45;&gt;Node13</title>
<g id="a_edge21_Node000011_Node000013"><a xlink:title=" ">
<path fill="none" stroke="#63b8ff" d="M1201.51,-120.8C1189.55,-112.1 1174.05,-100.82 1160.82,-91.2"/>
<polygon fill="#63b8ff" stroke="#63b8ff" points="1162.67,-88.22 1152.52,-85.16 1158.55,-93.88 1162.67,-88.22"/>
</a>
</g>
</g>
<!-- Node12&#45;&gt;Node2 -->
<g id="edge18_Node000012_Node000002" class="edge">
<title>Node12&#45;&gt;Node2</title>
<g id="a_edge18_Node000012_Node000002"><a xlink:title=" ">
<path fill="none" stroke="#63b8ff" d="M1382.54,-56.34C1379.34,-55.85 1376.16,-55.4 1373.04,-55 1159.96,-27.46 904.23,-16.07 794.01,-12.2"/>
<polygon fill="#63b8ff" stroke="#63b8ff" points="793.92,-8.69 783.8,-11.84 793.68,-15.69 793.92,-8.69"/>
</a>
</g>
</g>
<!-- Node12&#45;&gt;Node9 -->
<g id="edge19_Node000012_Node000009" class="edge">
<title>Node12&#45;&gt;Node9</title>
<g id="a_edge19_Node000012_Node000009"><a xlink:title=" ">
<path fill="none" stroke="#63b8ff" d="M1447.04,-54.84C1447.04,-47.21 1447.04,-37.7 1447.04,-29.45"/>
<polygon fill="#63b8ff" stroke="#63b8ff" points="1450.54,-29.27 1447.04,-19.27 1443.54,-29.27 1450.54,-29.27"/>
</a>
</g>
</g>
<!-- Node14&#45;&gt;Node3 -->
<g id="edge24_Node000014_Node000003" class="edge">
<title>Node14&#45;&gt;Node3</title>
<g id="a_edge24_Node000014_Node000003"><a xlink:title=" ">
<path fill="none" stroke="#63b8ff" d="M984.34,-126.44C915.02,-113.72 786.13,-90.09 721.35,-78.21"/>
<polygon fill="#63b8ff" stroke="#63b8ff" points="721.62,-74.7 711.15,-76.34 720.36,-81.58 721.62,-74.7"/>
</a>
</g>
</g>
<!-- Node14&#45;&gt;Node7 -->
<g id="edge26_Node000014_Node000007" class="edge">
<title>Node14&#45;&gt;Node7</title>
<g id="a_edge26_Node000014_Node000007"><a xlink:title=" ">
<path fill="none" stroke="#63b8ff" d="M1011.08,-126.37C985.71,-115.39 941.68,-96.36 912.46,-83.72"/>
<polygon fill="#63b8ff" stroke="#63b8ff" points="913.73,-80.46 903.16,-79.7 910.95,-86.88 913.73,-80.46"/>
</a>
</g>
</g>
<!-- Node15 -->
<g id="Node000015" class="node">
<title>Node15</title>
<g id="a_Node000015"><a xlink:title=" ">
<polygon fill="#e0e0e0" stroke="#999999" points="1064.54,-79.5 999.54,-79.5 999.54,-60.5 1064.54,-60.5 1064.54,-79.5"/>
<text text-anchor="middle" x="1032.04" y="-67.5" font-family="Helvetica,sans-Serif" font-size="10.00">functional</text>
</a>
</g>
</g>
<!-- Node14&#45;&gt;Node15 -->
<g id="edge23_Node000014_Node000015" class="edge">
<title>Node14&#45;&gt;Node15</title>
<g id="a_edge23_Node000014_Node000015"><a xlink:title=" ">
<path fill="none" stroke="#63b8ff" d="M1031.18,-126.37C1031.32,-117.16 1031.56,-102.29 1031.74,-90.27"/>
<polygon fill="#63b8ff" stroke="#63b8ff" points="1035.25,-89.96 1031.91,-79.91 1028.25,-89.85 1035.25,-89.96"/>
</a>
</g>
</g>
<!-- Node16 -->
<g id="Node000016" class="node">
<title>Node16</title>
<g id="a_Node000016"><a xlink:title=" ">
<polygon fill="#e0e0e0" stroke="#999999" points="981.04,-79.5 925.04,-79.5 925.04,-60.5 981.04,-60.5 981.04,-79.5"/>
<text text-anchor="middle" x="953.04" y="-67.5" font-family="Helvetica,sans-Serif" font-size="10.00">optional</text>
</a>
</g>
</g>
<!-- Node14&#45;&gt;Node16 -->
<g id="edge25_Node000014_Node000016" class="edge">
<title>Node14&#45;&gt;Node16</title>
<g id="a_edge25_Node000014_Node000016"><a xlink:title=" ">
<path fill="none" stroke="#63b8ff" d="M1020.52,-126.37C1007.96,-116.06 986.74,-98.65 971.44,-86.09"/>
<polygon fill="#63b8ff" stroke="#63b8ff" points="973.6,-83.34 963.65,-79.7 969.16,-88.75 973.6,-83.34"/>
</a>
</g>
</g>
<!-- Node18&#45;&gt;Node2 -->
<g id="edge30_Node000018_Node000002" class="edge">
<title>Node18&#45;&gt;Node2</title>
<g id="a_edge30_Node000018_Node000002"><a xlink:title=" ">
<path fill="none" stroke="#63b8ff" d="M348.78,-259.98C292.08,-250.83 222.17,-230.5 248.04,-187 338.44,-35.03 576.46,-12.2 684.41,-9.92"/>
<polygon fill="#63b8ff" stroke="#63b8ff" points="684.5,-13.42 694.45,-9.76 684.39,-6.42 684.5,-13.42"/>
</a>
</g>
</g>
<!-- Node18&#45;&gt;Node3 -->
<g id="edge31_Node000018_Node000003" class="edge">
<title>Node18&#45;&gt;Node3</title>
<g id="a_edge31_Node000018_Node000003"><a xlink:title=" ">
<path fill="none" stroke="#63b8ff" d="M415.06,-252.87C418.03,-235.95 424.83,-207.36 439.04,-187 466.23,-148.07 481.05,-143.15 523.04,-121 561.67,-100.63 610,-86.9 643.17,-79.06"/>
<polygon fill="#63b8ff" stroke="#63b8ff" points="643.99,-82.47 652.96,-76.82 642.43,-75.64 643.99,-82.47"/>
</a>
</g>
</g>
<!-- Node18&#45;&gt;Node7 -->
<g id="edge32_Node000018_Node000007" class="edge">
<title>Node18&#45;&gt;Node7</title>
<g id="a_edge32_Node000018_Node000007"><a xlink:title=" ">
<path fill="none" stroke="#63b8ff" d="M477.31,-255.74C518.15,-247.5 571.68,-234.66 617.04,-217 713.29,-179.54 818.13,-113.83 861.95,-85.11"/>
<polygon fill="#63b8ff" stroke="#63b8ff" points="863.93,-87.99 870.35,-79.56 860.08,-82.15 863.93,-87.99"/>
</a>
</g>
</g>
<!-- Node18&#45;&gt;Node17 -->
<g id="edge33_Node000018_Node000017" class="edge">
<title>Node18&#45;&gt;Node17</title>
<g id="a_edge33_Node000018_Node000017"><a xlink:title=" ">
<path fill="none" stroke="#63b8ff" d="M420.09,-252.8C429.4,-235.28 447.31,-205.54 470.04,-187 486.83,-173.31 507.96,-162.64 527.39,-154.74"/>
<polygon fill="#63b8ff" stroke="#63b8ff" points="528.72,-157.98 536.76,-151.08 526.17,-151.45 528.72,-157.98"/>
</a>
</g>
</g>
<!-- Node19 -->
<g id="Node000019" class="node">
<title>Node19</title>
<g id="a_Node000019"><a xlink:href="collider__ray__result_8h.html" target="_top" xlink:title=" ">
<polygon fill="white" stroke="#666666" points="385.04,-217 257.04,-217 257.04,-187 385.04,-187 385.04,-217"/>
<text text-anchor="start" x="265.04" y="-205" font-family="Helvetica,sans-Serif" font-size="10.00">engine/physics/raycast</text>
<text text-anchor="middle" x="321.04" y="-194" font-family="Helvetica,sans-Serif" font-size="10.00">/collider_ray_result.h</text>
</a>
</g>
</g>
<!-- Node18&#45;&gt;Node19 -->
<g id="edge34_Node000018_Node000019" class="edge">
<title>Node18&#45;&gt;Node19</title>
<g id="a_edge34_Node000018_Node000019"><a xlink:title=" ">
<path fill="none" stroke="#63b8ff" d="M392.63,-252.8C380,-244.01 363.61,-232.61 349.69,-222.93"/>
<polygon fill="#63b8ff" stroke="#63b8ff" points="351.61,-220 341.41,-217.16 347.62,-225.75 351.61,-220"/>
</a>
</g>
</g>
<!-- Node19&#45;&gt;Node2 -->
<g id="edge35_Node000019_Node000002" class="edge">
<title>Node19&#45;&gt;Node2</title>
<g id="a_edge35_Node000019_Node000002"><a xlink:title=" ">
<path fill="none" stroke="#63b8ff" d="M338.76,-186.87C376.01,-157.84 466.13,-91.19 552.04,-55 594.82,-36.99 646.3,-25.41 684.42,-18.6"/>
<polygon fill="#63b8ff" stroke="#63b8ff" points="685.04,-22.04 694.3,-16.88 683.84,-15.14 685.04,-22.04"/>
</a>
</g>
</g>
<!-- Node19&#45;&gt;Node17 -->
<g id="edge36_Node000019_Node000017" class="edge">
<title>Node19&#45;&gt;Node17</title>
<g id="a_edge36_Node000019_Node000017"><a xlink:title=" ">
<path fill="none" stroke="#63b8ff" d="M378.54,-186.95C421.16,-176.54 479.14,-162.38 522.47,-151.8"/>
<polygon fill="#63b8ff" stroke="#63b8ff" points="523.44,-155.16 532.32,-149.39 521.78,-148.36 523.44,-155.16"/>
</a>
</g>
</g>
<!-- Node20&#45;&gt;Node2 -->
<g id="edge38_Node000020_Node000002" class="edge">
<title>Node20&#45;&gt;Node2</title>
<g id="a_edge38_Node000020_Node000002"><a xlink:title=" ">
<path fill="none" stroke="#63b8ff" d="M534.12,-186.79C523.78,-170.05 510.66,-141.87 523.04,-121 557.28,-63.32 632.5,-34.65 684.47,-21.21"/>
<polygon fill="#63b8ff" stroke="#63b8ff" points="685.34,-24.59 694.21,-18.79 683.66,-17.8 685.34,-24.59"/>
</a>
</g>
</g>
<!-- Node20&#45;&gt;Node17 -->
<g id="edge39_Node000020_Node000017" class="edge">
<title>Node20&#45;&gt;Node17</title>
<g id="a_edge39_Node000020_Node000017"><a xlink:title=" ">
<path fill="none" stroke="#63b8ff" d="M552.7,-186.8C557.55,-178.84 563.71,-168.74 569.21,-159.71"/>
<polygon fill="#63b8ff" stroke="#63b8ff" points="572.2,-161.52 574.41,-151.16 566.22,-157.88 572.2,-161.52"/>
</a>
</g>
</g>
<!-- Node21&#45;&gt;Node2 -->
<g id="edge41_Node000021_Node000002" class="edge">
<title>Node21&#45;&gt;Node2</title>
<g id="a_edge41_Node000021_Node000002"><a xlink:title=" ">
<path fill="none" stroke="#63b8ff" d="M909.93,-252.85C905.83,-236.16 897.5,-208.03 884.04,-187 849.33,-132.73 820.13,-136.22 781.04,-85 767.3,-66.99 755.02,-43.98 747.34,-28.33"/>
<polygon fill="#63b8ff" stroke="#63b8ff" points="750.46,-26.75 742.99,-19.24 744.15,-29.77 750.46,-26.75"/>
</a>
</g>
</g>
<!-- Node21&#45;&gt;Node3 -->
<g id="edge42_Node000021_Node000003" class="edge">
<title>Node21&#45;&gt;Node3</title>
<g id="a_edge42_Node000021_Node000003"><a xlink:title=" ">
<path fill="none" stroke="#63b8ff" d="M906.73,-252.87C897.96,-234.85 880.37,-204 856.04,-187 806.55,-152.41 772.26,-188.63 725.04,-151 705.24,-135.22 693.36,-107.76 687.26,-89.48"/>
<polygon fill="#63b8ff" stroke="#63b8ff" points="690.54,-88.23 684.25,-79.7 683.85,-90.29 690.54,-88.23"/>
</a>
</g>
</g>
<!-- Node21&#45;&gt;Node6 -->
<g id="edge43_Node000021_Node000006" class="edge">
<title>Node21&#45;&gt;Node6</title>
<g id="a_edge43_Node000021_Node000006"><a xlink:title=" ">
<path fill="none" stroke="#63b8ff" d="M943.77,-252.95C964.19,-243.62 991.21,-231.27 1013.27,-221.18"/>
<polygon fill="#63b8ff" stroke="#63b8ff" points="1014.75,-224.35 1022.39,-217.01 1011.84,-217.99 1014.75,-224.35"/>
</a>
</g>
</g>
<!-- Node21&#45;&gt;Node11 -->
<g id="edge44_Node000021_Node000011" class="edge">
<title>Node21&#45;&gt;Node11</title>
<g id="a_edge44_Node000021_Node000011"><a xlink:title=" ">
<path fill="none" stroke="#63b8ff" d="M972.67,-262.47C1019.63,-256.89 1085.55,-244.49 1137.04,-217 1163.85,-202.69 1188.24,-177.46 1203.75,-159.15"/>
<polygon fill="#63b8ff" stroke="#63b8ff" points="1206.57,-161.23 1210.23,-151.29 1201.17,-156.78 1206.57,-161.23"/>
</a>
</g>
</g>
<!-- Node21&#45;&gt;Node12 -->
<g id="edge45_Node000021_Node000012" class="edge">
<title>Node21&#45;&gt;Node12</title>
<g id="a_edge45_Node000021_Node000012"><a xlink:title=" ">
<path fill="none" stroke="#63b8ff" d="M972.8,-259.66C1025.58,-252.18 1104.17,-238.56 1170.04,-217 1235.42,-195.6 1249.17,-183.04 1310.04,-151 1346.83,-131.64 1387.86,-107.3 1415.35,-90.58"/>
<polygon fill="#63b8ff" stroke="#63b8ff" points="1417.41,-93.42 1424.12,-85.22 1413.76,-87.44 1417.41,-93.42"/>
</a>
</g>
</g>
<!-- Node21&#45;&gt;Node13 -->
<g id="edge48_Node000021_Node000013" class="edge">
<title>Node21&#45;&gt;Node13</title>
<g id="a_edge48_Node000021_Node000013"><a xlink:title=" ">
<path fill="none" stroke="#63b8ff" d="M917.31,-252.62C920.2,-242.66 924.04,-229.07 927.04,-217 937.6,-174.62 917.92,-152.62 948.04,-121 952.52,-116.3 1020.19,-98.77 1072.41,-85.79"/>
<polygon fill="#63b8ff" stroke="#63b8ff" points="1073.43,-89.14 1082.29,-83.34 1071.74,-82.35 1073.43,-89.14"/>
</a>
</g>
</g>
<!-- Node21&#45;&gt;Node17 -->
<g id="edge49_Node000021_Node000017" class="edge">
<title>Node21&#45;&gt;Node17</title>
<g id="a_edge49_Node000021_Node000017"><a xlink:title=" ">
<path fill="none" stroke="#63b8ff" d="M853.19,-259.77C808.2,-252.81 745.86,-239.87 695.04,-217 661.42,-201.87 627.65,-175.92 606.11,-157.69"/>
<polygon fill="#63b8ff" stroke="#63b8ff" points="608.35,-154.99 598.49,-151.11 603.78,-160.29 608.35,-154.99"/>
</a>
</g>
</g>
<!-- Node22 -->
<g id="Node000022" class="node">
<title>Node22</title>
<g id="a_Node000022"><a xlink:href="body__distance__2d_8h.html" target="_top" xlink:title=" ">
<polygon fill="white" stroke="#666666" points="846.54,-217 703.54,-217 703.54,-187 846.54,-187 846.54,-217"/>
<text text-anchor="start" x="711.54" y="-205" font-family="Helvetica,sans-Serif" font-size="10.00">engine/physics/world</text>
<text text-anchor="middle" x="775.04" y="-194" font-family="Helvetica,sans-Serif" font-size="10.00">/body/body_distance_2d.h</text>
</a>
</g>
</g>
<!-- Node21&#45;&gt;Node22 -->
<g id="edge46_Node000021_Node000022" class="edge">
<title>Node21&#45;&gt;Node22</title>
<g id="a_edge46_Node000021_Node000022"><a xlink:title=" ">
<path fill="none" stroke="#63b8ff" d="M882.76,-252.95C862.72,-243.66 836.23,-231.38 814.54,-221.32"/>
<polygon fill="#63b8ff" stroke="#63b8ff" points="815.8,-218.04 805.26,-217.01 812.86,-224.39 815.8,-218.04"/>
</a>
</g>
</g>
<!-- Node22&#45;&gt;Node17 -->
<g id="edge47_Node000022_Node000017" class="edge">
<title>Node22&#45;&gt;Node17</title>
<g id="a_edge47_Node000022_Node000017"><a xlink:title=" ">
<path fill="none" stroke="#63b8ff" d="M732.91,-186.95C704.02,-177.33 665.52,-164.49 634.77,-154.24"/>
<polygon fill="#63b8ff" stroke="#63b8ff" points="635.67,-150.85 625.08,-151.01 633.46,-157.5 635.67,-150.85"/>
</a>
</g>
</g>
</g>
</svg>
