<?xml version="1.0" encoding="UTF-8" standalone="no"?>
<!DOCTYPE svg PUBLIC "-//W3C//DTD SVG 1.1//EN"
 "http://www.w3.org/Graphics/SVG/1.1/DTD/svg11.dtd">
<!-- Generated by graphviz version 2.43.0 (0)
 -->
<!-- Title: include/engine/physics/physics_math.h Pages: 1 -->
<svg width="216pt" height="104pt"
 viewBox="0.00 0.00 216.00 104.00" xmlns="http://www.w3.org/2000/svg" xmlns:xlink="http://www.w3.org/1999/xlink">
<g id="graph0" class="graph" transform="scale(1 1) rotate(0) translate(4 100)">
<title>include/engine/physics/physics_math.h</title>
<!-- Node1 -->
<g id="Node000001" class="node">
<title>Node1</title>
<g id="a_Node000001"><a xlink:title=" ">
<polygon fill="#999999" stroke="#666666" points="164.5,-96 36.5,-96 36.5,-66 164.5,-66 164.5,-96"/>
<text text-anchor="start" x="44.5" y="-84" font-family="Helvetica,sans-Serif" font-size="10.00">include/engine/physics</text>
<text text-anchor="middle" x="100.5" y="-73" font-family="Helvetica,sans-Serif" font-size="10.00">/physics_math.h</text>
</a>
</g>
</g>
<!-- Node2 -->
<g id="Node000002" class="node">
<title>Node2</title>
<g id="a_Node000002"><a xlink:title=" ">
<polygon fill="#e0e0e0" stroke="#999999" points="89,-24.5 0,-24.5 0,-5.5 89,-5.5 89,-24.5"/>
<text text-anchor="middle" x="44.5" y="-12.5" font-family="Helvetica,sans-Serif" font-size="10.00">box2d/box2d.h</text>
</a>
</g>
</g>
<!-- Node1&#45;&gt;Node2 -->
<g id="edge1_Node000001_Node000002" class="edge">
<title>Node1&#45;&gt;Node2</title>
<g id="a_edge1_Node000001_Node000002"><a xlink:title=" ">
<path fill="none" stroke="#63b8ff" d="M88.07,-65.8C79.43,-55.92 67.88,-42.72 58.84,-32.39"/>
<polygon fill="#63b8ff" stroke="#63b8ff" points="61.46,-30.07 52.24,-24.84 56.19,-34.67 61.46,-30.07"/>
</a>
</g>
</g>
<!-- Node3 -->
<g id="Node000003" class="node">
<title>Node3</title>
<g id="a_Node000003"><a xlink:href="point_8h.html" target="_top" xlink:title=" ">
<polygon fill="white" stroke="#666666" points="208,-30 107,-30 107,0 208,0 208,-30"/>
<text text-anchor="start" x="115" y="-18" font-family="Helvetica,sans-Serif" font-size="10.00">engine/public/util</text>
<text text-anchor="middle" x="157.5" y="-7" font-family="Helvetica,sans-Serif" font-size="10.00">/point.h</text>
</a>
</g>
</g>
<!-- Node1&#45;&gt;Node3 -->
<g id="edge2_Node000001_Node000003" class="edge">
<title>Node1&#45;&gt;Node3</title>
<g id="a_edge2_Node000001_Node000003"><a xlink:title=" ">
<path fill="none" stroke="#63b8ff" d="M113.15,-65.8C120.46,-57.59 129.8,-47.1 138.02,-37.87"/>
<polygon fill="#63b8ff" stroke="#63b8ff" points="140.85,-39.96 144.89,-30.16 135.62,-35.3 140.85,-39.96"/>
</a>
</g>
</g>
</g>
</svg>
