<?xml version="1.0" encoding="UTF-8" standalone="no"?>
<!DOCTYPE svg PUBLIC "-//W3C//DTD SVG 1.1//EN"
 "http://www.w3.org/Graphics/SVG/1.1/DTD/svg11.dtd">
<!-- Generated by graphviz version 2.43.0 (0)
 -->
<!-- Title: include/engine/physics/physics_math.h Pages: 1 -->
<svg width="1269pt" height="357pt"
 viewBox="0.00 0.00 1268.50 357.00" xmlns="http://www.w3.org/2000/svg" xmlns:xlink="http://www.w3.org/1999/xlink">
<g id="graph0" class="graph" transform="scale(1 1) rotate(0) translate(4 353)">
<title>include/engine/physics/physics_math.h</title>
<!-- Node1 -->
<g id="Node000001" class="node">
<title>Node1</title>
<g id="a_Node000001"><a xlink:title=" ">
<polygon fill="#999999" stroke="#666666" points="1145.5,-349 1017.5,-349 1017.5,-319 1145.5,-319 1145.5,-349"/>
<text text-anchor="start" x="1025.5" y="-337" font-family="Helvetica,sans-Serif" font-size="10.00">include/engine/physics</text>
<text text-anchor="middle" x="1081.5" y="-326" font-family="Helvetica,sans-Serif" font-size="10.00">/physics_math.h</text>
</a>
</g>
</g>
<!-- Node2 -->
<g id="Node000002" class="node">
<title>Node2</title>
<g id="a_Node000002"><a xlink:title=" ">
<polygon fill="#e0e0e0" stroke="#999999" points="1018,-19 929,-19 929,0 1018,0 1018,-19"/>
<text text-anchor="middle" x="973.5" y="-7" font-family="Helvetica,sans-Serif" font-size="10.00">box2d/box2d.h</text>
</a>
</g>
</g>
<!-- Node1&#45;&gt;Node2 -->
<g id="edge1_Node000001_Node000002" class="edge">
<title>Node1&#45;&gt;Node2</title>
<g id="a_edge1_Node000001_Node000002"><a xlink:title=" ">
<path fill="none" stroke="#63b8ff" d="M1134.72,-318.94C1187.49,-301.41 1260.5,-265.8 1260.5,-203 1260.5,-203 1260.5,-203 1260.5,-135 1260.5,-34.76 1111.34,-14.35 1028.09,-10.76"/>
<polygon fill="#63b8ff" stroke="#63b8ff" points="1028.15,-7.26 1018.03,-10.39 1027.89,-14.25 1028.15,-7.26"/>
</a>
</g>
</g>
<!-- Node3 -->
<g id="Node000003" class="node">
<title>Node3</title>
<g id="a_Node000003"><a xlink:href="physics__world_8h.html" target="_top" xlink:title=" ">
<polygon fill="white" stroke="#666666" points="978,-283 859,-283 859,-253 978,-253 978,-283"/>
<text text-anchor="start" x="867" y="-271" font-family="Helvetica,sans-Serif" font-size="10.00">engine/physics/world</text>
<text text-anchor="middle" x="918.5" y="-260" font-family="Helvetica,sans-Serif" font-size="10.00">/physics_world.h</text>
</a>
</g>
</g>
<!-- Node1&#45;&gt;Node3 -->
<g id="edge2_Node000001_Node000003" class="edge">
<title>Node1&#45;&gt;Node3</title>
<g id="a_edge2_Node000001_Node000003"><a xlink:title=" ">
<path fill="none" stroke="#63b8ff" d="M1045.73,-318.95C1021.63,-309.49 989.65,-296.93 963.77,-286.78"/>
<polygon fill="#63b8ff" stroke="#63b8ff" points="964.77,-283.41 954.19,-283.01 962.22,-289.93 964.77,-283.41"/>
</a>
</g>
</g>
<!-- Node10 -->
<g id="Node000010" class="node">
<title>Node10</title>
<g id="a_Node000010"><a xlink:href="point_8h.html" target="_top" xlink:title=" ">
<polygon fill="white" stroke="#666666" points="1150,-85 1049,-85 1049,-55 1150,-55 1150,-85"/>
<text text-anchor="start" x="1057" y="-73" font-family="Helvetica,sans-Serif" font-size="10.00">engine/public/util</text>
<text text-anchor="middle" x="1099.5" y="-62" font-family="Helvetica,sans-Serif" font-size="10.00">/point.h</text>
</a>
</g>
</g>
<!-- Node1&#45;&gt;Node10 -->
<g id="edge40_Node000001_Node000010" class="edge">
<title>Node1&#45;&gt;Node10</title>
<g id="a_edge40_Node000001_Node000010"><a xlink:title=" ">
<path fill="none" stroke="#63b8ff" d="M1096.34,-318.98C1116.58,-298.74 1151.86,-259.1 1165.5,-217 1180.33,-171.24 1145.01,-120.68 1120.52,-92.69"/>
<polygon fill="#63b8ff" stroke="#63b8ff" points="1122.95,-90.15 1113.65,-85.08 1117.76,-94.85 1122.95,-90.15"/>
</a>
</g>
</g>
<!-- Node11 -->
<g id="Node000011" class="node">
<title>Node11</title>
<g id="a_Node000011"><a xlink:href="vector3_8h.html" target="_top" xlink:title=" ">
<polygon fill="white" stroke="#666666" points="599,-85 498,-85 498,-55 599,-55 599,-85"/>
<text text-anchor="start" x="506" y="-73" font-family="Helvetica,sans-Serif" font-size="10.00">engine/public/util</text>
<text text-anchor="middle" x="548.5" y="-62" font-family="Helvetica,sans-Serif" font-size="10.00">/vector3.h</text>
</a>
</g>
</g>
<!-- Node1&#45;&gt;Node11 -->
<g id="edge41_Node000001_Node000011" class="edge">
<title>Node1&#45;&gt;Node11</title>
<g id="a_edge41_Node000001_Node000011"><a xlink:title=" ">
<path fill="none" stroke="#63b8ff" d="M1017.04,-325.65C897.45,-310.81 647.51,-273.77 583.5,-217 548.98,-186.39 545.47,-128.32 546.58,-95.39"/>
<polygon fill="#63b8ff" stroke="#63b8ff" points="550.08,-95.43 547.1,-85.26 543.09,-95.07 550.08,-95.43"/>
</a>
</g>
</g>
<!-- Node3&#45;&gt;Node2 -->
<g id="edge3_Node000003_Node000002" class="edge">
<title>Node3&#45;&gt;Node2</title>
<g id="a_edge3_Node000003_Node000002"><a xlink:title=" ">
<path fill="none" stroke="#63b8ff" d="M978.04,-263.4C1043.42,-258.05 1142.27,-245.41 1165.5,-217 1189.39,-187.79 1256.11,-171.89 1159.5,-55 1142.91,-34.93 1076.83,-22.75 1028.13,-16.32"/>
<polygon fill="#63b8ff" stroke="#63b8ff" points="1028.39,-12.83 1018.03,-15.04 1027.51,-19.77 1028.39,-12.83"/>
</a>
</g>
</g>
<!-- Node4 -->
<g id="Node000004" class="node">
<title>Node4</title>
<g id="a_Node000004"><a xlink:href="physics__creation__factory_8h.html" target="_top" xlink:title=" ">
<polygon fill="white" stroke="#666666" points="763,-217 614,-217 614,-187 763,-187 763,-217"/>
<text text-anchor="start" x="622" y="-205" font-family="Helvetica,sans-Serif" font-size="10.00">engine/physics/creation</text>
<text text-anchor="middle" x="688.5" y="-194" font-family="Helvetica,sans-Serif" font-size="10.00">/physics_creation_factory.h</text>
</a>
</g>
</g>
<!-- Node3&#45;&gt;Node4 -->
<g id="edge4_Node000003_Node000004" class="edge">
<title>Node3&#45;&gt;Node4</title>
<g id="a_edge4_Node000003_Node000004"><a xlink:title=" ">
<path fill="none" stroke="#63b8ff" d="M868.03,-252.95C832.82,-243.16 785.69,-230.05 748.56,-219.71"/>
<polygon fill="#63b8ff" stroke="#63b8ff" points="749.43,-216.32 738.86,-217.01 747.55,-223.07 749.43,-216.32"/>
</a>
</g>
</g>
<!-- Node7 -->
<g id="Node000007" class="node">
<title>Node7</title>
<g id="a_Node000007"><a xlink:href="body__2d_8h.html" target="_top" xlink:title=" ">
<polygon fill="white" stroke="#666666" points="842,-151 723,-151 723,-121 842,-121 842,-151"/>
<text text-anchor="start" x="731" y="-139" font-family="Helvetica,sans-Serif" font-size="10.00">engine/physics/world</text>
<text text-anchor="middle" x="782.5" y="-128" font-family="Helvetica,sans-Serif" font-size="10.00">/body/body_2d.h</text>
</a>
</g>
</g>
<!-- Node3&#45;&gt;Node7 -->
<g id="edge32_Node000003_Node000007" class="edge">
<title>Node3&#45;&gt;Node7</title>
<g id="a_edge32_Node000003_Node000007"><a xlink:title=" ">
<path fill="none" stroke="#63b8ff" d="M903.69,-252.84C879.77,-229.98 832.53,-184.82 804.62,-158.14"/>
<polygon fill="#63b8ff" stroke="#63b8ff" points="806.94,-155.52 797.3,-151.14 802.11,-160.58 806.94,-155.52"/>
</a>
</g>
</g>
<!-- Node9 -->
<g id="Node000009" class="node">
<title>Node9</title>
<g id="a_Node000009"><a xlink:href="shape__type__2d_8h.html" target="_top" xlink:title=" ">
<polygon fill="white" stroke="#666666" points="992,-85 863,-85 863,-55 992,-55 992,-85"/>
<text text-anchor="start" x="871" y="-73" font-family="Helvetica,sans-Serif" font-size="10.00">engine/physics/world</text>
<text text-anchor="middle" x="927.5" y="-62" font-family="Helvetica,sans-Serif" font-size="10.00">/body/shape_type_2d.h</text>
</a>
</g>
</g>
<!-- Node3&#45;&gt;Node9 -->
<g id="edge35_Node000003_Node000009" class="edge">
<title>Node3&#45;&gt;Node9</title>
<g id="a_edge35_Node000003_Node000009"><a xlink:title=" ">
<path fill="none" stroke="#63b8ff" d="M917.4,-252.57C916.7,-242.59 915.86,-229 915.5,-217 915.1,-203.67 914.81,-200.32 915.5,-187 917.14,-155.23 921.29,-118.76 924.25,-95.33"/>
<polygon fill="#63b8ff" stroke="#63b8ff" points="927.74,-95.62 925.55,-85.25 920.8,-94.72 927.74,-95.62"/>
</a>
</g>
</g>
<!-- Node3&#45;&gt;Node10 -->
<g id="edge36_Node000003_Node000010" class="edge">
<title>Node3&#45;&gt;Node10</title>
<g id="a_edge36_Node000003_Node000010"><a xlink:title=" ">
<path fill="none" stroke="#63b8ff" d="M932.12,-252.6C941.53,-242.63 954.31,-229.05 965.5,-217 1006.38,-172.99 1053.82,-121.1 1079.87,-92.55"/>
<polygon fill="#63b8ff" stroke="#63b8ff" points="1082.47,-94.89 1086.62,-85.15 1077.3,-90.18 1082.47,-94.89"/>
</a>
</g>
</g>
<!-- Node3&#45;&gt;Node11 -->
<g id="edge37_Node000003_Node000011" class="edge">
<title>Node3&#45;&gt;Node11</title>
<g id="a_edge37_Node000003_Node000011"><a xlink:title=" ">
<path fill="none" stroke="#63b8ff" d="M858.98,-264.43C779.29,-259.84 643.52,-247.65 605.5,-217 586.03,-201.3 565.12,-132.85 554.89,-95.51"/>
<polygon fill="#63b8ff" stroke="#63b8ff" points="558.16,-94.19 552.18,-85.45 551.4,-96.01 558.16,-94.19"/>
</a>
</g>
</g>
<!-- Node16 -->
<g id="Node000016" class="node">
<title>Node16</title>
<g id="a_Node000016"><a xlink:title=" ">
<polygon fill="#e0e0e0" stroke="#999999" points="113.5,-79.5 55.5,-79.5 55.5,-60.5 113.5,-60.5 113.5,-79.5"/>
<text text-anchor="middle" x="84.5" y="-67.5" font-family="Helvetica,sans-Serif" font-size="10.00">memory</text>
</a>
</g>
</g>
<!-- Node3&#45;&gt;Node16 -->
<g id="edge38_Node000003_Node000016" class="edge">
<title>Node3&#45;&gt;Node16</title>
<g id="a_edge38_Node000003_Node000016"><a xlink:title=" ">
<path fill="none" stroke="#63b8ff" d="M858.89,-266.7C732.01,-264.09 427.97,-247.39 196.5,-151 176.78,-142.79 129.98,-107.03 103.54,-86.2"/>
<polygon fill="#63b8ff" stroke="#63b8ff" points="105.43,-83.24 95.42,-79.77 101.09,-88.72 105.43,-83.24"/>
</a>
</g>
</g>
<!-- Node20 -->
<g id="Node000020" class="node">
<title>Node20</title>
<g id="a_Node000020"><a xlink:href="body__distance__2d_8h.html" target="_top" xlink:title=" ">
<polygon fill="white" stroke="#666666" points="1156,-217 1013,-217 1013,-187 1156,-187 1156,-217"/>
<text text-anchor="start" x="1021" y="-205" font-family="Helvetica,sans-Serif" font-size="10.00">engine/physics/world</text>
<text text-anchor="middle" x="1084.5" y="-194" font-family="Helvetica,sans-Serif" font-size="10.00">/body/body_distance_2d.h</text>
</a>
</g>
</g>
<!-- Node3&#45;&gt;Node20 -->
<g id="edge33_Node000003_Node000020" class="edge">
<title>Node3&#45;&gt;Node20</title>
<g id="a_edge33_Node000003_Node000020"><a xlink:title=" ">
<path fill="none" stroke="#63b8ff" d="M954.93,-252.95C979.58,-243.45 1012.33,-230.82 1038.74,-220.64"/>
<polygon fill="#63b8ff" stroke="#63b8ff" points="1040.08,-223.88 1048.16,-217.01 1037.57,-217.34 1040.08,-223.88"/>
</a>
</g>
</g>
<!-- Node21 -->
<g id="Node000021" class="node">
<title>Node21</title>
<g id="a_Node000021"><a xlink:title=" ">
<polygon fill="#e0e0e0" stroke="#999999" points="956.5,-211.5 924.5,-211.5 924.5,-192.5 956.5,-192.5 956.5,-211.5"/>
<text text-anchor="middle" x="940.5" y="-199.5" font-family="Helvetica,sans-Serif" font-size="10.00">set</text>
</a>
</g>
</g>
<!-- Node3&#45;&gt;Node21 -->
<g id="edge39_Node000003_Node000021" class="edge">
<title>Node3&#45;&gt;Node21</title>
<g id="a_edge39_Node000003_Node000021"><a xlink:title=" ">
<path fill="none" stroke="#63b8ff" d="M923.38,-252.8C926.54,-243.6 930.69,-231.53 934.11,-221.58"/>
<polygon fill="#63b8ff" stroke="#63b8ff" points="937.52,-222.44 937.46,-211.84 930.9,-220.16 937.52,-222.44"/>
</a>
</g>
</g>
<!-- Node4&#45;&gt;Node2 -->
<g id="edge5_Node000004_Node000002" class="edge">
<title>Node4&#45;&gt;Node2</title>
<g id="a_edge5_Node000004_Node000002"><a xlink:title=" ">
<path fill="none" stroke="#63b8ff" d="M757.86,-186.91C787.89,-179.03 822.69,-167.41 851.5,-151 868.72,-141.19 867.28,-130.82 884.5,-121 931.76,-94.05 969.18,-128.76 1001.5,-85 1014.52,-67.37 1000.66,-42.98 988.22,-26.98"/>
<polygon fill="#63b8ff" stroke="#63b8ff" points="990.72,-24.52 981.64,-19.05 985.34,-28.98 990.72,-24.52"/>
</a>
</g>
</g>
<!-- Node5 -->
<g id="Node000005" class="node">
<title>Node5</title>
<g id="a_Node000005"><a xlink:href="physics__creation__flags_8h.html" target="_top" xlink:title=" ">
<polygon fill="white" stroke="#666666" points="139,-151 0,-151 0,-121 139,-121 139,-151"/>
<text text-anchor="start" x="8" y="-139" font-family="Helvetica,sans-Serif" font-size="10.00">engine/physics/creation</text>
<text text-anchor="middle" x="69.5" y="-128" font-family="Helvetica,sans-Serif" font-size="10.00">/physics_creation_flags.h</text>
</a>
</g>
</g>
<!-- Node4&#45;&gt;Node5 -->
<g id="edge6_Node000004_Node000005" class="edge">
<title>Node4&#45;&gt;Node5</title>
<g id="a_edge6_Node000004_Node000005"><a xlink:title=" ">
<path fill="none" stroke="#63b8ff" d="M613.83,-193.28C496.51,-181.15 269.97,-157.73 149.45,-145.27"/>
<polygon fill="#63b8ff" stroke="#63b8ff" points="149.5,-141.75 139.19,-144.21 148.78,-148.72 149.5,-141.75"/>
</a>
</g>
</g>
<!-- Node4&#45;&gt;Node7 -->
<g id="edge8_Node000004_Node000007" class="edge">
<title>Node4&#45;&gt;Node7</title>
<g id="a_edge8_Node000004_Node000007"><a xlink:title=" ">
<path fill="none" stroke="#63b8ff" d="M709.36,-186.8C722.26,-178.01 739.01,-166.61 753.23,-156.93"/>
<polygon fill="#63b8ff" stroke="#63b8ff" points="755.4,-159.69 761.7,-151.16 751.46,-153.9 755.4,-159.69"/>
</a>
</g>
</g>
<!-- Node8 -->
<g id="Node000008" class="node">
<title>Node8</title>
<g id="a_Node000008"><a xlink:href="body__type__2d_8h.html" target="_top" xlink:title=" ">
<polygon fill="white" stroke="#666666" points="806.5,-85 682.5,-85 682.5,-55 806.5,-55 806.5,-85"/>
<text text-anchor="start" x="690.5" y="-73" font-family="Helvetica,sans-Serif" font-size="10.00">engine/physics/world</text>
<text text-anchor="middle" x="744.5" y="-62" font-family="Helvetica,sans-Serif" font-size="10.00">/body/body_type_2d.h</text>
</a>
</g>
</g>
<!-- Node4&#45;&gt;Node8 -->
<g id="edge19_Node000004_Node000008" class="edge">
<title>Node4&#45;&gt;Node8</title>
<g id="a_edge19_Node000004_Node000008"><a xlink:title=" ">
<path fill="none" stroke="#63b8ff" d="M692.08,-186.76C696.41,-170.48 704.39,-143.2 714.5,-121 718.65,-111.9 724.06,-102.37 729.15,-94.11"/>
<polygon fill="#63b8ff" stroke="#63b8ff" points="732.27,-95.72 734.67,-85.4 726.36,-91.97 732.27,-95.72"/>
</a>
</g>
</g>
<!-- Node4&#45;&gt;Node10 -->
<g id="edge28_Node000004_Node000010" class="edge">
<title>Node4&#45;&gt;Node10</title>
<g id="a_edge28_Node000004_Node000010"><a xlink:title=" ">
<path fill="none" stroke="#63b8ff" d="M750.77,-186.91C789.53,-177.69 840.26,-164.83 884.5,-151 916.71,-140.93 1000.48,-109.14 1053.44,-88.8"/>
<polygon fill="#63b8ff" stroke="#63b8ff" points="1054.87,-91.99 1062.95,-85.14 1052.36,-85.46 1054.87,-91.99"/>
</a>
</g>
</g>
<!-- Node4&#45;&gt;Node11 -->
<g id="edge29_Node000004_Node000011" class="edge">
<title>Node4&#45;&gt;Node11</title>
<g id="a_edge29_Node000004_Node000011"><a xlink:title=" ">
<path fill="none" stroke="#63b8ff" d="M673.25,-186.84C648.64,-163.98 600,-118.82 571.27,-92.14"/>
<polygon fill="#63b8ff" stroke="#63b8ff" points="573.44,-89.38 563.73,-85.14 568.68,-94.51 573.44,-89.38"/>
</a>
</g>
</g>
<!-- Node12 -->
<g id="Node000012" class="node">
<title>Node12</title>
<g id="a_Node000012"><a xlink:title=" ">
<polygon fill="#e0e0e0" stroke="#999999" points="664,-79.5 617,-79.5 617,-60.5 664,-60.5 664,-79.5"/>
<text text-anchor="middle" x="640.5" y="-67.5" font-family="Helvetica,sans-Serif" font-size="10.00">vector</text>
</a>
</g>
</g>
<!-- Node4&#45;&gt;Node12 -->
<g id="edge31_Node000004_Node000012" class="edge">
<title>Node4&#45;&gt;Node12</title>
<g id="a_edge31_Node000004_Node000012"><a xlink:title=" ">
<path fill="none" stroke="#63b8ff" d="M683.27,-186.84C674.52,-163.13 656.9,-115.41 647.23,-89.23"/>
<polygon fill="#63b8ff" stroke="#63b8ff" points="650.48,-87.92 643.73,-79.75 643.91,-90.34 650.48,-87.92"/>
</a>
</g>
</g>
<!-- Node13 -->
<g id="Node000013" class="node">
<title>Node13</title>
<g id="a_Node000013"><a xlink:href="component_8h.html" target="_top" xlink:title=" ">
<polygon fill="white" stroke="#666666" points="408,-145.5 259,-145.5 259,-126.5 408,-126.5 408,-145.5"/>
<text text-anchor="middle" x="333.5" y="-133.5" font-family="Helvetica,sans-Serif" font-size="10.00">engine/public/component.h</text>
</a>
</g>
</g>
<!-- Node4&#45;&gt;Node13 -->
<g id="edge20_Node000004_Node000013" class="edge">
<title>Node4&#45;&gt;Node13</title>
<g id="a_edge20_Node000004_Node000013"><a xlink:title=" ">
<path fill="none" stroke="#63b8ff" d="M613.65,-187.51C547.21,-175.53 451.54,-158.28 390.96,-147.36"/>
<polygon fill="#63b8ff" stroke="#63b8ff" points="391.27,-143.86 380.81,-145.53 390.03,-150.75 391.27,-143.86"/>
</a>
</g>
</g>
<!-- Node4&#45;&gt;Node16 -->
<g id="edge30_Node000004_Node000016" class="edge">
<title>Node4&#45;&gt;Node16</title>
<g id="a_edge30_Node000004_Node000016"><a xlink:title=" ">
<path fill="none" stroke="#63b8ff" d="M613.97,-201.49C525.07,-200.05 372.97,-191.13 249.5,-151 223.76,-142.63 220.66,-133.2 196.5,-121 169.34,-107.29 137.62,-93.31 114.88,-83.63"/>
<polygon fill="#63b8ff" stroke="#63b8ff" points="115.99,-80.3 105.42,-79.63 113.27,-86.75 115.99,-80.3"/>
</a>
</g>
</g>
<!-- Node6 -->
<g id="Node000006" class="node">
<title>Node6</title>
<g id="a_Node000006"><a xlink:title=" ">
<polygon fill="#e0e0e0" stroke="#999999" points="769.5,-19 719.5,-19 719.5,0 769.5,0 769.5,-19"/>
<text text-anchor="middle" x="744.5" y="-7" font-family="Helvetica,sans-Serif" font-size="10.00">cstdint</text>
</a>
</g>
</g>
<!-- Node5&#45;&gt;Node6 -->
<g id="edge7_Node000005_Node000006" class="edge">
<title>Node5&#45;&gt;Node6</title>
<g id="a_edge7_Node000005_Node000006"><a xlink:title=" ">
<path fill="none" stroke="#63b8ff" d="M58.42,-120.97C45.91,-103.36 29.39,-73.23 46.5,-55 69.4,-30.59 570.71,-15.22 709.29,-11.42"/>
<polygon fill="#63b8ff" stroke="#63b8ff" points="709.46,-14.92 719.36,-11.15 709.27,-7.92 709.46,-14.92"/>
</a>
</g>
</g>
<!-- Node7&#45;&gt;Node2 -->
<g id="edge9_Node000007_Node000002" class="edge">
<title>Node7&#45;&gt;Node2</title>
<g id="a_edge9_Node000007_Node000002"><a xlink:title=" ">
<path fill="none" stroke="#63b8ff" d="M791.87,-120.96C804.29,-103.33 827.78,-73.2 854.5,-55 876.67,-39.9 904.64,-29.1 927.89,-21.93"/>
<polygon fill="#63b8ff" stroke="#63b8ff" points="928.93,-25.27 937.53,-19.07 926.95,-18.56 928.93,-25.27"/>
</a>
</g>
</g>
<!-- Node7&#45;&gt;Node8 -->
<g id="edge10_Node000007_Node000008" class="edge">
<title>Node7&#45;&gt;Node8</title>
<g id="a_edge10_Node000007_Node000008"><a xlink:title=" ">
<path fill="none" stroke="#63b8ff" d="M774.07,-120.8C769.39,-112.92 763.47,-102.95 758.15,-93.99"/>
<polygon fill="#63b8ff" stroke="#63b8ff" points="761.02,-91.98 752.91,-85.16 755.01,-95.55 761.02,-91.98"/>
</a>
</g>
</g>
<!-- Node7&#45;&gt;Node9 -->
<g id="edge13_Node000007_Node000009" class="edge">
<title>Node7&#45;&gt;Node9</title>
<g id="a_edge13_Node000007_Node000009"><a xlink:title=" ">
<path fill="none" stroke="#63b8ff" d="M814.32,-120.95C835.47,-111.62 863.46,-99.27 886.31,-89.18"/>
<polygon fill="#63b8ff" stroke="#63b8ff" points="888.02,-92.25 895.75,-85.01 885.19,-85.85 888.02,-92.25"/>
</a>
</g>
</g>
<!-- Node7&#45;&gt;Node10 -->
<g id="edge16_Node000007_Node000010" class="edge">
<title>Node7&#45;&gt;Node10</title>
<g id="a_edge16_Node000007_Node000010"><a xlink:title=" ">
<path fill="none" stroke="#63b8ff" d="M842.13,-122.96C898.38,-111.6 982.31,-94.66 1038.88,-83.24"/>
<polygon fill="#63b8ff" stroke="#63b8ff" points="1039.66,-86.65 1048.77,-81.24 1038.27,-79.79 1039.66,-86.65"/>
</a>
</g>
</g>
<!-- Node7&#45;&gt;Node11 -->
<g id="edge17_Node000007_Node000011" class="edge">
<title>Node7&#45;&gt;Node11</title>
<g id="a_edge17_Node000007_Node000011"><a xlink:title=" ">
<path fill="none" stroke="#63b8ff" d="M731.15,-120.95C695.21,-111.13 647.05,-97.95 609.21,-87.6"/>
<polygon fill="#63b8ff" stroke="#63b8ff" points="609.9,-84.16 599.33,-84.9 608.05,-90.92 609.9,-84.16"/>
</a>
</g>
</g>
<!-- Node7&#45;&gt;Node12 -->
<g id="edge18_Node000007_Node000012" class="edge">
<title>Node7&#45;&gt;Node12</title>
<g id="a_edge18_Node000007_Node000012"><a xlink:title=" ">
<path fill="none" stroke="#63b8ff" d="M751.34,-120.95C726.65,-109.83 692.47,-94.42 668.62,-83.67"/>
<polygon fill="#63b8ff" stroke="#63b8ff" points="669.95,-80.44 659.4,-79.52 667.08,-86.82 669.95,-80.44"/>
</a>
</g>
</g>
<!-- Node8&#45;&gt;Node2 -->
<g id="edge11_Node000008_Node000002" class="edge">
<title>Node8&#45;&gt;Node2</title>
<g id="a_edge11_Node000008_Node000002"><a xlink:title=" ">
<path fill="none" stroke="#63b8ff" d="M799.35,-54.99C839.39,-44.76 892.92,-31.09 930.01,-21.61"/>
<polygon fill="#63b8ff" stroke="#63b8ff" points="931.19,-24.92 940.02,-19.05 929.46,-18.14 931.19,-24.92"/>
</a>
</g>
</g>
<!-- Node8&#45;&gt;Node6 -->
<g id="edge12_Node000008_Node000006" class="edge">
<title>Node8&#45;&gt;Node6</title>
<g id="a_edge12_Node000008_Node000006"><a xlink:title=" ">
<path fill="none" stroke="#63b8ff" d="M744.5,-54.84C744.5,-47.21 744.5,-37.7 744.5,-29.45"/>
<polygon fill="#63b8ff" stroke="#63b8ff" points="748,-29.27 744.5,-19.27 741,-29.27 748,-29.27"/>
</a>
</g>
</g>
<!-- Node9&#45;&gt;Node2 -->
<g id="edge14_Node000009_Node000002" class="edge">
<title>Node9&#45;&gt;Node2</title>
<g id="a_edge14_Node000009_Node000002"><a xlink:title=" ">
<path fill="none" stroke="#63b8ff" d="M938.64,-54.84C945.18,-46.52 953.48,-35.96 960.34,-27.23"/>
<polygon fill="#63b8ff" stroke="#63b8ff" points="963.18,-29.29 966.61,-19.27 957.67,-24.96 963.18,-29.29"/>
</a>
</g>
</g>
<!-- Node9&#45;&gt;Node6 -->
<g id="edge15_Node000009_Node000006" class="edge">
<title>Node9&#45;&gt;Node6</title>
<g id="a_edge15_Node000009_Node000006"><a xlink:title=" ">
<path fill="none" stroke="#63b8ff" d="M883.67,-54.99C851.79,-44.8 809.21,-31.18 779.57,-21.71"/>
<polygon fill="#63b8ff" stroke="#63b8ff" points="780.26,-18.26 769.67,-18.55 778.13,-24.93 780.26,-18.26"/>
</a>
</g>
</g>
<!-- Node13&#45;&gt;Node12 -->
<g id="edge27_Node000013_Node000012" class="edge">
<title>Node13&#45;&gt;Node12</title>
<g id="a_edge27_Node000013_Node000012"><a xlink:title=" ">
<path fill="none" stroke="#63b8ff" d="M406.1,-126.49C462.19,-118.8 541.32,-105.5 608.5,-85 610.13,-84.5 611.8,-83.94 613.46,-83.34"/>
<polygon fill="#63b8ff" stroke="#63b8ff" points="614.85,-86.56 622.84,-79.6 612.25,-80.06 614.85,-86.56"/>
</a>
</g>
</g>
<!-- Node14 -->
<g id="Node000014" class="node">
<title>Node14</title>
<g id="a_Node000014"><a xlink:title=" ">
<polygon fill="#e0e0e0" stroke="#999999" points="322,-79.5 269,-79.5 269,-60.5 322,-60.5 322,-79.5"/>
<text text-anchor="middle" x="295.5" y="-67.5" font-family="Helvetica,sans-Serif" font-size="10.00">cstddef</text>
</a>
</g>
</g>
<!-- Node13&#45;&gt;Node14 -->
<g id="edge21_Node000013_Node000014" class="edge">
<title>Node13&#45;&gt;Node14</title>
<g id="a_edge21_Node000013_Node000014"><a xlink:title=" ">
<path fill="none" stroke="#63b8ff" d="M328.38,-126.37C322.68,-116.78 313.34,-101.05 306.07,-88.8"/>
<polygon fill="#63b8ff" stroke="#63b8ff" points="308.9,-86.72 300.79,-79.91 302.88,-90.29 308.9,-86.72"/>
</a>
</g>
</g>
<!-- Node15 -->
<g id="Node000015" class="node">
<title>Node15</title>
<g id="a_Node000015"><a xlink:title=" ">
<polygon fill="#e0e0e0" stroke="#999999" points="405,-79.5 340,-79.5 340,-60.5 405,-60.5 405,-79.5"/>
<text text-anchor="middle" x="372.5" y="-67.5" font-family="Helvetica,sans-Serif" font-size="10.00">functional</text>
</a>
</g>
</g>
<!-- Node13&#45;&gt;Node15 -->
<g id="edge22_Node000013_Node000015" class="edge">
<title>Node13&#45;&gt;Node15</title>
<g id="a_edge22_Node000013_Node000015"><a xlink:title=" ">
<path fill="none" stroke="#63b8ff" d="M338.76,-126.37C344.6,-116.78 354.19,-101.05 361.65,-88.8"/>
<polygon fill="#63b8ff" stroke="#63b8ff" points="364.86,-90.27 367.07,-79.91 358.88,-86.62 364.86,-90.27"/>
</a>
</g>
</g>
<!-- Node13&#45;&gt;Node16 -->
<g id="edge23_Node000013_Node000016" class="edge">
<title>Node13&#45;&gt;Node16</title>
<g id="a_edge23_Node000013_Node000016"><a xlink:title=" ">
<path fill="none" stroke="#63b8ff" d="M290.66,-126.43C247.75,-117.48 179.99,-102.33 122.5,-85 120.37,-84.36 118.18,-83.66 115.98,-82.93"/>
<polygon fill="#63b8ff" stroke="#63b8ff" points="117.05,-79.59 106.45,-79.6 114.74,-86.2 117.05,-79.59"/>
</a>
</g>
</g>
<!-- Node17 -->
<g id="Node000017" class="node">
<title>Node17</title>
<g id="a_Node000017"><a xlink:title=" ">
<polygon fill="#e0e0e0" stroke="#999999" points="479.5,-79.5 423.5,-79.5 423.5,-60.5 479.5,-60.5 479.5,-79.5"/>
<text text-anchor="middle" x="451.5" y="-67.5" font-family="Helvetica,sans-Serif" font-size="10.00">optional</text>
</a>
</g>
</g>
<!-- Node13&#45;&gt;Node17 -->
<g id="edge24_Node000013_Node000017" class="edge">
<title>Node13&#45;&gt;Node17</title>
<g id="a_edge24_Node000013_Node000017"><a xlink:title=" ">
<path fill="none" stroke="#63b8ff" d="M349.41,-126.37C369.21,-115.63 403.23,-97.18 426.51,-84.55"/>
<polygon fill="#63b8ff" stroke="#63b8ff" points="428.34,-87.54 435.46,-79.7 425,-81.39 428.34,-87.54"/>
</a>
</g>
</g>
<!-- Node18 -->
<g id="Node000018" class="node">
<title>Node18</title>
<g id="a_Node000018"><a xlink:title=" ">
<polygon fill="#e0e0e0" stroke="#999999" points="175.5,-79.5 131.5,-79.5 131.5,-60.5 175.5,-60.5 175.5,-79.5"/>
<text text-anchor="middle" x="153.5" y="-67.5" font-family="Helvetica,sans-Serif" font-size="10.00">string</text>
</a>
</g>
</g>
<!-- Node13&#45;&gt;Node18 -->
<g id="edge25_Node000013_Node000018" class="edge">
<title>Node13&#45;&gt;Node18</title>
<g id="a_edge25_Node000013_Node000018"><a xlink:title=" ">
<path fill="none" stroke="#63b8ff" d="M305.19,-126.43C274.99,-117.08 225.9,-101.25 184.5,-85 183.32,-84.54 182.13,-84.06 180.93,-83.56"/>
<polygon fill="#63b8ff" stroke="#63b8ff" points="182.3,-80.34 171.73,-79.6 179.53,-86.77 182.3,-80.34"/>
</a>
</g>
</g>
<!-- Node19 -->
<g id="Node000019" class="node">
<title>Node19</title>
<g id="a_Node000019"><a xlink:title=" ">
<polygon fill="#e0e0e0" stroke="#999999" points="251,-79.5 194,-79.5 194,-60.5 251,-60.5 251,-79.5"/>
<text text-anchor="middle" x="222.5" y="-67.5" font-family="Helvetica,sans-Serif" font-size="10.00">typeinfo</text>
</a>
</g>
</g>
<!-- Node13&#45;&gt;Node19 -->
<g id="edge26_Node000013_Node000019" class="edge">
<title>Node13&#45;&gt;Node19</title>
<g id="a_edge26_Node000013_Node000019"><a xlink:title=" ">
<path fill="none" stroke="#63b8ff" d="M318.53,-126.37C299.99,-115.68 268.19,-97.35 246.3,-84.72"/>
<polygon fill="#63b8ff" stroke="#63b8ff" points="248,-81.66 237.59,-79.7 244.5,-87.73 248,-81.66"/>
</a>
</g>
</g>
<!-- Node20&#45;&gt;Node10 -->
<g id="edge34_Node000020_Node000010" class="edge">
<title>Node20&#45;&gt;Node10</title>
<g id="a_edge34_Node000020_Node000010"><a xlink:title=" ">
<path fill="none" stroke="#63b8ff" d="M1086.13,-186.84C1088.67,-164.86 1093.58,-122.27 1096.7,-95.3"/>
<polygon fill="#63b8ff" stroke="#63b8ff" points="1100.2,-95.48 1097.87,-85.14 1093.24,-94.68 1100.2,-95.48"/>
</a>
</g>
</g>
</g>
</svg>
