<?xml version="1.0" encoding="UTF-8" standalone="no"?>
<!DOCTYPE svg PUBLIC "-//W3C//DTD SVG 1.1//EN"
 "http://www.w3.org/Graphics/SVG/1.1/DTD/svg11.dtd">
<!-- Generated by graphviz version 2.43.0 (0)
 -->
<!-- Title: include/engine/public/util/point.h Pages: 1 -->
<svg width="1153pt" height="335pt"
 viewBox="0.00 0.00 1153.39 335.00" xmlns="http://www.w3.org/2000/svg" xmlns:xlink="http://www.w3.org/1999/xlink">
<g id="graph0" class="graph" transform="scale(1 1) rotate(0) translate(4 331)">
<title>include/engine/public/util/point.h</title>
<!-- Node1 -->
<g id="Node000001" class="node">
<title>Node1</title>
<g id="a_Node000001"><a xlink:title=" ">
<polygon fill="#999999" stroke="#666666" points="709,-327 589,-327 589,-297 709,-297 709,-327"/>
<text text-anchor="start" x="597" y="-315" font-family="Helvetica,sans-Serif" font-size="10.00">include/engine/public</text>
<text text-anchor="middle" x="649" y="-304" font-family="Helvetica,sans-Serif" font-size="10.00">/util/point.h</text>
</a>
</g>
</g>
<!-- Node2 -->
<g id="Node000002" class="node">
<title>Node2</title>
<g id="a_Node000002"><a xlink:href="i__input__provider_8h.html" target="_top" xlink:title=" ">
<polygon fill="white" stroke="#666666" points="183,-112.5 67,-112.5 67,-82.5 183,-82.5 183,-112.5"/>
<text text-anchor="start" x="75" y="-100.5" font-family="Helvetica,sans-Serif" font-size="10.00">include/engine/input</text>
<text text-anchor="middle" x="125" y="-89.5" font-family="Helvetica,sans-Serif" font-size="10.00">/i_input_provider.h</text>
</a>
</g>
</g>
<!-- Node1&#45;&gt;Node2 -->
<g id="edge1_Node000001_Node000002" class="edge">
<title>Node1&#45;&gt;Node2</title>
<g id="a_edge1_Node000001_Node000002"><a xlink:title=" ">
<path fill="none" stroke="#63b8ff" d="M578.77,-311.45C467.7,-310.81 258.02,-303.77 199,-261 148.55,-224.44 131.7,-145.11 126.79,-112.72"/>
<polygon fill="#63b8ff" stroke="#63b8ff" points="578.87,-314.95 588.88,-311.49 578.89,-307.95 578.87,-314.95"/>
</a>
</g>
</g>
<!-- Node5 -->
<g id="Node000005" class="node">
<title>Node5</title>
<g id="a_Node000005"><a xlink:href="mouse__state_8h.html" target="_top" xlink:title=" ">
<polygon fill="white" stroke="#666666" points="324,-255.5 208,-255.5 208,-225.5 324,-225.5 324,-255.5"/>
<text text-anchor="start" x="216" y="-243.5" font-family="Helvetica,sans-Serif" font-size="10.00">include/engine/input</text>
<text text-anchor="middle" x="266" y="-232.5" font-family="Helvetica,sans-Serif" font-size="10.00">/mouse_state.h</text>
</a>
</g>
</g>
<!-- Node1&#45;&gt;Node5 -->
<g id="edge4_Node000001_Node000005" class="edge">
<title>Node1&#45;&gt;Node5</title>
<g id="a_edge4_Node000001_Node000005"><a xlink:title=" ">
<path fill="none" stroke="#63b8ff" d="M578.69,-298.24C505.52,-284.96 392.28,-264.42 324.03,-252.03"/>
<polygon fill="#63b8ff" stroke="#63b8ff" points="578.27,-301.72 588.73,-300.06 579.52,-294.83 578.27,-301.72"/>
</a>
</g>
</g>
<!-- Node8 -->
<g id="Node000008" class="node">
<title>Node8</title>
<g id="a_Node000008"><a xlink:href="physics__creation__factory_8h.html" target="_top" xlink:title=" ">
<polygon fill="white" stroke="#666666" points="898,-261 754,-261 754,-220 898,-220 898,-261"/>
<text text-anchor="start" x="762" y="-249" font-family="Helvetica,sans-Serif" font-size="10.00">include/engine/physics</text>
<text text-anchor="start" x="762" y="-238" font-family="Helvetica,sans-Serif" font-size="10.00">/creation/physics_creation</text>
<text text-anchor="middle" x="826" y="-227" font-family="Helvetica,sans-Serif" font-size="10.00">_factory.h</text>
</a>
</g>
</g>
<!-- Node1&#45;&gt;Node8 -->
<g id="edge10_Node000001_Node000008" class="edge">
<title>Node1&#45;&gt;Node8</title>
<g id="a_edge10_Node000001_Node000008"><a xlink:title=" ">
<path fill="none" stroke="#63b8ff" d="M694.43,-293.16C719.42,-283.35 750.49,-271.15 776.15,-261.07"/>
<polygon fill="#63b8ff" stroke="#63b8ff" points="692.85,-290.02 684.82,-296.94 695.41,-296.54 692.85,-290.02"/>
</a>
</g>
</g>
<!-- Node10 -->
<g id="Node000010" class="node">
<title>Node10</title>
<g id="a_Node000010"><a xlink:href="physics__world_8h.html" target="_top" xlink:title=" ">
<polygon fill="white" stroke="#666666" points="711,-184 583,-184 583,-154 711,-154 711,-184"/>
<text text-anchor="start" x="591" y="-172" font-family="Helvetica,sans-Serif" font-size="10.00">include/engine/physics</text>
<text text-anchor="middle" x="647" y="-161" font-family="Helvetica,sans-Serif" font-size="10.00">/world/physics_world.h</text>
</a>
</g>
</g>
<!-- Node1&#45;&gt;Node10 -->
<g id="edge28_Node000001_Node000010" class="edge">
<title>Node1&#45;&gt;Node10</title>
<g id="a_edge28_Node000001_Node000010"><a xlink:title=" ">
<path fill="none" stroke="#63b8ff" d="M589.79,-292.66C575.27,-285.22 561.48,-274.97 553,-261 543.55,-245.42 543.62,-235.62 553,-220 563.09,-203.2 580.94,-191.75 598.39,-184.08"/>
<polygon fill="#63b8ff" stroke="#63b8ff" points="588.35,-295.85 598.88,-296.94 591.33,-289.52 588.35,-295.85"/>
</a>
</g>
</g>
<!-- Node11 -->
<g id="Node000011" class="node">
<title>Node11</title>
<g id="a_Node000011"><a xlink:href="collider__2d_8h.html" target="_top" xlink:title=" ">
<polygon fill="white" stroke="#666666" points="986,-118 862,-118 862,-77 986,-77 986,-118"/>
<text text-anchor="start" x="870" y="-106" font-family="Helvetica,sans-Serif" font-size="10.00">include/engine/public</text>
<text text-anchor="start" x="870" y="-95" font-family="Helvetica,sans-Serif" font-size="10.00">/components/colliders</text>
<text text-anchor="middle" x="924" y="-84" font-family="Helvetica,sans-Serif" font-size="10.00">/collider_2d.h</text>
</a>
</g>
</g>
<!-- Node1&#45;&gt;Node11 -->
<g id="edge31_Node000001_Node000011" class="edge">
<title>Node1&#45;&gt;Node11</title>
<g id="a_edge31_Node000001_Node000011"><a xlink:title=" ">
<path fill="none" stroke="#63b8ff" d="M719.43,-307.59C837.32,-301.22 1064.42,-285.86 1091,-261 1126.03,-228.25 1133.51,-192.57 1105,-154 1077.94,-117.4 1027.18,-104.15 986.29,-99.71"/>
<polygon fill="#63b8ff" stroke="#63b8ff" points="719.2,-304.1 709.4,-308.12 719.58,-311.09 719.2,-304.1"/>
</a>
</g>
</g>
<!-- Node12 -->
<g id="Node000012" class="node">
<title>Node12</title>
<g id="a_Node000012"><a xlink:href="box__collider__2d_8h.html" target="_top" xlink:title=" ">
<polygon fill="white" stroke="#666666" points="689,-41 565,-41 565,0 689,0 689,-41"/>
<text text-anchor="start" x="573" y="-29" font-family="Helvetica,sans-Serif" font-size="10.00">include/engine/public</text>
<text text-anchor="start" x="573" y="-18" font-family="Helvetica,sans-Serif" font-size="10.00">/components/colliders</text>
<text text-anchor="middle" x="627" y="-7" font-family="Helvetica,sans-Serif" font-size="10.00">/box_collider_2d.h</text>
</a>
</g>
</g>
<!-- Node1&#45;&gt;Node12 -->
<g id="edge29_Node000001_Node000012" class="edge">
<title>Node1&#45;&gt;Node12</title>
<g id="a_edge29_Node000001_Node000012"><a xlink:title=" ">
<path fill="none" stroke="#63b8ff" d="M579.25,-294.51C525.03,-277.33 454.69,-244.2 428,-184 397.17,-114.48 495.68,-65.48 564.92,-40.51"/>
<polygon fill="#63b8ff" stroke="#63b8ff" points="578.25,-297.86 588.83,-297.44 580.29,-291.17 578.25,-297.86"/>
</a>
</g>
</g>
<!-- Node13 -->
<g id="Node000013" class="node">
<title>Node13</title>
<g id="a_Node000013"><a xlink:href="circle__collider__2d_8h.html" target="_top" xlink:title=" ">
<polygon fill="white" stroke="#666666" points="1144,-41 1020,-41 1020,0 1144,0 1144,-41"/>
<text text-anchor="start" x="1028" y="-29" font-family="Helvetica,sans-Serif" font-size="10.00">include/engine/public</text>
<text text-anchor="start" x="1028" y="-18" font-family="Helvetica,sans-Serif" font-size="10.00">/components/colliders</text>
<text text-anchor="middle" x="1082" y="-7" font-family="Helvetica,sans-Serif" font-size="10.00">/circle_collider_2d.h</text>
</a>
</g>
</g>
<!-- Node1&#45;&gt;Node13 -->
<g id="edge30_Node000001_Node000013" class="edge">
<title>Node1&#45;&gt;Node13</title>
<g id="a_edge30_Node000001_Node000013"><a xlink:title=" ">
<path fill="none" stroke="#63b8ff" d="M719.42,-308.36C843.71,-302.99 1091.52,-288.9 1119,-261 1178.49,-200.6 1121.4,-86.9 1094.4,-41.23"/>
<polygon fill="#63b8ff" stroke="#63b8ff" points="719.08,-304.87 709.24,-308.79 719.38,-311.86 719.08,-304.87"/>
</a>
</g>
</g>
<!-- Node15 -->
<g id="Node000015" class="node">
<title>Node15</title>
<g id="a_Node000015"><a xlink:href="physics__math_8h.html" target="_top" xlink:title=" ">
<polygon fill="white" stroke="#666666" points="565,-184 437,-184 437,-154 565,-154 565,-184"/>
<text text-anchor="start" x="445" y="-172" font-family="Helvetica,sans-Serif" font-size="10.00">include/engine/physics</text>
<text text-anchor="middle" x="501" y="-161" font-family="Helvetica,sans-Serif" font-size="10.00">/physics_math.h</text>
</a>
</g>
</g>
<!-- Node1&#45;&gt;Node15 -->
<g id="edge19_Node000001_Node000015" class="edge">
<title>Node1&#45;&gt;Node15</title>
<g id="a_edge19_Node000001_Node000015"><a xlink:title=" ">
<path fill="none" stroke="#63b8ff" d="M591.46,-292.98C573.91,-285.31 555.67,-274.86 542,-261 520.34,-239.04 508.98,-203.62 504.07,-184.08"/>
<polygon fill="#63b8ff" stroke="#63b8ff" points="590.52,-296.38 601.1,-296.96 593.19,-289.91 590.52,-296.38"/>
</a>
</g>
</g>
<!-- Node16 -->
<g id="Node000016" class="node">
<title>Node16</title>
<g id="a_Node000016"><a xlink:href="collider__ray__result_8h.html" target="_top" xlink:title=" ">
<polygon fill="white" stroke="#666666" points="1082,-261 954,-261 954,-220 1082,-220 1082,-261"/>
<text text-anchor="start" x="962" y="-249" font-family="Helvetica,sans-Serif" font-size="10.00">include/engine/physics</text>
<text text-anchor="start" x="962" y="-238" font-family="Helvetica,sans-Serif" font-size="10.00">/raycast/collider_ray</text>
<text text-anchor="middle" x="1018" y="-227" font-family="Helvetica,sans-Serif" font-size="10.00">_result.h</text>
</a>
</g>
</g>
<!-- Node1&#45;&gt;Node16 -->
<g id="edge21_Node000001_Node000016" class="edge">
<title>Node1&#45;&gt;Node16</title>
<g id="a_edge21_Node000001_Node000016"><a xlink:title=" ">
<path fill="none" stroke="#63b8ff" d="M719.14,-300.46C778.25,-291.21 864.96,-276.8 940,-261 944.51,-260.05 949.15,-259.02 953.81,-257.95"/>
<polygon fill="#63b8ff" stroke="#63b8ff" points="718.5,-297.01 709.16,-302.01 719.58,-303.93 718.5,-297.01"/>
</a>
</g>
</g>
<!-- Node17 -->
<g id="Node000017" class="node">
<title>Node17</title>
<g id="a_Node000017"><a xlink:href="physics__raycaster_8h.html" target="_top" xlink:title=" ">
<polygon fill="white" stroke="#666666" points="1095.5,-184 940.5,-184 940.5,-154 1095.5,-154 1095.5,-184"/>
<text text-anchor="start" x="948.5" y="-172" font-family="Helvetica,sans-Serif" font-size="10.00">include/engine/physics</text>
<text text-anchor="middle" x="1018" y="-161" font-family="Helvetica,sans-Serif" font-size="10.00">/raycast/physics_raycaster.h</text>
</a>
</g>
</g>
<!-- Node1&#45;&gt;Node17 -->
<g id="edge25_Node000001_Node000017" class="edge">
<title>Node1&#45;&gt;Node17</title>
<g id="a_edge25_Node000001_Node000017"><a xlink:title=" ">
<path fill="none" stroke="#63b8ff" d="M719.41,-309.11C773.69,-304.98 849.03,-293.23 907,-261 928.72,-248.93 926.19,-236.23 945,-220 960.58,-206.55 979.85,-193.48 994.68,-184.08"/>
<polygon fill="#63b8ff" stroke="#63b8ff" points="718.93,-305.64 709.19,-309.82 719.41,-312.62 718.93,-305.64"/>
</a>
</g>
</g>
<!-- Node18 -->
<g id="Node000018" class="node">
<title>Node18</title>
<g id="a_Node000018"><a xlink:href="body__distance__2d_8h.html" target="_top" xlink:title=" ">
<polygon fill="white" stroke="#666666" points="735.5,-255.5 562.5,-255.5 562.5,-225.5 735.5,-225.5 735.5,-255.5"/>
<text text-anchor="start" x="570.5" y="-243.5" font-family="Helvetica,sans-Serif" font-size="10.00">include/engine/physics</text>
<text text-anchor="middle" x="649" y="-232.5" font-family="Helvetica,sans-Serif" font-size="10.00">/world/body/body_distance_2d.h</text>
</a>
</g>
</g>
<!-- Node1&#45;&gt;Node18 -->
<g id="edge26_Node000001_Node000018" class="edge">
<title>Node1&#45;&gt;Node18</title>
<g id="a_edge26_Node000001_Node000018"><a xlink:title=" ">
<path fill="none" stroke="#63b8ff" d="M649,-286.75C649,-276.31 649,-264.49 649,-255.54"/>
<polygon fill="#63b8ff" stroke="#63b8ff" points="645.5,-286.94 649,-296.94 652.5,-286.94 645.5,-286.94"/>
</a>
</g>
</g>
<!-- Node3 -->
<g id="Node000003" class="node">
<title>Node3</title>
<g id="a_Node000003"><a xlink:href="input__manager_8h.html" target="_top" xlink:title=" ">
<polygon fill="white" stroke="#666666" points="116,-35.5 0,-35.5 0,-5.5 116,-5.5 116,-35.5"/>
<text text-anchor="start" x="8" y="-23.5" font-family="Helvetica,sans-Serif" font-size="10.00">include/engine/input</text>
<text text-anchor="middle" x="58" y="-12.5" font-family="Helvetica,sans-Serif" font-size="10.00">/input_manager.h</text>
</a>
</g>
</g>
<!-- Node2&#45;&gt;Node3 -->
<g id="edge2_Node000002_Node000003" class="edge">
<title>Node2&#45;&gt;Node3</title>
<g id="a_edge2_Node000002_Node000003"><a xlink:title=" ">
<path fill="none" stroke="#63b8ff" d="M105.43,-74.6C94.17,-61.99 80.36,-46.53 70.55,-35.54"/>
<polygon fill="#63b8ff" stroke="#63b8ff" points="103.13,-77.27 112.4,-82.39 108.35,-72.6 103.13,-77.27"/>
</a>
</g>
</g>
<!-- Node4 -->
<g id="Node000004" class="node">
<title>Node4</title>
<g id="a_Node000004"><a xlink:href="input__system_8h.html" target="_top" xlink:title=" ">
<polygon fill="white" stroke="#666666" points="250,-35.5 134,-35.5 134,-5.5 250,-5.5 250,-35.5"/>
<text text-anchor="start" x="142" y="-23.5" font-family="Helvetica,sans-Serif" font-size="10.00">include/engine/input</text>
<text text-anchor="middle" x="192" y="-12.5" font-family="Helvetica,sans-Serif" font-size="10.00">/input_system.h</text>
</a>
</g>
</g>
<!-- Node2&#45;&gt;Node4 -->
<g id="edge3_Node000002_Node000004" class="edge">
<title>Node2&#45;&gt;Node4</title>
<g id="a_edge3_Node000002_Node000004"><a xlink:title=" ">
<path fill="none" stroke="#63b8ff" d="M144.57,-74.6C155.83,-61.99 169.64,-46.53 179.45,-35.54"/>
<polygon fill="#63b8ff" stroke="#63b8ff" points="141.65,-72.6 137.6,-82.39 146.87,-77.27 141.65,-72.6"/>
</a>
</g>
</g>
<!-- Node5&#45;&gt;Node2 -->
<g id="edge9_Node000005_Node000002" class="edge">
<title>Node5&#45;&gt;Node2</title>
<g id="a_edge9_Node000005_Node000002"><a xlink:title=" ">
<path fill="none" stroke="#63b8ff" d="M239.46,-219.19C226.79,-209.08 211.66,-196.39 199,-184 175.01,-160.52 150.05,-130.26 136.12,-112.75"/>
<polygon fill="#63b8ff" stroke="#63b8ff" points="237.36,-222 247.39,-225.44 241.7,-216.5 237.36,-222"/>
</a>
</g>
</g>
<!-- Node6 -->
<g id="Node000006" class="node">
<title>Node6</title>
<g id="a_Node000006"><a xlink:href="i__input_8h.html" target="_top" xlink:title=" ">
<polygon fill="white" stroke="#666666" points="324,-184 208,-184 208,-154 324,-154 324,-184"/>
<text text-anchor="start" x="216" y="-172" font-family="Helvetica,sans-Serif" font-size="10.00">include/engine/input</text>
<text text-anchor="middle" x="266" y="-161" font-family="Helvetica,sans-Serif" font-size="10.00">/i_input.h</text>
</a>
</g>
</g>
<!-- Node5&#45;&gt;Node6 -->
<g id="edge5_Node000005_Node000006" class="edge">
<title>Node5&#45;&gt;Node6</title>
<g id="a_edge5_Node000005_Node000006"><a xlink:title=" ">
<path fill="none" stroke="#63b8ff" d="M266,-215.25C266,-204.81 266,-192.99 266,-184.04"/>
<polygon fill="#63b8ff" stroke="#63b8ff" points="262.5,-215.44 266,-225.44 269.5,-215.44 262.5,-215.44"/>
</a>
</g>
</g>
<!-- Node6&#45;&gt;Node2 -->
<g id="edge6_Node000006_Node000002" class="edge">
<title>Node6&#45;&gt;Node2</title>
<g id="a_edge6_Node000006_Node000002"><a xlink:title=" ">
<path fill="none" stroke="#63b8ff" d="M228.46,-149.5C204.93,-137.9 175.08,-123.18 153.49,-112.54"/>
<polygon fill="#63b8ff" stroke="#63b8ff" points="226.95,-152.65 237.47,-153.94 230.04,-146.38 226.95,-152.65"/>
</a>
</g>
</g>
<!-- Node7 -->
<g id="Node000007" class="node">
<title>Node7</title>
<g id="a_Node000007"><a xlink:href="sdl__input__strategy_8h.html" target="_top" xlink:title=" ">
<polygon fill="white" stroke="#666666" points="362.5,-112.5 201.5,-112.5 201.5,-82.5 362.5,-82.5 362.5,-112.5"/>
<text text-anchor="start" x="209.5" y="-100.5" font-family="Helvetica,sans-Serif" font-size="10.00">include/engine/input</text>
<text text-anchor="middle" x="282" y="-89.5" font-family="Helvetica,sans-Serif" font-size="10.00">/strategy/sdl_input_strategy.h</text>
</a>
</g>
</g>
<!-- Node6&#45;&gt;Node7 -->
<g id="edge7_Node000006_Node000007" class="edge">
<title>Node6&#45;&gt;Node7</title>
<g id="a_edge7_Node000006_Node000007"><a xlink:title=" ">
<path fill="none" stroke="#63b8ff" d="M271.51,-144.08C273.93,-133.56 276.69,-121.58 278.77,-112.54"/>
<polygon fill="#63b8ff" stroke="#63b8ff" points="268.07,-143.41 269.24,-153.94 274.89,-144.98 268.07,-143.41"/>
</a>
</g>
</g>
<!-- Node7&#45;&gt;Node7 -->
<g id="edge8_Node000007_Node000007" class="edge">
<title>Node7&#45;&gt;Node7</title>
<g id="a_edge8_Node000007_Node000007"><a xlink:title=" ">
<path fill="none" stroke="#63b8ff" d="M372.71,-106.22C377.6,-104.08 380.5,-101.18 380.5,-97.5 380.5,-91.76 373.43,-87.9 362.77,-85.93"/>
<polygon fill="#63b8ff" stroke="#63b8ff" points="371.41,-102.95 362.77,-109.07 373.35,-109.67 371.41,-102.95"/>
</a>
</g>
</g>
<!-- Node9 -->
<g id="Node000009" class="node">
<title>Node9</title>
<g id="a_Node000009"><a xlink:href="physics__service_8h.html" target="_top" xlink:title=" ">
<polygon fill="white" stroke="#666666" points="738,-112.5 610,-112.5 610,-82.5 738,-82.5 738,-112.5"/>
<text text-anchor="start" x="618" y="-100.5" font-family="Helvetica,sans-Serif" font-size="10.00">include/engine/physics</text>
<text text-anchor="middle" x="674" y="-89.5" font-family="Helvetica,sans-Serif" font-size="10.00">/physics_service.h</text>
</a>
</g>
</g>
<!-- Node8&#45;&gt;Node9 -->
<g id="edge11_Node000008_Node000009" class="edge">
<title>Node8&#45;&gt;Node9</title>
<g id="a_edge11_Node000008_Node000009"><a xlink:title=" ">
<path fill="none" stroke="#63b8ff" d="M793.21,-213.4C782.15,-204.32 769.86,-193.92 759,-184 732.57,-159.86 703.52,-129.82 687.15,-112.54"/>
<polygon fill="#63b8ff" stroke="#63b8ff" points="791.05,-216.15 801.01,-219.76 795.47,-210.73 791.05,-216.15"/>
</a>
</g>
</g>
<!-- Node8&#45;&gt;Node10 -->
<g id="edge12_Node000008_Node000010" class="edge">
<title>Node8&#45;&gt;Node10</title>
<g id="a_edge12_Node000008_Node000010"><a xlink:title=" ">
<path fill="none" stroke="#63b8ff" d="M766.12,-216.25C738.6,-205.56 706.86,-193.24 683.07,-184"/>
<polygon fill="#63b8ff" stroke="#63b8ff" points="765.07,-219.6 775.66,-219.96 767.61,-213.07 765.07,-219.6"/>
</a>
</g>
</g>
<!-- Node14 -->
<g id="Node000014" class="node">
<title>Node14</title>
<g id="a_Node000014"><a xlink:href="rigidbody__2d_8h.html" target="_top" xlink:title=" ">
<polygon fill="white" stroke="#666666" points="922.5,-184 767.5,-184 767.5,-154 922.5,-154 922.5,-184"/>
<text text-anchor="start" x="775.5" y="-172" font-family="Helvetica,sans-Serif" font-size="10.00">include/engine/public</text>
<text text-anchor="middle" x="845" y="-161" font-family="Helvetica,sans-Serif" font-size="10.00">/components/rigidbody_2d.h</text>
</a>
</g>
</g>
<!-- Node8&#45;&gt;Node14 -->
<g id="edge17_Node000008_Node000014" class="edge">
<title>Node8&#45;&gt;Node14</title>
<g id="a_edge17_Node000008_Node000014"><a xlink:title=" ">
<path fill="none" stroke="#63b8ff" d="M834.08,-209.95C836.54,-200.96 839.12,-191.5 841.16,-184.04"/>
<polygon fill="#63b8ff" stroke="#63b8ff" points="830.65,-209.2 831.39,-219.77 837.41,-211.05 830.65,-209.2"/>
</a>
</g>
</g>
<!-- Node10&#45;&gt;Node9 -->
<g id="edge13_Node000010_Node000009" class="edge">
<title>Node10&#45;&gt;Node9</title>
<g id="a_edge13_Node000010_Node000009"><a xlink:title=" ">
<path fill="none" stroke="#63b8ff" d="M656.17,-144.4C660.28,-133.81 665,-121.68 668.54,-112.54"/>
<polygon fill="#63b8ff" stroke="#63b8ff" points="652.82,-143.35 652.46,-153.94 659.35,-145.88 652.82,-143.35"/>
</a>
</g>
</g>
<!-- Node10&#45;&gt;Node11 -->
<g id="edge14_Node000010_Node000011" class="edge">
<title>Node10&#45;&gt;Node11</title>
<g id="a_edge14_Node000010_Node000011"><a xlink:title=" ">
<path fill="none" stroke="#63b8ff" d="M713.03,-151.43C758.12,-140.12 817.49,-125.22 861.75,-114.12"/>
<polygon fill="#63b8ff" stroke="#63b8ff" points="711.9,-148.11 703.06,-153.94 713.61,-154.9 711.9,-148.11"/>
</a>
</g>
</g>
<!-- Node11&#45;&gt;Node12 -->
<g id="edge15_Node000011_Node000012" class="edge">
<title>Node11&#45;&gt;Node12</title>
<g id="a_edge15_Node000011_Node000012"><a xlink:title=" ">
<path fill="none" stroke="#63b8ff" d="M852,-78.32C802.23,-65.75 736.68,-49.2 689.18,-37.2"/>
<polygon fill="#63b8ff" stroke="#63b8ff" points="851.19,-81.72 861.74,-80.78 852.9,-74.94 851.19,-81.72"/>
</a>
</g>
</g>
<!-- Node11&#45;&gt;Node13 -->
<g id="edge16_Node000011_Node000013" class="edge">
<title>Node11&#45;&gt;Node13</title>
<g id="a_edge16_Node000011_Node000013"><a xlink:title=" ">
<path fill="none" stroke="#63b8ff" d="M974.38,-72.59C995.82,-62.41 1020.51,-50.69 1040.83,-41.04"/>
<polygon fill="#63b8ff" stroke="#63b8ff" points="972.63,-69.54 965.1,-76.99 975.63,-75.86 972.63,-69.54"/>
</a>
</g>
</g>
<!-- Node14&#45;&gt;Node11 -->
<g id="edge18_Node000014_Node000011" class="edge">
<title>Node14&#45;&gt;Node11</title>
<g id="a_edge18_Node000014_Node000011"><a xlink:title=" ">
<path fill="none" stroke="#63b8ff" d="M868.61,-147.23C879.11,-137.99 891.41,-127.17 901.75,-118.07"/>
<polygon fill="#63b8ff" stroke="#63b8ff" points="866.18,-144.7 860.99,-153.94 870.81,-149.96 866.18,-144.7"/>
</a>
</g>
</g>
<!-- Node15&#45;&gt;Node9 -->
<g id="edge20_Node000015_Node000009" class="edge">
<title>Node15&#45;&gt;Node9</title>
<g id="a_edge20_Node000015_Node000009"><a xlink:title=" ">
<path fill="none" stroke="#63b8ff" d="M545.53,-150.11C574.63,-138.42 612.09,-123.37 639.04,-112.54"/>
<polygon fill="#63b8ff" stroke="#63b8ff" points="543.98,-146.96 536.01,-153.94 546.59,-153.46 543.98,-146.96"/>
</a>
</g>
</g>
<!-- Node16&#45;&gt;Node17 -->
<g id="edge22_Node000016_Node000017" class="edge">
<title>Node16&#45;&gt;Node17</title>
<g id="a_edge22_Node000016_Node000017"><a xlink:title=" ">
<path fill="none" stroke="#63b8ff" d="M1018,-209.66C1018,-200.76 1018,-191.42 1018,-184.04"/>
<polygon fill="#63b8ff" stroke="#63b8ff" points="1014.5,-209.77 1018,-219.77 1021.5,-209.77 1014.5,-209.77"/>
</a>
</g>
</g>
<!-- Node17&#45;&gt;Node9 -->
<g id="edge23_Node000017_Node000009" class="edge">
<title>Node17&#45;&gt;Node9</title>
<g id="a_edge23_Node000017_Node000009"><a xlink:title=" ">
<path fill="none" stroke="#63b8ff" d="M938.44,-151.93C877.65,-139.64 794.92,-122.93 738.28,-111.49"/>
<polygon fill="#63b8ff" stroke="#63b8ff" points="937.89,-155.39 948.39,-153.94 939.28,-148.52 937.89,-155.39"/>
</a>
</g>
</g>
<!-- Node17&#45;&gt;Node11 -->
<g id="edge24_Node000017_Node000011" class="edge">
<title>Node17&#45;&gt;Node11</title>
<g id="a_edge24_Node000017_Node000011"><a xlink:title=" ">
<path fill="none" stroke="#63b8ff" d="M990.65,-147.77C977.99,-138.42 963.02,-127.35 950.47,-118.07"/>
<polygon fill="#63b8ff" stroke="#63b8ff" points="988.86,-150.8 998.98,-153.94 993.02,-145.18 988.86,-150.8"/>
</a>
</g>
</g>
<!-- Node18&#45;&gt;Node10 -->
<g id="edge27_Node000018_Node000010" class="edge">
<title>Node18&#45;&gt;Node10</title>
<g id="a_edge27_Node000018_Node000010"><a xlink:title=" ">
<path fill="none" stroke="#63b8ff" d="M648.3,-215.25C648,-204.81 647.66,-192.99 647.4,-184.04"/>
<polygon fill="#63b8ff" stroke="#63b8ff" points="644.81,-215.54 648.6,-225.44 651.81,-215.34 644.81,-215.54"/>
</a>
</g>
</g>
</g>
</svg>
