<?xml version="1.0" encoding="UTF-8" standalone="no"?>
<!DOCTYPE svg PUBLIC "-//W3C//DTD SVG 1.1//EN"
 "http://www.w3.org/Graphics/SVG/1.1/DTD/svg11.dtd">
<!-- Generated by graphviz version 2.43.0 (0)
 -->
<!-- Title: include/engine/core/rendering/renderingService.h Pages: 1 -->
<svg width="943pt" height="291pt"
 viewBox="0.00 0.00 943.29 291.00" xmlns="http://www.w3.org/2000/svg" xmlns:xlink="http://www.w3.org/1999/xlink">
<g id="graph0" class="graph" transform="scale(1 1) rotate(0) translate(4 287)">
<title>include/engine/core/rendering/renderingService.h</title>
<!-- Node1 -->
<g id="Node000001" class="node">
<title>Node1</title>
<g id="a_Node000001"><a xlink:title=" ">
<polygon fill="#999999" stroke="#666666" points="527.29,-283 366.29,-283 366.29,-253 527.29,-253 527.29,-283"/>
<text text-anchor="start" x="374.29" y="-271" font-family="Helvetica,sans-Serif" font-size="10.00">include/engine/core</text>
<text text-anchor="middle" x="446.79" y="-260" font-family="Helvetica,sans-Serif" font-size="10.00">/rendering/renderingService.h</text>
</a>
</g>
</g>
<!-- Node2 -->
<g id="Node000002" class="node">
<title>Node2</title>
<g id="a_Node000002"><a xlink:title=" ">
<polygon fill="#e0e0e0" stroke="#999999" points="254.29,-24.5 207.29,-24.5 207.29,-5.5 254.29,-5.5 254.29,-24.5"/>
<text text-anchor="middle" x="230.79" y="-12.5" font-family="Helvetica,sans-Serif" font-size="10.00">vector</text>
</a>
</g>
</g>
<!-- Node1&#45;&gt;Node2 -->
<g id="edge1_Node000001_Node000002" class="edge">
<title>Node1&#45;&gt;Node2</title>
<g id="a_edge1_Node000001_Node000002"><a xlink:title=" ">
<path fill="none" stroke="#63b8ff" d="M365.95,-260.64C261.24,-247.53 82.8,-207.43 3.79,-85 -0.79,-77.9 -1.5,-72.58 3.79,-66 27.65,-36.31 139.73,-23.22 196.97,-18.39"/>
<polygon fill="#63b8ff" stroke="#63b8ff" points="197.3,-21.88 206.98,-17.58 196.73,-14.9 197.3,-21.88"/>
</a>
</g>
</g>
<!-- Node3 -->
<g id="Node000003" class="node">
<title>Node3</title>
<g id="a_Node000003"><a xlink:href="i_engine_service_8h.html" target="_top" xlink:title=" ">
<polygon fill="white" stroke="#666666" points="316.79,-145.5 158.79,-145.5 158.79,-126.5 316.79,-126.5 316.79,-145.5"/>
<text text-anchor="middle" x="237.79" y="-133.5" font-family="Helvetica,sans-Serif" font-size="10.00">engine/core/iEngineService.h</text>
</a>
</g>
</g>
<!-- Node1&#45;&gt;Node3 -->
<g id="edge2_Node000001_Node000003" class="edge">
<title>Node1&#45;&gt;Node3</title>
<g id="a_edge2_Node000001_Node000003"><a xlink:title=" ">
<path fill="none" stroke="#63b8ff" d="M424.03,-252.84C383.68,-227.75 300.14,-175.78 260.12,-150.89"/>
<polygon fill="#63b8ff" stroke="#63b8ff" points="261.94,-147.9 251.6,-145.59 258.24,-153.84 261.94,-147.9"/>
</a>
</g>
</g>
<!-- Node5 -->
<g id="Node000005" class="node">
<title>Node5</title>
<g id="a_Node000005"><a xlink:href="renderer_8h.html" target="_top" xlink:title=" ">
<polygon fill="white" stroke="#666666" points="578.29,-217 455.29,-217 455.29,-187 578.29,-187 578.29,-217"/>
<text text-anchor="start" x="463.29" y="-205" font-family="Helvetica,sans-Serif" font-size="10.00">engine/core/rendering</text>
<text text-anchor="middle" x="516.79" y="-194" font-family="Helvetica,sans-Serif" font-size="10.00">/renderer.h</text>
</a>
</g>
</g>
<!-- Node1&#45;&gt;Node5 -->
<g id="edge4_Node000001_Node000005" class="edge">
<title>Node1&#45;&gt;Node5</title>
<g id="a_edge4_Node000001_Node000005"><a xlink:title=" ">
<path fill="none" stroke="#63b8ff" d="M462.33,-252.8C471.57,-244.34 483.47,-233.46 493.79,-224.03"/>
<polygon fill="#63b8ff" stroke="#63b8ff" points="496.28,-226.49 501.3,-217.16 491.56,-221.33 496.28,-226.49"/>
</a>
</g>
</g>
<!-- Node19 -->
<g id="Node000019" class="node">
<title>Node19</title>
<g id="a_Node000019"><a xlink:href="window_8h.html" target="_top" xlink:title=" ">
<polygon fill="white" stroke="#666666" points="935.29,-151 812.29,-151 812.29,-121 935.29,-121 935.29,-151"/>
<text text-anchor="start" x="820.29" y="-139" font-family="Helvetica,sans-Serif" font-size="10.00">engine/core/rendering</text>
<text text-anchor="middle" x="873.79" y="-128" font-family="Helvetica,sans-Serif" font-size="10.00">/window.h</text>
</a>
</g>
</g>
<!-- Node1&#45;&gt;Node19 -->
<g id="edge27_Node000001_Node000019" class="edge">
<title>Node1&#45;&gt;Node19</title>
<g id="a_edge27_Node000001_Node000019"><a xlink:title=" ">
<path fill="none" stroke="#63b8ff" d="M492.89,-252.96C571.82,-228.93 732.55,-180 817.8,-154.05"/>
<polygon fill="#63b8ff" stroke="#63b8ff" points="819.01,-157.34 827.56,-151.08 816.97,-150.64 819.01,-157.34"/>
</a>
</g>
</g>
<!-- Node4 -->
<g id="Node000004" class="node">
<title>Node4</title>
<g id="a_Node000004"><a xlink:title=" ">
<polygon fill="#e0e0e0" stroke="#999999" points="72.79,-85 12.79,-85 12.79,-66 72.79,-66 72.79,-85"/>
<text text-anchor="middle" x="42.79" y="-73" font-family="Helvetica,sans-Serif" font-size="10.00">concepts</text>
</a>
</g>
</g>
<!-- Node3&#45;&gt;Node4 -->
<g id="edge3_Node000003_Node000004" class="edge">
<title>Node3&#45;&gt;Node4</title>
<g id="a_edge3_Node000003_Node000004"><a xlink:title=" ">
<path fill="none" stroke="#63b8ff" d="M209.44,-126.49C175.5,-116.31 118.53,-99.22 80.8,-87.9"/>
<polygon fill="#63b8ff" stroke="#63b8ff" points="81.76,-84.54 71.18,-85.02 79.75,-91.24 81.76,-84.54"/>
</a>
</g>
</g>
<!-- Node5&#45;&gt;Node3 -->
<g id="edge24_Node000005_Node000003" class="edge">
<title>Node5&#45;&gt;Node3</title>
<g id="a_edge24_Node000005_Node000003"><a xlink:title=" ">
<path fill="none" stroke="#63b8ff" d="M455.56,-186.95C404.15,-175.16 331.78,-158.56 284.83,-147.79"/>
<polygon fill="#63b8ff" stroke="#63b8ff" points="285.45,-144.34 274.92,-145.52 283.88,-151.16 285.45,-144.34"/>
</a>
</g>
</g>
<!-- Node6 -->
<g id="Node000006" class="node">
<title>Node6</title>
<g id="a_Node000006"><a xlink:title=" ">
<polygon fill="#e0e0e0" stroke="#999999" points="545.79,-24.5 487.79,-24.5 487.79,-5.5 545.79,-5.5 545.79,-24.5"/>
<text text-anchor="middle" x="516.79" y="-12.5" font-family="Helvetica,sans-Serif" font-size="10.00">memory</text>
</a>
</g>
</g>
<!-- Node5&#45;&gt;Node6 -->
<g id="edge5_Node000005_Node000006" class="edge">
<title>Node5&#45;&gt;Node6</title>
<g id="a_edge5_Node000005_Node000006"><a xlink:title=" ">
<path fill="none" stroke="#63b8ff" d="M516.79,-186.79C516.79,-153.81 516.79,-72.05 516.79,-34.9"/>
<polygon fill="#63b8ff" stroke="#63b8ff" points="520.29,-34.53 516.79,-24.53 513.29,-34.53 520.29,-34.53"/>
</a>
</g>
</g>
<!-- Node7 -->
<g id="Node000007" class="node">
<title>Node7</title>
<g id="a_Node000007"><a xlink:title=" ">
<polygon fill="#e0e0e0" stroke="#999999" points="652.79,-145.5 544.79,-145.5 544.79,-126.5 652.79,-126.5 652.79,-145.5"/>
<text text-anchor="middle" x="598.79" y="-133.5" font-family="Helvetica,sans-Serif" font-size="10.00">SDL3/SDL_render.h</text>
</a>
</g>
</g>
<!-- Node5&#45;&gt;Node7 -->
<g id="edge6_Node000005_Node000007" class="edge">
<title>Node5&#45;&gt;Node7</title>
<g id="a_edge6_Node000005_Node000007"><a xlink:title=" ">
<path fill="none" stroke="#63b8ff" d="M534.99,-186.8C548.15,-176.53 565.9,-162.67 579.34,-152.18"/>
<polygon fill="#63b8ff" stroke="#63b8ff" points="581.73,-154.76 587.46,-145.84 577.42,-149.24 581.73,-154.76"/>
</a>
</g>
</g>
<!-- Node8 -->
<g id="Node000008" class="node">
<title>Node8</title>
<g id="a_Node000008"><a xlink:href="renderer_flags_8h.html" target="_top" xlink:title=" ">
<polygon fill="white" stroke="#666666" points="794.29,-151 671.29,-151 671.29,-121 794.29,-121 794.29,-151"/>
<text text-anchor="start" x="679.29" y="-139" font-family="Helvetica,sans-Serif" font-size="10.00">engine/core/rendering</text>
<text text-anchor="middle" x="732.79" y="-128" font-family="Helvetica,sans-Serif" font-size="10.00">/rendererFlags.h</text>
</a>
</g>
</g>
<!-- Node5&#45;&gt;Node8 -->
<g id="edge7_Node000005_Node000008" class="edge">
<title>Node5&#45;&gt;Node8</title>
<g id="a_edge7_Node000005_Node000008"><a xlink:title=" ">
<path fill="none" stroke="#63b8ff" d="M564.19,-186.95C596.97,-177.24 640.76,-164.27 675.5,-153.98"/>
<polygon fill="#63b8ff" stroke="#63b8ff" points="676.9,-157.21 685.5,-151.01 674.92,-150.5 676.9,-157.21"/>
</a>
</g>
</g>
<!-- Node10 -->
<g id="Node000010" class="node">
<title>Node10</title>
<g id="a_Node000010"><a xlink:href="game_object_8h.html" target="_top" xlink:title=" ">
<polygon fill="white" stroke="#666666" points="488.29,-145.5 335.29,-145.5 335.29,-126.5 488.29,-126.5 488.29,-145.5"/>
<text text-anchor="middle" x="411.79" y="-133.5" font-family="Helvetica,sans-Serif" font-size="10.00">engine/public/gameObject.h</text>
</a>
</g>
</g>
<!-- Node5&#45;&gt;Node10 -->
<g id="edge9_Node000005_Node000010" class="edge">
<title>Node5&#45;&gt;Node10</title>
<g id="a_edge9_Node000005_Node000010"><a xlink:title=" ">
<path fill="none" stroke="#63b8ff" d="M493.75,-186.95C476.23,-176.27 452.23,-161.65 434.73,-150.98"/>
<polygon fill="#63b8ff" stroke="#63b8ff" points="436.12,-147.73 425.76,-145.52 432.48,-153.71 436.12,-147.73"/>
</a>
</g>
</g>
<!-- Node5&#45;&gt;Node19 -->
<g id="edge25_Node000005_Node000019" class="edge">
<title>Node5&#45;&gt;Node19</title>
<g id="a_edge25_Node000005_Node000019"><a xlink:title=" ">
<path fill="none" stroke="#63b8ff" d="M578.45,-190.71C634.35,-181.29 719.28,-166.7 801.91,-151.33"/>
<polygon fill="#63b8ff" stroke="#63b8ff" points="802.78,-154.73 811.97,-149.45 801.5,-147.85 802.78,-154.73"/>
</a>
</g>
</g>
<!-- Node9 -->
<g id="Node000009" class="node">
<title>Node9</title>
<g id="a_Node000009"><a xlink:title=" ">
<polygon fill="#e0e0e0" stroke="#999999" points="792.79,-85 742.79,-85 742.79,-66 792.79,-66 792.79,-85"/>
<text text-anchor="middle" x="767.79" y="-73" font-family="Helvetica,sans-Serif" font-size="10.00">cstdint</text>
</a>
</g>
</g>
<!-- Node8&#45;&gt;Node9 -->
<g id="edge8_Node000008_Node000009" class="edge">
<title>Node8&#45;&gt;Node9</title>
<g id="a_edge8_Node000008_Node000009"><a xlink:title=" ">
<path fill="none" stroke="#63b8ff" d="M741.26,-120.84C746.08,-112.78 752.16,-102.62 757.29,-94.06"/>
<polygon fill="#63b8ff" stroke="#63b8ff" points="760.41,-95.64 762.55,-85.27 754.41,-92.05 760.41,-95.64"/>
</a>
</g>
</g>
<!-- Node10&#45;&gt;Node2 -->
<g id="edge14_Node000010_Node000002" class="edge">
<title>Node10&#45;&gt;Node2</title>
<g id="a_edge14_Node000010_Node000002"><a xlink:title=" ">
<path fill="none" stroke="#63b8ff" d="M367.52,-126.48C325.12,-117.45 265.23,-102.15 248.79,-85 236.09,-71.75 232.06,-50.71 230.92,-35.35"/>
<polygon fill="#63b8ff" stroke="#63b8ff" points="234.4,-34.78 230.52,-24.93 227.41,-35.06 234.4,-34.78"/>
</a>
</g>
</g>
<!-- Node11 -->
<g id="Node000011" class="node">
<title>Node11</title>
<g id="a_Node000011"><a xlink:title=" ">
<polygon fill="#e0e0e0" stroke="#999999" points="488.79,-85 424.79,-85 424.79,-66 488.79,-66 488.79,-85"/>
<text text-anchor="middle" x="456.79" y="-73" font-family="Helvetica,sans-Serif" font-size="10.00">algorithm</text>
</a>
</g>
</g>
<!-- Node10&#45;&gt;Node11 -->
<g id="edge10_Node000010_Node000011" class="edge">
<title>Node10&#45;&gt;Node11</title>
<g id="a_edge10_Node000010_Node000011"><a xlink:title=" ">
<path fill="none" stroke="#63b8ff" d="M418.43,-126.37C425.08,-117.73 435.48,-104.2 443.78,-93.42"/>
<polygon fill="#63b8ff" stroke="#63b8ff" points="446.8,-95.23 450.12,-85.17 441.25,-90.96 446.8,-95.23"/>
</a>
</g>
</g>
<!-- Node12 -->
<g id="Node000012" class="node">
<title>Node12</title>
<g id="a_Node000012"><a xlink:title=" ">
<polygon fill="#e0e0e0" stroke="#999999" points="741.79,-24.5 685.79,-24.5 685.79,-5.5 741.79,-5.5 741.79,-24.5"/>
<text text-anchor="middle" x="713.79" y="-12.5" font-family="Helvetica,sans-Serif" font-size="10.00">optional</text>
</a>
</g>
</g>
<!-- Node10&#45;&gt;Node12 -->
<g id="edge11_Node000010_Node000012" class="edge">
<title>Node10&#45;&gt;Node12</title>
<g id="a_edge11_Node000010_Node000012"><a xlink:title=" ">
<path fill="none" stroke="#63b8ff" d="M483.21,-126.48C562.15,-116.43 680.29,-99.3 695.79,-85 709.56,-72.3 713.34,-50.52 714.13,-34.82"/>
<polygon fill="#63b8ff" stroke="#63b8ff" points="717.63,-34.73 714.28,-24.68 710.63,-34.63 717.63,-34.73"/>
</a>
</g>
</g>
<!-- Node13 -->
<g id="Node000013" class="node">
<title>Node13</title>
<g id="a_Node000013"><a xlink:title=" ">
<polygon fill="#e0e0e0" stroke="#999999" points="140.79,-85 90.79,-85 90.79,-66 140.79,-66 140.79,-85"/>
<text text-anchor="middle" x="115.79" y="-73" font-family="Helvetica,sans-Serif" font-size="10.00">ranges</text>
</a>
</g>
</g>
<!-- Node10&#45;&gt;Node13 -->
<g id="edge12_Node000010_Node000013" class="edge">
<title>Node10&#45;&gt;Node13</title>
<g id="a_edge12_Node000010_Node000013"><a xlink:title=" ">
<path fill="none" stroke="#63b8ff" d="M362.37,-126.43C311.73,-117.45 230.51,-102.52 151.17,-85.21"/>
<polygon fill="#63b8ff" stroke="#63b8ff" points="151.52,-81.7 141,-82.97 150.02,-88.54 151.52,-81.7"/>
</a>
</g>
</g>
<!-- Node14 -->
<g id="Node000014" class="node">
<title>Node14</title>
<g id="a_Node000014"><a xlink:title=" ">
<polygon fill="#e0e0e0" stroke="#999999" points="202.79,-85 158.79,-85 158.79,-66 202.79,-66 202.79,-85"/>
<text text-anchor="middle" x="180.79" y="-73" font-family="Helvetica,sans-Serif" font-size="10.00">string</text>
</a>
</g>
</g>
<!-- Node10&#45;&gt;Node14 -->
<g id="edge13_Node000010_Node000014" class="edge">
<title>Node10&#45;&gt;Node14</title>
<g id="a_edge13_Node000010_Node000014"><a xlink:title=" ">
<path fill="none" stroke="#63b8ff" d="M378.2,-126.49C333.83,-115.26 256.24,-95.61 212.72,-84.59"/>
<polygon fill="#63b8ff" stroke="#63b8ff" points="213.5,-81.17 202.94,-82.11 211.78,-87.96 213.5,-81.17"/>
</a>
</g>
</g>
<!-- Node15 -->
<g id="Node000015" class="node">
<title>Node15</title>
<g id="a_Node000015"><a xlink:href="transform_8h.html" target="_top" xlink:title=" ">
<polygon fill="white" stroke="#666666" points="686.79,-85 544.79,-85 544.79,-66 686.79,-66 686.79,-85"/>
<text text-anchor="middle" x="615.79" y="-73" font-family="Helvetica,sans-Serif" font-size="10.00">engine/public/transform.h</text>
</a>
</g>
</g>
<!-- Node10&#45;&gt;Node15 -->
<g id="edge15_Node000010_Node000015" class="edge">
<title>Node10&#45;&gt;Node15</title>
<g id="a_edge15_Node000010_Node000015"><a xlink:title=" ">
<path fill="none" stroke="#63b8ff" d="M441.45,-126.49C477.03,-116.29 536.81,-99.15 576.27,-87.83"/>
<polygon fill="#63b8ff" stroke="#63b8ff" points="577.44,-91.14 586.09,-85.02 575.51,-84.41 577.44,-91.14"/>
</a>
</g>
</g>
<!-- Node17 -->
<g id="Node000017" class="node">
<title>Node17</title>
<g id="a_Node000017"><a xlink:href="component_8h.html" target="_top" xlink:title=" ">
<polygon fill="white" stroke="#666666" points="407.29,-85 258.29,-85 258.29,-66 407.29,-66 407.29,-85"/>
<text text-anchor="middle" x="332.79" y="-73" font-family="Helvetica,sans-Serif" font-size="10.00">engine/public/component.h</text>
</a>
</g>
</g>
<!-- Node10&#45;&gt;Node17 -->
<g id="edge19_Node000010_Node000017" class="edge">
<title>Node10&#45;&gt;Node17</title>
<g id="a_edge19_Node000010_Node000017"><a xlink:title=" ">
<path fill="none" stroke="#63b8ff" d="M400.13,-126.37C387.65,-117.12 367.61,-102.28 352.63,-91.19"/>
<polygon fill="#63b8ff" stroke="#63b8ff" points="354.61,-88.31 344.49,-85.17 350.45,-93.93 354.61,-88.31"/>
</a>
</g>
</g>
<!-- Node15&#45;&gt;Node6 -->
<g id="edge16_Node000015_Node000006" class="edge">
<title>Node15&#45;&gt;Node6</title>
<g id="a_edge16_Node000015_Node000006"><a xlink:title=" ">
<path fill="none" stroke="#63b8ff" d="M601.18,-65.87C585.1,-56.36 559.01,-40.95 540.09,-29.77"/>
<polygon fill="#63b8ff" stroke="#63b8ff" points="541.85,-26.74 531.46,-24.67 538.29,-32.77 541.85,-26.74"/>
</a>
</g>
</g>
<!-- Node15&#45;&gt;Node12 -->
<g id="edge17_Node000015_Node000012" class="edge">
<title>Node15&#45;&gt;Node12</title>
<g id="a_edge17_Node000015_Node000012"><a xlink:title=" ">
<path fill="none" stroke="#63b8ff" d="M630.25,-65.87C646.1,-56.41 671.76,-41.09 690.47,-29.92"/>
<polygon fill="#63b8ff" stroke="#63b8ff" points="692.48,-32.8 699.27,-24.67 688.89,-26.79 692.48,-32.8"/>
</a>
</g>
</g>
<!-- Node16 -->
<g id="Node000016" class="node">
<title>Node16</title>
<g id="a_Node000016"><a xlink:href="vector3_8h.html" target="_top" xlink:title=" ">
<polygon fill="white" stroke="#666666" points="666.29,-30 565.29,-30 565.29,0 666.29,0 666.29,-30"/>
<text text-anchor="start" x="573.29" y="-18" font-family="Helvetica,sans-Serif" font-size="10.00">engine/public/util</text>
<text text-anchor="middle" x="615.79" y="-7" font-family="Helvetica,sans-Serif" font-size="10.00">/vector3.h</text>
</a>
</g>
</g>
<!-- Node15&#45;&gt;Node16 -->
<g id="edge18_Node000015_Node000016" class="edge">
<title>Node15&#45;&gt;Node16</title>
<g id="a_edge18_Node000015_Node000016"><a xlink:title=" ">
<path fill="none" stroke="#63b8ff" d="M615.79,-65.87C615.79,-59.11 615.79,-49.35 615.79,-40.26"/>
<polygon fill="#63b8ff" stroke="#63b8ff" points="619.29,-40.11 615.79,-30.11 612.29,-40.11 619.29,-40.11"/>
</a>
</g>
</g>
<!-- Node17&#45;&gt;Node2 -->
<g id="edge23_Node000017_Node000002" class="edge">
<title>Node17&#45;&gt;Node2</title>
<g id="a_edge23_Node000017_Node000002"><a xlink:title=" ">
<path fill="none" stroke="#63b8ff" d="M317.74,-65.87C301.17,-56.36 274.29,-40.95 254.8,-29.77"/>
<polygon fill="#63b8ff" stroke="#63b8ff" points="256.32,-26.61 245.9,-24.67 252.84,-32.68 256.32,-26.61"/>
</a>
</g>
</g>
<!-- Node17&#45;&gt;Node6 -->
<g id="edge21_Node000017_Node000006" class="edge">
<title>Node17&#45;&gt;Node6</title>
<g id="a_edge21_Node000017_Node000006"><a xlink:title=" ">
<path fill="none" stroke="#63b8ff" d="M359.54,-65.99C391.43,-55.86 444.86,-38.87 480.47,-27.55"/>
<polygon fill="#63b8ff" stroke="#63b8ff" points="481.53,-30.88 490,-24.52 479.41,-24.21 481.53,-30.88"/>
</a>
</g>
</g>
<!-- Node17&#45;&gt;Node12 -->
<g id="edge22_Node000017_Node000012" class="edge">
<title>Node17&#45;&gt;Node12</title>
<g id="a_edge22_Node000017_Node000012"><a xlink:title=" ">
<path fill="none" stroke="#63b8ff" d="M407.64,-66.77C492.82,-57.62 626.52,-42.11 675.79,-30 678.3,-29.38 680.87,-28.66 683.44,-27.86"/>
<polygon fill="#63b8ff" stroke="#63b8ff" points="684.8,-31.09 693.15,-24.56 682.55,-24.46 684.8,-31.09"/>
</a>
</g>
</g>
<!-- Node18 -->
<g id="Node000018" class="node">
<title>Node18</title>
<g id="a_Node000018"><a xlink:title=" ">
<polygon fill="#e0e0e0" stroke="#999999" points="365.29,-24.5 300.29,-24.5 300.29,-5.5 365.29,-5.5 365.29,-24.5"/>
<text text-anchor="middle" x="332.79" y="-12.5" font-family="Helvetica,sans-Serif" font-size="10.00">functional</text>
</a>
</g>
</g>
<!-- Node17&#45;&gt;Node18 -->
<g id="edge20_Node000017_Node000018" class="edge">
<title>Node17&#45;&gt;Node18</title>
<g id="a_edge20_Node000017_Node000018"><a xlink:title=" ">
<path fill="none" stroke="#63b8ff" d="M332.79,-65.87C332.79,-57.75 332.79,-45.31 332.79,-34.89"/>
<polygon fill="#63b8ff" stroke="#63b8ff" points="336.29,-34.67 332.79,-24.67 329.29,-34.67 336.29,-34.67"/>
</a>
</g>
</g>
<!-- Node19&#45;&gt;Node12 -->
<g id="edge26_Node000019_Node000012" class="edge">
<title>Node19&#45;&gt;Node12</title>
<g id="a_edge26_Node000019_Node000012"><a xlink:title=" ">
<path fill="none" stroke="#63b8ff" d="M861.15,-120.97C847.42,-106.23 824.42,-82.86 801.79,-66 782.65,-51.74 759.04,-38.53 741.1,-29.28"/>
<polygon fill="#63b8ff" stroke="#63b8ff" points="742.28,-25.95 731.78,-24.56 739.12,-32.2 742.28,-25.95"/>
</a>
</g>
</g>
</g>
</svg>
