<?xml version="1.0" encoding="UTF-8" standalone="no"?>
<!DOCTYPE svg PUBLIC "-//W3C//DTD SVG 1.1//EN"
 "http://www.w3.org/Graphics/SVG/1.1/DTD/svg11.dtd">
<!-- Generated by graphviz version 2.43.0 (0)
 -->
<!-- Title: include/engine/core/rendering/renderingService.h Pages: 1 -->
<svg width="1201pt" height="291pt"
 viewBox="0.00 0.00 1200.85 291.00" xmlns="http://www.w3.org/2000/svg" xmlns:xlink="http://www.w3.org/1999/xlink">
<g id="graph0" class="graph" transform="scale(1 1) rotate(0) translate(4 287)">
<title>include/engine/core/rendering/renderingService.h</title>
<!-- Node1 -->
<g id="Node000001" class="node">
<title>Node1</title>
<g id="a_Node000001"><a xlink:title=" ">
<polygon fill="#999999" stroke="#666666" points="613.35,-283 452.35,-283 452.35,-253 613.35,-253 613.35,-283"/>
<text text-anchor="start" x="460.35" y="-271" font-family="Helvetica,sans-Serif" font-size="10.00">include/engine/core</text>
<text text-anchor="middle" x="532.85" y="-260" font-family="Helvetica,sans-Serif" font-size="10.00">/rendering/renderingService.h</text>
</a>
</g>
</g>
<!-- Node2 -->
<g id="Node000002" class="node">
<title>Node2</title>
<g id="a_Node000002"><a xlink:title=" ">
<polygon fill="#e0e0e0" stroke="#999999" points="67.35,-85 20.35,-85 20.35,-66 67.35,-66 67.35,-85"/>
<text text-anchor="middle" x="43.85" y="-73" font-family="Helvetica,sans-Serif" font-size="10.00">vector</text>
</a>
</g>
</g>
<!-- Node1&#45;&gt;Node2 -->
<g id="edge1_Node000001_Node000002" class="edge">
<title>Node1&#45;&gt;Node2</title>
<g id="a_edge1_Node000001_Node000002"><a xlink:title=" ">
<path fill="none" stroke="#63b8ff" d="M508.3,-252.95C471.91,-231.87 401.81,-190.33 344.85,-151 326.85,-138.58 325.94,-129.63 305.85,-121 214.14,-81.6 179.89,-104.34 77.68,-84.92"/>
<polygon fill="#63b8ff" stroke="#63b8ff" points="78.07,-81.43 67.58,-82.9 76.7,-88.29 78.07,-81.43"/>
</a>
</g>
</g>
<!-- Node3 -->
<g id="Node000003" class="node">
<title>Node3</title>
<g id="a_Node000003"><a xlink:href="i_engine_service_8h.html" target="_top" xlink:title=" ">
<polygon fill="white" stroke="#666666" points="1192.85,-145.5 1034.85,-145.5 1034.85,-126.5 1192.85,-126.5 1192.85,-145.5"/>
<text text-anchor="middle" x="1113.85" y="-133.5" font-family="Helvetica,sans-Serif" font-size="10.00">engine/core/iEngineService.h</text>
</a>
</g>
</g>
<!-- Node1&#45;&gt;Node3 -->
<g id="edge2_Node000001_Node000003" class="edge">
<title>Node1&#45;&gt;Node3</title>
<g id="a_edge2_Node000001_Node000003"><a xlink:title=" ">
<path fill="none" stroke="#63b8ff" d="M613.63,-258.3C680.64,-250.23 778.15,-236.52 861.85,-217 942.18,-198.26 1033.92,-166.41 1081.45,-149.09"/>
<polygon fill="#63b8ff" stroke="#63b8ff" points="1082.72,-152.35 1090.91,-145.62 1080.31,-145.78 1082.72,-152.35"/>
</a>
</g>
</g>
<!-- Node5 -->
<g id="Node000005" class="node">
<title>Node5</title>
<g id="a_Node000005"><a xlink:href="renderer_8h.html" target="_top" xlink:title=" ">
<polygon fill="white" stroke="#666666" points="852.35,-217 729.35,-217 729.35,-187 852.35,-187 852.35,-217"/>
<text text-anchor="start" x="737.35" y="-205" font-family="Helvetica,sans-Serif" font-size="10.00">engine/core/rendering</text>
<text text-anchor="middle" x="790.85" y="-194" font-family="Helvetica,sans-Serif" font-size="10.00">/renderer.h</text>
</a>
</g>
</g>
<!-- Node1&#45;&gt;Node5 -->
<g id="edge4_Node000001_Node000005" class="edge">
<title>Node1&#45;&gt;Node5</title>
<g id="a_edge4_Node000001_Node000005"><a xlink:title=" ">
<path fill="none" stroke="#63b8ff" d="M589.47,-252.95C629.29,-243.08 682.72,-229.82 724.54,-219.45"/>
<polygon fill="#63b8ff" stroke="#63b8ff" points="725.5,-222.82 734.36,-217.01 723.81,-216.02 725.5,-222.82"/>
</a>
</g>
</g>
<!-- Node19 -->
<g id="Node000019" class="node">
<title>Node19</title>
<g id="a_Node000019"><a xlink:href="window_8h.html" target="_top" xlink:title=" ">
<polygon fill="white" stroke="#666666" points="297.35,-151 174.35,-151 174.35,-121 297.35,-121 297.35,-151"/>
<text text-anchor="start" x="182.35" y="-139" font-family="Helvetica,sans-Serif" font-size="10.00">engine/core/rendering</text>
<text text-anchor="middle" x="235.85" y="-128" font-family="Helvetica,sans-Serif" font-size="10.00">/window.h</text>
</a>
</g>
</g>
<!-- Node1&#45;&gt;Node19 -->
<g id="edge26_Node000001_Node000019" class="edge">
<title>Node1&#45;&gt;Node19</title>
<g id="a_edge26_Node000001_Node000019"><a xlink:title=" ">
<path fill="none" stroke="#63b8ff" d="M452.31,-260.24C408.5,-253.83 354.68,-241.34 311.85,-217 286.94,-202.85 265.2,-177.93 251.42,-159.66"/>
<polygon fill="#63b8ff" stroke="#63b8ff" points="254.05,-157.31 245.32,-151.3 248.39,-161.44 254.05,-157.31"/>
</a>
</g>
</g>
<!-- Node4 -->
<g id="Node000004" class="node">
<title>Node4</title>
<g id="a_Node000004"><a xlink:title=" ">
<polygon fill="#e0e0e0" stroke="#999999" points="1143.85,-85 1083.85,-85 1083.85,-66 1143.85,-66 1143.85,-85"/>
<text text-anchor="middle" x="1113.85" y="-73" font-family="Helvetica,sans-Serif" font-size="10.00">concepts</text>
</a>
</g>
</g>
<!-- Node3&#45;&gt;Node4 -->
<g id="edge3_Node000003_Node000004" class="edge">
<title>Node3&#45;&gt;Node4</title>
<g id="a_edge3_Node000003_Node000004"><a xlink:title=" ">
<path fill="none" stroke="#63b8ff" d="M1113.85,-126.37C1113.85,-118.25 1113.85,-105.81 1113.85,-95.39"/>
<polygon fill="#63b8ff" stroke="#63b8ff" points="1117.35,-95.17 1113.85,-85.17 1110.35,-95.17 1117.35,-95.17"/>
</a>
</g>
</g>
<!-- Node5&#45;&gt;Node3 -->
<g id="edge23_Node000005_Node000003" class="edge">
<title>Node5&#45;&gt;Node3</title>
<g id="a_edge23_Node000005_Node000003"><a xlink:title=" ">
<path fill="none" stroke="#63b8ff" d="M852.36,-188.81C912.62,-176.87 1003.51,-158.86 1060.71,-147.53"/>
<polygon fill="#63b8ff" stroke="#63b8ff" points="1061.51,-150.94 1070.64,-145.56 1060.15,-144.07 1061.51,-150.94"/>
</a>
</g>
</g>
<!-- Node6 -->
<g id="Node000006" class="node">
<title>Node6</title>
<g id="a_Node000006"><a xlink:title=" ">
<polygon fill="#e0e0e0" stroke="#999999" points="603.85,-24.5 545.85,-24.5 545.85,-5.5 603.85,-5.5 603.85,-24.5"/>
<text text-anchor="middle" x="574.85" y="-12.5" font-family="Helvetica,sans-Serif" font-size="10.00">memory</text>
</a>
</g>
</g>
<!-- Node5&#45;&gt;Node6 -->
<g id="edge5_Node000005_Node000006" class="edge">
<title>Node5&#45;&gt;Node6</title>
<g id="a_edge5_Node000005_Node000006"><a xlink:title=" ">
<path fill="none" stroke="#63b8ff" d="M823.36,-186.84C837.93,-178.65 853.65,-166.79 861.85,-151 879.24,-117.47 886.57,-94.57 861.85,-66 825.41,-23.89 667.88,-43.48 613.85,-30 611.34,-29.38 608.77,-28.65 606.21,-27.87"/>
<polygon fill="#63b8ff" stroke="#63b8ff" points="607.07,-24.46 596.47,-24.63 604.86,-31.11 607.07,-24.46"/>
</a>
</g>
</g>
<!-- Node7 -->
<g id="Node000007" class="node">
<title>Node7</title>
<g id="a_Node000007"><a xlink:title=" ">
<polygon fill="#e0e0e0" stroke="#999999" points="1016.85,-145.5 908.85,-145.5 908.85,-126.5 1016.85,-126.5 1016.85,-145.5"/>
<text text-anchor="middle" x="962.85" y="-133.5" font-family="Helvetica,sans-Serif" font-size="10.00">SDL3/SDL_render.h</text>
</a>
</g>
</g>
<!-- Node5&#45;&gt;Node7 -->
<g id="edge6_Node000005_Node000007" class="edge">
<title>Node5&#45;&gt;Node7</title>
<g id="a_edge6_Node000005_Node000007"><a xlink:title=" ">
<path fill="none" stroke="#63b8ff" d="M828.59,-186.95C859.02,-175.63 901.37,-159.88 930.32,-149.1"/>
<polygon fill="#63b8ff" stroke="#63b8ff" points="931.8,-152.28 939.96,-145.52 929.36,-145.72 931.8,-152.28"/>
</a>
</g>
</g>
<!-- Node8 -->
<g id="Node000008" class="node">
<title>Node8</title>
<g id="a_Node000008"><a xlink:href="renderer_flags_8h.html" target="_top" xlink:title=" ">
<polygon fill="white" stroke="#666666" points="852.35,-151 729.35,-151 729.35,-121 852.35,-121 852.35,-151"/>
<text text-anchor="start" x="737.35" y="-139" font-family="Helvetica,sans-Serif" font-size="10.00">engine/core/rendering</text>
<text text-anchor="middle" x="790.85" y="-128" font-family="Helvetica,sans-Serif" font-size="10.00">/rendererFlags.h</text>
</a>
</g>
</g>
<!-- Node5&#45;&gt;Node8 -->
<g id="edge7_Node000005_Node000008" class="edge">
<title>Node5&#45;&gt;Node8</title>
<g id="a_edge7_Node000005_Node000008"><a xlink:title=" ">
<path fill="none" stroke="#63b8ff" d="M790.85,-186.8C790.85,-179.34 790.85,-169.99 790.85,-161.41"/>
<polygon fill="#63b8ff" stroke="#63b8ff" points="794.35,-161.16 790.85,-151.16 787.35,-161.16 794.35,-161.16"/>
</a>
</g>
</g>
<!-- Node10 -->
<g id="Node000010" class="node">
<title>Node10</title>
<g id="a_Node000010"><a xlink:href="game_object_8h.html" target="_top" xlink:title=" ">
<polygon fill="white" stroke="#666666" points="507.35,-145.5 354.35,-145.5 354.35,-126.5 507.35,-126.5 507.35,-145.5"/>
<text text-anchor="middle" x="430.85" y="-133.5" font-family="Helvetica,sans-Serif" font-size="10.00">engine/public/gameObject.h</text>
</a>
</g>
</g>
<!-- Node5&#45;&gt;Node10 -->
<g id="edge9_Node000005_Node000010" class="edge">
<title>Node5&#45;&gt;Node10</title>
<g id="a_edge9_Node000005_Node000010"><a xlink:title=" ">
<path fill="none" stroke="#63b8ff" d="M728.96,-190C661.6,-178.02 554.72,-159.02 488.91,-147.32"/>
<polygon fill="#63b8ff" stroke="#63b8ff" points="489.17,-143.81 478.71,-145.51 487.94,-150.71 489.17,-143.81"/>
</a>
</g>
</g>
<!-- Node5&#45;&gt;Node19 -->
<g id="edge24_Node000005_Node000019" class="edge">
<title>Node5&#45;&gt;Node19</title>
<g id="a_edge24_Node000005_Node000019"><a xlink:title=" ">
<path fill="none" stroke="#63b8ff" d="M729.12,-194.4C643.02,-185.12 481.96,-167.49 344.85,-151 332.86,-149.56 320.14,-147.97 307.78,-146.41"/>
<polygon fill="#63b8ff" stroke="#63b8ff" points="307.87,-142.89 297.5,-145.1 306.98,-149.83 307.87,-142.89"/>
</a>
</g>
</g>
<!-- Node9 -->
<g id="Node000009" class="node">
<title>Node9</title>
<g id="a_Node000009"><a xlink:title=" ">
<polygon fill="#e0e0e0" stroke="#999999" points="852.85,-85 802.85,-85 802.85,-66 852.85,-66 852.85,-85"/>
<text text-anchor="middle" x="827.85" y="-73" font-family="Helvetica,sans-Serif" font-size="10.00">cstdint</text>
</a>
</g>
</g>
<!-- Node8&#45;&gt;Node9 -->
<g id="edge8_Node000008_Node000009" class="edge">
<title>Node8&#45;&gt;Node9</title>
<g id="a_edge8_Node000008_Node000009"><a xlink:title=" ">
<path fill="none" stroke="#63b8ff" d="M799.8,-120.84C804.95,-112.69 811.47,-102.4 816.92,-93.78"/>
<polygon fill="#63b8ff" stroke="#63b8ff" points="819.91,-95.59 822.3,-85.27 814,-91.85 819.91,-95.59"/>
</a>
</g>
</g>
<!-- Node10&#45;&gt;Node2 -->
<g id="edge14_Node000010_Node000002" class="edge">
<title>Node10&#45;&gt;Node2</title>
<g id="a_edge14_Node000010_Node000002"><a xlink:title=" ">
<path fill="none" stroke="#63b8ff" d="M376.49,-126.49C364.43,-124.64 351.71,-122.72 339.85,-121 226.29,-104.49 194.34,-107.56 77.61,-84.93"/>
<polygon fill="#63b8ff" stroke="#63b8ff" points="78.05,-81.45 67.56,-82.96 76.7,-88.32 78.05,-81.45"/>
</a>
</g>
</g>
<!-- Node11 -->
<g id="Node000011" class="node">
<title>Node11</title>
<g id="a_Node000011"><a xlink:title=" ">
<polygon fill="#e0e0e0" stroke="#999999" points="351.85,-85 287.85,-85 287.85,-66 351.85,-66 351.85,-85"/>
<text text-anchor="middle" x="319.85" y="-73" font-family="Helvetica,sans-Serif" font-size="10.00">algorithm</text>
</a>
</g>
</g>
<!-- Node10&#45;&gt;Node11 -->
<g id="edge10_Node000010_Node000011" class="edge">
<title>Node10&#45;&gt;Node11</title>
<g id="a_edge10_Node000010_Node000011"><a xlink:title=" ">
<path fill="none" stroke="#63b8ff" d="M414.47,-126.37C396.27,-116.78 366.65,-101.17 345.4,-89.97"/>
<polygon fill="#63b8ff" stroke="#63b8ff" points="346.77,-86.73 336.29,-85.17 343.51,-92.93 346.77,-86.73"/>
</a>
</g>
</g>
<!-- Node12 -->
<g id="Node000012" class="node">
<title>Node12</title>
<g id="a_Node000012"><a xlink:title=" ">
<polygon fill="#e0e0e0" stroke="#999999" points="481.85,-24.5 425.85,-24.5 425.85,-5.5 481.85,-5.5 481.85,-24.5"/>
<text text-anchor="middle" x="453.85" y="-12.5" font-family="Helvetica,sans-Serif" font-size="10.00">optional</text>
</a>
</g>
</g>
<!-- Node10&#45;&gt;Node12 -->
<g id="edge11_Node000010_Node000012" class="edge">
<title>Node10&#45;&gt;Node12</title>
<g id="a_edge11_Node000010_Node000012"><a xlink:title=" ">
<path fill="none" stroke="#63b8ff" d="M421.27,-126.13C408.36,-113.07 388.08,-87.81 397.85,-66 404.49,-51.16 417.95,-38.91 430.01,-30.25"/>
<polygon fill="#63b8ff" stroke="#63b8ff" points="432.08,-33.08 438.43,-24.6 428.18,-27.27 432.08,-33.08"/>
</a>
</g>
</g>
<!-- Node13 -->
<g id="Node000013" class="node">
<title>Node13</title>
<g id="a_Node000013"><a xlink:title=" ">
<polygon fill="#e0e0e0" stroke="#999999" points="784.85,-85 734.85,-85 734.85,-66 784.85,-66 784.85,-85"/>
<text text-anchor="middle" x="759.85" y="-73" font-family="Helvetica,sans-Serif" font-size="10.00">ranges</text>
</a>
</g>
</g>
<!-- Node10&#45;&gt;Node13 -->
<g id="edge12_Node000010_Node000013" class="edge">
<title>Node10&#45;&gt;Node13</title>
<g id="a_edge12_Node000010_Node000013"><a xlink:title=" ">
<path fill="none" stroke="#63b8ff" d="M489.03,-126.49C546.55,-117.78 637.27,-103.22 724.81,-85.08"/>
<polygon fill="#63b8ff" stroke="#63b8ff" points="725.57,-88.5 734.64,-83.03 724.14,-81.65 725.57,-88.5"/>
</a>
</g>
</g>
<!-- Node14 -->
<g id="Node000014" class="node">
<title>Node14</title>
<g id="a_Node000014"><a xlink:title=" ">
<polygon fill="#e0e0e0" stroke="#999999" points="129.85,-85 85.85,-85 85.85,-66 129.85,-66 129.85,-85"/>
<text text-anchor="middle" x="107.85" y="-73" font-family="Helvetica,sans-Serif" font-size="10.00">string</text>
</a>
</g>
</g>
<!-- Node10&#45;&gt;Node14 -->
<g id="edge13_Node000010_Node000014" class="edge">
<title>Node10&#45;&gt;Node14</title>
<g id="a_edge13_Node000010_Node000014"><a xlink:title=" ">
<path fill="none" stroke="#63b8ff" d="M377.28,-126.47C310.04,-115.67 197.47,-97.2 140.17,-85.08"/>
<polygon fill="#63b8ff" stroke="#63b8ff" points="140.65,-81.6 130.13,-82.89 139.16,-88.44 140.65,-81.6"/>
</a>
</g>
</g>
<!-- Node15 -->
<g id="Node000015" class="node">
<title>Node15</title>
<g id="a_Node000015"><a xlink:href="scene_8h.html" target="_top" xlink:title=" ">
<polygon fill="white" stroke="#666666" points="269.85,-85 147.85,-85 147.85,-66 269.85,-66 269.85,-85"/>
<text text-anchor="middle" x="208.85" y="-73" font-family="Helvetica,sans-Serif" font-size="10.00">engine/public/scene.h</text>
</a>
</g>
</g>
<!-- Node10&#45;&gt;Node15 -->
<g id="edge15_Node000010_Node000015" class="edge">
<title>Node10&#45;&gt;Node15</title>
<g id="a_edge15_Node000010_Node000015"><a xlink:title=" ">
<path fill="none" stroke="#63b8ff" d="M398.57,-126.49C359.6,-116.23 293.97,-98.93 251.03,-87.62"/>
<polygon fill="#63b8ff" stroke="#63b8ff" points="251.73,-84.18 241.17,-85.02 249.94,-90.95 251.73,-84.18"/>
</a>
</g>
</g>
<!-- Node16 -->
<g id="Node000016" class="node">
<title>Node16</title>
<g id="a_Node000016"><a xlink:href="transform_8h.html" target="_top" xlink:title=" ">
<polygon fill="white" stroke="#666666" points="716.85,-85 574.85,-85 574.85,-66 716.85,-66 716.85,-85"/>
<text text-anchor="middle" x="645.85" y="-73" font-family="Helvetica,sans-Serif" font-size="10.00">engine/public/transform.h</text>
</a>
</g>
</g>
<!-- Node10&#45;&gt;Node16 -->
<g id="edge16_Node000010_Node000016" class="edge">
<title>Node10&#45;&gt;Node16</title>
<g id="a_edge16_Node000010_Node000016"><a xlink:title=" ">
<path fill="none" stroke="#63b8ff" d="M462.11,-126.49C499.77,-116.25 563.14,-99 604.73,-87.69"/>
<polygon fill="#63b8ff" stroke="#63b8ff" points="605.82,-91.02 614.55,-85.02 603.98,-84.27 605.82,-91.02"/>
</a>
</g>
</g>
<!-- Node18 -->
<g id="Node000018" class="node">
<title>Node18</title>
<g id="a_Node000018"><a xlink:href="component_8h.html" target="_top" xlink:title=" ">
<polygon fill="white" stroke="#666666" points="556.35,-85 407.35,-85 407.35,-66 556.35,-66 556.35,-85"/>
<text text-anchor="middle" x="481.85" y="-73" font-family="Helvetica,sans-Serif" font-size="10.00">engine/public/component.h</text>
</a>
</g>
</g>
<!-- Node10&#45;&gt;Node18 -->
<g id="edge20_Node000010_Node000018" class="edge">
<title>Node10&#45;&gt;Node18</title>
<g id="a_edge20_Node000010_Node000018"><a xlink:title=" ">
<path fill="none" stroke="#63b8ff" d="M438.37,-126.37C446.06,-117.55 458.17,-103.66 467.66,-92.77"/>
<polygon fill="#63b8ff" stroke="#63b8ff" points="470.36,-95.01 474.29,-85.17 465.08,-90.41 470.36,-95.01"/>
</a>
</g>
</g>
<!-- Node16&#45;&gt;Node6 -->
<g id="edge17_Node000016_Node000006" class="edge">
<title>Node16&#45;&gt;Node6</title>
<g id="a_edge17_Node000016_Node000006"><a xlink:title=" ">
<path fill="none" stroke="#63b8ff" d="M635.37,-65.87C624.36,-56.8 606.81,-42.34 593.44,-31.32"/>
<polygon fill="#63b8ff" stroke="#63b8ff" points="595.31,-28.33 585.37,-24.67 590.86,-33.73 595.31,-28.33"/>
</a>
</g>
</g>
<!-- Node16&#45;&gt;Node12 -->
<g id="edge18_Node000016_Node000012" class="edge">
<title>Node16&#45;&gt;Node12</title>
<g id="a_edge18_Node000016_Node000012"><a xlink:title=" ">
<path fill="none" stroke="#63b8ff" d="M617.93,-65.99C584.65,-55.86 528.9,-38.87 491.75,-27.55"/>
<polygon fill="#63b8ff" stroke="#63b8ff" points="492.38,-24.08 481.8,-24.52 490.34,-30.78 492.38,-24.08"/>
</a>
</g>
</g>
<!-- Node17 -->
<g id="Node000017" class="node">
<title>Node17</title>
<g id="a_Node000017"><a xlink:href="vector3_8h.html" target="_top" xlink:title=" ">
<polygon fill="white" stroke="#666666" points="723.35,-30 622.35,-30 622.35,0 723.35,0 723.35,-30"/>
<text text-anchor="start" x="630.35" y="-18" font-family="Helvetica,sans-Serif" font-size="10.00">engine/public/util</text>
<text text-anchor="middle" x="672.85" y="-7" font-family="Helvetica,sans-Serif" font-size="10.00">/vector3.h</text>
</a>
</g>
</g>
<!-- Node16&#45;&gt;Node17 -->
<g id="edge19_Node000016_Node000017" class="edge">
<title>Node16&#45;&gt;Node17</title>
<g id="a_edge19_Node000016_Node000017"><a xlink:title=" ">
<path fill="none" stroke="#63b8ff" d="M649.83,-65.87C653.05,-58.89 657.75,-48.71 662.06,-39.38"/>
<polygon fill="#63b8ff" stroke="#63b8ff" points="665.32,-40.66 666.33,-30.11 658.96,-37.73 665.32,-40.66"/>
</a>
</g>
</g>
<!-- Node18&#45;&gt;Node6 -->
<g id="edge21_Node000018_Node000006" class="edge">
<title>Node18&#45;&gt;Node6</title>
<g id="a_edge21_Node000018_Node000006"><a xlink:title=" ">
<path fill="none" stroke="#63b8ff" d="M495.57,-65.87C510.54,-56.45 534.74,-41.23 552.47,-30.08"/>
<polygon fill="#63b8ff" stroke="#63b8ff" points="554.47,-32.95 561.07,-24.67 550.74,-27.03 554.47,-32.95"/>
</a>
</g>
</g>
<!-- Node18&#45;&gt;Node12 -->
<g id="edge22_Node000018_Node000012" class="edge">
<title>Node18&#45;&gt;Node12</title>
<g id="a_edge22_Node000018_Node000012"><a xlink:title=" ">
<path fill="none" stroke="#63b8ff" d="M477.71,-65.87C473.7,-57.49 467.49,-44.51 462.41,-33.89"/>
<polygon fill="#63b8ff" stroke="#63b8ff" points="465.47,-32.18 457.99,-24.67 459.15,-35.2 465.47,-32.18"/>
</a>
</g>
</g>
<!-- Node19&#45;&gt;Node12 -->
<g id="edge25_Node000019_Node000012" class="edge">
<title>Node19&#45;&gt;Node12</title>
<g id="a_edge25_Node000019_Node000012"><a xlink:title=" ">
<path fill="none" stroke="#63b8ff" d="M174.14,-134.84C91.9,-132.58 -37.95,-120.61 10.85,-66 37.62,-36.04 312.43,-21.79 415.28,-17.47"/>
<polygon fill="#63b8ff" stroke="#63b8ff" points="415.68,-20.96 425.53,-17.05 415.39,-13.96 415.68,-20.96"/>
</a>
</g>
</g>
</g>
</svg>
