<?xml version="1.0" encoding="UTF-8" standalone="no"?>
<!DOCTYPE svg PUBLIC "-//W3C//DTD SVG 1.1//EN"
 "http://www.w3.org/Graphics/SVG/1.1/DTD/svg11.dtd">
<!-- Generated by graphviz version 2.43.0 (0)
 -->
<!-- Title: include/engine/core/rendering/renderer.h Pages: 1 -->
<svg width="1119pt" height="225pt"
 viewBox="0.00 0.00 1119.00 225.00" xmlns="http://www.w3.org/2000/svg" xmlns:xlink="http://www.w3.org/1999/xlink">
<g id="graph0" class="graph" transform="scale(1 1) rotate(0) translate(4 221)">
<title>include/engine/core/rendering/renderer.h</title>
<!-- Node1 -->
<g id="Node000001" class="node">
<title>Node1</title>
<g id="a_Node000001"><a xlink:title=" ">
<polygon fill="#999999" stroke="#666666" points="697.5,-217 578.5,-217 578.5,-187 697.5,-187 697.5,-217"/>
<text text-anchor="start" x="586.5" y="-205" font-family="Helvetica,sans-Serif" font-size="10.00">include/engine/core</text>
<text text-anchor="middle" x="638" y="-194" font-family="Helvetica,sans-Serif" font-size="10.00">/rendering/renderer.h</text>
</a>
</g>
</g>
<!-- Node2 -->
<g id="Node000002" class="node">
<title>Node2</title>
<g id="a_Node000002"><a xlink:title=" ">
<polygon fill="#e0e0e0" stroke="#999999" points="58,-24.5 0,-24.5 0,-5.5 58,-5.5 58,-24.5"/>
<text text-anchor="middle" x="29" y="-12.5" font-family="Helvetica,sans-Serif" font-size="10.00">memory</text>
</a>
</g>
</g>
<!-- Node1&#45;&gt;Node2 -->
<g id="edge1_Node000001_Node000002" class="edge">
<title>Node1&#45;&gt;Node2</title>
<g id="a_edge1_Node000001_Node000002"><a xlink:title=" ">
<path fill="none" stroke="#63b8ff" d="M578.28,-196.96C500.88,-190.92 362.09,-177.3 246,-151 154.71,-130.32 109.59,-153.69 46,-85 33.58,-71.58 29.84,-50.57 28.9,-35.26"/>
<polygon fill="#63b8ff" stroke="#63b8ff" points="32.39,-34.78 28.62,-24.88 25.39,-34.97 32.39,-34.78"/>
</a>
</g>
</g>
<!-- Node3 -->
<g id="Node000003" class="node">
<title>Node3</title>
<g id="a_Node000003"><a xlink:title=" ">
<polygon fill="#e0e0e0" stroke="#999999" points="767,-145.5 659,-145.5 659,-126.5 767,-126.5 767,-145.5"/>
<text text-anchor="middle" x="713" y="-133.5" font-family="Helvetica,sans-Serif" font-size="10.00">SDL3/SDL_render.h</text>
</a>
</g>
</g>
<!-- Node1&#45;&gt;Node3 -->
<g id="edge2_Node000001_Node000003" class="edge">
<title>Node1&#45;&gt;Node3</title>
<g id="a_edge2_Node000001_Node000003"><a xlink:title=" ">
<path fill="none" stroke="#63b8ff" d="M654.64,-186.8C666.57,-176.62 682.61,-162.93 694.86,-152.48"/>
<polygon fill="#63b8ff" stroke="#63b8ff" points="697.3,-155 702.64,-145.84 692.76,-149.67 697.3,-155"/>
</a>
</g>
</g>
<!-- Node4 -->
<g id="Node000004" class="node">
<title>Node4</title>
<g id="a_Node000004"><a xlink:href="renderer_flags_8h.html" target="_top" xlink:title=" ">
<polygon fill="white" stroke="#666666" points="925.5,-151 802.5,-151 802.5,-121 925.5,-121 925.5,-151"/>
<text text-anchor="start" x="810.5" y="-139" font-family="Helvetica,sans-Serif" font-size="10.00">engine/core/rendering</text>
<text text-anchor="middle" x="864" y="-128" font-family="Helvetica,sans-Serif" font-size="10.00">/rendererFlags.h</text>
</a>
</g>
</g>
<!-- Node1&#45;&gt;Node4 -->
<g id="edge3_Node000001_Node000004" class="edge">
<title>Node1&#45;&gt;Node4</title>
<g id="a_edge3_Node000001_Node000004"><a xlink:title=" ">
<path fill="none" stroke="#63b8ff" d="M687.6,-186.95C722.04,-177.2 768.1,-164.16 804.52,-153.84"/>
<polygon fill="#63b8ff" stroke="#63b8ff" points="805.85,-157.1 814.52,-151.01 803.94,-150.37 805.85,-157.1"/>
</a>
</g>
</g>
<!-- Node6 -->
<g id="Node000006" class="node">
<title>Node6</title>
<g id="a_Node000006"><a xlink:href="game_object_8h.html" target="_top" xlink:title=" ">
<polygon fill="white" stroke="#666666" points="640.5,-145.5 487.5,-145.5 487.5,-126.5 640.5,-126.5 640.5,-145.5"/>
<text text-anchor="middle" x="564" y="-133.5" font-family="Helvetica,sans-Serif" font-size="10.00">engine/public/gameObject.h</text>
</a>
</g>
</g>
<!-- Node1&#45;&gt;Node6 -->
<g id="edge5_Node000001_Node000006" class="edge">
<title>Node1&#45;&gt;Node6</title>
<g id="a_edge5_Node000001_Node000006"><a xlink:title=" ">
<path fill="none" stroke="#63b8ff" d="M621.58,-186.8C609.81,-176.62 593.98,-162.93 581.9,-152.48"/>
<polygon fill="#63b8ff" stroke="#63b8ff" points="584.08,-149.74 574.23,-145.84 579.5,-155.03 584.08,-149.74"/>
</a>
</g>
</g>
<!-- Node18 -->
<g id="Node000018" class="node">
<title>Node18</title>
<g id="a_Node000018"><a xlink:href="i_engine_service_8h.html" target="_top" xlink:title=" ">
<polygon fill="white" stroke="#666666" points="1111,-145.5 953,-145.5 953,-126.5 1111,-126.5 1111,-145.5"/>
<text text-anchor="middle" x="1032" y="-133.5" font-family="Helvetica,sans-Serif" font-size="10.00">engine/core/iEngineService.h</text>
</a>
</g>
</g>
<!-- Node1&#45;&gt;Node18 -->
<g id="edge23_Node000001_Node000018" class="edge">
<title>Node1&#45;&gt;Node18</title>
<g id="a_edge23_Node000001_Node000018"><a xlink:title=" ">
<path fill="none" stroke="#63b8ff" d="M697.84,-191.28C771.14,-179.37 894.73,-159.3 969.3,-147.18"/>
<polygon fill="#63b8ff" stroke="#63b8ff" points="970.18,-150.59 979.49,-145.53 969.06,-143.68 970.18,-150.59"/>
</a>
</g>
</g>
<!-- Node20 -->
<g id="Node000020" class="node">
<title>Node20</title>
<g id="a_Node000020"><a xlink:href="window_8h.html" target="_top" xlink:title=" ">
<polygon fill="white" stroke="#666666" points="378.5,-151 255.5,-151 255.5,-121 378.5,-121 378.5,-151"/>
<text text-anchor="start" x="263.5" y="-139" font-family="Helvetica,sans-Serif" font-size="10.00">engine/core/rendering</text>
<text text-anchor="middle" x="317" y="-128" font-family="Helvetica,sans-Serif" font-size="10.00">/window.h</text>
</a>
</g>
</g>
<!-- Node1&#45;&gt;Node20 -->
<g id="edge25_Node000001_Node000020" class="edge">
<title>Node1&#45;&gt;Node20</title>
<g id="a_edge25_Node000001_Node000020"><a xlink:title=" ">
<path fill="none" stroke="#63b8ff" d="M578.37,-189.11C524.75,-178.42 445.87,-162.69 388.8,-151.32"/>
<polygon fill="#63b8ff" stroke="#63b8ff" points="389.26,-147.84 378.77,-149.31 387.89,-154.7 389.26,-147.84"/>
</a>
</g>
</g>
<!-- Node5 -->
<g id="Node000005" class="node">
<title>Node5</title>
<g id="a_Node000005"><a xlink:title=" ">
<polygon fill="#e0e0e0" stroke="#999999" points="993,-85 943,-85 943,-66 993,-66 993,-85"/>
<text text-anchor="middle" x="968" y="-73" font-family="Helvetica,sans-Serif" font-size="10.00">cstdint</text>
</a>
</g>
</g>
<!-- Node4&#45;&gt;Node5 -->
<g id="edge4_Node000004_Node000005" class="edge">
<title>Node4&#45;&gt;Node5</title>
<g id="a_edge4_Node000004_Node000005"><a xlink:title=" ">
<path fill="none" stroke="#63b8ff" d="M888.91,-120.99C905.49,-111.66 927.16,-99.47 943.63,-90.21"/>
<polygon fill="#63b8ff" stroke="#63b8ff" points="945.64,-93.09 952.64,-85.14 942.21,-86.99 945.64,-93.09"/>
</a>
</g>
</g>
<!-- Node7 -->
<g id="Node000007" class="node">
<title>Node7</title>
<g id="a_Node000007"><a xlink:title=" ">
<polygon fill="#e0e0e0" stroke="#999999" points="521,-85 457,-85 457,-66 521,-66 521,-85"/>
<text text-anchor="middle" x="489" y="-73" font-family="Helvetica,sans-Serif" font-size="10.00">algorithm</text>
</a>
</g>
</g>
<!-- Node6&#45;&gt;Node7 -->
<g id="edge6_Node000006_Node000007" class="edge">
<title>Node6&#45;&gt;Node7</title>
<g id="a_edge6_Node000006_Node000007"><a xlink:title=" ">
<path fill="none" stroke="#63b8ff" d="M552.93,-126.37C541.19,-117.21 522.41,-102.56 508.24,-91.51"/>
<polygon fill="#63b8ff" stroke="#63b8ff" points="510.15,-88.56 500.11,-85.17 505.84,-94.08 510.15,-88.56"/>
</a>
</g>
</g>
<!-- Node8 -->
<g id="Node000008" class="node">
<title>Node8</title>
<g id="a_Node000008"><a xlink:title=" ">
<polygon fill="#e0e0e0" stroke="#999999" points="272,-24.5 216,-24.5 216,-5.5 272,-5.5 272,-24.5"/>
<text text-anchor="middle" x="244" y="-12.5" font-family="Helvetica,sans-Serif" font-size="10.00">optional</text>
</a>
</g>
</g>
<!-- Node6&#45;&gt;Node8 -->
<g id="edge7_Node000006_Node000008" class="edge">
<title>Node6&#45;&gt;Node8</title>
<g id="a_edge7_Node000006_Node000008"><a xlink:title=" ">
<path fill="none" stroke="#63b8ff" d="M487.42,-128.99C415.15,-122 313.23,-108.34 281,-85 264.18,-72.82 254.26,-50.61 248.99,-34.68"/>
<polygon fill="#63b8ff" stroke="#63b8ff" points="252.28,-33.43 246.06,-24.85 245.57,-35.43 252.28,-33.43"/>
</a>
</g>
</g>
<!-- Node9 -->
<g id="Node000009" class="node">
<title>Node9</title>
<g id="a_Node000009"><a xlink:title=" ">
<polygon fill="#e0e0e0" stroke="#999999" points="589,-85 539,-85 539,-66 589,-66 589,-85"/>
<text text-anchor="middle" x="564" y="-73" font-family="Helvetica,sans-Serif" font-size="10.00">ranges</text>
</a>
</g>
</g>
<!-- Node6&#45;&gt;Node9 -->
<g id="edge8_Node000006_Node000009" class="edge">
<title>Node6&#45;&gt;Node9</title>
<g id="a_edge8_Node000006_Node000009"><a xlink:title=" ">
<path fill="none" stroke="#63b8ff" d="M564,-126.37C564,-118.25 564,-105.81 564,-95.39"/>
<polygon fill="#63b8ff" stroke="#63b8ff" points="567.5,-95.17 564,-85.17 560.5,-95.17 567.5,-95.17"/>
</a>
</g>
</g>
<!-- Node10 -->
<g id="Node000010" class="node">
<title>Node10</title>
<g id="a_Node000010"><a xlink:title=" ">
<polygon fill="#e0e0e0" stroke="#999999" points="662,-24.5 618,-24.5 618,-5.5 662,-5.5 662,-24.5"/>
<text text-anchor="middle" x="640" y="-12.5" font-family="Helvetica,sans-Serif" font-size="10.00">string</text>
</a>
</g>
</g>
<!-- Node6&#45;&gt;Node10 -->
<g id="edge9_Node000006_Node000010" class="edge">
<title>Node6&#45;&gt;Node10</title>
<g id="a_edge9_Node000006_Node000010"><a xlink:title=" ">
<path fill="none" stroke="#63b8ff" d="M570.15,-126.24C577.07,-116.33 588.57,-99.65 598,-85 609.23,-67.56 621.5,-47.25 629.86,-33.2"/>
<polygon fill="#63b8ff" stroke="#63b8ff" points="632.88,-34.97 634.96,-24.58 626.85,-31.4 632.88,-34.97"/>
</a>
</g>
</g>
<!-- Node11 -->
<g id="Node000011" class="node">
<title>Node11</title>
<g id="a_Node000011"><a xlink:title=" ">
<polygon fill="#e0e0e0" stroke="#999999" points="774.5,-24.5 727.5,-24.5 727.5,-5.5 774.5,-5.5 774.5,-24.5"/>
<text text-anchor="middle" x="751" y="-12.5" font-family="Helvetica,sans-Serif" font-size="10.00">vector</text>
</a>
</g>
</g>
<!-- Node6&#45;&gt;Node11 -->
<g id="edge10_Node000006_Node000011" class="edge">
<title>Node6&#45;&gt;Node11</title>
<g id="a_edge10_Node000006_Node000011"><a xlink:title=" ">
<path fill="none" stroke="#63b8ff" d="M607.89,-126.44C661.41,-115.55 745.92,-96.77 755,-85 765.97,-70.78 762.75,-49.6 758.18,-34.46"/>
<polygon fill="#63b8ff" stroke="#63b8ff" points="761.37,-33 754.79,-24.69 754.76,-35.29 761.37,-33"/>
</a>
</g>
</g>
<!-- Node12 -->
<g id="Node000012" class="node">
<title>Node12</title>
<g id="a_Node000012"><a xlink:href="scene_8h.html" target="_top" xlink:title=" ">
<polygon fill="white" stroke="#666666" points="925,-85 803,-85 803,-66 925,-66 925,-85"/>
<text text-anchor="middle" x="864" y="-73" font-family="Helvetica,sans-Serif" font-size="10.00">engine/public/scene.h</text>
</a>
</g>
</g>
<!-- Node6&#45;&gt;Node12 -->
<g id="edge11_Node000006_Node000012" class="edge">
<title>Node6&#45;&gt;Node12</title>
<g id="a_edge11_Node000006_Node000012"><a xlink:title=" ">
<path fill="none" stroke="#63b8ff" d="M607.62,-126.49C661.28,-116.03 752.35,-98.27 810.27,-86.98"/>
<polygon fill="#63b8ff" stroke="#63b8ff" points="811.18,-90.37 820.32,-85.02 809.84,-83.5 811.18,-90.37"/>
</a>
</g>
</g>
<!-- Node13 -->
<g id="Node000013" class="node">
<title>Node13</title>
<g id="a_Node000013"><a xlink:href="transform_8h.html" target="_top" xlink:title=" ">
<polygon fill="white" stroke="#666666" points="197,-85 55,-85 55,-66 197,-66 197,-85"/>
<text text-anchor="middle" x="126" y="-73" font-family="Helvetica,sans-Serif" font-size="10.00">engine/public/transform.h</text>
</a>
</g>
</g>
<!-- Node6&#45;&gt;Node13 -->
<g id="edge12_Node000006_Node000013" class="edge">
<title>Node6&#45;&gt;Node13</title>
<g id="a_edge12_Node000006_Node000013"><a xlink:title=" ">
<path fill="none" stroke="#63b8ff" d="M500.31,-126.49C420.51,-115.84 284.03,-97.61 199.78,-86.35"/>
<polygon fill="#63b8ff" stroke="#63b8ff" points="200.14,-82.87 189.77,-85.02 199.21,-89.81 200.14,-82.87"/>
</a>
</g>
</g>
<!-- Node15 -->
<g id="Node000015" class="node">
<title>Node15</title>
<g id="a_Node000015"><a xlink:href="component_8h.html" target="_top" xlink:title=" ">
<polygon fill="white" stroke="#666666" points="439.5,-85 290.5,-85 290.5,-66 439.5,-66 439.5,-85"/>
<text text-anchor="middle" x="365" y="-73" font-family="Helvetica,sans-Serif" font-size="10.00">engine/public/component.h</text>
</a>
</g>
</g>
<!-- Node6&#45;&gt;Node15 -->
<g id="edge16_Node000006_Node000015" class="edge">
<title>Node6&#45;&gt;Node15</title>
<g id="a_edge16_Node000006_Node000015"><a xlink:title=" ">
<path fill="none" stroke="#63b8ff" d="M535.06,-126.49C500.43,-116.31 442.3,-99.22 403.79,-87.9"/>
<polygon fill="#63b8ff" stroke="#63b8ff" points="404.55,-84.48 393.97,-85.02 402.58,-91.2 404.55,-84.48"/>
</a>
</g>
</g>
<!-- Node17 -->
<g id="Node000017" class="node">
<title>Node17</title>
<g id="a_Node000017"><a xlink:href="uuid_8h.html" target="_top" xlink:title=" ">
<polygon fill="white" stroke="#666666" points="746.5,-85 645.5,-85 645.5,-66 746.5,-66 746.5,-85"/>
<text text-anchor="middle" x="696" y="-73" font-family="Helvetica,sans-Serif" font-size="10.00">engine/util/uuid.h</text>
</a>
</g>
</g>
<!-- Node6&#45;&gt;Node17 -->
<g id="edge21_Node000006_Node000017" class="edge">
<title>Node6&#45;&gt;Node17</title>
<g id="a_edge21_Node000006_Node000017"><a xlink:title=" ">
<path fill="none" stroke="#63b8ff" d="M583.19,-126.49C605.39,-116.66 642.12,-100.38 667.62,-89.08"/>
<polygon fill="#63b8ff" stroke="#63b8ff" points="669.06,-92.27 676.78,-85.02 666.22,-85.87 669.06,-92.27"/>
</a>
</g>
</g>
<!-- Node13&#45;&gt;Node2 -->
<g id="edge13_Node000013_Node000002" class="edge">
<title>Node13&#45;&gt;Node2</title>
<g id="a_edge13_Node000013_Node000002"><a xlink:title=" ">
<path fill="none" stroke="#63b8ff" d="M111.69,-65.87C96,-56.41 70.6,-41.09 52.09,-29.92"/>
<polygon fill="#63b8ff" stroke="#63b8ff" points="53.74,-26.83 43.37,-24.67 50.13,-32.83 53.74,-26.83"/>
</a>
</g>
</g>
<!-- Node13&#45;&gt;Node8 -->
<g id="edge14_Node000013_Node000008" class="edge">
<title>Node13&#45;&gt;Node8</title>
<g id="a_edge14_Node000013_Node000008"><a xlink:title=" ">
<path fill="none" stroke="#63b8ff" d="M143.16,-65.99C162.73,-56.29 194.97,-40.31 217.72,-29.03"/>
<polygon fill="#63b8ff" stroke="#63b8ff" points="219.42,-32.09 226.82,-24.52 216.31,-25.82 219.42,-32.09"/>
</a>
</g>
</g>
<!-- Node14 -->
<g id="Node000014" class="node">
<title>Node14</title>
<g id="a_Node000014"><a xlink:href="vector3_8h.html" target="_top" xlink:title=" ">
<polygon fill="white" stroke="#666666" points="177.5,-30 76.5,-30 76.5,0 177.5,0 177.5,-30"/>
<text text-anchor="start" x="84.5" y="-18" font-family="Helvetica,sans-Serif" font-size="10.00">engine/public/util</text>
<text text-anchor="middle" x="127" y="-7" font-family="Helvetica,sans-Serif" font-size="10.00">/vector3.h</text>
</a>
</g>
</g>
<!-- Node13&#45;&gt;Node14 -->
<g id="edge15_Node000013_Node000014" class="edge">
<title>Node13&#45;&gt;Node14</title>
<g id="a_edge15_Node000013_Node000014"><a xlink:title=" ">
<path fill="none" stroke="#63b8ff" d="M126.15,-65.87C126.26,-59.11 126.43,-49.35 126.59,-40.26"/>
<polygon fill="#63b8ff" stroke="#63b8ff" points="130.09,-40.17 126.76,-30.11 123.09,-40.05 130.09,-40.17"/>
</a>
</g>
</g>
<!-- Node15&#45;&gt;Node2 -->
<g id="edge18_Node000015_Node000002" class="edge">
<title>Node15&#45;&gt;Node2</title>
<g id="a_edge18_Node000015_Node000002"><a xlink:title=" ">
<path fill="none" stroke="#63b8ff" d="M290.37,-67.64C229.58,-61.03 141.87,-49.17 67,-30 64.56,-29.37 62.05,-28.65 59.55,-27.86"/>
<polygon fill="#63b8ff" stroke="#63b8ff" points="60.66,-24.54 50.06,-24.63 58.4,-31.17 60.66,-24.54"/>
</a>
</g>
</g>
<!-- Node15&#45;&gt;Node8 -->
<g id="edge19_Node000015_Node000008" class="edge">
<title>Node15&#45;&gt;Node8</title>
<g id="a_edge19_Node000015_Node000008"><a xlink:title=" ">
<path fill="none" stroke="#63b8ff" d="M347.41,-65.99C327.24,-56.25 293.98,-40.16 270.64,-28.88"/>
<polygon fill="#63b8ff" stroke="#63b8ff" points="272.14,-25.72 261.62,-24.52 269.1,-32.02 272.14,-25.72"/>
</a>
</g>
</g>
<!-- Node15&#45;&gt;Node11 -->
<g id="edge20_Node000015_Node000011" class="edge">
<title>Node15&#45;&gt;Node11</title>
<g id="a_edge20_Node000015_Node000011"><a xlink:title=" ">
<path fill="none" stroke="#63b8ff" d="M427.2,-65.99C489.09,-57.4 586.72,-43.5 671,-30 686.24,-27.56 703.07,-24.65 717.34,-22.11"/>
<polygon fill="#63b8ff" stroke="#63b8ff" points="718,-25.55 727.23,-20.35 716.77,-18.66 718,-25.55"/>
</a>
</g>
</g>
<!-- Node16 -->
<g id="Node000016" class="node">
<title>Node16</title>
<g id="a_Node000016"><a xlink:title=" ">
<polygon fill="#e0e0e0" stroke="#999999" points="397.5,-24.5 332.5,-24.5 332.5,-5.5 397.5,-5.5 397.5,-24.5"/>
<text text-anchor="middle" x="365" y="-12.5" font-family="Helvetica,sans-Serif" font-size="10.00">functional</text>
</a>
</g>
</g>
<!-- Node15&#45;&gt;Node16 -->
<g id="edge17_Node000015_Node000016" class="edge">
<title>Node15&#45;&gt;Node16</title>
<g id="a_edge17_Node000015_Node000016"><a xlink:title=" ">
<path fill="none" stroke="#63b8ff" d="M365,-65.87C365,-57.75 365,-45.31 365,-34.89"/>
<polygon fill="#63b8ff" stroke="#63b8ff" points="368.5,-34.67 365,-24.67 361.5,-34.67 368.5,-34.67"/>
</a>
</g>
</g>
<!-- Node17&#45;&gt;Node10 -->
<g id="edge22_Node000017_Node000010" class="edge">
<title>Node17&#45;&gt;Node10</title>
<g id="a_edge22_Node000017_Node000010"><a xlink:title=" ">
<path fill="none" stroke="#63b8ff" d="M687.74,-65.87C679.22,-56.97 665.74,-42.89 655.27,-31.95"/>
<polygon fill="#63b8ff" stroke="#63b8ff" points="657.74,-29.47 648.3,-24.67 652.68,-34.31 657.74,-29.47"/>
</a>
</g>
</g>
<!-- Node19 -->
<g id="Node000019" class="node">
<title>Node19</title>
<g id="a_Node000019"><a xlink:title=" ">
<polygon fill="#e0e0e0" stroke="#999999" points="1071,-85 1011,-85 1011,-66 1071,-66 1071,-85"/>
<text text-anchor="middle" x="1041" y="-73" font-family="Helvetica,sans-Serif" font-size="10.00">concepts</text>
</a>
</g>
</g>
<!-- Node18&#45;&gt;Node19 -->
<g id="edge24_Node000018_Node000019" class="edge">
<title>Node18&#45;&gt;Node19</title>
<g id="a_edge24_Node000018_Node000019"><a xlink:title=" ">
<path fill="none" stroke="#63b8ff" d="M1033.33,-126.37C1034.59,-118.16 1036.53,-105.54 1038.15,-95.05"/>
<polygon fill="#63b8ff" stroke="#63b8ff" points="1041.61,-95.58 1039.67,-85.17 1034.69,-94.52 1041.61,-95.58"/>
</a>
</g>
</g>
<!-- Node20&#45;&gt;Node8 -->
<g id="edge26_Node000020_Node000008" class="edge">
<title>Node20&#45;&gt;Node8</title>
<g id="a_edge26_Node000020_Node000008"><a xlink:title=" ">
<path fill="none" stroke="#63b8ff" d="M287.36,-120.9C273.23,-112.54 257.57,-100.52 249,-85 240.57,-69.74 240.09,-49.59 241.26,-35.01"/>
<polygon fill="#63b8ff" stroke="#63b8ff" points="244.78,-35.04 242.43,-24.71 237.82,-34.26 244.78,-35.04"/>
</a>
</g>
</g>
</g>
</svg>
