<?xml version="1.0" encoding="UTF-8" standalone="no"?>
<!DOCTYPE svg PUBLIC "-//W3C//DTD SVG 1.1//EN"
 "http://www.w3.org/Graphics/SVG/1.1/DTD/svg11.dtd">
<!-- Generated by graphviz version 2.43.0 (0)
 -->
<!-- Title: include/engine/core/rendering/renderer.h Pages: 1 -->
<svg width="1107pt" height="225pt"
 viewBox="0.00 0.00 1107.42 225.00" xmlns="http://www.w3.org/2000/svg" xmlns:xlink="http://www.w3.org/1999/xlink">
<g id="graph0" class="graph" transform="scale(1 1) rotate(0) translate(4 221)">
<title>include/engine/core/rendering/renderer.h</title>
<!-- Node1 -->
<g id="Node000001" class="node">
<title>Node1</title>
<g id="a_Node000001"><a xlink:title=" ">
<polygon fill="#999999" stroke="#666666" points="719.92,-217 600.92,-217 600.92,-187 719.92,-187 719.92,-217"/>
<text text-anchor="start" x="608.92" y="-205" font-family="Helvetica,sans-Serif" font-size="10.00">include/engine/core</text>
<text text-anchor="middle" x="660.42" y="-194" font-family="Helvetica,sans-Serif" font-size="10.00">/rendering/renderer.h</text>
</a>
</g>
</g>
<!-- Node2 -->
<g id="Node000002" class="node">
<title>Node2</title>
<g id="a_Node000002"><a xlink:title=" ">
<polygon fill="#e0e0e0" stroke="#999999" points="118.42,-24.5 60.42,-24.5 60.42,-5.5 118.42,-5.5 118.42,-24.5"/>
<text text-anchor="middle" x="89.42" y="-12.5" font-family="Helvetica,sans-Serif" font-size="10.00">memory</text>
</a>
</g>
</g>
<!-- Node1&#45;&gt;Node2 -->
<g id="edge1_Node000001_Node000002" class="edge">
<title>Node1&#45;&gt;Node2</title>
<g id="a_edge1_Node000001_Node000002"><a xlink:title=" ">
<path fill="none" stroke="#63b8ff" d="M600.7,-199.85C453.68,-195.63 80.69,-175.98 5.42,-85 -13.68,-61.91 23.24,-40.91 54.03,-28.3"/>
<polygon fill="#63b8ff" stroke="#63b8ff" points="55.7,-31.41 63.74,-24.51 53.15,-24.89 55.7,-31.41"/>
</a>
</g>
</g>
<!-- Node3 -->
<g id="Node000003" class="node">
<title>Node3</title>
<g id="a_Node000003"><a xlink:title=" ">
<polygon fill="#e0e0e0" stroke="#999999" points="781.42,-145.5 673.42,-145.5 673.42,-126.5 781.42,-126.5 781.42,-145.5"/>
<text text-anchor="middle" x="727.42" y="-133.5" font-family="Helvetica,sans-Serif" font-size="10.00">SDL3/SDL_render.h</text>
</a>
</g>
</g>
<!-- Node1&#45;&gt;Node3 -->
<g id="edge2_Node000001_Node000003" class="edge">
<title>Node1&#45;&gt;Node3</title>
<g id="a_edge2_Node000001_Node000003"><a xlink:title=" ">
<path fill="none" stroke="#63b8ff" d="M675.29,-186.8C685.84,-176.72 700,-163.19 710.9,-152.78"/>
<polygon fill="#63b8ff" stroke="#63b8ff" points="713.35,-155.28 718.16,-145.84 708.51,-150.22 713.35,-155.28"/>
</a>
</g>
</g>
<!-- Node4 -->
<g id="Node000004" class="node">
<title>Node4</title>
<g id="a_Node000004"><a xlink:href="renderer_flags_8h.html" target="_top" xlink:title=" ">
<polygon fill="white" stroke="#666666" points="922.92,-151 799.92,-151 799.92,-121 922.92,-121 922.92,-151"/>
<text text-anchor="start" x="807.92" y="-139" font-family="Helvetica,sans-Serif" font-size="10.00">engine/core/rendering</text>
<text text-anchor="middle" x="861.42" y="-128" font-family="Helvetica,sans-Serif" font-size="10.00">/rendererFlags.h</text>
</a>
</g>
</g>
<!-- Node1&#45;&gt;Node4 -->
<g id="edge3_Node000001_Node000004" class="edge">
<title>Node1&#45;&gt;Node4</title>
<g id="a_edge3_Node000001_Node000004"><a xlink:title=" ">
<path fill="none" stroke="#63b8ff" d="M704.53,-186.95C734.9,-177.28 775.43,-164.38 807.69,-154.11"/>
<polygon fill="#63b8ff" stroke="#63b8ff" points="808.95,-157.38 817.41,-151.01 806.82,-150.71 808.95,-157.38"/>
</a>
</g>
</g>
<!-- Node6 -->
<g id="Node000006" class="node">
<title>Node6</title>
<g id="a_Node000006"><a xlink:href="game_object_8h.html" target="_top" xlink:title=" ">
<polygon fill="white" stroke="#666666" points="513.92,-145.5 360.92,-145.5 360.92,-126.5 513.92,-126.5 513.92,-145.5"/>
<text text-anchor="middle" x="437.42" y="-133.5" font-family="Helvetica,sans-Serif" font-size="10.00">engine/public/gameObject.h</text>
</a>
</g>
</g>
<!-- Node1&#45;&gt;Node6 -->
<g id="edge5_Node000001_Node000006" class="edge">
<title>Node1&#45;&gt;Node6</title>
<g id="a_edge5_Node000001_Node000006"><a xlink:title=" ">
<path fill="none" stroke="#63b8ff" d="M611.48,-186.95C571.17,-175.38 514.72,-159.18 477.16,-148.41"/>
<polygon fill="#63b8ff" stroke="#63b8ff" points="477.68,-144.91 467.1,-145.52 475.75,-151.64 477.68,-144.91"/>
</a>
</g>
</g>
<!-- Node16 -->
<g id="Node000016" class="node">
<title>Node16</title>
<g id="a_Node000016"><a xlink:href="i_engine_service_8h.html" target="_top" xlink:title=" ">
<polygon fill="white" stroke="#666666" points="1099.42,-145.5 941.42,-145.5 941.42,-126.5 1099.42,-126.5 1099.42,-145.5"/>
<text text-anchor="middle" x="1020.42" y="-133.5" font-family="Helvetica,sans-Serif" font-size="10.00">engine/core/iEngineService.h</text>
</a>
</g>
</g>
<!-- Node1&#45;&gt;Node16 -->
<g id="edge19_Node000001_Node000016" class="edge">
<title>Node1&#45;&gt;Node16</title>
<g id="a_edge19_Node000001_Node000016"><a xlink:title=" ">
<path fill="none" stroke="#63b8ff" d="M720.27,-190.36C787.59,-178.39 896.18,-159.09 962.64,-147.27"/>
<polygon fill="#63b8ff" stroke="#63b8ff" points="963.3,-150.71 972.53,-145.51 962.08,-143.82 963.3,-150.71"/>
</a>
</g>
</g>
<!-- Node18 -->
<g id="Node000018" class="node">
<title>Node18</title>
<g id="a_Node000018"><a xlink:href="window_8h.html" target="_top" xlink:title=" ">
<polygon fill="white" stroke="#666666" points="654.92,-151 531.92,-151 531.92,-121 654.92,-121 654.92,-151"/>
<text text-anchor="start" x="539.92" y="-139" font-family="Helvetica,sans-Serif" font-size="10.00">engine/core/rendering</text>
<text text-anchor="middle" x="593.42" y="-128" font-family="Helvetica,sans-Serif" font-size="10.00">/window.h</text>
</a>
</g>
</g>
<!-- Node1&#45;&gt;Node18 -->
<g id="edge21_Node000001_Node000018" class="edge">
<title>Node1&#45;&gt;Node18</title>
<g id="a_edge21_Node000001_Node000018"><a xlink:title=" ">
<path fill="none" stroke="#63b8ff" d="M645.55,-186.8C636.79,-178.43 625.54,-167.68 615.73,-158.31"/>
<polygon fill="#63b8ff" stroke="#63b8ff" points="617.9,-155.54 608.25,-151.16 613.06,-160.6 617.9,-155.54"/>
</a>
</g>
</g>
<!-- Node5 -->
<g id="Node000005" class="node">
<title>Node5</title>
<g id="a_Node000005"><a xlink:title=" ">
<polygon fill="#e0e0e0" stroke="#999999" points="886.42,-85 836.42,-85 836.42,-66 886.42,-66 886.42,-85"/>
<text text-anchor="middle" x="861.42" y="-73" font-family="Helvetica,sans-Serif" font-size="10.00">cstdint</text>
</a>
</g>
</g>
<!-- Node4&#45;&gt;Node5 -->
<g id="edge4_Node000004_Node000005" class="edge">
<title>Node4&#45;&gt;Node5</title>
<g id="a_edge4_Node000004_Node000005"><a xlink:title=" ">
<path fill="none" stroke="#63b8ff" d="M861.42,-120.84C861.42,-113.21 861.42,-103.7 861.42,-95.45"/>
<polygon fill="#63b8ff" stroke="#63b8ff" points="864.92,-95.27 861.42,-85.27 857.92,-95.27 864.92,-95.27"/>
</a>
</g>
</g>
<!-- Node7 -->
<g id="Node000007" class="node">
<title>Node7</title>
<g id="a_Node000007"><a xlink:title=" ">
<polygon fill="#e0e0e0" stroke="#999999" points="779.42,-85 715.42,-85 715.42,-66 779.42,-66 779.42,-85"/>
<text text-anchor="middle" x="747.42" y="-73" font-family="Helvetica,sans-Serif" font-size="10.00">algorithm</text>
</a>
</g>
</g>
<!-- Node6&#45;&gt;Node7 -->
<g id="edge6_Node000006_Node000007" class="edge">
<title>Node6&#45;&gt;Node7</title>
<g id="a_edge6_Node000006_Node000007"><a xlink:title=" ">
<path fill="none" stroke="#63b8ff" d="M482.5,-126.49C542.22,-115.22 646.8,-95.49 705.1,-84.49"/>
<polygon fill="#63b8ff" stroke="#63b8ff" points="705.91,-87.9 715.08,-82.6 704.61,-81.02 705.91,-87.9"/>
</a>
</g>
</g>
<!-- Node8 -->
<g id="Node000008" class="node">
<title>Node8</title>
<g id="a_Node000008"><a xlink:title=" ">
<polygon fill="#e0e0e0" stroke="#999999" points="714.42,-24.5 658.42,-24.5 658.42,-5.5 714.42,-5.5 714.42,-24.5"/>
<text text-anchor="middle" x="686.42" y="-12.5" font-family="Helvetica,sans-Serif" font-size="10.00">optional</text>
</a>
</g>
</g>
<!-- Node6&#45;&gt;Node8 -->
<g id="edge7_Node000006_Node000008" class="edge">
<title>Node6&#45;&gt;Node8</title>
<g id="a_edge7_Node000006_Node000008"><a xlink:title=" ">
<path fill="none" stroke="#63b8ff" d="M482.75,-126.45C548.08,-113.94 661.69,-91.45 668.42,-85 681.94,-72.04 685.77,-50.3 686.64,-34.68"/>
<polygon fill="#63b8ff" stroke="#63b8ff" points="690.14,-34.68 686.84,-24.61 683.14,-34.54 690.14,-34.68"/>
</a>
</g>
</g>
<!-- Node9 -->
<g id="Node000009" class="node">
<title>Node9</title>
<g id="a_Node000009"><a xlink:title=" ">
<polygon fill="#e0e0e0" stroke="#999999" points="231.42,-85 181.42,-85 181.42,-66 231.42,-66 231.42,-85"/>
<text text-anchor="middle" x="206.42" y="-73" font-family="Helvetica,sans-Serif" font-size="10.00">ranges</text>
</a>
</g>
</g>
<!-- Node6&#45;&gt;Node9 -->
<g id="edge8_Node000006_Node000009" class="edge">
<title>Node6&#45;&gt;Node9</title>
<g id="a_edge8_Node000006_Node000009"><a xlink:title=" ">
<path fill="none" stroke="#63b8ff" d="M403.83,-126.49C360.51,-115.52 285.5,-96.53 241.47,-85.38"/>
<polygon fill="#63b8ff" stroke="#63b8ff" points="242.07,-81.92 231.52,-82.85 240.35,-88.7 242.07,-81.92"/>
</a>
</g>
</g>
<!-- Node10 -->
<g id="Node000010" class="node">
<title>Node10</title>
<g id="a_Node000010"><a xlink:title=" ">
<polygon fill="#e0e0e0" stroke="#999999" points="293.42,-85 249.42,-85 249.42,-66 293.42,-66 293.42,-85"/>
<text text-anchor="middle" x="271.42" y="-73" font-family="Helvetica,sans-Serif" font-size="10.00">string</text>
</a>
</g>
</g>
<!-- Node6&#45;&gt;Node10 -->
<g id="edge9_Node000006_Node000010" class="edge">
<title>Node6&#45;&gt;Node10</title>
<g id="a_edge9_Node000006_Node000010"><a xlink:title=" ">
<path fill="none" stroke="#63b8ff" d="M413.28,-126.49C384.24,-116.26 335.37,-99.04 303.26,-87.72"/>
<polygon fill="#63b8ff" stroke="#63b8ff" points="304.06,-84.29 293.47,-84.27 301.74,-90.89 304.06,-84.29"/>
</a>
</g>
</g>
<!-- Node11 -->
<g id="Node000011" class="node">
<title>Node11</title>
<g id="a_Node000011"><a xlink:title=" ">
<polygon fill="#e0e0e0" stroke="#999999" points="358.92,-85 311.92,-85 311.92,-66 358.92,-66 358.92,-85"/>
<text text-anchor="middle" x="335.42" y="-73" font-family="Helvetica,sans-Serif" font-size="10.00">vector</text>
</a>
</g>
</g>
<!-- Node6&#45;&gt;Node11 -->
<g id="edge10_Node000006_Node000011" class="edge">
<title>Node6&#45;&gt;Node11</title>
<g id="a_edge10_Node000006_Node000011"><a xlink:title=" ">
<path fill="none" stroke="#63b8ff" d="M422.37,-126.37C405.8,-116.86 378.92,-101.45 359.43,-90.27"/>
<polygon fill="#63b8ff" stroke="#63b8ff" points="360.95,-87.11 350.53,-85.17 357.47,-93.18 360.95,-87.11"/>
</a>
</g>
</g>
<!-- Node12 -->
<g id="Node000012" class="node">
<title>Node12</title>
<g id="a_Node000012"><a xlink:href="scene_8h.html" target="_top" xlink:title=" ">
<polygon fill="white" stroke="#666666" points="499.42,-85 377.42,-85 377.42,-66 499.42,-66 499.42,-85"/>
<text text-anchor="middle" x="438.42" y="-73" font-family="Helvetica,sans-Serif" font-size="10.00">engine/public/scene.h</text>
</a>
</g>
</g>
<!-- Node6&#45;&gt;Node12 -->
<g id="edge11_Node000006_Node000012" class="edge">
<title>Node6&#45;&gt;Node12</title>
<g id="a_edge11_Node000006_Node000012"><a xlink:title=" ">
<path fill="none" stroke="#63b8ff" d="M437.57,-126.37C437.71,-118.25 437.92,-105.81 438.1,-95.39"/>
<polygon fill="#63b8ff" stroke="#63b8ff" points="441.6,-95.23 438.27,-85.17 434.6,-95.11 441.6,-95.23"/>
</a>
</g>
</g>
<!-- Node13 -->
<g id="Node000013" class="node">
<title>Node13</title>
<g id="a_Node000013"><a xlink:href="transform_8h.html" target="_top" xlink:title=" ">
<polygon fill="white" stroke="#666666" points="659.42,-85 517.42,-85 517.42,-66 659.42,-66 659.42,-85"/>
<text text-anchor="middle" x="588.42" y="-73" font-family="Helvetica,sans-Serif" font-size="10.00">engine/public/transform.h</text>
</a>
</g>
</g>
<!-- Node6&#45;&gt;Node13 -->
<g id="edge12_Node000006_Node000013" class="edge">
<title>Node6&#45;&gt;Node13</title>
<g id="a_edge12_Node000006_Node000013"><a xlink:title=" ">
<path fill="none" stroke="#63b8ff" d="M459.38,-126.49C485.1,-116.53 527.9,-99.95 557.1,-88.63"/>
<polygon fill="#63b8ff" stroke="#63b8ff" points="558.38,-91.89 566.44,-85.02 555.85,-85.37 558.38,-91.89"/>
</a>
</g>
</g>
<!-- Node15 -->
<g id="Node000015" class="node">
<title>Node15</title>
<g id="a_Node000015"><a xlink:href="component_8h.html" target="_top" xlink:title=" ">
<polygon fill="white" stroke="#666666" points="163.92,-85 14.92,-85 14.92,-66 163.92,-66 163.92,-85"/>
<text text-anchor="middle" x="89.42" y="-73" font-family="Helvetica,sans-Serif" font-size="10.00">engine/public/component.h</text>
</a>
</g>
</g>
<!-- Node6&#45;&gt;Node15 -->
<g id="edge16_Node000006_Node000015" class="edge">
<title>Node6&#45;&gt;Node15</title>
<g id="a_edge16_Node000006_Node000015"><a xlink:title=" ">
<path fill="none" stroke="#63b8ff" d="M386.82,-126.49C324.06,-115.94 217.18,-97.98 150.09,-86.7"/>
<polygon fill="#63b8ff" stroke="#63b8ff" points="150.53,-83.22 140.09,-85.02 149.37,-90.13 150.53,-83.22"/>
</a>
</g>
</g>
<!-- Node13&#45;&gt;Node2 -->
<g id="edge13_Node000013_Node000002" class="edge">
<title>Node13&#45;&gt;Node2</title>
<g id="a_edge13_Node000013_Node000002"><a xlink:title=" ">
<path fill="none" stroke="#63b8ff" d="M517.19,-66.15C410.41,-53.63 212.44,-30.42 128.58,-20.59"/>
<polygon fill="#63b8ff" stroke="#63b8ff" points="128.8,-17.09 118.46,-19.4 127.99,-24.05 128.8,-17.09"/>
</a>
</g>
</g>
<!-- Node13&#45;&gt;Node8 -->
<g id="edge14_Node000013_Node000008" class="edge">
<title>Node13&#45;&gt;Node8</title>
<g id="a_edge14_Node000013_Node000008"><a xlink:title=" ">
<path fill="none" stroke="#63b8ff" d="M602.88,-65.87C618.73,-56.41 644.39,-41.09 663.1,-29.92"/>
<polygon fill="#63b8ff" stroke="#63b8ff" points="665.11,-32.8 671.9,-24.67 661.52,-26.79 665.11,-32.8"/>
</a>
</g>
</g>
<!-- Node14 -->
<g id="Node000014" class="node">
<title>Node14</title>
<g id="a_Node000014"><a xlink:href="vector3_8h.html" target="_top" xlink:title=" ">
<polygon fill="white" stroke="#666666" points="638.92,-30 537.92,-30 537.92,0 638.92,0 638.92,-30"/>
<text text-anchor="start" x="545.92" y="-18" font-family="Helvetica,sans-Serif" font-size="10.00">engine/public/util</text>
<text text-anchor="middle" x="588.42" y="-7" font-family="Helvetica,sans-Serif" font-size="10.00">/vector3.h</text>
</a>
</g>
</g>
<!-- Node13&#45;&gt;Node14 -->
<g id="edge15_Node000013_Node000014" class="edge">
<title>Node13&#45;&gt;Node14</title>
<g id="a_edge15_Node000013_Node000014"><a xlink:title=" ">
<path fill="none" stroke="#63b8ff" d="M588.42,-65.87C588.42,-59.11 588.42,-49.35 588.42,-40.26"/>
<polygon fill="#63b8ff" stroke="#63b8ff" points="591.92,-40.11 588.42,-30.11 584.92,-40.11 591.92,-40.11"/>
</a>
</g>
</g>
<!-- Node15&#45;&gt;Node2 -->
<g id="edge17_Node000015_Node000002" class="edge">
<title>Node15&#45;&gt;Node2</title>
<g id="a_edge17_Node000015_Node000002"><a xlink:title=" ">
<path fill="none" stroke="#63b8ff" d="M89.42,-65.87C89.42,-57.75 89.42,-45.31 89.42,-34.89"/>
<polygon fill="#63b8ff" stroke="#63b8ff" points="92.92,-34.67 89.42,-24.67 85.92,-34.67 92.92,-34.67"/>
</a>
</g>
</g>
<!-- Node15&#45;&gt;Node8 -->
<g id="edge18_Node000015_Node000008" class="edge">
<title>Node15&#45;&gt;Node8</title>
<g id="a_edge18_Node000015_Node000008"><a xlink:title=" ">
<path fill="none" stroke="#63b8ff" d="M164.07,-66.76C166.89,-66.5 169.68,-66.24 172.42,-66 383.3,-47.21 440.36,-74.16 647.42,-30 650.26,-29.4 653.17,-28.63 656.06,-27.78"/>
<polygon fill="#63b8ff" stroke="#63b8ff" points="657.27,-31.07 665.67,-24.61 655.08,-24.42 657.27,-31.07"/>
</a>
</g>
</g>
<!-- Node17 -->
<g id="Node000017" class="node">
<title>Node17</title>
<g id="a_Node000017"><a xlink:title=" ">
<polygon fill="#e0e0e0" stroke="#999999" points="1050.42,-85 990.42,-85 990.42,-66 1050.42,-66 1050.42,-85"/>
<text text-anchor="middle" x="1020.42" y="-73" font-family="Helvetica,sans-Serif" font-size="10.00">concepts</text>
</a>
</g>
</g>
<!-- Node16&#45;&gt;Node17 -->
<g id="edge20_Node000016_Node000017" class="edge">
<title>Node16&#45;&gt;Node17</title>
<g id="a_edge20_Node000016_Node000017"><a xlink:title=" ">
<path fill="none" stroke="#63b8ff" d="M1020.42,-126.37C1020.42,-118.25 1020.42,-105.81 1020.42,-95.39"/>
<polygon fill="#63b8ff" stroke="#63b8ff" points="1023.92,-95.17 1020.42,-85.17 1016.92,-95.17 1023.92,-95.17"/>
</a>
</g>
</g>
<!-- Node18&#45;&gt;Node8 -->
<g id="edge22_Node000018_Node000008" class="edge">
<title>Node18&#45;&gt;Node8</title>
<g id="a_edge22_Node000018_Node000008"><a xlink:title=" ">
<path fill="none" stroke="#63b8ff" d="M655.15,-121.09C710.67,-108.28 784.18,-90.46 788.42,-85 810.02,-57.17 761.56,-36.58 724.28,-25.44"/>
<polygon fill="#63b8ff" stroke="#63b8ff" points="725.18,-22.06 714.61,-22.68 723.26,-28.79 725.18,-22.06"/>
</a>
</g>
</g>
</g>
</svg>
