<?xml version="1.0" encoding="UTF-8" standalone="no"?>
<!DOCTYPE svg PUBLIC "-//W3C//DTD SVG 1.1//EN"
 "http://www.w3.org/Graphics/SVG/1.1/DTD/svg11.dtd">
<!-- Generated by graphviz version 2.43.0 (0)
 -->
<!-- Title: include/engine/core/rendering/renderer.h Pages: 1 -->
<svg width="961pt" height="225pt"
 viewBox="0.00 0.00 961.00 225.00" xmlns="http://www.w3.org/2000/svg" xmlns:xlink="http://www.w3.org/1999/xlink">
<g id="graph0" class="graph" transform="scale(1 1) rotate(0) translate(4 221)">
<title>include/engine/core/rendering/renderer.h</title>
<!-- Node1 -->
<g id="Node000001" class="node">
<title>Node1</title>
<g id="a_Node000001"><a xlink:title=" ">
<polygon fill="#999999" stroke="#666666" points="565.5,-217 446.5,-217 446.5,-187 565.5,-187 565.5,-217"/>
<text text-anchor="start" x="454.5" y="-205" font-family="Helvetica,sans-Serif" font-size="10.00">include/engine/core</text>
<text text-anchor="middle" x="506" y="-194" font-family="Helvetica,sans-Serif" font-size="10.00">/rendering/renderer.h</text>
</a>
</g>
</g>
<!-- Node2 -->
<g id="Node000002" class="node">
<title>Node2</title>
<g id="a_Node000002"><a xlink:title=" ">
<polygon fill="#e0e0e0" stroke="#999999" points="58,-24.5 0,-24.5 0,-5.5 58,-5.5 58,-24.5"/>
<text text-anchor="middle" x="29" y="-12.5" font-family="Helvetica,sans-Serif" font-size="10.00">memory</text>
</a>
</g>
</g>
<!-- Node1&#45;&gt;Node2 -->
<g id="edge1_Node000001_Node000002" class="edge">
<title>Node1&#45;&gt;Node2</title>
<g id="a_edge1_Node000001_Node000002"><a xlink:title=" ">
<path fill="none" stroke="#63b8ff" d="M446.21,-198.15C378.1,-193.52 264.17,-181.56 171,-151 111.31,-131.42 84.68,-134.5 46,-85 34.74,-70.59 30.82,-49.74 29.52,-34.73"/>
<polygon fill="#63b8ff" stroke="#63b8ff" points="33,-34.39 28.95,-24.6 26.01,-34.78 33,-34.39"/>
</a>
</g>
</g>
<!-- Node3 -->
<g id="Node000003" class="node">
<title>Node3</title>
<g id="a_Node000003"><a xlink:title=" ">
<polygon fill="#e0e0e0" stroke="#999999" points="635,-145.5 527,-145.5 527,-126.5 635,-126.5 635,-145.5"/>
<text text-anchor="middle" x="581" y="-133.5" font-family="Helvetica,sans-Serif" font-size="10.00">SDL3/SDL_render.h</text>
</a>
</g>
</g>
<!-- Node1&#45;&gt;Node3 -->
<g id="edge2_Node000001_Node000003" class="edge">
<title>Node1&#45;&gt;Node3</title>
<g id="a_edge2_Node000001_Node000003"><a xlink:title=" ">
<path fill="none" stroke="#63b8ff" d="M522.64,-186.8C534.57,-176.62 550.61,-162.93 562.86,-152.48"/>
<polygon fill="#63b8ff" stroke="#63b8ff" points="565.3,-155 570.64,-145.84 560.76,-149.67 565.3,-155"/>
</a>
</g>
</g>
<!-- Node4 -->
<g id="Node000004" class="node">
<title>Node4</title>
<g id="a_Node000004"><a xlink:href="renderer_flags_8h.html" target="_top" xlink:title=" ">
<polygon fill="white" stroke="#666666" points="776.5,-151 653.5,-151 653.5,-121 776.5,-121 776.5,-151"/>
<text text-anchor="start" x="661.5" y="-139" font-family="Helvetica,sans-Serif" font-size="10.00">engine/core/rendering</text>
<text text-anchor="middle" x="715" y="-128" font-family="Helvetica,sans-Serif" font-size="10.00">/rendererFlags.h</text>
</a>
</g>
</g>
<!-- Node1&#45;&gt;Node4 -->
<g id="edge3_Node000001_Node000004" class="edge">
<title>Node1&#45;&gt;Node4</title>
<g id="a_edge3_Node000001_Node000004"><a xlink:title=" ">
<path fill="none" stroke="#63b8ff" d="M551.87,-186.95C583.58,-177.24 625.95,-164.27 659.56,-153.98"/>
<polygon fill="#63b8ff" stroke="#63b8ff" points="660.7,-157.29 669.24,-151.01 658.65,-150.59 660.7,-157.29"/>
</a>
</g>
</g>
<!-- Node6 -->
<g id="Node000006" class="node">
<title>Node6</title>
<g id="a_Node000006"><a xlink:href="game_object_8h.html" target="_top" xlink:title=" ">
<polygon fill="white" stroke="#666666" points="508.5,-145.5 355.5,-145.5 355.5,-126.5 508.5,-126.5 508.5,-145.5"/>
<text text-anchor="middle" x="432" y="-133.5" font-family="Helvetica,sans-Serif" font-size="10.00">engine/public/gameObject.h</text>
</a>
</g>
</g>
<!-- Node1&#45;&gt;Node6 -->
<g id="edge5_Node000001_Node000006" class="edge">
<title>Node1&#45;&gt;Node6</title>
<g id="a_edge5_Node000001_Node000006"><a xlink:title=" ">
<path fill="none" stroke="#63b8ff" d="M489.58,-186.8C477.81,-176.62 461.98,-162.93 449.9,-152.48"/>
<polygon fill="#63b8ff" stroke="#63b8ff" points="452.08,-149.74 442.23,-145.84 447.5,-155.03 452.08,-149.74"/>
</a>
</g>
</g>
<!-- Node16 -->
<g id="Node000016" class="node">
<title>Node16</title>
<g id="a_Node000016"><a xlink:href="i_engine_service_8h.html" target="_top" xlink:title=" ">
<polygon fill="white" stroke="#666666" points="953,-145.5 795,-145.5 795,-126.5 953,-126.5 953,-145.5"/>
<text text-anchor="middle" x="874" y="-133.5" font-family="Helvetica,sans-Serif" font-size="10.00">engine/core/iEngineService.h</text>
</a>
</g>
</g>
<!-- Node1&#45;&gt;Node16 -->
<g id="edge20_Node000001_Node000016" class="edge">
<title>Node1&#45;&gt;Node16</title>
<g id="a_edge20_Node000001_Node000016"><a xlink:title=" ">
<path fill="none" stroke="#63b8ff" d="M565.53,-190.65C634.13,-178.72 746.16,-159.23 814.67,-147.32"/>
<polygon fill="#63b8ff" stroke="#63b8ff" points="815.61,-150.71 824.86,-145.55 814.41,-143.81 815.61,-150.71"/>
</a>
</g>
</g>
<!-- Node18 -->
<g id="Node000018" class="node">
<title>Node18</title>
<g id="a_Node000018"><a xlink:href="window_8h.html" target="_top" xlink:title=" ">
<polygon fill="white" stroke="#666666" points="303.5,-151 180.5,-151 180.5,-121 303.5,-121 303.5,-151"/>
<text text-anchor="start" x="188.5" y="-139" font-family="Helvetica,sans-Serif" font-size="10.00">engine/core/rendering</text>
<text text-anchor="middle" x="242" y="-128" font-family="Helvetica,sans-Serif" font-size="10.00">/window.h</text>
</a>
</g>
</g>
<!-- Node1&#45;&gt;Node18 -->
<g id="edge22_Node000001_Node000018" class="edge">
<title>Node1&#45;&gt;Node18</title>
<g id="a_edge22_Node000001_Node000018"><a xlink:title=" ">
<path fill="none" stroke="#63b8ff" d="M448.06,-186.95C407.23,-177.06 352.41,-163.77 309.58,-153.38"/>
<polygon fill="#63b8ff" stroke="#63b8ff" points="310.34,-149.97 299.8,-151.01 308.69,-156.77 310.34,-149.97"/>
</a>
</g>
</g>
<!-- Node5 -->
<g id="Node000005" class="node">
<title>Node5</title>
<g id="a_Node000005"><a xlink:title=" ">
<polygon fill="#e0e0e0" stroke="#999999" points="757,-85 707,-85 707,-66 757,-66 757,-85"/>
<text text-anchor="middle" x="732" y="-73" font-family="Helvetica,sans-Serif" font-size="10.00">cstdint</text>
</a>
</g>
</g>
<!-- Node4&#45;&gt;Node5 -->
<g id="edge4_Node000004_Node000005" class="edge">
<title>Node4&#45;&gt;Node5</title>
<g id="a_edge4_Node000004_Node000005"><a xlink:title=" ">
<path fill="none" stroke="#63b8ff" d="M719.12,-120.84C721.38,-113.04 724.22,-103.27 726.66,-94.89"/>
<polygon fill="#63b8ff" stroke="#63b8ff" points="730.02,-95.85 729.45,-85.27 723.3,-93.89 730.02,-95.85"/>
</a>
</g>
</g>
<!-- Node7 -->
<g id="Node000007" class="node">
<title>Node7</title>
<g id="a_Node000007"><a xlink:title=" ">
<polygon fill="#e0e0e0" stroke="#999999" points="521,-85 457,-85 457,-66 521,-66 521,-85"/>
<text text-anchor="middle" x="489" y="-73" font-family="Helvetica,sans-Serif" font-size="10.00">algorithm</text>
</a>
</g>
</g>
<!-- Node6&#45;&gt;Node7 -->
<g id="edge6_Node000006_Node000007" class="edge">
<title>Node6&#45;&gt;Node7</title>
<g id="a_edge6_Node000006_Node000007"><a xlink:title=" ">
<path fill="none" stroke="#63b8ff" d="M440.41,-126.37C449.08,-117.47 462.8,-103.39 473.46,-92.45"/>
<polygon fill="#63b8ff" stroke="#63b8ff" points="476.08,-94.77 480.55,-85.17 471.07,-89.89 476.08,-94.77"/>
</a>
</g>
</g>
<!-- Node8 -->
<g id="Node000008" class="node">
<title>Node8</title>
<g id="a_Node000008"><a xlink:title=" ">
<polygon fill="#e0e0e0" stroke="#999999" points="272,-24.5 216,-24.5 216,-5.5 272,-5.5 272,-24.5"/>
<text text-anchor="middle" x="244" y="-12.5" font-family="Helvetica,sans-Serif" font-size="10.00">optional</text>
</a>
</g>
</g>
<!-- Node6&#45;&gt;Node8 -->
<g id="edge7_Node000006_Node000008" class="edge">
<title>Node6&#45;&gt;Node8</title>
<g id="a_edge7_Node000006_Node000008"><a xlink:title=" ">
<path fill="none" stroke="#63b8ff" d="M374.23,-126.49C343.75,-119.56 307.31,-107.13 281,-85 265.11,-71.64 255.01,-49.66 249.45,-34.1"/>
<polygon fill="#63b8ff" stroke="#63b8ff" points="252.75,-32.95 246.3,-24.54 246.1,-35.13 252.75,-32.95"/>
</a>
</g>
</g>
<!-- Node9 -->
<g id="Node000009" class="node">
<title>Node9</title>
<g id="a_Node000009"><a xlink:title=" ">
<polygon fill="#e0e0e0" stroke="#999999" points="589,-85 539,-85 539,-66 589,-66 589,-85"/>
<text text-anchor="middle" x="564" y="-73" font-family="Helvetica,sans-Serif" font-size="10.00">ranges</text>
</a>
</g>
</g>
<!-- Node6&#45;&gt;Node9 -->
<g id="edge8_Node000006_Node000009" class="edge">
<title>Node6&#45;&gt;Node9</title>
<g id="a_edge8_Node000006_Node000009"><a xlink:title=" ">
<path fill="none" stroke="#63b8ff" d="M451.19,-126.49C473.39,-116.66 510.12,-100.38 535.62,-89.08"/>
<polygon fill="#63b8ff" stroke="#63b8ff" points="537.06,-92.27 544.78,-85.02 534.22,-85.87 537.06,-92.27"/>
</a>
</g>
</g>
<!-- Node10 -->
<g id="Node000010" class="node">
<title>Node10</title>
<g id="a_Node000010"><a xlink:title=" ">
<polygon fill="#e0e0e0" stroke="#999999" points="651,-85 607,-85 607,-66 651,-66 651,-85"/>
<text text-anchor="middle" x="629" y="-73" font-family="Helvetica,sans-Serif" font-size="10.00">string</text>
</a>
</g>
</g>
<!-- Node6&#45;&gt;Node10 -->
<g id="edge9_Node000006_Node000010" class="edge">
<title>Node6&#45;&gt;Node10</title>
<g id="a_edge9_Node000006_Node000010"><a xlink:title=" ">
<path fill="none" stroke="#63b8ff" d="M460.65,-126.49C496.83,-115.75 558.94,-97.3 596.76,-86.08"/>
<polygon fill="#63b8ff" stroke="#63b8ff" points="598.15,-89.31 606.74,-83.11 596.15,-82.6 598.15,-89.31"/>
</a>
</g>
</g>
<!-- Node11 -->
<g id="Node000011" class="node">
<title>Node11</title>
<g id="a_Node000011"><a xlink:title=" ">
<polygon fill="#e0e0e0" stroke="#999999" points="582.5,-24.5 535.5,-24.5 535.5,-5.5 582.5,-5.5 582.5,-24.5"/>
<text text-anchor="middle" x="559" y="-12.5" font-family="Helvetica,sans-Serif" font-size="10.00">vector</text>
</a>
</g>
</g>
<!-- Node6&#45;&gt;Node11 -->
<g id="edge10_Node000006_Node000011" class="edge">
<title>Node6&#45;&gt;Node11</title>
<g id="a_edge10_Node000006_Node000011"><a xlink:title=" ">
<path fill="none" stroke="#63b8ff" d="M477.76,-126.48C542.66,-114.18 654.25,-92.14 660,-85 682.69,-56.79 630.38,-35.56 592.89,-24.51"/>
<polygon fill="#63b8ff" stroke="#63b8ff" points="593.35,-21.01 582.78,-21.67 591.46,-27.75 593.35,-21.01"/>
</a>
</g>
</g>
<!-- Node12 -->
<g id="Node000012" class="node">
<title>Node12</title>
<g id="a_Node000012"><a xlink:href="transform_8h.html" target="_top" xlink:title=" ">
<polygon fill="white" stroke="#666666" points="197,-85 55,-85 55,-66 197,-66 197,-85"/>
<text text-anchor="middle" x="126" y="-73" font-family="Helvetica,sans-Serif" font-size="10.00">engine/public/transform.h</text>
</a>
</g>
</g>
<!-- Node6&#45;&gt;Node12 -->
<g id="edge11_Node000006_Node000012" class="edge">
<title>Node6&#45;&gt;Node12</title>
<g id="a_edge11_Node000006_Node000012"><a xlink:title=" ">
<path fill="none" stroke="#63b8ff" d="M387.5,-126.49C332.66,-116.01 239.5,-98.2 180.44,-86.91"/>
<polygon fill="#63b8ff" stroke="#63b8ff" points="181.03,-83.46 170.55,-85.02 179.71,-90.33 181.03,-83.46"/>
</a>
</g>
</g>
<!-- Node14 -->
<g id="Node000014" class="node">
<title>Node14</title>
<g id="a_Node000014"><a xlink:href="component_8h.html" target="_top" xlink:title=" ">
<polygon fill="white" stroke="#666666" points="439.5,-85 290.5,-85 290.5,-66 439.5,-66 439.5,-85"/>
<text text-anchor="middle" x="365" y="-73" font-family="Helvetica,sans-Serif" font-size="10.00">engine/public/component.h</text>
</a>
</g>
</g>
<!-- Node6&#45;&gt;Node14 -->
<g id="edge15_Node000006_Node000014" class="edge">
<title>Node6&#45;&gt;Node14</title>
<g id="a_edge15_Node000006_Node000014"><a xlink:title=" ">
<path fill="none" stroke="#63b8ff" d="M422.11,-126.37C411.72,-117.3 395.16,-102.84 382.55,-91.82"/>
<polygon fill="#63b8ff" stroke="#63b8ff" points="384.76,-89.11 374.93,-85.17 380.16,-94.38 384.76,-89.11"/>
</a>
</g>
</g>
<!-- Node12&#45;&gt;Node2 -->
<g id="edge12_Node000012_Node000002" class="edge">
<title>Node12&#45;&gt;Node2</title>
<g id="a_edge12_Node000012_Node000002"><a xlink:title=" ">
<path fill="none" stroke="#63b8ff" d="M111.69,-65.87C96,-56.41 70.6,-41.09 52.09,-29.92"/>
<polygon fill="#63b8ff" stroke="#63b8ff" points="53.74,-26.83 43.37,-24.67 50.13,-32.83 53.74,-26.83"/>
</a>
</g>
</g>
<!-- Node12&#45;&gt;Node8 -->
<g id="edge13_Node000012_Node000008" class="edge">
<title>Node12&#45;&gt;Node8</title>
<g id="a_edge13_Node000012_Node000008"><a xlink:title=" ">
<path fill="none" stroke="#63b8ff" d="M143.16,-65.99C162.73,-56.29 194.97,-40.31 217.72,-29.03"/>
<polygon fill="#63b8ff" stroke="#63b8ff" points="219.42,-32.09 226.82,-24.52 216.31,-25.82 219.42,-32.09"/>
</a>
</g>
</g>
<!-- Node13 -->
<g id="Node000013" class="node">
<title>Node13</title>
<g id="a_Node000013"><a xlink:href="vector3_8h.html" target="_top" xlink:title=" ">
<polygon fill="white" stroke="#666666" points="177.5,-30 76.5,-30 76.5,0 177.5,0 177.5,-30"/>
<text text-anchor="start" x="84.5" y="-18" font-family="Helvetica,sans-Serif" font-size="10.00">engine/public/util</text>
<text text-anchor="middle" x="127" y="-7" font-family="Helvetica,sans-Serif" font-size="10.00">/vector3.h</text>
</a>
</g>
</g>
<!-- Node12&#45;&gt;Node13 -->
<g id="edge14_Node000012_Node000013" class="edge">
<title>Node12&#45;&gt;Node13</title>
<g id="a_edge14_Node000012_Node000013"><a xlink:title=" ">
<path fill="none" stroke="#63b8ff" d="M126.15,-65.87C126.26,-59.11 126.43,-49.35 126.59,-40.26"/>
<polygon fill="#63b8ff" stroke="#63b8ff" points="130.09,-40.17 126.76,-30.11 123.09,-40.05 130.09,-40.17"/>
</a>
</g>
</g>
<!-- Node14&#45;&gt;Node2 -->
<g id="edge17_Node000014_Node000002" class="edge">
<title>Node14&#45;&gt;Node2</title>
<g id="a_edge17_Node000014_Node000002"><a xlink:title=" ">
<path fill="none" stroke="#63b8ff" d="M290.37,-67.64C229.58,-61.03 141.87,-49.17 67,-30 64.56,-29.37 62.05,-28.65 59.55,-27.86"/>
<polygon fill="#63b8ff" stroke="#63b8ff" points="60.66,-24.54 50.06,-24.63 58.4,-31.17 60.66,-24.54"/>
</a>
</g>
</g>
<!-- Node14&#45;&gt;Node8 -->
<g id="edge18_Node000014_Node000008" class="edge">
<title>Node14&#45;&gt;Node8</title>
<g id="a_edge18_Node000014_Node000008"><a xlink:title=" ">
<path fill="none" stroke="#63b8ff" d="M347.41,-65.99C327.24,-56.25 293.98,-40.16 270.64,-28.88"/>
<polygon fill="#63b8ff" stroke="#63b8ff" points="272.14,-25.72 261.62,-24.52 269.1,-32.02 272.14,-25.72"/>
</a>
</g>
</g>
<!-- Node14&#45;&gt;Node11 -->
<g id="edge19_Node000014_Node000011" class="edge">
<title>Node14&#45;&gt;Node11</title>
<g id="a_edge19_Node000014_Node000011"><a xlink:title=" ">
<path fill="none" stroke="#63b8ff" d="M393.21,-65.99C428.27,-55.42 488.04,-37.4 525.42,-26.13"/>
<polygon fill="#63b8ff" stroke="#63b8ff" points="526.77,-29.37 535.33,-23.14 524.75,-22.67 526.77,-29.37"/>
</a>
</g>
</g>
<!-- Node15 -->
<g id="Node000015" class="node">
<title>Node15</title>
<g id="a_Node000015"><a xlink:title=" ">
<polygon fill="#e0e0e0" stroke="#999999" points="397.5,-24.5 332.5,-24.5 332.5,-5.5 397.5,-5.5 397.5,-24.5"/>
<text text-anchor="middle" x="365" y="-12.5" font-family="Helvetica,sans-Serif" font-size="10.00">functional</text>
</a>
</g>
</g>
<!-- Node14&#45;&gt;Node15 -->
<g id="edge16_Node000014_Node000015" class="edge">
<title>Node14&#45;&gt;Node15</title>
<g id="a_edge16_Node000014_Node000015"><a xlink:title=" ">
<path fill="none" stroke="#63b8ff" d="M365,-65.87C365,-57.75 365,-45.31 365,-34.89"/>
<polygon fill="#63b8ff" stroke="#63b8ff" points="368.5,-34.67 365,-24.67 361.5,-34.67 368.5,-34.67"/>
</a>
</g>
</g>
<!-- Node17 -->
<g id="Node000017" class="node">
<title>Node17</title>
<g id="a_Node000017"><a xlink:title=" ">
<polygon fill="#e0e0e0" stroke="#999999" points="904,-85 844,-85 844,-66 904,-66 904,-85"/>
<text text-anchor="middle" x="874" y="-73" font-family="Helvetica,sans-Serif" font-size="10.00">concepts</text>
</a>
</g>
</g>
<!-- Node16&#45;&gt;Node17 -->
<g id="edge21_Node000016_Node000017" class="edge">
<title>Node16&#45;&gt;Node17</title>
<g id="a_edge21_Node000016_Node000017"><a xlink:title=" ">
<path fill="none" stroke="#63b8ff" d="M874,-126.37C874,-118.25 874,-105.81 874,-95.39"/>
<polygon fill="#63b8ff" stroke="#63b8ff" points="877.5,-95.17 874,-85.17 870.5,-95.17 877.5,-95.17"/>
</a>
</g>
</g>
<!-- Node18&#45;&gt;Node8 -->
<g id="edge23_Node000018_Node000008" class="edge">
<title>Node18&#45;&gt;Node8</title>
<g id="a_edge23_Node000018_Node000008"><a xlink:title=" ">
<path fill="none" stroke="#63b8ff" d="M242.24,-120.88C242.6,-99.51 243.28,-58.89 243.68,-34.96"/>
<polygon fill="#63b8ff" stroke="#63b8ff" points="247.18,-34.77 243.85,-24.71 240.19,-34.65 247.18,-34.77"/>
</a>
</g>
</g>
</g>
</svg>
