<?xml version="1.0" encoding="UTF-8" standalone="no"?>
<!DOCTYPE svg PUBLIC "-//W3C//DTD SVG 1.1//EN"
 "http://www.w3.org/Graphics/SVG/1.1/DTD/svg11.dtd">
<!-- Generated by graphviz version 2.43.0 (0)
 -->
<!-- Title: include/engine/core/rendering/renderingService.h Pages: 1 -->
<svg width="1301pt" height="291pt"
 viewBox="0.00 0.00 1300.50 291.00" xmlns="http://www.w3.org/2000/svg" xmlns:xlink="http://www.w3.org/1999/xlink">
<g id="graph0" class="graph" transform="scale(1 1) rotate(0) translate(4 287)">
<title>include/engine/core/rendering/renderingService.h</title>
<!-- Node1 -->
<g id="Node000001" class="node">
<title>Node1</title>
<g id="a_Node000001"><a xlink:title=" ">
<polygon fill="#999999" stroke="#666666" points="925,-283 764,-283 764,-253 925,-253 925,-283"/>
<text text-anchor="start" x="772" y="-271" font-family="Helvetica,sans-Serif" font-size="10.00">include/engine/core</text>
<text text-anchor="middle" x="844.5" y="-260" font-family="Helvetica,sans-Serif" font-size="10.00">/rendering/renderingService.h</text>
</a>
</g>
</g>
<!-- Node2 -->
<g id="Node000002" class="node">
<title>Node2</title>
<g id="a_Node000002"><a xlink:title=" ">
<polygon fill="#e0e0e0" stroke="#999999" points="47,-24.5 0,-24.5 0,-5.5 47,-5.5 47,-24.5"/>
<text text-anchor="middle" x="23.5" y="-12.5" font-family="Helvetica,sans-Serif" font-size="10.00">vector</text>
</a>
</g>
</g>
<!-- Node1&#45;&gt;Node2 -->
<g id="edge1_Node000001_Node000002" class="edge">
<title>Node1&#45;&gt;Node2</title>
<g id="a_edge1_Node000001_Node000002"><a xlink:title=" ">
<path fill="none" stroke="#63b8ff" d="M763.96,-261.21C576.75,-245.94 121.02,-197.75 26.5,-85 14.97,-71.25 15.9,-49.99 18.66,-34.7"/>
<polygon fill="#63b8ff" stroke="#63b8ff" points="22.1,-35.34 20.84,-24.82 15.26,-33.83 22.1,-35.34"/>
</a>
</g>
</g>
<!-- Node3 -->
<g id="Node000003" class="node">
<title>Node3</title>
<g id="a_Node000003"><a xlink:href="i_engine_service_8h.html" target="_top" xlink:title=" ">
<polygon fill="white" stroke="#666666" points="1292.5,-145.5 1134.5,-145.5 1134.5,-126.5 1292.5,-126.5 1292.5,-145.5"/>
<text text-anchor="middle" x="1213.5" y="-133.5" font-family="Helvetica,sans-Serif" font-size="10.00">engine/core/iEngineService.h</text>
</a>
</g>
</g>
<!-- Node1&#45;&gt;Node3 -->
<g id="edge2_Node000001_Node000003" class="edge">
<title>Node1&#45;&gt;Node3</title>
<g id="a_edge2_Node000001_Node000003"><a xlink:title=" ">
<path fill="none" stroke="#63b8ff" d="M884.34,-252.96C957.34,-227.25 1111.32,-173 1179.63,-148.93"/>
<polygon fill="#63b8ff" stroke="#63b8ff" points="1180.8,-152.23 1189.07,-145.61 1178.47,-145.63 1180.8,-152.23"/>
</a>
</g>
</g>
<!-- Node5 -->
<g id="Node000005" class="node">
<title>Node5</title>
<g id="a_Node000005"><a xlink:href="renderer_8h.html" target="_top" xlink:title=" ">
<polygon fill="white" stroke="#666666" points="952,-217 829,-217 829,-187 952,-187 952,-217"/>
<text text-anchor="start" x="837" y="-205" font-family="Helvetica,sans-Serif" font-size="10.00">engine/core/rendering</text>
<text text-anchor="middle" x="890.5" y="-194" font-family="Helvetica,sans-Serif" font-size="10.00">/renderer.h</text>
</a>
</g>
</g>
<!-- Node1&#45;&gt;Node5 -->
<g id="edge4_Node000001_Node000005" class="edge">
<title>Node1&#45;&gt;Node5</title>
<g id="a_edge4_Node000001_Node000005"><a xlink:title=" ">
<path fill="none" stroke="#63b8ff" d="M854.71,-252.8C860.49,-244.76 867.84,-234.53 874.38,-225.43"/>
<polygon fill="#63b8ff" stroke="#63b8ff" points="877.33,-227.33 880.32,-217.16 871.64,-223.24 877.33,-227.33"/>
</a>
</g>
</g>
<!-- Node21 -->
<g id="Node000021" class="node">
<title>Node21</title>
<g id="a_Node000021"><a xlink:href="window_8h.html" target="_top" xlink:title=" ">
<polygon fill="white" stroke="#666666" points="811,-151 688,-151 688,-121 811,-121 811,-151"/>
<text text-anchor="start" x="696" y="-139" font-family="Helvetica,sans-Serif" font-size="10.00">engine/core/rendering</text>
<text text-anchor="middle" x="749.5" y="-128" font-family="Helvetica,sans-Serif" font-size="10.00">/window.h</text>
</a>
</g>
</g>
<!-- Node1&#45;&gt;Node21 -->
<g id="edge30_Node000001_Node000021" class="edge">
<title>Node1&#45;&gt;Node21</title>
<g id="a_edge30_Node000001_Node000021"><a xlink:title=" ">
<path fill="none" stroke="#63b8ff" d="M834.15,-252.84C817.73,-230.37 785.57,-186.36 765.96,-159.53"/>
<polygon fill="#63b8ff" stroke="#63b8ff" points="768.56,-157.15 759.83,-151.14 762.91,-161.28 768.56,-157.15"/>
</a>
</g>
</g>
<!-- Node4 -->
<g id="Node000004" class="node">
<title>Node4</title>
<g id="a_Node000004"><a xlink:title=" ">
<polygon fill="#e0e0e0" stroke="#999999" points="1243.5,-85 1183.5,-85 1183.5,-66 1243.5,-66 1243.5,-85"/>
<text text-anchor="middle" x="1213.5" y="-73" font-family="Helvetica,sans-Serif" font-size="10.00">concepts</text>
</a>
</g>
</g>
<!-- Node3&#45;&gt;Node4 -->
<g id="edge3_Node000003_Node000004" class="edge">
<title>Node3&#45;&gt;Node4</title>
<g id="a_edge3_Node000003_Node000004"><a xlink:title=" ">
<path fill="none" stroke="#63b8ff" d="M1213.5,-126.37C1213.5,-118.25 1213.5,-105.81 1213.5,-95.39"/>
<polygon fill="#63b8ff" stroke="#63b8ff" points="1217,-95.17 1213.5,-85.17 1210,-95.17 1217,-95.17"/>
</a>
</g>
</g>
<!-- Node5&#45;&gt;Node3 -->
<g id="edge27_Node000005_Node000003" class="edge">
<title>Node5&#45;&gt;Node3</title>
<g id="a_edge27_Node000005_Node000003"><a xlink:title=" ">
<path fill="none" stroke="#63b8ff" d="M952.01,-188.81C1012.28,-176.87 1103.16,-158.86 1160.36,-147.53"/>
<polygon fill="#63b8ff" stroke="#63b8ff" points="1161.16,-150.94 1170.29,-145.56 1159.8,-144.07 1161.16,-150.94"/>
</a>
</g>
</g>
<!-- Node6 -->
<g id="Node000006" class="node">
<title>Node6</title>
<g id="a_Node000006"><a xlink:title=" ">
<polygon fill="#e0e0e0" stroke="#999999" points="826.5,-24.5 768.5,-24.5 768.5,-5.5 826.5,-5.5 826.5,-24.5"/>
<text text-anchor="middle" x="797.5" y="-12.5" font-family="Helvetica,sans-Serif" font-size="10.00">memory</text>
</a>
</g>
</g>
<!-- Node5&#45;&gt;Node6 -->
<g id="edge5_Node000005_Node000006" class="edge">
<title>Node5&#45;&gt;Node6</title>
<g id="a_edge5_Node000005_Node000006"><a xlink:title=" ">
<path fill="none" stroke="#63b8ff" d="M923.01,-186.84C937.58,-178.65 953.31,-166.79 961.5,-151 978.9,-117.47 984.22,-96.18 961.5,-66 926.73,-19.81 891.51,-47.78 836.5,-30 834.39,-29.32 832.22,-28.6 830.03,-27.85"/>
<polygon fill="#63b8ff" stroke="#63b8ff" points="831.11,-24.52 820.51,-24.54 828.8,-31.13 831.11,-24.52"/>
</a>
</g>
</g>
<!-- Node7 -->
<g id="Node000007" class="node">
<title>Node7</title>
<g id="a_Node000007"><a xlink:title=" ">
<polygon fill="#e0e0e0" stroke="#999999" points="1116.5,-145.5 1008.5,-145.5 1008.5,-126.5 1116.5,-126.5 1116.5,-145.5"/>
<text text-anchor="middle" x="1062.5" y="-133.5" font-family="Helvetica,sans-Serif" font-size="10.00">SDL3/SDL_render.h</text>
</a>
</g>
</g>
<!-- Node5&#45;&gt;Node7 -->
<g id="edge6_Node000005_Node000007" class="edge">
<title>Node5&#45;&gt;Node7</title>
<g id="a_edge6_Node000005_Node000007"><a xlink:title=" ">
<path fill="none" stroke="#63b8ff" d="M928.25,-186.95C958.68,-175.63 1001.02,-159.88 1029.97,-149.1"/>
<polygon fill="#63b8ff" stroke="#63b8ff" points="1031.46,-152.28 1039.61,-145.52 1029.02,-145.72 1031.46,-152.28"/>
</a>
</g>
</g>
<!-- Node8 -->
<g id="Node000008" class="node">
<title>Node8</title>
<g id="a_Node000008"><a xlink:href="renderer_flags_8h.html" target="_top" xlink:title=" ">
<polygon fill="white" stroke="#666666" points="952,-151 829,-151 829,-121 952,-121 952,-151"/>
<text text-anchor="start" x="837" y="-139" font-family="Helvetica,sans-Serif" font-size="10.00">engine/core/rendering</text>
<text text-anchor="middle" x="890.5" y="-128" font-family="Helvetica,sans-Serif" font-size="10.00">/rendererFlags.h</text>
</a>
</g>
</g>
<!-- Node5&#45;&gt;Node8 -->
<g id="edge7_Node000005_Node000008" class="edge">
<title>Node5&#45;&gt;Node8</title>
<g id="a_edge7_Node000005_Node000008"><a xlink:title=" ">
<path fill="none" stroke="#63b8ff" d="M890.5,-186.8C890.5,-179.34 890.5,-169.99 890.5,-161.41"/>
<polygon fill="#63b8ff" stroke="#63b8ff" points="894,-161.16 890.5,-151.16 887,-161.16 894,-161.16"/>
</a>
</g>
</g>
<!-- Node10 -->
<g id="Node000010" class="node">
<title>Node10</title>
<g id="a_Node000010"><a xlink:href="game_object_8h.html" target="_top" xlink:title=" ">
<polygon fill="white" stroke="#666666" points="505,-145.5 352,-145.5 352,-126.5 505,-126.5 505,-145.5"/>
<text text-anchor="middle" x="428.5" y="-133.5" font-family="Helvetica,sans-Serif" font-size="10.00">engine/public/gameObject.h</text>
</a>
</g>
</g>
<!-- Node5&#45;&gt;Node10 -->
<g id="edge9_Node000005_Node000010" class="edge">
<title>Node5&#45;&gt;Node10</title>
<g id="a_edge9_Node000005_Node000010"><a xlink:title=" ">
<path fill="none" stroke="#63b8ff" d="M828.67,-192.44C743.44,-180.63 590.19,-159.4 500.09,-146.92"/>
<polygon fill="#63b8ff" stroke="#63b8ff" points="500.35,-143.42 489.96,-145.51 499.39,-150.35 500.35,-143.42"/>
</a>
</g>
</g>
<!-- Node5&#45;&gt;Node21 -->
<g id="edge28_Node000005_Node000021" class="edge">
<title>Node5&#45;&gt;Node21</title>
<g id="a_edge28_Node000005_Node000021"><a xlink:title=" ">
<path fill="none" stroke="#63b8ff" d="M859.56,-186.95C838.99,-177.62 811.77,-165.27 789.55,-155.18"/>
<polygon fill="#63b8ff" stroke="#63b8ff" points="790.92,-151.96 780.37,-151.01 788.03,-158.33 790.92,-151.96"/>
</a>
</g>
</g>
<!-- Node9 -->
<g id="Node000009" class="node">
<title>Node9</title>
<g id="a_Node000009"><a xlink:title=" ">
<polygon fill="#e0e0e0" stroke="#999999" points="952.5,-85 902.5,-85 902.5,-66 952.5,-66 952.5,-85"/>
<text text-anchor="middle" x="927.5" y="-73" font-family="Helvetica,sans-Serif" font-size="10.00">cstdint</text>
</a>
</g>
</g>
<!-- Node8&#45;&gt;Node9 -->
<g id="edge8_Node000008_Node000009" class="edge">
<title>Node8&#45;&gt;Node9</title>
<g id="a_edge8_Node000008_Node000009"><a xlink:title=" ">
<path fill="none" stroke="#63b8ff" d="M899.46,-120.84C904.61,-112.69 911.12,-102.4 916.57,-93.78"/>
<polygon fill="#63b8ff" stroke="#63b8ff" points="919.57,-95.59 921.96,-85.27 913.65,-91.85 919.57,-95.59"/>
</a>
</g>
</g>
<!-- Node10&#45;&gt;Node2 -->
<g id="edge14_Node000010_Node000002" class="edge">
<title>Node10&#45;&gt;Node2</title>
<g id="a_edge14_Node000010_Node000002"><a xlink:title=" ">
<path fill="none" stroke="#63b8ff" d="M351.7,-134.82C252.53,-132.99 87.32,-123.95 42.5,-85 28.31,-72.67 24.26,-50.82 23.31,-35"/>
<polygon fill="#63b8ff" stroke="#63b8ff" points="26.81,-34.69 23.08,-24.78 19.81,-34.85 26.81,-34.69"/>
</a>
</g>
</g>
<!-- Node11 -->
<g id="Node000011" class="node">
<title>Node11</title>
<g id="a_Node000011"><a xlink:title=" ">
<polygon fill="#e0e0e0" stroke="#999999" points="648.5,-85 584.5,-85 584.5,-66 648.5,-66 648.5,-85"/>
<text text-anchor="middle" x="616.5" y="-73" font-family="Helvetica,sans-Serif" font-size="10.00">algorithm</text>
</a>
</g>
</g>
<!-- Node10&#45;&gt;Node11 -->
<g id="edge10_Node000010_Node000011" class="edge">
<title>Node10&#45;&gt;Node11</title>
<g id="a_edge10_Node000010_Node000011"><a xlink:title=" ">
<path fill="none" stroke="#63b8ff" d="M455.84,-126.49C488.42,-116.36 543.01,-99.37 579.39,-88.05"/>
<polygon fill="#63b8ff" stroke="#63b8ff" points="580.62,-91.33 589.13,-85.02 578.54,-84.65 580.62,-91.33"/>
</a>
</g>
</g>
<!-- Node12 -->
<g id="Node000012" class="node">
<title>Node12</title>
<g id="a_Node000012"><a xlink:title=" ">
<polygon fill="#e0e0e0" stroke="#999999" points="719.5,-24.5 663.5,-24.5 663.5,-5.5 719.5,-5.5 719.5,-24.5"/>
<text text-anchor="middle" x="691.5" y="-12.5" font-family="Helvetica,sans-Serif" font-size="10.00">optional</text>
</a>
</g>
</g>
<!-- Node10&#45;&gt;Node12 -->
<g id="edge11_Node000010_Node000012" class="edge">
<title>Node10&#45;&gt;Node12</title>
<g id="a_edge11_Node000010_Node000012"><a xlink:title=" ">
<path fill="none" stroke="#63b8ff" d="M498.54,-126.47C556.48,-118.2 633.06,-104.12 657.5,-85 673.57,-72.43 682.56,-50.29 687.21,-34.48"/>
<polygon fill="#63b8ff" stroke="#63b8ff" points="690.61,-35.3 689.76,-24.74 683.84,-33.53 690.61,-35.3"/>
</a>
</g>
</g>
<!-- Node13 -->
<g id="Node000013" class="node">
<title>Node13</title>
<g id="a_Node000013"><a xlink:title=" ">
<polygon fill="#e0e0e0" stroke="#999999" points="101.5,-85 51.5,-85 51.5,-66 101.5,-66 101.5,-85"/>
<text text-anchor="middle" x="76.5" y="-73" font-family="Helvetica,sans-Serif" font-size="10.00">ranges</text>
</a>
</g>
</g>
<!-- Node10&#45;&gt;Node13 -->
<g id="edge12_Node000010_Node000013" class="edge">
<title>Node10&#45;&gt;Node13</title>
<g id="a_edge12_Node000010_Node000013"><a xlink:title=" ">
<path fill="none" stroke="#63b8ff" d="M363.33,-126.48C301.05,-117.95 204.33,-103.68 111.53,-85.06"/>
<polygon fill="#63b8ff" stroke="#63b8ff" points="112.19,-81.62 101.69,-83.06 110.8,-88.48 112.19,-81.62"/>
</a>
</g>
</g>
<!-- Node14 -->
<g id="Node000014" class="node">
<title>Node14</title>
<g id="a_Node000014"><a xlink:title=" ">
<polygon fill="#e0e0e0" stroke="#999999" points="231.5,-24.5 187.5,-24.5 187.5,-5.5 231.5,-5.5 231.5,-24.5"/>
<text text-anchor="middle" x="209.5" y="-12.5" font-family="Helvetica,sans-Serif" font-size="10.00">string</text>
</a>
</g>
</g>
<!-- Node10&#45;&gt;Node14 -->
<g id="edge13_Node000010_Node000014" class="edge">
<title>Node10&#45;&gt;Node14</title>
<g id="a_edge13_Node000010_Node000014"><a xlink:title=" ">
<path fill="none" stroke="#63b8ff" d="M376.67,-126.47C343.68,-119.26 301.17,-106.55 268.5,-85 248.02,-71.49 230.63,-48.89 220.14,-33.26"/>
<polygon fill="#63b8ff" stroke="#63b8ff" points="222.9,-31.08 214.54,-24.57 217.02,-34.87 222.9,-31.08"/>
</a>
</g>
</g>
<!-- Node15 -->
<g id="Node000015" class="node">
<title>Node15</title>
<g id="a_Node000015"><a xlink:href="scene_8h.html" target="_top" xlink:title=" ">
<polygon fill="white" stroke="#666666" points="566.5,-85 444.5,-85 444.5,-66 566.5,-66 566.5,-85"/>
<text text-anchor="middle" x="505.5" y="-73" font-family="Helvetica,sans-Serif" font-size="10.00">engine/public/scene.h</text>
</a>
</g>
</g>
<!-- Node10&#45;&gt;Node15 -->
<g id="edge15_Node000010_Node000015" class="edge">
<title>Node10&#45;&gt;Node15</title>
<g id="a_edge15_Node000010_Node000015"><a xlink:title=" ">
<path fill="none" stroke="#63b8ff" d="M439.86,-126.37C451.92,-117.21 471.2,-102.56 485.75,-91.51"/>
<polygon fill="#63b8ff" stroke="#63b8ff" points="488.25,-94 494.09,-85.17 484.01,-88.43 488.25,-94"/>
</a>
</g>
</g>
<!-- Node16 -->
<g id="Node000016" class="node">
<title>Node16</title>
<g id="a_Node000016"><a xlink:href="transform_8h.html" target="_top" xlink:title=" ">
<polygon fill="white" stroke="#666666" points="884.5,-85 742.5,-85 742.5,-66 884.5,-66 884.5,-85"/>
<text text-anchor="middle" x="813.5" y="-73" font-family="Helvetica,sans-Serif" font-size="10.00">engine/public/transform.h</text>
</a>
</g>
</g>
<!-- Node10&#45;&gt;Node16 -->
<g id="edge16_Node000010_Node000016" class="edge">
<title>Node10&#45;&gt;Node16</title>
<g id="a_edge16_Node000010_Node000016"><a xlink:title=" ">
<path fill="none" stroke="#63b8ff" d="M484.48,-126.49C554.2,-115.9 673.13,-97.83 747.29,-86.56"/>
<polygon fill="#63b8ff" stroke="#63b8ff" points="748.09,-89.98 757.45,-85.02 747.04,-83.06 748.09,-89.98"/>
</a>
</g>
</g>
<!-- Node18 -->
<g id="Node000018" class="node">
<title>Node18</title>
<g id="a_Node000018"><a xlink:href="component_8h.html" target="_top" xlink:title=" ">
<polygon fill="white" stroke="#666666" points="426,-85 277,-85 277,-66 426,-66 426,-85"/>
<text text-anchor="middle" x="351.5" y="-73" font-family="Helvetica,sans-Serif" font-size="10.00">engine/public/component.h</text>
</a>
</g>
</g>
<!-- Node10&#45;&gt;Node18 -->
<g id="edge20_Node000010_Node000018" class="edge">
<title>Node10&#45;&gt;Node18</title>
<g id="a_edge20_Node000010_Node000018"><a xlink:title=" ">
<path fill="none" stroke="#63b8ff" d="M417.14,-126.37C405.08,-117.21 385.8,-102.56 371.25,-91.51"/>
<polygon fill="#63b8ff" stroke="#63b8ff" points="372.99,-88.43 362.91,-85.17 368.75,-94 372.99,-88.43"/>
</a>
</g>
</g>
<!-- Node20 -->
<g id="Node000020" class="node">
<title>Node20</title>
<g id="a_Node000020"><a xlink:href="uuid_8h.html" target="_top" xlink:title=" ">
<polygon fill="white" stroke="#666666" points="221,-85 120,-85 120,-66 221,-66 221,-85"/>
<text text-anchor="middle" x="170.5" y="-73" font-family="Helvetica,sans-Serif" font-size="10.00">engine/util/uuid.h</text>
</a>
</g>
</g>
<!-- Node10&#45;&gt;Node20 -->
<g id="edge25_Node000010_Node000020" class="edge">
<title>Node10&#45;&gt;Node20</title>
<g id="a_edge25_Node000010_Node000020"><a xlink:title=" ">
<path fill="none" stroke="#63b8ff" d="M390.98,-126.49C345.22,-116.12 267.81,-98.57 217.95,-87.26"/>
<polygon fill="#63b8ff" stroke="#63b8ff" points="218.59,-83.81 208.06,-85.02 217.04,-90.64 218.59,-83.81"/>
</a>
</g>
</g>
<!-- Node16&#45;&gt;Node6 -->
<g id="edge17_Node000016_Node000006" class="edge">
<title>Node16&#45;&gt;Node6</title>
<g id="a_edge17_Node000016_Node000006"><a xlink:title=" ">
<path fill="none" stroke="#63b8ff" d="M811.14,-65.87C808.89,-57.66 805.44,-45.04 802.57,-34.55"/>
<polygon fill="#63b8ff" stroke="#63b8ff" points="805.88,-33.39 799.87,-24.67 799.13,-35.24 805.88,-33.39"/>
</a>
</g>
</g>
<!-- Node16&#45;&gt;Node12 -->
<g id="edge18_Node000016_Node000012" class="edge">
<title>Node16&#45;&gt;Node12</title>
<g id="a_edge18_Node000016_Node000012"><a xlink:title=" ">
<path fill="none" stroke="#63b8ff" d="M795.76,-65.99C775.43,-56.25 741.89,-40.16 718.36,-28.88"/>
<polygon fill="#63b8ff" stroke="#63b8ff" points="719.79,-25.68 709.26,-24.52 716.76,-32 719.79,-25.68"/>
</a>
</g>
</g>
<!-- Node17 -->
<g id="Node000017" class="node">
<title>Node17</title>
<g id="a_Node000017"><a xlink:href="vector3_8h.html" target="_top" xlink:title=" ">
<polygon fill="white" stroke="#666666" points="946,-30 845,-30 845,0 946,0 946,-30"/>
<text text-anchor="start" x="853" y="-18" font-family="Helvetica,sans-Serif" font-size="10.00">engine/public/util</text>
<text text-anchor="middle" x="895.5" y="-7" font-family="Helvetica,sans-Serif" font-size="10.00">/vector3.h</text>
</a>
</g>
</g>
<!-- Node16&#45;&gt;Node17 -->
<g id="edge19_Node000016_Node000017" class="edge">
<title>Node16&#45;&gt;Node17</title>
<g id="a_edge19_Node000016_Node000017"><a xlink:title=" ">
<path fill="none" stroke="#63b8ff" d="M825.6,-65.87C836.52,-58.08 853.01,-46.32 867.22,-36.17"/>
<polygon fill="#63b8ff" stroke="#63b8ff" points="869.61,-38.77 875.72,-30.11 865.54,-33.07 869.61,-38.77"/>
</a>
</g>
</g>
<!-- Node18&#45;&gt;Node2 -->
<g id="edge24_Node000018_Node000002" class="edge">
<title>Node18&#45;&gt;Node2</title>
<g id="a_edge24_Node000018_Node000002"><a xlink:title=" ">
<path fill="none" stroke="#63b8ff" d="M303.81,-65.99C236.59,-54.01 115.68,-32.44 57.12,-22"/>
<polygon fill="#63b8ff" stroke="#63b8ff" points="57.72,-18.55 47.27,-20.24 56.5,-25.44 57.72,-18.55"/>
</a>
</g>
</g>
<!-- Node18&#45;&gt;Node6 -->
<g id="edge22_Node000018_Node000006" class="edge">
<title>Node18&#45;&gt;Node6</title>
<g id="a_edge22_Node000018_Node000006"><a xlink:title=" ">
<path fill="none" stroke="#63b8ff" d="M426.14,-66.43C518.95,-56.27 672.05,-39.04 728.5,-30 738.26,-28.44 748.75,-26.46 758.52,-24.49"/>
<polygon fill="#63b8ff" stroke="#63b8ff" points="759.3,-27.91 768.39,-22.46 757.89,-21.05 759.3,-27.91"/>
</a>
</g>
</g>
<!-- Node18&#45;&gt;Node12 -->
<g id="edge23_Node000018_Node000012" class="edge">
<title>Node18&#45;&gt;Node12</title>
<g id="a_edge23_Node000018_Node000012"><a xlink:title=" ">
<path fill="none" stroke="#63b8ff" d="M400.94,-65.99C469.36,-54.22 591.47,-33.21 653.33,-22.57"/>
<polygon fill="#63b8ff" stroke="#63b8ff" points="654.18,-25.97 663.44,-20.83 652.99,-19.07 654.18,-25.97"/>
</a>
</g>
</g>
<!-- Node19 -->
<g id="Node000019" class="node">
<title>Node19</title>
<g id="a_Node000019"><a xlink:title=" ">
<polygon fill="#e0e0e0" stroke="#999999" points="384,-24.5 319,-24.5 319,-5.5 384,-5.5 384,-24.5"/>
<text text-anchor="middle" x="351.5" y="-12.5" font-family="Helvetica,sans-Serif" font-size="10.00">functional</text>
</a>
</g>
</g>
<!-- Node18&#45;&gt;Node19 -->
<g id="edge21_Node000018_Node000019" class="edge">
<title>Node18&#45;&gt;Node19</title>
<g id="a_edge21_Node000018_Node000019"><a xlink:title=" ">
<path fill="none" stroke="#63b8ff" d="M351.5,-65.87C351.5,-57.75 351.5,-45.31 351.5,-34.89"/>
<polygon fill="#63b8ff" stroke="#63b8ff" points="355,-34.67 351.5,-24.67 348,-34.67 355,-34.67"/>
</a>
</g>
</g>
<!-- Node20&#45;&gt;Node14 -->
<g id="edge26_Node000020_Node000014" class="edge">
<title>Node20&#45;&gt;Node14</title>
<g id="a_edge26_Node000020_Node000014"><a xlink:title=" ">
<path fill="none" stroke="#63b8ff" d="M176.25,-65.87C181.96,-57.31 190.85,-43.97 198.01,-33.24"/>
<polygon fill="#63b8ff" stroke="#63b8ff" points="201.09,-34.93 203.72,-24.67 195.26,-31.05 201.09,-34.93"/>
</a>
</g>
</g>
<!-- Node21&#45;&gt;Node12 -->
<g id="edge29_Node000021_Node000012" class="edge">
<title>Node21&#45;&gt;Node12</title>
<g id="a_edge29_Node000021_Node000012"><a xlink:title=" ">
<path fill="none" stroke="#63b8ff" d="M742.62,-120.88C732.06,-99.22 711.86,-57.78 700.27,-33.99"/>
<polygon fill="#63b8ff" stroke="#63b8ff" points="703.27,-32.17 695.75,-24.71 696.98,-35.23 703.27,-32.17"/>
</a>
</g>
</g>
</g>
</svg>
