<?xml version="1.0" encoding="UTF-8" standalone="no"?>
<!DOCTYPE svg PUBLIC "-//W3C//DTD SVG 1.1//EN"
 "http://www.w3.org/Graphics/SVG/1.1/DTD/svg11.dtd">
<!-- Generated by graphviz version 2.43.0 (0)
 -->
<!-- Title: include/engine/core/rendering/renderingService.h Pages: 1 -->
<svg width="1370pt" height="291pt"
 viewBox="0.00 0.00 1369.50 291.00" xmlns="http://www.w3.org/2000/svg" xmlns:xlink="http://www.w3.org/1999/xlink">
<g id="graph0" class="graph" transform="scale(1 1) rotate(0) translate(4 287)">
<title>include/engine/core/rendering/renderingService.h</title>
<!-- Node1 -->
<g id="Node000001" class="node">
<title>Node1</title>
<g id="a_Node000001"><a xlink:title=" ">
<polygon fill="#999999" stroke="#666666" points="828,-283 667,-283 667,-253 828,-253 828,-283"/>
<text text-anchor="start" x="675" y="-271" font-family="Helvetica,sans-Serif" font-size="10.00">include/engine/core</text>
<text text-anchor="middle" x="747.5" y="-260" font-family="Helvetica,sans-Serif" font-size="10.00">/rendering/renderingService.h</text>
</a>
</g>
</g>
<!-- Node2 -->
<g id="Node000002" class="node">
<title>Node2</title>
<g id="a_Node000002"><a xlink:title=" ">
<polygon fill="#e0e0e0" stroke="#999999" points="47,-85 0,-85 0,-66 47,-66 47,-85"/>
<text text-anchor="middle" x="23.5" y="-73" font-family="Helvetica,sans-Serif" font-size="10.00">vector</text>
</a>
</g>
</g>
<!-- Node1&#45;&gt;Node2 -->
<g id="edge1_Node000001_Node000002" class="edge">
<title>Node1&#45;&gt;Node2</title>
<g id="a_edge1_Node000001_Node000002"><a xlink:title=" ">
<path fill="none" stroke="#63b8ff" d="M666.62,-254.3C561.41,-236.66 372.6,-201.14 216.5,-151 157.49,-132.04 90.33,-104.79 52.83,-89.04"/>
<polygon fill="#63b8ff" stroke="#63b8ff" points="54.08,-85.77 43.51,-85.11 51.36,-92.22 54.08,-85.77"/>
</a>
</g>
</g>
<!-- Node3 -->
<g id="Node000003" class="node">
<title>Node3</title>
<g id="a_Node000003"><a xlink:href="i_engine_service_8h.html" target="_top" xlink:title=" ">
<polygon fill="white" stroke="#666666" points="1361.5,-145.5 1203.5,-145.5 1203.5,-126.5 1361.5,-126.5 1361.5,-145.5"/>
<text text-anchor="middle" x="1282.5" y="-133.5" font-family="Helvetica,sans-Serif" font-size="10.00">engine/core/iEngineService.h</text>
</a>
</g>
</g>
<!-- Node1&#45;&gt;Node3 -->
<g id="edge2_Node000001_Node000003" class="edge">
<title>Node1&#45;&gt;Node3</title>
<g id="a_edge2_Node000001_Node000003"><a xlink:title=" ">
<path fill="none" stroke="#63b8ff" d="M816.16,-252.97C862.2,-243.35 924.13,-230.03 978.5,-217 1073.37,-194.26 1183.99,-164.27 1242.09,-148.24"/>
<polygon fill="#63b8ff" stroke="#63b8ff" points="1243.27,-151.55 1251.98,-145.51 1241.41,-144.8 1243.27,-151.55"/>
</a>
</g>
</g>
<!-- Node5 -->
<g id="Node000005" class="node">
<title>Node5</title>
<g id="a_Node000005"><a xlink:href="renderer_8h.html" target="_top" xlink:title=" ">
<polygon fill="white" stroke="#666666" points="969,-217 846,-217 846,-187 969,-187 969,-217"/>
<text text-anchor="start" x="854" y="-205" font-family="Helvetica,sans-Serif" font-size="10.00">engine/core/rendering</text>
<text text-anchor="middle" x="907.5" y="-194" font-family="Helvetica,sans-Serif" font-size="10.00">/renderer.h</text>
</a>
</g>
</g>
<!-- Node1&#45;&gt;Node5 -->
<g id="edge4_Node000001_Node000005" class="edge">
<title>Node1&#45;&gt;Node5</title>
<g id="a_edge4_Node000001_Node000005"><a xlink:title=" ">
<path fill="none" stroke="#63b8ff" d="M782.61,-252.95C806.27,-243.49 837.66,-230.93 863.06,-220.78"/>
<polygon fill="#63b8ff" stroke="#63b8ff" points="864.48,-223.98 872.47,-217.01 861.88,-217.48 864.48,-223.98"/>
</a>
</g>
</g>
<!-- Node20 -->
<g id="Node000020" class="node">
<title>Node20</title>
<g id="a_Node000020"><a xlink:href="window_8h.html" target="_top" xlink:title=" ">
<polygon fill="white" stroke="#666666" points="348,-151 225,-151 225,-121 348,-121 348,-151"/>
<text text-anchor="start" x="233" y="-139" font-family="Helvetica,sans-Serif" font-size="10.00">engine/core/rendering</text>
<text text-anchor="middle" x="286.5" y="-128" font-family="Helvetica,sans-Serif" font-size="10.00">/window.h</text>
</a>
</g>
</g>
<!-- Node1&#45;&gt;Node20 -->
<g id="edge28_Node000001_Node000020" class="edge">
<title>Node1&#45;&gt;Node20</title>
<g id="a_edge28_Node000001_Node000020"><a xlink:title=" ">
<path fill="none" stroke="#63b8ff" d="M697.73,-252.96C612.25,-228.86 437.93,-179.7 346.11,-153.81"/>
<polygon fill="#63b8ff" stroke="#63b8ff" points="346.99,-150.42 336.41,-151.08 345.09,-157.16 346.99,-150.42"/>
</a>
</g>
</g>
<!-- Node4 -->
<g id="Node000004" class="node">
<title>Node4</title>
<g id="a_Node000004"><a xlink:title=" ">
<polygon fill="#e0e0e0" stroke="#999999" points="1312.5,-85 1252.5,-85 1252.5,-66 1312.5,-66 1312.5,-85"/>
<text text-anchor="middle" x="1282.5" y="-73" font-family="Helvetica,sans-Serif" font-size="10.00">concepts</text>
</a>
</g>
</g>
<!-- Node3&#45;&gt;Node4 -->
<g id="edge3_Node000003_Node000004" class="edge">
<title>Node3&#45;&gt;Node4</title>
<g id="a_edge3_Node000003_Node000004"><a xlink:title=" ">
<path fill="none" stroke="#63b8ff" d="M1282.5,-126.37C1282.5,-118.25 1282.5,-105.81 1282.5,-95.39"/>
<polygon fill="#63b8ff" stroke="#63b8ff" points="1286,-95.17 1282.5,-85.17 1279,-95.17 1286,-95.17"/>
</a>
</g>
</g>
<!-- Node5&#45;&gt;Node3 -->
<g id="edge25_Node000005_Node000003" class="edge">
<title>Node5&#45;&gt;Node3</title>
<g id="a_edge25_Node000005_Node000003"><a xlink:title=" ">
<path fill="none" stroke="#63b8ff" d="M969,-190.5C1039.21,-178.52 1153.28,-159.05 1222.75,-147.2"/>
<polygon fill="#63b8ff" stroke="#63b8ff" points="1223.4,-150.64 1232.67,-145.51 1222.22,-143.74 1223.4,-150.64"/>
</a>
</g>
</g>
<!-- Node6 -->
<g id="Node000006" class="node">
<title>Node6</title>
<g id="a_Node000006"><a xlink:title=" ">
<polygon fill="#e0e0e0" stroke="#999999" points="905.5,-24.5 847.5,-24.5 847.5,-5.5 905.5,-5.5 905.5,-24.5"/>
<text text-anchor="middle" x="876.5" y="-12.5" font-family="Helvetica,sans-Serif" font-size="10.00">memory</text>
</a>
</g>
</g>
<!-- Node5&#45;&gt;Node6 -->
<g id="edge5_Node000005_Node000006" class="edge">
<title>Node5&#45;&gt;Node6</title>
<g id="a_edge5_Node000005_Node000006"><a xlink:title=" ">
<path fill="none" stroke="#63b8ff" d="M909.99,-186.85C913.85,-161.88 919.64,-108.6 907.5,-66 904.1,-54.07 896.94,-42.2 890.36,-33.02"/>
<polygon fill="#63b8ff" stroke="#63b8ff" points="892.98,-30.67 884.14,-24.84 887.41,-34.91 892.98,-30.67"/>
</a>
</g>
</g>
<!-- Node7 -->
<g id="Node000007" class="node">
<title>Node7</title>
<g id="a_Node000007"><a xlink:title=" ">
<polygon fill="#e0e0e0" stroke="#999999" points="1185.5,-145.5 1077.5,-145.5 1077.5,-126.5 1185.5,-126.5 1185.5,-145.5"/>
<text text-anchor="middle" x="1131.5" y="-133.5" font-family="Helvetica,sans-Serif" font-size="10.00">SDL3/SDL_render.h</text>
</a>
</g>
</g>
<!-- Node5&#45;&gt;Node7 -->
<g id="edge6_Node000005_Node000007" class="edge">
<title>Node5&#45;&gt;Node7</title>
<g id="a_edge6_Node000005_Node000007"><a xlink:title=" ">
<path fill="none" stroke="#63b8ff" d="M956.66,-186.95C997.33,-175.34 1054.34,-159.05 1092.06,-148.27"/>
<polygon fill="#63b8ff" stroke="#63b8ff" points="1093.04,-151.63 1101.69,-145.52 1091.11,-144.9 1093.04,-151.63"/>
</a>
</g>
</g>
<!-- Node8 -->
<g id="Node000008" class="node">
<title>Node8</title>
<g id="a_Node000008"><a xlink:href="renderer_flags_8h.html" target="_top" xlink:title=" ">
<polygon fill="white" stroke="#666666" points="1059,-151 936,-151 936,-121 1059,-121 1059,-151"/>
<text text-anchor="start" x="944" y="-139" font-family="Helvetica,sans-Serif" font-size="10.00">engine/core/rendering</text>
<text text-anchor="middle" x="997.5" y="-128" font-family="Helvetica,sans-Serif" font-size="10.00">/rendererFlags.h</text>
</a>
</g>
</g>
<!-- Node5&#45;&gt;Node8 -->
<g id="edge7_Node000005_Node000008" class="edge">
<title>Node5&#45;&gt;Node8</title>
<g id="a_edge7_Node000005_Node000008"><a xlink:title=" ">
<path fill="none" stroke="#63b8ff" d="M927.47,-186.8C939.71,-178.1 955.56,-166.82 969.09,-157.2"/>
<polygon fill="#63b8ff" stroke="#63b8ff" points="971.46,-159.81 977.58,-151.16 967.4,-154.11 971.46,-159.81"/>
</a>
</g>
</g>
<!-- Node10 -->
<g id="Node000010" class="node">
<title>Node10</title>
<g id="a_Node000010"><a xlink:href="game_object_8h.html" target="_top" xlink:title=" ">
<polygon fill="white" stroke="#666666" points="519,-145.5 366,-145.5 366,-126.5 519,-126.5 519,-145.5"/>
<text text-anchor="middle" x="442.5" y="-133.5" font-family="Helvetica,sans-Serif" font-size="10.00">engine/public/gameObject.h</text>
</a>
</g>
</g>
<!-- Node5&#45;&gt;Node10 -->
<g id="edge9_Node000005_Node000010" class="edge">
<title>Node5&#45;&gt;Node10</title>
<g id="a_edge9_Node000005_Node000010"><a xlink:title=" ">
<path fill="none" stroke="#63b8ff" d="M845.75,-192.5C760.03,-180.7 605.28,-159.4 514.44,-146.9"/>
<polygon fill="#63b8ff" stroke="#63b8ff" points="514.89,-143.43 504.5,-145.53 513.93,-150.36 514.89,-143.43"/>
</a>
</g>
</g>
<!-- Node5&#45;&gt;Node20 -->
<g id="edge26_Node000005_Node000020" class="edge">
<title>Node5&#45;&gt;Node20</title>
<g id="a_edge26_Node000005_Node000020"><a xlink:title=" ">
<path fill="none" stroke="#63b8ff" d="M845.81,-197.49C745.66,-191.34 541.34,-176.86 358.1,-150.97"/>
<polygon fill="#63b8ff" stroke="#63b8ff" points="358.4,-147.48 348.01,-149.53 357.41,-154.41 358.4,-147.48"/>
</a>
</g>
</g>
<!-- Node9 -->
<g id="Node000009" class="node">
<title>Node9</title>
<g id="a_Node000009"><a xlink:title=" ">
<polygon fill="#e0e0e0" stroke="#999999" points="1022.5,-85 972.5,-85 972.5,-66 1022.5,-66 1022.5,-85"/>
<text text-anchor="middle" x="997.5" y="-73" font-family="Helvetica,sans-Serif" font-size="10.00">cstdint</text>
</a>
</g>
</g>
<!-- Node8&#45;&gt;Node9 -->
<g id="edge8_Node000008_Node000009" class="edge">
<title>Node8&#45;&gt;Node9</title>
<g id="a_edge8_Node000008_Node000009"><a xlink:title=" ">
<path fill="none" stroke="#63b8ff" d="M997.5,-120.84C997.5,-113.21 997.5,-103.7 997.5,-95.45"/>
<polygon fill="#63b8ff" stroke="#63b8ff" points="1001,-95.27 997.5,-85.27 994,-95.27 1001,-95.27"/>
</a>
</g>
</g>
<!-- Node10&#45;&gt;Node2 -->
<g id="edge14_Node000010_Node000002" class="edge">
<title>Node10&#45;&gt;Node2</title>
<g id="a_edge14_Node000010_Node000002"><a xlink:title=" ">
<path fill="none" stroke="#63b8ff" d="M392.66,-126.43C381.13,-124.55 368.9,-122.63 357.5,-121 226.31,-102.23 192.1,-107.49 61.5,-85 60.04,-84.75 58.56,-84.48 57.06,-84.19"/>
<polygon fill="#63b8ff" stroke="#63b8ff" points="57.64,-80.74 47.14,-82.17 56.24,-87.6 57.64,-80.74"/>
</a>
</g>
</g>
<!-- Node11 -->
<g id="Node000011" class="node">
<title>Node11</title>
<g id="a_Node000011"><a xlink:title=" ">
<polygon fill="#e0e0e0" stroke="#999999" points="325.5,-85 261.5,-85 261.5,-66 325.5,-66 325.5,-85"/>
<text text-anchor="middle" x="293.5" y="-73" font-family="Helvetica,sans-Serif" font-size="10.00">algorithm</text>
</a>
</g>
</g>
<!-- Node10&#45;&gt;Node11 -->
<g id="edge10_Node000010_Node000011" class="edge">
<title>Node10&#45;&gt;Node11</title>
<g id="a_edge10_Node000010_Node000011"><a xlink:title=" ">
<path fill="none" stroke="#63b8ff" d="M420.83,-126.49C395.56,-116.57 353.59,-100.09 324.78,-88.78"/>
<polygon fill="#63b8ff" stroke="#63b8ff" points="325.78,-85.41 315.19,-85.02 323.22,-91.93 325.78,-85.41"/>
</a>
</g>
</g>
<!-- Node12 -->
<g id="Node000012" class="node">
<title>Node12</title>
<g id="a_Node000012"><a xlink:title=" ">
<polygon fill="#e0e0e0" stroke="#999999" points="502.5,-24.5 446.5,-24.5 446.5,-5.5 502.5,-5.5 502.5,-24.5"/>
<text text-anchor="middle" x="474.5" y="-12.5" font-family="Helvetica,sans-Serif" font-size="10.00">optional</text>
</a>
</g>
</g>
<!-- Node10&#45;&gt;Node12 -->
<g id="edge11_Node000010_Node000012" class="edge">
<title>Node10&#45;&gt;Node12</title>
<g id="a_edge11_Node000010_Node000012"><a xlink:title=" ">
<path fill="none" stroke="#63b8ff" d="M421.61,-126.46C395.65,-114.54 356.61,-91.49 372.5,-66 386.5,-43.55 413.83,-30.9 436.69,-23.94"/>
<polygon fill="#63b8ff" stroke="#63b8ff" points="437.78,-27.27 446.48,-21.21 435.91,-20.53 437.78,-27.27"/>
</a>
</g>
</g>
<!-- Node13 -->
<g id="Node000013" class="node">
<title>Node13</title>
<g id="a_Node000013"><a xlink:title=" ">
<polygon fill="#e0e0e0" stroke="#999999" points="738.5,-85 688.5,-85 688.5,-66 738.5,-66 738.5,-85"/>
<text text-anchor="middle" x="713.5" y="-73" font-family="Helvetica,sans-Serif" font-size="10.00">ranges</text>
</a>
</g>
</g>
<!-- Node10&#45;&gt;Node13 -->
<g id="edge12_Node000010_Node000013" class="edge">
<title>Node10&#45;&gt;Node13</title>
<g id="a_edge12_Node000010_Node000013"><a xlink:title=" ">
<path fill="none" stroke="#63b8ff" d="M486.06,-126.46C531.83,-117.35 606.14,-102.18 678.56,-85.39"/>
<polygon fill="#63b8ff" stroke="#63b8ff" points="679.36,-88.79 688.3,-83.11 677.77,-81.98 679.36,-88.79"/>
</a>
</g>
</g>
<!-- Node14 -->
<g id="Node000014" class="node">
<title>Node14</title>
<g id="a_Node000014"><a xlink:title=" ">
<polygon fill="#e0e0e0" stroke="#999999" points="156.5,-24.5 112.5,-24.5 112.5,-5.5 156.5,-5.5 156.5,-24.5"/>
<text text-anchor="middle" x="134.5" y="-12.5" font-family="Helvetica,sans-Serif" font-size="10.00">string</text>
</a>
</g>
</g>
<!-- Node10&#45;&gt;Node14 -->
<g id="edge13_Node000010_Node000014" class="edge">
<title>Node10&#45;&gt;Node14</title>
<g id="a_edge13_Node000010_Node000014"><a xlink:title=" ">
<path fill="none" stroke="#63b8ff" d="M390.81,-126.45C379.82,-124.64 368.28,-122.75 357.5,-121 307.52,-112.89 165.36,-123.53 132.5,-85 120.86,-71.35 123.52,-50.08 127.73,-34.76"/>
<polygon fill="#63b8ff" stroke="#63b8ff" points="131.18,-35.44 130.89,-24.85 124.52,-33.31 131.18,-35.44"/>
</a>
</g>
</g>
<!-- Node15 -->
<g id="Node000015" class="node">
<title>Node15</title>
<g id="a_Node000015"><a xlink:href="scene_8h.html" target="_top" xlink:title=" ">
<polygon fill="white" stroke="#666666" points="503.5,-85 381.5,-85 381.5,-66 503.5,-66 503.5,-85"/>
<text text-anchor="middle" x="442.5" y="-73" font-family="Helvetica,sans-Serif" font-size="10.00">engine/public/scene.h</text>
</a>
</g>
</g>
<!-- Node10&#45;&gt;Node15 -->
<g id="edge15_Node000010_Node000015" class="edge">
<title>Node10&#45;&gt;Node15</title>
<g id="a_edge15_Node000010_Node000015"><a xlink:title=" ">
<path fill="none" stroke="#63b8ff" d="M442.5,-126.37C442.5,-118.25 442.5,-105.81 442.5,-95.39"/>
<polygon fill="#63b8ff" stroke="#63b8ff" points="446,-95.17 442.5,-85.17 439,-95.17 446,-95.17"/>
</a>
</g>
</g>
<!-- Node16 -->
<g id="Node000016" class="node">
<title>Node16</title>
<g id="a_Node000016"><a xlink:href="transform_8h.html" target="_top" xlink:title=" ">
<polygon fill="white" stroke="#666666" points="898.5,-85 756.5,-85 756.5,-66 898.5,-66 898.5,-85"/>
<text text-anchor="middle" x="827.5" y="-73" font-family="Helvetica,sans-Serif" font-size="10.00">engine/public/transform.h</text>
</a>
</g>
</g>
<!-- Node10&#45;&gt;Node16 -->
<g id="edge16_Node000010_Node000016" class="edge">
<title>Node10&#45;&gt;Node16</title>
<g id="a_edge16_Node000010_Node000016"><a xlink:title=" ">
<path fill="none" stroke="#63b8ff" d="M498.48,-126.49C568.2,-115.9 687.13,-97.83 761.29,-86.56"/>
<polygon fill="#63b8ff" stroke="#63b8ff" points="762.09,-89.98 771.45,-85.02 761.04,-83.06 762.09,-89.98"/>
</a>
</g>
</g>
<!-- Node18 -->
<g id="Node000018" class="node">
<title>Node18</title>
<g id="a_Node000018"><a xlink:href="component_8h.html" target="_top" xlink:title=" ">
<polygon fill="white" stroke="#666666" points="671,-85 522,-85 522,-66 671,-66 671,-85"/>
<text text-anchor="middle" x="596.5" y="-73" font-family="Helvetica,sans-Serif" font-size="10.00">engine/public/component.h</text>
</a>
</g>
</g>
<!-- Node10&#45;&gt;Node18 -->
<g id="edge20_Node000010_Node000018" class="edge">
<title>Node10&#45;&gt;Node18</title>
<g id="a_edge20_Node000010_Node000018"><a xlink:title=" ">
<path fill="none" stroke="#63b8ff" d="M464.89,-126.49C491.12,-116.53 534.78,-99.95 564.56,-88.63"/>
<polygon fill="#63b8ff" stroke="#63b8ff" points="565.97,-91.84 574.08,-85.02 563.49,-85.3 565.97,-91.84"/>
</a>
</g>
</g>
<!-- Node19 -->
<g id="Node000019" class="node">
<title>Node19</title>
<g id="a_Node000019"><a xlink:href="uuid_8h.html" target="_top" xlink:title=" ">
<polygon fill="white" stroke="#666666" points="243,-85 142,-85 142,-66 243,-66 243,-85"/>
<text text-anchor="middle" x="192.5" y="-73" font-family="Helvetica,sans-Serif" font-size="10.00">engine/util/uuid.h</text>
</a>
</g>
</g>
<!-- Node10&#45;&gt;Node19 -->
<g id="edge23_Node000010_Node000019" class="edge">
<title>Node10&#45;&gt;Node19</title>
<g id="a_edge23_Node000010_Node000019"><a xlink:title=" ">
<path fill="none" stroke="#63b8ff" d="M406.15,-126.49C361.9,-116.14 287.11,-98.64 238.79,-87.33"/>
<polygon fill="#63b8ff" stroke="#63b8ff" points="239.43,-83.89 228.9,-85.02 237.84,-90.7 239.43,-83.89"/>
</a>
</g>
</g>
<!-- Node16&#45;&gt;Node6 -->
<g id="edge17_Node000016_Node000006" class="edge">
<title>Node16&#45;&gt;Node6</title>
<g id="a_edge17_Node000016_Node000006"><a xlink:title=" ">
<path fill="none" stroke="#63b8ff" d="M834.73,-65.87C842.04,-57.14 853.52,-43.43 862.6,-32.59"/>
<polygon fill="#63b8ff" stroke="#63b8ff" points="865.5,-34.58 869.24,-24.67 860.14,-30.09 865.5,-34.58"/>
</a>
</g>
</g>
<!-- Node16&#45;&gt;Node12 -->
<g id="edge18_Node000016_Node000012" class="edge">
<title>Node16&#45;&gt;Node12</title>
<g id="a_edge18_Node000016_Node000012"><a xlink:title=" ">
<path fill="none" stroke="#63b8ff" d="M776.17,-65.99C704.62,-54.14 576.54,-32.91 512.76,-22.34"/>
<polygon fill="#63b8ff" stroke="#63b8ff" points="513.16,-18.86 502.73,-20.68 512.02,-25.77 513.16,-18.86"/>
</a>
</g>
</g>
<!-- Node17 -->
<g id="Node000017" class="node">
<title>Node17</title>
<g id="a_Node000017"><a xlink:href="vector3_8h.html" target="_top" xlink:title=" ">
<polygon fill="white" stroke="#666666" points="829,-30 728,-30 728,0 829,0 829,-30"/>
<text text-anchor="start" x="736" y="-18" font-family="Helvetica,sans-Serif" font-size="10.00">engine/public/util</text>
<text text-anchor="middle" x="778.5" y="-7" font-family="Helvetica,sans-Serif" font-size="10.00">/vector3.h</text>
</a>
</g>
</g>
<!-- Node16&#45;&gt;Node17 -->
<g id="edge19_Node000016_Node000017" class="edge">
<title>Node16&#45;&gt;Node17</title>
<g id="a_edge19_Node000016_Node000017"><a xlink:title=" ">
<path fill="none" stroke="#63b8ff" d="M820.27,-65.87C814.11,-58.52 805,-47.63 796.85,-37.91"/>
<polygon fill="#63b8ff" stroke="#63b8ff" points="799.43,-35.53 790.32,-30.11 794.06,-40.03 799.43,-35.53"/>
</a>
</g>
</g>
<!-- Node18&#45;&gt;Node6 -->
<g id="edge21_Node000018_Node000006" class="edge">
<title>Node18&#45;&gt;Node6</title>
<g id="a_edge21_Node000018_Node000006"><a xlink:title=" ">
<path fill="none" stroke="#63b8ff" d="M659.33,-65.96C708.58,-58.55 778.55,-46.42 838.5,-30 840.79,-29.37 843.13,-28.67 845.48,-27.92"/>
<polygon fill="#63b8ff" stroke="#63b8ff" points="846.68,-31.2 855.01,-24.65 844.41,-24.58 846.68,-31.2"/>
</a>
</g>
</g>
<!-- Node18&#45;&gt;Node12 -->
<g id="edge22_Node000018_Node000012" class="edge">
<title>Node18&#45;&gt;Node12</title>
<g id="a_edge22_Node000018_Node000012"><a xlink:title=" ">
<path fill="none" stroke="#63b8ff" d="M578.76,-65.99C558.43,-56.25 524.89,-40.16 501.36,-28.88"/>
<polygon fill="#63b8ff" stroke="#63b8ff" points="502.79,-25.68 492.26,-24.52 499.76,-32 502.79,-25.68"/>
</a>
</g>
</g>
<!-- Node19&#45;&gt;Node14 -->
<g id="edge24_Node000019_Node000014" class="edge">
<title>Node19&#45;&gt;Node14</title>
<g id="a_edge24_Node000019_Node000014"><a xlink:title=" ">
<path fill="none" stroke="#63b8ff" d="M183.94,-65.87C175.12,-56.97 161.16,-42.89 150.32,-31.95"/>
<polygon fill="#63b8ff" stroke="#63b8ff" points="152.62,-29.3 143.09,-24.67 147.65,-34.23 152.62,-29.3"/>
</a>
</g>
</g>
<!-- Node20&#45;&gt;Node12 -->
<g id="edge27_Node000020_Node000012" class="edge">
<title>Node20&#45;&gt;Node12</title>
<g id="a_edge27_Node000020_Node000012"><a xlink:title=" ">
<path fill="none" stroke="#63b8ff" d="M224.84,-128.13C169.67,-119.55 101.85,-101.46 132.5,-66 171.42,-20.98 355.33,-15.71 436.19,-15.62"/>
<polygon fill="#63b8ff" stroke="#63b8ff" points="436.44,-19.12 446.44,-15.63 436.45,-12.12 436.44,-19.12"/>
</a>
</g>
</g>
</g>
</svg>
