<?xml version="1.0" encoding="UTF-8" standalone="no"?>
<!DOCTYPE svg PUBLIC "-//W3C//DTD SVG 1.1//EN"
 "http://www.w3.org/Graphics/SVG/1.1/DTD/svg11.dtd">
<!-- Generated by graphviz version 2.43.0 (0)
 -->
<!-- Title: include/engine/core/rendering/renderable.h Pages: 1 -->
<svg width="773pt" height="258pt"
 viewBox="0.00 0.00 773.00 258.00" xmlns="http://www.w3.org/2000/svg" xmlns:xlink="http://www.w3.org/1999/xlink">
<g id="graph0" class="graph" transform="scale(1 1) rotate(0) translate(4 254)">
<title>include/engine/core/rendering/renderable.h</title>
<!-- Node1 -->
<g id="Node000001" class="node">
<title>Node1</title>
<g id="a_Node000001"><a xlink:title=" ">
<polygon fill="#999999" stroke="#666666" points="353,-250 222,-250 222,-220 353,-220 353,-250"/>
<text text-anchor="start" x="230" y="-238" font-family="Helvetica,sans-Serif" font-size="10.00">include/engine/core</text>
<text text-anchor="middle" x="287.5" y="-227" font-family="Helvetica,sans-Serif" font-size="10.00">/rendering/renderable.h</text>
</a>
</g>
</g>
<!-- Node2 -->
<g id="Node000002" class="node">
<title>Node2</title>
<g id="a_Node000002"><a xlink:href="renderer_8h.html" target="_top" xlink:title=" ">
<polygon fill="white" stroke="#666666" points="209,-184 90,-184 90,-154 209,-154 209,-184"/>
<text text-anchor="start" x="98" y="-172" font-family="Helvetica,sans-Serif" font-size="10.00">include/engine/core</text>
<text text-anchor="middle" x="149.5" y="-161" font-family="Helvetica,sans-Serif" font-size="10.00">/rendering/renderer.h</text>
</a>
</g>
</g>
<!-- Node1&#45;&gt;Node2 -->
<g id="edge1_Node000001_Node000002" class="edge">
<title>Node1&#45;&gt;Node2</title>
<g id="a_edge1_Node000001_Node000002"><a xlink:title=" ">
<path fill="none" stroke="#63b8ff" d="M247.93,-215.65C226.23,-205.58 199.74,-193.3 179.71,-184.01"/>
<polygon fill="#63b8ff" stroke="#63b8ff" points="246.67,-218.92 257.22,-219.95 249.62,-212.57 246.67,-218.92"/>
</a>
</g>
</g>
<!-- Node3 -->
<g id="Node000003" class="node">
<title>Node3</title>
<g id="a_Node000003"><a xlink:href="rendering_service_8h.html" target="_top" xlink:title=" ">
<polygon fill="white" stroke="#666666" points="161,-35.5 0,-35.5 0,-5.5 161,-5.5 161,-35.5"/>
<text text-anchor="start" x="8" y="-23.5" font-family="Helvetica,sans-Serif" font-size="10.00">include/engine/core</text>
<text text-anchor="middle" x="80.5" y="-12.5" font-family="Helvetica,sans-Serif" font-size="10.00">/rendering/renderingService.h</text>
</a>
</g>
</g>
<!-- Node1&#45;&gt;Node3 -->
<g id="edge6_Node000001_Node000003" class="edge">
<title>Node1&#45;&gt;Node3</title>
<g id="a_edge6_Node000001_Node000003"><a xlink:title=" ">
<path fill="none" stroke="#63b8ff" d="M211.96,-225.56C159.76,-217.99 96.88,-204.81 80.5,-184 45.77,-139.89 65.04,-66.16 75.34,-35.52"/>
<polygon fill="#63b8ff" stroke="#63b8ff" points="211.51,-229.03 221.9,-226.95 212.49,-222.1 211.51,-229.03"/>
</a>
</g>
</g>
<!-- Node6 -->
<g id="Node000006" class="node">
<title>Node6</title>
<g id="a_Node000006"><a xlink:href="sprite_8h.html" target="_top" xlink:title=" ">
<polygon fill="white" stroke="#666666" points="347.5,-184 227.5,-184 227.5,-154 347.5,-154 347.5,-184"/>
<text text-anchor="start" x="235.5" y="-172" font-family="Helvetica,sans-Serif" font-size="10.00">include/engine/public</text>
<text text-anchor="middle" x="287.5" y="-161" font-family="Helvetica,sans-Serif" font-size="10.00">/components/sprite.h</text>
</a>
</g>
</g>
<!-- Node1&#45;&gt;Node6 -->
<g id="edge7_Node000001_Node000006" class="edge">
<title>Node1&#45;&gt;Node6</title>
<g id="a_edge7_Node000001_Node000006"><a xlink:title=" ">
<path fill="none" stroke="#63b8ff" d="M287.5,-209.54C287.5,-200.96 287.5,-191.61 287.5,-184.16"/>
<polygon fill="#63b8ff" stroke="#63b8ff" points="284,-209.8 287.5,-219.8 291,-209.8 284,-209.8"/>
</a>
</g>
</g>
<!-- Node7 -->
<g id="Node000007" class="node">
<title>Node7</title>
<g id="a_Node000007"><a xlink:href="image_8h.html" target="_top" xlink:title=" ">
<polygon fill="white" stroke="#666666" points="499.5,-184 365.5,-184 365.5,-154 499.5,-154 499.5,-184"/>
<text text-anchor="start" x="373.5" y="-172" font-family="Helvetica,sans-Serif" font-size="10.00">include/engine/public</text>
<text text-anchor="middle" x="432.5" y="-161" font-family="Helvetica,sans-Serif" font-size="10.00">/components/ui/image.h</text>
</a>
</g>
</g>
<!-- Node1&#45;&gt;Node7 -->
<g id="edge8_Node000001_Node000007" class="edge">
<title>Node1&#45;&gt;Node7</title>
<g id="a_edge8_Node000001_Node000007"><a xlink:title=" ">
<path fill="none" stroke="#63b8ff" d="M328.77,-215.78C351.63,-205.69 379.62,-193.34 400.75,-184.01"/>
<polygon fill="#63b8ff" stroke="#63b8ff" points="327.06,-212.71 319.32,-219.95 329.88,-219.12 327.06,-212.71"/>
</a>
</g>
</g>
<!-- Node10 -->
<g id="Node000010" class="node">
<title>Node10</title>
<g id="a_Node000010"><a xlink:href="text_8h.html" target="_top" xlink:title=" ">
<polygon fill="white" stroke="#666666" points="641,-184 518,-184 518,-154 641,-154 641,-184"/>
<text text-anchor="start" x="526" y="-172" font-family="Helvetica,sans-Serif" font-size="10.00">include/engine/public</text>
<text text-anchor="middle" x="579.5" y="-161" font-family="Helvetica,sans-Serif" font-size="10.00">/components/ui/text.h</text>
</a>
</g>
</g>
<!-- Node1&#45;&gt;Node10 -->
<g id="edge11_Node000001_Node000010" class="edge">
<title>Node1&#45;&gt;Node10</title>
<g id="a_edge11_Node000001_Node000010"><a xlink:title=" ">
<path fill="none" stroke="#63b8ff" d="M361.65,-217.75C409.86,-207.18 472,-193.56 517.57,-183.57"/>
<polygon fill="#63b8ff" stroke="#63b8ff" points="360.6,-214.4 351.58,-219.95 362.1,-221.23 360.6,-214.4"/>
</a>
</g>
</g>
<!-- Node2&#45;&gt;Node3 -->
<g id="edge2_Node000002_Node000003" class="edge">
<title>Node2&#45;&gt;Node3</title>
<g id="a_edge2_Node000002_Node000003"><a xlink:title=" ">
<path fill="none" stroke="#63b8ff" d="M134.31,-145.43C128.97,-137.01 123.14,-127.25 118.5,-118 104.29,-89.68 91.66,-54.69 85.15,-35.58"/>
<polygon fill="#63b8ff" stroke="#63b8ff" points="131.46,-147.47 139.84,-153.95 137.33,-143.66 131.46,-147.47"/>
</a>
</g>
</g>
<!-- Node4 -->
<g id="Node000004" class="node">
<title>Node4</title>
<g id="a_Node000004"><a xlink:href="irendering__strategy__factory_8h.html" target="_top" xlink:title=" ">
<polygon fill="white" stroke="#666666" points="289.5,-118 127.5,-118 127.5,-77 289.5,-77 289.5,-118"/>
<text text-anchor="start" x="135.5" y="-106" font-family="Helvetica,sans-Serif" font-size="10.00">include/engine/core</text>
<text text-anchor="start" x="135.5" y="-95" font-family="Helvetica,sans-Serif" font-size="10.00">/rendering/strategies</text>
<text text-anchor="middle" x="208.5" y="-84" font-family="Helvetica,sans-Serif" font-size="10.00">/irendering_strategy_factory.h</text>
</a>
</g>
</g>
<!-- Node2&#45;&gt;Node4 -->
<g id="edge3_Node000002_Node000004" class="edge">
<title>Node2&#45;&gt;Node4</title>
<g id="a_edge3_Node000002_Node000004"><a xlink:title=" ">
<path fill="none" stroke="#63b8ff" d="M168.06,-146.14C175.69,-137.15 184.46,-126.81 191.88,-118.07"/>
<polygon fill="#63b8ff" stroke="#63b8ff" points="165.24,-144.05 161.44,-153.94 170.58,-148.58 165.24,-144.05"/>
</a>
</g>
</g>
<!-- Node4&#45;&gt;Node3 -->
<g id="edge4_Node000004_Node000003" class="edge">
<title>Node4&#45;&gt;Node3</title>
<g id="a_edge4_Node000004_Node000003"><a xlink:title=" ">
<path fill="none" stroke="#63b8ff" d="M166.38,-71.82C145.93,-59.84 122.1,-45.87 104.73,-35.7"/>
<polygon fill="#63b8ff" stroke="#63b8ff" points="164.81,-74.95 175.2,-76.99 168.35,-68.92 164.81,-74.95"/>
</a>
</g>
</g>
<!-- Node5 -->
<g id="Node000005" class="node">
<title>Node5</title>
<g id="a_Node000005"><a xlink:href="sdl__strategy__factory_8h.html" target="_top" xlink:title=" ">
<polygon fill="white" stroke="#666666" points="323.5,-41 179.5,-41 179.5,0 323.5,0 323.5,-41"/>
<text text-anchor="start" x="187.5" y="-29" font-family="Helvetica,sans-Serif" font-size="10.00">include/engine/core</text>
<text text-anchor="start" x="187.5" y="-18" font-family="Helvetica,sans-Serif" font-size="10.00">/rendering/strategies</text>
<text text-anchor="middle" x="251.5" y="-7" font-family="Helvetica,sans-Serif" font-size="10.00">/sdl/sdl_strategy_factory.h</text>
</a>
</g>
</g>
<!-- Node4&#45;&gt;Node5 -->
<g id="edge5_Node000004_Node000005" class="edge">
<title>Node4&#45;&gt;Node5</title>
<g id="a_edge5_Node000004_Node000005"><a xlink:title=" ">
<path fill="none" stroke="#63b8ff" d="M224.78,-68.11C229.95,-59.09 235.55,-49.33 240.28,-41.07"/>
<polygon fill="#63b8ff" stroke="#63b8ff" points="221.74,-66.38 219.8,-76.79 227.81,-69.86 221.74,-66.38"/>
</a>
</g>
</g>
<!-- Node8 -->
<g id="Node000008" class="node">
<title>Node8</title>
<g id="a_Node000008"><a xlink:href="ui__input_8h.html" target="_top" xlink:title=" ">
<polygon fill="white" stroke="#666666" points="618,-112.5 477,-112.5 477,-82.5 618,-82.5 618,-112.5"/>
<text text-anchor="start" x="485" y="-100.5" font-family="Helvetica,sans-Serif" font-size="10.00">include/engine/public</text>
<text text-anchor="middle" x="547.5" y="-89.5" font-family="Helvetica,sans-Serif" font-size="10.00">/ui/interactable/ui_input.h</text>
</a>
</g>
</g>
<!-- Node7&#45;&gt;Node8 -->
<g id="edge9_Node000007_Node000008" class="edge">
<title>Node7&#45;&gt;Node8</title>
<g id="a_edge9_Node000007_Node000008"><a xlink:title=" ">
<path fill="none" stroke="#63b8ff" d="M464.4,-148.72C483.38,-137.25 507.05,-122.95 524.26,-112.54"/>
<polygon fill="#63b8ff" stroke="#63b8ff" points="462.52,-145.77 455.77,-153.94 466.14,-151.76 462.52,-145.77"/>
</a>
</g>
</g>
<!-- Node9 -->
<g id="Node000009" class="node">
<title>Node9</title>
<g id="a_Node000009"><a xlink:href="ui__image_8h.html" target="_top" xlink:title=" ">
<polygon fill="white" stroke="#666666" points="458.5,-112.5 338.5,-112.5 338.5,-82.5 458.5,-82.5 458.5,-112.5"/>
<text text-anchor="start" x="346.5" y="-100.5" font-family="Helvetica,sans-Serif" font-size="10.00">include/engine/public</text>
<text text-anchor="middle" x="398.5" y="-89.5" font-family="Helvetica,sans-Serif" font-size="10.00">/ui/ui_image.h</text>
</a>
</g>
</g>
<!-- Node7&#45;&gt;Node9 -->
<g id="edge10_Node000007_Node000009" class="edge">
<title>Node7&#45;&gt;Node9</title>
<g id="a_edge10_Node000007_Node000009"><a xlink:title=" ">
<path fill="none" stroke="#63b8ff" d="M421.12,-144.73C415.9,-134.06 409.88,-121.77 405.37,-112.54"/>
<polygon fill="#63b8ff" stroke="#63b8ff" points="418.08,-146.49 425.62,-153.94 424.37,-143.41 418.08,-146.49"/>
</a>
</g>
</g>
<!-- Node10&#45;&gt;Node8 -->
<g id="edge13_Node000010_Node000008" class="edge">
<title>Node10&#45;&gt;Node8</title>
<g id="a_edge13_Node000010_Node000008"><a xlink:title=" ">
<path fill="none" stroke="#63b8ff" d="M568.79,-144.73C563.87,-134.06 558.21,-121.77 553.97,-112.54"/>
<polygon fill="#63b8ff" stroke="#63b8ff" points="565.66,-146.32 573.02,-153.94 572.02,-143.39 565.66,-146.32"/>
</a>
</g>
</g>
<!-- Node11 -->
<g id="Node000011" class="node">
<title>Node11</title>
<g id="a_Node000011"><a xlink:href="sdl__text__strategy_8h.html" target="_top" xlink:title=" ">
<polygon fill="white" stroke="#666666" points="765,-118 636,-118 636,-77 765,-77 765,-118"/>
<text text-anchor="start" x="644" y="-106" font-family="Helvetica,sans-Serif" font-size="10.00">include/engine/core</text>
<text text-anchor="start" x="644" y="-95" font-family="Helvetica,sans-Serif" font-size="10.00">/rendering/strategies</text>
<text text-anchor="middle" x="700.5" y="-84" font-family="Helvetica,sans-Serif" font-size="10.00">/sdl/sdl_text_strategy.h</text>
</a>
</g>
</g>
<!-- Node10&#45;&gt;Node11 -->
<g id="edge12_Node000010_Node000011" class="edge">
<title>Node10&#45;&gt;Node11</title>
<g id="a_edge12_Node000010_Node000011"><a xlink:title=" ">
<path fill="none" stroke="#63b8ff" d="M612.85,-148.85C629.52,-139.27 649.65,-127.71 666.42,-118.07"/>
<polygon fill="#63b8ff" stroke="#63b8ff" points="610.91,-145.92 603.99,-153.94 614.4,-151.99 610.91,-145.92"/>
</a>
</g>
</g>
</g>
</svg>
