<?xml version="1.0" encoding="UTF-8" standalone="no"?>
<!DOCTYPE svg PUBLIC "-//W3C//DTD SVG 1.1//EN"
 "http://www.w3.org/Graphics/SVG/1.1/DTD/svg11.dtd">
<!-- Generated by graphviz version 2.43.0 (0)
 -->
<!-- Title: include/engine/core/rendering/renderer.h Pages: 1 -->
<svg width="1455pt" height="225pt"
 viewBox="0.00 0.00 1454.50 225.00" xmlns="http://www.w3.org/2000/svg" xmlns:xlink="http://www.w3.org/1999/xlink">
<g id="graph0" class="graph" transform="scale(1 1) rotate(0) translate(4 221)">
<title>include/engine/core/rendering/renderer.h</title>
<!-- Node1 -->
<g id="Node000001" class="node">
<title>Node1</title>
<g id="a_Node000001"><a xlink:title=" ">
<polygon fill="#999999" stroke="#666666" points="1067,-217 948,-217 948,-187 1067,-187 1067,-217"/>
<text text-anchor="start" x="956" y="-205" font-family="Helvetica,sans-Serif" font-size="10.00">include/engine/core</text>
<text text-anchor="middle" x="1007.5" y="-194" font-family="Helvetica,sans-Serif" font-size="10.00">/rendering/renderer.h</text>
</a>
</g>
</g>
<!-- Node2 -->
<g id="Node000002" class="node">
<title>Node2</title>
<g id="a_Node000002"><a xlink:title=" ">
<polygon fill="#e0e0e0" stroke="#999999" points="777.5,-24.5 719.5,-24.5 719.5,-5.5 777.5,-5.5 777.5,-24.5"/>
<text text-anchor="middle" x="748.5" y="-12.5" font-family="Helvetica,sans-Serif" font-size="10.00">memory</text>
</a>
</g>
</g>
<!-- Node1&#45;&gt;Node2 -->
<g id="edge1_Node000001_Node000002" class="edge">
<title>Node1&#45;&gt;Node2</title>
<g id="a_edge1_Node000001_Node000002"><a xlink:title=" ">
<path fill="none" stroke="#63b8ff" d="M947.9,-190.46C921.25,-183.18 891.06,-171.04 869.5,-151 839.19,-122.82 858.93,-96.99 831.5,-66 817.2,-49.84 796.4,-37.33 779.2,-28.86"/>
<polygon fill="#63b8ff" stroke="#63b8ff" points="780.61,-25.66 770.07,-24.57 777.64,-31.99 780.61,-25.66"/>
</a>
</g>
</g>
<!-- Node3 -->
<g id="Node000003" class="node">
<title>Node3</title>
<g id="a_Node000003"><a xlink:title=" ">
<polygon fill="#e0e0e0" stroke="#999999" points="1128.5,-145.5 1020.5,-145.5 1020.5,-126.5 1128.5,-126.5 1128.5,-145.5"/>
<text text-anchor="middle" x="1074.5" y="-133.5" font-family="Helvetica,sans-Serif" font-size="10.00">SDL3/SDL_render.h</text>
</a>
</g>
</g>
<!-- Node1&#45;&gt;Node3 -->
<g id="edge2_Node000001_Node000003" class="edge">
<title>Node1&#45;&gt;Node3</title>
<g id="a_edge2_Node000001_Node000003"><a xlink:title=" ">
<path fill="none" stroke="#63b8ff" d="M1022.37,-186.8C1032.92,-176.72 1047.08,-163.19 1057.98,-152.78"/>
<polygon fill="#63b8ff" stroke="#63b8ff" points="1060.43,-155.28 1065.24,-145.84 1055.59,-150.22 1060.43,-155.28"/>
</a>
</g>
</g>
<!-- Node4 -->
<g id="Node000004" class="node">
<title>Node4</title>
<g id="a_Node000004"><a xlink:href="renderer_flags_8h.html" target="_top" xlink:title=" ">
<polygon fill="white" stroke="#666666" points="1270,-151 1147,-151 1147,-121 1270,-121 1270,-151"/>
<text text-anchor="start" x="1155" y="-139" font-family="Helvetica,sans-Serif" font-size="10.00">engine/core/rendering</text>
<text text-anchor="middle" x="1208.5" y="-128" font-family="Helvetica,sans-Serif" font-size="10.00">/rendererFlags.h</text>
</a>
</g>
</g>
<!-- Node1&#45;&gt;Node4 -->
<g id="edge3_Node000001_Node000004" class="edge">
<title>Node1&#45;&gt;Node4</title>
<g id="a_edge3_Node000001_Node000004"><a xlink:title=" ">
<path fill="none" stroke="#63b8ff" d="M1051.61,-186.95C1081.98,-177.28 1122.51,-164.38 1154.77,-154.11"/>
<polygon fill="#63b8ff" stroke="#63b8ff" points="1156.03,-157.38 1164.49,-151.01 1153.9,-150.71 1156.03,-157.38"/>
</a>
</g>
</g>
<!-- Node6 -->
<g id="Node000006" class="node">
<title>Node6</title>
<g id="a_Node000006"><a xlink:href="game_object_8h.html" target="_top" xlink:title=" ">
<polygon fill="white" stroke="#666666" points="535,-145.5 382,-145.5 382,-126.5 535,-126.5 535,-145.5"/>
<text text-anchor="middle" x="458.5" y="-133.5" font-family="Helvetica,sans-Serif" font-size="10.00">engine/public/gameObject.h</text>
</a>
</g>
</g>
<!-- Node1&#45;&gt;Node6 -->
<g id="edge5_Node000001_Node000006" class="edge">
<title>Node1&#45;&gt;Node6</title>
<g id="a_edge5_Node000001_Node000006"><a xlink:title=" ">
<path fill="none" stroke="#63b8ff" d="M947.96,-194.06C849.85,-182.62 653.92,-159.78 542,-146.73"/>
<polygon fill="#63b8ff" stroke="#63b8ff" points="542.11,-143.22 531.77,-145.54 541.3,-150.18 542.11,-143.22"/>
</a>
</g>
</g>
<!-- Node17 -->
<g id="Node000017" class="node">
<title>Node17</title>
<g id="a_Node000017"><a xlink:href="i_engine_service_8h.html" target="_top" xlink:title=" ">
<polygon fill="white" stroke="#666666" points="1446.5,-145.5 1288.5,-145.5 1288.5,-126.5 1446.5,-126.5 1446.5,-145.5"/>
<text text-anchor="middle" x="1367.5" y="-133.5" font-family="Helvetica,sans-Serif" font-size="10.00">engine/core/iEngineService.h</text>
</a>
</g>
</g>
<!-- Node1&#45;&gt;Node17 -->
<g id="edge21_Node000001_Node000017" class="edge">
<title>Node1&#45;&gt;Node17</title>
<g id="a_edge21_Node000001_Node000017"><a xlink:title=" ">
<path fill="none" stroke="#63b8ff" d="M1067.35,-190.36C1134.67,-178.39 1243.26,-159.09 1309.72,-147.27"/>
<polygon fill="#63b8ff" stroke="#63b8ff" points="1310.38,-150.71 1319.61,-145.51 1309.15,-143.82 1310.38,-150.71"/>
</a>
</g>
</g>
<!-- Node19 -->
<g id="Node000019" class="node">
<title>Node19</title>
<g id="a_Node000019"><a xlink:href="window_8h.html" target="_top" xlink:title=" ">
<polygon fill="white" stroke="#666666" points="1002,-151 879,-151 879,-121 1002,-121 1002,-151"/>
<text text-anchor="start" x="887" y="-139" font-family="Helvetica,sans-Serif" font-size="10.00">engine/core/rendering</text>
<text text-anchor="middle" x="940.5" y="-128" font-family="Helvetica,sans-Serif" font-size="10.00">/window.h</text>
</a>
</g>
</g>
<!-- Node1&#45;&gt;Node19 -->
<g id="edge23_Node000001_Node000019" class="edge">
<title>Node1&#45;&gt;Node19</title>
<g id="a_edge23_Node000001_Node000019"><a xlink:title=" ">
<path fill="none" stroke="#63b8ff" d="M992.63,-186.8C983.87,-178.43 972.62,-167.68 962.81,-158.31"/>
<polygon fill="#63b8ff" stroke="#63b8ff" points="964.98,-155.54 955.33,-151.16 960.14,-160.6 964.98,-155.54"/>
</a>
</g>
</g>
<!-- Node5 -->
<g id="Node000005" class="node">
<title>Node5</title>
<g id="a_Node000005"><a xlink:title=" ">
<polygon fill="#e0e0e0" stroke="#999999" points="1233.5,-85 1183.5,-85 1183.5,-66 1233.5,-66 1233.5,-85"/>
<text text-anchor="middle" x="1208.5" y="-73" font-family="Helvetica,sans-Serif" font-size="10.00">cstdint</text>
</a>
</g>
</g>
<!-- Node4&#45;&gt;Node5 -->
<g id="edge4_Node000004_Node000005" class="edge">
<title>Node4&#45;&gt;Node5</title>
<g id="a_edge4_Node000004_Node000005"><a xlink:title=" ">
<path fill="none" stroke="#63b8ff" d="M1208.5,-120.84C1208.5,-113.21 1208.5,-103.7 1208.5,-95.45"/>
<polygon fill="#63b8ff" stroke="#63b8ff" points="1212,-95.27 1208.5,-85.27 1205,-95.27 1212,-95.27"/>
</a>
</g>
</g>
<!-- Node7 -->
<g id="Node000007" class="node">
<title>Node7</title>
<g id="a_Node000007"><a xlink:title=" ">
<polygon fill="#e0e0e0" stroke="#999999" points="183.5,-85 119.5,-85 119.5,-66 183.5,-66 183.5,-85"/>
<text text-anchor="middle" x="151.5" y="-73" font-family="Helvetica,sans-Serif" font-size="10.00">algorithm</text>
</a>
</g>
</g>
<!-- Node6&#45;&gt;Node7 -->
<g id="edge6_Node000006_Node000007" class="edge">
<title>Node6&#45;&gt;Node7</title>
<g id="a_edge6_Node000006_Node000007"><a xlink:title=" ">
<path fill="none" stroke="#63b8ff" d="M413.86,-126.49C354.72,-115.22 251.15,-95.49 193.41,-84.49"/>
<polygon fill="#63b8ff" stroke="#63b8ff" points="194,-81.04 183.52,-82.6 192.69,-87.91 194,-81.04"/>
</a>
</g>
</g>
<!-- Node8 -->
<g id="Node000008" class="node">
<title>Node8</title>
<g id="a_Node000008"><a xlink:title=" ">
<polygon fill="#e0e0e0" stroke="#999999" points="883.5,-24.5 827.5,-24.5 827.5,-5.5 883.5,-5.5 883.5,-24.5"/>
<text text-anchor="middle" x="855.5" y="-12.5" font-family="Helvetica,sans-Serif" font-size="10.00">optional</text>
</a>
</g>
</g>
<!-- Node6&#45;&gt;Node8 -->
<g id="edge7_Node000006_Node000008" class="edge">
<title>Node6&#45;&gt;Node8</title>
<g id="a_edge7_Node000006_Node000008"><a xlink:title=" ">
<path fill="none" stroke="#63b8ff" d="M535.24,-133.96C630.98,-131.13 787.47,-120.95 831.5,-85 846.36,-72.87 852.04,-50.98 854.2,-35.1"/>
<polygon fill="#63b8ff" stroke="#63b8ff" points="857.71,-35.13 855.23,-24.83 850.75,-34.43 857.71,-35.13"/>
</a>
</g>
</g>
<!-- Node9 -->
<g id="Node000009" class="node">
<title>Node9</title>
<g id="a_Node000009"><a xlink:title=" ">
<polygon fill="#e0e0e0" stroke="#999999" points="449.5,-85 399.5,-85 399.5,-66 449.5,-66 449.5,-85"/>
<text text-anchor="middle" x="424.5" y="-73" font-family="Helvetica,sans-Serif" font-size="10.00">ranges</text>
</a>
</g>
</g>
<!-- Node6&#45;&gt;Node9 -->
<g id="edge8_Node000006_Node000009" class="edge">
<title>Node6&#45;&gt;Node9</title>
<g id="a_edge8_Node000006_Node000009"><a xlink:title=" ">
<path fill="none" stroke="#63b8ff" d="M453.48,-126.37C448.56,-117.9 440.91,-104.74 434.71,-94.07"/>
<polygon fill="#63b8ff" stroke="#63b8ff" points="437.59,-92.05 429.54,-85.17 431.54,-95.57 437.59,-92.05"/>
</a>
</g>
</g>
<!-- Node10 -->
<g id="Node000010" class="node">
<title>Node10</title>
<g id="a_Node000010"><a xlink:title=" ">
<polygon fill="#e0e0e0" stroke="#999999" points="153.5,-24.5 109.5,-24.5 109.5,-5.5 153.5,-5.5 153.5,-24.5"/>
<text text-anchor="middle" x="131.5" y="-12.5" font-family="Helvetica,sans-Serif" font-size="10.00">string</text>
</a>
</g>
</g>
<!-- Node6&#45;&gt;Node10 -->
<g id="edge9_Node000006_Node000010" class="edge">
<title>Node6&#45;&gt;Node10</title>
<g id="a_edge9_Node000006_Node000010"><a xlink:title=" ">
<path fill="none" stroke="#63b8ff" d="M385.63,-126.46C339.72,-119.3 279.97,-106.64 230.5,-85 199.21,-71.31 167.62,-47.08 148.81,-31.28"/>
<polygon fill="#63b8ff" stroke="#63b8ff" points="150.98,-28.53 141.11,-24.68 146.42,-33.84 150.98,-28.53"/>
</a>
</g>
</g>
<!-- Node11 -->
<g id="Node000011" class="node">
<title>Node11</title>
<g id="a_Node000011"><a xlink:title=" ">
<polygon fill="#e0e0e0" stroke="#999999" points="515,-85 468,-85 468,-66 515,-66 515,-85"/>
<text text-anchor="middle" x="491.5" y="-73" font-family="Helvetica,sans-Serif" font-size="10.00">vector</text>
</a>
</g>
</g>
<!-- Node6&#45;&gt;Node11 -->
<g id="edge10_Node000006_Node000011" class="edge">
<title>Node6&#45;&gt;Node11</title>
<g id="a_edge10_Node000006_Node000011"><a xlink:title=" ">
<path fill="none" stroke="#63b8ff" d="M463.37,-126.37C468.15,-117.9 475.57,-104.74 481.59,-94.07"/>
<polygon fill="#63b8ff" stroke="#63b8ff" points="484.75,-95.6 486.61,-85.17 478.65,-92.16 484.75,-95.6"/>
</a>
</g>
</g>
<!-- Node12 -->
<g id="Node000012" class="node">
<title>Node12</title>
<g id="a_Node000012"><a xlink:href="scene_8h.html" target="_top" xlink:title=" ">
<polygon fill="white" stroke="#666666" points="655.5,-85 533.5,-85 533.5,-66 655.5,-66 655.5,-85"/>
<text text-anchor="middle" x="594.5" y="-73" font-family="Helvetica,sans-Serif" font-size="10.00">engine/public/scene.h</text>
</a>
</g>
</g>
<!-- Node6&#45;&gt;Node12 -->
<g id="edge11_Node000006_Node000012" class="edge">
<title>Node6&#45;&gt;Node12</title>
<g id="a_edge11_Node000006_Node000012"><a xlink:title=" ">
<path fill="none" stroke="#63b8ff" d="M478.28,-126.49C501.14,-116.66 538.99,-100.38 565.26,-89.08"/>
<polygon fill="#63b8ff" stroke="#63b8ff" points="566.9,-92.18 574.7,-85.02 564.13,-85.75 566.9,-92.18"/>
</a>
</g>
</g>
<!-- Node13 -->
<g id="Node000013" class="node">
<title>Node13</title>
<g id="a_Node000013"><a xlink:href="transform_8h.html" target="_top" xlink:title=" ">
<polygon fill="white" stroke="#666666" points="381.5,-85 239.5,-85 239.5,-66 381.5,-66 381.5,-85"/>
<text text-anchor="middle" x="310.5" y="-73" font-family="Helvetica,sans-Serif" font-size="10.00">engine/public/transform.h</text>
</a>
</g>
</g>
<!-- Node6&#45;&gt;Node13 -->
<g id="edge12_Node000006_Node000013" class="edge">
<title>Node6&#45;&gt;Node13</title>
<g id="a_edge12_Node000006_Node000013"><a xlink:title=" ">
<path fill="none" stroke="#63b8ff" d="M436.98,-126.49C411.88,-116.57 370.18,-100.09 341.57,-88.78"/>
<polygon fill="#63b8ff" stroke="#63b8ff" points="342.63,-85.44 332.05,-85.02 340.06,-91.95 342.63,-85.44"/>
</a>
</g>
</g>
<!-- Node15 -->
<g id="Node000015" class="node">
<title>Node15</title>
<g id="a_Node000015"><a xlink:href="component_8h.html" target="_top" xlink:title=" ">
<polygon fill="white" stroke="#666666" points="823,-85 674,-85 674,-66 823,-66 823,-85"/>
<text text-anchor="middle" x="748.5" y="-73" font-family="Helvetica,sans-Serif" font-size="10.00">engine/public/component.h</text>
</a>
</g>
</g>
<!-- Node6&#45;&gt;Node15 -->
<g id="edge16_Node000006_Node000015" class="edge">
<title>Node6&#45;&gt;Node15</title>
<g id="a_edge16_Node000006_Node000015"><a xlink:title=" ">
<path fill="none" stroke="#63b8ff" d="M500.67,-126.49C552.43,-116.05 640.21,-98.35 696.21,-87.05"/>
<polygon fill="#63b8ff" stroke="#63b8ff" points="697.17,-90.43 706.28,-85.02 695.79,-83.56 697.17,-90.43"/>
</a>
</g>
</g>
<!-- Node16 -->
<g id="Node000016" class="node">
<title>Node16</title>
<g id="a_Node000016"><a xlink:href="uuid_8h.html" target="_top" xlink:title=" ">
<polygon fill="white" stroke="#666666" points="101,-85 0,-85 0,-66 101,-66 101,-85"/>
<text text-anchor="middle" x="50.5" y="-73" font-family="Helvetica,sans-Serif" font-size="10.00">engine/util/uuid.h</text>
</a>
</g>
</g>
<!-- Node6&#45;&gt;Node16 -->
<g id="edge19_Node000006_Node000016" class="edge">
<title>Node6&#45;&gt;Node16</title>
<g id="a_edge19_Node000006_Node000016"><a xlink:title=" ">
<path fill="none" stroke="#63b8ff" d="M399.17,-126.49C322.29,-115.47 188.91,-96.35 111.31,-85.22"/>
<polygon fill="#63b8ff" stroke="#63b8ff" points="111.6,-81.73 101.2,-83.77 110.61,-88.65 111.6,-81.73"/>
</a>
</g>
</g>
<!-- Node13&#45;&gt;Node2 -->
<g id="edge13_Node000013_Node000002" class="edge">
<title>Node13&#45;&gt;Node2</title>
<g id="a_edge13_Node000013_Node000002"><a xlink:title=" ">
<path fill="none" stroke="#63b8ff" d="M374.19,-65.99C466.19,-53.71 633.53,-31.36 709.33,-21.23"/>
<polygon fill="#63b8ff" stroke="#63b8ff" points="709.95,-24.68 719.4,-19.89 709.02,-17.74 709.95,-24.68"/>
</a>
</g>
</g>
<!-- Node13&#45;&gt;Node8 -->
<g id="edge14_Node000013_Node000008" class="edge">
<title>Node13&#45;&gt;Node8</title>
<g id="a_edge14_Node000013_Node000008"><a xlink:title=" ">
<path fill="none" stroke="#63b8ff" d="M381.59,-66.89C384.6,-66.59 387.58,-66.29 390.5,-66 566.37,-48.66 611.64,-55.61 786.5,-30 796.55,-28.53 807.35,-26.54 817.35,-24.52"/>
<polygon fill="#63b8ff" stroke="#63b8ff" points="818.34,-27.89 827.42,-22.42 816.92,-21.03 818.34,-27.89"/>
</a>
</g>
</g>
<!-- Node14 -->
<g id="Node000014" class="node">
<title>Node14</title>
<g id="a_Node000014"><a xlink:href="vector3_8h.html" target="_top" xlink:title=" ">
<polygon fill="white" stroke="#666666" points="361,-30 260,-30 260,0 361,0 361,-30"/>
<text text-anchor="start" x="268" y="-18" font-family="Helvetica,sans-Serif" font-size="10.00">engine/public/util</text>
<text text-anchor="middle" x="310.5" y="-7" font-family="Helvetica,sans-Serif" font-size="10.00">/vector3.h</text>
</a>
</g>
</g>
<!-- Node13&#45;&gt;Node14 -->
<g id="edge15_Node000013_Node000014" class="edge">
<title>Node13&#45;&gt;Node14</title>
<g id="a_edge15_Node000013_Node000014"><a xlink:title=" ">
<path fill="none" stroke="#63b8ff" d="M310.5,-65.87C310.5,-59.11 310.5,-49.35 310.5,-40.26"/>
<polygon fill="#63b8ff" stroke="#63b8ff" points="314,-40.11 310.5,-30.11 307,-40.11 314,-40.11"/>
</a>
</g>
</g>
<!-- Node15&#45;&gt;Node2 -->
<g id="edge17_Node000015_Node000002" class="edge">
<title>Node15&#45;&gt;Node2</title>
<g id="a_edge17_Node000015_Node000002"><a xlink:title=" ">
<path fill="none" stroke="#63b8ff" d="M748.5,-65.87C748.5,-57.75 748.5,-45.31 748.5,-34.89"/>
<polygon fill="#63b8ff" stroke="#63b8ff" points="752,-34.67 748.5,-24.67 745,-34.67 752,-34.67"/>
</a>
</g>
</g>
<!-- Node15&#45;&gt;Node8 -->
<g id="edge18_Node000015_Node000008" class="edge">
<title>Node15&#45;&gt;Node8</title>
<g id="a_edge18_Node000015_Node000008"><a xlink:title=" ">
<path fill="none" stroke="#63b8ff" d="M764.29,-65.87C781.83,-56.28 810.38,-40.67 830.87,-29.47"/>
<polygon fill="#63b8ff" stroke="#63b8ff" points="832.55,-32.54 839.65,-24.67 829.19,-26.39 832.55,-32.54"/>
</a>
</g>
</g>
<!-- Node16&#45;&gt;Node10 -->
<g id="edge20_Node000016_Node000010" class="edge">
<title>Node16&#45;&gt;Node10</title>
<g id="a_edge20_Node000016_Node000010"><a xlink:title=" ">
<path fill="none" stroke="#63b8ff" d="M62.45,-65.87C75.25,-56.62 95.8,-41.78 111.15,-30.69"/>
<polygon fill="#63b8ff" stroke="#63b8ff" points="113.44,-33.36 119.5,-24.67 109.34,-27.68 113.44,-33.36"/>
</a>
</g>
</g>
<!-- Node18 -->
<g id="Node000018" class="node">
<title>Node18</title>
<g id="a_Node000018"><a xlink:title=" ">
<polygon fill="#e0e0e0" stroke="#999999" points="1397.5,-85 1337.5,-85 1337.5,-66 1397.5,-66 1397.5,-85"/>
<text text-anchor="middle" x="1367.5" y="-73" font-family="Helvetica,sans-Serif" font-size="10.00">concepts</text>
</a>
</g>
</g>
<!-- Node17&#45;&gt;Node18 -->
<g id="edge22_Node000017_Node000018" class="edge">
<title>Node17&#45;&gt;Node18</title>
<g id="a_edge22_Node000017_Node000018"><a xlink:title=" ">
<path fill="none" stroke="#63b8ff" d="M1367.5,-126.37C1367.5,-118.25 1367.5,-105.81 1367.5,-95.39"/>
<polygon fill="#63b8ff" stroke="#63b8ff" points="1371,-95.17 1367.5,-85.17 1364,-95.17 1371,-95.17"/>
</a>
</g>
</g>
<!-- Node19&#45;&gt;Node8 -->
<g id="edge24_Node000019_Node000008" class="edge">
<title>Node19&#45;&gt;Node8</title>
<g id="a_edge24_Node000019_Node000008"><a xlink:title=" ">
<path fill="none" stroke="#63b8ff" d="M934.04,-120.9C927.14,-106.51 915.45,-83.8 902.5,-66 893.52,-53.66 881.76,-41.14 872.24,-31.72"/>
<polygon fill="#63b8ff" stroke="#63b8ff" points="874.51,-29.05 864.89,-24.61 869.65,-34.08 874.51,-29.05"/>
</a>
</g>
</g>
</g>
</svg>
