<?xml version="1.0" encoding="UTF-8" standalone="no"?>
<!DOCTYPE svg PUBLIC "-//W3C//DTD SVG 1.1//EN"
 "http://www.w3.org/Graphics/SVG/1.1/DTD/svg11.dtd">
<!-- Generated by graphviz version 2.43.0 (0)
 -->
<!-- Title: include/engine/public/components/rigidbody_2d.h Pages: 1 -->
<svg width="848pt" height="291pt"
 viewBox="0.00 0.00 847.79 291.00" xmlns="http://www.w3.org/2000/svg" xmlns:xlink="http://www.w3.org/1999/xlink">
<g id="graph0" class="graph" transform="scale(1 1) rotate(0) translate(4 287)">
<title>include/engine/public/components/rigidbody_2d.h</title>
<!-- Node1 -->
<g id="Node000001" class="node">
<title>Node1</title>
<g id="a_Node000001"><a xlink:title=" ">
<polygon fill="#999999" stroke="#666666" points="488.29,-283 333.29,-283 333.29,-253 488.29,-253 488.29,-283"/>
<text text-anchor="start" x="341.29" y="-271" font-family="Helvetica,sans-Serif" font-size="10.00">include/engine/public</text>
<text text-anchor="middle" x="410.79" y="-260" font-family="Helvetica,sans-Serif" font-size="10.00">/components/rigidbody_2d.h</text>
</a>
</g>
</g>
<!-- Node2 -->
<g id="Node000002" class="node">
<title>Node2</title>
<g id="a_Node000002"><a xlink:href="physics__creation__factory_8h.html" target="_top" xlink:title=" ">
<polygon fill="white" stroke="#666666" points="434.29,-217 285.29,-217 285.29,-187 434.29,-187 434.29,-217"/>
<text text-anchor="start" x="293.29" y="-205" font-family="Helvetica,sans-Serif" font-size="10.00">engine/physics/creation</text>
<text text-anchor="middle" x="359.79" y="-194" font-family="Helvetica,sans-Serif" font-size="10.00">/physics_creation_factory.h</text>
</a>
</g>
</g>
<!-- Node1&#45;&gt;Node2 -->
<g id="edge1_Node000001_Node000002" class="edge">
<title>Node1&#45;&gt;Node2</title>
<g id="a_edge1_Node000001_Node000002"><a xlink:title=" ">
<path fill="none" stroke="#63b8ff" d="M399.48,-252.8C393.01,-244.68 384.75,-234.31 377.44,-225.15"/>
<polygon fill="#63b8ff" stroke="#63b8ff" points="380.05,-222.8 371.08,-217.16 374.58,-227.17 380.05,-222.8"/>
</a>
</g>
</g>
<!-- Node12 -->
<g id="Node000012" class="node">
<title>Node12</title>
<g id="a_Node000012"><a xlink:href="component_8h.html" target="_top" xlink:title=" ">
<polygon fill="white" stroke="#666666" points="812.29,-145.5 663.29,-145.5 663.29,-126.5 812.29,-126.5 812.29,-145.5"/>
<text text-anchor="middle" x="737.79" y="-133.5" font-family="Helvetica,sans-Serif" font-size="10.00">engine/public/component.h</text>
</a>
</g>
</g>
<!-- Node1&#45;&gt;Node12 -->
<g id="edge25_Node000001_Node000012" class="edge">
<title>Node1&#45;&gt;Node12</title>
<g id="a_edge25_Node000001_Node000012"><a xlink:title=" ">
<path fill="none" stroke="#63b8ff" d="M446.1,-252.96C510.4,-227.4 645.57,-173.66 706.66,-149.38"/>
<polygon fill="#63b8ff" stroke="#63b8ff" points="708.14,-152.55 716.14,-145.61 705.56,-146.05 708.14,-152.55"/>
</a>
</g>
</g>
<!-- Node3 -->
<g id="Node000003" class="node">
<title>Node3</title>
<g id="a_Node000003"><a xlink:title=" ">
<polygon fill="#e0e0e0" stroke="#999999" points="235.29,-19 146.29,-19 146.29,0 235.29,0 235.29,-19"/>
<text text-anchor="middle" x="190.79" y="-7" font-family="Helvetica,sans-Serif" font-size="10.00">box2d/box2d.h</text>
</a>
</g>
</g>
<!-- Node2&#45;&gt;Node3 -->
<g id="edge2_Node000002_Node000003" class="edge">
<title>Node2&#45;&gt;Node3</title>
<g id="a_edge2_Node000002_Node000003"><a xlink:title=" ">
<path fill="none" stroke="#63b8ff" d="M285.13,-196.36C229.79,-190.74 153.58,-178.35 91.79,-151 47.41,-131.36 26.38,-128.47 4.79,-85 -21.93,-31.18 72.12,-16.07 136.11,-11.94"/>
<polygon fill="#63b8ff" stroke="#63b8ff" points="136.31,-15.43 146.1,-11.36 135.91,-8.44 136.31,-15.43"/>
</a>
</g>
</g>
<!-- Node4 -->
<g id="Node000004" class="node">
<title>Node4</title>
<g id="a_Node000004"><a xlink:title=" ">
<polygon fill="#e0e0e0" stroke="#999999" points="670.79,-79.5 612.79,-79.5 612.79,-60.5 670.79,-60.5 670.79,-79.5"/>
<text text-anchor="middle" x="641.79" y="-67.5" font-family="Helvetica,sans-Serif" font-size="10.00">memory</text>
</a>
</g>
</g>
<!-- Node2&#45;&gt;Node4 -->
<g id="edge3_Node000002_Node000004" class="edge">
<title>Node2&#45;&gt;Node4</title>
<g id="a_edge3_Node000002_Node000004"><a xlink:title=" ">
<path fill="none" stroke="#63b8ff" d="M434.39,-194.93C500.43,-188.08 590.33,-174.68 616.79,-151 634.12,-135.49 639.56,-108.16 641.2,-89.82"/>
<polygon fill="#63b8ff" stroke="#63b8ff" points="644.7,-89.94 641.8,-79.75 637.71,-89.52 644.7,-89.94"/>
</a>
</g>
</g>
<!-- Node5 -->
<g id="Node000005" class="node">
<title>Node5</title>
<g id="a_Node000005"><a xlink:title=" ">
<polygon fill="#e0e0e0" stroke="#999999" points="509.29,-79.5 462.29,-79.5 462.29,-60.5 509.29,-60.5 509.29,-79.5"/>
<text text-anchor="middle" x="485.79" y="-67.5" font-family="Helvetica,sans-Serif" font-size="10.00">vector</text>
</a>
</g>
</g>
<!-- Node2&#45;&gt;Node5 -->
<g id="edge4_Node000002_Node000005" class="edge">
<title>Node2&#45;&gt;Node5</title>
<g id="a_edge4_Node000002_Node000005"><a xlink:title=" ">
<path fill="none" stroke="#63b8ff" d="M350.15,-186.92C339.72,-169.79 326.42,-140.73 340.79,-121 371.59,-78.75 403.79,-103.23 452.79,-85 454.18,-84.48 455.59,-83.94 457.01,-83.39"/>
<polygon fill="#63b8ff" stroke="#63b8ff" points="458.42,-86.59 466.37,-79.59 455.79,-80.11 458.42,-86.59"/>
</a>
</g>
</g>
<!-- Node6 -->
<g id="Node000006" class="node">
<title>Node6</title>
<g id="a_Node000006"><a xlink:href="physics__creation__flags_8h.html" target="_top" xlink:title=" ">
<polygon fill="white" stroke="#666666" points="607.29,-151 468.29,-151 468.29,-121 607.29,-121 607.29,-151"/>
<text text-anchor="start" x="476.29" y="-139" font-family="Helvetica,sans-Serif" font-size="10.00">engine/physics/creation</text>
<text text-anchor="middle" x="537.79" y="-128" font-family="Helvetica,sans-Serif" font-size="10.00">/physics_creation_flags.h</text>
</a>
</g>
</g>
<!-- Node2&#45;&gt;Node6 -->
<g id="edge5_Node000002_Node000006" class="edge">
<title>Node2&#45;&gt;Node6</title>
<g id="a_edge5_Node000002_Node000006"><a xlink:title=" ">
<path fill="none" stroke="#63b8ff" d="M398.86,-186.95C425.41,-177.41 460.72,-164.71 489.1,-154.51"/>
<polygon fill="#63b8ff" stroke="#63b8ff" points="490.6,-157.69 498.82,-151.01 488.23,-151.1 490.6,-157.69"/>
</a>
</g>
</g>
<!-- Node8 -->
<g id="Node000008" class="node">
<title>Node8</title>
<g id="a_Node000008"><a xlink:href="body__type__2d_8h.html" target="_top" xlink:title=" ">
<polygon fill="white" stroke="#666666" points="443.79,-85 319.79,-85 319.79,-55 443.79,-55 443.79,-85"/>
<text text-anchor="start" x="327.79" y="-73" font-family="Helvetica,sans-Serif" font-size="10.00">engine/physics/world</text>
<text text-anchor="middle" x="381.79" y="-62" font-family="Helvetica,sans-Serif" font-size="10.00">/body/body_type_2d.h</text>
</a>
</g>
</g>
<!-- Node2&#45;&gt;Node8 -->
<g id="edge7_Node000002_Node000008" class="edge">
<title>Node2&#45;&gt;Node8</title>
<g id="a_edge7_Node000002_Node000008"><a xlink:title=" ">
<path fill="none" stroke="#63b8ff" d="M337.83,-186.94C326.25,-178.17 313.16,-165.75 306.79,-151 301.51,-138.76 300.5,-132.76 306.79,-121 313.69,-108.12 325.52,-97.99 337.78,-90.31"/>
<polygon fill="#63b8ff" stroke="#63b8ff" points="339.81,-93.18 346.72,-85.15 336.31,-87.12 339.81,-93.18"/>
</a>
</g>
</g>
<!-- Node9 -->
<g id="Node000009" class="node">
<title>Node9</title>
<g id="a_Node000009"><a xlink:href="body__2d_8h.html" target="_top" xlink:title=" ">
<polygon fill="white" stroke="#666666" points="254.29,-151 135.29,-151 135.29,-121 254.29,-121 254.29,-151"/>
<text text-anchor="start" x="143.29" y="-139" font-family="Helvetica,sans-Serif" font-size="10.00">engine/physics/world</text>
<text text-anchor="middle" x="194.79" y="-128" font-family="Helvetica,sans-Serif" font-size="10.00">/body/body_2d.h</text>
</a>
</g>
</g>
<!-- Node2&#45;&gt;Node9 -->
<g id="edge10_Node000002_Node000009" class="edge">
<title>Node2&#45;&gt;Node9</title>
<g id="a_edge10_Node000002_Node000009"><a xlink:title=" ">
<path fill="none" stroke="#63b8ff" d="M323.58,-186.95C299.08,-177.45 266.53,-164.82 240.28,-154.64"/>
<polygon fill="#63b8ff" stroke="#63b8ff" points="241.51,-151.37 230.92,-151.01 238.98,-157.89 241.51,-151.37"/>
</a>
</g>
</g>
<!-- Node11 -->
<g id="Node000011" class="node">
<title>Node11</title>
<g id="a_Node000011"><a xlink:href="vector3_8h.html" target="_top" xlink:title=" ">
<polygon fill="white" stroke="#666666" points="115.29,-85 14.29,-85 14.29,-55 115.29,-55 115.29,-85"/>
<text text-anchor="start" x="22.29" y="-73" font-family="Helvetica,sans-Serif" font-size="10.00">engine/public/util</text>
<text text-anchor="middle" x="64.79" y="-62" font-family="Helvetica,sans-Serif" font-size="10.00">/vector3.h</text>
</a>
</g>
</g>
<!-- Node2&#45;&gt;Node11 -->
<g id="edge24_Node000002_Node000011" class="edge">
<title>Node2&#45;&gt;Node11</title>
<g id="a_edge24_Node000002_Node000011"><a xlink:title=" ">
<path fill="none" stroke="#63b8ff" d="M285.06,-198.03C236.74,-193.11 174.25,-180.85 126.79,-151 104.63,-137.06 87.26,-112.24 76.61,-93.93"/>
<polygon fill="#63b8ff" stroke="#63b8ff" points="79.59,-92.08 71.67,-85.04 73.47,-95.48 79.59,-92.08"/>
</a>
</g>
</g>
<!-- Node2&#45;&gt;Node12 -->
<g id="edge18_Node000002_Node000012" class="edge">
<title>Node2&#45;&gt;Node12</title>
<g id="a_edge18_Node000002_Node000012"><a xlink:title=" ">
<path fill="none" stroke="#63b8ff" d="M434.48,-188.36C505.55,-176.32 611.17,-158.44 677.17,-147.26"/>
<polygon fill="#63b8ff" stroke="#63b8ff" points="678.14,-150.65 687.42,-145.53 676.97,-143.75 678.14,-150.65"/>
</a>
</g>
</g>
<!-- Node15 -->
<g id="Node000015" class="node">
<title>Node15</title>
<g id="a_Node000015"><a xlink:href="point_8h.html" target="_top" xlink:title=" ">
<polygon fill="white" stroke="#666666" points="450.29,-151 349.29,-151 349.29,-121 450.29,-121 450.29,-151"/>
<text text-anchor="start" x="357.29" y="-139" font-family="Helvetica,sans-Serif" font-size="10.00">engine/public/util</text>
<text text-anchor="middle" x="399.79" y="-128" font-family="Helvetica,sans-Serif" font-size="10.00">/point.h</text>
</a>
</g>
</g>
<!-- Node2&#45;&gt;Node15 -->
<g id="edge23_Node000002_Node000015" class="edge">
<title>Node2&#45;&gt;Node15</title>
<g id="a_edge23_Node000002_Node000015"><a xlink:title=" ">
<path fill="none" stroke="#63b8ff" d="M368.67,-186.8C373.64,-178.84 379.96,-168.74 385.6,-159.71"/>
<polygon fill="#63b8ff" stroke="#63b8ff" points="388.61,-161.5 390.94,-151.16 382.67,-157.79 388.61,-161.5"/>
</a>
</g>
</g>
<!-- Node7 -->
<g id="Node000007" class="node">
<title>Node7</title>
<g id="a_Node000007"><a xlink:title=" ">
<polygon fill="#e0e0e0" stroke="#999999" points="406.79,-19 356.79,-19 356.79,0 406.79,0 406.79,-19"/>
<text text-anchor="middle" x="381.79" y="-7" font-family="Helvetica,sans-Serif" font-size="10.00">cstdint</text>
</a>
</g>
</g>
<!-- Node6&#45;&gt;Node7 -->
<g id="edge6_Node000006_Node000007" class="edge">
<title>Node6&#45;&gt;Node7</title>
<g id="a_edge6_Node000006_Node000007"><a xlink:title=" ">
<path fill="none" stroke="#63b8ff" d="M538.38,-120.95C538.33,-103.31 535.54,-73.15 518.79,-55 492.6,-26.59 448.11,-16.26 416.95,-12.54"/>
<polygon fill="#63b8ff" stroke="#63b8ff" points="417.25,-9.05 406.95,-11.52 416.54,-16.02 417.25,-9.05"/>
</a>
</g>
</g>
<!-- Node8&#45;&gt;Node3 -->
<g id="edge8_Node000008_Node000003" class="edge">
<title>Node8&#45;&gt;Node3</title>
<g id="a_edge8_Node000008_Node000003"><a xlink:title=" ">
<path fill="none" stroke="#63b8ff" d="M336.05,-54.99C303.23,-44.94 259.53,-31.55 228.66,-22.1"/>
<polygon fill="#63b8ff" stroke="#63b8ff" points="229.31,-18.64 218.72,-19.05 227.26,-25.33 229.31,-18.64"/>
</a>
</g>
</g>
<!-- Node8&#45;&gt;Node7 -->
<g id="edge9_Node000008_Node000007" class="edge">
<title>Node8&#45;&gt;Node7</title>
<g id="a_edge9_Node000008_Node000007"><a xlink:title=" ">
<path fill="none" stroke="#63b8ff" d="M381.79,-54.84C381.79,-47.21 381.79,-37.7 381.79,-29.45"/>
<polygon fill="#63b8ff" stroke="#63b8ff" points="385.29,-29.27 381.79,-19.27 378.29,-29.27 385.29,-29.27"/>
</a>
</g>
</g>
<!-- Node9&#45;&gt;Node3 -->
<g id="edge11_Node000009_Node000003" class="edge">
<title>Node9&#45;&gt;Node3</title>
<g id="a_edge11_Node000009_Node000003"><a xlink:title=" ">
<path fill="none" stroke="#63b8ff" d="M182.94,-120.72C175.86,-111.24 167.54,-98.16 163.79,-85 160.14,-72.18 160.2,-67.84 163.79,-55 166.56,-45.12 172.18,-35.25 177.59,-27.32"/>
<polygon fill="#63b8ff" stroke="#63b8ff" points="180.57,-29.17 183.64,-19.03 174.92,-25.04 180.57,-29.17"/>
</a>
</g>
</g>
<!-- Node9&#45;&gt;Node5 -->
<g id="edge12_Node000009_Node000005" class="edge">
<title>Node9&#45;&gt;Node5</title>
<g id="a_edge12_Node000009_Node000005"><a xlink:title=" ">
<path fill="none" stroke="#63b8ff" d="M254.32,-127.09C307.17,-119.22 386.14,-105.35 452.79,-85 454.47,-84.49 456.18,-83.92 457.89,-83.31"/>
<polygon fill="#63b8ff" stroke="#63b8ff" points="459.5,-86.44 467.55,-79.55 456.96,-79.92 459.5,-86.44"/>
</a>
</g>
</g>
<!-- Node9&#45;&gt;Node8 -->
<g id="edge16_Node000009_Node000008" class="edge">
<title>Node9&#45;&gt;Node8</title>
<g id="a_edge16_Node000009_Node000008"><a xlink:title=" ">
<path fill="none" stroke="#63b8ff" d="M235.83,-120.95C263.84,-111.37 301.15,-98.6 331.03,-88.37"/>
<polygon fill="#63b8ff" stroke="#63b8ff" points="332.52,-91.56 340.85,-85.01 330.26,-84.94 332.52,-91.56"/>
</a>
</g>
</g>
<!-- Node10 -->
<g id="Node000010" class="node">
<title>Node10</title>
<g id="a_Node000010"><a xlink:href="shape__type__2d_8h.html" target="_top" xlink:title=" ">
<polygon fill="white" stroke="#666666" points="301.29,-85 172.29,-85 172.29,-55 301.29,-55 301.29,-85"/>
<text text-anchor="start" x="180.29" y="-73" font-family="Helvetica,sans-Serif" font-size="10.00">engine/physics/world</text>
<text text-anchor="middle" x="236.79" y="-62" font-family="Helvetica,sans-Serif" font-size="10.00">/body/shape_type_2d.h</text>
</a>
</g>
</g>
<!-- Node9&#45;&gt;Node10 -->
<g id="edge13_Node000009_Node000010" class="edge">
<title>Node9&#45;&gt;Node10</title>
<g id="a_edge13_Node000009_Node000010"><a xlink:title=" ">
<path fill="none" stroke="#63b8ff" d="M204.12,-120.8C209.34,-112.84 215.97,-102.74 221.89,-93.71"/>
<polygon fill="#63b8ff" stroke="#63b8ff" points="224.94,-95.44 227.5,-85.16 219.09,-91.6 224.94,-95.44"/>
</a>
</g>
</g>
<!-- Node9&#45;&gt;Node11 -->
<g id="edge17_Node000009_Node000011" class="edge">
<title>Node9&#45;&gt;Node11</title>
<g id="a_edge17_Node000009_Node000011"><a xlink:title=" ">
<path fill="none" stroke="#63b8ff" d="M166.27,-120.95C147.47,-111.7 122.66,-99.49 102.27,-89.45"/>
<polygon fill="#63b8ff" stroke="#63b8ff" points="103.77,-86.29 93.26,-85.01 100.68,-92.57 103.77,-86.29"/>
</a>
</g>
</g>
<!-- Node10&#45;&gt;Node3 -->
<g id="edge14_Node000010_Node000003" class="edge">
<title>Node10&#45;&gt;Node3</title>
<g id="a_edge14_Node000010_Node000003"><a xlink:title=" ">
<path fill="none" stroke="#63b8ff" d="M225.66,-54.84C219.12,-46.52 210.81,-35.96 203.95,-27.23"/>
<polygon fill="#63b8ff" stroke="#63b8ff" points="206.62,-24.96 197.69,-19.27 201.12,-29.29 206.62,-24.96"/>
</a>
</g>
</g>
<!-- Node10&#45;&gt;Node7 -->
<g id="edge15_Node000010_Node000007" class="edge">
<title>Node10&#45;&gt;Node7</title>
<g id="a_edge15_Node000010_Node000007"><a xlink:title=" ">
<path fill="none" stroke="#63b8ff" d="M271.53,-54.99C295.72,-45.23 327.7,-32.33 350.98,-22.93"/>
<polygon fill="#63b8ff" stroke="#63b8ff" points="352.42,-26.13 360.38,-19.14 349.8,-19.63 352.42,-26.13"/>
</a>
</g>
</g>
<!-- Node12&#45;&gt;Node4 -->
<g id="edge20_Node000012_Node000004" class="edge">
<title>Node12&#45;&gt;Node4</title>
<g id="a_edge20_Node000012_Node000004"><a xlink:title=" ">
<path fill="none" stroke="#63b8ff" d="M724.85,-126.37C709.1,-115.87 682.29,-98 663.4,-85.4"/>
<polygon fill="#63b8ff" stroke="#63b8ff" points="665.11,-82.33 654.84,-79.7 661.22,-88.16 665.11,-82.33"/>
</a>
</g>
</g>
<!-- Node12&#45;&gt;Node5 -->
<g id="edge22_Node000012_Node000005" class="edge">
<title>Node12&#45;&gt;Node5</title>
<g id="a_edge22_Node000012_Node000005"><a xlink:title=" ">
<path fill="none" stroke="#63b8ff" d="M704.07,-126.44C655.84,-114.19 567.68,-91.8 519.47,-79.55"/>
<polygon fill="#63b8ff" stroke="#63b8ff" points="520.09,-76.1 509.54,-77.03 518.37,-82.88 520.09,-76.1"/>
</a>
</g>
</g>
<!-- Node13 -->
<g id="Node000013" class="node">
<title>Node13</title>
<g id="a_Node000013"><a xlink:title=" ">
<polygon fill="#e0e0e0" stroke="#999999" points="765.29,-79.5 700.29,-79.5 700.29,-60.5 765.29,-60.5 765.29,-79.5"/>
<text text-anchor="middle" x="732.79" y="-67.5" font-family="Helvetica,sans-Serif" font-size="10.00">functional</text>
</a>
</g>
</g>
<!-- Node12&#45;&gt;Node13 -->
<g id="edge19_Node000012_Node000013" class="edge">
<title>Node12&#45;&gt;Node13</title>
<g id="a_edge19_Node000012_Node000013"><a xlink:title=" ">
<path fill="none" stroke="#63b8ff" d="M737.12,-126.37C736.39,-117.07 735.21,-101.98 734.27,-89.9"/>
<polygon fill="#63b8ff" stroke="#63b8ff" points="737.76,-89.6 733.49,-79.91 730.78,-90.15 737.76,-89.6"/>
</a>
</g>
</g>
<!-- Node14 -->
<g id="Node000014" class="node">
<title>Node14</title>
<g id="a_Node000014"><a xlink:title=" ">
<polygon fill="#e0e0e0" stroke="#999999" points="839.79,-79.5 783.79,-79.5 783.79,-60.5 839.79,-60.5 839.79,-79.5"/>
<text text-anchor="middle" x="811.79" y="-67.5" font-family="Helvetica,sans-Serif" font-size="10.00">optional</text>
</a>
</g>
</g>
<!-- Node12&#45;&gt;Node14 -->
<g id="edge21_Node000012_Node000014" class="edge">
<title>Node12&#45;&gt;Node14</title>
<g id="a_edge21_Node000012_Node000014"><a xlink:title=" ">
<path fill="none" stroke="#63b8ff" d="M747.77,-126.37C759.52,-116.21 779.24,-99.16 793.69,-86.65"/>
<polygon fill="#63b8ff" stroke="#63b8ff" points="796.22,-89.09 801.5,-79.91 791.64,-83.8 796.22,-89.09"/>
</a>
</g>
</g>
</g>
</svg>
