<?xml version="1.0" encoding="UTF-8" standalone="no"?>
<!DOCTYPE svg PUBLIC "-//W3C//DTD SVG 1.1//EN"
 "http://www.w3.org/Graphics/SVG/1.1/DTD/svg11.dtd">
<!-- Generated by graphviz version 2.43.0 (0)
 -->
<!-- Title: include/engine/public/components/rigidbody_2d.h Pages: 1 -->
<svg width="848pt" height="291pt"
 viewBox="0.00 0.00 847.75 291.00" xmlns="http://www.w3.org/2000/svg" xmlns:xlink="http://www.w3.org/1999/xlink">
<g id="graph0" class="graph" transform="scale(1 1) rotate(0) translate(4 287)">
<title>include/engine/public/components/rigidbody_2d.h</title>
<!-- Node1 -->
<g id="Node000001" class="node">
<title>Node1</title>
<g id="a_Node000001"><a xlink:title=" ">
<polygon fill="#999999" stroke="#666666" points="488.25,-283 333.25,-283 333.25,-253 488.25,-253 488.25,-283"/>
<text text-anchor="start" x="341.25" y="-271" font-family="Helvetica,sans-Serif" font-size="10.00">include/engine/public</text>
<text text-anchor="middle" x="410.75" y="-260" font-family="Helvetica,sans-Serif" font-size="10.00">/components/rigidbody_2d.h</text>
</a>
</g>
</g>
<!-- Node2 -->
<g id="Node000002" class="node">
<title>Node2</title>
<g id="a_Node000002"><a xlink:href="physics__creation__factory_8h.html" target="_top" xlink:title=" ">
<polygon fill="white" stroke="#666666" points="434.25,-217 285.25,-217 285.25,-187 434.25,-187 434.25,-217"/>
<text text-anchor="start" x="293.25" y="-205" font-family="Helvetica,sans-Serif" font-size="10.00">engine/physics/creation</text>
<text text-anchor="middle" x="359.75" y="-194" font-family="Helvetica,sans-Serif" font-size="10.00">/physics_creation_factory.h</text>
</a>
</g>
</g>
<!-- Node1&#45;&gt;Node2 -->
<g id="edge1_Node000001_Node000002" class="edge">
<title>Node1&#45;&gt;Node2</title>
<g id="a_edge1_Node000001_Node000002"><a xlink:title=" ">
<path fill="none" stroke="#63b8ff" d="M399.44,-252.8C392.97,-244.68 384.71,-234.31 377.4,-225.15"/>
<polygon fill="#63b8ff" stroke="#63b8ff" points="380.01,-222.8 371.04,-217.16 374.54,-227.17 380.01,-222.8"/>
</a>
</g>
</g>
<!-- Node11 -->
<g id="Node000011" class="node">
<title>Node11</title>
<g id="a_Node000011"><a xlink:href="component_8h.html" target="_top" xlink:title=" ">
<polygon fill="white" stroke="#666666" points="812.25,-145.5 663.25,-145.5 663.25,-126.5 812.25,-126.5 812.25,-145.5"/>
<text text-anchor="middle" x="737.75" y="-133.5" font-family="Helvetica,sans-Serif" font-size="10.00">engine/public/component.h</text>
</a>
</g>
</g>
<!-- Node1&#45;&gt;Node11 -->
<g id="edge25_Node000001_Node000011" class="edge">
<title>Node1&#45;&gt;Node11</title>
<g id="a_edge25_Node000001_Node000011"><a xlink:title=" ">
<path fill="none" stroke="#63b8ff" d="M446.06,-252.96C510.36,-227.4 645.53,-173.66 706.62,-149.38"/>
<polygon fill="#63b8ff" stroke="#63b8ff" points="708.1,-152.55 716.1,-145.61 705.52,-146.05 708.1,-152.55"/>
</a>
</g>
</g>
<!-- Node3 -->
<g id="Node000003" class="node">
<title>Node3</title>
<g id="a_Node000003"><a xlink:title=" ">
<polygon fill="#e0e0e0" stroke="#999999" points="235.25,-19 146.25,-19 146.25,0 235.25,0 235.25,-19"/>
<text text-anchor="middle" x="190.75" y="-7" font-family="Helvetica,sans-Serif" font-size="10.00">box2d/box2d.h</text>
</a>
</g>
</g>
<!-- Node2&#45;&gt;Node3 -->
<g id="edge2_Node000002_Node000003" class="edge">
<title>Node2&#45;&gt;Node3</title>
<g id="a_edge2_Node000002_Node000003"><a xlink:title=" ">
<path fill="none" stroke="#63b8ff" d="M285.06,-196.53C229.46,-191.01 152.8,-178.65 90.75,-151 46.74,-131.39 26.06,-128.21 4.75,-85 -21.77,-31.21 71.79,-16.08 135.72,-11.94"/>
<polygon fill="#63b8ff" stroke="#63b8ff" points="136.31,-15.41 146.1,-11.34 135.91,-8.42 136.31,-15.41"/>
</a>
</g>
</g>
<!-- Node4 -->
<g id="Node000004" class="node">
<title>Node4</title>
<g id="a_Node000004"><a xlink:href="physics__creation__flags_8h.html" target="_top" xlink:title=" ">
<polygon fill="white" stroke="#666666" points="607.25,-151 468.25,-151 468.25,-121 607.25,-121 607.25,-151"/>
<text text-anchor="start" x="476.25" y="-139" font-family="Helvetica,sans-Serif" font-size="10.00">engine/physics/creation</text>
<text text-anchor="middle" x="537.75" y="-128" font-family="Helvetica,sans-Serif" font-size="10.00">/physics_creation_flags.h</text>
</a>
</g>
</g>
<!-- Node2&#45;&gt;Node4 -->
<g id="edge3_Node000002_Node000004" class="edge">
<title>Node2&#45;&gt;Node4</title>
<g id="a_edge3_Node000002_Node000004"><a xlink:title=" ">
<path fill="none" stroke="#63b8ff" d="M398.82,-186.95C425.37,-177.41 460.68,-164.71 489.06,-154.51"/>
<polygon fill="#63b8ff" stroke="#63b8ff" points="490.56,-157.69 498.78,-151.01 488.19,-151.1 490.56,-157.69"/>
</a>
</g>
</g>
<!-- Node6 -->
<g id="Node000006" class="node">
<title>Node6</title>
<g id="a_Node000006"><a xlink:href="body__2d_8h.html" target="_top" xlink:title=" ">
<polygon fill="white" stroke="#666666" points="254.25,-151 135.25,-151 135.25,-121 254.25,-121 254.25,-151"/>
<text text-anchor="start" x="143.25" y="-139" font-family="Helvetica,sans-Serif" font-size="10.00">engine/physics/world</text>
<text text-anchor="middle" x="194.75" y="-128" font-family="Helvetica,sans-Serif" font-size="10.00">/body/body_2d.h</text>
</a>
</g>
</g>
<!-- Node2&#45;&gt;Node6 -->
<g id="edge5_Node000002_Node000006" class="edge">
<title>Node2&#45;&gt;Node6</title>
<g id="a_edge5_Node000002_Node000006"><a xlink:title=" ">
<path fill="none" stroke="#63b8ff" d="M323.54,-186.95C299.04,-177.45 266.49,-164.82 240.24,-154.64"/>
<polygon fill="#63b8ff" stroke="#63b8ff" points="241.47,-151.37 230.88,-151.01 238.94,-157.89 241.47,-151.37"/>
</a>
</g>
</g>
<!-- Node7 -->
<g id="Node000007" class="node">
<title>Node7</title>
<g id="a_Node000007"><a xlink:href="body__type__2d_8h.html" target="_top" xlink:title=" ">
<polygon fill="white" stroke="#666666" points="443.75,-85 319.75,-85 319.75,-55 443.75,-55 443.75,-85"/>
<text text-anchor="start" x="327.75" y="-73" font-family="Helvetica,sans-Serif" font-size="10.00">engine/physics/world</text>
<text text-anchor="middle" x="381.75" y="-62" font-family="Helvetica,sans-Serif" font-size="10.00">/body/body_type_2d.h</text>
</a>
</g>
</g>
<!-- Node2&#45;&gt;Node7 -->
<g id="edge15_Node000002_Node000007" class="edge">
<title>Node2&#45;&gt;Node7</title>
<g id="a_edge15_Node000002_Node000007"><a xlink:title=" ">
<path fill="none" stroke="#63b8ff" d="M337.79,-186.94C326.21,-178.17 313.12,-165.75 306.75,-151 301.47,-138.76 300.46,-132.76 306.75,-121 313.65,-108.12 325.48,-97.99 337.74,-90.31"/>
<polygon fill="#63b8ff" stroke="#63b8ff" points="339.77,-93.18 346.68,-85.15 336.27,-87.12 339.77,-93.18"/>
</a>
</g>
</g>
<!-- Node9 -->
<g id="Node000009" class="node">
<title>Node9</title>
<g id="a_Node000009"><a xlink:href="vector3_8h.html" target="_top" xlink:title=" ">
<polygon fill="white" stroke="#666666" points="115.25,-85 14.25,-85 14.25,-55 115.25,-55 115.25,-85"/>
<text text-anchor="start" x="22.25" y="-73" font-family="Helvetica,sans-Serif" font-size="10.00">engine/public/util</text>
<text text-anchor="middle" x="64.75" y="-62" font-family="Helvetica,sans-Serif" font-size="10.00">/vector3.h</text>
</a>
</g>
</g>
<!-- Node2&#45;&gt;Node9 -->
<g id="edge22_Node000002_Node000009" class="edge">
<title>Node2&#45;&gt;Node9</title>
<g id="a_edge22_Node000002_Node000009"><a xlink:title=" ">
<path fill="none" stroke="#63b8ff" d="M285.16,-198.28C236.53,-193.47 173.47,-181.25 125.75,-151 103.77,-137.07 86.71,-112.25 76.29,-93.93"/>
<polygon fill="#63b8ff" stroke="#63b8ff" points="79.31,-92.16 71.46,-85.04 73.16,-95.5 79.31,-92.16"/>
</a>
</g>
</g>
<!-- Node10 -->
<g id="Node000010" class="node">
<title>Node10</title>
<g id="a_Node000010"><a xlink:title=" ">
<polygon fill="#e0e0e0" stroke="#999999" points="509.25,-79.5 462.25,-79.5 462.25,-60.5 509.25,-60.5 509.25,-79.5"/>
<text text-anchor="middle" x="485.75" y="-67.5" font-family="Helvetica,sans-Serif" font-size="10.00">vector</text>
</a>
</g>
</g>
<!-- Node2&#45;&gt;Node10 -->
<g id="edge24_Node000002_Node000010" class="edge">
<title>Node2&#45;&gt;Node10</title>
<g id="a_edge24_Node000002_Node000010"><a xlink:title=" ">
<path fill="none" stroke="#63b8ff" d="M349.83,-186.93C339.08,-169.82 325.31,-140.76 339.75,-121 370.86,-78.45 403.33,-103.31 452.75,-85 454.14,-84.49 455.55,-83.95 456.98,-83.39"/>
<polygon fill="#63b8ff" stroke="#63b8ff" points="458.38,-86.6 466.33,-79.59 455.75,-80.11 458.38,-86.6"/>
</a>
</g>
</g>
<!-- Node2&#45;&gt;Node11 -->
<g id="edge16_Node000002_Node000011" class="edge">
<title>Node2&#45;&gt;Node11</title>
<g id="a_edge16_Node000002_Node000011"><a xlink:title=" ">
<path fill="none" stroke="#63b8ff" d="M434.44,-188.36C505.51,-176.32 611.13,-158.44 677.13,-147.26"/>
<polygon fill="#63b8ff" stroke="#63b8ff" points="678.1,-150.65 687.38,-145.53 676.93,-143.75 678.1,-150.65"/>
</a>
</g>
</g>
<!-- Node13 -->
<g id="Node000013" class="node">
<title>Node13</title>
<g id="a_Node000013"><a xlink:title=" ">
<polygon fill="#e0e0e0" stroke="#999999" points="670.75,-79.5 612.75,-79.5 612.75,-60.5 670.75,-60.5 670.75,-79.5"/>
<text text-anchor="middle" x="641.75" y="-67.5" font-family="Helvetica,sans-Serif" font-size="10.00">memory</text>
</a>
</g>
</g>
<!-- Node2&#45;&gt;Node13 -->
<g id="edge23_Node000002_Node000013" class="edge">
<title>Node2&#45;&gt;Node13</title>
<g id="a_edge23_Node000002_Node000013"><a xlink:title=" ">
<path fill="none" stroke="#63b8ff" d="M434.32,-194.79C500.03,-187.86 589.31,-174.42 615.75,-151 633.23,-135.53 639.02,-108.19 640.9,-89.84"/>
<polygon fill="#63b8ff" stroke="#63b8ff" points="644.4,-89.98 641.64,-79.76 637.42,-89.47 644.4,-89.98"/>
</a>
</g>
</g>
<!-- Node15 -->
<g id="Node000015" class="node">
<title>Node15</title>
<g id="a_Node000015"><a xlink:href="point_8h.html" target="_top" xlink:title=" ">
<polygon fill="white" stroke="#666666" points="450.25,-151 349.25,-151 349.25,-121 450.25,-121 450.25,-151"/>
<text text-anchor="start" x="357.25" y="-139" font-family="Helvetica,sans-Serif" font-size="10.00">engine/public/util</text>
<text text-anchor="middle" x="399.75" y="-128" font-family="Helvetica,sans-Serif" font-size="10.00">/point.h</text>
</a>
</g>
</g>
<!-- Node2&#45;&gt;Node15 -->
<g id="edge21_Node000002_Node000015" class="edge">
<title>Node2&#45;&gt;Node15</title>
<g id="a_edge21_Node000002_Node000015"><a xlink:title=" ">
<path fill="none" stroke="#63b8ff" d="M368.63,-186.8C373.6,-178.84 379.92,-168.74 385.56,-159.71"/>
<polygon fill="#63b8ff" stroke="#63b8ff" points="388.57,-161.5 390.9,-151.16 382.63,-157.79 388.57,-161.5"/>
</a>
</g>
</g>
<!-- Node5 -->
<g id="Node000005" class="node">
<title>Node5</title>
<g id="a_Node000005"><a xlink:title=" ">
<polygon fill="#e0e0e0" stroke="#999999" points="406.75,-19 356.75,-19 356.75,0 406.75,0 406.75,-19"/>
<text text-anchor="middle" x="381.75" y="-7" font-family="Helvetica,sans-Serif" font-size="10.00">cstdint</text>
</a>
</g>
</g>
<!-- Node4&#45;&gt;Node5 -->
<g id="edge4_Node000004_Node000005" class="edge">
<title>Node4&#45;&gt;Node5</title>
<g id="a_edge4_Node000004_Node000005"><a xlink:title=" ">
<path fill="none" stroke="#63b8ff" d="M538.13,-120.94C537.83,-103.29 534.63,-73.13 517.75,-55 491.78,-27.11 448.1,-16.66 417.26,-12.77"/>
<polygon fill="#63b8ff" stroke="#63b8ff" points="417.25,-9.25 406.93,-11.65 416.5,-16.21 417.25,-9.25"/>
</a>
</g>
</g>
<!-- Node6&#45;&gt;Node3 -->
<g id="edge6_Node000006_Node000003" class="edge">
<title>Node6&#45;&gt;Node3</title>
<g id="a_edge6_Node000006_Node000003"><a xlink:title=" ">
<path fill="none" stroke="#63b8ff" d="M182.52,-120.79C175.22,-111.33 166.63,-98.25 162.75,-85 159.01,-72.2 159.06,-67.81 162.75,-55 165.62,-45.06 171.44,-35.2 177.03,-27.29"/>
<polygon fill="#63b8ff" stroke="#63b8ff" points="179.84,-29.39 183.08,-19.3 174.25,-25.16 179.84,-29.39"/>
</a>
</g>
</g>
<!-- Node6&#45;&gt;Node7 -->
<g id="edge7_Node000006_Node000007" class="edge">
<title>Node6&#45;&gt;Node7</title>
<g id="a_edge7_Node000006_Node000007"><a xlink:title=" ">
<path fill="none" stroke="#63b8ff" d="M235.79,-120.95C263.8,-111.37 301.11,-98.6 330.99,-88.37"/>
<polygon fill="#63b8ff" stroke="#63b8ff" points="332.48,-91.56 340.81,-85.01 330.22,-84.94 332.48,-91.56"/>
</a>
</g>
</g>
<!-- Node8 -->
<g id="Node000008" class="node">
<title>Node8</title>
<g id="a_Node000008"><a xlink:href="shape__type__2d_8h.html" target="_top" xlink:title=" ">
<polygon fill="white" stroke="#666666" points="301.25,-85 172.25,-85 172.25,-55 301.25,-55 301.25,-85"/>
<text text-anchor="start" x="180.25" y="-73" font-family="Helvetica,sans-Serif" font-size="10.00">engine/physics/world</text>
<text text-anchor="middle" x="236.75" y="-62" font-family="Helvetica,sans-Serif" font-size="10.00">/body/shape_type_2d.h</text>
</a>
</g>
</g>
<!-- Node6&#45;&gt;Node8 -->
<g id="edge10_Node000006_Node000008" class="edge">
<title>Node6&#45;&gt;Node8</title>
<g id="a_edge10_Node000006_Node000008"><a xlink:title=" ">
<path fill="none" stroke="#63b8ff" d="M204.08,-120.8C209.3,-112.84 215.93,-102.74 221.85,-93.71"/>
<polygon fill="#63b8ff" stroke="#63b8ff" points="224.9,-95.44 227.46,-85.16 219.05,-91.6 224.9,-95.44"/>
</a>
</g>
</g>
<!-- Node6&#45;&gt;Node9 -->
<g id="edge13_Node000006_Node000009" class="edge">
<title>Node6&#45;&gt;Node9</title>
<g id="a_edge13_Node000006_Node000009"><a xlink:title=" ">
<path fill="none" stroke="#63b8ff" d="M166.23,-120.95C147.43,-111.7 122.62,-99.49 102.23,-89.45"/>
<polygon fill="#63b8ff" stroke="#63b8ff" points="103.73,-86.29 93.22,-85.01 100.64,-92.57 103.73,-86.29"/>
</a>
</g>
</g>
<!-- Node6&#45;&gt;Node10 -->
<g id="edge14_Node000006_Node000010" class="edge">
<title>Node6&#45;&gt;Node10</title>
<g id="a_edge14_Node000006_Node000010"><a xlink:title=" ">
<path fill="none" stroke="#63b8ff" d="M254.28,-127.09C307.13,-119.22 386.1,-105.35 452.75,-85 454.43,-84.49 456.14,-83.92 457.85,-83.31"/>
<polygon fill="#63b8ff" stroke="#63b8ff" points="459.46,-86.44 467.51,-79.55 456.92,-79.92 459.46,-86.44"/>
</a>
</g>
</g>
<!-- Node7&#45;&gt;Node3 -->
<g id="edge8_Node000007_Node000003" class="edge">
<title>Node7&#45;&gt;Node3</title>
<g id="a_edge8_Node000007_Node000003"><a xlink:title=" ">
<path fill="none" stroke="#63b8ff" d="M336.01,-54.99C303.19,-44.94 259.49,-31.55 228.62,-22.1"/>
<polygon fill="#63b8ff" stroke="#63b8ff" points="229.27,-18.64 218.68,-19.05 227.22,-25.33 229.27,-18.64"/>
</a>
</g>
</g>
<!-- Node7&#45;&gt;Node5 -->
<g id="edge9_Node000007_Node000005" class="edge">
<title>Node7&#45;&gt;Node5</title>
<g id="a_edge9_Node000007_Node000005"><a xlink:title=" ">
<path fill="none" stroke="#63b8ff" d="M381.75,-54.84C381.75,-47.21 381.75,-37.7 381.75,-29.45"/>
<polygon fill="#63b8ff" stroke="#63b8ff" points="385.25,-29.27 381.75,-19.27 378.25,-29.27 385.25,-29.27"/>
</a>
</g>
</g>
<!-- Node8&#45;&gt;Node3 -->
<g id="edge11_Node000008_Node000003" class="edge">
<title>Node8&#45;&gt;Node3</title>
<g id="a_edge11_Node000008_Node000003"><a xlink:title=" ">
<path fill="none" stroke="#63b8ff" d="M225.62,-54.84C219.08,-46.52 210.77,-35.96 203.91,-27.23"/>
<polygon fill="#63b8ff" stroke="#63b8ff" points="206.58,-24.96 197.65,-19.27 201.08,-29.29 206.58,-24.96"/>
</a>
</g>
</g>
<!-- Node8&#45;&gt;Node5 -->
<g id="edge12_Node000008_Node000005" class="edge">
<title>Node8&#45;&gt;Node5</title>
<g id="a_edge12_Node000008_Node000005"><a xlink:title=" ">
<path fill="none" stroke="#63b8ff" d="M271.49,-54.99C295.68,-45.23 327.65,-32.33 350.94,-22.93"/>
<polygon fill="#63b8ff" stroke="#63b8ff" points="352.38,-26.13 360.34,-19.14 349.76,-19.63 352.38,-26.13"/>
</a>
</g>
</g>
<!-- Node11&#45;&gt;Node10 -->
<g id="edge20_Node000011_Node000010" class="edge">
<title>Node11&#45;&gt;Node10</title>
<g id="a_edge20_Node000011_Node000010"><a xlink:title=" ">
<path fill="none" stroke="#63b8ff" d="M704.03,-126.44C655.8,-114.19 567.64,-91.8 519.43,-79.55"/>
<polygon fill="#63b8ff" stroke="#63b8ff" points="520.05,-76.1 509.5,-77.03 518.33,-82.88 520.05,-76.1"/>
</a>
</g>
</g>
<!-- Node12 -->
<g id="Node000012" class="node">
<title>Node12</title>
<g id="a_Node000012"><a xlink:title=" ">
<polygon fill="#e0e0e0" stroke="#999999" points="765.25,-79.5 700.25,-79.5 700.25,-60.5 765.25,-60.5 765.25,-79.5"/>
<text text-anchor="middle" x="732.75" y="-67.5" font-family="Helvetica,sans-Serif" font-size="10.00">functional</text>
</a>
</g>
</g>
<!-- Node11&#45;&gt;Node12 -->
<g id="edge17_Node000011_Node000012" class="edge">
<title>Node11&#45;&gt;Node12</title>
<g id="a_edge17_Node000011_Node000012"><a xlink:title=" ">
<path fill="none" stroke="#63b8ff" d="M737.08,-126.37C736.35,-117.07 735.17,-101.98 734.23,-89.9"/>
<polygon fill="#63b8ff" stroke="#63b8ff" points="737.72,-89.6 733.45,-79.91 730.74,-90.15 737.72,-89.6"/>
</a>
</g>
</g>
<!-- Node11&#45;&gt;Node13 -->
<g id="edge18_Node000011_Node000013" class="edge">
<title>Node11&#45;&gt;Node13</title>
<g id="a_edge18_Node000011_Node000013"><a xlink:title=" ">
<path fill="none" stroke="#63b8ff" d="M724.81,-126.37C709.06,-115.87 682.25,-98 663.36,-85.4"/>
<polygon fill="#63b8ff" stroke="#63b8ff" points="665.06,-82.33 654.8,-79.7 661.18,-88.16 665.06,-82.33"/>
</a>
</g>
</g>
<!-- Node14 -->
<g id="Node000014" class="node">
<title>Node14</title>
<g id="a_Node000014"><a xlink:title=" ">
<polygon fill="#e0e0e0" stroke="#999999" points="839.75,-79.5 783.75,-79.5 783.75,-60.5 839.75,-60.5 839.75,-79.5"/>
<text text-anchor="middle" x="811.75" y="-67.5" font-family="Helvetica,sans-Serif" font-size="10.00">optional</text>
</a>
</g>
</g>
<!-- Node11&#45;&gt;Node14 -->
<g id="edge19_Node000011_Node000014" class="edge">
<title>Node11&#45;&gt;Node14</title>
<g id="a_edge19_Node000011_Node000014"><a xlink:title=" ">
<path fill="none" stroke="#63b8ff" d="M747.73,-126.37C759.47,-116.21 779.2,-99.16 793.65,-86.65"/>
<polygon fill="#63b8ff" stroke="#63b8ff" points="796.18,-89.09 801.46,-79.91 791.6,-83.8 796.18,-89.09"/>
</a>
</g>
</g>
</g>
</svg>
