<?xml version="1.0" encoding="UTF-8" standalone="no"?>
<!DOCTYPE svg PUBLIC "-//W3C//DTD SVG 1.1//EN"
 "http://www.w3.org/Graphics/SVG/1.1/DTD/svg11.dtd">
<!-- Generated by graphviz version 2.43.0 (0)
 -->
<!-- Title: include/engine/public/scene_service.h Pages: 1 -->
<svg width="814pt" height="269pt"
 viewBox="0.00 0.00 814.00 269.00" xmlns="http://www.w3.org/2000/svg" xmlns:xlink="http://www.w3.org/1999/xlink">
<g id="graph0" class="graph" transform="scale(1 1) rotate(0) translate(4 265)">
<title>include/engine/public/scene_service.h</title>
<!-- Node1 -->
<g id="Node000001" class="node">
<title>Node1</title>
<g id="a_Node000001"><a xlink:title=" ">
<polygon fill="#999999" stroke="#666666" points="576,-261 456,-261 456,-231 576,-231 576,-261"/>
<text text-anchor="start" x="464" y="-249" font-family="Helvetica,sans-Serif" font-size="10.00">include/engine/public</text>
<text text-anchor="middle" x="516" y="-238" font-family="Helvetica,sans-Serif" font-size="10.00">/scene_service.h</text>
</a>
</g>
</g>
<!-- Node2 -->
<g id="Node000002" class="node">
<title>Node2</title>
<g id="a_Node000002"><a xlink:title=" ">
<polygon fill="#e0e0e0" stroke="#999999" points="58,-24.5 0,-24.5 0,-5.5 58,-5.5 58,-24.5"/>
<text text-anchor="middle" x="29" y="-12.5" font-family="Helvetica,sans-Serif" font-size="10.00">memory</text>
</a>
</g>
</g>
<!-- Node1&#45;&gt;Node2 -->
<g id="edge1_Node000001_Node000002" class="edge">
<title>Node1&#45;&gt;Node2</title>
<g id="a_edge1_Node000001_Node000002"><a xlink:title=" ">
<path fill="none" stroke="#63b8ff" d="M455.88,-235.32C376.02,-221.11 231.67,-190.63 117,-140 75.84,-121.82 54.36,-124.05 32,-85 23.26,-69.74 23.55,-49.33 25.39,-34.67"/>
<polygon fill="#63b8ff" stroke="#63b8ff" points="28.85,-35.19 26.98,-24.76 21.94,-34.08 28.85,-35.19"/>
</a>
</g>
</g>
<!-- Node3 -->
<g id="Node000003" class="node">
<title>Node3</title>
<g id="a_Node000003"><a xlink:title=" ">
<polygon fill="#e0e0e0" stroke="#999999" points="535,-195 497,-195 497,-176 535,-176 535,-195"/>
<text text-anchor="middle" x="516" y="-183" font-family="Helvetica,sans-Serif" font-size="10.00">map</text>
</a>
</g>
</g>
<!-- Node1&#45;&gt;Node3 -->
<g id="edge2_Node000001_Node000003" class="edge">
<title>Node1&#45;&gt;Node3</title>
<g id="a_edge2_Node000001_Node000003"><a xlink:title=" ">
<path fill="none" stroke="#63b8ff" d="M516,-230.84C516,-223.21 516,-213.7 516,-205.45"/>
<polygon fill="#63b8ff" stroke="#63b8ff" points="519.5,-205.27 516,-195.27 512.5,-205.27 519.5,-205.27"/>
</a>
</g>
</g>
<!-- Node4 -->
<g id="Node000004" class="node">
<title>Node4</title>
<g id="a_Node000004"><a xlink:title=" ">
<polygon fill="#e0e0e0" stroke="#999999" points="585,-195 553,-195 553,-176 585,-176 585,-195"/>
<text text-anchor="middle" x="569" y="-183" font-family="Helvetica,sans-Serif" font-size="10.00">set</text>
</a>
</g>
</g>
<!-- Node1&#45;&gt;Node4 -->
<g id="edge3_Node000001_Node000004" class="edge">
<title>Node1&#45;&gt;Node4</title>
<g id="a_edge3_Node000001_Node000004"><a xlink:title=" ">
<path fill="none" stroke="#63b8ff" d="M528.83,-230.84C536.52,-222.35 546.33,-211.52 554.33,-202.69"/>
<polygon fill="#63b8ff" stroke="#63b8ff" points="556.94,-205.03 561.06,-195.27 551.75,-200.33 556.94,-205.03"/>
</a>
</g>
</g>
<!-- Node5 -->
<g id="Node000005" class="node">
<title>Node5</title>
<g id="a_Node000005"><a xlink:href="scene_8h.html" target="_top" xlink:title=" ">
<polygon fill="white" stroke="#666666" points="479,-195 357,-195 357,-176 479,-176 479,-195"/>
<text text-anchor="middle" x="418" y="-183" font-family="Helvetica,sans-Serif" font-size="10.00">engine/public/scene.h</text>
</a>
</g>
</g>
<!-- Node1&#45;&gt;Node5 -->
<g id="edge4_Node000001_Node000005" class="edge">
<title>Node1&#45;&gt;Node5</title>
<g id="a_edge4_Node000001_Node000005"><a xlink:title=" ">
<path fill="none" stroke="#63b8ff" d="M492.28,-230.84C476.8,-221.6 456.68,-209.59 441.29,-200.4"/>
<polygon fill="#63b8ff" stroke="#63b8ff" points="442.78,-197.21 432.4,-195.09 439.19,-203.23 442.78,-197.21"/>
</a>
</g>
</g>
<!-- Node16 -->
<g id="Node000016" class="node">
<title>Node16</title>
<g id="a_Node000016"><a xlink:href="i_engine_service_8h.html" target="_top" xlink:title=" ">
<polygon fill="white" stroke="#666666" points="780,-195 622,-195 622,-176 780,-176 780,-195"/>
<text text-anchor="middle" x="701" y="-183" font-family="Helvetica,sans-Serif" font-size="10.00">engine/core/iEngineService.h</text>
</a>
</g>
</g>
<!-- Node1&#45;&gt;Node16 -->
<g id="edge23_Node000001_Node000016" class="edge">
<title>Node1&#45;&gt;Node16</title>
<g id="a_edge23_Node000001_Node000016"><a xlink:title=" ">
<path fill="none" stroke="#63b8ff" d="M560.31,-230.99C592.1,-220.94 634.42,-207.55 664.32,-198.1"/>
<polygon fill="#63b8ff" stroke="#63b8ff" points="665.47,-201.41 673.95,-195.05 663.36,-194.73 665.47,-201.41"/>
</a>
</g>
</g>
<!-- Node5&#45;&gt;Node2 -->
<g id="edge6_Node000005_Node000002" class="edge">
<title>Node5&#45;&gt;Node2</title>
<g id="a_edge6_Node000005_Node000002"><a xlink:title=" ">
<path fill="none" stroke="#63b8ff" d="M358.63,-175.94C265.33,-161.33 90.53,-128.83 47,-85 33.8,-71.71 29.92,-50.03 28.95,-34.52"/>
<polygon fill="#63b8ff" stroke="#63b8ff" points="32.45,-34.42 28.66,-24.52 25.45,-34.62 32.45,-34.42"/>
</a>
</g>
</g>
<!-- Node6 -->
<g id="Node000006" class="node">
<title>Node6</title>
<g id="a_Node000006"><a xlink:title=" ">
<polygon fill="#e0e0e0" stroke="#999999" points="665.5,-24.5 618.5,-24.5 618.5,-5.5 665.5,-5.5 665.5,-24.5"/>
<text text-anchor="middle" x="642" y="-12.5" font-family="Helvetica,sans-Serif" font-size="10.00">vector</text>
</a>
</g>
</g>
<!-- Node5&#45;&gt;Node6 -->
<g id="edge5_Node000005_Node000006" class="edge">
<title>Node5&#45;&gt;Node6</title>
<g id="a_edge5_Node000005_Node000006"><a xlink:title=" ">
<path fill="none" stroke="#63b8ff" d="M479.08,-176.19C532.74,-165.31 607.75,-140.56 644,-85 653.6,-70.28 651.55,-49.79 648.04,-34.96"/>
<polygon fill="#63b8ff" stroke="#63b8ff" points="651.3,-33.62 645.24,-24.92 644.56,-35.49 651.3,-33.62"/>
</a>
</g>
</g>
<!-- Node7 -->
<g id="Node000007" class="node">
<title>Node7</title>
<g id="a_Node000007"><a xlink:title=" ">
<polygon fill="#e0e0e0" stroke="#999999" points="749.5,-24.5 684.5,-24.5 684.5,-5.5 749.5,-5.5 749.5,-24.5"/>
<text text-anchor="middle" x="717" y="-12.5" font-family="Helvetica,sans-Serif" font-size="10.00">functional</text>
</a>
</g>
</g>
<!-- Node5&#45;&gt;Node7 -->
<g id="edge7_Node000005_Node000007" class="edge">
<title>Node5&#45;&gt;Node7</title>
<g id="a_edge7_Node000005_Node000007"><a xlink:title=" ">
<path fill="none" stroke="#63b8ff" d="M471.66,-175.96C520.55,-167.51 588.58,-153.86 612,-140 656.76,-113.52 691.51,-60.87 707.45,-33.48"/>
<polygon fill="#63b8ff" stroke="#63b8ff" points="710.58,-35.05 712.46,-24.62 704.49,-31.6 710.58,-35.05"/>
</a>
</g>
</g>
<!-- Node8 -->
<g id="Node000008" class="node">
<title>Node8</title>
<g id="a_Node000008"><a xlink:href="game_object_8h.html" target="_top" xlink:title=" ">
<polygon fill="white" stroke="#666666" points="456.5,-140 303.5,-140 303.5,-121 456.5,-121 456.5,-140"/>
<text text-anchor="middle" x="380" y="-128" font-family="Helvetica,sans-Serif" font-size="10.00">engine/public/gameObject.h</text>
</a>
</g>
</g>
<!-- Node5&#45;&gt;Node8 -->
<g id="edge8_Node000005_Node000008" class="edge">
<title>Node5&#45;&gt;Node8</title>
<g id="a_edge8_Node000005_Node000008"><a xlink:title=" ">
<path fill="none" stroke="#63b8ff" d="M411.73,-175.75C406.41,-168.34 398.64,-157.5 392.12,-148.41"/>
<polygon fill="#63b8ff" stroke="#63b8ff" points="394.83,-146.18 386.16,-140.09 389.14,-150.26 394.83,-146.18"/>
</a>
</g>
</g>
<!-- Node8&#45;&gt;Node6 -->
<g id="edge13_Node000008_Node000006" class="edge">
<title>Node8&#45;&gt;Node6</title>
<g id="a_edge13_Node000008_Node000006"><a xlink:title=" ">
<path fill="none" stroke="#63b8ff" d="M456.75,-124.25C518.6,-118.46 599.08,-106.91 623,-85 636.86,-72.3 640.97,-50.52 642.02,-34.82"/>
<polygon fill="#63b8ff" stroke="#63b8ff" points="645.52,-34.78 642.34,-24.68 638.53,-34.57 645.52,-34.78"/>
</a>
</g>
</g>
<!-- Node9 -->
<g id="Node000009" class="node">
<title>Node9</title>
<g id="a_Node000009"><a xlink:title=" ">
<polygon fill="#e0e0e0" stroke="#999999" points="318,-85 254,-85 254,-66 318,-66 318,-85"/>
<text text-anchor="middle" x="286" y="-73" font-family="Helvetica,sans-Serif" font-size="10.00">algorithm</text>
</a>
</g>
</g>
<!-- Node8&#45;&gt;Node9 -->
<g id="edge9_Node000008_Node000009" class="edge">
<title>Node8&#45;&gt;Node9</title>
<g id="a_edge9_Node000008_Node000009"><a xlink:title=" ">
<path fill="none" stroke="#63b8ff" d="M364.9,-120.98C350.18,-112.69 327.58,-99.94 310.33,-90.22"/>
<polygon fill="#63b8ff" stroke="#63b8ff" points="311.81,-87.03 301.38,-85.17 308.37,-93.13 311.81,-87.03"/>
</a>
</g>
</g>
<!-- Node10 -->
<g id="Node000010" class="node">
<title>Node10</title>
<g id="a_Node000010"><a xlink:title=" ">
<polygon fill="#e0e0e0" stroke="#999999" points="254,-24.5 198,-24.5 198,-5.5 254,-5.5 254,-24.5"/>
<text text-anchor="middle" x="226" y="-12.5" font-family="Helvetica,sans-Serif" font-size="10.00">optional</text>
</a>
</g>
</g>
<!-- Node8&#45;&gt;Node10 -->
<g id="edge10_Node000008_Node000010" class="edge">
<title>Node8&#45;&gt;Node10</title>
<g id="a_edge10_Node000008_Node000010"><a xlink:title=" ">
<path fill="none" stroke="#63b8ff" d="M313.15,-120.91C288.78,-114.63 262.86,-103.77 245,-85 232.31,-71.66 227.94,-50.64 226.52,-35.3"/>
<polygon fill="#63b8ff" stroke="#63b8ff" points="229.99,-34.68 225.91,-24.9 223,-35.09 229.99,-34.68"/>
</a>
</g>
</g>
<!-- Node11 -->
<g id="Node000011" class="node">
<title>Node11</title>
<g id="a_Node000011"><a xlink:title=" ">
<polygon fill="#e0e0e0" stroke="#999999" points="386,-85 336,-85 336,-66 386,-66 386,-85"/>
<text text-anchor="middle" x="361" y="-73" font-family="Helvetica,sans-Serif" font-size="10.00">ranges</text>
</a>
</g>
</g>
<!-- Node8&#45;&gt;Node11 -->
<g id="edge11_Node000008_Node000011" class="edge">
<title>Node8&#45;&gt;Node11</title>
<g id="a_edge11_Node000008_Node000011"><a xlink:title=" ">
<path fill="none" stroke="#63b8ff" d="M376.86,-120.75C374.32,-113.65 370.64,-103.4 367.47,-94.56"/>
<polygon fill="#63b8ff" stroke="#63b8ff" points="370.75,-93.32 364.08,-85.09 364.16,-95.68 370.75,-93.32"/>
</a>
</g>
</g>
<!-- Node12 -->
<g id="Node000012" class="node">
<title>Node12</title>
<g id="a_Node000012"><a xlink:title=" ">
<polygon fill="#e0e0e0" stroke="#999999" points="448,-85 404,-85 404,-66 448,-66 448,-85"/>
<text text-anchor="middle" x="426" y="-73" font-family="Helvetica,sans-Serif" font-size="10.00">string</text>
</a>
</g>
</g>
<!-- Node8&#45;&gt;Node12 -->
<g id="edge12_Node000008_Node000012" class="edge">
<title>Node8&#45;&gt;Node12</title>
<g id="a_edge12_Node000008_Node000012"><a xlink:title=" ">
<path fill="none" stroke="#63b8ff" d="M387.6,-120.75C394.16,-113.18 403.82,-102.05 411.81,-92.84"/>
<polygon fill="#63b8ff" stroke="#63b8ff" points="414.63,-94.94 418.55,-85.09 409.35,-90.35 414.63,-94.94"/>
</a>
</g>
</g>
<!-- Node13 -->
<g id="Node000013" class="node">
<title>Node13</title>
<g id="a_Node000013"><a xlink:href="transform_8h.html" target="_top" xlink:title=" ">
<polygon fill="white" stroke="#666666" points="198,-85 56,-85 56,-66 198,-66 198,-85"/>
<text text-anchor="middle" x="127" y="-73" font-family="Helvetica,sans-Serif" font-size="10.00">engine/public/transform.h</text>
</a>
</g>
</g>
<!-- Node8&#45;&gt;Node13 -->
<g id="edge14_Node000008_Node000013" class="edge">
<title>Node8&#45;&gt;Node13</title>
<g id="a_edge14_Node000008_Node000013"><a xlink:title=" ">
<path fill="none" stroke="#63b8ff" d="M339.35,-120.98C295.5,-111.8 225.58,-97.15 178.05,-87.19"/>
<polygon fill="#63b8ff" stroke="#63b8ff" points="178.47,-83.71 167.97,-85.08 177.04,-90.56 178.47,-83.71"/>
</a>
</g>
</g>
<!-- Node15 -->
<g id="Node000015" class="node">
<title>Node15</title>
<g id="a_Node000015"><a xlink:href="component_8h.html" target="_top" xlink:title=" ">
<polygon fill="white" stroke="#666666" points="614.5,-85 465.5,-85 465.5,-66 614.5,-66 614.5,-85"/>
<text text-anchor="middle" x="540" y="-73" font-family="Helvetica,sans-Serif" font-size="10.00">engine/public/component.h</text>
</a>
</g>
</g>
<!-- Node8&#45;&gt;Node15 -->
<g id="edge18_Node000008_Node000015" class="edge">
<title>Node8&#45;&gt;Node15</title>
<g id="a_edge18_Node000008_Node000015"><a xlink:title=" ">
<path fill="none" stroke="#63b8ff" d="M405.71,-120.98C432.45,-112.13 474.53,-98.19 504.45,-88.28"/>
<polygon fill="#63b8ff" stroke="#63b8ff" points="505.7,-91.55 514.09,-85.08 503.5,-84.9 505.7,-91.55"/>
</a>
</g>
</g>
<!-- Node13&#45;&gt;Node2 -->
<g id="edge15_Node000013_Node000002" class="edge">
<title>Node13&#45;&gt;Node2</title>
<g id="a_edge15_Node000013_Node000002"><a xlink:title=" ">
<path fill="none" stroke="#63b8ff" d="M112.54,-65.87C96.69,-56.41 71.03,-41.09 52.32,-29.92"/>
<polygon fill="#63b8ff" stroke="#63b8ff" points="53.9,-26.79 43.52,-24.67 50.31,-32.8 53.9,-26.79"/>
</a>
</g>
</g>
<!-- Node13&#45;&gt;Node10 -->
<g id="edge16_Node000013_Node000010" class="edge">
<title>Node13&#45;&gt;Node10</title>
<g id="a_edge16_Node000013_Node000010"><a xlink:title=" ">
<path fill="none" stroke="#63b8ff" d="M141.61,-65.87C157.69,-56.36 183.78,-40.95 202.7,-29.77"/>
<polygon fill="#63b8ff" stroke="#63b8ff" points="204.5,-32.77 211.33,-24.67 200.94,-26.74 204.5,-32.77"/>
</a>
</g>
</g>
<!-- Node14 -->
<g id="Node000014" class="node">
<title>Node14</title>
<g id="a_Node000014"><a xlink:href="vector3_8h.html" target="_top" xlink:title=" ">
<polygon fill="white" stroke="#666666" points="177.5,-30 76.5,-30 76.5,0 177.5,0 177.5,-30"/>
<text text-anchor="start" x="84.5" y="-18" font-family="Helvetica,sans-Serif" font-size="10.00">engine/public/util</text>
<text text-anchor="middle" x="127" y="-7" font-family="Helvetica,sans-Serif" font-size="10.00">/vector3.h</text>
</a>
</g>
</g>
<!-- Node13&#45;&gt;Node14 -->
<g id="edge17_Node000013_Node000014" class="edge">
<title>Node13&#45;&gt;Node14</title>
<g id="a_edge17_Node000013_Node000014"><a xlink:title=" ">
<path fill="none" stroke="#63b8ff" d="M127,-65.87C127,-59.11 127,-49.35 127,-40.26"/>
<polygon fill="#63b8ff" stroke="#63b8ff" points="130.5,-40.11 127,-30.11 123.5,-40.11 130.5,-40.11"/>
</a>
</g>
</g>
<!-- Node15&#45;&gt;Node2 -->
<g id="edge20_Node000015_Node000002" class="edge">
<title>Node15&#45;&gt;Node2</title>
<g id="a_edge20_Node000015_Node000002"><a xlink:title=" ">
<path fill="none" stroke="#63b8ff" d="M465.35,-66.82C462.53,-66.54 459.74,-66.27 457,-66 283.75,-49.13 236.78,-68.42 67,-30 64.33,-29.4 61.59,-28.65 58.86,-27.82"/>
<polygon fill="#63b8ff" stroke="#63b8ff" points="59.81,-24.45 49.21,-24.56 57.56,-31.08 59.81,-24.45"/>
</a>
</g>
</g>
<!-- Node15&#45;&gt;Node6 -->
<g id="edge22_Node000015_Node000006" class="edge">
<title>Node15&#45;&gt;Node6</title>
<g id="a_edge22_Node000015_Node000006"><a xlink:title=" ">
<path fill="none" stroke="#63b8ff" d="M555.05,-65.87C571.62,-56.36 598.5,-40.95 617.99,-29.77"/>
<polygon fill="#63b8ff" stroke="#63b8ff" points="619.95,-32.68 626.89,-24.67 616.47,-26.61 619.95,-32.68"/>
</a>
</g>
</g>
<!-- Node15&#45;&gt;Node7 -->
<g id="edge19_Node000015_Node000007" class="edge">
<title>Node15&#45;&gt;Node7</title>
<g id="a_edge19_Node000015_Node000007"><a xlink:title=" ">
<path fill="none" stroke="#63b8ff" d="M565.89,-65.99C593.07,-57.06 637.05,-42.58 675,-30 677.13,-29.29 679.33,-28.56 681.54,-27.83"/>
<polygon fill="#63b8ff" stroke="#63b8ff" points="682.86,-31.08 691.24,-24.6 680.65,-24.44 682.86,-31.08"/>
</a>
</g>
</g>
<!-- Node15&#45;&gt;Node10 -->
<g id="edge21_Node000015_Node000010" class="edge">
<title>Node15&#45;&gt;Node10</title>
<g id="a_edge21_Node000015_Node000010"><a xlink:title=" ">
<path fill="none" stroke="#63b8ff" d="M494.34,-65.99C432.24,-54.42 322.27,-33.94 264.27,-23.13"/>
<polygon fill="#63b8ff" stroke="#63b8ff" points="264.87,-19.68 254.4,-21.29 263.59,-26.56 264.87,-19.68"/>
</a>
</g>
</g>
<!-- Node17 -->
<g id="Node000017" class="node">
<title>Node17</title>
<g id="a_Node000017"><a xlink:title=" ">
<polygon fill="#e0e0e0" stroke="#999999" points="806,-140 746,-140 746,-121 806,-121 806,-140"/>
<text text-anchor="middle" x="776" y="-128" font-family="Helvetica,sans-Serif" font-size="10.00">concepts</text>
</a>
</g>
</g>
<!-- Node16&#45;&gt;Node17 -->
<g id="edge24_Node000016_Node000017" class="edge">
<title>Node16&#45;&gt;Node17</title>
<g id="a_edge24_Node000016_Node000017"><a xlink:title=" ">
<path fill="none" stroke="#63b8ff" d="M713.05,-175.98C724.46,-167.92 741.83,-155.65 755.43,-146.03"/>
<polygon fill="#63b8ff" stroke="#63b8ff" points="757.58,-148.8 763.73,-140.17 753.54,-143.08 757.58,-148.8"/>
</a>
</g>
</g>
</g>
</svg>
