<?xml version="1.0" encoding="UTF-8" standalone="no"?>
<!DOCTYPE svg PUBLIC "-//W3C//DTD SVG 1.1//EN"
 "http://www.w3.org/Graphics/SVG/1.1/DTD/svg11.dtd">
<!-- Generated by graphviz version 2.43.0 (0)
 -->
<!-- Title: include/engine/public/scene.h Pages: 1 -->
<svg width="667pt" height="214pt"
 viewBox="0.00 0.00 666.94 214.00" xmlns="http://www.w3.org/2000/svg" xmlns:xlink="http://www.w3.org/1999/xlink">
<g id="graph0" class="graph" transform="scale(1 1) rotate(0) translate(4 210)">
<title>include/engine/public/scene.h</title>
<!-- Node1 -->
<g id="Node000001" class="node">
<title>Node1</title>
<g id="a_Node000001"><a xlink:title=" ">
<polygon fill="#999999" stroke="#666666" points="165.44,-206 45.44,-206 45.44,-176 165.44,-176 165.44,-206"/>
<text text-anchor="start" x="53.44" y="-194" font-family="Helvetica,sans-Serif" font-size="10.00">include/engine/public</text>
<text text-anchor="middle" x="105.44" y="-183" font-family="Helvetica,sans-Serif" font-size="10.00">/scene.h</text>
</a>
</g>
</g>
<!-- Node2 -->
<g id="Node000002" class="node">
<title>Node2</title>
<g id="a_Node000002"><a xlink:title=" ">
<polygon fill="#e0e0e0" stroke="#999999" points="86.94,-24.5 39.94,-24.5 39.94,-5.5 86.94,-5.5 86.94,-24.5"/>
<text text-anchor="middle" x="63.44" y="-12.5" font-family="Helvetica,sans-Serif" font-size="10.00">vector</text>
</a>
</g>
</g>
<!-- Node1&#45;&gt;Node2 -->
<g id="edge1_Node000001_Node000002" class="edge">
<title>Node1&#45;&gt;Node2</title>
<g id="a_edge1_Node000001_Node000002"><a xlink:title=" ">
<path fill="none" stroke="#63b8ff" d="M56.83,-175.92C39.38,-168.25 21.53,-156.8 11.44,-140 -5.5,-111.81 -1.45,-96.26 11.44,-66 17.53,-51.68 29.97,-39.47 41.15,-30.71"/>
<polygon fill="#63b8ff" stroke="#63b8ff" points="43.35,-33.44 49.33,-24.7 39.2,-27.8 43.35,-33.44"/>
</a>
</g>
</g>
<!-- Node3 -->
<g id="Node000003" class="node">
<title>Node3</title>
<g id="a_Node000003"><a xlink:title=" ">
<polygon fill="#e0e0e0" stroke="#999999" points="338.44,-24.5 280.44,-24.5 280.44,-5.5 338.44,-5.5 338.44,-24.5"/>
<text text-anchor="middle" x="309.44" y="-12.5" font-family="Helvetica,sans-Serif" font-size="10.00">memory</text>
</a>
</g>
</g>
<!-- Node1&#45;&gt;Node3 -->
<g id="edge2_Node000001_Node000003" class="edge">
<title>Node1&#45;&gt;Node3</title>
<g id="a_edge2_Node000001_Node000003"><a xlink:title=" ">
<path fill="none" stroke="#63b8ff" d="M96.44,-175.99C81.67,-151.02 56.38,-98.43 82.44,-66 105.57,-37.22 211.64,-24.03 270.24,-18.86"/>
<polygon fill="#63b8ff" stroke="#63b8ff" points="270.59,-22.34 280.26,-18.01 270,-15.36 270.59,-22.34"/>
</a>
</g>
</g>
<!-- Node4 -->
<g id="Node000004" class="node">
<title>Node4</title>
<g id="a_Node000004"><a xlink:title=" ">
<polygon fill="#e0e0e0" stroke="#999999" points="539.94,-24.5 474.94,-24.5 474.94,-5.5 539.94,-5.5 539.94,-24.5"/>
<text text-anchor="middle" x="507.44" y="-12.5" font-family="Helvetica,sans-Serif" font-size="10.00">functional</text>
</a>
</g>
</g>
<!-- Node1&#45;&gt;Node4 -->
<g id="edge3_Node000001_Node000004" class="edge">
<title>Node1&#45;&gt;Node4</title>
<g id="a_edge3_Node000001_Node000004"><a xlink:title=" ">
<path fill="none" stroke="#63b8ff" d="M165.58,-187.52C293,-180.88 583.39,-157.9 643.44,-85 648.8,-78.48 648.27,-72.93 643.44,-66 641.89,-63.78 581.08,-41.99 541.3,-27.92"/>
<polygon fill="#63b8ff" stroke="#63b8ff" points="542.29,-24.55 531.69,-24.52 539.96,-31.15 542.29,-24.55"/>
</a>
</g>
</g>
<!-- Node5 -->
<g id="Node000005" class="node">
<title>Node5</title>
<g id="a_Node000005"><a xlink:href="game_object_8h.html" target="_top" xlink:title=" ">
<polygon fill="white" stroke="#666666" points="323.94,-140 170.94,-140 170.94,-121 323.94,-121 323.94,-140"/>
<text text-anchor="middle" x="247.44" y="-128" font-family="Helvetica,sans-Serif" font-size="10.00">engine/public/gameObject.h</text>
</a>
</g>
</g>
<!-- Node1&#45;&gt;Node5 -->
<g id="edge4_Node000001_Node000005" class="edge">
<title>Node1&#45;&gt;Node5</title>
<g id="a_edge4_Node000001_Node000005"><a xlink:title=" ">
<path fill="none" stroke="#63b8ff" d="M139.45,-175.99C163.03,-166.27 194.18,-153.44 216.95,-144.06"/>
<polygon fill="#63b8ff" stroke="#63b8ff" points="218.55,-147.18 226.47,-140.14 215.89,-140.71 218.55,-147.18"/>
</a>
</g>
</g>
<!-- Node5&#45;&gt;Node2 -->
<g id="edge9_Node000005_Node000002" class="edge">
<title>Node5&#45;&gt;Node2</title>
<g id="a_edge9_Node000005_Node000002"><a xlink:title=" ">
<path fill="none" stroke="#63b8ff" d="M170.65,-125.12C139.6,-119.57 105.68,-108.12 82.44,-85 69.11,-71.74 64.9,-50.06 63.68,-34.54"/>
<polygon fill="#63b8ff" stroke="#63b8ff" points="67.18,-34.37 63.24,-24.53 60.19,-34.68 67.18,-34.37"/>
</a>
</g>
</g>
<!-- Node6 -->
<g id="Node000006" class="node">
<title>Node6</title>
<g id="a_Node000006"><a xlink:title=" ">
<polygon fill="#e0e0e0" stroke="#999999" points="217.44,-85 153.44,-85 153.44,-66 217.44,-66 217.44,-85"/>
<text text-anchor="middle" x="185.44" y="-73" font-family="Helvetica,sans-Serif" font-size="10.00">algorithm</text>
</a>
</g>
</g>
<!-- Node5&#45;&gt;Node6 -->
<g id="edge5_Node000005_Node000006" class="edge">
<title>Node5&#45;&gt;Node6</title>
<g id="a_edge5_Node000005_Node000006"><a xlink:title=" ">
<path fill="none" stroke="#63b8ff" d="M237.47,-120.98C228.31,-113.15 214.5,-101.34 203.41,-91.86"/>
<polygon fill="#63b8ff" stroke="#63b8ff" points="205.45,-89.01 195.58,-85.17 200.91,-94.33 205.45,-89.01"/>
</a>
</g>
</g>
<!-- Node7 -->
<g id="Node000007" class="node">
<title>Node7</title>
<g id="a_Node000007"><a xlink:title=" ">
<polygon fill="#e0e0e0" stroke="#999999" points="456.44,-24.5 400.44,-24.5 400.44,-5.5 456.44,-5.5 456.44,-24.5"/>
<text text-anchor="middle" x="428.44" y="-12.5" font-family="Helvetica,sans-Serif" font-size="10.00">optional</text>
</a>
</g>
</g>
<!-- Node5&#45;&gt;Node7 -->
<g id="edge6_Node000005_Node000007" class="edge">
<title>Node5&#45;&gt;Node7</title>
<g id="a_edge6_Node000005_Node000007"><a xlink:title=" ">
<path fill="none" stroke="#63b8ff" d="M324.18,-125.73C427.87,-119.85 602.06,-106.82 621.44,-85 655.84,-46.26 647.25,-85.1 465.44,-30 463.51,-29.42 461.55,-28.79 459.57,-28.12"/>
<polygon fill="#63b8ff" stroke="#63b8ff" points="460.38,-24.7 449.79,-24.64 458.04,-31.29 460.38,-24.7"/>
</a>
</g>
</g>
<!-- Node8 -->
<g id="Node000008" class="node">
<title>Node8</title>
<g id="a_Node000008"><a xlink:title=" ">
<polygon fill="#e0e0e0" stroke="#999999" points="612.44,-85 562.44,-85 562.44,-66 612.44,-66 612.44,-85"/>
<text text-anchor="middle" x="587.44" y="-73" font-family="Helvetica,sans-Serif" font-size="10.00">ranges</text>
</a>
</g>
</g>
<!-- Node5&#45;&gt;Node8 -->
<g id="edge7_Node000005_Node000008" class="edge">
<title>Node5&#45;&gt;Node8</title>
<g id="a_edge7_Node000005_Node000008"><a xlink:title=" ">
<path fill="none" stroke="#63b8ff" d="M320.43,-120.98C380.28,-113.52 467.36,-101.56 552.19,-85.08"/>
<polygon fill="#63b8ff" stroke="#63b8ff" points="553.11,-88.46 562.25,-83.1 551.76,-81.59 553.11,-88.46"/>
</a>
</g>
</g>
<!-- Node9 -->
<g id="Node000009" class="node">
<title>Node9</title>
<g id="a_Node000009"><a xlink:title=" ">
<polygon fill="#e0e0e0" stroke="#999999" points="135.44,-85 91.44,-85 91.44,-66 135.44,-66 135.44,-85"/>
<text text-anchor="middle" x="113.44" y="-73" font-family="Helvetica,sans-Serif" font-size="10.00">string</text>
</a>
</g>
</g>
<!-- Node5&#45;&gt;Node9 -->
<g id="edge8_Node000005_Node000009" class="edge">
<title>Node5&#45;&gt;Node9</title>
<g id="a_edge8_Node000005_Node000009"><a xlink:title=" ">
<path fill="none" stroke="#63b8ff" d="M225.91,-120.98C203.96,-112.3 169.69,-98.75 144.75,-88.88"/>
<polygon fill="#63b8ff" stroke="#63b8ff" points="145.94,-85.59 135.36,-85.17 143.37,-92.1 145.94,-85.59"/>
</a>
</g>
</g>
<!-- Node10 -->
<g id="Node000010" class="node">
<title>Node10</title>
<g id="a_Node000010"><a xlink:href="transform_8h.html" target="_top" xlink:title=" ">
<polygon fill="white" stroke="#666666" points="544.44,-85 402.44,-85 402.44,-66 544.44,-66 544.44,-85"/>
<text text-anchor="middle" x="473.44" y="-73" font-family="Helvetica,sans-Serif" font-size="10.00">engine/public/transform.h</text>
</a>
</g>
</g>
<!-- Node5&#45;&gt;Node10 -->
<g id="edge10_Node000005_Node000010" class="edge">
<title>Node5&#45;&gt;Node10</title>
<g id="a_edge10_Node000005_Node000010"><a xlink:title=" ">
<path fill="none" stroke="#63b8ff" d="M283.75,-120.98C322.68,-111.86 384.59,-97.33 427.03,-87.38"/>
<polygon fill="#63b8ff" stroke="#63b8ff" points="427.9,-90.77 436.84,-85.08 426.31,-83.96 427.9,-90.77"/>
</a>
</g>
</g>
<!-- Node12 -->
<g id="Node000012" class="node">
<title>Node12</title>
<g id="a_Node000012"><a xlink:href="component_8h.html" target="_top" xlink:title=" ">
<polygon fill="white" stroke="#666666" points="383.94,-85 234.94,-85 234.94,-66 383.94,-66 383.94,-85"/>
<text text-anchor="middle" x="309.44" y="-73" font-family="Helvetica,sans-Serif" font-size="10.00">engine/public/component.h</text>
</a>
</g>
</g>
<!-- Node5&#45;&gt;Node12 -->
<g id="edge14_Node000005_Node000012" class="edge">
<title>Node5&#45;&gt;Node12</title>
<g id="a_edge14_Node000005_Node000012"><a xlink:title=" ">
<path fill="none" stroke="#63b8ff" d="M257.4,-120.98C266.56,-113.15 280.37,-101.34 291.46,-91.86"/>
<polygon fill="#63b8ff" stroke="#63b8ff" points="293.97,-94.33 299.29,-85.17 289.42,-89.01 293.97,-94.33"/>
</a>
</g>
</g>
<!-- Node10&#45;&gt;Node3 -->
<g id="edge11_Node000010_Node000003" class="edge">
<title>Node10&#45;&gt;Node3</title>
<g id="a_edge11_Node000010_Node000003"><a xlink:title=" ">
<path fill="none" stroke="#63b8ff" d="M449.59,-65.99C421.53,-55.99 374.76,-39.3 343.04,-27.99"/>
<polygon fill="#63b8ff" stroke="#63b8ff" points="343.91,-24.58 333.31,-24.52 341.55,-31.17 343.91,-24.58"/>
</a>
</g>
</g>
<!-- Node10&#45;&gt;Node7 -->
<g id="edge12_Node000010_Node000007" class="edge">
<title>Node10&#45;&gt;Node7</title>
<g id="a_edge12_Node000010_Node000007"><a xlink:title=" ">
<path fill="none" stroke="#63b8ff" d="M466.8,-65.87C460.15,-57.23 449.74,-43.7 441.45,-32.92"/>
<polygon fill="#63b8ff" stroke="#63b8ff" points="443.97,-30.46 435.1,-24.67 438.43,-34.73 443.97,-30.46"/>
</a>
</g>
</g>
<!-- Node11 -->
<g id="Node000011" class="node">
<title>Node11</title>
<g id="a_Node000011"><a xlink:href="vector3_8h.html" target="_top" xlink:title=" ">
<polygon fill="white" stroke="#666666" points="658.94,-30 557.94,-30 557.94,0 658.94,0 658.94,-30"/>
<text text-anchor="start" x="565.94" y="-18" font-family="Helvetica,sans-Serif" font-size="10.00">engine/public/util</text>
<text text-anchor="middle" x="608.44" y="-7" font-family="Helvetica,sans-Serif" font-size="10.00">/vector3.h</text>
</a>
</g>
</g>
<!-- Node10&#45;&gt;Node11 -->
<g id="edge13_Node000010_Node000011" class="edge">
<title>Node10&#45;&gt;Node11</title>
<g id="a_edge13_Node000010_Node000011"><a xlink:title=" ">
<path fill="none" stroke="#63b8ff" d="M493.07,-65.99C512.24,-57.68 542.03,-44.78 566.54,-34.16"/>
<polygon fill="#63b8ff" stroke="#63b8ff" points="568.2,-37.25 575.98,-30.06 565.41,-30.83 568.2,-37.25"/>
</a>
</g>
</g>
<!-- Node12&#45;&gt;Node2 -->
<g id="edge18_Node000012_Node000002" class="edge">
<title>Node12&#45;&gt;Node2</title>
<g id="a_edge18_Node000012_Node000002"><a xlink:title=" ">
<path fill="none" stroke="#63b8ff" d="M273.67,-65.99C226.22,-54.71 143.09,-34.94 96.85,-23.95"/>
<polygon fill="#63b8ff" stroke="#63b8ff" points="97.57,-20.52 87.03,-21.61 95.95,-27.33 97.57,-20.52"/>
</a>
</g>
</g>
<!-- Node12&#45;&gt;Node3 -->
<g id="edge16_Node000012_Node000003" class="edge">
<title>Node12&#45;&gt;Node3</title>
<g id="a_edge16_Node000012_Node000003"><a xlink:title=" ">
<path fill="none" stroke="#63b8ff" d="M309.44,-65.87C309.44,-57.75 309.44,-45.31 309.44,-34.89"/>
<polygon fill="#63b8ff" stroke="#63b8ff" points="312.94,-34.67 309.44,-24.67 305.94,-34.67 312.94,-34.67"/>
</a>
</g>
</g>
<!-- Node12&#45;&gt;Node4 -->
<g id="edge15_Node000012_Node000004" class="edge">
<title>Node12&#45;&gt;Node4</title>
<g id="a_edge15_Node000012_Node000004"><a xlink:title=" ">
<path fill="none" stroke="#63b8ff" d="M340.93,-65.95C372.52,-57.28 422.52,-43.27 465.44,-30 467.73,-29.29 470.09,-28.55 472.46,-27.79"/>
<polygon fill="#63b8ff" stroke="#63b8ff" points="473.75,-31.05 482.17,-24.62 471.58,-24.39 473.75,-31.05"/>
</a>
</g>
</g>
<!-- Node12&#45;&gt;Node7 -->
<g id="edge17_Node000012_Node000007" class="edge">
<title>Node12&#45;&gt;Node7</title>
<g id="a_edge17_Node000012_Node000007"><a xlink:title=" ">
<path fill="none" stroke="#63b8ff" d="M326.74,-65.99C346.48,-56.29 378.99,-40.31 401.93,-29.03"/>
<polygon fill="#63b8ff" stroke="#63b8ff" points="403.68,-32.07 411.11,-24.52 400.59,-25.79 403.68,-32.07"/>
</a>
</g>
</g>
</g>
</svg>
