<?xml version="1.0" encoding="UTF-8" standalone="no"?>
<!DOCTYPE svg PUBLIC "-//W3C//DTD SVG 1.1//EN"
 "http://www.w3.org/Graphics/SVG/1.1/DTD/svg11.dtd">
<!-- Generated by graphviz version 2.43.0 (0)
 -->
<!-- Title: include/engine/core/rendering/strategies/sdl/sdl_text_strategy.h Pages: 1 -->
<svg width="884pt" height="500pt"
 viewBox="0.00 0.00 884.00 500.00" xmlns="http://www.w3.org/2000/svg" xmlns:xlink="http://www.w3.org/1999/xlink">
<g id="graph0" class="graph" transform="scale(1 1) rotate(0) translate(4 496)">
<title>include/engine/core/rendering/strategies/sdl/sdl_text_strategy.h</title>
<!-- Node1 -->
<g id="Node000001" class="node">
<title>Node1</title>
<g id="a_Node000001"><a xlink:title=" ">
<polygon fill="#999999" stroke="#666666" points="540.5,-492 411.5,-492 411.5,-451 540.5,-451 540.5,-492"/>
<text text-anchor="start" x="419.5" y="-480" font-family="Helvetica,sans-Serif" font-size="10.00">include/engine/core</text>
<text text-anchor="start" x="419.5" y="-469" font-family="Helvetica,sans-Serif" font-size="10.00">/rendering/strategies</text>
<text text-anchor="middle" x="476" y="-458" font-family="Helvetica,sans-Serif" font-size="10.00">/sdl/sdl_text_strategy.h</text>
</a>
</g>
</g>
<!-- Node2 -->
<g id="Node000002" class="node">
<title>Node2</title>
<g id="a_Node000002"><a xlink:title=" ">
<polygon fill="#e0e0e0" stroke="#999999" points="72,-409.5 0,-409.5 0,-390.5 72,-390.5 72,-409.5"/>
<text text-anchor="middle" x="36" y="-397.5" font-family="Helvetica,sans-Serif" font-size="10.00">SDL3/SDL.h</text>
</a>
</g>
</g>
<!-- Node1&#45;&gt;Node2 -->
<g id="edge1_Node000001_Node000002" class="edge">
<title>Node1&#45;&gt;Node2</title>
<g id="a_edge1_Node000001_Node000002"><a xlink:title=" ">
<path fill="none" stroke="#63b8ff" d="M411.46,-464.67C332.77,-456.83 196.04,-440.8 81,-415 77.62,-414.24 74.14,-413.35 70.67,-412.4"/>
<polygon fill="#63b8ff" stroke="#63b8ff" points="71.61,-409.03 61.03,-409.58 69.65,-415.75 71.61,-409.03"/>
</a>
</g>
</g>
<!-- Node3 -->
<g id="Node000003" class="node">
<title>Node3</title>
<g id="a_Node000003"><a xlink:title=" ">
<polygon fill="#e0e0e0" stroke="#999999" points="194,-409.5 90,-409.5 90,-390.5 194,-390.5 194,-409.5"/>
<text text-anchor="middle" x="142" y="-397.5" font-family="Helvetica,sans-Serif" font-size="10.00">SDL3_ttf/SDL_ttf.h</text>
</a>
</g>
</g>
<!-- Node1&#45;&gt;Node3 -->
<g id="edge2_Node000001_Node000003" class="edge">
<title>Node1&#45;&gt;Node3</title>
<g id="a_edge2_Node000001_Node000003"><a xlink:title=" ">
<path fill="none" stroke="#63b8ff" d="M411.27,-457.19C356.98,-446 277.41,-429.55 208,-415 202.9,-413.93 197.58,-412.81 192.27,-411.69"/>
<polygon fill="#63b8ff" stroke="#63b8ff" points="192.64,-408.19 182.13,-409.54 191.19,-415.04 192.64,-408.19"/>
</a>
</g>
</g>
<!-- Node4 -->
<g id="Node000004" class="node">
<title>Node4</title>
<g id="a_Node000004"><a xlink:href="irendering__strategy_8h.html" target="_top" xlink:title=" ">
<polygon fill="white" stroke="#666666" points="453.5,-283 330.5,-283 330.5,-242 453.5,-242 453.5,-283"/>
<text text-anchor="start" x="338.5" y="-271" font-family="Helvetica,sans-Serif" font-size="10.00">engine/core/rendering</text>
<text text-anchor="start" x="338.5" y="-260" font-family="Helvetica,sans-Serif" font-size="10.00">/strategies/irendering</text>
<text text-anchor="middle" x="392" y="-249" font-family="Helvetica,sans-Serif" font-size="10.00">_strategy.h</text>
</a>
</g>
</g>
<!-- Node1&#45;&gt;Node4 -->
<g id="edge3_Node000001_Node000004" class="edge">
<title>Node1&#45;&gt;Node4</title>
<g id="a_edge3_Node000001_Node000004"><a xlink:title=" ">
<path fill="none" stroke="#63b8ff" d="M431.87,-450.76C417.51,-441.99 403.18,-430.15 395,-415 374.46,-376.94 379.06,-325.28 384.99,-293.18"/>
<polygon fill="#63b8ff" stroke="#63b8ff" points="388.48,-293.59 387.01,-283.1 381.61,-292.21 388.48,-293.59"/>
</a>
</g>
</g>
<!-- Node7 -->
<g id="Node000007" class="node">
<title>Node7</title>
<g id="a_Node000007"><a xlink:href="component_8h.html" target="_top" xlink:title=" ">
<polygon fill="white" stroke="#666666" points="296.5,-85 147.5,-85 147.5,-66 296.5,-66 296.5,-85"/>
<text text-anchor="middle" x="222" y="-73" font-family="Helvetica,sans-Serif" font-size="10.00">engine/public/component.h</text>
</a>
</g>
</g>
<!-- Node1&#45;&gt;Node7 -->
<g id="edge21_Node000001_Node000007" class="edge">
<title>Node1&#45;&gt;Node7</title>
<g id="a_edge21_Node000001_Node000007"><a xlink:title=" ">
<path fill="none" stroke="#63b8ff" d="M411.25,-463.97C335.99,-452.4 222,-420.71 222,-335 222,-335 222,-335 222,-195.5 222,-160.15 222,-118.9 222,-95.42"/>
<polygon fill="#63b8ff" stroke="#63b8ff" points="225.5,-95.16 222,-85.16 218.5,-95.16 225.5,-95.16"/>
</a>
</g>
</g>
<!-- Node9 -->
<g id="Node000009" class="node">
<title>Node9</title>
<g id="a_Node000009"><a xlink:title=" ">
<polygon fill="#e0e0e0" stroke="#999999" points="738,-24.5 680,-24.5 680,-5.5 738,-5.5 738,-24.5"/>
<text text-anchor="middle" x="709" y="-12.5" font-family="Helvetica,sans-Serif" font-size="10.00">memory</text>
</a>
</g>
</g>
<!-- Node1&#45;&gt;Node9 -->
<g id="edge35_Node000001_Node000009" class="edge">
<title>Node1&#45;&gt;Node9</title>
<g id="a_edge35_Node000001_Node000009"><a xlink:title=" ">
<path fill="none" stroke="#63b8ff" d="M540.54,-463.46C611.9,-454.69 721.38,-438 756,-415 791.73,-391.26 810,-377.9 810,-335 810,-335 810,-335 810,-135 810,-103.19 810.15,-91.4 791,-66 778.38,-49.26 758.38,-36.9 741.29,-28.66"/>
<polygon fill="#63b8ff" stroke="#63b8ff" points="742.71,-25.46 732.16,-24.51 739.81,-31.84 742.71,-25.46"/>
</a>
</g>
</g>
<!-- Node16 -->
<g id="Node000016" class="node">
<title>Node16</title>
<g id="a_Node000016"><a xlink:title=" ">
<polygon fill="#e0e0e0" stroke="#999999" points="782,-85 738,-85 738,-66 782,-66 782,-85"/>
<text text-anchor="middle" x="760" y="-73" font-family="Helvetica,sans-Serif" font-size="10.00">string</text>
</a>
</g>
</g>
<!-- Node1&#45;&gt;Node16 -->
<g id="edge36_Node000001_Node000016" class="edge">
<title>Node1&#45;&gt;Node16</title>
<g id="a_edge36_Node000001_Node000016"><a xlink:title=" ">
<path fill="none" stroke="#63b8ff" d="M540.59,-468.53C627.69,-462.03 772,-436.02 772,-335 772,-335 772,-335 772,-195.5 772,-159.81 766.59,-118.4 763.04,-95.04"/>
<polygon fill="#63b8ff" stroke="#63b8ff" points="766.49,-94.46 761.47,-85.13 759.57,-95.55 766.49,-94.46"/>
</a>
</g>
</g>
<!-- Node18 -->
<g id="Node000018" class="node">
<title>Node18</title>
<g id="a_Node000018"><a xlink:href="text_8h.html" target="_top" xlink:title=" ">
<polygon fill="white" stroke="#666666" points="548.5,-415 403.5,-415 403.5,-385 548.5,-385 548.5,-415"/>
<text text-anchor="start" x="411.5" y="-403" font-family="Helvetica,sans-Serif" font-size="10.00">engine/public/components</text>
<text text-anchor="middle" x="476" y="-392" font-family="Helvetica,sans-Serif" font-size="10.00">/ui/text.h</text>
</a>
</g>
</g>
<!-- Node1&#45;&gt;Node18 -->
<g id="edge22_Node000001_Node000018" class="edge">
<title>Node1&#45;&gt;Node18</title>
<g id="a_edge22_Node000001_Node000018"><a xlink:title=" ">
<path fill="none" stroke="#63b8ff" d="M476,-450.77C476,-442.85 476,-433.63 476,-425.3"/>
<polygon fill="#63b8ff" stroke="#63b8ff" points="479.5,-425.04 476,-415.04 472.5,-425.04 479.5,-425.04"/>
</a>
</g>
</g>
<!-- Node21 -->
<g id="Node000021" class="node">
<title>Node21</title>
<g id="a_Node000021"><a xlink:href="ui__object_8h.html" target="_top" xlink:title=" ">
<polygon fill="white" stroke="#666666" points="687,-415 581,-415 581,-385 687,-385 687,-415"/>
<text text-anchor="start" x="589" y="-403" font-family="Helvetica,sans-Serif" font-size="10.00">engine/public/ui/ui</text>
<text text-anchor="middle" x="634" y="-392" font-family="Helvetica,sans-Serif" font-size="10.00">_object.h</text>
</a>
</g>
</g>
<!-- Node1&#45;&gt;Node21 -->
<g id="edge31_Node000001_Node000021" class="edge">
<title>Node1&#45;&gt;Node21</title>
<g id="a_edge31_Node000001_Node000021"><a xlink:title=" ">
<path fill="none" stroke="#63b8ff" d="M520.43,-450.96C543.11,-440.98 570.53,-428.92 592.74,-419.15"/>
<polygon fill="#63b8ff" stroke="#63b8ff" points="594.17,-422.34 601.92,-415.11 591.35,-415.94 594.17,-422.34"/>
</a>
</g>
</g>
<!-- Node22 -->
<g id="Node000022" class="node">
<title>Node22</title>
<g id="a_Node000022"><a xlink:title=" ">
<polygon fill="#e0e0e0" stroke="#999999" points="876,-409.5 838,-409.5 838,-390.5 876,-390.5 876,-409.5"/>
<text text-anchor="middle" x="857" y="-397.5" font-family="Helvetica,sans-Serif" font-size="10.00">map</text>
</a>
</g>
</g>
<!-- Node1&#45;&gt;Node22 -->
<g id="edge34_Node000001_Node000022" class="edge">
<title>Node1&#45;&gt;Node22</title>
<g id="a_edge34_Node000001_Node000022"><a xlink:title=" ">
<path fill="none" stroke="#63b8ff" d="M540.52,-464.95C611.16,-457.78 727.27,-442.78 824,-415 825.88,-414.46 827.8,-413.84 829.72,-413.17"/>
<polygon fill="#63b8ff" stroke="#63b8ff" points="831.08,-416.4 839.13,-409.51 828.54,-409.87 831.08,-416.4"/>
</a>
</g>
</g>
<!-- Node5 -->
<g id="Node000005" class="node">
<title>Node5</title>
<g id="a_Node000005"><a xlink:href="camera_8h.html" target="_top" xlink:title=" ">
<polygon fill="white" stroke="#666666" points="457.5,-206 326.5,-206 326.5,-187 457.5,-187 457.5,-206"/>
<text text-anchor="middle" x="392" y="-194" font-family="Helvetica,sans-Serif" font-size="10.00">engine/public/camera.h</text>
</a>
</g>
</g>
<!-- Node4&#45;&gt;Node5 -->
<g id="edge4_Node000004_Node000005" class="edge">
<title>Node4&#45;&gt;Node5</title>
<g id="a_edge4_Node000004_Node000005"><a xlink:title=" ">
<path fill="none" stroke="#63b8ff" d="M392,-241.95C392,-233.85 392,-224.5 392,-216.47"/>
<polygon fill="#63b8ff" stroke="#63b8ff" points="395.5,-216.26 392,-206.26 388.5,-216.26 395.5,-216.26"/>
</a>
</g>
</g>
<!-- Node6 -->
<g id="Node000006" class="node">
<title>Node6</title>
<g id="a_Node000006"><a xlink:href="game_object_8h.html" target="_top" xlink:title=" ">
<polygon fill="white" stroke="#666666" points="660.5,-145.5 507.5,-145.5 507.5,-126.5 660.5,-126.5 660.5,-145.5"/>
<text text-anchor="middle" x="584" y="-133.5" font-family="Helvetica,sans-Serif" font-size="10.00">engine/public/gameObject.h</text>
</a>
</g>
</g>
<!-- Node5&#45;&gt;Node6 -->
<g id="edge5_Node000005_Node000006" class="edge">
<title>Node5&#45;&gt;Node6</title>
<g id="a_edge5_Node000005_Node000006"><a xlink:title=" ">
<path fill="none" stroke="#63b8ff" d="M419.92,-186.99C453.19,-176.86 508.95,-159.87 546.1,-148.55"/>
<polygon fill="#63b8ff" stroke="#63b8ff" points="547.5,-151.78 556.05,-145.52 545.46,-145.08 547.5,-151.78"/>
</a>
</g>
</g>
<!-- Node17 -->
<g id="Node000017" class="node">
<title>Node17</title>
<g id="a_Node000017"><a xlink:href="color_8h.html" target="_top" xlink:title=" ">
<polygon fill="white" stroke="#666666" points="416.5,-151 315.5,-151 315.5,-121 416.5,-121 416.5,-151"/>
<text text-anchor="start" x="323.5" y="-139" font-family="Helvetica,sans-Serif" font-size="10.00">engine/public/util</text>
<text text-anchor="middle" x="366" y="-128" font-family="Helvetica,sans-Serif" font-size="10.00">/color.h</text>
</a>
</g>
</g>
<!-- Node5&#45;&gt;Node17 -->
<g id="edge20_Node000005_Node000017" class="edge">
<title>Node5&#45;&gt;Node17</title>
<g id="a_edge20_Node000005_Node000017"><a xlink:title=" ">
<path fill="none" stroke="#63b8ff" d="M388.16,-186.87C385.06,-179.89 380.54,-169.71 376.39,-160.38"/>
<polygon fill="#63b8ff" stroke="#63b8ff" points="379.53,-158.83 372.27,-151.11 373.14,-161.67 379.53,-158.83"/>
</a>
</g>
</g>
<!-- Node6&#45;&gt;Node7 -->
<g id="edge6_Node000006_Node000007" class="edge">
<title>Node6&#45;&gt;Node7</title>
<g id="a_edge6_Node000006_Node000007"><a xlink:title=" ">
<path fill="none" stroke="#63b8ff" d="M531.36,-126.49C465.95,-115.92 354.44,-97.9 284.68,-86.63"/>
<polygon fill="#63b8ff" stroke="#63b8ff" points="285.13,-83.16 274.7,-85.02 284.01,-90.07 285.13,-83.16"/>
</a>
</g>
</g>
<!-- Node10 -->
<g id="Node000010" class="node">
<title>Node10</title>
<g id="a_Node000010"><a xlink:title=" ">
<polygon fill="#e0e0e0" stroke="#999999" points="540,-24.5 484,-24.5 484,-5.5 540,-5.5 540,-24.5"/>
<text text-anchor="middle" x="512" y="-12.5" font-family="Helvetica,sans-Serif" font-size="10.00">optional</text>
</a>
</g>
</g>
<!-- Node6&#45;&gt;Node10 -->
<g id="edge16_Node000006_Node000010" class="edge">
<title>Node6&#45;&gt;Node10</title>
<g id="a_edge16_Node000006_Node000010"><a xlink:title=" ">
<path fill="none" stroke="#63b8ff" d="M571.63,-126.5C559.53,-117.54 541.43,-102.34 531,-85 521.7,-69.54 516.84,-49.42 514.37,-34.9"/>
<polygon fill="#63b8ff" stroke="#63b8ff" points="517.78,-34.04 512.87,-24.66 510.86,-35.06 517.78,-34.04"/>
</a>
</g>
</g>
<!-- Node11 -->
<g id="Node000011" class="node">
<title>Node11</title>
<g id="a_Node000011"><a xlink:title=" ">
<polygon fill="#e0e0e0" stroke="#999999" points="333.5,-24.5 286.5,-24.5 286.5,-5.5 333.5,-5.5 333.5,-24.5"/>
<text text-anchor="middle" x="310" y="-12.5" font-family="Helvetica,sans-Serif" font-size="10.00">vector</text>
</a>
</g>
</g>
<!-- Node6&#45;&gt;Node11 -->
<g id="edge19_Node000006_Node000011" class="edge">
<title>Node6&#45;&gt;Node11</title>
<g id="a_edge19_Node000006_Node000011"><a xlink:title=" ">
<path fill="none" stroke="#63b8ff" d="M530.45,-126.47C464.01,-115.5 357.65,-96.48 343,-85 327.03,-72.49 318.37,-50.34 313.98,-34.51"/>
<polygon fill="#63b8ff" stroke="#63b8ff" points="317.37,-33.64 311.59,-24.76 310.57,-35.31 317.37,-33.64"/>
</a>
</g>
</g>
<!-- Node12 -->
<g id="Node000012" class="node">
<title>Node12</title>
<g id="a_Node000012"><a xlink:href="transform_8h.html" target="_top" xlink:title=" ">
<polygon fill="white" stroke="#666666" points="682,-85 540,-85 540,-66 682,-66 682,-85"/>
<text text-anchor="middle" x="611" y="-73" font-family="Helvetica,sans-Serif" font-size="10.00">engine/public/transform.h</text>
</a>
</g>
</g>
<!-- Node6&#45;&gt;Node12 -->
<g id="edge11_Node000006_Node000012" class="edge">
<title>Node6&#45;&gt;Node12</title>
<g id="a_edge11_Node000006_Node000012"><a xlink:title=" ">
<path fill="none" stroke="#63b8ff" d="M587.98,-126.37C591.85,-117.99 597.84,-105.01 602.74,-94.39"/>
<polygon fill="#63b8ff" stroke="#63b8ff" points="605.99,-95.71 607,-85.17 599.63,-92.78 605.99,-95.71"/>
</a>
</g>
</g>
<!-- Node14 -->
<g id="Node000014" class="node">
<title>Node14</title>
<g id="a_Node000014"><a xlink:title=" ">
<polygon fill="#e0e0e0" stroke="#999999" points="416,-85 352,-85 352,-66 416,-66 416,-85"/>
<text text-anchor="middle" x="384" y="-73" font-family="Helvetica,sans-Serif" font-size="10.00">algorithm</text>
</a>
</g>
</g>
<!-- Node6&#45;&gt;Node14 -->
<g id="edge15_Node000006_Node000014" class="edge">
<title>Node6&#45;&gt;Node14</title>
<g id="a_edge15_Node000006_Node000014"><a xlink:title=" ">
<path fill="none" stroke="#63b8ff" d="M554.92,-126.49C520.11,-116.31 461.68,-99.22 422.99,-87.9"/>
<polygon fill="#63b8ff" stroke="#63b8ff" points="423.7,-84.46 413.12,-85.02 421.73,-91.18 423.7,-84.46"/>
</a>
</g>
</g>
<!-- Node15 -->
<g id="Node000015" class="node">
<title>Node15</title>
<g id="a_Node000015"><a xlink:title=" ">
<polygon fill="#e0e0e0" stroke="#999999" points="484,-85 434,-85 434,-66 484,-66 484,-85"/>
<text text-anchor="middle" x="459" y="-73" font-family="Helvetica,sans-Serif" font-size="10.00">ranges</text>
</a>
</g>
</g>
<!-- Node6&#45;&gt;Node15 -->
<g id="edge17_Node000006_Node000015" class="edge">
<title>Node6&#45;&gt;Node15</title>
<g id="a_edge17_Node000006_Node000015"><a xlink:title=" ">
<path fill="none" stroke="#63b8ff" d="M565.82,-126.49C544.99,-116.75 510.63,-100.66 486.52,-89.38"/>
<polygon fill="#63b8ff" stroke="#63b8ff" points="487.74,-86.09 477.2,-85.02 484.77,-92.43 487.74,-86.09"/>
</a>
</g>
</g>
<!-- Node6&#45;&gt;Node16 -->
<g id="edge18_Node000006_Node000016" class="edge">
<title>Node6&#45;&gt;Node16</title>
<g id="a_edge18_Node000006_Node000016"><a xlink:title=" ">
<path fill="none" stroke="#63b8ff" d="M609.59,-126.49C640.96,-116.07 694.11,-98.4 728.1,-87.1"/>
<polygon fill="#63b8ff" stroke="#63b8ff" points="729.61,-90.29 737.99,-83.81 727.4,-83.65 729.61,-90.29"/>
</a>
</g>
</g>
<!-- Node8 -->
<g id="Node000008" class="node">
<title>Node8</title>
<g id="a_Node000008"><a xlink:title=" ">
<polygon fill="#e0e0e0" stroke="#999999" points="254.5,-24.5 189.5,-24.5 189.5,-5.5 254.5,-5.5 254.5,-24.5"/>
<text text-anchor="middle" x="222" y="-12.5" font-family="Helvetica,sans-Serif" font-size="10.00">functional</text>
</a>
</g>
</g>
<!-- Node7&#45;&gt;Node8 -->
<g id="edge7_Node000007_Node000008" class="edge">
<title>Node7&#45;&gt;Node8</title>
<g id="a_edge7_Node000007_Node000008"><a xlink:title=" ">
<path fill="none" stroke="#63b8ff" d="M222,-65.87C222,-57.75 222,-45.31 222,-34.89"/>
<polygon fill="#63b8ff" stroke="#63b8ff" points="225.5,-34.67 222,-24.67 218.5,-34.67 225.5,-34.67"/>
</a>
</g>
</g>
<!-- Node7&#45;&gt;Node9 -->
<g id="edge8_Node000007_Node000009" class="edge">
<title>Node7&#45;&gt;Node9</title>
<g id="a_edge8_Node000007_Node000009"><a xlink:title=" ">
<path fill="none" stroke="#63b8ff" d="M296.79,-69.4C405.52,-61.59 601.81,-45.9 671,-30 673.67,-29.39 676.41,-28.64 679.13,-27.8"/>
<polygon fill="#63b8ff" stroke="#63b8ff" points="680.43,-31.06 688.78,-24.53 678.19,-24.43 680.43,-31.06"/>
</a>
</g>
</g>
<!-- Node7&#45;&gt;Node10 -->
<g id="edge9_Node000007_Node000010" class="edge">
<title>Node7&#45;&gt;Node10</title>
<g id="a_edge9_Node000007_Node000010"><a xlink:title=" ">
<path fill="none" stroke="#63b8ff" d="M264.17,-65.99C320.54,-54.62 419.65,-34.63 473.88,-23.69"/>
<polygon fill="#63b8ff" stroke="#63b8ff" points="474.68,-27.1 483.79,-21.69 473.29,-20.24 474.68,-27.1"/>
</a>
</g>
</g>
<!-- Node7&#45;&gt;Node11 -->
<g id="edge10_Node000007_Node000011" class="edge">
<title>Node7&#45;&gt;Node11</title>
<g id="a_edge10_Node000007_Node000011"><a xlink:title=" ">
<path fill="none" stroke="#63b8ff" d="M234.98,-65.87C249.02,-56.54 271.63,-41.51 288.36,-30.38"/>
<polygon fill="#63b8ff" stroke="#63b8ff" points="290.57,-33.12 296.96,-24.67 286.7,-27.29 290.57,-33.12"/>
</a>
</g>
</g>
<!-- Node12&#45;&gt;Node9 -->
<g id="edge13_Node000012_Node000009" class="edge">
<title>Node12&#45;&gt;Node9</title>
<g id="a_edge13_Node000012_Node000009"><a xlink:title=" ">
<path fill="none" stroke="#63b8ff" d="M625.46,-65.87C641.31,-56.41 666.97,-41.09 685.68,-29.92"/>
<polygon fill="#63b8ff" stroke="#63b8ff" points="687.69,-32.8 694.48,-24.67 684.1,-26.79 687.69,-32.8"/>
</a>
</g>
</g>
<!-- Node12&#45;&gt;Node10 -->
<g id="edge14_Node000012_Node000010" class="edge">
<title>Node12&#45;&gt;Node10</title>
<g id="a_edge14_Node000012_Node000010"><a xlink:title=" ">
<path fill="none" stroke="#63b8ff" d="M596.39,-65.87C580.31,-56.36 554.22,-40.95 535.3,-29.77"/>
<polygon fill="#63b8ff" stroke="#63b8ff" points="537.06,-26.74 526.67,-24.67 533.5,-32.77 537.06,-26.74"/>
</a>
</g>
</g>
<!-- Node13 -->
<g id="Node000013" class="node">
<title>Node13</title>
<g id="a_Node000013"><a xlink:href="vector3_8h.html" target="_top" xlink:title=" ">
<polygon fill="white" stroke="#666666" points="661.5,-30 560.5,-30 560.5,0 661.5,0 661.5,-30"/>
<text text-anchor="start" x="568.5" y="-18" font-family="Helvetica,sans-Serif" font-size="10.00">engine/public/util</text>
<text text-anchor="middle" x="611" y="-7" font-family="Helvetica,sans-Serif" font-size="10.00">/vector3.h</text>
</a>
</g>
</g>
<!-- Node12&#45;&gt;Node13 -->
<g id="edge12_Node000012_Node000013" class="edge">
<title>Node12&#45;&gt;Node13</title>
<g id="a_edge12_Node000012_Node000013"><a xlink:title=" ">
<path fill="none" stroke="#63b8ff" d="M611,-65.87C611,-59.11 611,-49.35 611,-40.26"/>
<polygon fill="#63b8ff" stroke="#63b8ff" points="614.5,-40.11 611,-30.11 607.5,-40.11 614.5,-40.11"/>
</a>
</g>
</g>
<!-- Node18&#45;&gt;Node7 -->
<g id="edge27_Node000018_Node000007" class="edge">
<title>Node18&#45;&gt;Node7</title>
<g id="a_edge27_Node000018_Node000007"><a xlink:title=" ">
<path fill="none" stroke="#63b8ff" d="M403.77,-384.98C340.98,-368.11 260,-332.89 260,-263.5 260,-263.5 260,-263.5 260,-195.5 260,-158.07 242.73,-117.03 231.48,-94.25"/>
<polygon fill="#63b8ff" stroke="#63b8ff" points="234.49,-92.46 226.81,-85.15 228.26,-95.65 234.49,-92.46"/>
</a>
</g>
</g>
<!-- Node18&#45;&gt;Node16 -->
<g id="edge30_Node000018_Node000016" class="edge">
<title>Node18&#45;&gt;Node16</title>
<g id="a_edge30_Node000018_Node000016"><a xlink:title=" ">
<path fill="none" stroke="#63b8ff" d="M494.62,-384.96C506.88,-375.38 523,-362.08 536,-349 625.05,-259.35 716.06,-137.2 748.03,-93.17"/>
<polygon fill="#63b8ff" stroke="#63b8ff" points="750.91,-95.16 753.93,-85 745.24,-91.06 750.91,-95.16"/>
</a>
</g>
</g>
<!-- Node18&#45;&gt;Node17 -->
<g id="edge28_Node000018_Node000017" class="edge">
<title>Node18&#45;&gt;Node17</title>
<g id="a_edge28_Node000018_Node000017"><a xlink:title=" ">
<path fill="none" stroke="#63b8ff" d="M441.81,-384.99C404.22,-367.47 346,-333.48 322,-283 303.66,-244.43 302.06,-226.62 318,-187 322.4,-176.06 330.47,-166.17 338.75,-158.13"/>
<polygon fill="#63b8ff" stroke="#63b8ff" points="341.24,-160.59 346.31,-151.28 336.55,-155.4 341.24,-160.59"/>
</a>
</g>
</g>
<!-- Node19 -->
<g id="Node000019" class="node">
<title>Node19</title>
<g id="a_Node000019"><a xlink:href="renderable_8h.html" target="_top" xlink:title=" ">
<polygon fill="white" stroke="#666666" points="526.5,-349 403.5,-349 403.5,-319 526.5,-319 526.5,-349"/>
<text text-anchor="start" x="411.5" y="-337" font-family="Helvetica,sans-Serif" font-size="10.00">engine/core/rendering</text>
<text text-anchor="middle" x="465" y="-326" font-family="Helvetica,sans-Serif" font-size="10.00">/renderable.h</text>
</a>
</g>
</g>
<!-- Node18&#45;&gt;Node19 -->
<g id="edge23_Node000018_Node000019" class="edge">
<title>Node18&#45;&gt;Node19</title>
<g id="a_edge23_Node000018_Node000019"><a xlink:title=" ">
<path fill="none" stroke="#63b8ff" d="M473.56,-384.8C472.26,-377.26 470.63,-367.78 469.15,-359.13"/>
<polygon fill="#63b8ff" stroke="#63b8ff" points="472.58,-358.43 467.43,-349.16 465.68,-359.61 472.58,-358.43"/>
</a>
</g>
</g>
<!-- Node20 -->
<g id="Node000020" class="node">
<title>Node20</title>
<g id="a_Node000020"><a xlink:href="point_8h.html" target="_top" xlink:title=" ">
<polygon fill="white" stroke="#666666" points="684.5,-349 583.5,-349 583.5,-319 684.5,-319 684.5,-349"/>
<text text-anchor="start" x="591.5" y="-337" font-family="Helvetica,sans-Serif" font-size="10.00">engine/public/util</text>
<text text-anchor="middle" x="634" y="-326" font-family="Helvetica,sans-Serif" font-size="10.00">/point.h</text>
</a>
</g>
</g>
<!-- Node18&#45;&gt;Node20 -->
<g id="edge29_Node000018_Node000020" class="edge">
<title>Node18&#45;&gt;Node20</title>
<g id="a_edge29_Node000018_Node000020"><a xlink:title=" ">
<path fill="none" stroke="#63b8ff" d="M510.67,-384.95C534.03,-375.49 565.04,-362.93 590.11,-352.78"/>
<polygon fill="#63b8ff" stroke="#63b8ff" points="591.45,-356.01 599.41,-349.01 588.82,-349.52 591.45,-356.01"/>
</a>
</g>
</g>
<!-- Node19&#45;&gt;Node4 -->
<g id="edge25_Node000019_Node000004" class="edge">
<title>Node19&#45;&gt;Node4</title>
<g id="a_edge25_Node000019_Node000004"><a xlink:title=" ">
<path fill="none" stroke="#63b8ff" d="M450.23,-318.94C441.51,-310.64 430.2,-299.86 419.86,-290.02"/>
<polygon fill="#63b8ff" stroke="#63b8ff" points="422.22,-287.43 412.56,-283.07 417.39,-292.5 422.22,-287.43"/>
</a>
</g>
</g>
<!-- Node19&#45;&gt;Node7 -->
<g id="edge26_Node000019_Node000007" class="edge">
<title>Node19&#45;&gt;Node7</title>
<g id="a_edge26_Node000019_Node000007"><a xlink:title=" ">
<path fill="none" stroke="#63b8ff" d="M468,-318.75C475.45,-278.87 489.89,-166.12 426,-121 405.22,-106.33 345.92,-94.37 296.58,-86.56"/>
<polygon fill="#63b8ff" stroke="#63b8ff" points="296.96,-83.08 286.54,-85 295.89,-89.99 296.96,-83.08"/>
</a>
</g>
</g>
<!-- Node19&#45;&gt;Node9 -->
<g id="edge24_Node000019_Node000009" class="edge">
<title>Node19&#45;&gt;Node9</title>
<g id="a_edge24_Node000019_Node000009"><a xlink:title=" ">
<path fill="none" stroke="#63b8ff" d="M487.69,-318.93C529.79,-291.68 620.2,-227.61 670,-151 693.97,-114.13 703.52,-62.25 707.07,-34.78"/>
<polygon fill="#63b8ff" stroke="#63b8ff" points="710.58,-34.95 708.25,-24.62 703.62,-34.15 710.58,-34.95"/>
</a>
</g>
</g>
<!-- Node21&#45;&gt;Node6 -->
<g id="edge32_Node000021_Node000006" class="edge">
<title>Node21&#45;&gt;Node6</title>
<g id="a_edge32_Node000021_Node000006"><a xlink:title=" ">
<path fill="none" stroke="#63b8ff" d="M659.72,-384.97C672.57,-376.43 686.87,-364.23 694,-349 699.66,-336.93 697.58,-331.84 694,-319 675.14,-251.35 623.58,-183.75 598.32,-153.47"/>
<polygon fill="#63b8ff" stroke="#63b8ff" points="600.81,-150.99 591.67,-145.64 595.47,-155.52 600.81,-150.99"/>
</a>
</g>
</g>
<!-- Node21&#45;&gt;Node20 -->
<g id="edge33_Node000021_Node000020" class="edge">
<title>Node21&#45;&gt;Node20</title>
<g id="a_edge33_Node000021_Node000020"><a xlink:title=" ">
<path fill="none" stroke="#63b8ff" d="M634,-384.8C634,-377.34 634,-367.99 634,-359.41"/>
<polygon fill="#63b8ff" stroke="#63b8ff" points="637.5,-359.16 634,-349.16 630.5,-359.16 637.5,-359.16"/>
</a>
</g>
</g>
</g>
</svg>
