<?xml version="1.0" encoding="UTF-8" standalone="no"?>
<!DOCTYPE svg PUBLIC "-//W3C//DTD SVG 1.1//EN"
 "http://www.w3.org/Graphics/SVG/1.1/DTD/svg11.dtd">
<!-- Generated by graphviz version 2.43.0 (0)
 -->
<!-- Title: include/engine/audio/sound/instance/sdl_sound_instance.h Pages: 1 -->
<svg width="482pt" height="313pt"
 viewBox="0.00 0.00 481.50 313.00" xmlns="http://www.w3.org/2000/svg" xmlns:xlink="http://www.w3.org/1999/xlink">
<g id="graph0" class="graph" transform="scale(1 1) rotate(0) translate(4 309)">
<title>include/engine/audio/sound/instance/sdl_sound_instance.h</title>
<!-- Node1 -->
<g id="Node000001" class="node">
<title>Node1</title>
<g id="a_Node000001"><a xlink:title=" ">
<polygon fill="#999999" stroke="#666666" points="251.5,-305 106.5,-305 106.5,-264 251.5,-264 251.5,-305"/>
<text text-anchor="start" x="114.5" y="-293" font-family="Helvetica,sans-Serif" font-size="10.00">include/engine/audio</text>
<text text-anchor="start" x="114.5" y="-282" font-family="Helvetica,sans-Serif" font-size="10.00">/sound/instance/sdl_sound</text>
<text text-anchor="middle" x="179" y="-271" font-family="Helvetica,sans-Serif" font-size="10.00">_instance.h</text>
</a>
</g>
</g>
<!-- Node2 -->
<g id="Node000002" class="node">
<title>Node2</title>
<g id="a_Node000002"><a xlink:title=" ">
<polygon fill="#e0e0e0" stroke="#999999" points="72,-145.5 0,-145.5 0,-126.5 72,-126.5 72,-145.5"/>
<text text-anchor="middle" x="36" y="-133.5" font-family="Helvetica,sans-Serif" font-size="10.00">SDL3/SDL.h</text>
</a>
</g>
</g>
<!-- Node1&#45;&gt;Node2 -->
<g id="edge1_Node000001_Node000002" class="edge">
<title>Node1&#45;&gt;Node2</title>
<g id="a_edge1_Node000001_Node000002"><a xlink:title=" ">
<path fill="none" stroke="#63b8ff" d="M159.71,-263.74C131.11,-234.44 78,-180.02 51.65,-153.04"/>
<polygon fill="#63b8ff" stroke="#63b8ff" points="53.88,-150.31 44.39,-145.6 48.87,-155.2 53.88,-150.31"/>
</a>
</g>
</g>
<!-- Node3 -->
<g id="Node000003" class="node">
<title>Node3</title>
<g id="a_Node000003"><a xlink:title=" ">
<polygon fill="#e0e0e0" stroke="#999999" points="194,-145.5 90,-145.5 90,-126.5 194,-126.5 194,-145.5"/>
<text text-anchor="middle" x="142" y="-133.5" font-family="Helvetica,sans-Serif" font-size="10.00">SDL3/SDL_audio.h</text>
</a>
</g>
</g>
<!-- Node1&#45;&gt;Node3 -->
<g id="edge2_Node000001_Node000003" class="edge">
<title>Node1&#45;&gt;Node3</title>
<g id="a_edge2_Node000001_Node000003"><a xlink:title=" ">
<path fill="none" stroke="#63b8ff" d="M169.51,-263.87C164.81,-253.43 159.43,-240.25 156,-228 149.15,-203.52 145.41,-174.35 143.56,-155.75"/>
<polygon fill="#63b8ff" stroke="#63b8ff" points="147.03,-155.32 142.64,-145.68 140.06,-155.95 147.03,-155.32"/>
</a>
</g>
</g>
<!-- Node4 -->
<g id="Node000004" class="node">
<title>Node4</title>
<g id="a_Node000004"><a xlink:href="sdl__sound__resource_8h.html" target="_top" xlink:title=" ">
<polygon fill="white" stroke="#666666" points="278.5,-228 165.5,-228 165.5,-187 278.5,-187 278.5,-228"/>
<text text-anchor="start" x="173.5" y="-216" font-family="Helvetica,sans-Serif" font-size="10.00">engine/audio/sound</text>
<text text-anchor="start" x="173.5" y="-205" font-family="Helvetica,sans-Serif" font-size="10.00">/resource/sdl_sound</text>
<text text-anchor="middle" x="222" y="-194" font-family="Helvetica,sans-Serif" font-size="10.00">_resource.h</text>
</a>
</g>
</g>
<!-- Node1&#45;&gt;Node4 -->
<g id="edge3_Node000001_Node000004" class="edge">
<title>Node1&#45;&gt;Node4</title>
<g id="a_edge3_Node000001_Node000004"><a xlink:title=" ">
<path fill="none" stroke="#63b8ff" d="M190.3,-263.79C194.99,-255.61 200.52,-245.96 205.64,-237.03"/>
<polygon fill="#63b8ff" stroke="#63b8ff" points="208.84,-238.49 210.78,-228.07 202.77,-235.01 208.84,-238.49"/>
</a>
</g>
</g>
<!-- Node10 -->
<g id="Node000010" class="node">
<title>Node10</title>
<g id="a_Node000010"><a xlink:href="sound__instance_8h.html" target="_top" xlink:title=" ">
<polygon fill="white" stroke="#666666" points="473.5,-222.5 324.5,-222.5 324.5,-192.5 473.5,-192.5 473.5,-222.5"/>
<text text-anchor="start" x="332.5" y="-210.5" font-family="Helvetica,sans-Serif" font-size="10.00">engine/audio/sound</text>
<text text-anchor="middle" x="399" y="-199.5" font-family="Helvetica,sans-Serif" font-size="10.00">/instance/sound_instance.h</text>
</a>
</g>
</g>
<!-- Node1&#45;&gt;Node10 -->
<g id="edge12_Node000001_Node000010" class="edge">
<title>Node1&#45;&gt;Node10</title>
<g id="a_edge12_Node000001_Node000010"><a xlink:title=" ">
<path fill="none" stroke="#63b8ff" d="M236.23,-263.99C270.88,-252.18 314.68,-237.25 348.11,-225.85"/>
<polygon fill="#63b8ff" stroke="#63b8ff" points="349.36,-229.12 357.69,-222.58 347.1,-222.5 349.36,-229.12"/>
</a>
</g>
</g>
<!-- Node4&#45;&gt;Node2 -->
<g id="edge4_Node000004_Node000002" class="edge">
<title>Node4&#45;&gt;Node2</title>
<g id="a_edge4_Node000004_Node000002"><a xlink:title=" ">
<path fill="none" stroke="#63b8ff" d="M169.69,-186.96C137.16,-174.8 96.34,-159.55 68.42,-149.11"/>
<polygon fill="#63b8ff" stroke="#63b8ff" points="69.35,-145.73 58.76,-145.5 66.9,-152.28 69.35,-145.73"/>
</a>
</g>
</g>
<!-- Node4&#45;&gt;Node3 -->
<g id="edge5_Node000004_Node000003" class="edge">
<title>Node4&#45;&gt;Node3</title>
<g id="a_edge5_Node000004_Node000003"><a xlink:title=" ">
<path fill="none" stroke="#63b8ff" d="M199.29,-186.77C186.8,-175.92 171.52,-162.65 159.89,-152.54"/>
<polygon fill="#63b8ff" stroke="#63b8ff" points="162,-149.74 152.15,-145.82 157.41,-155.02 162,-149.74"/>
</a>
</g>
</g>
<!-- Node5 -->
<g id="Node000005" class="node">
<title>Node5</title>
<g id="a_Node000005"><a xlink:href="sound__resource_8h.html" target="_top" xlink:title=" ">
<polygon fill="white" stroke="#666666" points="400,-151 250,-151 250,-121 400,-121 400,-151"/>
<text text-anchor="start" x="258" y="-139" font-family="Helvetica,sans-Serif" font-size="10.00">engine/audio/sound</text>
<text text-anchor="middle" x="325" y="-128" font-family="Helvetica,sans-Serif" font-size="10.00">/resource/sound_resource.h</text>
</a>
</g>
</g>
<!-- Node4&#45;&gt;Node5 -->
<g id="edge6_Node000004_Node000005" class="edge">
<title>Node4&#45;&gt;Node5</title>
<g id="a_edge6_Node000004_Node000005"><a xlink:title=" ">
<path fill="none" stroke="#63b8ff" d="M250.97,-186.96C264.96,-177.51 281.72,-166.2 295.75,-156.74"/>
<polygon fill="#63b8ff" stroke="#63b8ff" points="297.75,-159.61 304.08,-151.11 293.84,-153.8 297.75,-159.61"/>
</a>
</g>
</g>
<!-- Node8 -->
<g id="Node000008" class="node">
<title>Node8</title>
<g id="a_Node000008"><a xlink:href="sound__type_8h.html" target="_top" xlink:title=" ">
<polygon fill="white" stroke="#666666" points="296,-85 184,-85 184,-55 296,-55 296,-85"/>
<text text-anchor="start" x="192" y="-73" font-family="Helvetica,sans-Serif" font-size="10.00">engine/audio/sound</text>
<text text-anchor="middle" x="240" y="-62" font-family="Helvetica,sans-Serif" font-size="10.00">/sound_type.h</text>
</a>
</g>
</g>
<!-- Node4&#45;&gt;Node8 -->
<g id="edge11_Node000004_Node000008" class="edge">
<title>Node4&#45;&gt;Node8</title>
<g id="a_edge11_Node000004_Node000008"><a xlink:title=" ">
<path fill="none" stroke="#63b8ff" d="M224.62,-186.8C227.83,-162.65 233.26,-121.72 236.74,-95.55"/>
<polygon fill="#63b8ff" stroke="#63b8ff" points="240.25,-95.7 238.1,-85.33 233.31,-94.78 240.25,-95.7"/>
</a>
</g>
</g>
<!-- Node6 -->
<g id="Node000006" class="node">
<title>Node6</title>
<g id="a_Node000006"><a xlink:title=" ">
<polygon fill="#e0e0e0" stroke="#999999" points="372,-79.5 314,-79.5 314,-60.5 372,-60.5 372,-79.5"/>
<text text-anchor="middle" x="343" y="-67.5" font-family="Helvetica,sans-Serif" font-size="10.00">memory</text>
</a>
</g>
</g>
<!-- Node5&#45;&gt;Node6 -->
<g id="edge7_Node000005_Node000006" class="edge">
<title>Node5&#45;&gt;Node6</title>
<g id="a_edge7_Node000005_Node000006"><a xlink:title=" ">
<path fill="none" stroke="#63b8ff" d="M328.99,-120.8C331.58,-111.6 334.98,-99.53 337.77,-89.58"/>
<polygon fill="#63b8ff" stroke="#63b8ff" points="341.17,-90.42 340.51,-79.84 334.44,-88.52 341.17,-90.42"/>
</a>
</g>
</g>
<!-- Node7 -->
<g id="Node000007" class="node">
<title>Node7</title>
<g id="a_Node000007"><a xlink:title=" ">
<polygon fill="#e0e0e0" stroke="#999999" points="470,-79.5 426,-79.5 426,-60.5 470,-60.5 470,-79.5"/>
<text text-anchor="middle" x="448" y="-67.5" font-family="Helvetica,sans-Serif" font-size="10.00">string</text>
</a>
</g>
</g>
<!-- Node5&#45;&gt;Node7 -->
<g id="edge8_Node000005_Node000007" class="edge">
<title>Node5&#45;&gt;Node7</title>
<g id="a_edge8_Node000005_Node000007"><a xlink:title=" ">
<path fill="none" stroke="#63b8ff" d="M351.99,-120.95C372.99,-110.03 401.93,-94.97 422.53,-84.25"/>
<polygon fill="#63b8ff" stroke="#63b8ff" points="424.38,-87.24 431.63,-79.52 421.14,-81.03 424.38,-87.24"/>
</a>
</g>
</g>
<!-- Node5&#45;&gt;Node8 -->
<g id="edge9_Node000005_Node000008" class="edge">
<title>Node5&#45;&gt;Node8</title>
<g id="a_edge9_Node000005_Node000008"><a xlink:title=" ">
<path fill="none" stroke="#63b8ff" d="M306.14,-120.8C294.58,-112.1 279.61,-100.82 266.83,-91.2"/>
<polygon fill="#63b8ff" stroke="#63b8ff" points="268.91,-88.38 258.81,-85.16 264.69,-93.98 268.91,-88.38"/>
</a>
</g>
</g>
<!-- Node9 -->
<g id="Node000009" class="node">
<title>Node9</title>
<g id="a_Node000009"><a xlink:title=" ">
<polygon fill="#e0e0e0" stroke="#999999" points="265,-19 215,-19 215,0 265,0 265,-19"/>
<text text-anchor="middle" x="240" y="-7" font-family="Helvetica,sans-Serif" font-size="10.00">cstdint</text>
</a>
</g>
</g>
<!-- Node8&#45;&gt;Node9 -->
<g id="edge10_Node000008_Node000009" class="edge">
<title>Node8&#45;&gt;Node9</title>
<g id="a_edge10_Node000008_Node000009"><a xlink:title=" ">
<path fill="none" stroke="#63b8ff" d="M240,-54.84C240,-47.21 240,-37.7 240,-29.45"/>
<polygon fill="#63b8ff" stroke="#63b8ff" points="243.5,-29.27 240,-19.27 236.5,-29.27 243.5,-29.27"/>
</a>
</g>
</g>
<!-- Node10&#45;&gt;Node5 -->
<g id="edge15_Node000010_Node000005" class="edge">
<title>Node10&#45;&gt;Node5</title>
<g id="a_edge15_Node000010_Node000005"><a xlink:title=" ">
<path fill="none" stroke="#63b8ff" d="M384.02,-192.44C373.49,-182.54 359.22,-169.14 347.34,-157.99"/>
<polygon fill="#63b8ff" stroke="#63b8ff" points="349.64,-155.34 339.95,-151.04 344.85,-160.44 349.64,-155.34"/>
</a>
</g>
</g>
<!-- Node10&#45;&gt;Node6 -->
<g id="edge13_Node000010_Node000006" class="edge">
<title>Node10&#45;&gt;Node6</title>
<g id="a_edge13_Node000010_Node000006"><a xlink:title=" ">
<path fill="none" stroke="#63b8ff" d="M405.22,-192.36C411.99,-174.7 420.44,-144.02 409,-121 401.08,-105.05 385.37,-92.83 371.26,-84.47"/>
<polygon fill="#63b8ff" stroke="#63b8ff" points="372.77,-81.3 362.33,-79.52 369.38,-87.43 372.77,-81.3"/>
</a>
</g>
</g>
<!-- Node10&#45;&gt;Node7 -->
<g id="edge14_Node000010_Node000007" class="edge">
<title>Node10&#45;&gt;Node7</title>
<g id="a_edge14_Node000010_Node000007"><a xlink:title=" ">
<path fill="none" stroke="#63b8ff" d="M413.71,-192.45C423.59,-182.03 435.88,-166.93 442,-151 449.63,-131.14 450.29,-106.5 449.58,-89.85"/>
<polygon fill="#63b8ff" stroke="#63b8ff" points="453.07,-89.52 448.94,-79.76 446.08,-89.96 453.07,-89.52"/>
</a>
</g>
</g>
</g>
</svg>
