<?xml version="1.0" encoding="UTF-8" standalone="no"?>
<!DOCTYPE svg PUBLIC "-//W3C//DTD SVG 1.1//EN"
 "http://www.w3.org/Graphics/SVG/1.1/DTD/svg11.dtd">
<!-- Generated by graphviz version 2.43.0 (0)
 -->
<!-- Title: include/engine/input/strategy/sdl_input_strategy.h Pages: 1 -->
<svg width="642pt" height="280pt"
 viewBox="0.00 0.00 641.50 280.00" xmlns="http://www.w3.org/2000/svg" xmlns:xlink="http://www.w3.org/1999/xlink">
<g id="graph0" class="graph" transform="scale(1 1) rotate(0) translate(4 276)">
<title>include/engine/input/strategy/sdl_input_strategy.h</title>
<!-- Node1 -->
<g id="Node000001" class="node">
<title>Node1</title>
<g id="a_Node000001"><a xlink:title=" ">
<polygon fill="#999999" stroke="#666666" points="568,-272 407,-272 407,-242 568,-242 568,-272"/>
<text text-anchor="start" x="415" y="-260" font-family="Helvetica,sans-Serif" font-size="10.00">include/engine/input</text>
<text text-anchor="middle" x="487.5" y="-249" font-family="Helvetica,sans-Serif" font-size="10.00">/strategy/sdl_input_strategy.h</text>
</a>
</g>
</g>
<!-- Node1&#45;&gt;Node1 -->
<g id="edge12_Node000001_Node000001" class="edge">
<title>Node1&#45;&gt;Node1</title>
<g id="a_edge12_Node000001_Node000001"><a xlink:title=" ">
<path fill="none" stroke="#63b8ff" d="M568.27,-266.92C578.93,-265.23 586,-261.92 586,-257 586,-253.85 583.1,-251.36 578.21,-249.53"/>
<polygon fill="#63b8ff" stroke="#63b8ff" points="578.82,-246.07 568.27,-247.08 577.14,-252.87 578.82,-246.07"/>
</a>
</g>
</g>
<!-- Node2 -->
<g id="Node000002" class="node">
<title>Node2</title>
<g id="a_Node000002"><a xlink:title=" ">
<polygon fill="#e0e0e0" stroke="#999999" points="468.5,-79.5 430.5,-79.5 430.5,-60.5 468.5,-60.5 468.5,-79.5"/>
<text text-anchor="middle" x="449.5" y="-67.5" font-family="Helvetica,sans-Serif" font-size="10.00">map</text>
</a>
</g>
</g>
<!-- Node1&#45;&gt;Node2 -->
<g id="edge1_Node000001_Node000002" class="edge">
<title>Node1&#45;&gt;Node2</title>
<g id="a_edge1_Node000001_Node000002"><a xlink:title=" ">
<path fill="none" stroke="#63b8ff" d="M484.58,-241.79C477.78,-208.67 460.87,-126.34 453.28,-89.42"/>
<polygon fill="#63b8ff" stroke="#63b8ff" points="456.69,-88.62 451.25,-79.53 449.84,-90.03 456.69,-88.62"/>
</a>
</g>
</g>
<!-- Node3 -->
<g id="Node000003" class="node">
<title>Node3</title>
<g id="a_Node000003"><a xlink:href="i__input_8h.html" target="_top" xlink:title=" ">
<polygon fill="white" stroke="#666666" points="413.5,-206 291.5,-206 291.5,-187 413.5,-187 413.5,-206"/>
<text text-anchor="middle" x="352.5" y="-194" font-family="Helvetica,sans-Serif" font-size="10.00">engine/input/i_input.h</text>
</a>
</g>
</g>
<!-- Node1&#45;&gt;Node3 -->
<g id="edge2_Node000001_Node000003" class="edge">
<title>Node1&#45;&gt;Node3</title>
<g id="a_edge2_Node000001_Node000003"><a xlink:title=" ">
<path fill="none" stroke="#63b8ff" d="M455.16,-241.99C432.84,-232.31 403.4,-219.56 381.77,-210.18"/>
<polygon fill="#63b8ff" stroke="#63b8ff" points="383,-206.9 372.44,-206.14 380.22,-213.33 383,-206.9"/>
</a>
</g>
</g>
<!-- Node10 -->
<g id="Node000010" class="node">
<title>Node10</title>
<g id="a_Node000010"><a xlink:title=" ">
<polygon fill="#e0e0e0" stroke="#999999" points="633.5,-206 515.5,-206 515.5,-187 633.5,-187 633.5,-206"/>
<text text-anchor="middle" x="574.5" y="-194" font-family="Helvetica,sans-Serif" font-size="10.00">SDL3/SDL_keycode.h</text>
</a>
</g>
</g>
<!-- Node1&#45;&gt;Node10 -->
<g id="edge13_Node000001_Node000010" class="edge">
<title>Node1&#45;&gt;Node10</title>
<g id="a_edge13_Node000001_Node000010"><a xlink:title=" ">
<path fill="none" stroke="#63b8ff" d="M508.56,-241.84C522.04,-232.77 539.49,-221.04 553.05,-211.92"/>
<polygon fill="#63b8ff" stroke="#63b8ff" points="555.37,-214.58 561.72,-206.09 551.47,-208.77 555.37,-214.58"/>
</a>
</g>
</g>
<!-- Node3&#45;&gt;Node2 -->
<g id="edge3_Node000003_Node000002" class="edge">
<title>Node3&#45;&gt;Node2</title>
<g id="a_edge3_Node000003_Node000002"><a xlink:title=" ">
<path fill="none" stroke="#63b8ff" d="M378.35,-186.98C395.63,-179.97 417.51,-168.35 430.5,-151 443.91,-133.1 448.02,-107.14 449.19,-89.7"/>
<polygon fill="#63b8ff" stroke="#63b8ff" points="452.69,-89.77 449.61,-79.63 445.7,-89.48 452.69,-89.77"/>
</a>
</g>
</g>
<!-- Node4 -->
<g id="Node000004" class="node">
<title>Node4</title>
<g id="a_Node000004"><a xlink:href="key__code_8h.html" target="_top" xlink:title=" ">
<polygon fill="white" stroke="#666666" points="135,-145.5 0,-145.5 0,-126.5 135,-126.5 135,-145.5"/>
<text text-anchor="middle" x="67.5" y="-133.5" font-family="Helvetica,sans-Serif" font-size="10.00">engine/input/key_code.h</text>
</a>
</g>
</g>
<!-- Node3&#45;&gt;Node4 -->
<g id="edge4_Node000003_Node000004" class="edge">
<title>Node3&#45;&gt;Node4</title>
<g id="a_edge4_Node000003_Node000004"><a xlink:title=" ">
<path fill="none" stroke="#63b8ff" d="M311.06,-186.99C260.19,-176.55 173.93,-158.85 118.89,-147.55"/>
<polygon fill="#63b8ff" stroke="#63b8ff" points="119.49,-144.1 108.99,-145.52 118.08,-150.96 119.49,-144.1"/>
</a>
</g>
</g>
<!-- Node6 -->
<g id="Node000006" class="node">
<title>Node6</title>
<g id="a_Node000006"><a xlink:href="key__state_8h.html" target="_top" xlink:title=" ">
<polygon fill="white" stroke="#666666" points="421,-145.5 284,-145.5 284,-126.5 421,-126.5 421,-145.5"/>
<text text-anchor="middle" x="352.5" y="-133.5" font-family="Helvetica,sans-Serif" font-size="10.00">engine/input/key_state.h</text>
</a>
</g>
</g>
<!-- Node3&#45;&gt;Node6 -->
<g id="edge6_Node000003_Node000006" class="edge">
<title>Node3&#45;&gt;Node6</title>
<g id="a_edge6_Node000003_Node000006"><a xlink:title=" ">
<path fill="none" stroke="#63b8ff" d="M352.5,-186.87C352.5,-178.75 352.5,-166.31 352.5,-155.89"/>
<polygon fill="#63b8ff" stroke="#63b8ff" points="356,-155.67 352.5,-145.67 349,-155.67 356,-155.67"/>
</a>
</g>
</g>
<!-- Node7 -->
<g id="Node000007" class="node">
<title>Node7</title>
<g id="a_Node000007"><a xlink:href="mouse__state_8h.html" target="_top" xlink:title=" ">
<polygon fill="white" stroke="#666666" points="266,-151 153,-151 153,-121 266,-121 266,-151"/>
<text text-anchor="start" x="161" y="-139" font-family="Helvetica,sans-Serif" font-size="10.00">engine/input/mouse</text>
<text text-anchor="middle" x="209.5" y="-128" font-family="Helvetica,sans-Serif" font-size="10.00">_state.h</text>
</a>
</g>
</g>
<!-- Node3&#45;&gt;Node7 -->
<g id="edge7_Node000003_Node000007" class="edge">
<title>Node3&#45;&gt;Node7</title>
<g id="a_edge7_Node000003_Node000007"><a xlink:title=" ">
<path fill="none" stroke="#63b8ff" d="M331.71,-186.99C311.22,-178.61 279.28,-165.55 253.19,-154.87"/>
<polygon fill="#63b8ff" stroke="#63b8ff" points="254.46,-151.61 243.88,-151.06 251.81,-158.09 254.46,-151.61"/>
</a>
</g>
</g>
<!-- Node5 -->
<g id="Node000005" class="node">
<title>Node5</title>
<g id="a_Node000005"><a xlink:title=" ">
<polygon fill="#e0e0e0" stroke="#999999" points="134.5,-19 84.5,-19 84.5,0 134.5,0 134.5,-19"/>
<text text-anchor="middle" x="109.5" y="-7" font-family="Helvetica,sans-Serif" font-size="10.00">cstdint</text>
</a>
</g>
</g>
<!-- Node4&#45;&gt;Node5 -->
<g id="edge5_Node000004_Node000005" class="edge">
<title>Node4&#45;&gt;Node5</title>
<g id="a_edge5_Node000004_Node000005"><a xlink:title=" ">
<path fill="none" stroke="#63b8ff" d="M68.83,-126.39C71.3,-111.51 77.17,-80.16 86.5,-55 89.94,-45.72 94.86,-35.91 99.27,-27.86"/>
<polygon fill="#63b8ff" stroke="#63b8ff" points="102.37,-29.5 104.26,-19.08 96.28,-26.04 102.37,-29.5"/>
</a>
</g>
</g>
<!-- Node7&#45;&gt;Node2 -->
<g id="edge8_Node000007_Node000002" class="edge">
<title>Node7&#45;&gt;Node2</title>
<g id="a_edge8_Node000007_Node000002"><a xlink:title=" ">
<path fill="none" stroke="#63b8ff" d="M262.17,-120.95C310.94,-107.95 381.64,-89.1 420.75,-78.67"/>
<polygon fill="#63b8ff" stroke="#63b8ff" points="421.69,-82.04 430.45,-76.08 419.88,-75.28 421.69,-82.04"/>
</a>
</g>
</g>
<!-- Node8 -->
<g id="Node000008" class="node">
<title>Node8</title>
<g id="a_Node000008"><a xlink:href="mouse__button_8h.html" target="_top" xlink:title=" ">
<polygon fill="white" stroke="#666666" points="209,-85 96,-85 96,-55 209,-55 209,-85"/>
<text text-anchor="start" x="104" y="-73" font-family="Helvetica,sans-Serif" font-size="10.00">engine/input/mouse</text>
<text text-anchor="middle" x="152.5" y="-62" font-family="Helvetica,sans-Serif" font-size="10.00">_button.h</text>
</a>
</g>
</g>
<!-- Node7&#45;&gt;Node8 -->
<g id="edge9_Node000007_Node000008" class="edge">
<title>Node7&#45;&gt;Node8</title>
<g id="a_edge9_Node000007_Node000008"><a xlink:title=" ">
<path fill="none" stroke="#63b8ff" d="M196.85,-120.8C189.54,-112.59 180.2,-102.1 171.98,-92.87"/>
<polygon fill="#63b8ff" stroke="#63b8ff" points="174.38,-90.3 165.11,-85.16 169.15,-94.96 174.38,-90.3"/>
</a>
</g>
</g>
<!-- Node9 -->
<g id="Node000009" class="node">
<title>Node9</title>
<g id="a_Node000009"><a xlink:href="point_8h.html" target="_top" xlink:title=" ">
<polygon fill="white" stroke="#666666" points="328,-85 227,-85 227,-55 328,-55 328,-85"/>
<text text-anchor="start" x="235" y="-73" font-family="Helvetica,sans-Serif" font-size="10.00">engine/public/util</text>
<text text-anchor="middle" x="277.5" y="-62" font-family="Helvetica,sans-Serif" font-size="10.00">/point.h</text>
</a>
</g>
</g>
<!-- Node7&#45;&gt;Node9 -->
<g id="edge11_Node000007_Node000009" class="edge">
<title>Node7&#45;&gt;Node9</title>
<g id="a_edge11_Node000007_Node000009"><a xlink:title=" ">
<path fill="none" stroke="#63b8ff" d="M224.59,-120.8C233.57,-112.34 245.13,-101.46 255.15,-92.03"/>
<polygon fill="#63b8ff" stroke="#63b8ff" points="257.57,-94.57 262.45,-85.16 252.77,-89.47 257.57,-94.57"/>
</a>
</g>
</g>
<!-- Node8&#45;&gt;Node5 -->
<g id="edge10_Node000008_Node000005" class="edge">
<title>Node8&#45;&gt;Node5</title>
<g id="a_edge10_Node000008_Node000005"><a xlink:title=" ">
<path fill="none" stroke="#63b8ff" d="M142.09,-54.84C136.04,-46.61 128.38,-36.18 122,-27.51"/>
<polygon fill="#63b8ff" stroke="#63b8ff" points="124.69,-25.25 115.94,-19.27 119.05,-29.4 124.69,-25.25"/>
</a>
</g>
</g>
</g>
</svg>
