<?xml version="1.0" encoding="UTF-8" standalone="no"?>
<!DOCTYPE svg PUBLIC "-//W3C//DTD SVG 1.1//EN"
 "http://www.w3.org/Graphics/SVG/1.1/DTD/svg11.dtd">
<!-- Generated by graphviz version 2.43.0 (0)
 -->
<!-- Title: include/engine/audio/sound/resource/sdl_sound_resource.h Pages: 1 -->
<svg width="452pt" height="236pt"
 viewBox="0.00 0.00 452.00 236.00" xmlns="http://www.w3.org/2000/svg" xmlns:xlink="http://www.w3.org/1999/xlink">
<g id="graph0" class="graph" transform="scale(1 1) rotate(0) translate(4 232)">
<title>include/engine/audio/sound/resource/sdl_sound_resource.h</title>
<!-- Node1 -->
<g id="Node000001" class="node">
<title>Node1</title>
<g id="a_Node000001"><a xlink:title=" ">
<polygon fill="#999999" stroke="#666666" points="287,-228 141,-228 141,-187 287,-187 287,-228"/>
<text text-anchor="start" x="149" y="-216" font-family="Helvetica,sans-Serif" font-size="10.00">include/engine/audio</text>
<text text-anchor="start" x="149" y="-205" font-family="Helvetica,sans-Serif" font-size="10.00">/sound/resource/sdl_sound</text>
<text text-anchor="middle" x="214" y="-194" font-family="Helvetica,sans-Serif" font-size="10.00">_resource.h</text>
</a>
</g>
</g>
<!-- Node2 -->
<g id="Node000002" class="node">
<title>Node2</title>
<g id="a_Node000002"><a xlink:title=" ">
<polygon fill="#e0e0e0" stroke="#999999" points="72,-145.5 0,-145.5 0,-126.5 72,-126.5 72,-145.5"/>
<text text-anchor="middle" x="36" y="-133.5" font-family="Helvetica,sans-Serif" font-size="10.00">SDL3/SDL.h</text>
</a>
</g>
</g>
<!-- Node1&#45;&gt;Node2 -->
<g id="edge1_Node000001_Node000002" class="edge">
<title>Node1&#45;&gt;Node2</title>
<g id="a_edge1_Node000001_Node000002"><a xlink:title=" ">
<path fill="none" stroke="#63b8ff" d="M163.94,-186.96C132.94,-174.85 94.09,-159.68 67.38,-149.25"/>
<polygon fill="#63b8ff" stroke="#63b8ff" points="68.37,-145.88 57.78,-145.5 65.82,-152.4 68.37,-145.88"/>
</a>
</g>
</g>
<!-- Node3 -->
<g id="Node000003" class="node">
<title>Node3</title>
<g id="a_Node000003"><a xlink:title=" ">
<polygon fill="#e0e0e0" stroke="#999999" points="194,-145.5 90,-145.5 90,-126.5 194,-126.5 194,-145.5"/>
<text text-anchor="middle" x="142" y="-133.5" font-family="Helvetica,sans-Serif" font-size="10.00">SDL3/SDL_audio.h</text>
</a>
</g>
</g>
<!-- Node1&#45;&gt;Node3 -->
<g id="edge2_Node000001_Node000003" class="edge">
<title>Node1&#45;&gt;Node3</title>
<g id="a_edge2_Node000001_Node000003"><a xlink:title=" ">
<path fill="none" stroke="#63b8ff" d="M193.56,-186.77C182.43,-176.02 168.84,-162.91 158.41,-152.84"/>
<polygon fill="#63b8ff" stroke="#63b8ff" points="160.76,-150.25 151.14,-145.82 155.9,-155.28 160.76,-150.25"/>
</a>
</g>
</g>
<!-- Node4 -->
<g id="Node000004" class="node">
<title>Node4</title>
<g id="a_Node000004"><a xlink:href="sound__resource_8h.html" target="_top" xlink:title=" ">
<polygon fill="white" stroke="#666666" points="362,-151 212,-151 212,-121 362,-121 362,-151"/>
<text text-anchor="start" x="220" y="-139" font-family="Helvetica,sans-Serif" font-size="10.00">engine/audio/sound</text>
<text text-anchor="middle" x="287" y="-128" font-family="Helvetica,sans-Serif" font-size="10.00">/resource/sound_resource.h</text>
</a>
</g>
</g>
<!-- Node1&#45;&gt;Node4 -->
<g id="edge3_Node000001_Node000004" class="edge">
<title>Node1&#45;&gt;Node4</title>
<g id="a_edge3_Node000001_Node000004"><a xlink:title=" ">
<path fill="none" stroke="#63b8ff" d="M234.72,-186.77C244.17,-177.78 255.36,-167.12 264.96,-157.98"/>
<polygon fill="#63b8ff" stroke="#63b8ff" points="267.43,-160.47 272.25,-151.04 262.6,-155.4 267.43,-160.47"/>
</a>
</g>
</g>
<!-- Node7 -->
<g id="Node000007" class="node">
<title>Node7</title>
<g id="a_Node000007"><a xlink:href="sound__type_8h.html" target="_top" xlink:title=" ">
<polygon fill="white" stroke="#666666" points="444,-85 332,-85 332,-55 444,-55 444,-85"/>
<text text-anchor="start" x="340" y="-73" font-family="Helvetica,sans-Serif" font-size="10.00">engine/audio/sound</text>
<text text-anchor="middle" x="388" y="-62" font-family="Helvetica,sans-Serif" font-size="10.00">/sound_type.h</text>
</a>
</g>
</g>
<!-- Node1&#45;&gt;Node7 -->
<g id="edge8_Node000001_Node000007" class="edge">
<title>Node1&#45;&gt;Node7</title>
<g id="a_edge8_Node000001_Node000007"><a xlink:title=" ">
<path fill="none" stroke="#63b8ff" d="M287.27,-196.57C317.22,-188.88 349.74,-175.23 371,-151 384.34,-135.8 388.1,-112.75 388.81,-95.29"/>
<polygon fill="#63b8ff" stroke="#63b8ff" points="392.31,-95.29 388.91,-85.26 385.31,-95.22 392.31,-95.29"/>
</a>
</g>
</g>
<!-- Node5 -->
<g id="Node000005" class="node">
<title>Node5</title>
<g id="a_Node000005"><a xlink:title=" ">
<polygon fill="#e0e0e0" stroke="#999999" points="249,-79.5 191,-79.5 191,-60.5 249,-60.5 249,-79.5"/>
<text text-anchor="middle" x="220" y="-67.5" font-family="Helvetica,sans-Serif" font-size="10.00">memory</text>
</a>
</g>
</g>
<!-- Node4&#45;&gt;Node5 -->
<g id="edge4_Node000004_Node000005" class="edge">
<title>Node4&#45;&gt;Node5</title>
<g id="a_edge4_Node000004_Node000005"><a xlink:title=" ">
<path fill="none" stroke="#63b8ff" d="M272.13,-120.8C261.58,-110.72 247.42,-97.19 236.52,-86.78"/>
<polygon fill="#63b8ff" stroke="#63b8ff" points="238.91,-84.22 229.26,-79.84 234.07,-89.28 238.91,-84.22"/>
</a>
</g>
</g>
<!-- Node6 -->
<g id="Node000006" class="node">
<title>Node6</title>
<g id="a_Node000006"><a xlink:title=" ">
<polygon fill="#e0e0e0" stroke="#999999" points="311,-79.5 267,-79.5 267,-60.5 311,-60.5 311,-79.5"/>
<text text-anchor="middle" x="289" y="-67.5" font-family="Helvetica,sans-Serif" font-size="10.00">string</text>
</a>
</g>
</g>
<!-- Node4&#45;&gt;Node6 -->
<g id="edge5_Node000004_Node000006" class="edge">
<title>Node4&#45;&gt;Node6</title>
<g id="a_edge5_Node000004_Node000006"><a xlink:title=" ">
<path fill="none" stroke="#63b8ff" d="M287.44,-120.8C287.73,-111.7 288.1,-99.79 288.41,-89.9"/>
<polygon fill="#63b8ff" stroke="#63b8ff" points="291.91,-89.95 288.72,-79.84 284.91,-89.73 291.91,-89.95"/>
</a>
</g>
</g>
<!-- Node4&#45;&gt;Node7 -->
<g id="edge6_Node000004_Node000007" class="edge">
<title>Node4&#45;&gt;Node7</title>
<g id="a_edge6_Node000004_Node000007"><a xlink:title=" ">
<path fill="none" stroke="#63b8ff" d="M309.42,-120.8C323.41,-111.93 341.62,-100.39 356.98,-90.66"/>
<polygon fill="#63b8ff" stroke="#63b8ff" points="359.07,-93.47 365.65,-85.16 355.33,-87.56 359.07,-93.47"/>
</a>
</g>
</g>
<!-- Node8 -->
<g id="Node000008" class="node">
<title>Node8</title>
<g id="a_Node000008"><a xlink:title=" ">
<polygon fill="#e0e0e0" stroke="#999999" points="413,-19 363,-19 363,0 413,0 413,-19"/>
<text text-anchor="middle" x="388" y="-7" font-family="Helvetica,sans-Serif" font-size="10.00">cstdint</text>
</a>
</g>
</g>
<!-- Node7&#45;&gt;Node8 -->
<g id="edge7_Node000007_Node000008" class="edge">
<title>Node7&#45;&gt;Node8</title>
<g id="a_edge7_Node000007_Node000008"><a xlink:title=" ">
<path fill="none" stroke="#63b8ff" d="M388,-54.84C388,-47.21 388,-37.7 388,-29.45"/>
<polygon fill="#63b8ff" stroke="#63b8ff" points="391.5,-29.27 388,-19.27 384.5,-29.27 391.5,-29.27"/>
</a>
</g>
</g>
</g>
</svg>
