<?xml version="1.0" encoding="UTF-8" standalone="no"?>
<!DOCTYPE svg PUBLIC "-//W3C//DTD SVG 1.1//EN"
 "http://www.w3.org/Graphics/SVG/1.1/DTD/svg11.dtd">
<!-- Generated by graphviz version 2.43.0 (0)
 -->
<!-- Title: include/engine/core/rendering/strategies/sdl/sdl_text_strategy.h Pages: 1 -->
<svg width="1155pt" height="379pt"
 viewBox="0.00 0.00 1155.00 379.00" xmlns="http://www.w3.org/2000/svg" xmlns:xlink="http://www.w3.org/1999/xlink">
<g id="graph0" class="graph" transform="scale(1 1) rotate(0) translate(4 375)">
<title>include/engine/core/rendering/strategies/sdl/sdl_text_strategy.h</title>
<!-- Node1 -->
<g id="Node000001" class="node">
<title>Node1</title>
<g id="a_Node000001"><a xlink:title=" ">
<polygon fill="#999999" stroke="#666666" points="599.5,-371 470.5,-371 470.5,-330 599.5,-330 599.5,-371"/>
<text text-anchor="start" x="478.5" y="-359" font-family="Helvetica,sans-Serif" font-size="10.00">include/engine/core</text>
<text text-anchor="start" x="478.5" y="-348" font-family="Helvetica,sans-Serif" font-size="10.00">/rendering/strategies</text>
<text text-anchor="middle" x="535" y="-337" font-family="Helvetica,sans-Serif" font-size="10.00">/sdl/sdl_text_strategy.h</text>
</a>
</g>
</g>
<!-- Node2 -->
<g id="Node000002" class="node">
<title>Node2</title>
<g id="a_Node000002"><a xlink:title=" ">
<polygon fill="#e0e0e0" stroke="#999999" points="38,-283 0,-283 0,-264 38,-264 38,-283"/>
<text text-anchor="middle" x="19" y="-271" font-family="Helvetica,sans-Serif" font-size="10.00">map</text>
</a>
</g>
</g>
<!-- Node1&#45;&gt;Node2 -->
<g id="edge1_Node000001_Node000002" class="edge">
<title>Node1&#45;&gt;Node2</title>
<g id="a_edge1_Node000001_Node000002"><a xlink:title=" ">
<path fill="none" stroke="#63b8ff" d="M470.4,-345.43C357.25,-337.74 128.01,-319.53 52,-294 47.74,-292.57 43.44,-290.54 39.4,-288.32"/>
<polygon fill="#63b8ff" stroke="#63b8ff" points="41,-285.2 30.64,-283.01 37.37,-291.19 41,-285.2"/>
</a>
</g>
</g>
<!-- Node3 -->
<g id="Node000003" class="node">
<title>Node3</title>
<g id="a_Node000003"><a xlink:title=" ">
<polygon fill="#e0e0e0" stroke="#999999" points="144,-24.5 86,-24.5 86,-5.5 144,-5.5 144,-24.5"/>
<text text-anchor="middle" x="115" y="-12.5" font-family="Helvetica,sans-Serif" font-size="10.00">memory</text>
</a>
</g>
</g>
<!-- Node1&#45;&gt;Node3 -->
<g id="edge2_Node000001_Node000003" class="edge">
<title>Node1&#45;&gt;Node3</title>
<g id="a_edge2_Node000001_Node000003"><a xlink:title=" ">
<path fill="none" stroke="#63b8ff" d="M470.28,-342.96C341.62,-328.17 66,-286.7 66,-203 66,-203 66,-203 66,-135 66,-96.29 88.44,-55.47 102.95,-33.13"/>
<polygon fill="#63b8ff" stroke="#63b8ff" points="105.91,-35 108.59,-24.74 100.11,-31.09 105.91,-35"/>
</a>
</g>
</g>
<!-- Node4 -->
<g id="Node000004" class="node">
<title>Node4</title>
<g id="a_Node000004"><a xlink:title=" ">
<polygon fill="#e0e0e0" stroke="#999999" points="728,-85 684,-85 684,-66 728,-66 728,-85"/>
<text text-anchor="middle" x="706" y="-73" font-family="Helvetica,sans-Serif" font-size="10.00">string</text>
</a>
</g>
</g>
<!-- Node1&#45;&gt;Node4 -->
<g id="edge3_Node000001_Node000004" class="edge">
<title>Node1&#45;&gt;Node4</title>
<g id="a_edge3_Node000001_Node000004"><a xlink:title=" ">
<path fill="none" stroke="#63b8ff" d="M599.83,-336.24C687.21,-314.5 839.46,-262.07 906,-151 912.85,-139.56 914.39,-131.36 906,-121 859.67,-63.76 815.4,-99.9 738.38,-84.99"/>
<polygon fill="#63b8ff" stroke="#63b8ff" points="738.83,-81.5 728.31,-82.78 737.33,-88.34 738.83,-81.5"/>
</a>
</g>
</g>
<!-- Node5 -->
<g id="Node000005" class="node">
<title>Node5</title>
<g id="a_Node000005"><a xlink:title=" ">
<polygon fill="#e0e0e0" stroke="#999999" points="1025,-283 953,-283 953,-264 1025,-264 1025,-283"/>
<text text-anchor="middle" x="989" y="-271" font-family="Helvetica,sans-Serif" font-size="10.00">SDL3/SDL.h</text>
</a>
</g>
</g>
<!-- Node1&#45;&gt;Node5 -->
<g id="edge4_Node000001_Node000005" class="edge">
<title>Node1&#45;&gt;Node5</title>
<g id="a_edge4_Node000001_Node000005"><a xlink:title=" ">
<path fill="none" stroke="#63b8ff" d="M599.58,-345.33C680.11,-339.06 821.48,-324.53 939,-294 946.03,-292.17 953.41,-289.65 960.28,-287.03"/>
<polygon fill="#63b8ff" stroke="#63b8ff" points="961.9,-290.15 969.88,-283.18 959.3,-283.65 961.9,-290.15"/>
</a>
</g>
</g>
<!-- Node6 -->
<g id="Node000006" class="node">
<title>Node6</title>
<g id="a_Node000006"><a xlink:title=" ">
<polygon fill="#e0e0e0" stroke="#999999" points="1147,-283 1043,-283 1043,-264 1147,-264 1147,-283"/>
<text text-anchor="middle" x="1095" y="-271" font-family="Helvetica,sans-Serif" font-size="10.00">SDL3_ttf/SDL_ttf.h</text>
</a>
</g>
</g>
<!-- Node1&#45;&gt;Node6 -->
<g id="edge5_Node000001_Node000006" class="edge">
<title>Node1&#45;&gt;Node6</title>
<g id="a_edge5_Node000001_Node000006"><a xlink:title=" ">
<path fill="none" stroke="#63b8ff" d="M599.85,-346.4C695.68,-340.91 880.34,-326.77 1034,-294 1043.42,-291.99 1053.46,-289.11 1062.61,-286.17"/>
<polygon fill="#63b8ff" stroke="#63b8ff" points="1063.74,-289.48 1072.12,-283.01 1061.53,-282.84 1063.74,-289.48"/>
</a>
</g>
</g>
<!-- Node7 -->
<g id="Node000007" class="node">
<title>Node7</title>
<g id="a_Node000007"><a xlink:href="irendering__strategy_8h.html" target="_top" xlink:title=" ">
<polygon fill="white" stroke="#666666" points="596.5,-294 473.5,-294 473.5,-253 596.5,-253 596.5,-294"/>
<text text-anchor="start" x="481.5" y="-282" font-family="Helvetica,sans-Serif" font-size="10.00">engine/core/rendering</text>
<text text-anchor="start" x="481.5" y="-271" font-family="Helvetica,sans-Serif" font-size="10.00">/strategies/irendering</text>
<text text-anchor="middle" x="535" y="-260" font-family="Helvetica,sans-Serif" font-size="10.00">_strategy.h</text>
</a>
</g>
</g>
<!-- Node1&#45;&gt;Node7 -->
<g id="edge6_Node000001_Node000007" class="edge">
<title>Node1&#45;&gt;Node7</title>
<g id="a_edge6_Node000001_Node000007"><a xlink:title=" ">
<path fill="none" stroke="#63b8ff" d="M535,-329.79C535,-321.96 535,-312.77 535,-304.16"/>
<polygon fill="#63b8ff" stroke="#63b8ff" points="538.5,-304.07 535,-294.07 531.5,-304.07 538.5,-304.07"/>
</a>
</g>
</g>
<!-- Node18 -->
<g id="Node000018" class="node">
<title>Node18</title>
<g id="a_Node000018"><a xlink:href="component_8h.html" target="_top" xlink:title=" ">
<polygon fill="white" stroke="#666666" points="280.5,-85 131.5,-85 131.5,-66 280.5,-66 280.5,-85"/>
<text text-anchor="middle" x="206" y="-73" font-family="Helvetica,sans-Serif" font-size="10.00">engine/public/component.h</text>
</a>
</g>
</g>
<!-- Node1&#45;&gt;Node18 -->
<g id="edge30_Node000001_Node000018" class="edge">
<title>Node1&#45;&gt;Node18</title>
<g id="a_edge30_Node000001_Node000018"><a xlink:title=" ">
<path fill="none" stroke="#63b8ff" d="M506.04,-329.86C456.64,-295.82 353.79,-222.63 275,-151 254.53,-132.39 233.23,-108.6 219.8,-92.97"/>
<polygon fill="#63b8ff" stroke="#63b8ff" points="222.36,-90.57 213.21,-85.22 217.02,-95.1 222.36,-90.57"/>
</a>
</g>
</g>
<!-- Node8 -->
<g id="Node000008" class="node">
<title>Node8</title>
<g id="a_Node000008"><a xlink:href="renderer_8h.html" target="_top" xlink:title=" ">
<polygon fill="white" stroke="#666666" points="596.5,-217 473.5,-217 473.5,-187 596.5,-187 596.5,-217"/>
<text text-anchor="start" x="481.5" y="-205" font-family="Helvetica,sans-Serif" font-size="10.00">engine/core/rendering</text>
<text text-anchor="middle" x="535" y="-194" font-family="Helvetica,sans-Serif" font-size="10.00">/renderer.h</text>
</a>
</g>
</g>
<!-- Node7&#45;&gt;Node8 -->
<g id="edge7_Node000007_Node000008" class="edge">
<title>Node7&#45;&gt;Node8</title>
<g id="a_edge7_Node000007_Node000008"><a xlink:title=" ">
<path fill="none" stroke="#63b8ff" d="M535,-252.77C535,-244.85 535,-235.63 535,-227.3"/>
<polygon fill="#63b8ff" stroke="#63b8ff" points="538.5,-227.04 535,-217.04 531.5,-227.04 538.5,-227.04"/>
</a>
</g>
</g>
<!-- Node8&#45;&gt;Node3 -->
<g id="edge8_Node000008_Node000003" class="edge">
<title>Node8&#45;&gt;Node3</title>
<g id="a_edge8_Node000008_Node000003"><a xlink:title=" ">
<path fill="none" stroke="#63b8ff" d="M473.49,-192.99C368.88,-177.94 163.6,-141.77 122,-85 111.45,-70.6 110.77,-49.75 112.07,-34.74"/>
<polygon fill="#63b8ff" stroke="#63b8ff" points="115.57,-34.96 113.31,-24.6 108.62,-34.1 115.57,-34.96"/>
</a>
</g>
</g>
<!-- Node9 -->
<g id="Node000009" class="node">
<title>Node9</title>
<g id="a_Node000009"><a xlink:href="renderer_flags_8h.html" target="_top" xlink:title=" ">
<polygon fill="white" stroke="#666666" points="755.5,-151 632.5,-151 632.5,-121 755.5,-121 755.5,-151"/>
<text text-anchor="start" x="640.5" y="-139" font-family="Helvetica,sans-Serif" font-size="10.00">engine/core/rendering</text>
<text text-anchor="middle" x="694" y="-128" font-family="Helvetica,sans-Serif" font-size="10.00">/rendererFlags.h</text>
</a>
</g>
</g>
<!-- Node8&#45;&gt;Node9 -->
<g id="edge9_Node000008_Node000009" class="edge">
<title>Node8&#45;&gt;Node9</title>
<g id="a_edge9_Node000008_Node000009"><a xlink:title=" ">
<path fill="none" stroke="#63b8ff" d="M569.89,-186.95C593.4,-177.49 624.6,-164.93 649.84,-154.78"/>
<polygon fill="#63b8ff" stroke="#63b8ff" points="651.22,-157.99 659.19,-151.01 648.6,-151.5 651.22,-157.99"/>
</a>
</g>
</g>
<!-- Node11 -->
<g id="Node000011" class="node">
<title>Node11</title>
<g id="a_Node000011"><a xlink:href="game_object_8h.html" target="_top" xlink:title=" ">
<polygon fill="white" stroke="#666666" points="437.5,-145.5 284.5,-145.5 284.5,-126.5 437.5,-126.5 437.5,-145.5"/>
<text text-anchor="middle" x="361" y="-133.5" font-family="Helvetica,sans-Serif" font-size="10.00">engine/public/gameObject.h</text>
</a>
</g>
</g>
<!-- Node8&#45;&gt;Node11 -->
<g id="edge11_Node000008_Node000011" class="edge">
<title>Node8&#45;&gt;Node11</title>
<g id="a_edge11_Node000008_Node000011"><a xlink:title=" ">
<path fill="none" stroke="#63b8ff" d="M496.81,-186.95C466.03,-175.63 423.19,-159.88 393.91,-149.1"/>
<polygon fill="#63b8ff" stroke="#63b8ff" points="394.75,-145.68 384.16,-145.52 392.33,-152.25 394.75,-145.68"/>
</a>
</g>
</g>
<!-- Node20 -->
<g id="Node000020" class="node">
<title>Node20</title>
<g id="a_Node000020"><a xlink:href="i_engine_service_8h.html" target="_top" xlink:title=" ">
<polygon fill="white" stroke="#666666" points="614,-145.5 456,-145.5 456,-126.5 614,-126.5 614,-145.5"/>
<text text-anchor="middle" x="535" y="-133.5" font-family="Helvetica,sans-Serif" font-size="10.00">engine/core/iEngineService.h</text>
</a>
</g>
</g>
<!-- Node8&#45;&gt;Node20 -->
<g id="edge26_Node000008_Node000020" class="edge">
<title>Node8&#45;&gt;Node20</title>
<g id="a_edge26_Node000008_Node000020"><a xlink:title=" ">
<path fill="none" stroke="#63b8ff" d="M535,-186.8C535,-177.7 535,-165.79 535,-155.9"/>
<polygon fill="#63b8ff" stroke="#63b8ff" points="538.5,-155.84 535,-145.84 531.5,-155.84 538.5,-155.84"/>
</a>
</g>
</g>
<!-- Node22 -->
<g id="Node000022" class="node">
<title>Node22</title>
<g id="a_Node000022"><a xlink:href="window_8h.html" target="_top" xlink:title=" ">
<polygon fill="white" stroke="#666666" points="896.5,-151 773.5,-151 773.5,-121 896.5,-121 896.5,-151"/>
<text text-anchor="start" x="781.5" y="-139" font-family="Helvetica,sans-Serif" font-size="10.00">engine/core/rendering</text>
<text text-anchor="middle" x="835" y="-128" font-family="Helvetica,sans-Serif" font-size="10.00">/window.h</text>
</a>
</g>
</g>
<!-- Node8&#45;&gt;Node22 -->
<g id="edge28_Node000008_Node000022" class="edge">
<title>Node8&#45;&gt;Node22</title>
<g id="a_edge28_Node000008_Node000022"><a xlink:title=" ">
<path fill="none" stroke="#63b8ff" d="M596.8,-187.82C645.2,-177.49 712.61,-163.11 763.36,-152.28"/>
<polygon fill="#63b8ff" stroke="#63b8ff" points="764.23,-155.68 773.28,-150.17 762.77,-148.83 764.23,-155.68"/>
</a>
</g>
</g>
<!-- Node10 -->
<g id="Node000010" class="node">
<title>Node10</title>
<g id="a_Node000010"><a xlink:title=" ">
<polygon fill="#e0e0e0" stroke="#999999" points="874,-85 824,-85 824,-66 874,-66 874,-85"/>
<text text-anchor="middle" x="849" y="-73" font-family="Helvetica,sans-Serif" font-size="10.00">cstdint</text>
</a>
</g>
</g>
<!-- Node9&#45;&gt;Node10 -->
<g id="edge10_Node000009_Node000010" class="edge">
<title>Node9&#45;&gt;Node10</title>
<g id="a_edge10_Node000009_Node000010"><a xlink:title=" ">
<path fill="none" stroke="#63b8ff" d="M731.13,-120.99C757.22,-111.14 791.78,-98.1 816.73,-88.68"/>
<polygon fill="#63b8ff" stroke="#63b8ff" points="817.99,-91.94 826.11,-85.14 815.52,-85.4 817.99,-91.94"/>
</a>
</g>
</g>
<!-- Node11&#45;&gt;Node4 -->
<g id="edge15_Node000011_Node000004" class="edge">
<title>Node11&#45;&gt;Node4</title>
<g id="a_edge15_Node000011_Node000004"><a xlink:title=" ">
<path fill="none" stroke="#63b8ff" d="M413.3,-126.47C424.42,-124.66 436.1,-122.77 447,-121 546.1,-104.93 571.53,-104.55 670,-85 671.28,-84.75 672.57,-84.48 673.89,-84.2"/>
<polygon fill="#63b8ff" stroke="#63b8ff" points="674.97,-87.55 683.97,-81.97 673.45,-80.72 674.97,-87.55"/>
</a>
</g>
</g>
<!-- Node12 -->
<g id="Node000012" class="node">
<title>Node12</title>
<g id="a_Node000012"><a xlink:title=" ">
<polygon fill="#e0e0e0" stroke="#999999" points="468,-85 404,-85 404,-66 468,-66 468,-85"/>
<text text-anchor="middle" x="436" y="-73" font-family="Helvetica,sans-Serif" font-size="10.00">algorithm</text>
</a>
</g>
</g>
<!-- Node11&#45;&gt;Node12 -->
<g id="edge12_Node000011_Node000012" class="edge">
<title>Node11&#45;&gt;Node12</title>
<g id="a_edge12_Node000011_Node000012"><a xlink:title=" ">
<path fill="none" stroke="#63b8ff" d="M372.07,-126.37C383.81,-117.21 402.59,-102.56 416.76,-91.51"/>
<polygon fill="#63b8ff" stroke="#63b8ff" points="419.16,-94.08 424.89,-85.17 414.85,-88.56 419.16,-94.08"/>
</a>
</g>
</g>
<!-- Node13 -->
<g id="Node000013" class="node">
<title>Node13</title>
<g id="a_Node000013"><a xlink:title=" ">
<polygon fill="#e0e0e0" stroke="#999999" points="683,-24.5 627,-24.5 627,-5.5 683,-5.5 683,-24.5"/>
<text text-anchor="middle" x="655" y="-12.5" font-family="Helvetica,sans-Serif" font-size="10.00">optional</text>
</a>
</g>
</g>
<!-- Node11&#45;&gt;Node13 -->
<g id="edge13_Node000011_Node000013" class="edge">
<title>Node11&#45;&gt;Node13</title>
<g id="a_edge13_Node000011_Node000013"><a xlink:title=" ">
<path fill="none" stroke="#63b8ff" d="M411.96,-126.48C490.57,-113.23 632.87,-88.83 637,-85 650.74,-72.27 654.52,-50.49 655.32,-34.8"/>
<polygon fill="#63b8ff" stroke="#63b8ff" points="658.83,-34.72 655.48,-24.67 651.83,-34.62 658.83,-34.72"/>
</a>
</g>
</g>
<!-- Node14 -->
<g id="Node000014" class="node">
<title>Node14</title>
<g id="a_Node000014"><a xlink:title=" ">
<polygon fill="#e0e0e0" stroke="#999999" points="386,-85 336,-85 336,-66 386,-66 386,-85"/>
<text text-anchor="middle" x="361" y="-73" font-family="Helvetica,sans-Serif" font-size="10.00">ranges</text>
</a>
</g>
</g>
<!-- Node11&#45;&gt;Node14 -->
<g id="edge14_Node000011_Node000014" class="edge">
<title>Node11&#45;&gt;Node14</title>
<g id="a_edge14_Node000011_Node000014"><a xlink:title=" ">
<path fill="none" stroke="#63b8ff" d="M361,-126.37C361,-118.25 361,-105.81 361,-95.39"/>
<polygon fill="#63b8ff" stroke="#63b8ff" points="364.5,-95.17 361,-85.17 357.5,-95.17 364.5,-95.17"/>
</a>
</g>
</g>
<!-- Node15 -->
<g id="Node000015" class="node">
<title>Node15</title>
<g id="a_Node000015"><a xlink:title=" ">
<polygon fill="#e0e0e0" stroke="#999999" points="317.5,-24.5 270.5,-24.5 270.5,-5.5 317.5,-5.5 317.5,-24.5"/>
<text text-anchor="middle" x="294" y="-12.5" font-family="Helvetica,sans-Serif" font-size="10.00">vector</text>
</a>
</g>
</g>
<!-- Node11&#45;&gt;Node15 -->
<g id="edge16_Node000011_Node000015" class="edge">
<title>Node11&#45;&gt;Node15</title>
<g id="a_edge16_Node000011_Node000015"><a xlink:title=" ">
<path fill="none" stroke="#63b8ff" d="M354.57,-126.41C347.4,-116.65 335.68,-100.11 327,-85 317.4,-68.3 308.09,-48.38 301.82,-34.24"/>
<polygon fill="#63b8ff" stroke="#63b8ff" points="304.87,-32.48 297.66,-24.71 298.45,-35.28 304.87,-32.48"/>
</a>
</g>
</g>
<!-- Node16 -->
<g id="Node000016" class="node">
<title>Node16</title>
<g id="a_Node000016"><a xlink:href="transform_8h.html" target="_top" xlink:title=" ">
<polygon fill="white" stroke="#666666" points="628,-85 486,-85 486,-66 628,-66 628,-85"/>
<text text-anchor="middle" x="557" y="-73" font-family="Helvetica,sans-Serif" font-size="10.00">engine/public/transform.h</text>
</a>
</g>
</g>
<!-- Node11&#45;&gt;Node16 -->
<g id="edge17_Node000011_Node000016" class="edge">
<title>Node11&#45;&gt;Node16</title>
<g id="a_edge17_Node000011_Node000016"><a xlink:title=" ">
<path fill="none" stroke="#63b8ff" d="M389.5,-126.49C423.61,-116.31 480.87,-99.22 518.79,-87.9"/>
<polygon fill="#63b8ff" stroke="#63b8ff" points="519.88,-91.23 528.47,-85.02 517.88,-84.52 519.88,-91.23"/>
</a>
</g>
</g>
<!-- Node11&#45;&gt;Node18 -->
<g id="edge21_Node000011_Node000018" class="edge">
<title>Node11&#45;&gt;Node18</title>
<g id="a_edge21_Node000011_Node000018"><a xlink:title=" ">
<path fill="none" stroke="#63b8ff" d="M338.46,-126.49C312.06,-116.53 268.12,-99.95 238.15,-88.63"/>
<polygon fill="#63b8ff" stroke="#63b8ff" points="239.16,-85.27 228.57,-85.02 236.69,-91.82 239.16,-85.27"/>
</a>
</g>
</g>
<!-- Node16&#45;&gt;Node3 -->
<g id="edge18_Node000016_Node000003" class="edge">
<title>Node16&#45;&gt;Node3</title>
<g id="a_edge18_Node000016_Node000003"><a xlink:title=" ">
<path fill="none" stroke="#63b8ff" d="M485.79,-66.75C376.81,-54.83 179.53,-33.08 164,-30 159.9,-29.19 155.64,-28.2 151.43,-27.13"/>
<polygon fill="#63b8ff" stroke="#63b8ff" points="152.33,-23.74 141.76,-24.51 150.5,-30.5 152.33,-23.74"/>
</a>
</g>
</g>
<!-- Node16&#45;&gt;Node13 -->
<g id="edge19_Node000016_Node000013" class="edge">
<title>Node16&#45;&gt;Node13</title>
<g id="a_edge19_Node000016_Node000013"><a xlink:title=" ">
<path fill="none" stroke="#63b8ff" d="M571.46,-65.87C587.31,-56.41 612.97,-41.09 631.68,-29.92"/>
<polygon fill="#63b8ff" stroke="#63b8ff" points="633.69,-32.8 640.48,-24.67 630.1,-26.79 633.69,-32.8"/>
</a>
</g>
</g>
<!-- Node17 -->
<g id="Node000017" class="node">
<title>Node17</title>
<g id="a_Node000017"><a xlink:href="vector3_8h.html" target="_top" xlink:title=" ">
<polygon fill="white" stroke="#666666" points="607.5,-30 506.5,-30 506.5,0 607.5,0 607.5,-30"/>
<text text-anchor="start" x="514.5" y="-18" font-family="Helvetica,sans-Serif" font-size="10.00">engine/public/util</text>
<text text-anchor="middle" x="557" y="-7" font-family="Helvetica,sans-Serif" font-size="10.00">/vector3.h</text>
</a>
</g>
</g>
<!-- Node16&#45;&gt;Node17 -->
<g id="edge20_Node000016_Node000017" class="edge">
<title>Node16&#45;&gt;Node17</title>
<g id="a_edge20_Node000016_Node000017"><a xlink:title=" ">
<path fill="none" stroke="#63b8ff" d="M557,-65.87C557,-59.11 557,-49.35 557,-40.26"/>
<polygon fill="#63b8ff" stroke="#63b8ff" points="560.5,-40.11 557,-30.11 553.5,-40.11 560.5,-40.11"/>
</a>
</g>
</g>
<!-- Node18&#45;&gt;Node3 -->
<g id="edge23_Node000018_Node000003" class="edge">
<title>Node18&#45;&gt;Node3</title>
<g id="a_edge23_Node000018_Node000003"><a xlink:title=" ">
<path fill="none" stroke="#63b8ff" d="M192.57,-65.87C177.92,-56.45 154.24,-41.23 136.9,-30.08"/>
<polygon fill="#63b8ff" stroke="#63b8ff" points="138.79,-27.13 128.48,-24.67 135,-33.02 138.79,-27.13"/>
</a>
</g>
</g>
<!-- Node18&#45;&gt;Node13 -->
<g id="edge24_Node000018_Node000013" class="edge">
<title>Node18&#45;&gt;Node13</title>
<g id="a_edge24_Node000018_Node000013"><a xlink:title=" ">
<path fill="none" stroke="#63b8ff" d="M280.54,-68.54C380.92,-60.14 554.08,-44.26 616,-30 618.67,-29.39 621.41,-28.64 624.13,-27.83"/>
<polygon fill="#63b8ff" stroke="#63b8ff" points="625.42,-31.09 633.82,-24.63 623.22,-24.44 625.42,-31.09"/>
</a>
</g>
</g>
<!-- Node18&#45;&gt;Node15 -->
<g id="edge25_Node000018_Node000015" class="edge">
<title>Node18&#45;&gt;Node15</title>
<g id="a_edge25_Node000018_Node000015"><a xlink:title=" ">
<path fill="none" stroke="#63b8ff" d="M218.98,-65.87C233.02,-56.54 255.63,-41.51 272.36,-30.38"/>
<polygon fill="#63b8ff" stroke="#63b8ff" points="274.57,-33.12 280.96,-24.67 270.7,-27.29 274.57,-33.12"/>
</a>
</g>
</g>
<!-- Node19 -->
<g id="Node000019" class="node">
<title>Node19</title>
<g id="a_Node000019"><a xlink:title=" ">
<polygon fill="#e0e0e0" stroke="#999999" points="238.5,-24.5 173.5,-24.5 173.5,-5.5 238.5,-5.5 238.5,-24.5"/>
<text text-anchor="middle" x="206" y="-12.5" font-family="Helvetica,sans-Serif" font-size="10.00">functional</text>
</a>
</g>
</g>
<!-- Node18&#45;&gt;Node19 -->
<g id="edge22_Node000018_Node000019" class="edge">
<title>Node18&#45;&gt;Node19</title>
<g id="a_edge22_Node000018_Node000019"><a xlink:title=" ">
<path fill="none" stroke="#63b8ff" d="M206,-65.87C206,-57.75 206,-45.31 206,-34.89"/>
<polygon fill="#63b8ff" stroke="#63b8ff" points="209.5,-34.67 206,-24.67 202.5,-34.67 209.5,-34.67"/>
</a>
</g>
</g>
<!-- Node21 -->
<g id="Node000021" class="node">
<title>Node21</title>
<g id="a_Node000021"><a xlink:title=" ">
<polygon fill="#e0e0e0" stroke="#999999" points="806,-85 746,-85 746,-66 806,-66 806,-85"/>
<text text-anchor="middle" x="776" y="-73" font-family="Helvetica,sans-Serif" font-size="10.00">concepts</text>
</a>
</g>
</g>
<!-- Node20&#45;&gt;Node21 -->
<g id="edge27_Node000020_Node000021" class="edge">
<title>Node20&#45;&gt;Node21</title>
<g id="a_edge27_Node000020_Node000021"><a xlink:title=" ">
<path fill="none" stroke="#63b8ff" d="M570.04,-126.49C614.1,-115.8 689.56,-97.48 735.88,-86.24"/>
<polygon fill="#63b8ff" stroke="#63b8ff" points="736.97,-89.58 745.86,-83.81 735.32,-82.77 736.97,-89.58"/>
</a>
</g>
</g>
<!-- Node22&#45;&gt;Node13 -->
<g id="edge29_Node000022_Node000013" class="edge">
<title>Node22&#45;&gt;Node13</title>
<g id="a_edge29_Node000022_Node000013"><a xlink:title=" ">
<path fill="none" stroke="#63b8ff" d="M856.36,-120.84C875.23,-106.6 897.63,-84.19 883,-66 859.58,-36.88 751.57,-23.77 693.01,-18.71"/>
<polygon fill="#63b8ff" stroke="#63b8ff" points="693.28,-15.22 683.02,-17.89 692.7,-22.2 693.28,-15.22"/>
</a>
</g>
</g>
</g>
</svg>
