<?xml version="1.0" encoding="UTF-8" standalone="no"?>
<!DOCTYPE svg PUBLIC "-//W3C//DTD SVG 1.1//EN"
 "http://www.w3.org/Graphics/SVG/1.1/DTD/svg11.dtd">
<!-- Generated by graphviz version 2.43.0 (0)
 -->
<!-- Title: include/engine/audio/sound/resource/sound_resource.h Pages: 1 -->
<svg width="586pt" height="203pt"
 viewBox="0.00 0.00 586.00 203.00" xmlns="http://www.w3.org/2000/svg" xmlns:xlink="http://www.w3.org/1999/xlink">
<g id="graph0" class="graph" transform="scale(1 1) rotate(0) translate(4 199)">
<title>include/engine/audio/sound/resource/sound_resource.h</title>
<!-- Node1 -->
<g id="Node000001" class="node">
<title>Node1</title>
<g id="a_Node000001"><a xlink:title=" ">
<polygon fill="#999999" stroke="#666666" points="345,-195 219,-195 219,-154 345,-154 345,-195"/>
<text text-anchor="start" x="227" y="-183" font-family="Helvetica,sans-Serif" font-size="10.00">include/engine/audio</text>
<text text-anchor="start" x="227" y="-172" font-family="Helvetica,sans-Serif" font-size="10.00">/sound/resource/sound</text>
<text text-anchor="middle" x="282" y="-161" font-family="Helvetica,sans-Serif" font-size="10.00">_resource.h</text>
</a>
</g>
</g>
<!-- Node2 -->
<g id="Node000002" class="node">
<title>Node2</title>
<g id="a_Node000002"><a xlink:href="audio__service_8h.html" target="_top" xlink:title=" ">
<polygon fill="white" stroke="#666666" points="118,-35.5 0,-35.5 0,-5.5 118,-5.5 118,-35.5"/>
<text text-anchor="start" x="8" y="-23.5" font-family="Helvetica,sans-Serif" font-size="10.00">include/engine/audio</text>
<text text-anchor="middle" x="59" y="-12.5" font-family="Helvetica,sans-Serif" font-size="10.00">/audio_service.h</text>
</a>
</g>
</g>
<!-- Node1&#45;&gt;Node2 -->
<g id="edge1_Node000001_Node000002" class="edge">
<title>Node1&#45;&gt;Node2</title>
<g id="a_edge1_Node000001_Node000002"><a xlink:title=" ">
<path fill="none" stroke="#63b8ff" d="M209,-155.35C183.39,-146.73 155.44,-134.59 133,-118 102.27,-95.28 78,-56.45 66.42,-35.65"/>
<polygon fill="#63b8ff" stroke="#63b8ff" points="208.09,-158.73 218.68,-158.48 210.25,-152.07 208.09,-158.73"/>
</a>
</g>
</g>
<!-- Node3 -->
<g id="Node000003" class="node">
<title>Node3</title>
<g id="a_Node000003"><a xlink:href="sound__instance_8h.html" target="_top" xlink:title=" ">
<polygon fill="white" stroke="#666666" points="267.5,-118 142.5,-118 142.5,-77 267.5,-77 267.5,-118"/>
<text text-anchor="start" x="150.5" y="-106" font-family="Helvetica,sans-Serif" font-size="10.00">include/engine/audio</text>
<text text-anchor="start" x="150.5" y="-95" font-family="Helvetica,sans-Serif" font-size="10.00">/sound/instance/sound</text>
<text text-anchor="middle" x="205" y="-84" font-family="Helvetica,sans-Serif" font-size="10.00">_instance.h</text>
</a>
</g>
</g>
<!-- Node1&#45;&gt;Node3 -->
<g id="edge2_Node000001_Node000003" class="edge">
<title>Node1&#45;&gt;Node3</title>
<g id="a_edge2_Node000001_Node000003"><a xlink:title=" ">
<path fill="none" stroke="#63b8ff" d="M254.58,-146.79C244.85,-137.32 234.1,-126.84 225.1,-118.07"/>
<polygon fill="#63b8ff" stroke="#63b8ff" points="252.16,-149.32 261.77,-153.79 257.05,-144.31 252.16,-149.32"/>
</a>
</g>
</g>
<!-- Node6 -->
<g id="Node000006" class="node">
<title>Node6</title>
<g id="a_Node000006"><a xlink:href="sound__factory_8h.html" target="_top" xlink:title=" ">
<polygon fill="white" stroke="#666666" points="578,-35.5 450,-35.5 450,-5.5 578,-5.5 578,-35.5"/>
<text text-anchor="start" x="458" y="-23.5" font-family="Helvetica,sans-Serif" font-size="10.00">include/engine/audio</text>
<text text-anchor="middle" x="514" y="-12.5" font-family="Helvetica,sans-Serif" font-size="10.00">/sound/sound_factory.h</text>
</a>
</g>
</g>
<!-- Node1&#45;&gt;Node6 -->
<g id="edge9_Node000001_Node000006" class="edge">
<title>Node1&#45;&gt;Node6</title>
<g id="a_edge9_Node000001_Node000006"><a xlink:title=" ">
<path fill="none" stroke="#63b8ff" d="M355.27,-157.68C383.85,-149.11 415.74,-136.4 441,-118 471.73,-95.61 495.5,-56.64 506.79,-35.73"/>
<polygon fill="#63b8ff" stroke="#63b8ff" points="353.96,-154.41 345.32,-160.53 355.9,-161.14 353.96,-154.41"/>
</a>
</g>
</g>
<!-- Node7 -->
<g id="Node000007" class="node">
<title>Node7</title>
<g id="a_Node000007"><a xlink:href="sdl__sound__resource_8h.html" target="_top" xlink:title=" ">
<polygon fill="white" stroke="#666666" points="432,-118 286,-118 286,-77 432,-77 432,-118"/>
<text text-anchor="start" x="294" y="-106" font-family="Helvetica,sans-Serif" font-size="10.00">include/engine/audio</text>
<text text-anchor="start" x="294" y="-95" font-family="Helvetica,sans-Serif" font-size="10.00">/sound/resource/sdl_sound</text>
<text text-anchor="middle" x="359" y="-84" font-family="Helvetica,sans-Serif" font-size="10.00">_resource.h</text>
</a>
</g>
</g>
<!-- Node1&#45;&gt;Node7 -->
<g id="edge7_Node000001_Node000007" class="edge">
<title>Node1&#45;&gt;Node7</title>
<g id="a_edge7_Node000001_Node000007"><a xlink:title=" ">
<path fill="none" stroke="#63b8ff" d="M309.42,-146.79C319.15,-137.32 329.9,-126.84 338.9,-118.07"/>
<polygon fill="#63b8ff" stroke="#63b8ff" points="306.95,-144.31 302.23,-153.79 311.84,-149.32 306.95,-144.31"/>
</a>
</g>
</g>
<!-- Node3&#45;&gt;Node2 -->
<g id="edge3_Node000003_Node000002" class="edge">
<title>Node3&#45;&gt;Node2</title>
<g id="a_edge3_Node000003_Node000002"><a xlink:title=" ">
<path fill="none" stroke="#63b8ff" d="M157.9,-72.3C134.37,-60.22 106.72,-46.01 86.64,-35.7"/>
<polygon fill="#63b8ff" stroke="#63b8ff" points="156.53,-75.53 167.02,-76.99 159.73,-69.31 156.53,-75.53"/>
</a>
</g>
</g>
<!-- Node4 -->
<g id="Node000004" class="node">
<title>Node4</title>
<g id="a_Node000004"><a xlink:href="generic__sound__instance_8h.html" target="_top" xlink:title=" ">
<polygon fill="white" stroke="#666666" points="268,-41 136,-41 136,0 268,0 268,-41"/>
<text text-anchor="start" x="144" y="-29" font-family="Helvetica,sans-Serif" font-size="10.00">include/engine/audio</text>
<text text-anchor="start" x="144" y="-18" font-family="Helvetica,sans-Serif" font-size="10.00">/sound/instance/generic</text>
<text text-anchor="middle" x="202" y="-7" font-family="Helvetica,sans-Serif" font-size="10.00">_sound_instance.h</text>
</a>
</g>
</g>
<!-- Node3&#45;&gt;Node4 -->
<g id="edge4_Node000003_Node000004" class="edge">
<title>Node3&#45;&gt;Node4</title>
<g id="a_edge4_Node000003_Node000004"><a xlink:title=" ">
<path fill="none" stroke="#63b8ff" d="M203.81,-66.69C203.46,-58.08 203.1,-48.9 202.78,-41.07"/>
<polygon fill="#63b8ff" stroke="#63b8ff" points="200.31,-66.94 204.21,-76.79 207.31,-66.66 200.31,-66.94"/>
</a>
</g>
</g>
<!-- Node5 -->
<g id="Node000005" class="node">
<title>Node5</title>
<g id="a_Node000005"><a xlink:href="sdl__sound__instance_8h.html" target="_top" xlink:title=" ">
<polygon fill="white" stroke="#666666" points="431.5,-41 286.5,-41 286.5,0 431.5,0 431.5,-41"/>
<text text-anchor="start" x="294.5" y="-29" font-family="Helvetica,sans-Serif" font-size="10.00">include/engine/audio</text>
<text text-anchor="start" x="294.5" y="-18" font-family="Helvetica,sans-Serif" font-size="10.00">/sound/instance/sdl_sound</text>
<text text-anchor="middle" x="359" y="-7" font-family="Helvetica,sans-Serif" font-size="10.00">_instance.h</text>
</a>
</g>
</g>
<!-- Node3&#45;&gt;Node5 -->
<g id="edge5_Node000003_Node000005" class="edge">
<title>Node3&#45;&gt;Node5</title>
<g id="a_edge5_Node000003_Node000005"><a xlink:title=" ">
<path fill="none" stroke="#63b8ff" d="M254.1,-72.59C275,-62.41 299.07,-50.69 318.87,-41.04"/>
<polygon fill="#63b8ff" stroke="#63b8ff" points="252.52,-69.47 245.06,-76.99 255.58,-75.76 252.52,-69.47"/>
</a>
</g>
</g>
<!-- Node3&#45;&gt;Node6 -->
<g id="edge6_Node000003_Node000006" class="edge">
<title>Node3&#45;&gt;Node6</title>
<g id="a_edge6_Node000003_Node000006"><a xlink:title=" ">
<path fill="none" stroke="#63b8ff" d="M277.53,-76.93C351.13,-59.16 371.46,-57.91 441,-41 448.01,-39.3 455.38,-37.42 462.63,-35.53"/>
<polygon fill="#63b8ff" stroke="#63b8ff" points="276.67,-73.54 267.78,-79.3 278.33,-80.34 276.67,-73.54"/>
</a>
</g>
</g>
<!-- Node7&#45;&gt;Node5 -->
<g id="edge8_Node000007_Node000005" class="edge">
<title>Node7&#45;&gt;Node5</title>
<g id="a_edge8_Node000007_Node000005"><a xlink:title=" ">
<path fill="none" stroke="#63b8ff" d="M359,-66.69C359,-58.08 359,-48.9 359,-41.07"/>
<polygon fill="#63b8ff" stroke="#63b8ff" points="355.5,-66.79 359,-76.79 362.5,-66.79 355.5,-66.79"/>
</a>
</g>
</g>
</g>
</svg>
