<?xml version="1.0" encoding="UTF-8" standalone="no"?>
<!DOCTYPE svg PUBLIC "-//W3C//DTD SVG 1.1//EN"
 "http://www.w3.org/Graphics/SVG/1.1/DTD/svg11.dtd">
<!-- Generated by graphviz version 2.43.0 (0)
 -->
<!-- Title: include/engine/audio/sound/sound_type.h Pages: 1 -->
<svg width="586pt" height="269pt"
 viewBox="0.00 0.00 586.00 269.00" xmlns="http://www.w3.org/2000/svg" xmlns:xlink="http://www.w3.org/1999/xlink">
<g id="graph0" class="graph" transform="scale(1 1) rotate(0) translate(4 265)">
<title>include/engine/audio/sound/sound_type.h</title>
<!-- Node1 -->
<g id="Node000001" class="node">
<title>Node1</title>
<g id="a_Node000001"><a xlink:title=" ">
<polygon fill="#999999" stroke="#666666" points="402,-261 284,-261 284,-231 402,-231 402,-261"/>
<text text-anchor="start" x="292" y="-249" font-family="Helvetica,sans-Serif" font-size="10.00">include/engine/audio</text>
<text text-anchor="middle" x="343" y="-238" font-family="Helvetica,sans-Serif" font-size="10.00">/sound/sound_type.h</text>
</a>
</g>
</g>
<!-- Node2 -->
<g id="Node000002" class="node">
<title>Node2</title>
<g id="a_Node000002"><a xlink:href="audio__service_8h.html" target="_top" xlink:title=" ">
<polygon fill="white" stroke="#666666" points="118,-35.5 0,-35.5 0,-5.5 118,-5.5 118,-35.5"/>
<text text-anchor="start" x="8" y="-23.5" font-family="Helvetica,sans-Serif" font-size="10.00">include/engine/audio</text>
<text text-anchor="middle" x="59" y="-12.5" font-family="Helvetica,sans-Serif" font-size="10.00">/audio_service.h</text>
</a>
</g>
</g>
<!-- Node1&#45;&gt;Node2 -->
<g id="edge1_Node000001_Node000002" class="edge">
<title>Node1&#45;&gt;Node2</title>
<g id="a_edge1_Node000001_Node000002"><a xlink:title=" ">
<path fill="none" stroke="#63b8ff" d="M273.98,-228.33C215.73,-210.67 134.61,-176.96 88,-118 68.58,-93.44 62.14,-56.04 60.02,-35.77"/>
<polygon fill="#63b8ff" stroke="#63b8ff" points="273.26,-231.77 283.84,-231.24 275.24,-225.06 273.26,-231.77"/>
</a>
</g>
</g>
<!-- Node3 -->
<g id="Node000003" class="node">
<title>Node3</title>
<g id="a_Node000003"><a xlink:href="sdl__sound__resource_8h.html" target="_top" xlink:title=" ">
<polygon fill="white" stroke="#666666" points="467,-118 321,-118 321,-77 467,-77 467,-118"/>
<text text-anchor="start" x="329" y="-106" font-family="Helvetica,sans-Serif" font-size="10.00">include/engine/audio</text>
<text text-anchor="start" x="329" y="-95" font-family="Helvetica,sans-Serif" font-size="10.00">/sound/resource/sdl_sound</text>
<text text-anchor="middle" x="394" y="-84" font-family="Helvetica,sans-Serif" font-size="10.00">_resource.h</text>
</a>
</g>
</g>
<!-- Node1&#45;&gt;Node3 -->
<g id="edge2_Node000001_Node000003" class="edge">
<title>Node1&#45;&gt;Node3</title>
<g id="a_edge2_Node000001_Node000003"><a xlink:title=" ">
<path fill="none" stroke="#63b8ff" d="M353.99,-221.64C357.71,-213.32 361.75,-203.83 365,-195 374.62,-168.9 383.48,-138 388.81,-118.32"/>
<polygon fill="#63b8ff" stroke="#63b8ff" points="350.8,-220.2 349.83,-230.75 357.16,-223.11 350.8,-220.2"/>
</a>
</g>
</g>
<!-- Node5 -->
<g id="Node000005" class="node">
<title>Node5</title>
<g id="a_Node000005"><a xlink:href="sound__resource_8h.html" target="_top" xlink:title=" ">
<polygon fill="white" stroke="#666666" points="356,-195 230,-195 230,-154 356,-154 356,-195"/>
<text text-anchor="start" x="238" y="-183" font-family="Helvetica,sans-Serif" font-size="10.00">include/engine/audio</text>
<text text-anchor="start" x="238" y="-172" font-family="Helvetica,sans-Serif" font-size="10.00">/sound/resource/sound</text>
<text text-anchor="middle" x="293" y="-161" font-family="Helvetica,sans-Serif" font-size="10.00">_resource.h</text>
</a>
</g>
</g>
<!-- Node1&#45;&gt;Node5 -->
<g id="edge4_Node000001_Node000005" class="edge">
<title>Node1&#45;&gt;Node5</title>
<g id="a_edge4_Node000001_Node000005"><a xlink:title=" ">
<path fill="none" stroke="#63b8ff" d="M326.88,-222.59C320.5,-213.73 313.24,-203.63 307.08,-195.07"/>
<polygon fill="#63b8ff" stroke="#63b8ff" points="324.2,-224.86 332.88,-230.94 329.88,-220.77 324.2,-224.86"/>
</a>
</g>
</g>
<!-- Node8 -->
<g id="Node000008" class="node">
<title>Node8</title>
<g id="a_Node000008"><a xlink:href="sound__factory_8h.html" target="_top" xlink:title=" ">
<polygon fill="white" stroke="#666666" points="578,-35.5 450,-35.5 450,-5.5 578,-5.5 578,-35.5"/>
<text text-anchor="start" x="458" y="-23.5" font-family="Helvetica,sans-Serif" font-size="10.00">include/engine/audio</text>
<text text-anchor="middle" x="514" y="-12.5" font-family="Helvetica,sans-Serif" font-size="10.00">/sound/sound_factory.h</text>
</a>
</g>
</g>
<!-- Node1&#45;&gt;Node8 -->
<g id="edge13_Node000001_Node000008" class="edge">
<title>Node1&#45;&gt;Node8</title>
<g id="a_edge13_Node000001_Node000008"><a xlink:title=" ">
<path fill="none" stroke="#63b8ff" d="M370.96,-224.35C400.52,-201.27 446.82,-161.41 476,-118 493.88,-91.4 505.27,-55.14 510.55,-35.51"/>
<polygon fill="#63b8ff" stroke="#63b8ff" points="368.52,-221.81 362.73,-230.68 372.79,-227.36 368.52,-221.81"/>
</a>
</g>
</g>
<!-- Node4 -->
<g id="Node000004" class="node">
<title>Node4</title>
<g id="a_Node000004"><a xlink:href="sdl__sound__instance_8h.html" target="_top" xlink:title=" ">
<polygon fill="white" stroke="#666666" points="431.5,-41 286.5,-41 286.5,0 431.5,0 431.5,-41"/>
<text text-anchor="start" x="294.5" y="-29" font-family="Helvetica,sans-Serif" font-size="10.00">include/engine/audio</text>
<text text-anchor="start" x="294.5" y="-18" font-family="Helvetica,sans-Serif" font-size="10.00">/sound/instance/sdl_sound</text>
<text text-anchor="middle" x="359" y="-7" font-family="Helvetica,sans-Serif" font-size="10.00">_instance.h</text>
</a>
</g>
</g>
<!-- Node3&#45;&gt;Node4 -->
<g id="edge3_Node000003_Node000004" class="edge">
<title>Node3&#45;&gt;Node4</title>
<g id="a_edge3_Node000003_Node000004"><a xlink:title=" ">
<path fill="none" stroke="#63b8ff" d="M380.49,-67.55C376.35,-58.69 371.91,-49.15 368.13,-41.07"/>
<polygon fill="#63b8ff" stroke="#63b8ff" points="377.4,-69.21 384.8,-76.79 383.75,-66.25 377.4,-69.21"/>
</a>
</g>
</g>
<!-- Node5&#45;&gt;Node2 -->
<g id="edge5_Node000005_Node000002" class="edge">
<title>Node5&#45;&gt;Node2</title>
<g id="a_edge5_Node000005_Node000002"><a xlink:title=" ">
<path fill="none" stroke="#63b8ff" d="M219.99,-158.81C190.11,-150.32 156.43,-137.37 130,-118 99.63,-95.75 76.71,-56.72 65.89,-35.77"/>
<polygon fill="#63b8ff" stroke="#63b8ff" points="219.39,-162.27 229.96,-161.52 221.22,-155.52 219.39,-162.27"/>
</a>
</g>
</g>
<!-- Node5&#45;&gt;Node3 -->
<g id="edge11_Node000005_Node000003" class="edge">
<title>Node5&#45;&gt;Node3</title>
<g id="a_edge11_Node000005_Node000003"><a xlink:title=" ">
<path fill="none" stroke="#63b8ff" d="M327.59,-147.82C340.65,-138.11 355.3,-127.24 367.51,-118.17"/>
<polygon fill="#63b8ff" stroke="#63b8ff" points="325.21,-145.22 319.27,-153.99 329.39,-150.84 325.21,-145.22"/>
</a>
</g>
</g>
<!-- Node6 -->
<g id="Node000006" class="node">
<title>Node6</title>
<g id="a_Node000006"><a xlink:href="sound__instance_8h.html" target="_top" xlink:title=" ">
<polygon fill="white" stroke="#666666" points="264.5,-118 139.5,-118 139.5,-77 264.5,-77 264.5,-118"/>
<text text-anchor="start" x="147.5" y="-106" font-family="Helvetica,sans-Serif" font-size="10.00">include/engine/audio</text>
<text text-anchor="start" x="147.5" y="-95" font-family="Helvetica,sans-Serif" font-size="10.00">/sound/instance/sound</text>
<text text-anchor="middle" x="202" y="-84" font-family="Helvetica,sans-Serif" font-size="10.00">_instance.h</text>
</a>
</g>
</g>
<!-- Node5&#45;&gt;Node6 -->
<g id="edge6_Node000005_Node000006" class="edge">
<title>Node5&#45;&gt;Node6</title>
<g id="a_edge6_Node000005_Node000006"><a xlink:title=" ">
<path fill="none" stroke="#63b8ff" d="M261.27,-147.35C249.6,-137.73 236.6,-127.01 225.75,-118.07"/>
<polygon fill="#63b8ff" stroke="#63b8ff" points="259.15,-150.14 269.09,-153.79 263.6,-144.73 259.15,-150.14"/>
</a>
</g>
</g>
<!-- Node5&#45;&gt;Node8 -->
<g id="edge12_Node000005_Node000008" class="edge">
<title>Node5&#45;&gt;Node8</title>
<g id="a_edge12_Node000005_Node000008"><a xlink:title=" ">
<path fill="none" stroke="#63b8ff" d="M291.13,-143.71C291.46,-122.52 295.5,-94.77 312,-77 313.32,-75.58 402.22,-51.5 461.63,-35.53"/>
<polygon fill="#63b8ff" stroke="#63b8ff" points="287.63,-143.84 291.24,-153.81 294.63,-143.77 287.63,-143.84"/>
</a>
</g>
</g>
<!-- Node6&#45;&gt;Node2 -->
<g id="edge7_Node000006_Node000002" class="edge">
<title>Node6&#45;&gt;Node2</title>
<g id="a_edge7_Node000006_Node000002"><a xlink:title=" ">
<path fill="none" stroke="#63b8ff" d="M155.86,-72.3C132.82,-60.22 105.74,-46.01 86.07,-35.7"/>
<polygon fill="#63b8ff" stroke="#63b8ff" points="154.32,-75.45 164.8,-76.99 157.57,-69.25 154.32,-75.45"/>
</a>
</g>
</g>
<!-- Node6&#45;&gt;Node4 -->
<g id="edge9_Node000006_Node000004" class="edge">
<title>Node6&#45;&gt;Node4</title>
<g id="a_edge9_Node000006_Node000004"><a xlink:title=" ">
<path fill="none" stroke="#63b8ff" d="M252.06,-72.59C273.37,-62.41 297.9,-50.69 318.09,-41.04"/>
<polygon fill="#63b8ff" stroke="#63b8ff" points="250.35,-69.52 242.84,-76.99 253.37,-75.84 250.35,-69.52"/>
</a>
</g>
</g>
<!-- Node7 -->
<g id="Node000007" class="node">
<title>Node7</title>
<g id="a_Node000007"><a xlink:href="generic__sound__instance_8h.html" target="_top" xlink:title=" ">
<polygon fill="white" stroke="#666666" points="268,-41 136,-41 136,0 268,0 268,-41"/>
<text text-anchor="start" x="144" y="-29" font-family="Helvetica,sans-Serif" font-size="10.00">include/engine/audio</text>
<text text-anchor="start" x="144" y="-18" font-family="Helvetica,sans-Serif" font-size="10.00">/sound/instance/generic</text>
<text text-anchor="middle" x="202" y="-7" font-family="Helvetica,sans-Serif" font-size="10.00">_sound_instance.h</text>
</a>
</g>
</g>
<!-- Node6&#45;&gt;Node7 -->
<g id="edge8_Node000006_Node000007" class="edge">
<title>Node6&#45;&gt;Node7</title>
<g id="a_edge8_Node000006_Node000007"><a xlink:title=" ">
<path fill="none" stroke="#63b8ff" d="M202,-66.69C202,-58.08 202,-48.9 202,-41.07"/>
<polygon fill="#63b8ff" stroke="#63b8ff" points="198.5,-66.79 202,-76.79 205.5,-66.79 198.5,-66.79"/>
</a>
</g>
</g>
<!-- Node6&#45;&gt;Node8 -->
<g id="edge10_Node000006_Node000008" class="edge">
<title>Node6&#45;&gt;Node8</title>
<g id="a_edge10_Node000006_Node000008"><a xlink:title=" ">
<path fill="none" stroke="#63b8ff" d="M274.56,-78.06C276.05,-77.7 277.53,-77.35 279,-77 350.76,-59.94 369.36,-58.52 441,-41 448.01,-39.29 455.37,-37.41 462.62,-35.52"/>
<polygon fill="#63b8ff" stroke="#63b8ff" points="273.47,-74.73 264.58,-80.49 275.12,-81.53 273.47,-74.73"/>
</a>
</g>
</g>
</g>
</svg>
