<?xml version="1.0" encoding="UTF-8" standalone="no"?>
<!DOCTYPE svg PUBLIC "-//W3C//DTD SVG 1.1//EN"
 "http://www.w3.org/Graphics/SVG/1.1/DTD/svg11.dtd">
<!-- Generated by graphviz version 2.43.0 (0)
 -->
<!-- Title: include/engine/audio/sound/sound_type.h Pages: 1 -->
<svg width="760pt" height="269pt"
 viewBox="0.00 0.00 760.00 269.00" xmlns="http://www.w3.org/2000/svg" xmlns:xlink="http://www.w3.org/1999/xlink">
<g id="graph0" class="graph" transform="scale(1 1) rotate(0) translate(4 265)">
<title>include/engine/audio/sound/sound_type.h</title>
<!-- Node1 -->
<g id="Node000001" class="node">
<title>Node1</title>
<g id="a_Node000001"><a xlink:title=" ">
<polygon fill="#999999" stroke="#666666" points="323,-261 205,-261 205,-231 323,-231 323,-261"/>
<text text-anchor="start" x="213" y="-249" font-family="Helvetica,sans-Serif" font-size="10.00">include/engine/audio</text>
<text text-anchor="middle" x="264" y="-238" font-family="Helvetica,sans-Serif" font-size="10.00">/sound/sound_type.h</text>
</a>
</g>
</g>
<!-- Node2 -->
<g id="Node000002" class="node">
<title>Node2</title>
<g id="a_Node000002"><a xlink:href="audio__service_8h.html" target="_top" xlink:title=" ">
<polygon fill="white" stroke="#666666" points="118,-35.5 0,-35.5 0,-5.5 118,-5.5 118,-35.5"/>
<text text-anchor="start" x="8" y="-23.5" font-family="Helvetica,sans-Serif" font-size="10.00">include/engine/audio</text>
<text text-anchor="middle" x="59" y="-12.5" font-family="Helvetica,sans-Serif" font-size="10.00">/audio_service.h</text>
</a>
</g>
</g>
<!-- Node1&#45;&gt;Node2 -->
<g id="edge1_Node000001_Node000002" class="edge">
<title>Node1&#45;&gt;Node2</title>
<g id="a_edge1_Node000001_Node000002"><a xlink:title=" ">
<path fill="none" stroke="#63b8ff" d="M238.54,-224.22C209.84,-200.17 162.56,-158.66 127,-118 103.12,-90.69 79.75,-55.02 67.61,-35.6"/>
<polygon fill="#63b8ff" stroke="#63b8ff" points="236.54,-227.1 246.46,-230.81 241.01,-221.72 236.54,-227.1"/>
</a>
</g>
</g>
<!-- Node3 -->
<g id="Node000003" class="node">
<title>Node3</title>
<g id="a_Node000003"><a xlink:href="sdl__sound__resource_8h.html" target="_top" xlink:title=" ">
<polygon fill="white" stroke="#666666" points="282,-118 136,-118 136,-77 282,-77 282,-118"/>
<text text-anchor="start" x="144" y="-106" font-family="Helvetica,sans-Serif" font-size="10.00">include/engine/audio</text>
<text text-anchor="start" x="144" y="-95" font-family="Helvetica,sans-Serif" font-size="10.00">/sound/resource/sdl_sound</text>
<text text-anchor="middle" x="209" y="-84" font-family="Helvetica,sans-Serif" font-size="10.00">_resource.h</text>
</a>
</g>
</g>
<!-- Node1&#45;&gt;Node3 -->
<g id="edge2_Node000001_Node000003" class="edge">
<title>Node1&#45;&gt;Node3</title>
<g id="a_edge2_Node000001_Node000003"><a xlink:title=" ">
<path fill="none" stroke="#63b8ff" d="M255.12,-221.34C244.37,-192.71 226.47,-145.03 216.42,-118.27"/>
<polygon fill="#63b8ff" stroke="#63b8ff" points="251.93,-222.82 258.73,-230.95 258.49,-220.36 251.93,-222.82"/>
</a>
</g>
</g>
<!-- Node5 -->
<g id="Node000005" class="node">
<title>Node5</title>
<g id="a_Node000005"><a xlink:href="sound__resource_8h.html" target="_top" xlink:title=" ">
<polygon fill="white" stroke="#666666" points="418,-195 292,-195 292,-154 418,-154 418,-195"/>
<text text-anchor="start" x="300" y="-183" font-family="Helvetica,sans-Serif" font-size="10.00">include/engine/audio</text>
<text text-anchor="start" x="300" y="-172" font-family="Helvetica,sans-Serif" font-size="10.00">/sound/resource/sound</text>
<text text-anchor="middle" x="355" y="-161" font-family="Helvetica,sans-Serif" font-size="10.00">_resource.h</text>
</a>
</g>
</g>
<!-- Node1&#45;&gt;Node5 -->
<g id="edge4_Node000001_Node000005" class="edge">
<title>Node1&#45;&gt;Node5</title>
<g id="a_edge4_Node000001_Node000005"><a xlink:title=" ">
<path fill="none" stroke="#63b8ff" d="M290.48,-224.77C302.73,-215.42 317.23,-204.35 329.37,-195.07"/>
<polygon fill="#63b8ff" stroke="#63b8ff" points="288.24,-222.08 282.42,-230.94 292.49,-227.65 288.24,-222.08"/>
</a>
</g>
</g>
<!-- Node8 -->
<g id="Node000008" class="node">
<title>Node8</title>
<g id="a_Node000008"><a xlink:href="sound__factory_8h.html" target="_top" xlink:title=" ">
<polygon fill="white" stroke="#666666" points="752,-35.5 624,-35.5 624,-5.5 752,-5.5 752,-35.5"/>
<text text-anchor="start" x="632" y="-23.5" font-family="Helvetica,sans-Serif" font-size="10.00">include/engine/audio</text>
<text text-anchor="middle" x="688" y="-12.5" font-family="Helvetica,sans-Serif" font-size="10.00">/sound/sound_factory.h</text>
</a>
</g>
</g>
<!-- Node1&#45;&gt;Node8 -->
<g id="edge15_Node000001_Node000008" class="edge">
<title>Node1&#45;&gt;Node8</title>
<g id="a_edge15_Node000001_Node000008"><a xlink:title=" ">
<path fill="none" stroke="#63b8ff" d="M331.3,-228.18C361.19,-219.74 396.45,-208.44 427,-195 527.35,-150.84 631.43,-68.71 671.19,-35.74"/>
<polygon fill="#63b8ff" stroke="#63b8ff" points="330.08,-224.89 321.38,-230.93 331.95,-231.63 330.08,-224.89"/>
</a>
</g>
</g>
<!-- Node4 -->
<g id="Node000004" class="node">
<title>Node4</title>
<g id="a_Node000004"><a xlink:href="sdl__sound__instance_8h.html" target="_top" xlink:title=" ">
<polygon fill="white" stroke="#666666" points="281.5,-41 136.5,-41 136.5,0 281.5,0 281.5,-41"/>
<text text-anchor="start" x="144.5" y="-29" font-family="Helvetica,sans-Serif" font-size="10.00">include/engine/audio</text>
<text text-anchor="start" x="144.5" y="-18" font-family="Helvetica,sans-Serif" font-size="10.00">/sound/instance/sdl_sound</text>
<text text-anchor="middle" x="209" y="-7" font-family="Helvetica,sans-Serif" font-size="10.00">_instance.h</text>
</a>
</g>
</g>
<!-- Node3&#45;&gt;Node4 -->
<g id="edge3_Node000003_Node000004" class="edge">
<title>Node3&#45;&gt;Node4</title>
<g id="a_edge3_Node000003_Node000004"><a xlink:title=" ">
<path fill="none" stroke="#63b8ff" d="M209,-66.69C209,-58.08 209,-48.9 209,-41.07"/>
<polygon fill="#63b8ff" stroke="#63b8ff" points="205.5,-66.79 209,-76.79 212.5,-66.79 205.5,-66.79"/>
</a>
</g>
</g>
<!-- Node5&#45;&gt;Node2 -->
<g id="edge5_Node000005_Node000002" class="edge">
<title>Node5&#45;&gt;Node2</title>
<g id="a_edge5_Node000005_Node000002"><a xlink:title=" ">
<path fill="none" stroke="#63b8ff" d="M343.19,-144.7C332.71,-122.78 315.27,-93.63 291,-77 229.44,-34.82 199.35,-59.29 127,-41 120.33,-39.31 113.33,-37.43 106.45,-35.52"/>
<polygon fill="#63b8ff" stroke="#63b8ff" points="340.05,-146.25 347.39,-153.9 346.42,-143.35 340.05,-146.25"/>
</a>
</g>
</g>
<!-- Node5&#45;&gt;Node3 -->
<g id="edge12_Node000005_Node000003" class="edge">
<title>Node5&#45;&gt;Node3</title>
<g id="a_edge12_Node000005_Node000003"><a xlink:title=" ">
<path fill="none" stroke="#63b8ff" d="M307.91,-149.31C288.23,-139.2 265.65,-127.6 247.04,-118.04"/>
<polygon fill="#63b8ff" stroke="#63b8ff" points="306.53,-152.53 317.02,-153.99 309.73,-146.31 306.53,-152.53"/>
</a>
</g>
</g>
<!-- Node6 -->
<g id="Node000006" class="node">
<title>Node6</title>
<g id="a_Node000006"><a xlink:href="sound__instance_8h.html" target="_top" xlink:title=" ">
<polygon fill="white" stroke="#666666" points="463.5,-118 338.5,-118 338.5,-77 463.5,-77 463.5,-118"/>
<text text-anchor="start" x="346.5" y="-106" font-family="Helvetica,sans-Serif" font-size="10.00">include/engine/audio</text>
<text text-anchor="start" x="346.5" y="-95" font-family="Helvetica,sans-Serif" font-size="10.00">/sound/instance/sound</text>
<text text-anchor="middle" x="401" y="-84" font-family="Helvetica,sans-Serif" font-size="10.00">_instance.h</text>
</a>
</g>
</g>
<!-- Node5&#45;&gt;Node6 -->
<g id="edge6_Node000005_Node000006" class="edge">
<title>Node5&#45;&gt;Node6</title>
<g id="a_edge6_Node000005_Node000006"><a xlink:title=" ">
<path fill="none" stroke="#63b8ff" d="M372.41,-145.11C377.94,-136.09 383.93,-126.33 388.99,-118.07"/>
<polygon fill="#63b8ff" stroke="#63b8ff" points="369.33,-143.44 367.09,-153.79 375.3,-147.1 369.33,-143.44"/>
</a>
</g>
</g>
<!-- Node5&#45;&gt;Node8 -->
<g id="edge13_Node000005_Node000008" class="edge">
<title>Node5&#45;&gt;Node8</title>
<g id="a_edge13_Node000005_Node000008"><a xlink:title=" ">
<path fill="none" stroke="#63b8ff" d="M421.07,-150.44C446.62,-141.03 475.94,-129.63 502,-118 561.13,-91.61 627.96,-55.26 663.19,-35.57"/>
<polygon fill="#63b8ff" stroke="#63b8ff" points="419.66,-147.22 411.47,-153.94 422.06,-153.8 419.66,-147.22"/>
</a>
</g>
</g>
<!-- Node9 -->
<g id="Node000009" class="node">
<title>Node9</title>
<g id="a_Node000009"><a xlink:href="audio__source_8h.html" target="_top" xlink:title=" ">
<polygon fill="white" stroke="#666666" points="606,-35.5 450,-35.5 450,-5.5 606,-5.5 606,-35.5"/>
<text text-anchor="start" x="458" y="-23.5" font-family="Helvetica,sans-Serif" font-size="10.00">include/engine/public</text>
<text text-anchor="middle" x="528" y="-12.5" font-family="Helvetica,sans-Serif" font-size="10.00">/components/audio_source.h</text>
</a>
</g>
</g>
<!-- Node5&#45;&gt;Node9 -->
<g id="edge14_Node000005_Node000009" class="edge">
<title>Node5&#45;&gt;Node9</title>
<g id="a_edge14_Node000005_Node000009"><a xlink:title=" ">
<path fill="none" stroke="#63b8ff" d="M423.17,-149.56C440.4,-141.36 457.97,-130.91 472,-118 497.65,-94.39 514.92,-56.27 522.91,-35.72"/>
<polygon fill="#63b8ff" stroke="#63b8ff" points="421.31,-146.56 413.66,-153.88 424.21,-152.93 421.31,-146.56"/>
</a>
</g>
</g>
<!-- Node6&#45;&gt;Node2 -->
<g id="edge7_Node000006_Node000002" class="edge">
<title>Node6&#45;&gt;Node2</title>
<g id="a_edge7_Node000006_Node000002"><a xlink:title=" ">
<path fill="none" stroke="#63b8ff" d="M328.46,-77.99C326.96,-77.65 325.47,-77.32 324,-77 237.03,-58.06 213.66,-61.29 127,-41 120.06,-39.38 112.78,-37.49 105.66,-35.54"/>
<polygon fill="#63b8ff" stroke="#63b8ff" points="327.94,-81.46 338.47,-80.29 329.51,-74.64 327.94,-81.46"/>
</a>
</g>
</g>
<!-- Node6&#45;&gt;Node4 -->
<g id="edge9_Node000006_Node000004" class="edge">
<title>Node6&#45;&gt;Node4</title>
<g id="a_edge9_Node000006_Node000004"><a xlink:title=" ">
<path fill="none" stroke="#63b8ff" d="M341.53,-73.27C315.07,-62.94 284.27,-50.9 259.03,-41.04"/>
<polygon fill="#63b8ff" stroke="#63b8ff" points="340.47,-76.61 351.06,-76.99 343.01,-70.09 340.47,-76.61"/>
</a>
</g>
</g>
<!-- Node7 -->
<g id="Node000007" class="node">
<title>Node7</title>
<g id="a_Node000007"><a xlink:href="generic__sound__instance_8h.html" target="_top" xlink:title=" ">
<polygon fill="white" stroke="#666666" points="432,-41 300,-41 300,0 432,0 432,-41"/>
<text text-anchor="start" x="308" y="-29" font-family="Helvetica,sans-Serif" font-size="10.00">include/engine/audio</text>
<text text-anchor="start" x="308" y="-18" font-family="Helvetica,sans-Serif" font-size="10.00">/sound/instance/generic</text>
<text text-anchor="middle" x="366" y="-7" font-family="Helvetica,sans-Serif" font-size="10.00">_sound_instance.h</text>
</a>
</g>
</g>
<!-- Node6&#45;&gt;Node7 -->
<g id="edge8_Node000006_Node000007" class="edge">
<title>Node6&#45;&gt;Node7</title>
<g id="a_edge8_Node000006_Node000007"><a xlink:title=" ">
<path fill="none" stroke="#63b8ff" d="M387.49,-67.55C383.35,-58.69 378.91,-49.15 375.13,-41.07"/>
<polygon fill="#63b8ff" stroke="#63b8ff" points="384.4,-69.21 391.8,-76.79 390.75,-66.25 384.4,-69.21"/>
</a>
</g>
</g>
<!-- Node6&#45;&gt;Node8 -->
<g id="edge10_Node000006_Node000008" class="edge">
<title>Node6&#45;&gt;Node8</title>
<g id="a_edge10_Node000006_Node000008"><a xlink:title=" ">
<path fill="none" stroke="#63b8ff" d="M473.51,-77.83C514.97,-67.13 567.92,-53.39 615,-41 621.72,-39.23 628.79,-37.36 635.77,-35.5"/>
<polygon fill="#63b8ff" stroke="#63b8ff" points="472.58,-74.46 463.77,-80.35 474.33,-81.24 472.58,-74.46"/>
</a>
</g>
</g>
<!-- Node6&#45;&gt;Node9 -->
<g id="edge11_Node000006_Node000009" class="edge">
<title>Node6&#45;&gt;Node9</title>
<g id="a_edge11_Node000006_Node000009"><a xlink:title=" ">
<path fill="none" stroke="#63b8ff" d="M442.79,-71.82C463.08,-59.84 486.73,-45.87 503.95,-35.7"/>
<polygon fill="#63b8ff" stroke="#63b8ff" points="440.87,-68.89 434.04,-76.99 444.43,-74.92 440.87,-68.89"/>
</a>
</g>
</g>
</g>
</svg>
