<?xml version="1.0" encoding="UTF-8" standalone="no"?>
<!DOCTYPE svg PUBLIC "-//W3C//DTD SVG 1.1//EN"
 "http://www.w3.org/Graphics/SVG/1.1/DTD/svg11.dtd">
<!-- Generated by graphviz version 2.43.0 (0)
 -->
<!-- Title: include/engine/audio/sound/resource/sound_resource.h Pages: 1 -->
<svg width="760pt" height="203pt"
 viewBox="0.00 0.00 760.00 203.00" xmlns="http://www.w3.org/2000/svg" xmlns:xlink="http://www.w3.org/1999/xlink">
<g id="graph0" class="graph" transform="scale(1 1) rotate(0) translate(4 199)">
<title>include/engine/audio/sound/resource/sound_resource.h</title>
<!-- Node1 -->
<g id="Node000001" class="node">
<title>Node1</title>
<g id="a_Node000001"><a xlink:title=" ">
<polygon fill="#999999" stroke="#666666" points="429,-195 303,-195 303,-154 429,-154 429,-195"/>
<text text-anchor="start" x="311" y="-183" font-family="Helvetica,sans-Serif" font-size="10.00">include/engine/audio</text>
<text text-anchor="start" x="311" y="-172" font-family="Helvetica,sans-Serif" font-size="10.00">/sound/resource/sound</text>
<text text-anchor="middle" x="366" y="-161" font-family="Helvetica,sans-Serif" font-size="10.00">_resource.h</text>
</a>
</g>
</g>
<!-- Node2 -->
<g id="Node000002" class="node">
<title>Node2</title>
<g id="a_Node000002"><a xlink:href="audio__service_8h.html" target="_top" xlink:title=" ">
<polygon fill="white" stroke="#666666" points="118,-35.5 0,-35.5 0,-5.5 118,-5.5 118,-35.5"/>
<text text-anchor="start" x="8" y="-23.5" font-family="Helvetica,sans-Serif" font-size="10.00">include/engine/audio</text>
<text text-anchor="middle" x="59" y="-12.5" font-family="Helvetica,sans-Serif" font-size="10.00">/audio_service.h</text>
</a>
</g>
</g>
<!-- Node1&#45;&gt;Node2 -->
<g id="edge1_Node000001_Node000002" class="edge">
<title>Node1&#45;&gt;Node2</title>
<g id="a_edge1_Node000001_Node000002"><a xlink:title=" ">
<path fill="none" stroke="#63b8ff" d="M292.69,-169.83C242.68,-164.28 176.91,-150.72 128,-118 96.84,-97.16 75.11,-57.18 65.15,-35.8"/>
<polygon fill="#63b8ff" stroke="#63b8ff" points="292.48,-173.33 302.79,-170.87 293.2,-166.36 292.48,-173.33"/>
</a>
</g>
</g>
<!-- Node3 -->
<g id="Node000003" class="node">
<title>Node3</title>
<g id="a_Node000003"><a xlink:href="sound__instance_8h.html" target="_top" xlink:title=" ">
<polygon fill="white" stroke="#666666" points="428.5,-118 303.5,-118 303.5,-77 428.5,-77 428.5,-118"/>
<text text-anchor="start" x="311.5" y="-106" font-family="Helvetica,sans-Serif" font-size="10.00">include/engine/audio</text>
<text text-anchor="start" x="311.5" y="-95" font-family="Helvetica,sans-Serif" font-size="10.00">/sound/instance/sound</text>
<text text-anchor="middle" x="366" y="-84" font-family="Helvetica,sans-Serif" font-size="10.00">_instance.h</text>
</a>
</g>
</g>
<!-- Node1&#45;&gt;Node3 -->
<g id="edge2_Node000001_Node000003" class="edge">
<title>Node1&#45;&gt;Node3</title>
<g id="a_edge2_Node000001_Node000003"><a xlink:title=" ">
<path fill="none" stroke="#63b8ff" d="M366,-143.69C366,-135.08 366,-125.9 366,-118.07"/>
<polygon fill="#63b8ff" stroke="#63b8ff" points="362.5,-143.79 366,-153.79 369.5,-143.79 362.5,-143.79"/>
</a>
</g>
</g>
<!-- Node6 -->
<g id="Node000006" class="node">
<title>Node6</title>
<g id="a_Node000006"><a xlink:href="sound__factory_8h.html" target="_top" xlink:title=" ">
<polygon fill="white" stroke="#666666" points="578,-35.5 450,-35.5 450,-5.5 578,-5.5 578,-35.5"/>
<text text-anchor="start" x="458" y="-23.5" font-family="Helvetica,sans-Serif" font-size="10.00">include/engine/audio</text>
<text text-anchor="middle" x="514" y="-12.5" font-family="Helvetica,sans-Serif" font-size="10.00">/sound/sound_factory.h</text>
</a>
</g>
</g>
<!-- Node1&#45;&gt;Node6 -->
<g id="edge10_Node000001_Node000006" class="edge">
<title>Node1&#45;&gt;Node6</title>
<g id="a_edge10_Node000001_Node000006"><a xlink:title=" ">
<path fill="none" stroke="#63b8ff" d="M402.41,-147.65C413.95,-138.79 426.44,-128.45 437,-118 463.96,-91.31 490.45,-55.4 504.23,-35.77"/>
<polygon fill="#63b8ff" stroke="#63b8ff" points="400.09,-145.01 394.21,-153.83 404.31,-150.6 400.09,-145.01"/>
</a>
</g>
</g>
<!-- Node7 -->
<g id="Node000007" class="node">
<title>Node7</title>
<g id="a_Node000007"><a xlink:href="audio__source_8h.html" target="_top" xlink:title=" ">
<polygon fill="white" stroke="#666666" points="752,-35.5 596,-35.5 596,-5.5 752,-5.5 752,-35.5"/>
<text text-anchor="start" x="604" y="-23.5" font-family="Helvetica,sans-Serif" font-size="10.00">include/engine/public</text>
<text text-anchor="middle" x="674" y="-12.5" font-family="Helvetica,sans-Serif" font-size="10.00">/components/audio_source.h</text>
</a>
</g>
</g>
<!-- Node1&#45;&gt;Node7 -->
<g id="edge11_Node000001_Node000007" class="edge">
<title>Node1&#45;&gt;Node7</title>
<g id="a_edge11_Node000001_Node000007"><a xlink:title=" ">
<path fill="none" stroke="#63b8ff" d="M414.87,-149.38C479.93,-117.28 592.87,-61.54 645.49,-35.57"/>
<polygon fill="#63b8ff" stroke="#63b8ff" points="413.05,-146.38 405.64,-153.94 416.15,-152.65 413.05,-146.38"/>
</a>
</g>
</g>
<!-- Node8 -->
<g id="Node000008" class="node">
<title>Node8</title>
<g id="a_Node000008"><a xlink:href="sdl__sound__resource_8h.html" target="_top" xlink:title=" ">
<polygon fill="white" stroke="#666666" points="283,-118 137,-118 137,-77 283,-77 283,-118"/>
<text text-anchor="start" x="145" y="-106" font-family="Helvetica,sans-Serif" font-size="10.00">include/engine/audio</text>
<text text-anchor="start" x="145" y="-95" font-family="Helvetica,sans-Serif" font-size="10.00">/sound/resource/sdl_sound</text>
<text text-anchor="middle" x="210" y="-84" font-family="Helvetica,sans-Serif" font-size="10.00">_resource.h</text>
</a>
</g>
</g>
<!-- Node1&#45;&gt;Node8 -->
<g id="edge8_Node000001_Node000008" class="edge">
<title>Node1&#45;&gt;Node8</title>
<g id="a_edge8_Node000001_Node000008"><a xlink:title=" ">
<path fill="none" stroke="#63b8ff" d="M316.26,-149.59C295.09,-139.41 270.71,-127.69 250.65,-118.04"/>
<polygon fill="#63b8ff" stroke="#63b8ff" points="314.89,-152.81 325.42,-153.99 317.92,-146.5 314.89,-152.81"/>
</a>
</g>
</g>
<!-- Node3&#45;&gt;Node2 -->
<g id="edge3_Node000003_Node000002" class="edge">
<title>Node3&#45;&gt;Node2</title>
<g id="a_edge3_Node000003_Node000002"><a xlink:title=" ">
<path fill="none" stroke="#63b8ff" d="M293.41,-77.34C292.94,-77.23 292.47,-77.11 292,-77 219.03,-59.43 199.78,-59.35 127,-41 120.33,-39.32 113.33,-37.44 106.45,-35.53"/>
<polygon fill="#63b8ff" stroke="#63b8ff" points="292.92,-80.82 303.47,-79.82 294.6,-74.03 292.92,-80.82"/>
</a>
</g>
</g>
<!-- Node4 -->
<g id="Node000004" class="node">
<title>Node4</title>
<g id="a_Node000004"><a xlink:href="generic__sound__instance_8h.html" target="_top" xlink:title=" ">
<polygon fill="white" stroke="#666666" points="432,-41 300,-41 300,0 432,0 432,-41"/>
<text text-anchor="start" x="308" y="-29" font-family="Helvetica,sans-Serif" font-size="10.00">include/engine/audio</text>
<text text-anchor="start" x="308" y="-18" font-family="Helvetica,sans-Serif" font-size="10.00">/sound/instance/generic</text>
<text text-anchor="middle" x="366" y="-7" font-family="Helvetica,sans-Serif" font-size="10.00">_sound_instance.h</text>
</a>
</g>
</g>
<!-- Node3&#45;&gt;Node4 -->
<g id="edge4_Node000003_Node000004" class="edge">
<title>Node3&#45;&gt;Node4</title>
<g id="a_edge4_Node000003_Node000004"><a xlink:title=" ">
<path fill="none" stroke="#63b8ff" d="M366,-66.69C366,-58.08 366,-48.9 366,-41.07"/>
<polygon fill="#63b8ff" stroke="#63b8ff" points="362.5,-66.79 366,-76.79 369.5,-66.79 362.5,-66.79"/>
</a>
</g>
</g>
<!-- Node5 -->
<g id="Node000005" class="node">
<title>Node5</title>
<g id="a_Node000005"><a xlink:href="sdl__sound__instance_8h.html" target="_top" xlink:title=" ">
<polygon fill="white" stroke="#666666" points="281.5,-41 136.5,-41 136.5,0 281.5,0 281.5,-41"/>
<text text-anchor="start" x="144.5" y="-29" font-family="Helvetica,sans-Serif" font-size="10.00">include/engine/audio</text>
<text text-anchor="start" x="144.5" y="-18" font-family="Helvetica,sans-Serif" font-size="10.00">/sound/instance/sdl_sound</text>
<text text-anchor="middle" x="209" y="-7" font-family="Helvetica,sans-Serif" font-size="10.00">_instance.h</text>
</a>
</g>
</g>
<!-- Node3&#45;&gt;Node5 -->
<g id="edge5_Node000003_Node000005" class="edge">
<title>Node3&#45;&gt;Node5</title>
<g id="a_edge5_Node000003_Node000005"><a xlink:title=" ">
<path fill="none" stroke="#63b8ff" d="M315.94,-72.59C294.63,-62.41 270.1,-50.69 249.91,-41.04"/>
<polygon fill="#63b8ff" stroke="#63b8ff" points="314.63,-75.84 325.16,-76.99 317.65,-69.52 314.63,-75.84"/>
</a>
</g>
</g>
<!-- Node3&#45;&gt;Node6 -->
<g id="edge6_Node000003_Node000006" class="edge">
<title>Node3&#45;&gt;Node6</title>
<g id="a_edge6_Node000003_Node000006"><a xlink:title=" ">
<path fill="none" stroke="#63b8ff" d="M413.43,-72.46C437.35,-60.34 465.54,-46.06 485.98,-35.7"/>
<polygon fill="#63b8ff" stroke="#63b8ff" points="411.84,-69.35 404.5,-76.99 415,-75.59 411.84,-69.35"/>
</a>
</g>
</g>
<!-- Node3&#45;&gt;Node7 -->
<g id="edge7_Node000003_Node000007" class="edge">
<title>Node3&#45;&gt;Node7</title>
<g id="a_edge7_Node000003_Node000007"><a xlink:title=" ">
<path fill="none" stroke="#63b8ff" d="M438.6,-78.82C492.86,-65.61 566.04,-47.79 616.33,-35.54"/>
<polygon fill="#63b8ff" stroke="#63b8ff" points="437.59,-75.47 428.7,-81.23 439.24,-82.27 437.59,-75.47"/>
</a>
</g>
</g>
<!-- Node8&#45;&gt;Node5 -->
<g id="edge9_Node000008_Node000005" class="edge">
<title>Node8&#45;&gt;Node5</title>
<g id="a_edge9_Node000008_Node000005"><a xlink:title=" ">
<path fill="none" stroke="#63b8ff" d="M209.6,-66.69C209.49,-58.08 209.37,-48.9 209.26,-41.07"/>
<polygon fill="#63b8ff" stroke="#63b8ff" points="206.1,-66.84 209.74,-76.79 213.1,-66.75 206.1,-66.84"/>
</a>
</g>
</g>
</g>
</svg>
