<?xml version="1.0" encoding="UTF-8" standalone="no"?>
<!DOCTYPE svg PUBLIC "-//W3C//DTD SVG 1.1//EN"
 "http://www.w3.org/Graphics/SVG/1.1/DTD/svg11.dtd">
<!-- Generated by graphviz version 2.43.0 (0)
 -->
<!-- Title: include/engine/audio/sound/instance/sound_instance.h Pages: 1 -->
<svg width="760pt" height="126pt"
 viewBox="0.00 0.00 760.00 126.00" xmlns="http://www.w3.org/2000/svg" xmlns:xlink="http://www.w3.org/1999/xlink">
<g id="graph0" class="graph" transform="scale(1 1) rotate(0) translate(4 122)">
<title>include/engine/audio/sound/instance/sound_instance.h</title>
<!-- Node1 -->
<g id="Node000001" class="node">
<title>Node1</title>
<g id="a_Node000001"><a xlink:title=" ">
<polygon fill="#999999" stroke="#666666" points="421.5,-118 296.5,-118 296.5,-77 421.5,-77 421.5,-118"/>
<text text-anchor="start" x="304.5" y="-106" font-family="Helvetica,sans-Serif" font-size="10.00">include/engine/audio</text>
<text text-anchor="start" x="304.5" y="-95" font-family="Helvetica,sans-Serif" font-size="10.00">/sound/instance/sound</text>
<text text-anchor="middle" x="359" y="-84" font-family="Helvetica,sans-Serif" font-size="10.00">_instance.h</text>
</a>
</g>
</g>
<!-- Node2 -->
<g id="Node000002" class="node">
<title>Node2</title>
<g id="a_Node000002"><a xlink:href="audio__service_8h.html" target="_top" xlink:title=" ">
<polygon fill="white" stroke="#666666" points="118,-35.5 0,-35.5 0,-5.5 118,-5.5 118,-35.5"/>
<text text-anchor="start" x="8" y="-23.5" font-family="Helvetica,sans-Serif" font-size="10.00">include/engine/audio</text>
<text text-anchor="middle" x="59" y="-12.5" font-family="Helvetica,sans-Serif" font-size="10.00">/audio_service.h</text>
</a>
</g>
</g>
<!-- Node1&#45;&gt;Node2 -->
<g id="edge1_Node000001_Node000002" class="edge">
<title>Node1&#45;&gt;Node2</title>
<g id="a_edge1_Node000001_Node000002"><a xlink:title=" ">
<path fill="none" stroke="#63b8ff" d="M286.44,-80.01C240.59,-69.38 180.17,-54.98 127,-41 120.47,-39.28 113.6,-37.4 106.85,-35.51"/>
<polygon fill="#63b8ff" stroke="#63b8ff" points="285.75,-83.45 296.28,-82.29 287.33,-76.63 285.75,-83.45"/>
</a>
</g>
</g>
<!-- Node3 -->
<g id="Node000003" class="node">
<title>Node3</title>
<g id="a_Node000003"><a xlink:href="generic__sound__instance_8h.html" target="_top" xlink:title=" ">
<polygon fill="white" stroke="#666666" points="268,-41 136,-41 136,0 268,0 268,-41"/>
<text text-anchor="start" x="144" y="-29" font-family="Helvetica,sans-Serif" font-size="10.00">include/engine/audio</text>
<text text-anchor="start" x="144" y="-18" font-family="Helvetica,sans-Serif" font-size="10.00">/sound/instance/generic</text>
<text text-anchor="middle" x="202" y="-7" font-family="Helvetica,sans-Serif" font-size="10.00">_sound_instance.h</text>
</a>
</g>
</g>
<!-- Node1&#45;&gt;Node3 -->
<g id="edge2_Node000001_Node000003" class="edge">
<title>Node1&#45;&gt;Node3</title>
<g id="a_edge2_Node000001_Node000003"><a xlink:title=" ">
<path fill="none" stroke="#63b8ff" d="M308.94,-72.59C287.63,-62.41 263.1,-50.69 242.91,-41.04"/>
<polygon fill="#63b8ff" stroke="#63b8ff" points="307.63,-75.84 318.16,-76.99 310.65,-69.52 307.63,-75.84"/>
</a>
</g>
</g>
<!-- Node4 -->
<g id="Node000004" class="node">
<title>Node4</title>
<g id="a_Node000004"><a xlink:href="sdl__sound__instance_8h.html" target="_top" xlink:title=" ">
<polygon fill="white" stroke="#666666" points="431.5,-41 286.5,-41 286.5,0 431.5,0 431.5,-41"/>
<text text-anchor="start" x="294.5" y="-29" font-family="Helvetica,sans-Serif" font-size="10.00">include/engine/audio</text>
<text text-anchor="start" x="294.5" y="-18" font-family="Helvetica,sans-Serif" font-size="10.00">/sound/instance/sdl_sound</text>
<text text-anchor="middle" x="359" y="-7" font-family="Helvetica,sans-Serif" font-size="10.00">_instance.h</text>
</a>
</g>
</g>
<!-- Node1&#45;&gt;Node4 -->
<g id="edge3_Node000001_Node000004" class="edge">
<title>Node1&#45;&gt;Node4</title>
<g id="a_edge3_Node000001_Node000004"><a xlink:title=" ">
<path fill="none" stroke="#63b8ff" d="M359,-66.69C359,-58.08 359,-48.9 359,-41.07"/>
<polygon fill="#63b8ff" stroke="#63b8ff" points="355.5,-66.79 359,-76.79 362.5,-66.79 355.5,-66.79"/>
</a>
</g>
</g>
<!-- Node5 -->
<g id="Node000005" class="node">
<title>Node5</title>
<g id="a_Node000005"><a xlink:href="sound__factory_8h.html" target="_top" xlink:title=" ">
<polygon fill="white" stroke="#666666" points="578,-35.5 450,-35.5 450,-5.5 578,-5.5 578,-35.5"/>
<text text-anchor="start" x="458" y="-23.5" font-family="Helvetica,sans-Serif" font-size="10.00">include/engine/audio</text>
<text text-anchor="middle" x="514" y="-12.5" font-family="Helvetica,sans-Serif" font-size="10.00">/sound/sound_factory.h</text>
</a>
</g>
</g>
<!-- Node1&#45;&gt;Node5 -->
<g id="edge4_Node000001_Node000005" class="edge">
<title>Node1&#45;&gt;Node5</title>
<g id="a_edge4_Node000001_Node000005"><a xlink:title=" ">
<path fill="none" stroke="#63b8ff" d="M408.34,-72.62C433.47,-60.47 463.15,-46.1 484.65,-35.7"/>
<polygon fill="#63b8ff" stroke="#63b8ff" points="406.8,-69.48 399.32,-76.99 409.85,-75.79 406.8,-69.48"/>
</a>
</g>
</g>
<!-- Node6 -->
<g id="Node000006" class="node">
<title>Node6</title>
<g id="a_Node000006"><a xlink:href="audio__source_8h.html" target="_top" xlink:title=" ">
<polygon fill="white" stroke="#666666" points="752,-35.5 596,-35.5 596,-5.5 752,-5.5 752,-35.5"/>
<text text-anchor="start" x="604" y="-23.5" font-family="Helvetica,sans-Serif" font-size="10.00">include/engine/public</text>
<text text-anchor="middle" x="674" y="-12.5" font-family="Helvetica,sans-Serif" font-size="10.00">/components/audio_source.h</text>
</a>
</g>
</g>
<!-- Node1&#45;&gt;Node6 -->
<g id="edge5_Node000001_Node000006" class="edge">
<title>Node1&#45;&gt;Node6</title>
<g id="a_edge5_Node000001_Node000006"><a xlink:title=" ">
<path fill="none" stroke="#63b8ff" d="M431.41,-79.26C487.06,-66.01 562.97,-47.94 614.97,-35.55"/>
<polygon fill="#63b8ff" stroke="#63b8ff" points="430.53,-75.87 421.61,-81.59 432.15,-82.68 430.53,-75.87"/>
</a>
</g>
</g>
</g>
</svg>
