<?xml version="1.0" encoding="UTF-8" standalone="no"?>
<!DOCTYPE svg PUBLIC "-//W3C//DTD SVG 1.1//EN"
 "http://www.w3.org/Graphics/SVG/1.1/DTD/svg11.dtd">
<!-- Generated by graphviz version 2.43.0 (0)
 -->
<!-- Title: include/engine/audio/sound/resource/sound_resource.h Pages: 1 -->
<svg width="258pt" height="170pt"
 viewBox="0.00 0.00 258.00 170.00" xmlns="http://www.w3.org/2000/svg" xmlns:xlink="http://www.w3.org/1999/xlink">
<g id="graph0" class="graph" transform="scale(1 1) rotate(0) translate(4 166)">
<title>include/engine/audio/sound/resource/sound_resource.h</title>
<!-- Node1 -->
<g id="Node000001" class="node">
<title>Node1</title>
<g id="a_Node000001"><a xlink:title=" ">
<polygon fill="#999999" stroke="#666666" points="161,-162 35,-162 35,-121 161,-121 161,-162"/>
<text text-anchor="start" x="43" y="-150" font-family="Helvetica,sans-Serif" font-size="10.00">include/engine/audio</text>
<text text-anchor="start" x="43" y="-139" font-family="Helvetica,sans-Serif" font-size="10.00">/sound/resource/sound</text>
<text text-anchor="middle" x="98" y="-128" font-family="Helvetica,sans-Serif" font-size="10.00">_resource.h</text>
</a>
</g>
</g>
<!-- Node2 -->
<g id="Node000002" class="node">
<title>Node2</title>
<g id="a_Node000002"><a xlink:title=" ">
<polygon fill="#e0e0e0" stroke="#999999" points="58,-79.5 0,-79.5 0,-60.5 58,-60.5 58,-79.5"/>
<text text-anchor="middle" x="29" y="-67.5" font-family="Helvetica,sans-Serif" font-size="10.00">memory</text>
</a>
</g>
</g>
<!-- Node1&#45;&gt;Node2 -->
<g id="edge1_Node000001_Node000002" class="edge">
<title>Node1&#45;&gt;Node2</title>
<g id="a_edge1_Node000001_Node000002"><a xlink:title=" ">
<path fill="none" stroke="#63b8ff" d="M78.41,-120.77C67.85,-110.13 54.98,-97.16 45.02,-87.13"/>
<polygon fill="#63b8ff" stroke="#63b8ff" points="47.29,-84.45 37.76,-79.82 42.32,-89.38 47.29,-84.45"/>
</a>
</g>
</g>
<!-- Node3 -->
<g id="Node000003" class="node">
<title>Node3</title>
<g id="a_Node000003"><a xlink:title=" ">
<polygon fill="#e0e0e0" stroke="#999999" points="120,-79.5 76,-79.5 76,-60.5 120,-60.5 120,-79.5"/>
<text text-anchor="middle" x="98" y="-67.5" font-family="Helvetica,sans-Serif" font-size="10.00">string</text>
</a>
</g>
</g>
<!-- Node1&#45;&gt;Node3 -->
<g id="edge2_Node000001_Node000003" class="edge">
<title>Node1&#45;&gt;Node3</title>
<g id="a_edge2_Node000001_Node000003"><a xlink:title=" ">
<path fill="none" stroke="#63b8ff" d="M98,-120.77C98,-111.08 98,-99.46 98,-89.88"/>
<polygon fill="#63b8ff" stroke="#63b8ff" points="101.5,-89.82 98,-79.82 94.5,-89.82 101.5,-89.82"/>
</a>
</g>
</g>
<!-- Node4 -->
<g id="Node000004" class="node">
<title>Node4</title>
<g id="a_Node000004"><a xlink:href="sound__type_8h.html" target="_top" xlink:title=" ">
<polygon fill="white" stroke="#666666" points="250,-85 138,-85 138,-55 250,-55 250,-85"/>
<text text-anchor="start" x="146" y="-73" font-family="Helvetica,sans-Serif" font-size="10.00">engine/audio/sound</text>
<text text-anchor="middle" x="194" y="-62" font-family="Helvetica,sans-Serif" font-size="10.00">/sound_type.h</text>
</a>
</g>
</g>
<!-- Node1&#45;&gt;Node4 -->
<g id="edge3_Node000001_Node000004" class="edge">
<title>Node1&#45;&gt;Node4</title>
<g id="a_edge3_Node000001_Node000004"><a xlink:title=" ">
<path fill="none" stroke="#63b8ff" d="M125,-120.96C137.92,-111.6 153.37,-100.42 166.37,-91.01"/>
<polygon fill="#63b8ff" stroke="#63b8ff" points="168.46,-93.81 174.51,-85.11 164.35,-88.14 168.46,-93.81"/>
</a>
</g>
</g>
<!-- Node5 -->
<g id="Node000005" class="node">
<title>Node5</title>
<g id="a_Node000005"><a xlink:title=" ">
<polygon fill="#e0e0e0" stroke="#999999" points="219,-19 169,-19 169,0 219,0 219,-19"/>
<text text-anchor="middle" x="194" y="-7" font-family="Helvetica,sans-Serif" font-size="10.00">cstdint</text>
</a>
</g>
</g>
<!-- Node4&#45;&gt;Node5 -->
<g id="edge4_Node000004_Node000005" class="edge">
<title>Node4&#45;&gt;Node5</title>
<g id="a_edge4_Node000004_Node000005"><a xlink:title=" ">
<path fill="none" stroke="#63b8ff" d="M194,-54.84C194,-47.21 194,-37.7 194,-29.45"/>
<polygon fill="#63b8ff" stroke="#63b8ff" points="197.5,-29.27 194,-19.27 190.5,-29.27 197.5,-29.27"/>
</a>
</g>
</g>
</g>
</svg>
