<?xml version="1.0" encoding="UTF-8" standalone="no"?>
<!DOCTYPE svg PUBLIC "-//W3C//DTD SVG 1.1//EN"
 "http://www.w3.org/Graphics/SVG/1.1/DTD/svg11.dtd">
<!-- Generated by graphviz version 2.43.0 (0)
 -->
<!-- Title: include/engine/audio/sound/sound_factory.h Pages: 1 -->
<svg width="357pt" height="291pt"
 viewBox="0.00 0.00 356.84 291.00" xmlns="http://www.w3.org/2000/svg" xmlns:xlink="http://www.w3.org/1999/xlink">
<g id="graph0" class="graph" transform="scale(1 1) rotate(0) translate(4 287)">
<title>include/engine/audio/sound/sound_factory.h</title>
<!-- Node1 -->
<g id="Node000001" class="node">
<title>Node1</title>
<g id="a_Node000001"><a xlink:title=" ">
<polygon fill="#999999" stroke="#666666" points="263.84,-283 135.84,-283 135.84,-253 263.84,-253 263.84,-283"/>
<text text-anchor="start" x="143.84" y="-271" font-family="Helvetica,sans-Serif" font-size="10.00">include/engine/audio</text>
<text text-anchor="middle" x="199.84" y="-260" font-family="Helvetica,sans-Serif" font-size="10.00">/sound/sound_factory.h</text>
</a>
</g>
</g>
<!-- Node2 -->
<g id="Node000002" class="node">
<title>Node2</title>
<g id="a_Node000002"><a xlink:title=" ">
<polygon fill="#e0e0e0" stroke="#999999" points="62.84,-79.5 4.84,-79.5 4.84,-60.5 62.84,-60.5 62.84,-79.5"/>
<text text-anchor="middle" x="33.84" y="-67.5" font-family="Helvetica,sans-Serif" font-size="10.00">memory</text>
</a>
</g>
</g>
<!-- Node1&#45;&gt;Node2 -->
<g id="edge1_Node000001_Node000002" class="edge">
<title>Node1&#45;&gt;Node2</title>
<g id="a_edge1_Node000001_Node000002"><a xlink:title=" ">
<path fill="none" stroke="#63b8ff" d="M135.53,-258.13C87.9,-250.1 28.79,-236.5 13.84,-217 -15.26,-179.04 8.81,-118.66 23.91,-88.85"/>
<polygon fill="#63b8ff" stroke="#63b8ff" points="27.19,-90.14 28.77,-79.67 21,-86.86 27.19,-90.14"/>
</a>
</g>
</g>
<!-- Node3 -->
<g id="Node000003" class="node">
<title>Node3</title>
<g id="a_Node000003"><a xlink:title=" ">
<polygon fill="#e0e0e0" stroke="#999999" points="196.84,-79.5 152.84,-79.5 152.84,-60.5 196.84,-60.5 196.84,-79.5"/>
<text text-anchor="middle" x="174.84" y="-67.5" font-family="Helvetica,sans-Serif" font-size="10.00">string</text>
</a>
</g>
</g>
<!-- Node1&#45;&gt;Node3 -->
<g id="edge2_Node000001_Node000003" class="edge">
<title>Node1&#45;&gt;Node3</title>
<g id="a_edge2_Node000001_Node000003"><a xlink:title=" ">
<path fill="none" stroke="#63b8ff" d="M213.92,-252.74C238.62,-225.94 284.78,-166.63 258.84,-121 247.63,-101.27 225.21,-88.52 206.36,-80.83"/>
<polygon fill="#63b8ff" stroke="#63b8ff" points="207.49,-77.51 196.9,-77.26 205.02,-84.06 207.49,-77.51"/>
</a>
</g>
</g>
<!-- Node4 -->
<g id="Node000004" class="node">
<title>Node4</title>
<g id="a_Node000004"><a xlink:href="sound__instance_8h.html" target="_top" xlink:title=" ">
<polygon fill="white" stroke="#666666" points="172.34,-217 23.34,-217 23.34,-187 172.34,-187 172.34,-217"/>
<text text-anchor="start" x="31.34" y="-205" font-family="Helvetica,sans-Serif" font-size="10.00">engine/audio/sound</text>
<text text-anchor="middle" x="97.84" y="-194" font-family="Helvetica,sans-Serif" font-size="10.00">/instance/sound_instance.h</text>
</a>
</g>
</g>
<!-- Node1&#45;&gt;Node4 -->
<g id="edge3_Node000001_Node000004" class="edge">
<title>Node1&#45;&gt;Node4</title>
<g id="a_edge3_Node000001_Node000004"><a xlink:title=" ">
<path fill="none" stroke="#63b8ff" d="M177.46,-252.95C163.24,-244.03 144.64,-232.36 128.99,-222.54"/>
<polygon fill="#63b8ff" stroke="#63b8ff" points="130.5,-219.36 120.17,-217.01 126.78,-225.29 130.5,-219.36"/>
</a>
</g>
</g>
<!-- Node5 -->
<g id="Node000005" class="node">
<title>Node5</title>
<g id="a_Node000005"><a xlink:href="sound__resource_8h.html" target="_top" xlink:title=" ">
<polygon fill="white" stroke="#666666" points="249.84,-151 99.84,-151 99.84,-121 249.84,-121 249.84,-151"/>
<text text-anchor="start" x="107.84" y="-139" font-family="Helvetica,sans-Serif" font-size="10.00">engine/audio/sound</text>
<text text-anchor="middle" x="174.84" y="-128" font-family="Helvetica,sans-Serif" font-size="10.00">/resource/sound_resource.h</text>
</a>
</g>
</g>
<!-- Node1&#45;&gt;Node5 -->
<g id="edge11_Node000001_Node000005" class="edge">
<title>Node1&#45;&gt;Node5</title>
<g id="a_edge11_Node000001_Node000005"><a xlink:title=" ">
<path fill="none" stroke="#63b8ff" d="M197.12,-252.84C192.89,-230.86 184.7,-188.27 179.51,-161.3"/>
<polygon fill="#63b8ff" stroke="#63b8ff" points="182.88,-160.3 177.56,-151.14 176.01,-161.62 182.88,-160.3"/>
</a>
</g>
</g>
<!-- Node6 -->
<g id="Node000006" class="node">
<title>Node6</title>
<g id="a_Node000006"><a xlink:href="sound__type_8h.html" target="_top" xlink:title=" ">
<polygon fill="white" stroke="#666666" points="348.84,-85 236.84,-85 236.84,-55 348.84,-55 348.84,-85"/>
<text text-anchor="start" x="244.84" y="-73" font-family="Helvetica,sans-Serif" font-size="10.00">engine/audio/sound</text>
<text text-anchor="middle" x="292.84" y="-62" font-family="Helvetica,sans-Serif" font-size="10.00">/sound_type.h</text>
</a>
</g>
</g>
<!-- Node1&#45;&gt;Node6 -->
<g id="edge12_Node000001_Node000006" class="edge">
<title>Node1&#45;&gt;Node6</title>
<g id="a_edge12_Node000001_Node000006"><a xlink:title=" ">
<path fill="none" stroke="#63b8ff" d="M225.71,-252.91C239.12,-244.28 254.6,-232.01 263.84,-217 287.25,-178.98 292.27,-125.77 293.06,-95.2"/>
<polygon fill="#63b8ff" stroke="#63b8ff" points="296.56,-95.07 293.19,-85.03 289.56,-94.99 296.56,-95.07"/>
</a>
</g>
</g>
<!-- Node4&#45;&gt;Node2 -->
<g id="edge4_Node000004_Node000002" class="edge">
<title>Node4&#45;&gt;Node2</title>
<g id="a_edge4_Node000004_Node000002"><a xlink:title=" ">
<path fill="none" stroke="#63b8ff" d="M83.96,-186.74C75.39,-177.27 64.76,-164.19 57.84,-151 47.55,-131.39 41,-106.7 37.38,-89.97"/>
<polygon fill="#63b8ff" stroke="#63b8ff" points="40.74,-88.94 35.34,-79.82 33.88,-90.32 40.74,-88.94"/>
</a>
</g>
</g>
<!-- Node4&#45;&gt;Node3 -->
<g id="edge5_Node000004_Node000003" class="edge">
<title>Node4&#45;&gt;Node3</title>
<g id="a_edge5_Node000004_Node000003"><a xlink:title=" ">
<path fill="none" stroke="#63b8ff" d="M92.03,-186.96C86.06,-170.12 79.13,-141.6 90.84,-121 102.05,-101.27 124.46,-88.52 143.32,-80.83"/>
<polygon fill="#63b8ff" stroke="#63b8ff" points="144.66,-84.06 152.78,-77.26 142.19,-77.51 144.66,-84.06"/>
</a>
</g>
</g>
<!-- Node4&#45;&gt;Node5 -->
<g id="edge6_Node000004_Node000005" class="edge">
<title>Node4&#45;&gt;Node5</title>
<g id="a_edge6_Node000004_Node000005"><a xlink:title=" ">
<path fill="none" stroke="#63b8ff" d="M114.93,-186.8C125.2,-178.26 138.44,-167.25 149.87,-157.75"/>
<polygon fill="#63b8ff" stroke="#63b8ff" points="152.35,-160.25 157.8,-151.16 147.87,-154.86 152.35,-160.25"/>
</a>
</g>
</g>
<!-- Node5&#45;&gt;Node2 -->
<g id="edge7_Node000005_Node000002" class="edge">
<title>Node5&#45;&gt;Node2</title>
<g id="a_edge7_Node000005_Node000002"><a xlink:title=" ">
<path fill="none" stroke="#63b8ff" d="M143.9,-120.95C119.39,-109.83 85.45,-94.42 61.76,-83.67"/>
<polygon fill="#63b8ff" stroke="#63b8ff" points="63.16,-80.46 52.6,-79.52 60.26,-86.84 63.16,-80.46"/>
</a>
</g>
</g>
<!-- Node5&#45;&gt;Node3 -->
<g id="edge8_Node000005_Node000003" class="edge">
<title>Node5&#45;&gt;Node3</title>
<g id="a_edge8_Node000005_Node000003"><a xlink:title=" ">
<path fill="none" stroke="#63b8ff" d="M174.84,-120.8C174.84,-111.7 174.84,-99.79 174.84,-89.9"/>
<polygon fill="#63b8ff" stroke="#63b8ff" points="178.34,-89.84 174.84,-79.84 171.34,-89.84 178.34,-89.84"/>
</a>
</g>
</g>
<!-- Node5&#45;&gt;Node6 -->
<g id="edge9_Node000005_Node000006" class="edge">
<title>Node5&#45;&gt;Node6</title>
<g id="a_edge9_Node000005_Node000006"><a xlink:title=" ">
<path fill="none" stroke="#63b8ff" d="M200.74,-120.95C217.57,-111.83 239.71,-99.82 258.07,-89.86"/>
<polygon fill="#63b8ff" stroke="#63b8ff" points="259.88,-92.86 267,-85.01 256.55,-86.7 259.88,-92.86"/>
</a>
</g>
</g>
<!-- Node7 -->
<g id="Node000007" class="node">
<title>Node7</title>
<g id="a_Node000007"><a xlink:title=" ">
<polygon fill="#e0e0e0" stroke="#999999" points="317.84,-19 267.84,-19 267.84,0 317.84,0 317.84,-19"/>
<text text-anchor="middle" x="292.84" y="-7" font-family="Helvetica,sans-Serif" font-size="10.00">cstdint</text>
</a>
</g>
</g>
<!-- Node6&#45;&gt;Node7 -->
<g id="edge10_Node000006_Node000007" class="edge">
<title>Node6&#45;&gt;Node7</title>
<g id="a_edge10_Node000006_Node000007"><a xlink:title=" ">
<path fill="none" stroke="#63b8ff" d="M292.84,-54.84C292.84,-47.21 292.84,-37.7 292.84,-29.45"/>
<polygon fill="#63b8ff" stroke="#63b8ff" points="296.34,-29.27 292.84,-19.27 289.34,-29.27 296.34,-29.27"/>
</a>
</g>
</g>
</g>
</svg>
