<?xml version="1.0" encoding="UTF-8" standalone="no"?>
<!DOCTYPE svg PUBLIC "-//W3C//DTD SVG 1.1//EN"
 "http://www.w3.org/Graphics/SVG/1.1/DTD/svg11.dtd">
<!-- Generated by graphviz version 2.43.0 (0)
 -->
<!-- Title: include/engine/public/components/sprite.h Pages: 1 -->
<svg width="480pt" height="159pt"
 viewBox="0.00 0.00 479.50 159.00" xmlns="http://www.w3.org/2000/svg" xmlns:xlink="http://www.w3.org/1999/xlink">
<g id="graph0" class="graph" transform="scale(1 1) rotate(0) translate(4 155)">
<title>include/engine/public/components/sprite.h</title>
<!-- Node1 -->
<g id="Node000001" class="node">
<title>Node1</title>
<g id="a_Node000001"><a xlink:title=" ">
<polygon fill="#999999" stroke="#666666" points="238,-151 118,-151 118,-121 238,-121 238,-151"/>
<text text-anchor="start" x="126" y="-139" font-family="Helvetica,sans-Serif" font-size="10.00">include/engine/public</text>
<text text-anchor="middle" x="178" y="-128" font-family="Helvetica,sans-Serif" font-size="10.00">/components/sprite.h</text>
</a>
</g>
</g>
<!-- Node2 -->
<g id="Node000002" class="node">
<title>Node2</title>
<g id="a_Node000002"><a xlink:title=" ">
<polygon fill="#e0e0e0" stroke="#999999" points="44,-79.5 0,-79.5 0,-60.5 44,-60.5 44,-79.5"/>
<text text-anchor="middle" x="22" y="-67.5" font-family="Helvetica,sans-Serif" font-size="10.00">string</text>
</a>
</g>
</g>
<!-- Node1&#45;&gt;Node2 -->
<g id="edge1_Node000001_Node000002" class="edge">
<title>Node1&#45;&gt;Node2</title>
<g id="a_edge1_Node000001_Node000002"><a xlink:title=" ">
<path fill="none" stroke="#63b8ff" d="M141.73,-120.97C116.68,-111.17 82.68,-97.63 53,-85 51.99,-84.57 50.97,-84.13 49.94,-83.69"/>
<polygon fill="#63b8ff" stroke="#63b8ff" points="51.19,-80.41 40.63,-79.57 48.36,-86.82 51.19,-80.41"/>
</a>
</g>
</g>
<!-- Node3 -->
<g id="Node000003" class="node">
<title>Node3</title>
<g id="a_Node000003"><a xlink:href="color_8h.html" target="_top" xlink:title=" ">
<polygon fill="white" stroke="#666666" points="163.5,-85 62.5,-85 62.5,-55 163.5,-55 163.5,-85"/>
<text text-anchor="start" x="70.5" y="-73" font-family="Helvetica,sans-Serif" font-size="10.00">engine/public/util</text>
<text text-anchor="middle" x="113" y="-62" font-family="Helvetica,sans-Serif" font-size="10.00">/color.h</text>
</a>
</g>
</g>
<!-- Node1&#45;&gt;Node3 -->
<g id="edge2_Node000001_Node000003" class="edge">
<title>Node1&#45;&gt;Node3</title>
<g id="a_edge2_Node000001_Node000003"><a xlink:title=" ">
<path fill="none" stroke="#63b8ff" d="M163.57,-120.8C155.07,-112.43 144.16,-101.68 134.64,-92.31"/>
<polygon fill="#63b8ff" stroke="#63b8ff" points="136.97,-89.69 127.39,-85.16 132.06,-94.67 136.97,-89.69"/>
</a>
</g>
</g>
<!-- Node4 -->
<g id="Node000004" class="node">
<title>Node4</title>
<g id="a_Node000004"><a xlink:href="texture_8h.html" target="_top" xlink:title=" ">
<polygon fill="white" stroke="#666666" points="304.5,-85 181.5,-85 181.5,-55 304.5,-55 304.5,-85"/>
<text text-anchor="start" x="189.5" y="-73" font-family="Helvetica,sans-Serif" font-size="10.00">engine/core/rendering</text>
<text text-anchor="middle" x="243" y="-62" font-family="Helvetica,sans-Serif" font-size="10.00">/texture.h</text>
</a>
</g>
</g>
<!-- Node1&#45;&gt;Node4 -->
<g id="edge3_Node000001_Node000004" class="edge">
<title>Node1&#45;&gt;Node4</title>
<g id="a_edge3_Node000001_Node000004"><a xlink:title=" ">
<path fill="none" stroke="#63b8ff" d="M192.43,-120.8C200.93,-112.43 211.84,-101.68 221.36,-92.31"/>
<polygon fill="#63b8ff" stroke="#63b8ff" points="223.94,-94.67 228.61,-85.16 219.03,-89.69 223.94,-94.67"/>
</a>
</g>
</g>
<!-- Node6 -->
<g id="Node000006" class="node">
<title>Node6</title>
<g id="a_Node000006"><a xlink:href="component_8h.html" target="_top" xlink:title=" ">
<polygon fill="white" stroke="#666666" points="471.5,-79.5 322.5,-79.5 322.5,-60.5 471.5,-60.5 471.5,-79.5"/>
<text text-anchor="middle" x="397" y="-67.5" font-family="Helvetica,sans-Serif" font-size="10.00">engine/public/component.h</text>
</a>
</g>
</g>
<!-- Node1&#45;&gt;Node6 -->
<g id="edge5_Node000001_Node000006" class="edge">
<title>Node1&#45;&gt;Node6</title>
<g id="a_edge5_Node000001_Node000006"><a xlink:title=" ">
<path fill="none" stroke="#63b8ff" d="M226.06,-120.95C265.65,-109.38 321.09,-93.18 357.97,-82.41"/>
<polygon fill="#63b8ff" stroke="#63b8ff" points="359.24,-85.68 367.85,-79.52 357.27,-78.96 359.24,-85.68"/>
</a>
</g>
</g>
<!-- Node5 -->
<g id="Node000005" class="node">
<title>Node5</title>
<g id="a_Node000005"><a xlink:title=" ">
<polygon fill="#e0e0e0" stroke="#999999" points="312,-19 254,-19 254,0 312,0 312,-19"/>
<text text-anchor="middle" x="283" y="-7" font-family="Helvetica,sans-Serif" font-size="10.00">memory</text>
</a>
</g>
</g>
<!-- Node4&#45;&gt;Node5 -->
<g id="edge4_Node000004_Node000005" class="edge">
<title>Node4&#45;&gt;Node5</title>
<g id="a_edge4_Node000004_Node000005"><a xlink:title=" ">
<path fill="none" stroke="#63b8ff" d="M252.68,-54.84C258.25,-46.69 265.29,-36.4 271.18,-27.78"/>
<polygon fill="#63b8ff" stroke="#63b8ff" points="274.25,-29.5 277.01,-19.27 268.47,-25.55 274.25,-29.5"/>
</a>
</g>
</g>
<!-- Node6&#45;&gt;Node5 -->
<g id="edge6_Node000006_Node000005" class="edge">
<title>Node6&#45;&gt;Node5</title>
<g id="a_edge6_Node000006_Node000005"><a xlink:title=" ">
<path fill="none" stroke="#63b8ff" d="M380.18,-60.37C361.4,-50.73 330.8,-35.03 308.95,-23.81"/>
<polygon fill="#63b8ff" stroke="#63b8ff" points="310.39,-20.62 299.89,-19.17 307.19,-26.85 310.39,-20.62"/>
</a>
</g>
</g>
<!-- Node7 -->
<g id="Node000007" class="node">
<title>Node7</title>
<g id="a_Node000007"><a xlink:title=" ">
<polygon fill="#e0e0e0" stroke="#999999" points="425,-19 369,-19 369,0 425,0 425,-19"/>
<text text-anchor="middle" x="397" y="-7" font-family="Helvetica,sans-Serif" font-size="10.00">optional</text>
</a>
</g>
</g>
<!-- Node6&#45;&gt;Node7 -->
<g id="edge7_Node000006_Node000007" class="edge">
<title>Node6&#45;&gt;Node7</title>
<g id="a_edge7_Node000006_Node000007"><a xlink:title=" ">
<path fill="none" stroke="#63b8ff" d="M397,-60.37C397,-52.25 397,-39.81 397,-29.39"/>
<polygon fill="#63b8ff" stroke="#63b8ff" points="400.5,-29.17 397,-19.17 393.5,-29.17 400.5,-29.17"/>
</a>
</g>
</g>
</g>
</svg>
