<?xml version="1.0" encoding="UTF-8" standalone="no"?>
<!DOCTYPE svg PUBLIC "-//W3C//DTD SVG 1.1//EN"
 "http://www.w3.org/Graphics/SVG/1.1/DTD/svg11.dtd">
<!-- Generated by graphviz version 2.43.0 (0)
 -->
<!-- Title: include/engine/public/components/sprite.h Pages: 1 -->
<svg width="788pt" height="423pt"
 viewBox="0.00 0.00 788.32 423.00" xmlns="http://www.w3.org/2000/svg" xmlns:xlink="http://www.w3.org/1999/xlink">
<g id="graph0" class="graph" transform="scale(1 1) rotate(0) translate(4 419)">
<title>include/engine/public/components/sprite.h</title>
<!-- Node1 -->
<g id="Node000001" class="node">
<title>Node1</title>
<g id="a_Node000001"><a xlink:title=" ">
<polygon fill="#999999" stroke="#666666" points="391.5,-415 271.5,-415 271.5,-385 391.5,-385 391.5,-415"/>
<text text-anchor="start" x="279.5" y="-403" font-family="Helvetica,sans-Serif" font-size="10.00">include/engine/public</text>
<text text-anchor="middle" x="331.5" y="-392" font-family="Helvetica,sans-Serif" font-size="10.00">/components/sprite.h</text>
</a>
</g>
</g>
<!-- Node2 -->
<g id="Node000002" class="node">
<title>Node2</title>
<g id="a_Node000002"><a xlink:title=" ">
<polygon fill="#e0e0e0" stroke="#999999" points="161.5,-85 117.5,-85 117.5,-66 161.5,-66 161.5,-85"/>
<text text-anchor="middle" x="139.5" y="-73" font-family="Helvetica,sans-Serif" font-size="10.00">string</text>
</a>
</g>
</g>
<!-- Node1&#45;&gt;Node2 -->
<g id="edge1_Node000001_Node000002" class="edge">
<title>Node1&#45;&gt;Node2</title>
<g id="a_edge1_Node000001_Node000002"><a xlink:title=" ">
<path fill="none" stroke="#63b8ff" d="M271.22,-394.86C237.07,-389.35 196.17,-376.88 170.5,-349 144.13,-320.36 151.5,-302.43 151.5,-263.5 151.5,-263.5 151.5,-263.5 151.5,-195.5 151.5,-159.81 146.09,-118.4 142.54,-95.04"/>
<polygon fill="#63b8ff" stroke="#63b8ff" points="145.99,-94.46 140.97,-85.13 139.07,-95.55 145.99,-94.46"/>
</a>
</g>
</g>
<!-- Node3 -->
<g id="Node000003" class="node">
<title>Node3</title>
<g id="a_Node000003"><a xlink:title=" ">
<polygon fill="#e0e0e0" stroke="#999999" points="618.5,-24.5 562.5,-24.5 562.5,-5.5 618.5,-5.5 618.5,-24.5"/>
<text text-anchor="middle" x="590.5" y="-12.5" font-family="Helvetica,sans-Serif" font-size="10.00">optional</text>
</a>
</g>
</g>
<!-- Node1&#45;&gt;Node3 -->
<g id="edge2_Node000001_Node000003" class="edge">
<title>Node1&#45;&gt;Node3</title>
<g id="a_edge2_Node000001_Node000003"><a xlink:title=" ">
<path fill="none" stroke="#63b8ff" d="M391.92,-393.48C514.2,-380.63 779.5,-343.54 779.5,-263.5 779.5,-263.5 779.5,-263.5 779.5,-135 779.5,-103.19 782.8,-88.69 760.5,-66 725.81,-30.7 667.58,-20.02 629.1,-16.96"/>
<polygon fill="#63b8ff" stroke="#63b8ff" points="629.02,-13.45 618.81,-16.28 628.56,-20.43 629.02,-13.45"/>
</a>
</g>
</g>
<!-- Node4 -->
<g id="Node000004" class="node">
<title>Node4</title>
<g id="a_Node000004"><a xlink:href="texture_8h.html" target="_top" xlink:title=" ">
<polygon fill="white" stroke="#666666" points="123,-277.5 0,-277.5 0,-247.5 123,-247.5 123,-277.5"/>
<text text-anchor="start" x="8" y="-265.5" font-family="Helvetica,sans-Serif" font-size="10.00">engine/core/rendering</text>
<text text-anchor="middle" x="61.5" y="-254.5" font-family="Helvetica,sans-Serif" font-size="10.00">/texture.h</text>
</a>
</g>
</g>
<!-- Node1&#45;&gt;Node4 -->
<g id="edge3_Node000001_Node000004" class="edge">
<title>Node1&#45;&gt;Node4</title>
<g id="a_edge3_Node000001_Node000004"><a xlink:title=" ">
<path fill="none" stroke="#63b8ff" d="M271.08,-392.73C230.87,-386.41 178.17,-373.83 137.5,-349 111.48,-333.11 89.34,-305.54 75.78,-286.01"/>
<polygon fill="#63b8ff" stroke="#63b8ff" points="78.66,-284.01 70.17,-277.67 72.85,-287.92 78.66,-284.01"/>
</a>
</g>
</g>
<!-- Node6 -->
<g id="Node000006" class="node">
<title>Node6</title>
<g id="a_Node000006"><a xlink:href="renderable_8h.html" target="_top" xlink:title=" ">
<polygon fill="white" stroke="#666666" points="303,-349 180,-349 180,-319 303,-319 303,-349"/>
<text text-anchor="start" x="188" y="-337" font-family="Helvetica,sans-Serif" font-size="10.00">engine/core/rendering</text>
<text text-anchor="middle" x="241.5" y="-326" font-family="Helvetica,sans-Serif" font-size="10.00">/renderable.h</text>
</a>
</g>
</g>
<!-- Node1&#45;&gt;Node6 -->
<g id="edge5_Node000001_Node000006" class="edge">
<title>Node1&#45;&gt;Node6</title>
<g id="a_edge5_Node000001_Node000006"><a xlink:title=" ">
<path fill="none" stroke="#63b8ff" d="M311.53,-384.8C299.29,-376.1 283.44,-364.82 269.91,-355.2"/>
<polygon fill="#63b8ff" stroke="#63b8ff" points="271.6,-352.11 261.42,-349.16 267.54,-357.81 271.6,-352.11"/>
</a>
</g>
</g>
<!-- Node7 -->
<g id="Node000007" class="node">
<title>Node7</title>
<g id="a_Node000007"><a xlink:href="irendering__strategy_8h.html" target="_top" xlink:title=" ">
<polygon fill="white" stroke="#666666" points="483,-283 360,-283 360,-242 483,-242 483,-283"/>
<text text-anchor="start" x="368" y="-271" font-family="Helvetica,sans-Serif" font-size="10.00">engine/core/rendering</text>
<text text-anchor="start" x="368" y="-260" font-family="Helvetica,sans-Serif" font-size="10.00">/strategies/irendering</text>
<text text-anchor="middle" x="421.5" y="-249" font-family="Helvetica,sans-Serif" font-size="10.00">_strategy.h</text>
</a>
</g>
</g>
<!-- Node1&#45;&gt;Node7 -->
<g id="edge26_Node000001_Node000007" class="edge">
<title>Node1&#45;&gt;Node7</title>
<g id="a_edge26_Node000001_Node000007"><a xlink:title=" ">
<path fill="none" stroke="#63b8ff" d="M340.96,-384.76C355.54,-362.81 383.78,-320.28 402.64,-291.89"/>
<polygon fill="#63b8ff" stroke="#63b8ff" points="405.79,-293.47 408.41,-283.21 399.96,-289.6 405.79,-293.47"/>
</a>
</g>
</g>
<!-- Node15 -->
<g id="Node000015" class="node">
<title>Node15</title>
<g id="a_Node000015"><a xlink:href="component_8h.html" target="_top" xlink:title=" ">
<polygon fill="white" stroke="#666666" points="366,-85 217,-85 217,-66 366,-66 366,-85"/>
<text text-anchor="middle" x="291.5" y="-73" font-family="Helvetica,sans-Serif" font-size="10.00">engine/public/component.h</text>
</a>
</g>
</g>
<!-- Node1&#45;&gt;Node15 -->
<g id="edge27_Node000001_Node000015" class="edge">
<title>Node1&#45;&gt;Node15</title>
<g id="a_edge27_Node000001_Node000015"><a xlink:title=" ">
<path fill="none" stroke="#63b8ff" d="M331.5,-384.76C331.5,-360.07 331.5,-307.73 331.5,-263.5 331.5,-263.5 331.5,-263.5 331.5,-195.5 331.5,-157.89 313.32,-116.91 301.48,-94.19"/>
<polygon fill="#63b8ff" stroke="#63b8ff" points="304.4,-92.25 296.57,-85.12 298.25,-95.58 304.4,-92.25"/>
</a>
</g>
</g>
<!-- Node17 -->
<g id="Node000017" class="node">
<title>Node17</title>
<g id="a_Node000017"><a xlink:href="color_8h.html" target="_top" xlink:title=" ">
<polygon fill="white" stroke="#666666" points="632,-151 531,-151 531,-121 632,-121 632,-151"/>
<text text-anchor="start" x="539" y="-139" font-family="Helvetica,sans-Serif" font-size="10.00">engine/public/util</text>
<text text-anchor="middle" x="581.5" y="-128" font-family="Helvetica,sans-Serif" font-size="10.00">/color.h</text>
</a>
</g>
</g>
<!-- Node1&#45;&gt;Node17 -->
<g id="edge28_Node000001_Node000017" class="edge">
<title>Node1&#45;&gt;Node17</title>
<g id="a_edge28_Node000001_Node000017"><a xlink:title=" ">
<path fill="none" stroke="#63b8ff" d="M357.06,-384.96C391,-365.42 451.42,-327.36 492.5,-283 527.65,-245.03 556.19,-191.09 570.83,-160.52"/>
<polygon fill="#63b8ff" stroke="#63b8ff" points="574.17,-161.65 575.25,-151.11 567.83,-158.67 574.17,-161.65"/>
</a>
</g>
</g>
<!-- Node5 -->
<g id="Node000005" class="node">
<title>Node5</title>
<g id="a_Node000005"><a xlink:title=" ">
<polygon fill="#e0e0e0" stroke="#999999" points="229.5,-24.5 171.5,-24.5 171.5,-5.5 229.5,-5.5 229.5,-24.5"/>
<text text-anchor="middle" x="200.5" y="-12.5" font-family="Helvetica,sans-Serif" font-size="10.00">memory</text>
</a>
</g>
</g>
<!-- Node4&#45;&gt;Node5 -->
<g id="edge4_Node000004_Node000005" class="edge">
<title>Node4&#45;&gt;Node5</title>
<g id="a_edge4_Node000004_Node000005"><a xlink:title=" ">
<path fill="none" stroke="#63b8ff" d="M61.16,-247.32C61.06,-212.65 65.26,-122.36 108.5,-66 121.98,-48.44 143.45,-36.27 162.26,-28.34"/>
<polygon fill="#63b8ff" stroke="#63b8ff" points="163.78,-31.5 171.8,-24.57 161.21,-24.99 163.78,-31.5"/>
</a>
</g>
</g>
<!-- Node6&#45;&gt;Node5 -->
<g id="edge6_Node000006_Node000005" class="edge">
<title>Node6&#45;&gt;Node5</title>
<g id="a_edge6_Node000006_Node000005"><a xlink:title=" ">
<path fill="none" stroke="#63b8ff" d="M231.96,-318.66C216.95,-294.66 189.5,-244.37 189.5,-197.5 189.5,-197.5 189.5,-197.5 189.5,-135 189.5,-99.34 194.46,-57.92 197.72,-34.55"/>
<polygon fill="#63b8ff" stroke="#63b8ff" points="201.18,-35.03 199.15,-24.63 194.26,-34.03 201.18,-35.03"/>
</a>
</g>
</g>
<!-- Node6&#45;&gt;Node7 -->
<g id="edge7_Node000006_Node000007" class="edge">
<title>Node6&#45;&gt;Node7</title>
<g id="a_edge7_Node000006_Node000007"><a xlink:title=" ">
<path fill="none" stroke="#63b8ff" d="M277.93,-318.94C301.82,-309.71 333.63,-297.43 361.24,-286.77"/>
<polygon fill="#63b8ff" stroke="#63b8ff" points="362.74,-289.94 370.81,-283.07 360.22,-283.41 362.74,-289.94"/>
</a>
</g>
</g>
<!-- Node6&#45;&gt;Node15 -->
<g id="edge25_Node000006_Node000015" class="edge">
<title>Node6&#45;&gt;Node15</title>
<g id="a_edge25_Node000006_Node000015"><a xlink:title=" ">
<path fill="none" stroke="#63b8ff" d="M244.26,-318.84C252.73,-275.39 278.36,-143.9 287.89,-95.04"/>
<polygon fill="#63b8ff" stroke="#63b8ff" points="291.32,-95.69 289.8,-85.21 284.45,-94.35 291.32,-95.69"/>
</a>
</g>
</g>
<!-- Node8 -->
<g id="Node000008" class="node">
<title>Node8</title>
<g id="a_Node000008"><a xlink:href="camera_8h.html" target="_top" xlink:title=" ">
<polygon fill="white" stroke="#666666" points="502,-206 371,-206 371,-187 502,-187 502,-206"/>
<text text-anchor="middle" x="436.5" y="-194" font-family="Helvetica,sans-Serif" font-size="10.00">engine/public/camera.h</text>
</a>
</g>
</g>
<!-- Node7&#45;&gt;Node8 -->
<g id="edge8_Node000007_Node000008" class="edge">
<title>Node7&#45;&gt;Node8</title>
<g id="a_edge8_Node000007_Node000008"><a xlink:title=" ">
<path fill="none" stroke="#63b8ff" d="M426.08,-241.95C428,-233.76 430.22,-224.28 432.12,-216.19"/>
<polygon fill="#63b8ff" stroke="#63b8ff" points="435.57,-216.8 434.45,-206.26 428.76,-215.2 435.57,-216.8"/>
</a>
</g>
</g>
<!-- Node9 -->
<g id="Node000009" class="node">
<title>Node9</title>
<g id="a_Node000009"><a xlink:href="game_object_8h.html" target="_top" xlink:title=" ">
<polygon fill="white" stroke="#666666" points="513,-145.5 360,-145.5 360,-126.5 513,-126.5 513,-145.5"/>
<text text-anchor="middle" x="436.5" y="-133.5" font-family="Helvetica,sans-Serif" font-size="10.00">engine/public/gameObject.h</text>
</a>
</g>
</g>
<!-- Node8&#45;&gt;Node9 -->
<g id="edge9_Node000008_Node000009" class="edge">
<title>Node8&#45;&gt;Node9</title>
<g id="a_edge9_Node000008_Node000009"><a xlink:title=" ">
<path fill="none" stroke="#63b8ff" d="M436.5,-186.87C436.5,-178.75 436.5,-166.31 436.5,-155.89"/>
<polygon fill="#63b8ff" stroke="#63b8ff" points="440,-155.67 436.5,-145.67 433,-155.67 440,-155.67"/>
</a>
</g>
</g>
<!-- Node8&#45;&gt;Node17 -->
<g id="edge24_Node000008_Node000017" class="edge">
<title>Node8&#45;&gt;Node17</title>
<g id="a_edge24_Node000008_Node000017"><a xlink:title=" ">
<path fill="none" stroke="#63b8ff" d="M457.58,-186.99C478.36,-178.61 510.74,-165.55 537.2,-154.87"/>
<polygon fill="#63b8ff" stroke="#63b8ff" points="538.68,-158.05 546.64,-151.06 536.06,-151.56 538.68,-158.05"/>
</a>
</g>
</g>
<!-- Node9&#45;&gt;Node2 -->
<g id="edge13_Node000009_Node000002" class="edge">
<title>Node9&#45;&gt;Node2</title>
<g id="a_edge13_Node000009_Node000002"><a xlink:title=" ">
<path fill="none" stroke="#63b8ff" d="M393.31,-126.49C333.13,-114.64 225.41,-93.42 171.74,-82.85"/>
<polygon fill="#63b8ff" stroke="#63b8ff" points="172.24,-79.38 161.75,-80.88 170.89,-86.25 172.24,-79.38"/>
</a>
</g>
</g>
<!-- Node9&#45;&gt;Node3 -->
<g id="edge11_Node000009_Node000003" class="edge">
<title>Node9&#45;&gt;Node3</title>
<g id="a_edge11_Node000009_Node000003"><a xlink:title=" ">
<path fill="none" stroke="#63b8ff" d="M494.38,-126.42C521.58,-119.53 552.38,-107.17 572.5,-85 584.83,-71.41 588.92,-50.43 590.17,-35.17"/>
<polygon fill="#63b8ff" stroke="#63b8ff" points="593.68,-34.99 590.67,-24.83 586.69,-34.65 593.68,-34.99"/>
</a>
</g>
</g>
<!-- Node10 -->
<g id="Node000010" class="node">
<title>Node10</title>
<g id="a_Node000010"><a xlink:title=" ">
<polygon fill="#e0e0e0" stroke="#999999" points="683.5,-85 619.5,-85 619.5,-66 683.5,-66 683.5,-85"/>
<text text-anchor="middle" x="651.5" y="-73" font-family="Helvetica,sans-Serif" font-size="10.00">algorithm</text>
</a>
</g>
</g>
<!-- Node9&#45;&gt;Node10 -->
<g id="edge10_Node000009_Node000010" class="edge">
<title>Node9&#45;&gt;Node10</title>
<g id="a_edge10_Node000009_Node000010"><a xlink:title=" ">
<path fill="none" stroke="#63b8ff" d="M467.76,-126.49C505.42,-116.25 568.79,-99 610.38,-87.69"/>
<polygon fill="#63b8ff" stroke="#63b8ff" points="611.47,-91.02 620.2,-85.02 609.63,-84.27 611.47,-91.02"/>
</a>
</g>
</g>
<!-- Node11 -->
<g id="Node000011" class="node">
<title>Node11</title>
<g id="a_Node000011"><a xlink:title=" ">
<polygon fill="#e0e0e0" stroke="#999999" points="751.5,-85 701.5,-85 701.5,-66 751.5,-66 751.5,-85"/>
<text text-anchor="middle" x="726.5" y="-73" font-family="Helvetica,sans-Serif" font-size="10.00">ranges</text>
</a>
</g>
</g>
<!-- Node9&#45;&gt;Node11 -->
<g id="edge12_Node000009_Node000011" class="edge">
<title>Node9&#45;&gt;Node11</title>
<g id="a_edge12_Node000009_Node000011"><a xlink:title=" ">
<path fill="none" stroke="#63b8ff" d="M484.31,-126.43C533.74,-117.4 613.36,-102.38 691.3,-85.18"/>
<polygon fill="#63b8ff" stroke="#63b8ff" points="692.28,-88.54 701.28,-82.96 690.76,-81.71 692.28,-88.54"/>
</a>
</g>
</g>
<!-- Node12 -->
<g id="Node000012" class="node">
<title>Node12</title>
<g id="a_Node000012"><a xlink:title=" ">
<polygon fill="#e0e0e0" stroke="#999999" points="403,-24.5 356,-24.5 356,-5.5 403,-5.5 403,-24.5"/>
<text text-anchor="middle" x="379.5" y="-12.5" font-family="Helvetica,sans-Serif" font-size="10.00">vector</text>
</a>
</g>
</g>
<!-- Node9&#45;&gt;Node12 -->
<g id="edge14_Node000009_Node000012" class="edge">
<title>Node9&#45;&gt;Node12</title>
<g id="a_edge14_Node000009_Node000012"><a xlink:title=" ">
<path fill="none" stroke="#63b8ff" d="M432.25,-126.15C427.45,-116.16 419.41,-99.41 412.5,-85 404.27,-67.82 394.9,-48.23 388.26,-34.33"/>
<polygon fill="#63b8ff" stroke="#63b8ff" points="391.24,-32.45 383.77,-24.93 384.92,-35.47 391.24,-32.45"/>
</a>
</g>
</g>
<!-- Node13 -->
<g id="Node000013" class="node">
<title>Node13</title>
<g id="a_Node000013"><a xlink:href="transform_8h.html" target="_top" xlink:title=" ">
<polygon fill="white" stroke="#666666" points="563.5,-85 421.5,-85 421.5,-66 563.5,-66 563.5,-85"/>
<text text-anchor="middle" x="492.5" y="-73" font-family="Helvetica,sans-Serif" font-size="10.00">engine/public/transform.h</text>
</a>
</g>
</g>
<!-- Node9&#45;&gt;Node13 -->
<g id="edge15_Node000009_Node000013" class="edge">
<title>Node9&#45;&gt;Node13</title>
<g id="a_edge15_Node000009_Node000013"><a xlink:title=" ">
<path fill="none" stroke="#63b8ff" d="M444.76,-126.37C453.28,-117.47 466.76,-103.39 477.23,-92.45"/>
<polygon fill="#63b8ff" stroke="#63b8ff" points="479.82,-94.81 484.2,-85.17 474.76,-89.97 479.82,-94.81"/>
</a>
</g>
</g>
<!-- Node9&#45;&gt;Node15 -->
<g id="edge19_Node000009_Node000015" class="edge">
<title>Node9&#45;&gt;Node15</title>
<g id="a_edge19_Node000009_Node000015"><a xlink:title=" ">
<path fill="none" stroke="#63b8ff" d="M415.42,-126.49C390.82,-116.57 349.97,-100.09 321.94,-88.78"/>
<polygon fill="#63b8ff" stroke="#63b8ff" points="323.19,-85.51 312.61,-85.02 320.57,-92 323.19,-85.51"/>
</a>
</g>
</g>
<!-- Node13&#45;&gt;Node3 -->
<g id="edge17_Node000013_Node000003" class="edge">
<title>Node13&#45;&gt;Node3</title>
<g id="a_edge17_Node000013_Node000003"><a xlink:title=" ">
<path fill="none" stroke="#63b8ff" d="M506.96,-65.87C522.81,-56.41 548.47,-41.09 567.18,-29.92"/>
<polygon fill="#63b8ff" stroke="#63b8ff" points="569.19,-32.8 575.98,-24.67 565.6,-26.79 569.19,-32.8"/>
</a>
</g>
</g>
<!-- Node13&#45;&gt;Node5 -->
<g id="edge16_Node000013_Node000005" class="edge">
<title>Node13&#45;&gt;Node5</title>
<g id="a_edge16_Node000013_Node000005"><a xlink:title=" ">
<path fill="none" stroke="#63b8ff" d="M437.17,-65.94C387.71,-57.92 313.4,-44.94 249.5,-30 245.88,-29.15 242.14,-28.21 238.4,-27.22"/>
<polygon fill="#63b8ff" stroke="#63b8ff" points="239.19,-23.81 228.62,-24.54 237.34,-30.56 239.19,-23.81"/>
</a>
</g>
</g>
<!-- Node14 -->
<g id="Node000014" class="node">
<title>Node14</title>
<g id="a_Node000014"><a xlink:href="vector3_8h.html" target="_top" xlink:title=" ">
<polygon fill="white" stroke="#666666" points="543,-30 442,-30 442,0 543,0 543,-30"/>
<text text-anchor="start" x="450" y="-18" font-family="Helvetica,sans-Serif" font-size="10.00">engine/public/util</text>
<text text-anchor="middle" x="492.5" y="-7" font-family="Helvetica,sans-Serif" font-size="10.00">/vector3.h</text>
</a>
</g>
</g>
<!-- Node13&#45;&gt;Node14 -->
<g id="edge18_Node000013_Node000014" class="edge">
<title>Node13&#45;&gt;Node14</title>
<g id="a_edge18_Node000013_Node000014"><a xlink:title=" ">
<path fill="none" stroke="#63b8ff" d="M492.5,-65.87C492.5,-59.11 492.5,-49.35 492.5,-40.26"/>
<polygon fill="#63b8ff" stroke="#63b8ff" points="496,-40.11 492.5,-30.11 489,-40.11 496,-40.11"/>
</a>
</g>
</g>
<!-- Node15&#45;&gt;Node3 -->
<g id="edge22_Node000015_Node000003" class="edge">
<title>Node15&#45;&gt;Node3</title>
<g id="a_edge22_Node000015_Node000003"><a xlink:title=" ">
<path fill="none" stroke="#63b8ff" d="M362.6,-65.98C415.51,-58.77 489.22,-46.9 552.5,-30 554.94,-29.35 557.44,-28.61 559.93,-27.81"/>
<polygon fill="#63b8ff" stroke="#63b8ff" points="561.1,-31.11 569.42,-24.55 558.82,-24.49 561.1,-31.11"/>
</a>
</g>
</g>
<!-- Node15&#45;&gt;Node5 -->
<g id="edge21_Node000015_Node000005" class="edge">
<title>Node15&#45;&gt;Node5</title>
<g id="a_edge21_Node000015_Node000005"><a xlink:title=" ">
<path fill="none" stroke="#63b8ff" d="M278.07,-65.87C263.42,-56.45 239.74,-41.23 222.4,-30.08"/>
<polygon fill="#63b8ff" stroke="#63b8ff" points="224.29,-27.13 213.98,-24.67 220.5,-33.02 224.29,-27.13"/>
</a>
</g>
</g>
<!-- Node15&#45;&gt;Node12 -->
<g id="edge23_Node000015_Node000012" class="edge">
<title>Node15&#45;&gt;Node12</title>
<g id="a_edge23_Node000015_Node000012"><a xlink:title=" ">
<path fill="none" stroke="#63b8ff" d="M304.48,-65.87C318.52,-56.54 341.13,-41.51 357.86,-30.38"/>
<polygon fill="#63b8ff" stroke="#63b8ff" points="360.07,-33.12 366.46,-24.67 356.2,-27.29 360.07,-33.12"/>
</a>
</g>
</g>
<!-- Node16 -->
<g id="Node000016" class="node">
<title>Node16</title>
<g id="a_Node000016"><a xlink:title=" ">
<polygon fill="#e0e0e0" stroke="#999999" points="324,-24.5 259,-24.5 259,-5.5 324,-5.5 324,-24.5"/>
<text text-anchor="middle" x="291.5" y="-12.5" font-family="Helvetica,sans-Serif" font-size="10.00">functional</text>
</a>
</g>
</g>
<!-- Node15&#45;&gt;Node16 -->
<g id="edge20_Node000015_Node000016" class="edge">
<title>Node15&#45;&gt;Node16</title>
<g id="a_edge20_Node000015_Node000016"><a xlink:title=" ">
<path fill="none" stroke="#63b8ff" d="M291.5,-65.87C291.5,-57.75 291.5,-45.31 291.5,-34.89"/>
<polygon fill="#63b8ff" stroke="#63b8ff" points="295,-34.67 291.5,-24.67 288,-34.67 295,-34.67"/>
</a>
</g>
</g>
</g>
</svg>
