<?xml version="1.0" encoding="UTF-8" standalone="no"?>
<!DOCTYPE svg PUBLIC "-//W3C//DTD SVG 1.1//EN"
 "http://www.w3.org/Graphics/SVG/1.1/DTD/svg11.dtd">
<!-- Generated by graphviz version 2.43.0 (0)
 -->
<!-- Title: include/engine/public/ui/interactable/ui_input.h Pages: 1 -->
<svg width="987pt" height="500pt"
 viewBox="0.00 0.00 986.50 500.00" xmlns="http://www.w3.org/2000/svg" xmlns:xlink="http://www.w3.org/1999/xlink">
<g id="graph0" class="graph" transform="scale(1 1) rotate(0) translate(4 496)">
<title>include/engine/public/ui/interactable/ui_input.h</title>
<!-- Node1 -->
<g id="Node000001" class="node">
<title>Node1</title>
<g id="a_Node000001"><a xlink:title=" ">
<polygon fill="#999999" stroke="#666666" points="282.5,-492 141.5,-492 141.5,-462 282.5,-462 282.5,-492"/>
<text text-anchor="start" x="149.5" y="-480" font-family="Helvetica,sans-Serif" font-size="10.00">include/engine/public</text>
<text text-anchor="middle" x="212" y="-469" font-family="Helvetica,sans-Serif" font-size="10.00">/ui/interactable/ui_input.h</text>
</a>
</g>
</g>
<!-- Node2 -->
<g id="Node000002" class="node">
<title>Node2</title>
<g id="a_Node000002"><a xlink:title=" ">
<polygon fill="#e0e0e0" stroke="#999999" points="138.5,-24.5 73.5,-24.5 73.5,-5.5 138.5,-5.5 138.5,-24.5"/>
<text text-anchor="middle" x="106" y="-12.5" font-family="Helvetica,sans-Serif" font-size="10.00">functional</text>
</a>
</g>
</g>
<!-- Node1&#45;&gt;Node2 -->
<g id="edge1_Node000001_Node000002" class="edge">
<title>Node1&#45;&gt;Node2</title>
<g id="a_edge1_Node000001_Node000002"><a xlink:title=" ">
<path fill="none" stroke="#63b8ff" d="M141.41,-463.12C79.74,-447.32 0,-413.78 0,-346 0,-346 0,-346 0,-135 0,-86.65 49.39,-48.86 80.75,-29.74"/>
<polygon fill="#63b8ff" stroke="#63b8ff" points="82.59,-32.72 89.44,-24.63 79.04,-26.68 82.59,-32.72"/>
</a>
</g>
</g>
<!-- Node3 -->
<g id="Node000003" class="node">
<title>Node3</title>
<g id="a_Node000003"><a xlink:title=" ">
<polygon fill="#e0e0e0" stroke="#999999" points="285.5,-24.5 238.5,-24.5 238.5,-5.5 285.5,-5.5 285.5,-24.5"/>
<text text-anchor="middle" x="262" y="-12.5" font-family="Helvetica,sans-Serif" font-size="10.00">vector</text>
</a>
</g>
</g>
<!-- Node1&#45;&gt;Node3 -->
<g id="edge2_Node000001_Node000003" class="edge">
<title>Node1&#45;&gt;Node3</title>
<g id="a_edge2_Node000001_Node000003"><a xlink:title=" ">
<path fill="none" stroke="#63b8ff" d="M212,-461.96C212,-438.12 212,-388.2 212,-346 212,-346 212,-346 212,-135 212,-96.18 234.9,-55.4 249.7,-33.09"/>
<polygon fill="#63b8ff" stroke="#63b8ff" points="252.68,-34.95 255.46,-24.72 246.91,-30.98 252.68,-34.95"/>
</a>
</g>
</g>
<!-- Node4 -->
<g id="Node000004" class="node">
<title>Node4</title>
<g id="a_Node000004"><a xlink:href="ui__interactable_8h.html" target="_top" xlink:title=" ">
<polygon fill="white" stroke="#666666" points="183.5,-288.5 28.5,-288.5 28.5,-258.5 183.5,-258.5 183.5,-288.5"/>
<text text-anchor="start" x="36.5" y="-276.5" font-family="Helvetica,sans-Serif" font-size="10.00">engine/public/ui/interactable</text>
<text text-anchor="middle" x="106" y="-265.5" font-family="Helvetica,sans-Serif" font-size="10.00">/ui_interactable.h</text>
</a>
</g>
</g>
<!-- Node1&#45;&gt;Node4 -->
<g id="edge3_Node000001_Node000004" class="edge">
<title>Node1&#45;&gt;Node4</title>
<g id="a_edge3_Node000001_Node000004"><a xlink:title=" ">
<path fill="none" stroke="#63b8ff" d="M204.55,-461.83C186.49,-427.51 140.27,-339.65 118.15,-297.6"/>
<polygon fill="#63b8ff" stroke="#63b8ff" points="121.2,-295.87 113.45,-288.65 115,-299.13 121.2,-295.87"/>
</a>
</g>
</g>
<!-- Node16 -->
<g id="Node000016" class="node">
<title>Node16</title>
<g id="a_Node000016"><a xlink:href="text_8h.html" target="_top" xlink:title=" ">
<polygon fill="white" stroke="#666666" points="522.5,-426 377.5,-426 377.5,-396 522.5,-396 522.5,-426"/>
<text text-anchor="start" x="385.5" y="-414" font-family="Helvetica,sans-Serif" font-size="10.00">engine/public/components</text>
<text text-anchor="middle" x="450" y="-403" font-family="Helvetica,sans-Serif" font-size="10.00">/ui/text.h</text>
</a>
</g>
</g>
<!-- Node1&#45;&gt;Node16 -->
<g id="edge23_Node000001_Node000016" class="edge">
<title>Node1&#45;&gt;Node16</title>
<g id="a_edge23_Node000001_Node000016"><a xlink:title=" ">
<path fill="none" stroke="#63b8ff" d="M264.23,-461.95C300.66,-452.16 349.43,-439.05 387.85,-428.71"/>
<polygon fill="#63b8ff" stroke="#63b8ff" points="389.14,-431.99 397.89,-426.01 387.33,-425.23 389.14,-431.99"/>
</a>
</g>
</g>
<!-- Node21 -->
<g id="Node000021" class="node">
<title>Node21</title>
<g id="a_Node000021"><a xlink:href="image_8h.html" target="_top" xlink:title=" ">
<polygon fill="white" stroke="#666666" points="861.5,-426 716.5,-426 716.5,-396 861.5,-396 861.5,-426"/>
<text text-anchor="start" x="724.5" y="-414" font-family="Helvetica,sans-Serif" font-size="10.00">engine/public/components</text>
<text text-anchor="middle" x="789" y="-403" font-family="Helvetica,sans-Serif" font-size="10.00">/ui/image.h</text>
</a>
</g>
</g>
<!-- Node1&#45;&gt;Node21 -->
<g id="edge35_Node000001_Node000021" class="edge">
<title>Node1&#45;&gt;Node21</title>
<g id="a_edge35_Node000001_Node000021"><a xlink:title=" ">
<path fill="none" stroke="#63b8ff" d="M282.75,-468.15C389.81,-456.28 592.51,-433.79 706.26,-421.18"/>
<polygon fill="#63b8ff" stroke="#63b8ff" points="706.75,-424.64 716.31,-420.06 705.98,-417.69 706.75,-424.64"/>
</a>
</g>
</g>
<!-- Node4&#45;&gt;Node2 -->
<g id="edge4_Node000004_Node000002" class="edge">
<title>Node4&#45;&gt;Node2</title>
<g id="a_edge4_Node000004_Node000002"><a xlink:title=" ">
<path fill="none" stroke="#63b8ff" d="M106,-258.34C106,-214.98 106,-83.95 106,-34.85"/>
<polygon fill="#63b8ff" stroke="#63b8ff" points="109.5,-34.71 106,-24.71 102.5,-34.71 109.5,-34.71"/>
</a>
</g>
</g>
<!-- Node4&#45;&gt;Node3 -->
<g id="edge5_Node000004_Node000003" class="edge">
<title>Node4&#45;&gt;Node3</title>
<g id="a_edge5_Node000004_Node000003"><a xlink:title=" ">
<path fill="none" stroke="#63b8ff" d="M109.67,-258.47C119.41,-223.22 148.58,-129.24 198,-66 209.15,-51.74 225.21,-39.21 238.45,-30.26"/>
<polygon fill="#63b8ff" stroke="#63b8ff" points="240.6,-33.04 247.07,-24.65 236.78,-27.17 240.6,-33.04"/>
</a>
</g>
</g>
<!-- Node5 -->
<g id="Node000005" class="node">
<title>Node5</title>
<g id="a_Node000005"><a xlink:href="ui__object_8h.html" target="_top" xlink:title=" ">
<polygon fill="white" stroke="#666666" points="384,-217 278,-217 278,-187 384,-187 384,-217"/>
<text text-anchor="start" x="286" y="-205" font-family="Helvetica,sans-Serif" font-size="10.00">engine/public/ui/ui</text>
<text text-anchor="middle" x="331" y="-194" font-family="Helvetica,sans-Serif" font-size="10.00">_object.h</text>
</a>
</g>
</g>
<!-- Node4&#45;&gt;Node5 -->
<g id="edge6_Node000004_Node000005" class="edge">
<title>Node4&#45;&gt;Node5</title>
<g id="a_edge6_Node000004_Node000005"><a xlink:title=" ">
<path fill="none" stroke="#63b8ff" d="M151.53,-258.44C187.37,-247.37 237.45,-231.9 275.61,-220.11"/>
<polygon fill="#63b8ff" stroke="#63b8ff" points="277.01,-223.34 285.54,-217.04 274.95,-216.65 277.01,-223.34"/>
</a>
</g>
</g>
<!-- Node6 -->
<g id="Node000006" class="node">
<title>Node6</title>
<g id="a_Node000006"><a xlink:href="game_object_8h.html" target="_top" xlink:title=" ">
<polygon fill="white" stroke="#666666" points="551.5,-145.5 398.5,-145.5 398.5,-126.5 551.5,-126.5 551.5,-145.5"/>
<text text-anchor="middle" x="475" y="-133.5" font-family="Helvetica,sans-Serif" font-size="10.00">engine/public/gameObject.h</text>
</a>
</g>
</g>
<!-- Node5&#45;&gt;Node6 -->
<g id="edge7_Node000005_Node000006" class="edge">
<title>Node5&#45;&gt;Node6</title>
<g id="a_edge7_Node000005_Node000006"><a xlink:title=" ">
<path fill="none" stroke="#63b8ff" d="M362.6,-186.95C387.63,-175.83 422.3,-160.42 446.49,-149.67"/>
<polygon fill="#63b8ff" stroke="#63b8ff" points="448.12,-152.78 455.84,-145.52 445.28,-146.38 448.12,-152.78"/>
</a>
</g>
</g>
<!-- Node15 -->
<g id="Node000015" class="node">
<title>Node15</title>
<g id="a_Node000015"><a xlink:href="point_8h.html" target="_top" xlink:title=" ">
<polygon fill="white" stroke="#666666" points="341.5,-151 240.5,-151 240.5,-121 341.5,-121 341.5,-151"/>
<text text-anchor="start" x="248.5" y="-139" font-family="Helvetica,sans-Serif" font-size="10.00">engine/public/util</text>
<text text-anchor="middle" x="291" y="-128" font-family="Helvetica,sans-Serif" font-size="10.00">/point.h</text>
</a>
</g>
</g>
<!-- Node5&#45;&gt;Node15 -->
<g id="edge22_Node000005_Node000015" class="edge">
<title>Node5&#45;&gt;Node15</title>
<g id="a_edge22_Node000005_Node000015"><a xlink:title=" ">
<path fill="none" stroke="#63b8ff" d="M322.12,-186.8C317.15,-178.84 310.84,-168.74 305.19,-159.71"/>
<polygon fill="#63b8ff" stroke="#63b8ff" points="308.12,-157.79 299.85,-151.16 302.18,-161.5 308.12,-157.79"/>
</a>
</g>
</g>
<!-- Node6&#45;&gt;Node3 -->
<g id="edge12_Node000006_Node000003" class="edge">
<title>Node6&#45;&gt;Node3</title>
<g id="a_edge12_Node000006_Node000003"><a xlink:title=" ">
<path fill="none" stroke="#63b8ff" d="M435.6,-126.44C405.39,-118.71 363.52,-105.38 331,-85 308.68,-71.01 288.02,-48.56 275.24,-33.09"/>
<polygon fill="#63b8ff" stroke="#63b8ff" points="277.65,-30.51 268.67,-24.9 272.19,-34.89 277.65,-30.51"/>
</a>
</g>
</g>
<!-- Node7 -->
<g id="Node000007" class="node">
<title>Node7</title>
<g id="a_Node000007"><a xlink:title=" ">
<polygon fill="#e0e0e0" stroke="#999999" points="472,-85 408,-85 408,-66 472,-66 472,-85"/>
<text text-anchor="middle" x="440" y="-73" font-family="Helvetica,sans-Serif" font-size="10.00">algorithm</text>
</a>
</g>
</g>
<!-- Node6&#45;&gt;Node7 -->
<g id="edge8_Node000006_Node000007" class="edge">
<title>Node6&#45;&gt;Node7</title>
<g id="a_edge8_Node000006_Node000007"><a xlink:title=" ">
<path fill="none" stroke="#63b8ff" d="M469.84,-126.37C464.77,-117.9 456.9,-104.74 450.51,-94.07"/>
<polygon fill="#63b8ff" stroke="#63b8ff" points="453.32,-91.95 445.19,-85.17 447.32,-95.55 453.32,-91.95"/>
</a>
</g>
</g>
<!-- Node8 -->
<g id="Node000008" class="node">
<title>Node8</title>
<g id="a_Node000008"><a xlink:title=" ">
<polygon fill="#e0e0e0" stroke="#999999" points="630,-24.5 574,-24.5 574,-5.5 630,-5.5 630,-24.5"/>
<text text-anchor="middle" x="602" y="-12.5" font-family="Helvetica,sans-Serif" font-size="10.00">optional</text>
</a>
</g>
</g>
<!-- Node6&#45;&gt;Node8 -->
<g id="edge9_Node000006_Node000008" class="edge">
<title>Node6&#45;&gt;Node8</title>
<g id="a_edge9_Node000006_Node000008"><a xlink:title=" ">
<path fill="none" stroke="#63b8ff" d="M478.83,-126.48C485.42,-112.51 500.08,-84.45 519,-66 534.86,-50.54 556.35,-37.76 573.49,-28.99"/>
<polygon fill="#63b8ff" stroke="#63b8ff" points="575.09,-32.11 582.5,-24.54 571.99,-25.83 575.09,-32.11"/>
</a>
</g>
</g>
<!-- Node9 -->
<g id="Node000009" class="node">
<title>Node9</title>
<g id="a_Node000009"><a xlink:title=" ">
<polygon fill="#e0e0e0" stroke="#999999" points="390,-85 340,-85 340,-66 390,-66 390,-85"/>
<text text-anchor="middle" x="365" y="-73" font-family="Helvetica,sans-Serif" font-size="10.00">ranges</text>
</a>
</g>
</g>
<!-- Node6&#45;&gt;Node9 -->
<g id="edge10_Node000006_Node000009" class="edge">
<title>Node6&#45;&gt;Node9</title>
<g id="a_edge10_Node000006_Node000009"><a xlink:title=" ">
<path fill="none" stroke="#63b8ff" d="M458.77,-126.37C440.73,-116.78 411.38,-101.17 390.32,-89.97"/>
<polygon fill="#63b8ff" stroke="#63b8ff" points="391.77,-86.77 381.3,-85.17 388.48,-92.95 391.77,-86.77"/>
</a>
</g>
</g>
<!-- Node10 -->
<g id="Node000010" class="node">
<title>Node10</title>
<g id="a_Node000010"><a xlink:title=" ">
<polygon fill="#e0e0e0" stroke="#999999" points="284,-85 240,-85 240,-66 284,-66 284,-85"/>
<text text-anchor="middle" x="262" y="-73" font-family="Helvetica,sans-Serif" font-size="10.00">string</text>
</a>
</g>
</g>
<!-- Node6&#45;&gt;Node10 -->
<g id="edge11_Node000006_Node000010" class="edge">
<title>Node6&#45;&gt;Node10</title>
<g id="a_edge11_Node000006_Node000010"><a xlink:title=" ">
<path fill="none" stroke="#63b8ff" d="M444.03,-126.49C403.93,-115.48 334.39,-96.38 293.86,-85.25"/>
<polygon fill="#63b8ff" stroke="#63b8ff" points="294.79,-81.88 284.22,-82.6 292.94,-88.63 294.79,-81.88"/>
</a>
</g>
</g>
<!-- Node11 -->
<g id="Node000011" class="node">
<title>Node11</title>
<g id="a_Node000011"><a xlink:href="transform_8h.html" target="_top" xlink:title=" ">
<polygon fill="white" stroke="#666666" points="837,-85 695,-85 695,-66 837,-66 837,-85"/>
<text text-anchor="middle" x="766" y="-73" font-family="Helvetica,sans-Serif" font-size="10.00">engine/public/transform.h</text>
</a>
</g>
</g>
<!-- Node6&#45;&gt;Node11 -->
<g id="edge13_Node000006_Node000011" class="edge">
<title>Node6&#45;&gt;Node11</title>
<g id="a_edge13_Node000006_Node000011"><a xlink:title=" ">
<path fill="none" stroke="#63b8ff" d="M517.31,-126.49C569.25,-116.05 657.33,-98.35 713.53,-87.05"/>
<polygon fill="#63b8ff" stroke="#63b8ff" points="714.52,-90.42 723.64,-85.02 713.14,-83.56 714.52,-90.42"/>
</a>
</g>
</g>
<!-- Node14 -->
<g id="Node000014" class="node">
<title>Node14</title>
<g id="a_Node000014"><a xlink:href="component_8h.html" target="_top" xlink:title=" ">
<polygon fill="white" stroke="#666666" points="676.5,-85 527.5,-85 527.5,-66 676.5,-66 676.5,-85"/>
<text text-anchor="middle" x="602" y="-73" font-family="Helvetica,sans-Serif" font-size="10.00">engine/public/component.h</text>
</a>
</g>
</g>
<!-- Node6&#45;&gt;Node14 -->
<g id="edge17_Node000006_Node000014" class="edge">
<title>Node6&#45;&gt;Node14</title>
<g id="a_edge17_Node000006_Node000014"><a xlink:title=" ">
<path fill="none" stroke="#63b8ff" d="M493.47,-126.49C514.72,-116.7 549.85,-100.52 574.37,-89.23"/>
<polygon fill="#63b8ff" stroke="#63b8ff" points="575.89,-92.38 583.51,-85.02 572.96,-86.02 575.89,-92.38"/>
</a>
</g>
</g>
<!-- Node11&#45;&gt;Node8 -->
<g id="edge15_Node000011_Node000008" class="edge">
<title>Node11&#45;&gt;Node8</title>
<g id="a_edge15_Node000011_Node000008"><a xlink:title=" ">
<path fill="none" stroke="#63b8ff" d="M742.15,-65.99C714.1,-55.99 667.33,-39.3 635.6,-27.99"/>
<polygon fill="#63b8ff" stroke="#63b8ff" points="636.47,-24.58 625.88,-24.52 634.12,-31.17 636.47,-24.58"/>
</a>
</g>
</g>
<!-- Node12 -->
<g id="Node000012" class="node">
<title>Node12</title>
<g id="a_Node000012"><a xlink:title=" ">
<polygon fill="#e0e0e0" stroke="#999999" points="893,-24.5 835,-24.5 835,-5.5 893,-5.5 893,-24.5"/>
<text text-anchor="middle" x="864" y="-12.5" font-family="Helvetica,sans-Serif" font-size="10.00">memory</text>
</a>
</g>
</g>
<!-- Node11&#45;&gt;Node12 -->
<g id="edge14_Node000011_Node000012" class="edge">
<title>Node11&#45;&gt;Node12</title>
<g id="a_edge14_Node000011_Node000012"><a xlink:title=" ">
<path fill="none" stroke="#63b8ff" d="M780.46,-65.87C796.31,-56.41 821.97,-41.09 840.68,-29.92"/>
<polygon fill="#63b8ff" stroke="#63b8ff" points="842.69,-32.8 849.48,-24.67 839.1,-26.79 842.69,-32.8"/>
</a>
</g>
</g>
<!-- Node13 -->
<g id="Node000013" class="node">
<title>Node13</title>
<g id="a_Node000013"><a xlink:href="vector3_8h.html" target="_top" xlink:title=" ">
<polygon fill="white" stroke="#666666" points="816.5,-30 715.5,-30 715.5,0 816.5,0 816.5,-30"/>
<text text-anchor="start" x="723.5" y="-18" font-family="Helvetica,sans-Serif" font-size="10.00">engine/public/util</text>
<text text-anchor="middle" x="766" y="-7" font-family="Helvetica,sans-Serif" font-size="10.00">/vector3.h</text>
</a>
</g>
</g>
<!-- Node11&#45;&gt;Node13 -->
<g id="edge16_Node000011_Node000013" class="edge">
<title>Node11&#45;&gt;Node13</title>
<g id="a_edge16_Node000011_Node000013"><a xlink:title=" ">
<path fill="none" stroke="#63b8ff" d="M766,-65.87C766,-59.11 766,-49.35 766,-40.26"/>
<polygon fill="#63b8ff" stroke="#63b8ff" points="769.5,-40.11 766,-30.11 762.5,-40.11 769.5,-40.11"/>
</a>
</g>
</g>
<!-- Node14&#45;&gt;Node2 -->
<g id="edge18_Node000014_Node000002" class="edge">
<title>Node14&#45;&gt;Node2</title>
<g id="a_edge18_Node000014_Node000002"><a xlink:title=" ">
<path fill="none" stroke="#63b8ff" d="M529.88,-65.99C425.03,-53.63 233.78,-31.07 148.74,-21.04"/>
<polygon fill="#63b8ff" stroke="#63b8ff" points="149,-17.55 138.66,-19.85 148.18,-24.5 149,-17.55"/>
</a>
</g>
</g>
<!-- Node14&#45;&gt;Node3 -->
<g id="edge21_Node000014_Node000003" class="edge">
<title>Node14&#45;&gt;Node3</title>
<g id="a_edge21_Node000014_Node000003"><a xlink:title=" ">
<path fill="none" stroke="#63b8ff" d="M552.56,-65.99C482.54,-53.95 356.31,-32.23 295.94,-21.84"/>
<polygon fill="#63b8ff" stroke="#63b8ff" points="296.26,-18.34 285.81,-20.1 295.07,-25.24 296.26,-18.34"/>
</a>
</g>
</g>
<!-- Node14&#45;&gt;Node8 -->
<g id="edge20_Node000014_Node000008" class="edge">
<title>Node14&#45;&gt;Node8</title>
<g id="a_edge20_Node000014_Node000008"><a xlink:title=" ">
<path fill="none" stroke="#63b8ff" d="M602,-65.87C602,-57.75 602,-45.31 602,-34.89"/>
<polygon fill="#63b8ff" stroke="#63b8ff" points="605.5,-34.67 602,-24.67 598.5,-34.67 605.5,-34.67"/>
</a>
</g>
</g>
<!-- Node14&#45;&gt;Node12 -->
<g id="edge19_Node000014_Node000012" class="edge">
<title>Node14&#45;&gt;Node12</title>
<g id="a_edge19_Node000014_Node000012"><a xlink:title=" ">
<path fill="none" stroke="#63b8ff" d="M657.34,-65.99C703.03,-58.38 769.33,-45.96 826,-30 828.28,-29.36 830.63,-28.64 832.97,-27.88"/>
<polygon fill="#63b8ff" stroke="#63b8ff" points="834.18,-31.16 842.49,-24.59 831.9,-24.55 834.18,-31.16"/>
</a>
</g>
</g>
<!-- Node16&#45;&gt;Node10 -->
<g id="edge24_Node000016_Node000010" class="edge">
<title>Node16&#45;&gt;Node10</title>
<g id="a_edge24_Node000016_Node000010"><a xlink:title=" ">
<path fill="none" stroke="#63b8ff" d="M449.7,-395.68C447.89,-348.6 435.48,-197.19 351,-121 334.36,-105.99 311.74,-94.77 293.47,-87.35"/>
<polygon fill="#63b8ff" stroke="#63b8ff" points="294.69,-84.07 284.1,-83.72 292.16,-90.6 294.69,-84.07"/>
</a>
</g>
</g>
<!-- Node16&#45;&gt;Node14 -->
<g id="edge25_Node000016_Node000014" class="edge">
<title>Node16&#45;&gt;Node14</title>
<g id="a_edge25_Node000016_Node000014"><a xlink:title=" ">
<path fill="none" stroke="#63b8ff" d="M452,-395.88C457.74,-358.98 476.86,-257.61 522,-187 534.71,-167.13 546.46,-169.57 561,-151 574.89,-133.26 586.78,-110.2 594.13,-94.47"/>
<polygon fill="#63b8ff" stroke="#63b8ff" points="597.34,-95.87 598.28,-85.31 590.96,-92.98 597.34,-95.87"/>
</a>
</g>
</g>
<!-- Node16&#45;&gt;Node15 -->
<g id="edge34_Node000016_Node000015" class="edge">
<title>Node16&#45;&gt;Node15</title>
<g id="a_edge34_Node000016_Node000015"><a xlink:title=" ">
<path fill="none" stroke="#63b8ff" d="M428.61,-395.94C387.98,-367.78 300.89,-299.97 269,-217 261.85,-198.41 268.85,-176.55 276.79,-160.39"/>
<polygon fill="#63b8ff" stroke="#63b8ff" points="280.11,-161.61 281.74,-151.14 273.94,-158.31 280.11,-161.61"/>
</a>
</g>
</g>
<!-- Node17 -->
<g id="Node000017" class="node">
<title>Node17</title>
<g id="a_Node000017"><a xlink:href="renderable_8h.html" target="_top" xlink:title=" ">
<polygon fill="white" stroke="#666666" points="760.5,-360 637.5,-360 637.5,-330 760.5,-330 760.5,-360"/>
<text text-anchor="start" x="645.5" y="-348" font-family="Helvetica,sans-Serif" font-size="10.00">engine/core/rendering</text>
<text text-anchor="middle" x="699" y="-337" font-family="Helvetica,sans-Serif" font-size="10.00">/renderable.h</text>
</a>
</g>
</g>
<!-- Node16&#45;&gt;Node17 -->
<g id="edge26_Node000016_Node000017" class="edge">
<title>Node16&#45;&gt;Node17</title>
<g id="a_edge26_Node000016_Node000017"><a xlink:title=" ">
<path fill="none" stroke="#63b8ff" d="M504.64,-395.95C543,-386.1 594.43,-372.88 634.75,-362.51"/>
<polygon fill="#63b8ff" stroke="#63b8ff" points="635.67,-365.89 644.48,-360.01 633.93,-359.11 635.67,-365.89"/>
</a>
</g>
</g>
<!-- Node20 -->
<g id="Node000020" class="node">
<title>Node20</title>
<g id="a_Node000020"><a xlink:href="color_8h.html" target="_top" xlink:title=" ">
<polygon fill="white" stroke="#666666" points="709.5,-151 608.5,-151 608.5,-121 709.5,-121 709.5,-151"/>
<text text-anchor="start" x="616.5" y="-139" font-family="Helvetica,sans-Serif" font-size="10.00">engine/public/util</text>
<text text-anchor="middle" x="659" y="-128" font-family="Helvetica,sans-Serif" font-size="10.00">/color.h</text>
</a>
</g>
</g>
<!-- Node16&#45;&gt;Node20 -->
<g id="edge33_Node000016_Node000020" class="edge">
<title>Node16&#45;&gt;Node20</title>
<g id="a_edge33_Node000016_Node000020"><a xlink:title=" ">
<path fill="none" stroke="#63b8ff" d="M468.81,-395.95C479.73,-386.84 492.9,-374.08 501,-360 540.57,-291.24 493.69,-247.51 545,-187 558.87,-170.64 579.13,-159.45 598.73,-151.88"/>
<polygon fill="#63b8ff" stroke="#63b8ff" points="600.04,-155.13 608.26,-148.45 597.67,-148.54 600.04,-155.13"/>
</a>
</g>
</g>
<!-- Node17&#45;&gt;Node12 -->
<g id="edge27_Node000017_Node000012" class="edge">
<title>Node17&#45;&gt;Node12</title>
<g id="a_edge27_Node000017_Node000012"><a xlink:title=" ">
<path fill="none" stroke="#63b8ff" d="M710.99,-329.59C718.83,-319.85 729.06,-306.52 737,-294 793.12,-205.54 808.32,-182.75 846,-85 852.4,-68.41 857.28,-48.72 860.34,-34.63"/>
<polygon fill="#63b8ff" stroke="#63b8ff" points="863.79,-35.19 862.39,-24.69 856.94,-33.78 863.79,-35.19"/>
</a>
</g>
</g>
<!-- Node17&#45;&gt;Node14 -->
<g id="edge32_Node000017_Node000014" class="edge">
<title>Node17&#45;&gt;Node14</title>
<g id="a_edge32_Node000017_Node000014"><a xlink:title=" ">
<path fill="none" stroke="#63b8ff" d="M705.94,-329.9C723.41,-292.16 764.68,-187.24 719,-121 707.97,-105 690.37,-94.75 672.14,-88.18"/>
<polygon fill="#63b8ff" stroke="#63b8ff" points="673.17,-84.84 662.58,-85.08 671,-91.5 673.17,-84.84"/>
</a>
</g>
</g>
<!-- Node18 -->
<g id="Node000018" class="node">
<title>Node18</title>
<g id="a_Node000018"><a xlink:href="irendering__strategy_8h.html" target="_top" xlink:title=" ">
<polygon fill="white" stroke="#666666" points="682.5,-294 559.5,-294 559.5,-253 682.5,-253 682.5,-294"/>
<text text-anchor="start" x="567.5" y="-282" font-family="Helvetica,sans-Serif" font-size="10.00">engine/core/rendering</text>
<text text-anchor="start" x="567.5" y="-271" font-family="Helvetica,sans-Serif" font-size="10.00">/strategies/irendering</text>
<text text-anchor="middle" x="621" y="-260" font-family="Helvetica,sans-Serif" font-size="10.00">_strategy.h</text>
</a>
</g>
</g>
<!-- Node17&#45;&gt;Node18 -->
<g id="edge28_Node000017_Node000018" class="edge">
<title>Node17&#45;&gt;Node18</title>
<g id="a_edge28_Node000017_Node000018"><a xlink:title=" ">
<path fill="none" stroke="#63b8ff" d="M683.22,-329.94C673.81,-321.56 661.58,-310.65 650.45,-300.74"/>
<polygon fill="#63b8ff" stroke="#63b8ff" points="652.76,-298.11 642.97,-294.07 648.11,-303.34 652.76,-298.11"/>
</a>
</g>
</g>
<!-- Node19 -->
<g id="Node000019" class="node">
<title>Node19</title>
<g id="a_Node000019"><a xlink:href="camera_8h.html" target="_top" xlink:title=" ">
<polygon fill="white" stroke="#666666" points="684.5,-211.5 553.5,-211.5 553.5,-192.5 684.5,-192.5 684.5,-211.5"/>
<text text-anchor="middle" x="619" y="-199.5" font-family="Helvetica,sans-Serif" font-size="10.00">engine/public/camera.h</text>
</a>
</g>
</g>
<!-- Node18&#45;&gt;Node19 -->
<g id="edge29_Node000018_Node000019" class="edge">
<title>Node18&#45;&gt;Node19</title>
<g id="a_edge29_Node000018_Node000019"><a xlink:title=" ">
<path fill="none" stroke="#63b8ff" d="M620.43,-252.77C620.15,-243.08 619.82,-231.46 619.54,-221.88"/>
<polygon fill="#63b8ff" stroke="#63b8ff" points="623.04,-221.72 619.25,-211.82 616.04,-221.92 623.04,-221.72"/>
</a>
</g>
</g>
<!-- Node19&#45;&gt;Node6 -->
<g id="edge30_Node000019_Node000006" class="edge">
<title>Node19&#45;&gt;Node6</title>
<g id="a_edge30_Node000019_Node000006"><a xlink:title=" ">
<path fill="none" stroke="#63b8ff" d="M599.58,-192.37C574.99,-181.44 532.43,-162.52 503.99,-149.88"/>
<polygon fill="#63b8ff" stroke="#63b8ff" points="505.13,-146.56 494.57,-145.7 502.29,-152.96 505.13,-146.56"/>
</a>
</g>
</g>
<!-- Node19&#45;&gt;Node20 -->
<g id="edge31_Node000019_Node000020" class="edge">
<title>Node19&#45;&gt;Node20</title>
<g id="a_edge31_Node000019_Node000020"><a xlink:title=" ">
<path fill="none" stroke="#63b8ff" d="M624.39,-192.37C629.58,-184.08 637.64,-171.18 644.67,-159.92"/>
<polygon fill="#63b8ff" stroke="#63b8ff" points="647.69,-161.7 650.02,-151.36 641.76,-157.99 647.69,-161.7"/>
</a>
</g>
</g>
<!-- Node21&#45;&gt;Node14 -->
<g id="edge38_Node000021_Node000014" class="edge">
<title>Node21&#45;&gt;Node14</title>
<g id="a_edge38_Node000021_Node000014"><a xlink:title=" ">
<path fill="none" stroke="#63b8ff" d="M795.79,-395.73C806.72,-371.43 827,-320.19 827,-274.5 827,-274.5 827,-274.5 827,-201 827,-131.78 744.47,-100.74 679.38,-87.02"/>
<polygon fill="#63b8ff" stroke="#63b8ff" points="680,-83.58 669.51,-85.04 678.62,-90.44 680,-83.58"/>
</a>
</g>
</g>
<!-- Node21&#45;&gt;Node17 -->
<g id="edge39_Node000021_Node000017" class="edge">
<title>Node21&#45;&gt;Node17</title>
<g id="a_edge39_Node000021_Node000017"><a xlink:title=" ">
<path fill="none" stroke="#63b8ff" d="M769.03,-395.8C756.79,-387.1 740.94,-375.82 727.41,-366.2"/>
<polygon fill="#63b8ff" stroke="#63b8ff" points="729.1,-363.11 718.92,-360.16 725.04,-368.81 729.1,-363.11"/>
</a>
</g>
</g>
<!-- Node21&#45;&gt;Node20 -->
<g id="edge40_Node000021_Node000020" class="edge">
<title>Node21&#45;&gt;Node20</title>
<g id="a_edge40_Node000021_Node000020"><a xlink:title=" ">
<path fill="none" stroke="#63b8ff" d="M786.76,-395.8C783.94,-379.55 778.42,-352.3 770,-330 744.59,-262.66 731.6,-248.37 694,-187 688.33,-177.75 681.6,-167.89 675.55,-159.4"/>
<polygon fill="#63b8ff" stroke="#63b8ff" points="678.27,-157.19 669.58,-151.13 672.6,-161.29 678.27,-157.19"/>
</a>
</g>
</g>
<!-- Node22 -->
<g id="Node000022" class="node">
<title>Node22</title>
<g id="a_Node000022"><a xlink:href="texture_8h.html" target="_top" xlink:title=" ">
<polygon fill="white" stroke="#666666" points="978.5,-360 855.5,-360 855.5,-330 978.5,-330 978.5,-360"/>
<text text-anchor="start" x="863.5" y="-348" font-family="Helvetica,sans-Serif" font-size="10.00">engine/core/rendering</text>
<text text-anchor="middle" x="917" y="-337" font-family="Helvetica,sans-Serif" font-size="10.00">/texture.h</text>
</a>
</g>
</g>
<!-- Node21&#45;&gt;Node22 -->
<g id="edge36_Node000021_Node000022" class="edge">
<title>Node21&#45;&gt;Node22</title>
<g id="a_edge36_Node000021_Node000022"><a xlink:title=" ">
<path fill="none" stroke="#63b8ff" d="M817.09,-395.95C835.51,-386.74 859.81,-374.6 879.83,-364.59"/>
<polygon fill="#63b8ff" stroke="#63b8ff" points="881.6,-367.61 888.98,-360.01 878.47,-361.35 881.6,-367.61"/>
</a>
</g>
</g>
<!-- Node22&#45;&gt;Node12 -->
<g id="edge37_Node000022_Node000012" class="edge">
<title>Node22&#45;&gt;Node12</title>
<g id="a_edge37_Node000022_Node000012"><a xlink:title=" ">
<path fill="none" stroke="#63b8ff" d="M915.81,-329.6C913.82,-304.1 910,-249.32 910,-203 910,-203 910,-203 910,-135 910,-96.6 888.91,-55.64 875.29,-33.2"/>
<polygon fill="#63b8ff" stroke="#63b8ff" points="878.11,-31.12 869.83,-24.52 872.19,-34.84 878.11,-31.12"/>
</a>
</g>
</g>
</g>
</svg>
