<?xml version="1.0" encoding="UTF-8" standalone="no"?>
<!DOCTYPE svg PUBLIC "-//W3C//DTD SVG 1.1//EN"
 "http://www.w3.org/Graphics/SVG/1.1/DTD/svg11.dtd">
<!-- Generated by graphviz version 2.43.0 (0)
 -->
<!-- Title: include/engine/public/util/vector3.h Pages: 1 -->
<svg width="1693pt" height="478pt"
 viewBox="0.00 0.00 1692.50 478.00" xmlns="http://www.w3.org/2000/svg" xmlns:xlink="http://www.w3.org/1999/xlink">
<g id="graph0" class="graph" transform="scale(1 1) rotate(0) translate(4 474)">
<title>include/engine/public/util/vector3.h</title>
<!-- Node1 -->
<g id="Node000001" class="node">
<title>Node1</title>
<g id="a_Node000001"><a xlink:title=" ">
<polygon fill="#999999" stroke="#666666" points="433,-470 313,-470 313,-440 433,-440 433,-470"/>
<text text-anchor="start" x="321" y="-458" font-family="Helvetica,sans-Serif" font-size="10.00">include/engine/public</text>
<text text-anchor="middle" x="373" y="-447" font-family="Helvetica,sans-Serif" font-size="10.00">/util/vector3.h</text>
</a>
</g>
</g>
<!-- Node2 -->
<g id="Node000002" class="node">
<title>Node2</title>
<g id="a_Node000002"><a xlink:href="physics__creation__factory_8h.html" target="_top" xlink:title=" ">
<polygon fill="white" stroke="#666666" points="307,-338 163,-338 163,-297 307,-297 307,-338"/>
<text text-anchor="start" x="171" y="-326" font-family="Helvetica,sans-Serif" font-size="10.00">include/engine/physics</text>
<text text-anchor="start" x="171" y="-315" font-family="Helvetica,sans-Serif" font-size="10.00">/creation/physics_creation</text>
<text text-anchor="middle" x="235" y="-304" font-family="Helvetica,sans-Serif" font-size="10.00">_factory.h</text>
</a>
</g>
</g>
<!-- Node1&#45;&gt;Node2 -->
<g id="edge1_Node000001_Node000002" class="edge">
<title>Node1&#45;&gt;Node2</title>
<g id="a_edge1_Node000001_Node000002"><a xlink:title=" ">
<path fill="none" stroke="#63b8ff" d="M303.2,-437.36C284.88,-429.91 266.72,-419.23 254,-404 238.5,-385.44 234.93,-356.96 234.44,-338.03"/>
<polygon fill="#63b8ff" stroke="#63b8ff" points="302.17,-440.71 312.76,-440.97 304.64,-434.16 302.17,-440.71"/>
</a>
</g>
</g>
<!-- Node4 -->
<g id="Node000004" class="node">
<title>Node4</title>
<g id="a_Node000004"><a xlink:href="physics__world_8h.html" target="_top" xlink:title=" ">
<polygon fill="white" stroke="#666666" points="395,-261 267,-261 267,-231 395,-231 395,-261"/>
<text text-anchor="start" x="275" y="-249" font-family="Helvetica,sans-Serif" font-size="10.00">include/engine/physics</text>
<text text-anchor="middle" x="331" y="-238" font-family="Helvetica,sans-Serif" font-size="10.00">/world/physics_world.h</text>
</a>
</g>
</g>
<!-- Node1&#45;&gt;Node4 -->
<g id="edge13_Node000001_Node000004" class="edge">
<title>Node1&#45;&gt;Node4</title>
<g id="a_edge13_Node000001_Node000004"><a xlink:title=" ">
<path fill="none" stroke="#63b8ff" d="M388.34,-431.29C393.04,-423.06 397.61,-413.45 400,-404 403.27,-391.07 403.28,-386.92 400,-374 388.69,-329.49 358.29,-283.72 341.87,-261.23"/>
<polygon fill="#63b8ff" stroke="#63b8ff" points="385.29,-429.56 383.07,-439.92 391.27,-433.2 385.29,-429.56"/>
</a>
</g>
</g>
<!-- Node9 -->
<g id="Node000009" class="node">
<title>Node9</title>
<g id="a_Node000009"><a xlink:href="body__2d_8h.html" target="_top" xlink:title=" ">
<polygon fill="white" stroke="#666666" points="391,-404 263,-404 263,-374 391,-374 391,-404"/>
<text text-anchor="start" x="271" y="-392" font-family="Helvetica,sans-Serif" font-size="10.00">include/engine/physics</text>
<text text-anchor="middle" x="327" y="-381" font-family="Helvetica,sans-Serif" font-size="10.00">/world/body/body_2d.h</text>
</a>
</g>
</g>
<!-- Node1&#45;&gt;Node9 -->
<g id="edge10_Node000001_Node000009" class="edge">
<title>Node1&#45;&gt;Node9</title>
<g id="a_edge10_Node000001_Node000009"><a xlink:title=" ">
<path fill="none" stroke="#63b8ff" d="M356.85,-431.53C350.31,-422.43 342.95,-412.19 337.18,-404.16"/>
<polygon fill="#63b8ff" stroke="#63b8ff" points="354.11,-433.72 362.79,-439.8 359.8,-429.63 354.11,-433.72"/>
</a>
</g>
</g>
<!-- Node10 -->
<g id="Node000010" class="node">
<title>Node10</title>
<g id="a_Node000010"><a xlink:href="transform_8h.html" target="_top" xlink:title=" ">
<polygon fill="white" stroke="#666666" points="662,-404 542,-404 542,-374 662,-374 662,-404"/>
<text text-anchor="start" x="550" y="-392" font-family="Helvetica,sans-Serif" font-size="10.00">include/engine/public</text>
<text text-anchor="middle" x="602" y="-381" font-family="Helvetica,sans-Serif" font-size="10.00">/transform.h</text>
</a>
</g>
</g>
<!-- Node1&#45;&gt;Node10 -->
<g id="edge14_Node000001_Node000010" class="edge">
<title>Node1&#45;&gt;Node10</title>
<g id="a_edge14_Node000001_Node000010"><a xlink:title=" ">
<path fill="none" stroke="#63b8ff" d="M432.92,-437.25C469.92,-426.91 516.84,-413.8 551.86,-404.01"/>
<polygon fill="#63b8ff" stroke="#63b8ff" points="431.94,-433.89 423.26,-439.95 433.83,-440.63 431.94,-433.89"/>
</a>
</g>
</g>
<!-- Node3 -->
<g id="Node000003" class="node">
<title>Node3</title>
<g id="a_Node000003"><a xlink:href="physics__service_8h.html" target="_top" xlink:title=" ">
<polygon fill="white" stroke="#666666" points="341,-189.5 213,-189.5 213,-159.5 341,-159.5 341,-189.5"/>
<text text-anchor="start" x="221" y="-177.5" font-family="Helvetica,sans-Serif" font-size="10.00">include/engine/physics</text>
<text text-anchor="middle" x="277" y="-166.5" font-family="Helvetica,sans-Serif" font-size="10.00">/physics_service.h</text>
</a>
</g>
</g>
<!-- Node2&#45;&gt;Node3 -->
<g id="edge2_Node000002_Node000003" class="edge">
<title>Node2&#45;&gt;Node3</title>
<g id="a_edge2_Node000002_Node000003"><a xlink:title=" ">
<path fill="none" stroke="#63b8ff" d="M242.53,-286.56C246.8,-270.09 252.4,-249.33 258,-231 262.34,-216.78 267.91,-200.73 271.9,-189.56"/>
<polygon fill="#63b8ff" stroke="#63b8ff" points="239.02,-286.14 239.93,-296.7 245.8,-287.88 239.02,-286.14"/>
</a>
</g>
</g>
<!-- Node2&#45;&gt;Node4 -->
<g id="edge3_Node000002_Node000004" class="edge">
<title>Node2&#45;&gt;Node4</title>
<g id="a_edge3_Node000002_Node000004"><a xlink:title=" ">
<path fill="none" stroke="#63b8ff" d="M270.41,-290.87C284.3,-280.81 299.7,-269.66 311.51,-261.11"/>
<polygon fill="#63b8ff" stroke="#63b8ff" points="268.04,-288.26 262,-296.96 272.15,-293.93 268.04,-288.26"/>
</a>
</g>
</g>
<!-- Node8 -->
<g id="Node000008" class="node">
<title>Node8</title>
<g id="a_Node000008"><a xlink:href="rigidbody__2d_8h.html" target="_top" xlink:title=" ">
<polygon fill="white" stroke="#666666" points="210.5,-261 55.5,-261 55.5,-231 210.5,-231 210.5,-261"/>
<text text-anchor="start" x="63.5" y="-249" font-family="Helvetica,sans-Serif" font-size="10.00">include/engine/public</text>
<text text-anchor="middle" x="133" y="-238" font-family="Helvetica,sans-Serif" font-size="10.00">/components/rigidbody_2d.h</text>
</a>
</g>
</g>
<!-- Node2&#45;&gt;Node8 -->
<g id="edge8_Node000002_Node000008" class="edge">
<title>Node2&#45;&gt;Node8</title>
<g id="a_edge8_Node000002_Node000008"><a xlink:title=" ">
<path fill="none" stroke="#63b8ff" d="M197.8,-291.15C182.93,-281.02 166.37,-269.74 153.71,-261.11"/>
<polygon fill="#63b8ff" stroke="#63b8ff" points="196.08,-294.22 206.32,-296.96 200.02,-288.43 196.08,-294.22"/>
</a>
</g>
</g>
<!-- Node4&#45;&gt;Node3 -->
<g id="edge4_Node000004_Node000003" class="edge">
<title>Node4&#45;&gt;Node3</title>
<g id="a_edge4_Node000004_Node000003"><a xlink:title=" ">
<path fill="none" stroke="#63b8ff" d="M313.93,-223.03C305.42,-212.07 295.37,-199.15 287.91,-189.54"/>
<polygon fill="#63b8ff" stroke="#63b8ff" points="311.17,-225.19 320.07,-230.94 316.7,-220.89 311.17,-225.19"/>
</a>
</g>
</g>
<!-- Node5 -->
<g id="Node000005" class="node">
<title>Node5</title>
<g id="a_Node000005"><a xlink:href="collider__2d_8h.html" target="_top" xlink:title=" ">
<polygon fill="white" stroke="#666666" points="195,-195 71,-195 71,-154 195,-154 195,-195"/>
<text text-anchor="start" x="79" y="-183" font-family="Helvetica,sans-Serif" font-size="10.00">include/engine/public</text>
<text text-anchor="start" x="79" y="-172" font-family="Helvetica,sans-Serif" font-size="10.00">/components/colliders</text>
<text text-anchor="middle" x="133" y="-161" font-family="Helvetica,sans-Serif" font-size="10.00">/collider_2d.h</text>
</a>
</g>
</g>
<!-- Node4&#45;&gt;Node5 -->
<g id="edge5_Node000004_Node000005" class="edge">
<title>Node4&#45;&gt;Node5</title>
<g id="a_edge5_Node000004_Node000005"><a xlink:title=" ">
<path fill="none" stroke="#63b8ff" d="M281.29,-227.55C253.14,-217.67 217.85,-205.28 188.76,-195.07"/>
<polygon fill="#63b8ff" stroke="#63b8ff" points="280.34,-230.93 290.93,-230.94 282.66,-224.32 280.34,-230.93"/>
</a>
</g>
</g>
<!-- Node6 -->
<g id="Node000006" class="node">
<title>Node6</title>
<g id="a_Node000006"><a xlink:href="box__collider__2d_8h.html" target="_top" xlink:title=" ">
<polygon fill="white" stroke="#666666" points="124,-118 0,-118 0,-77 124,-77 124,-118"/>
<text text-anchor="start" x="8" y="-106" font-family="Helvetica,sans-Serif" font-size="10.00">include/engine/public</text>
<text text-anchor="start" x="8" y="-95" font-family="Helvetica,sans-Serif" font-size="10.00">/components/colliders</text>
<text text-anchor="middle" x="62" y="-84" font-family="Helvetica,sans-Serif" font-size="10.00">/box_collider_2d.h</text>
</a>
</g>
</g>
<!-- Node5&#45;&gt;Node6 -->
<g id="edge6_Node000005_Node000006" class="edge">
<title>Node5&#45;&gt;Node6</title>
<g id="a_edge6_Node000005_Node000006"><a xlink:title=" ">
<path fill="none" stroke="#63b8ff" d="M107.45,-146.51C98.55,-137.11 88.75,-126.76 80.53,-118.07"/>
<polygon fill="#63b8ff" stroke="#63b8ff" points="104.93,-148.94 114.35,-153.79 110.01,-144.13 104.93,-148.94"/>
</a>
</g>
</g>
<!-- Node7 -->
<g id="Node000007" class="node">
<title>Node7</title>
<g id="a_Node000007"><a xlink:href="circle__collider__2d_8h.html" target="_top" xlink:title=" ">
<polygon fill="white" stroke="#666666" points="266,-118 142,-118 142,-77 266,-77 266,-118"/>
<text text-anchor="start" x="150" y="-106" font-family="Helvetica,sans-Serif" font-size="10.00">include/engine/public</text>
<text text-anchor="start" x="150" y="-95" font-family="Helvetica,sans-Serif" font-size="10.00">/components/colliders</text>
<text text-anchor="middle" x="204" y="-84" font-family="Helvetica,sans-Serif" font-size="10.00">/circle_collider_2d.h</text>
</a>
</g>
</g>
<!-- Node5&#45;&gt;Node7 -->
<g id="edge7_Node000005_Node000007" class="edge">
<title>Node5&#45;&gt;Node7</title>
<g id="a_edge7_Node000005_Node000007"><a xlink:title=" ">
<path fill="none" stroke="#63b8ff" d="M158.55,-146.51C167.45,-137.11 177.25,-126.76 185.47,-118.07"/>
<polygon fill="#63b8ff" stroke="#63b8ff" points="155.99,-144.13 151.65,-153.79 161.07,-148.94 155.99,-144.13"/>
</a>
</g>
</g>
<!-- Node8&#45;&gt;Node5 -->
<g id="edge9_Node000008_Node000005" class="edge">
<title>Node8&#45;&gt;Node5</title>
<g id="a_edge9_Node000008_Node000005"><a xlink:title=" ">
<path fill="none" stroke="#63b8ff" d="M133,-220.91C133,-212.47 133,-203.1 133,-195.07"/>
<polygon fill="#63b8ff" stroke="#63b8ff" points="129.5,-220.94 133,-230.94 136.5,-220.94 129.5,-220.94"/>
</a>
</g>
</g>
<!-- Node9&#45;&gt;Node2 -->
<g id="edge11_Node000009_Node000002" class="edge">
<title>Node9&#45;&gt;Node2</title>
<g id="a_edge11_Node000009_Node000002"><a xlink:title=" ">
<path fill="none" stroke="#63b8ff" d="M300.23,-367.77C287.84,-358.42 273.19,-347.35 260.91,-338.07"/>
<polygon fill="#63b8ff" stroke="#63b8ff" points="298.29,-370.7 308.38,-373.94 302.51,-365.12 298.29,-370.7"/>
</a>
</g>
</g>
<!-- Node9&#45;&gt;Node4 -->
<g id="edge12_Node000009_Node000004" class="edge">
<title>Node9&#45;&gt;Node4</title>
<g id="a_edge12_Node000009_Node000004"><a xlink:title=" ">
<path fill="none" stroke="#63b8ff" d="M327.69,-363.7C328.53,-334.22 329.91,-285.49 330.59,-261.4"/>
<polygon fill="#63b8ff" stroke="#63b8ff" points="324.18,-363.87 327.4,-373.96 331.18,-364.07 324.18,-363.87"/>
</a>
</g>
</g>
<!-- Node11 -->
<g id="Node000011" class="node">
<title>Node11</title>
<g id="a_Node000011"><a xlink:href="game_object_8h.html" target="_top" xlink:title=" ">
<polygon fill="white" stroke="#666666" points="744,-332.5 624,-332.5 624,-302.5 744,-302.5 744,-332.5"/>
<text text-anchor="start" x="632" y="-320.5" font-family="Helvetica,sans-Serif" font-size="10.00">include/engine/public</text>
<text text-anchor="middle" x="684" y="-309.5" font-family="Helvetica,sans-Serif" font-size="10.00">/gameObject.h</text>
</a>
</g>
</g>
<!-- Node10&#45;&gt;Node11 -->
<g id="edge15_Node000010_Node000011" class="edge">
<title>Node10&#45;&gt;Node11</title>
<g id="a_edge15_Node000010_Node000011"><a xlink:title=" ">
<path fill="none" stroke="#63b8ff" d="M626.41,-367.31C639.65,-356.09 655.66,-342.52 667.43,-332.54"/>
<polygon fill="#63b8ff" stroke="#63b8ff" points="623.96,-364.8 618.59,-373.94 628.49,-370.14 623.96,-364.8"/>
</a>
</g>
</g>
<!-- Node12 -->
<g id="Node000012" class="node">
<title>Node12</title>
<g id="a_Node000012"><a xlink:href="renderer_8h.html" target="_top" xlink:title=" ">
<polygon fill="white" stroke="#666666" points="1104.5,-261 985.5,-261 985.5,-231 1104.5,-231 1104.5,-261"/>
<text text-anchor="start" x="993.5" y="-249" font-family="Helvetica,sans-Serif" font-size="10.00">include/engine/core</text>
<text text-anchor="middle" x="1045" y="-238" font-family="Helvetica,sans-Serif" font-size="10.00">/rendering/renderer.h</text>
</a>
</g>
</g>
<!-- Node11&#45;&gt;Node12 -->
<g id="edge16_Node000011_Node000012" class="edge">
<title>Node11&#45;&gt;Node12</title>
<g id="a_edge16_Node000011_Node000012"><a xlink:title=" ">
<path fill="none" stroke="#63b8ff" d="M754.11,-303C821.4,-290.05 921.92,-270.69 985.44,-258.47"/>
<polygon fill="#63b8ff" stroke="#63b8ff" points="753.18,-299.62 744.02,-304.95 754.5,-306.49 753.18,-299.62"/>
</a>
</g>
</g>
<!-- Node21 -->
<g id="Node000021" class="node">
<title>Node21</title>
<g id="a_Node000021"><a xlink:href="behavior_8h.html" target="_top" xlink:title=" ">
<polygon fill="white" stroke="#666666" points="545,-261 425,-261 425,-231 545,-231 545,-261"/>
<text text-anchor="start" x="433" y="-249" font-family="Helvetica,sans-Serif" font-size="10.00">include/engine/public</text>
<text text-anchor="middle" x="485" y="-238" font-family="Helvetica,sans-Serif" font-size="10.00">/behavior.h</text>
</a>
</g>
</g>
<!-- Node11&#45;&gt;Node21 -->
<g id="edge28_Node000011_Node000021" class="edge">
<title>Node11&#45;&gt;Node21</title>
<g id="a_edge28_Node000011_Node000021"><a xlink:title=" ">
<path fill="none" stroke="#63b8ff" d="M634.08,-299.07C600.43,-287.31 556.62,-272.01 525.21,-261.04"/>
<polygon fill="#63b8ff" stroke="#63b8ff" points="633.13,-302.44 643.73,-302.44 635.44,-295.83 633.13,-302.44"/>
</a>
</g>
</g>
<!-- Node23 -->
<g id="Node000023" class="node">
<title>Node23</title>
<g id="a_Node000023"><a xlink:href="ui__object_8h.html" target="_top" xlink:title=" ">
<polygon fill="white" stroke="#666666" points="758,-261 610,-261 610,-231 758,-231 758,-261"/>
<text text-anchor="start" x="618" y="-249" font-family="Helvetica,sans-Serif" font-size="10.00">include/engine/public</text>
<text text-anchor="middle" x="684" y="-238" font-family="Helvetica,sans-Serif" font-size="10.00">/components/ui/ui_object.h</text>
</a>
</g>
</g>
<!-- Node11&#45;&gt;Node23 -->
<g id="edge30_Node000011_Node000023" class="edge">
<title>Node11&#45;&gt;Node23</title>
<g id="a_edge30_Node000011_Node000023"><a xlink:title=" ">
<path fill="none" stroke="#63b8ff" d="M684,-292.25C684,-281.81 684,-269.99 684,-261.04"/>
<polygon fill="#63b8ff" stroke="#63b8ff" points="680.5,-292.44 684,-302.44 687.5,-292.44 680.5,-292.44"/>
</a>
</g>
</g>
<!-- Node26 -->
<g id="Node000026" class="node">
<title>Node26</title>
<g id="a_Node000026"><a xlink:href="scene_8h.html" target="_top" xlink:title=" ">
<polygon fill="white" stroke="#666666" points="944,-261 824,-261 824,-231 944,-231 944,-261"/>
<text text-anchor="start" x="832" y="-249" font-family="Helvetica,sans-Serif" font-size="10.00">include/engine/public</text>
<text text-anchor="middle" x="884" y="-238" font-family="Helvetica,sans-Serif" font-size="10.00">/scene.h</text>
</a>
</g>
</g>
<!-- Node11&#45;&gt;Node26 -->
<g id="edge33_Node000011_Node000026" class="edge">
<title>Node11&#45;&gt;Node26</title>
<g id="a_edge33_Node000011_Node000026"><a xlink:title=" ">
<path fill="none" stroke="#63b8ff" d="M734.17,-299.07C767.99,-287.31 812.02,-272.01 843.59,-261.04"/>
<polygon fill="#63b8ff" stroke="#63b8ff" points="732.77,-295.85 724.47,-302.44 735.07,-302.46 732.77,-295.85"/>
</a>
</g>
</g>
<!-- Node13 -->
<g id="Node000013" class="node">
<title>Node13</title>
<g id="a_Node000013"><a xlink:href="rendering_service_8h.html" target="_top" xlink:title=" ">
<polygon fill="white" stroke="#666666" points="1080.5,-35.5 919.5,-35.5 919.5,-5.5 1080.5,-5.5 1080.5,-35.5"/>
<text text-anchor="start" x="927.5" y="-23.5" font-family="Helvetica,sans-Serif" font-size="10.00">include/engine/core</text>
<text text-anchor="middle" x="1000" y="-12.5" font-family="Helvetica,sans-Serif" font-size="10.00">/rendering/renderingService.h</text>
</a>
</g>
</g>
<!-- Node12&#45;&gt;Node13 -->
<g id="edge17_Node000012_Node000013" class="edge">
<title>Node12&#45;&gt;Node13</title>
<g id="a_edge17_Node000012_Node000013"><a xlink:title=" ">
<path fill="none" stroke="#63b8ff" d="M1040.13,-220.82C1030.74,-174.17 1010.37,-73.02 1002.86,-35.7"/>
<polygon fill="#63b8ff" stroke="#63b8ff" points="1036.71,-221.57 1042.12,-230.68 1043.57,-220.18 1036.71,-221.57"/>
</a>
</g>
</g>
<!-- Node14 -->
<g id="Node000014" class="node">
<title>Node14</title>
<g id="a_Node000014"><a xlink:href="irendering__strategy_8h.html" target="_top" xlink:title=" ">
<polygon fill="white" stroke="#666666" points="1335,-195 1213,-195 1213,-154 1335,-154 1335,-195"/>
<text text-anchor="start" x="1221" y="-183" font-family="Helvetica,sans-Serif" font-size="10.00">include/engine/core</text>
<text text-anchor="start" x="1221" y="-172" font-family="Helvetica,sans-Serif" font-size="10.00">/rendering/strategies</text>
<text text-anchor="middle" x="1274" y="-161" font-family="Helvetica,sans-Serif" font-size="10.00">/irendering_strategy.h</text>
</a>
</g>
</g>
<!-- Node12&#45;&gt;Node14 -->
<g id="edge18_Node000012_Node000014" class="edge">
<title>Node12&#45;&gt;Node14</title>
<g id="a_edge18_Node000012_Node000014"><a xlink:title=" ">
<path fill="none" stroke="#63b8ff" d="M1101.09,-227.98C1134.98,-217.69 1178.2,-204.57 1212.95,-194.03"/>
<polygon fill="#63b8ff" stroke="#63b8ff" points="1099.89,-224.68 1091.34,-230.94 1101.93,-231.38 1099.89,-224.68"/>
</a>
</g>
</g>
<!-- Node17 -->
<g id="Node000017" class="node">
<title>Node17</title>
<g id="a_Node000017"><a xlink:href="irendering__strategy__factory_8h.html" target="_top" xlink:title=" ">
<polygon fill="white" stroke="#666666" points="1199,-118 1037,-118 1037,-77 1199,-77 1199,-118"/>
<text text-anchor="start" x="1045" y="-106" font-family="Helvetica,sans-Serif" font-size="10.00">include/engine/core</text>
<text text-anchor="start" x="1045" y="-95" font-family="Helvetica,sans-Serif" font-size="10.00">/rendering/strategies</text>
<text text-anchor="middle" x="1118" y="-84" font-family="Helvetica,sans-Serif" font-size="10.00">/irendering_strategy_factory.h</text>
</a>
</g>
</g>
<!-- Node12&#45;&gt;Node17 -->
<g id="edge27_Node000012_Node000017" class="edge">
<title>Node12&#45;&gt;Node17</title>
<g id="a_edge27_Node000012_Node000017"><a xlink:title=" ">
<path fill="none" stroke="#63b8ff" d="M1056.6,-221.72C1070.84,-193.13 1094.75,-145.15 1108.15,-118.27"/>
<polygon fill="#63b8ff" stroke="#63b8ff" points="1053.33,-220.44 1052,-230.95 1059.59,-223.56 1053.33,-220.44"/>
</a>
</g>
</g>
<!-- Node15 -->
<g id="Node000015" class="node">
<title>Node15</title>
<g id="a_Node000015"><a xlink:href="renderable_8h.html" target="_top" xlink:title=" ">
<polygon fill="white" stroke="#666666" points="1386.5,-112.5 1255.5,-112.5 1255.5,-82.5 1386.5,-82.5 1386.5,-112.5"/>
<text text-anchor="start" x="1263.5" y="-100.5" font-family="Helvetica,sans-Serif" font-size="10.00">include/engine/core</text>
<text text-anchor="middle" x="1321" y="-89.5" font-family="Helvetica,sans-Serif" font-size="10.00">/rendering/renderable.h</text>
</a>
</g>
</g>
<!-- Node14&#45;&gt;Node15 -->
<g id="edge19_Node000014_Node000015" class="edge">
<title>Node14&#45;&gt;Node15</title>
<g id="a_edge19_Node000014_Node000015"><a xlink:title=" ">
<path fill="none" stroke="#63b8ff" d="M1291.7,-145.26C1298.62,-134.21 1306.26,-122.02 1312,-112.86"/>
<polygon fill="#63b8ff" stroke="#63b8ff" points="1288.69,-143.46 1286.35,-153.79 1294.62,-147.18 1288.69,-143.46"/>
</a>
</g>
</g>
<!-- Node16 -->
<g id="Node000016" class="node">
<title>Node16</title>
<g id="a_Node000016"><a xlink:href="sprite_8h.html" target="_top" xlink:title=" ">
<polygon fill="white" stroke="#666666" points="1381,-35.5 1261,-35.5 1261,-5.5 1381,-5.5 1381,-35.5"/>
<text text-anchor="start" x="1269" y="-23.5" font-family="Helvetica,sans-Serif" font-size="10.00">include/engine/public</text>
<text text-anchor="middle" x="1321" y="-12.5" font-family="Helvetica,sans-Serif" font-size="10.00">/components/sprite.h</text>
</a>
</g>
</g>
<!-- Node14&#45;&gt;Node16 -->
<g id="edge26_Node000014_Node000016" class="edge">
<title>Node14&#45;&gt;Node16</title>
<g id="a_edge26_Node000014_Node000016"><a xlink:title=" ">
<path fill="none" stroke="#63b8ff" d="M1255.46,-145C1245.07,-125.22 1236.19,-98.63 1247,-77 1256.12,-58.76 1274.4,-44.96 1290.51,-35.68"/>
<polygon fill="#63b8ff" stroke="#63b8ff" points="1252.48,-146.85 1260.43,-153.85 1258.58,-143.41 1252.48,-146.85"/>
</a>
</g>
</g>
<!-- Node14&#45;&gt;Node17 -->
<g id="edge21_Node000014_Node000017" class="edge">
<title>Node14&#45;&gt;Node17</title>
<g id="a_edge21_Node000014_Node000017"><a xlink:title=" ">
<path fill="none" stroke="#63b8ff" d="M1224.26,-149.59C1203.09,-139.41 1178.71,-127.69 1158.65,-118.04"/>
<polygon fill="#63b8ff" stroke="#63b8ff" points="1222.89,-152.81 1233.42,-153.99 1225.92,-146.5 1222.89,-152.81"/>
</a>
</g>
</g>
<!-- Node19 -->
<g id="Node000019" class="node">
<title>Node19</title>
<g id="a_Node000019"><a xlink:href="sdl__gui__strategy_8h.html" target="_top" xlink:title=" ">
<polygon fill="white" stroke="#666666" points="1529.5,-118 1404.5,-118 1404.5,-77 1529.5,-77 1529.5,-118"/>
<text text-anchor="start" x="1412.5" y="-106" font-family="Helvetica,sans-Serif" font-size="10.00">include/engine/core</text>
<text text-anchor="start" x="1412.5" y="-95" font-family="Helvetica,sans-Serif" font-size="10.00">/rendering/strategies</text>
<text text-anchor="middle" x="1467" y="-84" font-family="Helvetica,sans-Serif" font-size="10.00">/sdl/sdl_gui_strategy.h</text>
</a>
</g>
</g>
<!-- Node14&#45;&gt;Node19 -->
<g id="edge24_Node000014_Node000019" class="edge">
<title>Node14&#45;&gt;Node19</title>
<g id="a_edge24_Node000014_Node000019"><a xlink:title=" ">
<path fill="none" stroke="#63b8ff" d="M1333.78,-150.27C1360.37,-139.94 1391.33,-127.9 1416.71,-118.04"/>
<polygon fill="#63b8ff" stroke="#63b8ff" points="1332.26,-147.11 1324.2,-153.99 1334.79,-153.63 1332.26,-147.11"/>
</a>
</g>
</g>
<!-- Node20 -->
<g id="Node000020" class="node">
<title>Node20</title>
<g id="a_Node000020"><a xlink:href="sdl__sprite__strategy_8h.html" target="_top" xlink:title=" ">
<polygon fill="white" stroke="#666666" points="1684.5,-118 1547.5,-118 1547.5,-77 1684.5,-77 1684.5,-118"/>
<text text-anchor="start" x="1555.5" y="-106" font-family="Helvetica,sans-Serif" font-size="10.00">include/engine/core</text>
<text text-anchor="start" x="1555.5" y="-95" font-family="Helvetica,sans-Serif" font-size="10.00">/rendering/strategies</text>
<text text-anchor="middle" x="1616" y="-84" font-family="Helvetica,sans-Serif" font-size="10.00">/sdl/sdl_sprite_strategy.h</text>
</a>
</g>
</g>
<!-- Node14&#45;&gt;Node20 -->
<g id="edge25_Node000014_Node000020" class="edge">
<title>Node14&#45;&gt;Node20</title>
<g id="a_edge25_Node000014_Node000020"><a xlink:title=" ">
<path fill="none" stroke="#63b8ff" d="M1345.26,-159.41C1398.71,-148.64 1473.6,-133.12 1539,-118 1541.69,-117.38 1544.42,-116.74 1547.19,-116.08"/>
<polygon fill="#63b8ff" stroke="#63b8ff" points="1344.32,-156.03 1335.21,-161.43 1345.7,-162.89 1344.32,-156.03"/>
</a>
</g>
</g>
<!-- Node15&#45;&gt;Node16 -->
<g id="edge20_Node000015_Node000016" class="edge">
<title>Node15&#45;&gt;Node16</title>
<g id="a_edge20_Node000015_Node000016"><a xlink:title=" ">
<path fill="none" stroke="#63b8ff" d="M1321,-72.04C1321,-59.95 1321,-45.79 1321,-35.54"/>
<polygon fill="#63b8ff" stroke="#63b8ff" points="1317.5,-72.39 1321,-82.39 1324.5,-72.39 1317.5,-72.39"/>
</a>
</g>
</g>
<!-- Node17&#45;&gt;Node13 -->
<g id="edge22_Node000017_Node000013" class="edge">
<title>Node17&#45;&gt;Node13</title>
<g id="a_edge22_Node000017_Node000013"><a xlink:title=" ">
<path fill="none" stroke="#63b8ff" d="M1078.66,-71.5C1059.93,-59.59 1038.21,-45.78 1022.34,-35.7"/>
<polygon fill="#63b8ff" stroke="#63b8ff" points="1076.99,-74.58 1087.3,-76.99 1080.74,-68.67 1076.99,-74.58"/>
</a>
</g>
</g>
<!-- Node18 -->
<g id="Node000018" class="node">
<title>Node18</title>
<g id="a_Node000018"><a xlink:href="sdl__strategy__factory_8h.html" target="_top" xlink:title=" ">
<polygon fill="white" stroke="#666666" points="1243,-41 1099,-41 1099,0 1243,0 1243,-41"/>
<text text-anchor="start" x="1107" y="-29" font-family="Helvetica,sans-Serif" font-size="10.00">include/engine/core</text>
<text text-anchor="start" x="1107" y="-18" font-family="Helvetica,sans-Serif" font-size="10.00">/rendering/strategies</text>
<text text-anchor="middle" x="1171" y="-7" font-family="Helvetica,sans-Serif" font-size="10.00">/sdl/sdl_strategy_factory.h</text>
</a>
</g>
</g>
<!-- Node17&#45;&gt;Node18 -->
<g id="edge23_Node000017_Node000018" class="edge">
<title>Node17&#45;&gt;Node18</title>
<g id="a_edge23_Node000017_Node000018"><a xlink:title=" ">
<path fill="none" stroke="#63b8ff" d="M1137.86,-68.39C1144.29,-59.3 1151.28,-49.41 1157.17,-41.07"/>
<polygon fill="#63b8ff" stroke="#63b8ff" points="1134.84,-66.61 1131.93,-76.79 1140.55,-70.65 1134.84,-66.61"/>
</a>
</g>
</g>
<!-- Node22 -->
<g id="Node000022" class="node">
<title>Node22</title>
<g id="a_Node000022"><a xlink:href="behaviorscript_8h.html" target="_top" xlink:title=" ">
<polygon fill="white" stroke="#666666" points="520.5,-189.5 359.5,-189.5 359.5,-159.5 520.5,-159.5 520.5,-189.5"/>
<text text-anchor="start" x="367.5" y="-177.5" font-family="Helvetica,sans-Serif" font-size="10.00">include/engine/public</text>
<text text-anchor="middle" x="440" y="-166.5" font-family="Helvetica,sans-Serif" font-size="10.00">/components/behaviorscript.h</text>
</a>
</g>
</g>
<!-- Node21&#45;&gt;Node22 -->
<g id="edge29_Node000021_Node000022" class="edge">
<title>Node21&#45;&gt;Node22</title>
<g id="a_edge29_Node000021_Node000022"><a xlink:title=" ">
<path fill="none" stroke="#63b8ff" d="M470.36,-222.38C463.35,-211.57 455.19,-198.96 449.09,-189.54"/>
<polygon fill="#63b8ff" stroke="#63b8ff" points="467.52,-224.44 475.89,-230.94 473.4,-220.64 467.52,-224.44"/>
</a>
</g>
</g>
<!-- Node24 -->
<g id="Node000024" class="node">
<title>Node24</title>
<g id="a_Node000024"><a xlink:href="ui__button_8h.html" target="_top" xlink:title=" ">
<polygon fill="white" stroke="#666666" points="687.5,-189.5 538.5,-189.5 538.5,-159.5 687.5,-159.5 687.5,-189.5"/>
<text text-anchor="start" x="546.5" y="-177.5" font-family="Helvetica,sans-Serif" font-size="10.00">include/engine/public</text>
<text text-anchor="middle" x="613" y="-166.5" font-family="Helvetica,sans-Serif" font-size="10.00">/components/ui/ui_button.h</text>
</a>
</g>
</g>
<!-- Node23&#45;&gt;Node24 -->
<g id="edge31_Node000023_Node000024" class="edge">
<title>Node23&#45;&gt;Node24</title>
<g id="a_edge31_Node000023_Node000024"><a xlink:title=" ">
<path fill="none" stroke="#63b8ff" d="M662.21,-223.67C650.88,-212.58 637.35,-199.34 627.35,-189.54"/>
<polygon fill="#63b8ff" stroke="#63b8ff" points="660.04,-226.44 669.63,-230.94 664.93,-221.44 660.04,-226.44"/>
</a>
</g>
</g>
<!-- Node25 -->
<g id="Node000025" class="node">
<title>Node25</title>
<g id="a_Node000025"><a xlink:href="ui__text_8h.html" target="_top" xlink:title=" ">
<polygon fill="white" stroke="#666666" points="842.5,-189.5 705.5,-189.5 705.5,-159.5 842.5,-159.5 842.5,-189.5"/>
<text text-anchor="start" x="713.5" y="-177.5" font-family="Helvetica,sans-Serif" font-size="10.00">include/engine/public</text>
<text text-anchor="middle" x="774" y="-166.5" font-family="Helvetica,sans-Serif" font-size="10.00">/components/ui/ui_text.h</text>
</a>
</g>
</g>
<!-- Node23&#45;&gt;Node25 -->
<g id="edge32_Node000023_Node000025" class="edge">
<title>Node23&#45;&gt;Node25</title>
<g id="a_edge32_Node000023_Node000025"><a xlink:title=" ">
<path fill="none" stroke="#63b8ff" d="M710.38,-224.63C724.99,-213.35 742.77,-199.62 755.81,-189.54"/>
<polygon fill="#63b8ff" stroke="#63b8ff" points="707.99,-222.05 702.21,-230.94 712.27,-227.59 707.99,-222.05"/>
</a>
</g>
</g>
<!-- Node27 -->
<g id="Node000027" class="node">
<title>Node27</title>
<g id="a_Node000027"><a xlink:href="scene__service_8h.html" target="_top" xlink:title=" ">
<polygon fill="white" stroke="#666666" points="981,-189.5 861,-189.5 861,-159.5 981,-159.5 981,-189.5"/>
<text text-anchor="start" x="869" y="-177.5" font-family="Helvetica,sans-Serif" font-size="10.00">include/engine/public</text>
<text text-anchor="middle" x="921" y="-166.5" font-family="Helvetica,sans-Serif" font-size="10.00">/scene_service.h</text>
</a>
</g>
</g>
<!-- Node26&#45;&gt;Node27 -->
<g id="edge34_Node000026_Node000027" class="edge">
<title>Node26&#45;&gt;Node27</title>
<g id="a_edge34_Node000026_Node000027"><a xlink:title=" ">
<path fill="none" stroke="#63b8ff" d="M896.21,-222.06C901.93,-211.32 908.56,-198.86 913.52,-189.54"/>
<polygon fill="#63b8ff" stroke="#63b8ff" points="893.1,-220.46 891.49,-230.94 899.28,-223.75 893.1,-220.46"/>
</a>
</g>
</g>
</g>
</svg>
