<?xml version="1.0" encoding="UTF-8" standalone="no"?>
<!DOCTYPE svg PUBLIC "-//W3C//DTD SVG 1.1//EN"
 "http://www.w3.org/Graphics/SVG/1.1/DTD/svg11.dtd">
<!-- Generated by graphviz version 2.43.0 (0)
 -->
<!-- Title: include/engine/public/util/vector3.h Pages: 1 -->
<svg width="821pt" height="401pt"
 viewBox="0.00 0.00 821.00 401.00" xmlns="http://www.w3.org/2000/svg" xmlns:xlink="http://www.w3.org/1999/xlink">
<g id="graph0" class="graph" transform="scale(1 1) rotate(0) translate(4 397)">
<title>include/engine/public/util/vector3.h</title>
<!-- Node1 -->
<g id="Node000001" class="node">
<title>Node1</title>
<g id="a_Node000001"><a xlink:title=" ">
<polygon fill="#999999" stroke="#666666" points="382,-393 262,-393 262,-363 382,-363 382,-393"/>
<text text-anchor="start" x="270" y="-381" font-family="Helvetica,sans-Serif" font-size="10.00">include/engine/public</text>
<text text-anchor="middle" x="322" y="-370" font-family="Helvetica,sans-Serif" font-size="10.00">/util/vector3.h</text>
</a>
</g>
</g>
<!-- Node2 -->
<g id="Node000002" class="node">
<title>Node2</title>
<g id="a_Node000002"><a xlink:href="physics__creation__factory_8h.html" target="_top" xlink:title=" ">
<polygon fill="white" stroke="#666666" points="256,-261 112,-261 112,-220 256,-220 256,-261"/>
<text text-anchor="start" x="120" y="-249" font-family="Helvetica,sans-Serif" font-size="10.00">include/engine/physics</text>
<text text-anchor="start" x="120" y="-238" font-family="Helvetica,sans-Serif" font-size="10.00">/creation/physics_creation</text>
<text text-anchor="middle" x="184" y="-227" font-family="Helvetica,sans-Serif" font-size="10.00">_factory.h</text>
</a>
</g>
</g>
<!-- Node1&#45;&gt;Node2 -->
<g id="edge1_Node000001_Node000002" class="edge">
<title>Node1&#45;&gt;Node2</title>
<g id="a_edge1_Node000001_Node000002"><a xlink:title=" ">
<path fill="none" stroke="#63b8ff" d="M252.2,-360.36C233.88,-352.91 215.72,-342.23 203,-327 187.5,-308.44 183.93,-279.96 183.44,-261.03"/>
<polygon fill="#63b8ff" stroke="#63b8ff" points="251.17,-363.71 261.76,-363.97 253.64,-357.16 251.17,-363.71"/>
</a>
</g>
</g>
<!-- Node4 -->
<g id="Node000004" class="node">
<title>Node4</title>
<g id="a_Node000004"><a xlink:href="physics__world_8h.html" target="_top" xlink:title=" ">
<polygon fill="white" stroke="#666666" points="378,-184 250,-184 250,-154 378,-154 378,-184"/>
<text text-anchor="start" x="258" y="-172" font-family="Helvetica,sans-Serif" font-size="10.00">include/engine/physics</text>
<text text-anchor="middle" x="314" y="-161" font-family="Helvetica,sans-Serif" font-size="10.00">/world/physics_world.h</text>
</a>
</g>
</g>
<!-- Node1&#45;&gt;Node4 -->
<g id="edge13_Node000001_Node000004" class="edge">
<title>Node1&#45;&gt;Node4</title>
<g id="a_edge13_Node000001_Node000004"><a xlink:title=" ">
<path fill="none" stroke="#63b8ff" d="M337.34,-354.29C342.04,-346.06 346.61,-336.45 349,-327 362.21,-274.75 335.61,-212.05 321.72,-184.35"/>
<polygon fill="#63b8ff" stroke="#63b8ff" points="334.29,-352.56 332.07,-362.92 340.27,-356.2 334.29,-352.56"/>
</a>
</g>
</g>
<!-- Node9 -->
<g id="Node000009" class="node">
<title>Node9</title>
<g id="a_Node000009"><a xlink:href="body__2d_8h.html" target="_top" xlink:title=" ">
<polygon fill="white" stroke="#666666" points="340,-327 212,-327 212,-297 340,-297 340,-327"/>
<text text-anchor="start" x="220" y="-315" font-family="Helvetica,sans-Serif" font-size="10.00">include/engine/physics</text>
<text text-anchor="middle" x="276" y="-304" font-family="Helvetica,sans-Serif" font-size="10.00">/world/body/body_2d.h</text>
</a>
</g>
</g>
<!-- Node1&#45;&gt;Node9 -->
<g id="edge10_Node000001_Node000009" class="edge">
<title>Node1&#45;&gt;Node9</title>
<g id="a_edge10_Node000001_Node000009"><a xlink:title=" ">
<path fill="none" stroke="#63b8ff" d="M305.85,-354.53C299.31,-345.43 291.95,-335.19 286.18,-327.16"/>
<polygon fill="#63b8ff" stroke="#63b8ff" points="303.11,-356.72 311.79,-362.8 308.8,-352.63 303.11,-356.72"/>
</a>
</g>
</g>
<!-- Node10 -->
<g id="Node000010" class="node">
<title>Node10</title>
<g id="a_Node000010"><a xlink:href="transform_8h.html" target="_top" xlink:title=" ">
<polygon fill="white" stroke="#666666" points="524,-327 404,-327 404,-297 524,-297 524,-327"/>
<text text-anchor="start" x="412" y="-315" font-family="Helvetica,sans-Serif" font-size="10.00">include/engine/public</text>
<text text-anchor="middle" x="464" y="-304" font-family="Helvetica,sans-Serif" font-size="10.00">/transform.h</text>
</a>
</g>
</g>
<!-- Node1&#45;&gt;Node10 -->
<g id="edge14_Node000001_Node000010" class="edge">
<title>Node1&#45;&gt;Node10</title>
<g id="a_edge14_Node000001_Node000010"><a xlink:title=" ">
<path fill="none" stroke="#63b8ff" d="M362.42,-358.78C384.8,-348.69 412.21,-336.34 432.91,-327.01"/>
<polygon fill="#63b8ff" stroke="#63b8ff" points="360.84,-355.65 353.16,-362.95 363.72,-362.04 360.84,-355.65"/>
</a>
</g>
</g>
<!-- Node3 -->
<g id="Node000003" class="node">
<title>Node3</title>
<g id="a_Node000003"><a xlink:href="physics__service_8h.html" target="_top" xlink:title=" ">
<polygon fill="white" stroke="#666666" points="128,-112.5 0,-112.5 0,-82.5 128,-82.5 128,-112.5"/>
<text text-anchor="start" x="8" y="-100.5" font-family="Helvetica,sans-Serif" font-size="10.00">include/engine/physics</text>
<text text-anchor="middle" x="64" y="-89.5" font-family="Helvetica,sans-Serif" font-size="10.00">/physics_service.h</text>
</a>
</g>
</g>
<!-- Node2&#45;&gt;Node3 -->
<g id="edge2_Node000002_Node000003" class="edge">
<title>Node2&#45;&gt;Node3</title>
<g id="a_edge2_Node000002_Node000003"><a xlink:title=" ">
<path fill="none" stroke="#63b8ff" d="M102.87,-215.41C88.75,-207.61 75.79,-197.38 67,-184 52.81,-162.4 56.52,-130.67 60.36,-112.55"/>
<polygon fill="#63b8ff" stroke="#63b8ff" points="101.29,-218.53 111.79,-219.96 104.47,-212.3 101.29,-218.53"/>
</a>
</g>
</g>
<!-- Node2&#45;&gt;Node4 -->
<g id="edge3_Node000002_Node000004" class="edge">
<title>Node2&#45;&gt;Node4</title>
<g id="a_edge3_Node000002_Node000004"><a xlink:title=" ">
<path fill="none" stroke="#63b8ff" d="M229.56,-215.14C248.98,-204.76 270.94,-193.02 287.6,-184.11"/>
<polygon fill="#63b8ff" stroke="#63b8ff" points="227.73,-212.15 220.56,-219.96 231.03,-218.33 227.73,-212.15"/>
</a>
</g>
</g>
<!-- Node8 -->
<g id="Node000008" class="node">
<title>Node8</title>
<g id="a_Node000008"><a xlink:href="rigidbody__2d_8h.html" target="_top" xlink:title=" ">
<polygon fill="white" stroke="#666666" points="231.5,-184 76.5,-184 76.5,-154 231.5,-154 231.5,-184"/>
<text text-anchor="start" x="84.5" y="-172" font-family="Helvetica,sans-Serif" font-size="10.00">include/engine/public</text>
<text text-anchor="middle" x="154" y="-161" font-family="Helvetica,sans-Serif" font-size="10.00">/components/rigidbody_2d.h</text>
</a>
</g>
</g>
<!-- Node2&#45;&gt;Node8 -->
<g id="edge8_Node000002_Node000008" class="edge">
<title>Node2&#45;&gt;Node8</title>
<g id="a_edge8_Node000002_Node000008"><a xlink:title=" ">
<path fill="none" stroke="#63b8ff" d="M171.5,-210.53C167.54,-201.37 163.35,-191.66 160.06,-184.04"/>
<polygon fill="#63b8ff" stroke="#63b8ff" points="168.31,-211.98 175.48,-219.77 174.73,-209.2 168.31,-211.98"/>
</a>
</g>
</g>
<!-- Node4&#45;&gt;Node3 -->
<g id="edge4_Node000004_Node000003" class="edge">
<title>Node4&#45;&gt;Node3</title>
<g id="a_edge4_Node000004_Node000003"><a xlink:title=" ">
<path fill="none" stroke="#63b8ff" d="M253.73,-151.24C211.15,-139.41 154.74,-123.72 114.52,-112.54"/>
<polygon fill="#63b8ff" stroke="#63b8ff" points="252.84,-154.63 263.41,-153.94 254.71,-147.89 252.84,-154.63"/>
</a>
</g>
</g>
<!-- Node5 -->
<g id="Node000005" class="node">
<title>Node5</title>
<g id="a_Node000005"><a xlink:href="collider__2d_8h.html" target="_top" xlink:title=" ">
<polygon fill="white" stroke="#666666" points="301,-118 177,-118 177,-77 301,-77 301,-118"/>
<text text-anchor="start" x="185" y="-106" font-family="Helvetica,sans-Serif" font-size="10.00">include/engine/public</text>
<text text-anchor="start" x="185" y="-95" font-family="Helvetica,sans-Serif" font-size="10.00">/components/colliders</text>
<text text-anchor="middle" x="239" y="-84" font-family="Helvetica,sans-Serif" font-size="10.00">/collider_2d.h</text>
</a>
</g>
</g>
<!-- Node4&#45;&gt;Node5 -->
<g id="edge5_Node000004_Node000005" class="edge">
<title>Node4&#45;&gt;Node5</title>
<g id="a_edge5_Node000004_Node000005"><a xlink:title=" ">
<path fill="none" stroke="#63b8ff" d="M291.3,-146.96C281.39,-137.78 269.84,-127.08 260.12,-118.07"/>
<polygon fill="#63b8ff" stroke="#63b8ff" points="289.11,-149.71 298.82,-153.94 293.87,-144.57 289.11,-149.71"/>
</a>
</g>
</g>
<!-- Node6 -->
<g id="Node000006" class="node">
<title>Node6</title>
<g id="a_Node000006"><a xlink:href="box__collider__2d_8h.html" target="_top" xlink:title=" ">
<polygon fill="white" stroke="#666666" points="230,-41 106,-41 106,0 230,0 230,-41"/>
<text text-anchor="start" x="114" y="-29" font-family="Helvetica,sans-Serif" font-size="10.00">include/engine/public</text>
<text text-anchor="start" x="114" y="-18" font-family="Helvetica,sans-Serif" font-size="10.00">/components/colliders</text>
<text text-anchor="middle" x="168" y="-7" font-family="Helvetica,sans-Serif" font-size="10.00">/box_collider_2d.h</text>
</a>
</g>
</g>
<!-- Node5&#45;&gt;Node6 -->
<g id="edge6_Node000005_Node000006" class="edge">
<title>Node5&#45;&gt;Node6</title>
<g id="a_edge6_Node000005_Node000006"><a xlink:title=" ">
<path fill="none" stroke="#63b8ff" d="M213.45,-69.51C204.55,-60.11 194.75,-49.76 186.53,-41.07"/>
<polygon fill="#63b8ff" stroke="#63b8ff" points="210.93,-71.94 220.35,-76.79 216.01,-67.13 210.93,-71.94"/>
</a>
</g>
</g>
<!-- Node7 -->
<g id="Node000007" class="node">
<title>Node7</title>
<g id="a_Node000007"><a xlink:href="circle__collider__2d_8h.html" target="_top" xlink:title=" ">
<polygon fill="white" stroke="#666666" points="372,-41 248,-41 248,0 372,0 372,-41"/>
<text text-anchor="start" x="256" y="-29" font-family="Helvetica,sans-Serif" font-size="10.00">include/engine/public</text>
<text text-anchor="start" x="256" y="-18" font-family="Helvetica,sans-Serif" font-size="10.00">/components/colliders</text>
<text text-anchor="middle" x="310" y="-7" font-family="Helvetica,sans-Serif" font-size="10.00">/circle_collider_2d.h</text>
</a>
</g>
</g>
<!-- Node5&#45;&gt;Node7 -->
<g id="edge7_Node000005_Node000007" class="edge">
<title>Node5&#45;&gt;Node7</title>
<g id="a_edge7_Node000005_Node000007"><a xlink:title=" ">
<path fill="none" stroke="#63b8ff" d="M264.55,-69.51C273.45,-60.11 283.25,-49.76 291.47,-41.07"/>
<polygon fill="#63b8ff" stroke="#63b8ff" points="261.99,-67.13 257.65,-76.79 267.07,-71.94 261.99,-67.13"/>
</a>
</g>
</g>
<!-- Node8&#45;&gt;Node5 -->
<g id="edge9_Node000008_Node000005" class="edge">
<title>Node8&#45;&gt;Node5</title>
<g id="a_edge9_Node000008_Node000005"><a xlink:title=" ">
<path fill="none" stroke="#63b8ff" d="M179.07,-147.5C190.44,-138.21 203.83,-127.26 215.06,-118.07"/>
<polygon fill="#63b8ff" stroke="#63b8ff" points="176.73,-144.9 171.2,-153.94 181.16,-150.32 176.73,-144.9"/>
</a>
</g>
</g>
<!-- Node9&#45;&gt;Node2 -->
<g id="edge11_Node000009_Node000002" class="edge">
<title>Node9&#45;&gt;Node2</title>
<g id="a_edge11_Node000009_Node000002"><a xlink:title=" ">
<path fill="none" stroke="#63b8ff" d="M249.23,-290.77C236.84,-281.42 222.19,-270.35 209.91,-261.07"/>
<polygon fill="#63b8ff" stroke="#63b8ff" points="247.29,-293.7 257.38,-296.94 251.51,-288.12 247.29,-293.7"/>
</a>
</g>
</g>
<!-- Node9&#45;&gt;Node4 -->
<g id="edge12_Node000009_Node000004" class="edge">
<title>Node9&#45;&gt;Node4</title>
<g id="a_edge12_Node000009_Node000004"><a xlink:title=" ">
<path fill="none" stroke="#63b8ff" d="M282.44,-287.09C290.38,-257.65 303.6,-208.6 310.12,-184.4"/>
<polygon fill="#63b8ff" stroke="#63b8ff" points="279.01,-286.4 279.78,-296.96 285.76,-288.22 279.01,-286.4"/>
</a>
</g>
</g>
<!-- Node11 -->
<g id="Node000011" class="node">
<title>Node11</title>
<g id="a_Node000011"><a xlink:href="game_object_8h.html" target="_top" xlink:title=" ">
<polygon fill="white" stroke="#666666" points="531,-255.5 411,-255.5 411,-225.5 531,-225.5 531,-255.5"/>
<text text-anchor="start" x="419" y="-243.5" font-family="Helvetica,sans-Serif" font-size="10.00">include/engine/public</text>
<text text-anchor="middle" x="471" y="-232.5" font-family="Helvetica,sans-Serif" font-size="10.00">/gameObject.h</text>
</a>
</g>
</g>
<!-- Node10&#45;&gt;Node11 -->
<g id="edge15_Node000010_Node000011" class="edge">
<title>Node10&#45;&gt;Node11</title>
<g id="a_edge15_Node000010_Node000011"><a xlink:title=" ">
<path fill="none" stroke="#63b8ff" d="M466.44,-286.75C467.49,-276.31 468.68,-264.49 469.59,-255.54"/>
<polygon fill="#63b8ff" stroke="#63b8ff" points="462.94,-286.64 465.42,-296.94 469.9,-287.34 462.94,-286.64"/>
</a>
</g>
</g>
<!-- Node12 -->
<g id="Node000012" class="node">
<title>Node12</title>
<g id="a_Node000012"><a xlink:href="renderer_8h.html" target="_top" xlink:title=" ">
<polygon fill="white" stroke="#666666" points="515.5,-184 396.5,-184 396.5,-154 515.5,-154 515.5,-184"/>
<text text-anchor="start" x="404.5" y="-172" font-family="Helvetica,sans-Serif" font-size="10.00">include/engine/core</text>
<text text-anchor="middle" x="456" y="-161" font-family="Helvetica,sans-Serif" font-size="10.00">/rendering/renderer.h</text>
</a>
</g>
</g>
<!-- Node11&#45;&gt;Node12 -->
<g id="edge16_Node000011_Node000012" class="edge">
<title>Node11&#45;&gt;Node12</title>
<g id="a_edge16_Node000011_Node000012"><a xlink:title=" ">
<path fill="none" stroke="#63b8ff" d="M465.84,-215.58C463.57,-205.06 460.98,-193.08 459.03,-184.04"/>
<polygon fill="#63b8ff" stroke="#63b8ff" points="462.43,-216.4 467.96,-225.44 469.28,-214.92 462.43,-216.4"/>
</a>
</g>
</g>
<!-- Node14 -->
<g id="Node000014" class="node">
<title>Node14</title>
<g id="a_Node000014"><a xlink:href="behavior_8h.html" target="_top" xlink:title=" ">
<polygon fill="white" stroke="#666666" points="654,-184 534,-184 534,-154 654,-154 654,-184"/>
<text text-anchor="start" x="542" y="-172" font-family="Helvetica,sans-Serif" font-size="10.00">include/engine/public</text>
<text text-anchor="middle" x="594" y="-161" font-family="Helvetica,sans-Serif" font-size="10.00">/behavior.h</text>
</a>
</g>
</g>
<!-- Node11&#45;&gt;Node14 -->
<g id="edge18_Node000011_Node000014" class="edge">
<title>Node11&#45;&gt;Node14</title>
<g id="a_edge18_Node000011_Node000014"><a xlink:title=" ">
<path fill="none" stroke="#63b8ff" d="M504.84,-220.38C525.19,-208.88 550.65,-194.49 569.15,-184.04"/>
<polygon fill="#63b8ff" stroke="#63b8ff" points="502.88,-217.47 495.89,-225.44 506.32,-223.56 502.88,-217.47"/>
</a>
</g>
</g>
<!-- Node16 -->
<g id="Node000016" class="node">
<title>Node16</title>
<g id="a_Node000016"><a xlink:href="scene_8h.html" target="_top" xlink:title=" ">
<polygon fill="white" stroke="#666666" points="803,-184 683,-184 683,-154 803,-154 803,-184"/>
<text text-anchor="start" x="691" y="-172" font-family="Helvetica,sans-Serif" font-size="10.00">include/engine/public</text>
<text text-anchor="middle" x="743" y="-161" font-family="Helvetica,sans-Serif" font-size="10.00">/scene.h</text>
</a>
</g>
</g>
<!-- Node11&#45;&gt;Node16 -->
<g id="edge20_Node000011_Node000016" class="edge">
<title>Node11&#45;&gt;Node16</title>
<g id="a_edge20_Node000011_Node000016"><a xlink:title=" ">
<path fill="none" stroke="#63b8ff" d="M535.99,-222.89C582.39,-211.04 644.1,-195.27 688.04,-184.04"/>
<polygon fill="#63b8ff" stroke="#63b8ff" points="534.87,-219.57 526.04,-225.44 536.6,-226.35 534.87,-219.57"/>
</a>
</g>
</g>
<!-- Node13 -->
<g id="Node000013" class="node">
<title>Node13</title>
<g id="a_Node000013"><a xlink:href="rendering_service_8h.html" target="_top" xlink:title=" ">
<polygon fill="white" stroke="#666666" points="495.5,-112.5 334.5,-112.5 334.5,-82.5 495.5,-82.5 495.5,-112.5"/>
<text text-anchor="start" x="342.5" y="-100.5" font-family="Helvetica,sans-Serif" font-size="10.00">include/engine/core</text>
<text text-anchor="middle" x="415" y="-89.5" font-family="Helvetica,sans-Serif" font-size="10.00">/rendering/renderingService.h</text>
</a>
</g>
</g>
<!-- Node12&#45;&gt;Node13 -->
<g id="edge17_Node000012_Node000013" class="edge">
<title>Node12&#45;&gt;Node13</title>
<g id="a_edge17_Node000012_Node000013"><a xlink:title=" ">
<path fill="none" stroke="#63b8ff" d="M442.47,-145.06C436.13,-134.32 428.78,-121.86 423.28,-112.54"/>
<polygon fill="#63b8ff" stroke="#63b8ff" points="439.61,-147.1 447.7,-153.94 445.64,-143.54 439.61,-147.1"/>
</a>
</g>
</g>
<!-- Node15 -->
<g id="Node000015" class="node">
<title>Node15</title>
<g id="a_Node000015"><a xlink:href="behaviorscript_8h.html" target="_top" xlink:title=" ">
<polygon fill="white" stroke="#666666" points="674.5,-112.5 513.5,-112.5 513.5,-82.5 674.5,-82.5 674.5,-112.5"/>
<text text-anchor="start" x="521.5" y="-100.5" font-family="Helvetica,sans-Serif" font-size="10.00">include/engine/public</text>
<text text-anchor="middle" x="594" y="-89.5" font-family="Helvetica,sans-Serif" font-size="10.00">/components/behaviorscript.h</text>
</a>
</g>
</g>
<!-- Node14&#45;&gt;Node15 -->
<g id="edge19_Node000014_Node000015" class="edge">
<title>Node14&#45;&gt;Node15</title>
<g id="a_edge19_Node000014_Node000015"><a xlink:title=" ">
<path fill="none" stroke="#63b8ff" d="M594,-143.75C594,-133.31 594,-121.49 594,-112.54"/>
<polygon fill="#63b8ff" stroke="#63b8ff" points="590.5,-143.94 594,-153.94 597.5,-143.94 590.5,-143.94"/>
</a>
</g>
</g>
<!-- Node17 -->
<g id="Node000017" class="node">
<title>Node17</title>
<g id="a_Node000017"><a xlink:href="scene__service_8h.html" target="_top" xlink:title=" ">
<polygon fill="white" stroke="#666666" points="813,-112.5 693,-112.5 693,-82.5 813,-82.5 813,-112.5"/>
<text text-anchor="start" x="701" y="-100.5" font-family="Helvetica,sans-Serif" font-size="10.00">include/engine/public</text>
<text text-anchor="middle" x="753" y="-89.5" font-family="Helvetica,sans-Serif" font-size="10.00">/scene_service.h</text>
</a>
</g>
</g>
<!-- Node16&#45;&gt;Node17 -->
<g id="edge21_Node000016_Node000017" class="edge">
<title>Node16&#45;&gt;Node17</title>
<g id="a_edge21_Node000016_Node000017"><a xlink:title=" ">
<path fill="none" stroke="#63b8ff" d="M746.49,-143.75C747.99,-133.31 749.69,-121.49 750.98,-112.54"/>
<polygon fill="#63b8ff" stroke="#63b8ff" points="742.98,-143.54 745.02,-153.94 749.91,-144.54 742.98,-143.54"/>
</a>
</g>
</g>
</g>
</svg>
