<?xml version="1.0" encoding="UTF-8" standalone="no"?>
<!DOCTYPE svg PUBLIC "-//W3C//DTD SVG 1.1//EN"
 "http://www.w3.org/Graphics/SVG/1.1/DTD/svg11.dtd">
<!-- Generated by graphviz version 2.43.0 (0)
 -->
<!-- Title: include/engine/public/util/vector3.h Pages: 1 -->
<svg width="702pt" height="401pt"
 viewBox="0.00 0.00 701.50 401.00" xmlns="http://www.w3.org/2000/svg" xmlns:xlink="http://www.w3.org/1999/xlink">
<g id="graph0" class="graph" transform="scale(1 1) rotate(0) translate(4 397)">
<title>include/engine/public/util/vector3.h</title>
<!-- Node1 -->
<g id="Node000001" class="node">
<title>Node1</title>
<g id="a_Node000001"><a xlink:title=" ">
<polygon fill="#999999" stroke="#666666" points="304,-393 184,-393 184,-363 304,-363 304,-393"/>
<text text-anchor="start" x="192" y="-381" font-family="Helvetica,sans-Serif" font-size="10.00">include/engine/public</text>
<text text-anchor="middle" x="244" y="-370" font-family="Helvetica,sans-Serif" font-size="10.00">/util/vector3.h</text>
</a>
</g>
</g>
<!-- Node2 -->
<g id="Node000002" class="node">
<title>Node2</title>
<g id="a_Node000002"><a xlink:href="physics__creation__factory_8h.html" target="_top" xlink:title=" ">
<polygon fill="white" stroke="#666666" points="338,-261 194,-261 194,-220 338,-220 338,-261"/>
<text text-anchor="start" x="202" y="-249" font-family="Helvetica,sans-Serif" font-size="10.00">include/engine/physics</text>
<text text-anchor="start" x="202" y="-238" font-family="Helvetica,sans-Serif" font-size="10.00">/creation/physics_creation</text>
<text text-anchor="middle" x="266" y="-227" font-family="Helvetica,sans-Serif" font-size="10.00">_factory.h</text>
</a>
</g>
</g>
<!-- Node1&#45;&gt;Node2 -->
<g id="edge1_Node000001_Node000002" class="edge">
<title>Node1&#45;&gt;Node2</title>
<g id="a_edge1_Node000001_Node000002"><a xlink:title=" ">
<path fill="none" stroke="#63b8ff" d="M259.34,-354.29C264.04,-346.06 268.61,-336.45 271,-327 276.57,-304.94 273.7,-278.71 270.48,-261.17"/>
<polygon fill="#63b8ff" stroke="#63b8ff" points="256.29,-352.56 254.07,-362.92 262.27,-356.2 256.29,-352.56"/>
</a>
</g>
</g>
<!-- Node4 -->
<g id="Node000004" class="node">
<title>Node4</title>
<g id="a_Node000004"><a xlink:href="physics__world_8h.html" target="_top" xlink:title=" ">
<polygon fill="white" stroke="#666666" points="170,-184 42,-184 42,-154 170,-154 170,-184"/>
<text text-anchor="start" x="50" y="-172" font-family="Helvetica,sans-Serif" font-size="10.00">include/engine/physics</text>
<text text-anchor="middle" x="106" y="-161" font-family="Helvetica,sans-Serif" font-size="10.00">/world/physics_world.h</text>
</a>
</g>
</g>
<!-- Node1&#45;&gt;Node4 -->
<g id="edge13_Node000001_Node000004" class="edge">
<title>Node1&#45;&gt;Node4</title>
<g id="a_edge13_Node000001_Node000004"><a xlink:title=" ">
<path fill="none" stroke="#63b8ff" d="M174.27,-361.56C155.57,-354.12 137.19,-343.14 125,-327 92.41,-283.83 98.73,-214.13 103.37,-184.3"/>
<polygon fill="#63b8ff" stroke="#63b8ff" points="173.15,-364.88 183.74,-365.04 175.56,-358.31 173.15,-364.88"/>
</a>
</g>
</g>
<!-- Node9 -->
<g id="Node000009" class="node">
<title>Node9</title>
<g id="a_Node000009"><a xlink:href="body__2d_8h.html" target="_top" xlink:title=" ">
<polygon fill="white" stroke="#666666" points="262,-327 134,-327 134,-297 262,-297 262,-327"/>
<text text-anchor="start" x="142" y="-315" font-family="Helvetica,sans-Serif" font-size="10.00">include/engine/physics</text>
<text text-anchor="middle" x="198" y="-304" font-family="Helvetica,sans-Serif" font-size="10.00">/world/body/body_2d.h</text>
</a>
</g>
</g>
<!-- Node1&#45;&gt;Node9 -->
<g id="edge10_Node000001_Node000009" class="edge">
<title>Node1&#45;&gt;Node9</title>
<g id="a_edge10_Node000001_Node000009"><a xlink:title=" ">
<path fill="none" stroke="#63b8ff" d="M227.85,-354.53C221.31,-345.43 213.95,-335.19 208.18,-327.16"/>
<polygon fill="#63b8ff" stroke="#63b8ff" points="225.11,-356.72 233.79,-362.8 230.8,-352.63 225.11,-356.72"/>
</a>
</g>
</g>
<!-- Node10 -->
<g id="Node000010" class="node">
<title>Node10</title>
<g id="a_Node000010"><a xlink:href="transform_8h.html" target="_top" xlink:title=" ">
<polygon fill="white" stroke="#666666" points="479,-327 359,-327 359,-297 479,-297 479,-327"/>
<text text-anchor="start" x="367" y="-315" font-family="Helvetica,sans-Serif" font-size="10.00">include/engine/public</text>
<text text-anchor="middle" x="419" y="-304" font-family="Helvetica,sans-Serif" font-size="10.00">/transform.h</text>
</a>
</g>
</g>
<!-- Node1&#45;&gt;Node10 -->
<g id="edge14_Node000001_Node000010" class="edge">
<title>Node1&#45;&gt;Node10</title>
<g id="a_edge14_Node000001_Node000010"><a xlink:title=" ">
<path fill="none" stroke="#63b8ff" d="M291.97,-359.46C319.89,-349.25 354.6,-336.55 380.69,-327.01"/>
<polygon fill="#63b8ff" stroke="#63b8ff" points="290.59,-356.23 282.4,-362.95 293,-362.81 290.59,-356.23"/>
</a>
</g>
</g>
<!-- Node3 -->
<g id="Node000003" class="node">
<title>Node3</title>
<g id="a_Node000003"><a xlink:href="physics__service_8h.html" target="_top" xlink:title=" ">
<polygon fill="white" stroke="#666666" points="364,-112.5 236,-112.5 236,-82.5 364,-82.5 364,-112.5"/>
<text text-anchor="start" x="244" y="-100.5" font-family="Helvetica,sans-Serif" font-size="10.00">include/engine/physics</text>
<text text-anchor="middle" x="300" y="-89.5" font-family="Helvetica,sans-Serif" font-size="10.00">/physics_service.h</text>
</a>
</g>
</g>
<!-- Node2&#45;&gt;Node3 -->
<g id="edge2_Node000002_Node000003" class="edge">
<title>Node2&#45;&gt;Node3</title>
<g id="a_edge2_Node000002_Node000003"><a xlink:title=" ">
<path fill="none" stroke="#63b8ff" d="M322.56,-214.47C334.34,-206.5 345.23,-196.43 352,-184 365.96,-158.37 339.21,-129.56 319.16,-112.78"/>
<polygon fill="#63b8ff" stroke="#63b8ff" points="320.49,-211.64 313.87,-219.91 324.2,-217.57 320.49,-211.64"/>
</a>
</g>
</g>
<!-- Node2&#45;&gt;Node4 -->
<g id="edge3_Node000002_Node000004" class="edge">
<title>Node2&#45;&gt;Node4</title>
<g id="a_edge3_Node000002_Node000004"><a xlink:title=" ">
<path fill="none" stroke="#63b8ff" d="M211.83,-215.97C187.38,-205.35 159.32,-193.16 138.24,-184"/>
<polygon fill="#63b8ff" stroke="#63b8ff" points="210.44,-219.18 221.01,-219.96 213.23,-212.76 210.44,-219.18"/>
</a>
</g>
</g>
<!-- Node8 -->
<g id="Node000008" class="node">
<title>Node8</title>
<g id="a_Node000008"><a xlink:href="rigidbody__2d_8h.html" target="_top" xlink:title=" ">
<polygon fill="white" stroke="#666666" points="343.5,-184 188.5,-184 188.5,-154 343.5,-154 343.5,-184"/>
<text text-anchor="start" x="196.5" y="-172" font-family="Helvetica,sans-Serif" font-size="10.00">include/engine/public</text>
<text text-anchor="middle" x="266" y="-161" font-family="Helvetica,sans-Serif" font-size="10.00">/components/rigidbody_2d.h</text>
</a>
</g>
</g>
<!-- Node2&#45;&gt;Node8 -->
<g id="edge8_Node000002_Node000008" class="edge">
<title>Node2&#45;&gt;Node8</title>
<g id="a_edge8_Node000002_Node000008"><a xlink:title=" ">
<path fill="none" stroke="#63b8ff" d="M266,-209.66C266,-200.76 266,-191.42 266,-184.04"/>
<polygon fill="#63b8ff" stroke="#63b8ff" points="262.5,-209.77 266,-219.77 269.5,-209.77 262.5,-209.77"/>
</a>
</g>
</g>
<!-- Node4&#45;&gt;Node3 -->
<g id="edge4_Node000004_Node000003" class="edge">
<title>Node4&#45;&gt;Node3</title>
<g id="a_edge4_Node000004_Node000003"><a xlink:title=" ">
<path fill="none" stroke="#63b8ff" d="M155.09,-150.42C187.83,-138.68 230.31,-123.47 260.8,-112.54"/>
<polygon fill="#63b8ff" stroke="#63b8ff" points="153.49,-147.27 145.26,-153.94 155.85,-153.86 153.49,-147.27"/>
</a>
</g>
</g>
<!-- Node5 -->
<g id="Node000005" class="node">
<title>Node5</title>
<g id="a_Node000005"><a xlink:href="collider__2d_8h.html" target="_top" xlink:title=" ">
<polygon fill="white" stroke="#666666" points="195,-118 71,-118 71,-77 195,-77 195,-118"/>
<text text-anchor="start" x="79" y="-106" font-family="Helvetica,sans-Serif" font-size="10.00">include/engine/public</text>
<text text-anchor="start" x="79" y="-95" font-family="Helvetica,sans-Serif" font-size="10.00">/components/colliders</text>
<text text-anchor="middle" x="133" y="-84" font-family="Helvetica,sans-Serif" font-size="10.00">/collider_2d.h</text>
</a>
</g>
</g>
<!-- Node4&#45;&gt;Node5 -->
<g id="edge5_Node000004_Node000005" class="edge">
<title>Node4&#45;&gt;Node5</title>
<g id="a_edge5_Node000004_Node000005"><a xlink:title=" ">
<path fill="none" stroke="#63b8ff" d="M115.14,-144.47C118.48,-135.89 122.21,-126.28 125.4,-118.07"/>
<polygon fill="#63b8ff" stroke="#63b8ff" points="111.82,-143.35 111.46,-153.94 118.35,-145.88 111.82,-143.35"/>
</a>
</g>
</g>
<!-- Node6 -->
<g id="Node000006" class="node">
<title>Node6</title>
<g id="a_Node000006"><a xlink:href="box__collider__2d_8h.html" target="_top" xlink:title=" ">
<polygon fill="white" stroke="#666666" points="124,-41 0,-41 0,0 124,0 124,-41"/>
<text text-anchor="start" x="8" y="-29" font-family="Helvetica,sans-Serif" font-size="10.00">include/engine/public</text>
<text text-anchor="start" x="8" y="-18" font-family="Helvetica,sans-Serif" font-size="10.00">/components/colliders</text>
<text text-anchor="middle" x="62" y="-7" font-family="Helvetica,sans-Serif" font-size="10.00">/box_collider_2d.h</text>
</a>
</g>
</g>
<!-- Node5&#45;&gt;Node6 -->
<g id="edge6_Node000005_Node000006" class="edge">
<title>Node5&#45;&gt;Node6</title>
<g id="a_edge6_Node000005_Node000006"><a xlink:title=" ">
<path fill="none" stroke="#63b8ff" d="M107.45,-69.51C98.55,-60.11 88.75,-49.76 80.53,-41.07"/>
<polygon fill="#63b8ff" stroke="#63b8ff" points="104.93,-71.94 114.35,-76.79 110.01,-67.13 104.93,-71.94"/>
</a>
</g>
</g>
<!-- Node7 -->
<g id="Node000007" class="node">
<title>Node7</title>
<g id="a_Node000007"><a xlink:href="circle__collider__2d_8h.html" target="_top" xlink:title=" ">
<polygon fill="white" stroke="#666666" points="266,-41 142,-41 142,0 266,0 266,-41"/>
<text text-anchor="start" x="150" y="-29" font-family="Helvetica,sans-Serif" font-size="10.00">include/engine/public</text>
<text text-anchor="start" x="150" y="-18" font-family="Helvetica,sans-Serif" font-size="10.00">/components/colliders</text>
<text text-anchor="middle" x="204" y="-7" font-family="Helvetica,sans-Serif" font-size="10.00">/circle_collider_2d.h</text>
</a>
</g>
</g>
<!-- Node5&#45;&gt;Node7 -->
<g id="edge7_Node000005_Node000007" class="edge">
<title>Node5&#45;&gt;Node7</title>
<g id="a_edge7_Node000005_Node000007"><a xlink:title=" ">
<path fill="none" stroke="#63b8ff" d="M158.55,-69.51C167.45,-60.11 177.25,-49.76 185.47,-41.07"/>
<polygon fill="#63b8ff" stroke="#63b8ff" points="155.99,-67.13 151.65,-76.79 161.07,-71.94 155.99,-67.13"/>
</a>
</g>
</g>
<!-- Node8&#45;&gt;Node5 -->
<g id="edge9_Node000008_Node000005" class="edge">
<title>Node8&#45;&gt;Node5</title>
<g id="a_edge9_Node000008_Node000005"><a xlink:title=" ">
<path fill="none" stroke="#63b8ff" d="M230.11,-149.24C211.64,-139.59 189.14,-127.84 170.46,-118.07"/>
<polygon fill="#63b8ff" stroke="#63b8ff" points="228.6,-152.41 239.09,-153.94 231.84,-146.2 228.6,-152.41"/>
</a>
</g>
</g>
<!-- Node9&#45;&gt;Node2 -->
<g id="edge11_Node000009_Node000002" class="edge">
<title>Node9&#45;&gt;Node2</title>
<g id="a_edge11_Node000009_Node000002"><a xlink:title=" ">
<path fill="none" stroke="#63b8ff" d="M218.85,-289.69C227.77,-280.57 238.12,-269.99 246.85,-261.07"/>
<polygon fill="#63b8ff" stroke="#63b8ff" points="216.25,-287.34 211.76,-296.94 221.26,-292.24 216.25,-287.34"/>
</a>
</g>
</g>
<!-- Node9&#45;&gt;Node4 -->
<g id="edge12_Node000009_Node000004" class="edge">
<title>Node9&#45;&gt;Node4</title>
<g id="a_edge12_Node000009_Node000004"><a xlink:title=" ">
<path fill="none" stroke="#63b8ff" d="M183.15,-288.24C164.04,-258.95 131.39,-208.91 115.39,-184.4"/>
<polygon fill="#63b8ff" stroke="#63b8ff" points="180.45,-290.5 188.84,-296.96 186.31,-286.68 180.45,-290.5"/>
</a>
</g>
</g>
<!-- Node11 -->
<g id="Node000011" class="node">
<title>Node11</title>
<g id="a_Node000011"><a xlink:href="game_object_8h.html" target="_top" xlink:title=" ">
<polygon fill="white" stroke="#666666" points="520,-255.5 400,-255.5 400,-225.5 520,-225.5 520,-255.5"/>
<text text-anchor="start" x="408" y="-243.5" font-family="Helvetica,sans-Serif" font-size="10.00">include/engine/public</text>
<text text-anchor="middle" x="460" y="-232.5" font-family="Helvetica,sans-Serif" font-size="10.00">/gameObject.h</text>
</a>
</g>
</g>
<!-- Node10&#45;&gt;Node11 -->
<g id="edge15_Node000010_Node000011" class="edge">
<title>Node10&#45;&gt;Node11</title>
<g id="a_edge15_Node000010_Node000011"><a xlink:title=" ">
<path fill="none" stroke="#63b8ff" d="M432.53,-288.06C438.87,-277.32 446.22,-264.86 451.72,-255.54"/>
<polygon fill="#63b8ff" stroke="#63b8ff" points="429.36,-286.54 427.3,-296.94 435.39,-290.1 429.36,-286.54"/>
</a>
</g>
</g>
<!-- Node12 -->
<g id="Node000012" class="node">
<title>Node12</title>
<g id="a_Node000012"><a xlink:href="renderer_8h.html" target="_top" xlink:title=" ">
<polygon fill="white" stroke="#666666" points="667.5,-184 548.5,-184 548.5,-154 667.5,-154 667.5,-184"/>
<text text-anchor="start" x="556.5" y="-172" font-family="Helvetica,sans-Serif" font-size="10.00">include/engine/core</text>
<text text-anchor="middle" x="608" y="-161" font-family="Helvetica,sans-Serif" font-size="10.00">/rendering/renderer.h</text>
</a>
</g>
</g>
<!-- Node11&#45;&gt;Node12 -->
<g id="edge16_Node000011_Node000012" class="edge">
<title>Node11&#45;&gt;Node12</title>
<g id="a_edge16_Node000011_Node000012"><a xlink:title=" ">
<path fill="none" stroke="#63b8ff" d="M499.07,-221.15C523.82,-209.53 555.34,-194.73 578.09,-184.04"/>
<polygon fill="#63b8ff" stroke="#63b8ff" points="497.51,-218.02 489.95,-225.44 500.49,-224.35 497.51,-218.02"/>
</a>
</g>
</g>
<!-- Node14 -->
<g id="Node000014" class="node">
<title>Node14</title>
<g id="a_Node000014"><a xlink:href="scene_8h.html" target="_top" xlink:title=" ">
<polygon fill="white" stroke="#666666" points="520,-184 400,-184 400,-154 520,-154 520,-184"/>
<text text-anchor="start" x="408" y="-172" font-family="Helvetica,sans-Serif" font-size="10.00">include/engine/public</text>
<text text-anchor="middle" x="460" y="-161" font-family="Helvetica,sans-Serif" font-size="10.00">/scene.h</text>
</a>
</g>
</g>
<!-- Node11&#45;&gt;Node14 -->
<g id="edge18_Node000011_Node000014" class="edge">
<title>Node11&#45;&gt;Node14</title>
<g id="a_edge18_Node000011_Node000014"><a xlink:title=" ">
<path fill="none" stroke="#63b8ff" d="M460,-215.25C460,-204.81 460,-192.99 460,-184.04"/>
<polygon fill="#63b8ff" stroke="#63b8ff" points="456.5,-215.44 460,-225.44 463.5,-215.44 456.5,-215.44"/>
</a>
</g>
</g>
<!-- Node13 -->
<g id="Node000013" class="node">
<title>Node13</title>
<g id="a_Node000013"><a xlink:href="rendering_service_8h.html" target="_top" xlink:title=" ">
<polygon fill="white" stroke="#666666" points="693.5,-112.5 532.5,-112.5 532.5,-82.5 693.5,-82.5 693.5,-112.5"/>
<text text-anchor="start" x="540.5" y="-100.5" font-family="Helvetica,sans-Serif" font-size="10.00">include/engine/core</text>
<text text-anchor="middle" x="613" y="-89.5" font-family="Helvetica,sans-Serif" font-size="10.00">/rendering/renderingService.h</text>
</a>
</g>
</g>
<!-- Node12&#45;&gt;Node13 -->
<g id="edge17_Node000012_Node000013" class="edge">
<title>Node12&#45;&gt;Node13</title>
<g id="a_edge17_Node000012_Node000013"><a xlink:title=" ">
<path fill="none" stroke="#63b8ff" d="M609.74,-143.75C610.5,-133.31 611.35,-121.49 611.99,-112.54"/>
<polygon fill="#63b8ff" stroke="#63b8ff" points="606.24,-143.71 609.01,-153.94 613.22,-144.21 606.24,-143.71"/>
</a>
</g>
</g>
<!-- Node15 -->
<g id="Node000015" class="node">
<title>Node15</title>
<g id="a_Node000015"><a xlink:href="scene__service_8h.html" target="_top" xlink:title=" ">
<polygon fill="white" stroke="#666666" points="514,-112.5 394,-112.5 394,-82.5 514,-82.5 514,-112.5"/>
<text text-anchor="start" x="402" y="-100.5" font-family="Helvetica,sans-Serif" font-size="10.00">include/engine/public</text>
<text text-anchor="middle" x="454" y="-89.5" font-family="Helvetica,sans-Serif" font-size="10.00">/scene_service.h</text>
</a>
</g>
</g>
<!-- Node14&#45;&gt;Node15 -->
<g id="edge19_Node000014_Node000015" class="edge">
<title>Node14&#45;&gt;Node15</title>
<g id="a_edge19_Node000014_Node000015"><a xlink:title=" ">
<path fill="none" stroke="#63b8ff" d="M457.91,-143.75C457.01,-133.31 455.98,-121.49 455.21,-112.54"/>
<polygon fill="#63b8ff" stroke="#63b8ff" points="454.44,-144.27 458.79,-153.94 461.41,-143.67 454.44,-144.27"/>
</a>
</g>
</g>
</g>
</svg>
